G75*
%MOIN*%
%OFA0B0*%
%FSLAX24Y24*%
%IPPOS*%
%LPD*%
%AMOC8*
5,1,8,0,0,1.08239X$1,22.5*
%
%ADD10C,0.0000*%
%ADD11R,0.0630X0.0512*%
%ADD12R,0.0512X0.0630*%
%ADD13R,0.0551X0.0394*%
%ADD14R,0.0472X0.0354*%
%ADD15R,0.0315X0.0630*%
%ADD16R,0.0630X0.0315*%
%ADD17R,0.0472X0.0217*%
%ADD18R,0.0551X0.0866*%
%ADD19C,0.0142*%
%ADD20C,0.0394*%
%ADD21C,0.0050*%
%ADD22C,0.0016*%
%ADD23C,0.0060*%
%ADD24R,0.0748X0.1339*%
%ADD25R,0.0512X0.0413*%
%ADD26R,0.1063X0.0630*%
%ADD27R,0.0394X0.0394*%
D10*
X001991Y002069D02*
X001993Y002119D01*
X001999Y002169D01*
X002009Y002219D01*
X002022Y002267D01*
X002039Y002315D01*
X002060Y002361D01*
X002084Y002405D01*
X002112Y002447D01*
X002143Y002487D01*
X002177Y002524D01*
X002214Y002559D01*
X002253Y002590D01*
X002294Y002619D01*
X002338Y002644D01*
X002384Y002666D01*
X002431Y002684D01*
X002479Y002698D01*
X002528Y002709D01*
X002578Y002716D01*
X002628Y002719D01*
X002679Y002718D01*
X002729Y002713D01*
X002779Y002704D01*
X002827Y002692D01*
X002875Y002675D01*
X002921Y002655D01*
X002966Y002632D01*
X003009Y002605D01*
X003049Y002575D01*
X003087Y002542D01*
X003122Y002506D01*
X003155Y002467D01*
X003184Y002426D01*
X003210Y002383D01*
X003233Y002338D01*
X003252Y002291D01*
X003267Y002243D01*
X003279Y002194D01*
X003287Y002144D01*
X003291Y002094D01*
X003291Y002044D01*
X003287Y001994D01*
X003279Y001944D01*
X003267Y001895D01*
X003252Y001847D01*
X003233Y001800D01*
X003210Y001755D01*
X003184Y001712D01*
X003155Y001671D01*
X003122Y001632D01*
X003087Y001596D01*
X003049Y001563D01*
X003009Y001533D01*
X002966Y001506D01*
X002921Y001483D01*
X002875Y001463D01*
X002827Y001446D01*
X002779Y001434D01*
X002729Y001425D01*
X002679Y001420D01*
X002628Y001419D01*
X002578Y001422D01*
X002528Y001429D01*
X002479Y001440D01*
X002431Y001454D01*
X002384Y001472D01*
X002338Y001494D01*
X002294Y001519D01*
X002253Y001548D01*
X002214Y001579D01*
X002177Y001614D01*
X002143Y001651D01*
X002112Y001691D01*
X002084Y001733D01*
X002060Y001777D01*
X002039Y001823D01*
X002022Y001871D01*
X002009Y001919D01*
X001999Y001969D01*
X001993Y002019D01*
X001991Y002069D01*
X000672Y003250D02*
X000672Y018210D01*
X001991Y019391D02*
X001993Y019441D01*
X001999Y019491D01*
X002009Y019541D01*
X002022Y019589D01*
X002039Y019637D01*
X002060Y019683D01*
X002084Y019727D01*
X002112Y019769D01*
X002143Y019809D01*
X002177Y019846D01*
X002214Y019881D01*
X002253Y019912D01*
X002294Y019941D01*
X002338Y019966D01*
X002384Y019988D01*
X002431Y020006D01*
X002479Y020020D01*
X002528Y020031D01*
X002578Y020038D01*
X002628Y020041D01*
X002679Y020040D01*
X002729Y020035D01*
X002779Y020026D01*
X002827Y020014D01*
X002875Y019997D01*
X002921Y019977D01*
X002966Y019954D01*
X003009Y019927D01*
X003049Y019897D01*
X003087Y019864D01*
X003122Y019828D01*
X003155Y019789D01*
X003184Y019748D01*
X003210Y019705D01*
X003233Y019660D01*
X003252Y019613D01*
X003267Y019565D01*
X003279Y019516D01*
X003287Y019466D01*
X003291Y019416D01*
X003291Y019366D01*
X003287Y019316D01*
X003279Y019266D01*
X003267Y019217D01*
X003252Y019169D01*
X003233Y019122D01*
X003210Y019077D01*
X003184Y019034D01*
X003155Y018993D01*
X003122Y018954D01*
X003087Y018918D01*
X003049Y018885D01*
X003009Y018855D01*
X002966Y018828D01*
X002921Y018805D01*
X002875Y018785D01*
X002827Y018768D01*
X002779Y018756D01*
X002729Y018747D01*
X002679Y018742D01*
X002628Y018741D01*
X002578Y018744D01*
X002528Y018751D01*
X002479Y018762D01*
X002431Y018776D01*
X002384Y018794D01*
X002338Y018816D01*
X002294Y018841D01*
X002253Y018870D01*
X002214Y018901D01*
X002177Y018936D01*
X002143Y018973D01*
X002112Y019013D01*
X002084Y019055D01*
X002060Y019099D01*
X002039Y019145D01*
X002022Y019193D01*
X002009Y019241D01*
X001999Y019291D01*
X001993Y019341D01*
X001991Y019391D01*
X000672Y018211D02*
X000687Y018326D01*
X000705Y018442D01*
X000727Y018556D01*
X000754Y018670D01*
X000783Y018783D01*
X000817Y018894D01*
X000854Y019005D01*
X000894Y019114D01*
X000939Y019222D01*
X000986Y019329D01*
X001038Y019434D01*
X001092Y019537D01*
X001150Y019638D01*
X001211Y019737D01*
X001276Y019834D01*
X001343Y019930D01*
X001414Y020022D01*
X001488Y020113D01*
X001564Y020201D01*
X001644Y020286D01*
X001726Y020369D01*
X001811Y020449D01*
X001898Y020526D01*
X001988Y020601D01*
X002080Y020672D01*
X002175Y020740D01*
X002272Y020806D01*
X002370Y020868D01*
X002471Y020926D01*
X002574Y020982D01*
X002678Y021034D01*
X002784Y021082D01*
X002892Y021127D01*
X003001Y021169D01*
X003111Y021207D01*
X003223Y021241D01*
X003335Y021272D01*
X003449Y021299D01*
X003563Y021322D01*
X003678Y021341D01*
X003794Y021357D01*
X003910Y021369D01*
X004026Y021377D01*
X004143Y021381D01*
X004259Y021382D01*
X004376Y021378D01*
X004493Y021371D01*
X004609Y021360D01*
X018782Y021360D01*
X019313Y019391D02*
X019315Y019441D01*
X019321Y019491D01*
X019331Y019541D01*
X019344Y019589D01*
X019361Y019637D01*
X019382Y019683D01*
X019406Y019727D01*
X019434Y019769D01*
X019465Y019809D01*
X019499Y019846D01*
X019536Y019881D01*
X019575Y019912D01*
X019616Y019941D01*
X019660Y019966D01*
X019706Y019988D01*
X019753Y020006D01*
X019801Y020020D01*
X019850Y020031D01*
X019900Y020038D01*
X019950Y020041D01*
X020001Y020040D01*
X020051Y020035D01*
X020101Y020026D01*
X020149Y020014D01*
X020197Y019997D01*
X020243Y019977D01*
X020288Y019954D01*
X020331Y019927D01*
X020371Y019897D01*
X020409Y019864D01*
X020444Y019828D01*
X020477Y019789D01*
X020506Y019748D01*
X020532Y019705D01*
X020555Y019660D01*
X020574Y019613D01*
X020589Y019565D01*
X020601Y019516D01*
X020609Y019466D01*
X020613Y019416D01*
X020613Y019366D01*
X020609Y019316D01*
X020601Y019266D01*
X020589Y019217D01*
X020574Y019169D01*
X020555Y019122D01*
X020532Y019077D01*
X020506Y019034D01*
X020477Y018993D01*
X020444Y018954D01*
X020409Y018918D01*
X020371Y018885D01*
X020331Y018855D01*
X020288Y018828D01*
X020243Y018805D01*
X020197Y018785D01*
X020149Y018768D01*
X020101Y018756D01*
X020051Y018747D01*
X020001Y018742D01*
X019950Y018741D01*
X019900Y018744D01*
X019850Y018751D01*
X019801Y018762D01*
X019753Y018776D01*
X019706Y018794D01*
X019660Y018816D01*
X019616Y018841D01*
X019575Y018870D01*
X019536Y018901D01*
X019499Y018936D01*
X019465Y018973D01*
X019434Y019013D01*
X019406Y019055D01*
X019382Y019099D01*
X019361Y019145D01*
X019344Y019193D01*
X019331Y019241D01*
X019321Y019291D01*
X019315Y019341D01*
X019313Y019391D01*
X018782Y021360D02*
X018892Y021358D01*
X019002Y021352D01*
X019111Y021343D01*
X019220Y021329D01*
X019329Y021312D01*
X019437Y021291D01*
X019544Y021266D01*
X019650Y021238D01*
X019755Y021206D01*
X019859Y021170D01*
X019962Y021131D01*
X020063Y021088D01*
X020163Y021041D01*
X020261Y020991D01*
X020357Y020938D01*
X020451Y020881D01*
X020543Y020821D01*
X020634Y020758D01*
X020721Y020692D01*
X020807Y020623D01*
X020890Y020551D01*
X020970Y020476D01*
X021048Y020398D01*
X021123Y020318D01*
X021195Y020235D01*
X021264Y020149D01*
X021330Y020062D01*
X021393Y019971D01*
X021453Y019879D01*
X021510Y019785D01*
X021563Y019689D01*
X021613Y019591D01*
X021660Y019491D01*
X021703Y019390D01*
X021742Y019287D01*
X021778Y019183D01*
X021810Y019078D01*
X021838Y018972D01*
X021863Y018865D01*
X021884Y018757D01*
X021901Y018648D01*
X021915Y018539D01*
X021924Y018430D01*
X021930Y018320D01*
X021932Y018210D01*
X021932Y003250D01*
X019313Y002069D02*
X019315Y002119D01*
X019321Y002169D01*
X019331Y002219D01*
X019344Y002267D01*
X019361Y002315D01*
X019382Y002361D01*
X019406Y002405D01*
X019434Y002447D01*
X019465Y002487D01*
X019499Y002524D01*
X019536Y002559D01*
X019575Y002590D01*
X019616Y002619D01*
X019660Y002644D01*
X019706Y002666D01*
X019753Y002684D01*
X019801Y002698D01*
X019850Y002709D01*
X019900Y002716D01*
X019950Y002719D01*
X020001Y002718D01*
X020051Y002713D01*
X020101Y002704D01*
X020149Y002692D01*
X020197Y002675D01*
X020243Y002655D01*
X020288Y002632D01*
X020331Y002605D01*
X020371Y002575D01*
X020409Y002542D01*
X020444Y002506D01*
X020477Y002467D01*
X020506Y002426D01*
X020532Y002383D01*
X020555Y002338D01*
X020574Y002291D01*
X020589Y002243D01*
X020601Y002194D01*
X020609Y002144D01*
X020613Y002094D01*
X020613Y002044D01*
X020609Y001994D01*
X020601Y001944D01*
X020589Y001895D01*
X020574Y001847D01*
X020555Y001800D01*
X020532Y001755D01*
X020506Y001712D01*
X020477Y001671D01*
X020444Y001632D01*
X020409Y001596D01*
X020371Y001563D01*
X020331Y001533D01*
X020288Y001506D01*
X020243Y001483D01*
X020197Y001463D01*
X020149Y001446D01*
X020101Y001434D01*
X020051Y001425D01*
X020001Y001420D01*
X019950Y001419D01*
X019900Y001422D01*
X019850Y001429D01*
X019801Y001440D01*
X019753Y001454D01*
X019706Y001472D01*
X019660Y001494D01*
X019616Y001519D01*
X019575Y001548D01*
X019536Y001579D01*
X019499Y001614D01*
X019465Y001651D01*
X019434Y001691D01*
X019406Y001733D01*
X019382Y001777D01*
X019361Y001823D01*
X019344Y001871D01*
X019331Y001919D01*
X019321Y001969D01*
X019315Y002019D01*
X019313Y002069D01*
X018782Y000100D02*
X018892Y000102D01*
X019002Y000108D01*
X019111Y000117D01*
X019220Y000131D01*
X019329Y000148D01*
X019437Y000169D01*
X019544Y000194D01*
X019650Y000222D01*
X019755Y000254D01*
X019859Y000290D01*
X019962Y000329D01*
X020063Y000372D01*
X020163Y000419D01*
X020261Y000469D01*
X020357Y000522D01*
X020451Y000579D01*
X020543Y000639D01*
X020634Y000702D01*
X020721Y000768D01*
X020807Y000837D01*
X020890Y000909D01*
X020970Y000984D01*
X021048Y001062D01*
X021123Y001142D01*
X021195Y001225D01*
X021264Y001311D01*
X021330Y001398D01*
X021393Y001489D01*
X021453Y001581D01*
X021510Y001675D01*
X021563Y001771D01*
X021613Y001869D01*
X021660Y001969D01*
X021703Y002070D01*
X021742Y002173D01*
X021778Y002277D01*
X021810Y002382D01*
X021838Y002488D01*
X021863Y002595D01*
X021884Y002703D01*
X021901Y002812D01*
X021915Y002921D01*
X021924Y003030D01*
X021930Y003140D01*
X021932Y003250D01*
X018782Y000100D02*
X003822Y000100D01*
X003712Y000102D01*
X003602Y000108D01*
X003493Y000117D01*
X003384Y000131D01*
X003275Y000148D01*
X003167Y000169D01*
X003060Y000194D01*
X002954Y000222D01*
X002849Y000254D01*
X002745Y000290D01*
X002642Y000329D01*
X002541Y000372D01*
X002441Y000419D01*
X002343Y000469D01*
X002247Y000522D01*
X002153Y000579D01*
X002061Y000639D01*
X001970Y000702D01*
X001883Y000768D01*
X001797Y000837D01*
X001714Y000909D01*
X001634Y000984D01*
X001556Y001062D01*
X001481Y001142D01*
X001409Y001225D01*
X001340Y001311D01*
X001274Y001398D01*
X001211Y001489D01*
X001151Y001581D01*
X001094Y001675D01*
X001041Y001771D01*
X000991Y001869D01*
X000944Y001969D01*
X000901Y002070D01*
X000862Y002173D01*
X000826Y002277D01*
X000794Y002382D01*
X000766Y002488D01*
X000741Y002595D01*
X000720Y002703D01*
X000703Y002812D01*
X000689Y002921D01*
X000680Y003030D01*
X000674Y003140D01*
X000672Y003250D01*
D11*
X004058Y003269D03*
X004058Y004057D03*
X005081Y004057D03*
X005081Y003269D03*
X006125Y003269D03*
X006125Y004057D03*
X006381Y006084D03*
X006381Y006872D03*
X008270Y007344D03*
X008270Y008131D03*
X009845Y009076D03*
X009845Y009864D03*
X008389Y011084D03*
X008389Y011872D03*
X008270Y012738D03*
X008270Y013525D03*
X009791Y012423D03*
X009791Y011635D03*
X011538Y007423D03*
X011538Y006635D03*
X014058Y007187D03*
X014058Y007974D03*
X018549Y004424D03*
X018549Y003636D03*
X005396Y015100D03*
X005160Y014431D03*
X005160Y013643D03*
X005396Y015887D03*
X004885Y017566D03*
X004885Y018353D03*
X005908Y018353D03*
X005908Y017566D03*
X002818Y013860D03*
X002818Y013072D03*
X001317Y010061D03*
X001317Y009273D03*
X010513Y019656D03*
X010513Y020444D03*
X011519Y020444D03*
X011519Y019657D03*
X014333Y019116D03*
X014333Y018328D03*
D12*
X013704Y017201D03*
X012916Y017201D03*
X013098Y020425D03*
X012311Y020425D03*
X007522Y014273D03*
X006735Y014273D03*
X002050Y014480D03*
X001263Y014480D03*
X001263Y012093D03*
X002050Y012093D03*
X003236Y007561D03*
X004023Y007561D03*
X007168Y006188D03*
X007956Y006188D03*
X010515Y008328D03*
X011302Y008328D03*
X017326Y007949D03*
X018113Y007949D03*
X017778Y002836D03*
X018566Y002836D03*
D13*
X007680Y005061D03*
X006735Y005435D03*
X006735Y004687D03*
D14*
X012326Y007502D03*
X013270Y007876D03*
X013270Y007128D03*
D15*
X013507Y008761D03*
X014058Y008761D03*
X014609Y008761D03*
X015160Y008761D03*
X015711Y008761D03*
X016263Y008761D03*
X016814Y008761D03*
X017365Y008761D03*
X017916Y008761D03*
X012956Y008761D03*
X012404Y008761D03*
X011853Y008761D03*
X011853Y016399D03*
X012404Y016399D03*
X012956Y016399D03*
X013507Y016399D03*
X014058Y016399D03*
X014609Y016399D03*
X015160Y016399D03*
X015711Y016399D03*
X016263Y016399D03*
X016814Y016399D03*
X017365Y016399D03*
X017916Y016399D03*
D16*
X010593Y015612D03*
X010593Y015061D03*
X010593Y014509D03*
X010593Y013958D03*
X010593Y013407D03*
X010593Y012856D03*
X010593Y012305D03*
X010593Y011754D03*
X010593Y011202D03*
X010593Y010651D03*
X010593Y010100D03*
X010593Y009549D03*
D17*
X009255Y016237D03*
X009255Y016985D03*
X008231Y016985D03*
X008231Y016611D03*
X008231Y016237D03*
D18*
X009058Y019234D03*
X009058Y020494D03*
D19*
X006915Y013085D02*
X006915Y012677D01*
X006915Y013085D02*
X006949Y013085D01*
X006949Y012677D01*
X006915Y012677D01*
X006915Y012818D02*
X006949Y012818D01*
X006949Y012959D02*
X006915Y012959D01*
X006600Y013085D02*
X006600Y012677D01*
X006600Y013085D02*
X006634Y013085D01*
X006634Y012677D01*
X006600Y012677D01*
X006600Y012818D02*
X006634Y012818D01*
X006634Y012959D02*
X006600Y012959D01*
X006285Y013085D02*
X006285Y012677D01*
X006285Y013085D02*
X006319Y013085D01*
X006319Y012677D01*
X006285Y012677D01*
X006285Y012818D02*
X006319Y012818D01*
X006319Y012959D02*
X006285Y012959D01*
X005970Y013085D02*
X005970Y012677D01*
X005970Y013085D02*
X006004Y013085D01*
X006004Y012677D01*
X005970Y012677D01*
X005970Y012818D02*
X006004Y012818D01*
X006004Y012959D02*
X005970Y012959D01*
X005655Y013085D02*
X005655Y012677D01*
X005655Y013085D02*
X005689Y013085D01*
X005689Y012677D01*
X005655Y012677D01*
X005655Y012818D02*
X005689Y012818D01*
X005689Y012959D02*
X005655Y012959D01*
X005340Y013085D02*
X005340Y012677D01*
X005340Y013085D02*
X005374Y013085D01*
X005374Y012677D01*
X005340Y012677D01*
X005340Y012818D02*
X005374Y012818D01*
X005374Y012959D02*
X005340Y012959D01*
X005025Y013085D02*
X005025Y012677D01*
X005025Y013085D02*
X005059Y013085D01*
X005059Y012677D01*
X005025Y012677D01*
X005025Y012818D02*
X005059Y012818D01*
X005059Y012959D02*
X005025Y012959D01*
X004710Y013085D02*
X004710Y012677D01*
X004710Y013085D02*
X004744Y013085D01*
X004744Y012677D01*
X004710Y012677D01*
X004710Y012818D02*
X004744Y012818D01*
X004744Y012959D02*
X004710Y012959D01*
X004395Y013085D02*
X004395Y012677D01*
X004395Y013085D02*
X004429Y013085D01*
X004429Y012677D01*
X004395Y012677D01*
X004395Y012818D02*
X004429Y012818D01*
X004429Y012959D02*
X004395Y012959D01*
X004080Y013085D02*
X004080Y012677D01*
X004080Y013085D02*
X004114Y013085D01*
X004114Y012677D01*
X004080Y012677D01*
X004080Y012818D02*
X004114Y012818D01*
X004114Y012959D02*
X004080Y012959D01*
X003765Y013085D02*
X003765Y012677D01*
X003765Y013085D02*
X003799Y013085D01*
X003799Y012677D01*
X003765Y012677D01*
X003765Y012818D02*
X003799Y012818D01*
X003799Y012959D02*
X003765Y012959D01*
X002870Y012189D02*
X002870Y012155D01*
X002870Y012189D02*
X003278Y012189D01*
X003278Y012155D01*
X002870Y012155D01*
X002870Y011874D02*
X002870Y011840D01*
X002870Y011874D02*
X003278Y011874D01*
X003278Y011840D01*
X002870Y011840D01*
X002870Y011559D02*
X002870Y011525D01*
X002870Y011559D02*
X003278Y011559D01*
X003278Y011525D01*
X002870Y011525D01*
X002870Y011244D02*
X002870Y011210D01*
X002870Y011244D02*
X003278Y011244D01*
X003278Y011210D01*
X002870Y011210D01*
X002870Y010929D02*
X002870Y010895D01*
X002870Y010929D02*
X003278Y010929D01*
X003278Y010895D01*
X002870Y010895D01*
X002870Y010614D02*
X002870Y010580D01*
X002870Y010614D02*
X003278Y010614D01*
X003278Y010580D01*
X002870Y010580D01*
X002870Y010299D02*
X002870Y010265D01*
X002870Y010299D02*
X003278Y010299D01*
X003278Y010265D01*
X002870Y010265D01*
X002870Y009984D02*
X002870Y009950D01*
X002870Y009984D02*
X003278Y009984D01*
X003278Y009950D01*
X002870Y009950D01*
X002870Y009669D02*
X002870Y009635D01*
X002870Y009669D02*
X003278Y009669D01*
X003278Y009635D01*
X002870Y009635D01*
X002870Y009354D02*
X002870Y009320D01*
X002870Y009354D02*
X003278Y009354D01*
X003278Y009320D01*
X002870Y009320D01*
X002870Y009039D02*
X002870Y009005D01*
X002870Y009039D02*
X003278Y009039D01*
X003278Y009005D01*
X002870Y009005D01*
X003765Y008518D02*
X003765Y008110D01*
X003765Y008518D02*
X003799Y008518D01*
X003799Y008110D01*
X003765Y008110D01*
X003765Y008251D02*
X003799Y008251D01*
X003799Y008392D02*
X003765Y008392D01*
X004080Y008518D02*
X004080Y008110D01*
X004080Y008518D02*
X004114Y008518D01*
X004114Y008110D01*
X004080Y008110D01*
X004080Y008251D02*
X004114Y008251D01*
X004114Y008392D02*
X004080Y008392D01*
X004395Y008518D02*
X004395Y008110D01*
X004395Y008518D02*
X004429Y008518D01*
X004429Y008110D01*
X004395Y008110D01*
X004395Y008251D02*
X004429Y008251D01*
X004429Y008392D02*
X004395Y008392D01*
X004710Y008518D02*
X004710Y008110D01*
X004710Y008518D02*
X004744Y008518D01*
X004744Y008110D01*
X004710Y008110D01*
X004710Y008251D02*
X004744Y008251D01*
X004744Y008392D02*
X004710Y008392D01*
X005025Y008518D02*
X005025Y008110D01*
X005025Y008518D02*
X005059Y008518D01*
X005059Y008110D01*
X005025Y008110D01*
X005025Y008251D02*
X005059Y008251D01*
X005059Y008392D02*
X005025Y008392D01*
X005340Y008518D02*
X005340Y008110D01*
X005340Y008518D02*
X005374Y008518D01*
X005374Y008110D01*
X005340Y008110D01*
X005340Y008251D02*
X005374Y008251D01*
X005374Y008392D02*
X005340Y008392D01*
X005655Y008518D02*
X005655Y008110D01*
X005655Y008518D02*
X005689Y008518D01*
X005689Y008110D01*
X005655Y008110D01*
X005655Y008251D02*
X005689Y008251D01*
X005689Y008392D02*
X005655Y008392D01*
X005970Y008518D02*
X005970Y008110D01*
X005970Y008518D02*
X006004Y008518D01*
X006004Y008110D01*
X005970Y008110D01*
X005970Y008251D02*
X006004Y008251D01*
X006004Y008392D02*
X005970Y008392D01*
X006285Y008518D02*
X006285Y008110D01*
X006285Y008518D02*
X006319Y008518D01*
X006319Y008110D01*
X006285Y008110D01*
X006285Y008251D02*
X006319Y008251D01*
X006319Y008392D02*
X006285Y008392D01*
X006600Y008518D02*
X006600Y008110D01*
X006600Y008518D02*
X006634Y008518D01*
X006634Y008110D01*
X006600Y008110D01*
X006600Y008251D02*
X006634Y008251D01*
X006634Y008392D02*
X006600Y008392D01*
X006915Y008518D02*
X006915Y008110D01*
X006915Y008518D02*
X006949Y008518D01*
X006949Y008110D01*
X006915Y008110D01*
X006915Y008251D02*
X006949Y008251D01*
X006949Y008392D02*
X006915Y008392D01*
X007437Y009005D02*
X007437Y009039D01*
X007845Y009039D01*
X007845Y009005D01*
X007437Y009005D01*
X007437Y009320D02*
X007437Y009354D01*
X007845Y009354D01*
X007845Y009320D01*
X007437Y009320D01*
X007437Y009635D02*
X007437Y009669D01*
X007845Y009669D01*
X007845Y009635D01*
X007437Y009635D01*
X007437Y009950D02*
X007437Y009984D01*
X007845Y009984D01*
X007845Y009950D01*
X007437Y009950D01*
X007437Y010265D02*
X007437Y010299D01*
X007845Y010299D01*
X007845Y010265D01*
X007437Y010265D01*
X007437Y010580D02*
X007437Y010614D01*
X007845Y010614D01*
X007845Y010580D01*
X007437Y010580D01*
X007437Y010895D02*
X007437Y010929D01*
X007845Y010929D01*
X007845Y010895D01*
X007437Y010895D01*
X007437Y011210D02*
X007437Y011244D01*
X007845Y011244D01*
X007845Y011210D01*
X007437Y011210D01*
X007437Y011525D02*
X007437Y011559D01*
X007845Y011559D01*
X007845Y011525D01*
X007437Y011525D01*
X007437Y011840D02*
X007437Y011874D01*
X007845Y011874D01*
X007845Y011840D01*
X007437Y011840D01*
X007437Y012155D02*
X007437Y012189D01*
X007845Y012189D01*
X007845Y012155D01*
X007437Y012155D01*
D20*
X005357Y010597D03*
D21*
X005206Y019549D02*
X004886Y019549D01*
X004886Y019589D02*
X004873Y019591D01*
X004861Y019596D01*
X004851Y019604D01*
X004843Y019614D01*
X004838Y019626D01*
X004836Y019639D01*
X004836Y019799D01*
X004838Y019812D01*
X004843Y019824D01*
X004851Y019834D01*
X004861Y019842D01*
X004873Y019847D01*
X004886Y019849D01*
X004886Y019889D02*
X005206Y019889D01*
X005223Y019887D01*
X005240Y019883D01*
X005256Y019876D01*
X005270Y019866D01*
X005283Y019853D01*
X005293Y019839D01*
X005300Y019823D01*
X005304Y019806D01*
X005306Y019789D01*
X005306Y019649D01*
X005266Y019649D02*
X005264Y019636D01*
X005259Y019624D01*
X005251Y019614D01*
X005241Y019606D01*
X005229Y019601D01*
X005216Y019599D01*
X005206Y019549D02*
X005223Y019551D01*
X005240Y019555D01*
X005256Y019562D01*
X005270Y019572D01*
X005283Y019585D01*
X005293Y019599D01*
X005300Y019615D01*
X005304Y019632D01*
X005306Y019649D01*
X005266Y019789D02*
X005264Y019802D01*
X005259Y019814D01*
X005251Y019824D01*
X005241Y019832D01*
X005229Y019837D01*
X005216Y019839D01*
X004886Y019889D02*
X004869Y019887D01*
X004852Y019883D01*
X004836Y019876D01*
X004822Y019866D01*
X004809Y019853D01*
X004799Y019839D01*
X004792Y019823D01*
X004788Y019806D01*
X004786Y019789D01*
X004786Y019649D01*
X004788Y019632D01*
X004792Y019615D01*
X004799Y019599D01*
X004809Y019585D01*
X004822Y019572D01*
X004836Y019562D01*
X004852Y019555D01*
X004869Y019551D01*
X004886Y019549D01*
X004906Y020509D02*
X004546Y020509D01*
X004486Y020549D02*
X004486Y021009D01*
X004446Y020949D02*
X004446Y020609D01*
X004448Y020592D01*
X004452Y020575D01*
X004459Y020559D01*
X004469Y020545D01*
X004482Y020532D01*
X004496Y020522D01*
X004512Y020515D01*
X004529Y020511D01*
X004546Y020509D01*
X004816Y020539D02*
X004816Y021009D01*
X004817Y021014D01*
X004821Y021018D01*
X004826Y021019D01*
X004866Y021019D01*
X004866Y020549D01*
X004916Y020549D01*
X004916Y021009D01*
X004966Y021009D01*
X004966Y020549D01*
X005006Y020609D02*
X005006Y020949D01*
X005004Y020966D01*
X005000Y020983D01*
X004993Y020999D01*
X004983Y021013D01*
X004970Y021026D01*
X004956Y021036D01*
X004940Y021043D01*
X004923Y021047D01*
X004906Y021049D01*
X004546Y021049D01*
X004529Y021047D01*
X004512Y021043D01*
X004496Y021036D01*
X004482Y021026D01*
X004469Y021013D01*
X004459Y020999D01*
X004452Y020983D01*
X004448Y020966D01*
X004446Y020949D01*
X004906Y020509D02*
X004923Y020511D01*
X004940Y020515D01*
X004956Y020522D01*
X004970Y020532D01*
X004983Y020545D01*
X004993Y020559D01*
X005000Y020575D01*
X005004Y020592D01*
X005006Y020609D01*
X006746Y019789D02*
X006746Y019649D01*
X006796Y019639D02*
X006796Y019799D01*
X006798Y019812D01*
X006803Y019824D01*
X006811Y019834D01*
X006821Y019842D01*
X006833Y019847D01*
X006846Y019849D01*
X006746Y019649D02*
X006748Y019632D01*
X006752Y019615D01*
X006759Y019599D01*
X006769Y019585D01*
X006782Y019572D01*
X006796Y019562D01*
X006812Y019555D01*
X006829Y019551D01*
X006846Y019549D01*
X007166Y019549D01*
X007166Y019589D02*
X007179Y019591D01*
X007192Y019595D01*
X007203Y019602D01*
X007213Y019612D01*
X007220Y019623D01*
X007224Y019636D01*
X007226Y019649D01*
X007216Y019799D01*
X007214Y019812D01*
X007209Y019824D01*
X007201Y019834D01*
X007191Y019842D01*
X007179Y019847D01*
X007166Y019849D01*
X007166Y019889D02*
X007183Y019887D01*
X007200Y019883D01*
X007216Y019876D01*
X007230Y019866D01*
X007243Y019853D01*
X007253Y019839D01*
X007260Y019823D01*
X007264Y019806D01*
X007266Y019789D01*
X007266Y019649D01*
X007264Y019632D01*
X007260Y019615D01*
X007253Y019599D01*
X007243Y019585D01*
X007230Y019572D01*
X007216Y019562D01*
X007200Y019555D01*
X007183Y019551D01*
X007166Y019549D01*
X006846Y019589D02*
X006833Y019591D01*
X006821Y019596D01*
X006811Y019604D01*
X006803Y019614D01*
X006798Y019626D01*
X006796Y019639D01*
X007136Y020509D02*
X007516Y020509D01*
X007576Y020549D02*
X007576Y021009D01*
X007516Y021049D02*
X007136Y021049D01*
X007146Y021029D02*
X007146Y020529D01*
X007106Y020529D01*
X007106Y021029D01*
X007086Y021029D01*
X007086Y020529D01*
X007036Y020609D02*
X007036Y020949D01*
X007038Y020966D01*
X007042Y020983D01*
X007049Y020999D01*
X007059Y021013D01*
X007072Y021026D01*
X007086Y021036D01*
X007102Y021043D01*
X007119Y021047D01*
X007136Y021049D01*
X007146Y021029D02*
X007196Y021029D01*
X007196Y020519D01*
X007186Y020519D01*
X007196Y020519D02*
X007236Y020519D01*
X007236Y021029D01*
X007516Y021049D02*
X007533Y021047D01*
X007550Y021043D01*
X007566Y021036D01*
X007580Y021026D01*
X007593Y021013D01*
X007603Y020999D01*
X007610Y020983D01*
X007614Y020966D01*
X007616Y020949D01*
X007616Y020609D01*
X007614Y020592D01*
X007610Y020575D01*
X007603Y020559D01*
X007593Y020545D01*
X007580Y020532D01*
X007566Y020522D01*
X007550Y020515D01*
X007533Y020511D01*
X007516Y020509D01*
X007136Y020509D02*
X007119Y020511D01*
X007102Y020515D01*
X007086Y020522D01*
X007072Y020532D01*
X007059Y020545D01*
X007049Y020559D01*
X007042Y020575D01*
X007038Y020592D01*
X007036Y020609D01*
D22*
X006618Y019976D02*
X006474Y019976D01*
X006618Y019976D02*
X006618Y019462D01*
X006474Y019462D01*
X006474Y019976D01*
X006474Y019477D02*
X006618Y019477D01*
X006618Y019492D02*
X006474Y019492D01*
X006474Y019507D02*
X006618Y019507D01*
X006618Y019522D02*
X006474Y019522D01*
X006474Y019537D02*
X006618Y019537D01*
X006618Y019552D02*
X006474Y019552D01*
X006474Y019567D02*
X006618Y019567D01*
X006618Y019582D02*
X006474Y019582D01*
X006474Y019597D02*
X006618Y019597D01*
X006618Y019612D02*
X006474Y019612D01*
X006474Y019627D02*
X006618Y019627D01*
X006618Y019642D02*
X006474Y019642D01*
X006474Y019657D02*
X006618Y019657D01*
X006618Y019672D02*
X006474Y019672D01*
X006474Y019687D02*
X006618Y019687D01*
X006618Y019702D02*
X006474Y019702D01*
X006474Y019717D02*
X006618Y019717D01*
X006618Y019732D02*
X006474Y019732D01*
X006474Y019747D02*
X006618Y019747D01*
X006618Y019762D02*
X006474Y019762D01*
X006474Y019777D02*
X006618Y019777D01*
X006618Y019792D02*
X006474Y019792D01*
X006474Y019807D02*
X006618Y019807D01*
X006618Y019822D02*
X006474Y019822D01*
X006474Y019837D02*
X006618Y019837D01*
X006618Y019852D02*
X006474Y019852D01*
X006474Y019867D02*
X006618Y019867D01*
X006618Y019882D02*
X006474Y019882D01*
X006474Y019897D02*
X006618Y019897D01*
X006618Y019912D02*
X006474Y019912D01*
X006474Y019927D02*
X006618Y019927D01*
X006618Y019942D02*
X006474Y019942D01*
X006474Y019957D02*
X006618Y019957D01*
X006618Y019972D02*
X006474Y019972D01*
X006358Y019976D02*
X006214Y019976D01*
X006358Y019976D02*
X006358Y019462D01*
X006214Y019462D01*
X006214Y019976D01*
X006214Y019477D02*
X006358Y019477D01*
X006358Y019492D02*
X006214Y019492D01*
X006214Y019507D02*
X006358Y019507D01*
X006358Y019522D02*
X006214Y019522D01*
X006214Y019537D02*
X006358Y019537D01*
X006358Y019552D02*
X006214Y019552D01*
X006214Y019567D02*
X006358Y019567D01*
X006358Y019582D02*
X006214Y019582D01*
X006214Y019597D02*
X006358Y019597D01*
X006358Y019612D02*
X006214Y019612D01*
X006214Y019627D02*
X006358Y019627D01*
X006358Y019642D02*
X006214Y019642D01*
X006214Y019657D02*
X006358Y019657D01*
X006358Y019672D02*
X006214Y019672D01*
X006214Y019687D02*
X006358Y019687D01*
X006358Y019702D02*
X006214Y019702D01*
X006214Y019717D02*
X006358Y019717D01*
X006358Y019732D02*
X006214Y019732D01*
X006214Y019747D02*
X006358Y019747D01*
X006358Y019762D02*
X006214Y019762D01*
X006214Y019777D02*
X006358Y019777D01*
X006358Y019792D02*
X006214Y019792D01*
X006214Y019807D02*
X006358Y019807D01*
X006358Y019822D02*
X006214Y019822D01*
X006214Y019837D02*
X006358Y019837D01*
X006358Y019852D02*
X006214Y019852D01*
X006214Y019867D02*
X006358Y019867D01*
X006358Y019882D02*
X006214Y019882D01*
X006214Y019897D02*
X006358Y019897D01*
X006358Y019912D02*
X006214Y019912D01*
X006214Y019927D02*
X006358Y019927D01*
X006358Y019942D02*
X006214Y019942D01*
X006214Y019957D02*
X006358Y019957D01*
X006358Y019972D02*
X006214Y019972D01*
X006098Y019976D02*
X005954Y019976D01*
X006098Y019976D02*
X006098Y019462D01*
X005954Y019462D01*
X005954Y019976D01*
X005954Y019477D02*
X006098Y019477D01*
X006098Y019492D02*
X005954Y019492D01*
X005954Y019507D02*
X006098Y019507D01*
X006098Y019522D02*
X005954Y019522D01*
X005954Y019537D02*
X006098Y019537D01*
X006098Y019552D02*
X005954Y019552D01*
X005954Y019567D02*
X006098Y019567D01*
X006098Y019582D02*
X005954Y019582D01*
X005954Y019597D02*
X006098Y019597D01*
X006098Y019612D02*
X005954Y019612D01*
X005954Y019627D02*
X006098Y019627D01*
X006098Y019642D02*
X005954Y019642D01*
X005954Y019657D02*
X006098Y019657D01*
X006098Y019672D02*
X005954Y019672D01*
X005954Y019687D02*
X006098Y019687D01*
X006098Y019702D02*
X005954Y019702D01*
X005954Y019717D02*
X006098Y019717D01*
X006098Y019732D02*
X005954Y019732D01*
X005954Y019747D02*
X006098Y019747D01*
X006098Y019762D02*
X005954Y019762D01*
X005954Y019777D02*
X006098Y019777D01*
X006098Y019792D02*
X005954Y019792D01*
X005954Y019807D02*
X006098Y019807D01*
X006098Y019822D02*
X005954Y019822D01*
X005954Y019837D02*
X006098Y019837D01*
X006098Y019852D02*
X005954Y019852D01*
X005954Y019867D02*
X006098Y019867D01*
X006098Y019882D02*
X005954Y019882D01*
X005954Y019897D02*
X006098Y019897D01*
X006098Y019912D02*
X005954Y019912D01*
X005954Y019927D02*
X006098Y019927D01*
X006098Y019942D02*
X005954Y019942D01*
X005954Y019957D02*
X006098Y019957D01*
X006098Y019972D02*
X005954Y019972D01*
X005838Y019976D02*
X005694Y019976D01*
X005838Y019976D02*
X005838Y019462D01*
X005694Y019462D01*
X005694Y019976D01*
X005694Y019477D02*
X005838Y019477D01*
X005838Y019492D02*
X005694Y019492D01*
X005694Y019507D02*
X005838Y019507D01*
X005838Y019522D02*
X005694Y019522D01*
X005694Y019537D02*
X005838Y019537D01*
X005838Y019552D02*
X005694Y019552D01*
X005694Y019567D02*
X005838Y019567D01*
X005838Y019582D02*
X005694Y019582D01*
X005694Y019597D02*
X005838Y019597D01*
X005838Y019612D02*
X005694Y019612D01*
X005694Y019627D02*
X005838Y019627D01*
X005838Y019642D02*
X005694Y019642D01*
X005694Y019657D02*
X005838Y019657D01*
X005838Y019672D02*
X005694Y019672D01*
X005694Y019687D02*
X005838Y019687D01*
X005838Y019702D02*
X005694Y019702D01*
X005694Y019717D02*
X005838Y019717D01*
X005838Y019732D02*
X005694Y019732D01*
X005694Y019747D02*
X005838Y019747D01*
X005838Y019762D02*
X005694Y019762D01*
X005694Y019777D02*
X005838Y019777D01*
X005838Y019792D02*
X005694Y019792D01*
X005694Y019807D02*
X005838Y019807D01*
X005838Y019822D02*
X005694Y019822D01*
X005694Y019837D02*
X005838Y019837D01*
X005838Y019852D02*
X005694Y019852D01*
X005694Y019867D02*
X005838Y019867D01*
X005838Y019882D02*
X005694Y019882D01*
X005694Y019897D02*
X005838Y019897D01*
X005838Y019912D02*
X005694Y019912D01*
X005694Y019927D02*
X005838Y019927D01*
X005838Y019942D02*
X005694Y019942D01*
X005694Y019957D02*
X005838Y019957D01*
X005838Y019972D02*
X005694Y019972D01*
X005578Y019976D02*
X005434Y019976D01*
X005578Y019976D02*
X005578Y019462D01*
X005434Y019462D01*
X005434Y019976D01*
X005434Y019477D02*
X005578Y019477D01*
X005578Y019492D02*
X005434Y019492D01*
X005434Y019507D02*
X005578Y019507D01*
X005578Y019522D02*
X005434Y019522D01*
X005434Y019537D02*
X005578Y019537D01*
X005578Y019552D02*
X005434Y019552D01*
X005434Y019567D02*
X005578Y019567D01*
X005578Y019582D02*
X005434Y019582D01*
X005434Y019597D02*
X005578Y019597D01*
X005578Y019612D02*
X005434Y019612D01*
X005434Y019627D02*
X005578Y019627D01*
X005578Y019642D02*
X005434Y019642D01*
X005434Y019657D02*
X005578Y019657D01*
X005578Y019672D02*
X005434Y019672D01*
X005434Y019687D02*
X005578Y019687D01*
X005578Y019702D02*
X005434Y019702D01*
X005434Y019717D02*
X005578Y019717D01*
X005578Y019732D02*
X005434Y019732D01*
X005434Y019747D02*
X005578Y019747D01*
X005578Y019762D02*
X005434Y019762D01*
X005434Y019777D02*
X005578Y019777D01*
X005578Y019792D02*
X005434Y019792D01*
X005434Y019807D02*
X005578Y019807D01*
X005578Y019822D02*
X005434Y019822D01*
X005434Y019837D02*
X005578Y019837D01*
X005578Y019852D02*
X005434Y019852D01*
X005434Y019867D02*
X005578Y019867D01*
X005578Y019882D02*
X005434Y019882D01*
X005434Y019897D02*
X005578Y019897D01*
X005578Y019912D02*
X005434Y019912D01*
X005434Y019927D02*
X005578Y019927D01*
X005578Y019942D02*
X005434Y019942D01*
X005434Y019957D02*
X005578Y019957D01*
X005578Y019972D02*
X005434Y019972D01*
D23*
X005356Y021049D02*
X005896Y021049D01*
X005896Y020509D01*
X005356Y020509D01*
X005356Y021049D01*
X005356Y020568D02*
X005896Y020568D01*
X005896Y020627D02*
X005356Y020627D01*
X005356Y020686D02*
X005896Y020686D01*
X005896Y020745D02*
X005356Y020745D01*
X005356Y020804D02*
X005896Y020804D01*
X005896Y020863D02*
X005356Y020863D01*
X005356Y020922D02*
X005896Y020922D01*
X005896Y020981D02*
X005356Y020981D01*
X005356Y021040D02*
X005896Y021040D01*
X006156Y021049D02*
X006696Y021049D01*
X006696Y020509D01*
X006156Y020509D01*
X006156Y021049D01*
X006156Y020568D02*
X006696Y020568D01*
X006696Y020627D02*
X006156Y020627D01*
X006156Y020686D02*
X006696Y020686D01*
X006696Y020745D02*
X006156Y020745D01*
X006156Y020804D02*
X006696Y020804D01*
X006696Y020863D02*
X006156Y020863D01*
X006156Y020922D02*
X006696Y020922D01*
X006696Y020981D02*
X006156Y020981D01*
X006156Y021040D02*
X006696Y021040D01*
D24*
X007542Y017974D03*
X009078Y017974D03*
D25*
X002148Y011394D03*
X002148Y010666D03*
X001243Y010666D03*
X001243Y011394D03*
D26*
X008782Y004706D03*
X008782Y003604D03*
X010003Y003604D03*
X010003Y004706D03*
D27*
X006774Y017659D03*
X006774Y018446D03*
X004885Y018958D03*
X004097Y018958D03*
M02*
