G75*
%MOIN*%
%OFA0B0*%
%FSLAX24Y24*%
%IPPOS*%
%LPD*%
%AMOC8*
5,1,8,0,0,1.08239X$1,22.5*
%
%ADD10C,0.0000*%
%ADD11OC8,0.0600*%
%ADD12C,0.0476*%
%ADD13C,0.0740*%
%ADD14OC8,0.0554*%
%ADD15C,0.0436*%
%ADD16C,0.0660*%
%ADD17OC8,0.0660*%
%ADD18C,0.0240*%
%ADD19C,0.0100*%
%ADD20C,0.0160*%
%ADD21C,0.0240*%
%ADD22C,0.0356*%
D10*
X007744Y006169D02*
X022705Y006169D01*
X023236Y008138D02*
X023238Y008188D01*
X023244Y008238D01*
X023254Y008288D01*
X023267Y008336D01*
X023284Y008384D01*
X023305Y008430D01*
X023329Y008474D01*
X023357Y008516D01*
X023388Y008556D01*
X023422Y008593D01*
X023459Y008628D01*
X023498Y008659D01*
X023539Y008688D01*
X023583Y008713D01*
X023629Y008735D01*
X023676Y008753D01*
X023724Y008767D01*
X023773Y008778D01*
X023823Y008785D01*
X023873Y008788D01*
X023924Y008787D01*
X023974Y008782D01*
X024024Y008773D01*
X024072Y008761D01*
X024120Y008744D01*
X024166Y008724D01*
X024211Y008701D01*
X024254Y008674D01*
X024294Y008644D01*
X024332Y008611D01*
X024367Y008575D01*
X024400Y008536D01*
X024429Y008495D01*
X024455Y008452D01*
X024478Y008407D01*
X024497Y008360D01*
X024512Y008312D01*
X024524Y008263D01*
X024532Y008213D01*
X024536Y008163D01*
X024536Y008113D01*
X024532Y008063D01*
X024524Y008013D01*
X024512Y007964D01*
X024497Y007916D01*
X024478Y007869D01*
X024455Y007824D01*
X024429Y007781D01*
X024400Y007740D01*
X024367Y007701D01*
X024332Y007665D01*
X024294Y007632D01*
X024254Y007602D01*
X024211Y007575D01*
X024166Y007552D01*
X024120Y007532D01*
X024072Y007515D01*
X024024Y007503D01*
X023974Y007494D01*
X023924Y007489D01*
X023873Y007488D01*
X023823Y007491D01*
X023773Y007498D01*
X023724Y007509D01*
X023676Y007523D01*
X023629Y007541D01*
X023583Y007563D01*
X023539Y007588D01*
X023498Y007617D01*
X023459Y007648D01*
X023422Y007683D01*
X023388Y007720D01*
X023357Y007760D01*
X023329Y007802D01*
X023305Y007846D01*
X023284Y007892D01*
X023267Y007940D01*
X023254Y007988D01*
X023244Y008038D01*
X023238Y008088D01*
X023236Y008138D01*
X022705Y006169D02*
X022815Y006171D01*
X022925Y006177D01*
X023034Y006186D01*
X023143Y006200D01*
X023252Y006217D01*
X023360Y006238D01*
X023467Y006263D01*
X023573Y006291D01*
X023678Y006323D01*
X023782Y006359D01*
X023885Y006398D01*
X023986Y006441D01*
X024086Y006488D01*
X024184Y006538D01*
X024280Y006591D01*
X024374Y006648D01*
X024466Y006708D01*
X024557Y006771D01*
X024644Y006837D01*
X024730Y006906D01*
X024813Y006978D01*
X024893Y007053D01*
X024971Y007131D01*
X025046Y007211D01*
X025118Y007294D01*
X025187Y007380D01*
X025253Y007467D01*
X025316Y007558D01*
X025376Y007650D01*
X025433Y007744D01*
X025486Y007840D01*
X025536Y007938D01*
X025583Y008038D01*
X025626Y008139D01*
X025665Y008242D01*
X025701Y008346D01*
X025733Y008451D01*
X025761Y008557D01*
X025786Y008664D01*
X025807Y008772D01*
X025824Y008881D01*
X025838Y008990D01*
X025847Y009099D01*
X025853Y009209D01*
X025855Y009319D01*
X025854Y009319D02*
X025854Y013059D01*
X025855Y013059D02*
X025853Y013098D01*
X025847Y013136D01*
X025838Y013173D01*
X025825Y013210D01*
X025808Y013245D01*
X025789Y013278D01*
X025766Y013309D01*
X025740Y013338D01*
X025711Y013364D01*
X025680Y013387D01*
X025647Y013406D01*
X025612Y013423D01*
X025575Y013436D01*
X025538Y013445D01*
X025500Y013451D01*
X025461Y013453D01*
X023256Y013453D01*
X023256Y019398D01*
X023256Y019476D01*
X025461Y019476D01*
X025500Y019478D01*
X025538Y019484D01*
X025575Y019493D01*
X025612Y019506D01*
X025647Y019523D01*
X025680Y019542D01*
X025711Y019565D01*
X025740Y019591D01*
X025766Y019620D01*
X025789Y019651D01*
X025808Y019684D01*
X025825Y019719D01*
X025838Y019756D01*
X025847Y019793D01*
X025853Y019831D01*
X025855Y019870D01*
X025854Y019870D02*
X025854Y024280D01*
X023236Y025461D02*
X023238Y025511D01*
X023244Y025561D01*
X023254Y025611D01*
X023267Y025659D01*
X023284Y025707D01*
X023305Y025753D01*
X023329Y025797D01*
X023357Y025839D01*
X023388Y025879D01*
X023422Y025916D01*
X023459Y025951D01*
X023498Y025982D01*
X023539Y026011D01*
X023583Y026036D01*
X023629Y026058D01*
X023676Y026076D01*
X023724Y026090D01*
X023773Y026101D01*
X023823Y026108D01*
X023873Y026111D01*
X023924Y026110D01*
X023974Y026105D01*
X024024Y026096D01*
X024072Y026084D01*
X024120Y026067D01*
X024166Y026047D01*
X024211Y026024D01*
X024254Y025997D01*
X024294Y025967D01*
X024332Y025934D01*
X024367Y025898D01*
X024400Y025859D01*
X024429Y025818D01*
X024455Y025775D01*
X024478Y025730D01*
X024497Y025683D01*
X024512Y025635D01*
X024524Y025586D01*
X024532Y025536D01*
X024536Y025486D01*
X024536Y025436D01*
X024532Y025386D01*
X024524Y025336D01*
X024512Y025287D01*
X024497Y025239D01*
X024478Y025192D01*
X024455Y025147D01*
X024429Y025104D01*
X024400Y025063D01*
X024367Y025024D01*
X024332Y024988D01*
X024294Y024955D01*
X024254Y024925D01*
X024211Y024898D01*
X024166Y024875D01*
X024120Y024855D01*
X024072Y024838D01*
X024024Y024826D01*
X023974Y024817D01*
X023924Y024812D01*
X023873Y024811D01*
X023823Y024814D01*
X023773Y024821D01*
X023724Y024832D01*
X023676Y024846D01*
X023629Y024864D01*
X023583Y024886D01*
X023539Y024911D01*
X023498Y024940D01*
X023459Y024971D01*
X023422Y025006D01*
X023388Y025043D01*
X023357Y025083D01*
X023329Y025125D01*
X023305Y025169D01*
X023284Y025215D01*
X023267Y025263D01*
X023254Y025311D01*
X023244Y025361D01*
X023238Y025411D01*
X023236Y025461D01*
X025854Y024280D02*
X025852Y024404D01*
X025846Y024527D01*
X025837Y024651D01*
X025823Y024773D01*
X025806Y024896D01*
X025784Y025018D01*
X025759Y025139D01*
X025730Y025259D01*
X025698Y025378D01*
X025661Y025497D01*
X025621Y025614D01*
X025578Y025729D01*
X025530Y025844D01*
X025479Y025956D01*
X025425Y026067D01*
X025367Y026177D01*
X025306Y026284D01*
X025241Y026390D01*
X025173Y026493D01*
X025102Y026594D01*
X025028Y026693D01*
X024951Y026790D01*
X024870Y026884D01*
X024787Y026975D01*
X024701Y027064D01*
X024612Y027150D01*
X024521Y027233D01*
X024427Y027314D01*
X024330Y027391D01*
X024231Y027465D01*
X024130Y027536D01*
X024027Y027604D01*
X023921Y027669D01*
X023814Y027730D01*
X023704Y027788D01*
X023593Y027842D01*
X023481Y027893D01*
X023366Y027941D01*
X023251Y027984D01*
X023134Y028024D01*
X023015Y028061D01*
X022896Y028093D01*
X022776Y028122D01*
X022655Y028147D01*
X022533Y028169D01*
X022410Y028186D01*
X022288Y028200D01*
X022164Y028209D01*
X022041Y028215D01*
X021917Y028217D01*
X017980Y028217D01*
X017941Y028215D01*
X017903Y028209D01*
X017866Y028200D01*
X017829Y028187D01*
X017794Y028170D01*
X017761Y028151D01*
X017730Y028128D01*
X017701Y028102D01*
X017675Y028073D01*
X017652Y028042D01*
X017633Y028009D01*
X017616Y027974D01*
X017603Y027937D01*
X017594Y027900D01*
X017588Y027862D01*
X017586Y027823D01*
X017587Y027823D02*
X017585Y027784D01*
X017579Y027746D01*
X017570Y027709D01*
X017557Y027672D01*
X017540Y027637D01*
X017521Y027604D01*
X017498Y027573D01*
X017472Y027544D01*
X017443Y027518D01*
X017412Y027495D01*
X017379Y027476D01*
X017344Y027459D01*
X017307Y027446D01*
X017270Y027437D01*
X017232Y027431D01*
X017193Y027429D01*
X013256Y027429D01*
X013217Y027431D01*
X013179Y027437D01*
X013142Y027446D01*
X013105Y027459D01*
X013070Y027476D01*
X013037Y027495D01*
X013006Y027518D01*
X012977Y027544D01*
X012951Y027573D01*
X012928Y027604D01*
X012909Y027637D01*
X012892Y027672D01*
X012879Y027709D01*
X012870Y027746D01*
X012864Y027784D01*
X012862Y027823D01*
X012863Y027823D02*
X012861Y027862D01*
X012855Y027900D01*
X012846Y027937D01*
X012833Y027974D01*
X012816Y028009D01*
X012797Y028042D01*
X012774Y028073D01*
X012748Y028102D01*
X012719Y028128D01*
X012688Y028151D01*
X012655Y028170D01*
X012620Y028187D01*
X012583Y028200D01*
X012546Y028209D01*
X012508Y028215D01*
X012469Y028217D01*
X008531Y028217D01*
X005913Y025461D02*
X005915Y025511D01*
X005921Y025561D01*
X005931Y025611D01*
X005944Y025659D01*
X005961Y025707D01*
X005982Y025753D01*
X006006Y025797D01*
X006034Y025839D01*
X006065Y025879D01*
X006099Y025916D01*
X006136Y025951D01*
X006175Y025982D01*
X006216Y026011D01*
X006260Y026036D01*
X006306Y026058D01*
X006353Y026076D01*
X006401Y026090D01*
X006450Y026101D01*
X006500Y026108D01*
X006550Y026111D01*
X006601Y026110D01*
X006651Y026105D01*
X006701Y026096D01*
X006749Y026084D01*
X006797Y026067D01*
X006843Y026047D01*
X006888Y026024D01*
X006931Y025997D01*
X006971Y025967D01*
X007009Y025934D01*
X007044Y025898D01*
X007077Y025859D01*
X007106Y025818D01*
X007132Y025775D01*
X007155Y025730D01*
X007174Y025683D01*
X007189Y025635D01*
X007201Y025586D01*
X007209Y025536D01*
X007213Y025486D01*
X007213Y025436D01*
X007209Y025386D01*
X007201Y025336D01*
X007189Y025287D01*
X007174Y025239D01*
X007155Y025192D01*
X007132Y025147D01*
X007106Y025104D01*
X007077Y025063D01*
X007044Y025024D01*
X007009Y024988D01*
X006971Y024955D01*
X006931Y024925D01*
X006888Y024898D01*
X006843Y024875D01*
X006797Y024855D01*
X006749Y024838D01*
X006701Y024826D01*
X006651Y024817D01*
X006601Y024812D01*
X006550Y024811D01*
X006500Y024814D01*
X006450Y024821D01*
X006401Y024832D01*
X006353Y024846D01*
X006306Y024864D01*
X006260Y024886D01*
X006216Y024911D01*
X006175Y024940D01*
X006136Y024971D01*
X006099Y025006D01*
X006065Y025043D01*
X006034Y025083D01*
X006006Y025125D01*
X005982Y025169D01*
X005961Y025215D01*
X005944Y025263D01*
X005931Y025311D01*
X005921Y025361D01*
X005915Y025411D01*
X005913Y025461D01*
X004594Y024280D02*
X004594Y009319D01*
X005913Y008138D02*
X005915Y008188D01*
X005921Y008238D01*
X005931Y008288D01*
X005944Y008336D01*
X005961Y008384D01*
X005982Y008430D01*
X006006Y008474D01*
X006034Y008516D01*
X006065Y008556D01*
X006099Y008593D01*
X006136Y008628D01*
X006175Y008659D01*
X006216Y008688D01*
X006260Y008713D01*
X006306Y008735D01*
X006353Y008753D01*
X006401Y008767D01*
X006450Y008778D01*
X006500Y008785D01*
X006550Y008788D01*
X006601Y008787D01*
X006651Y008782D01*
X006701Y008773D01*
X006749Y008761D01*
X006797Y008744D01*
X006843Y008724D01*
X006888Y008701D01*
X006931Y008674D01*
X006971Y008644D01*
X007009Y008611D01*
X007044Y008575D01*
X007077Y008536D01*
X007106Y008495D01*
X007132Y008452D01*
X007155Y008407D01*
X007174Y008360D01*
X007189Y008312D01*
X007201Y008263D01*
X007209Y008213D01*
X007213Y008163D01*
X007213Y008113D01*
X007209Y008063D01*
X007201Y008013D01*
X007189Y007964D01*
X007174Y007916D01*
X007155Y007869D01*
X007132Y007824D01*
X007106Y007781D01*
X007077Y007740D01*
X007044Y007701D01*
X007009Y007665D01*
X006971Y007632D01*
X006931Y007602D01*
X006888Y007575D01*
X006843Y007552D01*
X006797Y007532D01*
X006749Y007515D01*
X006701Y007503D01*
X006651Y007494D01*
X006601Y007489D01*
X006550Y007488D01*
X006500Y007491D01*
X006450Y007498D01*
X006401Y007509D01*
X006353Y007523D01*
X006306Y007541D01*
X006260Y007563D01*
X006216Y007588D01*
X006175Y007617D01*
X006136Y007648D01*
X006099Y007683D01*
X006065Y007720D01*
X006034Y007760D01*
X006006Y007802D01*
X005982Y007846D01*
X005961Y007892D01*
X005944Y007940D01*
X005931Y007988D01*
X005921Y008038D01*
X005915Y008088D01*
X005913Y008138D01*
X004594Y009319D02*
X004596Y009209D01*
X004602Y009099D01*
X004611Y008990D01*
X004625Y008881D01*
X004642Y008772D01*
X004663Y008664D01*
X004688Y008557D01*
X004716Y008451D01*
X004748Y008346D01*
X004784Y008242D01*
X004823Y008139D01*
X004866Y008038D01*
X004913Y007938D01*
X004963Y007840D01*
X005016Y007744D01*
X005073Y007650D01*
X005133Y007558D01*
X005196Y007467D01*
X005262Y007380D01*
X005331Y007294D01*
X005403Y007211D01*
X005478Y007131D01*
X005556Y007053D01*
X005636Y006978D01*
X005719Y006906D01*
X005805Y006837D01*
X005892Y006771D01*
X005983Y006708D01*
X006075Y006648D01*
X006169Y006591D01*
X006265Y006538D01*
X006363Y006488D01*
X006463Y006441D01*
X006564Y006398D01*
X006667Y006359D01*
X006771Y006323D01*
X006876Y006291D01*
X006982Y006263D01*
X007089Y006238D01*
X007197Y006217D01*
X007306Y006200D01*
X007415Y006186D01*
X007524Y006177D01*
X007634Y006171D01*
X007744Y006169D01*
X004594Y024280D02*
X004596Y024404D01*
X004602Y024527D01*
X004611Y024651D01*
X004625Y024773D01*
X004642Y024896D01*
X004664Y025018D01*
X004689Y025139D01*
X004718Y025259D01*
X004750Y025378D01*
X004787Y025497D01*
X004827Y025614D01*
X004870Y025729D01*
X004918Y025844D01*
X004969Y025956D01*
X005023Y026067D01*
X005081Y026177D01*
X005142Y026284D01*
X005207Y026390D01*
X005275Y026493D01*
X005346Y026594D01*
X005420Y026693D01*
X005497Y026790D01*
X005578Y026884D01*
X005661Y026975D01*
X005747Y027064D01*
X005836Y027150D01*
X005927Y027233D01*
X006021Y027314D01*
X006118Y027391D01*
X006217Y027465D01*
X006318Y027536D01*
X006421Y027604D01*
X006527Y027669D01*
X006634Y027730D01*
X006744Y027788D01*
X006855Y027842D01*
X006967Y027893D01*
X007082Y027941D01*
X007197Y027984D01*
X007314Y028024D01*
X007433Y028061D01*
X007552Y028093D01*
X007672Y028122D01*
X007793Y028147D01*
X007915Y028169D01*
X008038Y028186D01*
X008160Y028200D01*
X008284Y028209D01*
X008407Y028215D01*
X008531Y028217D01*
D11*
X006472Y023508D03*
X006472Y022508D03*
X005472Y022508D03*
X005472Y023508D03*
X005472Y021508D03*
X006472Y021508D03*
D12*
X020327Y007744D03*
X021327Y007744D03*
X022327Y007744D03*
D13*
X016741Y008267D03*
X015775Y008008D03*
X014674Y008008D03*
X013708Y008267D03*
D14*
X006315Y009957D03*
X005315Y009957D03*
X005315Y010957D03*
X005315Y011957D03*
X005315Y012957D03*
X005315Y013957D03*
X006315Y013957D03*
X006315Y012957D03*
X006315Y011957D03*
X006315Y010957D03*
X024016Y010787D03*
X024016Y009787D03*
X025016Y009787D03*
X025016Y010787D03*
X025016Y011787D03*
X024016Y011787D03*
X024016Y012787D03*
X025016Y012787D03*
D15*
X021799Y025776D03*
X021051Y025776D03*
D16*
X009398Y008138D03*
X009949Y007350D03*
X008295Y008138D03*
D17*
X008846Y007350D03*
D18*
X008689Y011602D03*
X008689Y011957D03*
X008689Y012311D03*
X008689Y012665D03*
X008689Y013020D03*
X007232Y014161D03*
X006917Y014713D03*
X007557Y015406D03*
X007552Y015721D03*
X007587Y016091D03*
X008413Y016524D03*
X009280Y016248D03*
X009280Y017075D03*
X010185Y017350D03*
X010579Y018059D03*
X010854Y017744D03*
X010972Y017311D03*
X012232Y016524D03*
X012075Y015421D03*
X012232Y014909D03*
X011681Y013689D03*
X012469Y013098D03*
X012267Y012838D03*
X012469Y012587D03*
X013256Y012587D03*
X013453Y012838D03*
X013256Y013098D03*
X013728Y011406D03*
X015343Y013217D03*
X015067Y014280D03*
X015067Y015500D03*
X015028Y017035D03*
X015067Y017941D03*
X015067Y019161D03*
X015067Y020382D03*
X013728Y020067D03*
X013492Y020382D03*
X014240Y022311D03*
X011661Y022296D03*
X011484Y021563D03*
X011489Y020815D03*
X010977Y019673D03*
X012311Y018374D03*
X010972Y015382D03*
X010579Y015343D03*
X009988Y015264D03*
X009752Y015461D03*
X009476Y015264D03*
X009201Y015461D03*
X008610Y015579D03*
X008492Y015146D03*
X008256Y014949D03*
X007587Y014988D03*
X007587Y017272D03*
X007557Y017926D03*
X008413Y017626D03*
X009594Y018413D03*
X008335Y019634D03*
X008020Y019634D03*
X007705Y019555D03*
X007705Y020264D03*
X008020Y020303D03*
X008335Y020343D03*
X008492Y020736D03*
X007980Y021406D03*
X007980Y022429D03*
X008965Y022075D03*
X009437Y022547D03*
X010697Y022626D03*
X010697Y023305D03*
X011839Y024890D03*
X011839Y025736D03*
X011917Y026209D03*
X011770Y026627D03*
X011164Y026105D03*
X009949Y027070D03*
X009437Y026051D03*
X008728Y026091D03*
X008413Y025579D03*
X007980Y025106D03*
X008217Y024634D03*
X008020Y023571D03*
X007980Y026051D03*
X008098Y026642D03*
X007862Y027626D03*
X008920Y027626D03*
X010987Y027646D03*
X012045Y027601D03*
X012547Y027626D03*
X012547Y026957D03*
X013728Y026996D03*
X014437Y027114D03*
X016524Y024358D03*
X017587Y026602D03*
X018886Y027547D03*
X021996Y027547D03*
X021799Y023650D03*
X021839Y020618D03*
X022744Y020382D03*
X022744Y019161D03*
X022744Y017941D03*
X022744Y016720D03*
X022744Y015500D03*
X022744Y014280D03*
X022272Y013374D03*
X022508Y012665D03*
X023413Y011287D03*
X021209Y014280D03*
X021209Y015500D03*
X021209Y016720D03*
X021209Y017941D03*
X021209Y019161D03*
X019673Y019161D03*
X019673Y017941D03*
X019673Y016720D03*
X019673Y015500D03*
X019673Y014280D03*
X018138Y014280D03*
X018138Y015500D03*
X018138Y016720D03*
X018138Y017941D03*
X018138Y019161D03*
X018138Y020382D03*
X019673Y020382D03*
X018138Y021957D03*
X016602Y020382D03*
X016602Y019161D03*
X016602Y017941D03*
X016602Y016720D03*
X016602Y015500D03*
X016602Y014280D03*
X017665Y012980D03*
X018571Y012705D03*
X019122Y012665D03*
X019083Y012272D03*
X016012Y011091D03*
X016012Y010106D03*
X010224Y013728D03*
X006130Y018925D03*
X005146Y017823D03*
X006760Y020343D03*
X006957Y021012D03*
D19*
X006878Y021091D01*
X006248Y021091D01*
X005933Y021406D01*
X005933Y021642D01*
X005539Y022035D01*
X005303Y022035D01*
X005028Y022311D01*
X005028Y023063D01*
X005472Y023508D01*
X008020Y020303D02*
X008020Y019634D01*
X008335Y019634D02*
X008335Y020343D01*
X007705Y020264D02*
X007705Y019555D01*
X007557Y017926D02*
X007129Y017926D01*
X006130Y018925D01*
X007552Y015721D02*
X007641Y015721D01*
X007719Y015721D01*
X007798Y015721D01*
X007916Y015721D01*
X008492Y015146D01*
X008256Y014949D02*
X007798Y015406D01*
X007557Y015406D01*
X009201Y015461D02*
X009201Y013610D01*
X009201Y013531D01*
X008689Y013020D01*
X008689Y012665D02*
X009476Y013453D01*
X009476Y013571D01*
X009476Y015264D01*
X009752Y015461D02*
X009752Y013374D01*
X008689Y012311D01*
X008689Y011957D02*
X009988Y013256D01*
X009988Y013374D01*
X009988Y015264D01*
X010224Y013728D02*
X010224Y013335D01*
X010224Y013138D01*
X008689Y011602D01*
X012267Y012838D02*
X013453Y012838D01*
X013256Y012587D02*
X012469Y012587D01*
X012469Y013098D02*
X013256Y013098D01*
X010972Y017311D02*
X010972Y017508D01*
X011051Y017587D01*
X013531Y020067D01*
X013728Y020067D01*
X013492Y020382D02*
X010854Y017744D01*
X017665Y012980D02*
X018807Y012980D01*
X019122Y012665D01*
X019083Y012272D02*
X018650Y012705D01*
X018571Y012705D01*
X023413Y011287D02*
X024516Y011287D01*
X025016Y010787D01*
D20*
X020736Y012665D02*
X019870Y012665D01*
X018925Y011720D01*
X018531Y011720D01*
X016012Y011091D02*
X016012Y010106D01*
X021799Y023650D02*
X021799Y025776D01*
D21*
X006363Y006735D02*
X005886Y007054D01*
X005479Y007460D01*
X005160Y007938D01*
X004988Y008354D01*
X004988Y009580D01*
X005109Y009460D01*
X005521Y009460D01*
X005812Y009751D01*
X005812Y010163D01*
X005521Y010454D01*
X005109Y010454D01*
X004988Y010333D01*
X004988Y010580D01*
X005109Y010460D01*
X005521Y010460D01*
X005812Y010751D01*
X005812Y011163D01*
X005521Y011454D01*
X005109Y011454D01*
X004988Y011333D01*
X004988Y011580D01*
X005109Y011460D01*
X005521Y011460D01*
X005812Y011751D01*
X005812Y012163D01*
X005521Y012454D01*
X005109Y012454D01*
X004988Y012333D01*
X004988Y012580D01*
X005109Y012460D01*
X005521Y012460D01*
X005812Y012751D01*
X005812Y013163D01*
X005521Y013454D01*
X005109Y013454D01*
X004988Y013333D01*
X004988Y013580D01*
X005109Y013460D01*
X005521Y013460D01*
X005812Y013751D01*
X005812Y014163D01*
X005521Y014454D01*
X005109Y014454D01*
X004988Y014333D01*
X004988Y021257D01*
X005257Y020988D01*
X005688Y020988D01*
X005828Y021128D01*
X006019Y020938D01*
X006019Y020938D01*
X006095Y020862D01*
X006194Y020821D01*
X006668Y020821D01*
X006668Y020819D01*
X006764Y020724D01*
X006889Y020672D01*
X007024Y020672D01*
X007149Y020724D01*
X007245Y020819D01*
X007297Y020944D01*
X007297Y021079D01*
X007245Y021204D01*
X007149Y021300D01*
X007024Y021352D01*
X006992Y021352D01*
X006992Y021508D01*
X006992Y021723D01*
X006708Y022008D01*
X006992Y022292D01*
X006992Y022723D01*
X006708Y023008D01*
X006992Y023292D01*
X006992Y023723D01*
X006688Y024028D01*
X006257Y024028D01*
X005972Y023743D01*
X005688Y024028D01*
X005257Y024028D01*
X004988Y023759D01*
X004988Y025371D01*
X005163Y025850D01*
X005487Y026412D01*
X005903Y026908D01*
X006400Y027324D01*
X006961Y027648D01*
X007440Y027823D01*
X012642Y027823D01*
X012642Y027701D01*
X012736Y027475D01*
X012908Y027303D01*
X013134Y027209D01*
X017315Y027209D01*
X017541Y027303D01*
X017713Y027475D01*
X017713Y027475D01*
X017807Y027701D01*
X017807Y027823D01*
X023009Y027823D01*
X023488Y027648D01*
X024049Y027324D01*
X024546Y026908D01*
X024962Y026412D01*
X025286Y025850D01*
X025461Y025371D01*
X025461Y019696D01*
X023165Y019696D01*
X023036Y019568D01*
X023036Y013362D01*
X023165Y013233D01*
X023758Y013233D01*
X023519Y012993D01*
X023519Y012581D01*
X023810Y012290D01*
X024222Y012290D01*
X024513Y012581D01*
X024513Y012993D01*
X024273Y013233D01*
X024758Y013233D01*
X024519Y012993D01*
X024519Y012581D01*
X024810Y012290D01*
X025222Y012290D01*
X025461Y012529D01*
X025461Y012046D01*
X025222Y012285D01*
X024810Y012285D01*
X024519Y011993D01*
X024519Y011581D01*
X024543Y011557D01*
X024489Y011557D01*
X024513Y011581D01*
X024513Y011993D01*
X024222Y012285D01*
X023810Y012285D01*
X023519Y011993D01*
X023519Y011612D01*
X023481Y011627D01*
X023346Y011627D01*
X023221Y011576D01*
X023125Y011480D01*
X023073Y011355D01*
X023073Y011220D01*
X023125Y011095D01*
X023221Y010999D01*
X023346Y010947D01*
X023481Y010947D01*
X023519Y010963D01*
X023519Y010581D01*
X023810Y010290D01*
X024222Y010290D01*
X024513Y010581D01*
X024513Y010908D01*
X024519Y010903D01*
X024519Y010581D01*
X024810Y010290D01*
X025222Y010290D01*
X025461Y010529D01*
X025461Y010046D01*
X025222Y010285D01*
X025016Y010285D01*
X025016Y009787D01*
X025016Y009290D01*
X025222Y009290D01*
X025461Y009529D01*
X025461Y008354D01*
X025288Y007938D01*
X024969Y007460D01*
X024563Y007054D01*
X024086Y006735D01*
X023670Y006563D01*
X006779Y006563D01*
X006363Y006735D01*
X006578Y006646D02*
X023871Y006646D01*
X024310Y006885D02*
X010261Y006885D01*
X010260Y006884D02*
X010415Y007039D01*
X010499Y007241D01*
X010499Y007460D01*
X010415Y007662D01*
X010260Y007817D01*
X010058Y007900D01*
X009895Y007900D01*
X009948Y008028D01*
X009948Y008247D01*
X009864Y008449D01*
X009709Y008604D01*
X009507Y008688D01*
X009288Y008688D01*
X009086Y008604D01*
X008931Y008449D01*
X008848Y008247D01*
X008848Y008028D01*
X008901Y007900D01*
X008846Y007900D01*
X008792Y007900D01*
X008845Y008028D01*
X008845Y008247D01*
X008762Y008449D01*
X008607Y008604D01*
X008405Y008688D01*
X008186Y008688D01*
X007984Y008604D01*
X007829Y008449D01*
X007745Y008247D01*
X007745Y008028D01*
X007829Y007826D01*
X007984Y007672D01*
X008186Y007588D01*
X008306Y007588D01*
X008296Y007578D01*
X008296Y007350D01*
X008296Y007123D01*
X005817Y007123D01*
X005948Y007362D02*
X005578Y007362D01*
X005793Y007492D02*
X006060Y007267D01*
X006388Y007148D01*
X006511Y007148D01*
X006738Y007148D01*
X007066Y007267D01*
X007333Y007492D01*
X007508Y007794D01*
X007568Y008138D01*
X007508Y008482D01*
X007333Y008784D01*
X007066Y009008D01*
X007066Y009008D01*
X006738Y009128D01*
X006388Y009128D01*
X006060Y009008D01*
X005793Y008784D01*
X005793Y008784D01*
X005618Y008482D01*
X005558Y008138D01*
X005618Y007794D01*
X005793Y007492D01*
X005793Y007492D01*
X005730Y007600D02*
X005386Y007600D01*
X005227Y007839D02*
X005610Y007839D01*
X005618Y007794D02*
X005618Y007794D01*
X005568Y008077D02*
X005103Y008077D01*
X005004Y008316D02*
X005589Y008316D01*
X005618Y008482D02*
X005618Y008482D01*
X005660Y008554D02*
X004988Y008554D01*
X004988Y008793D02*
X005803Y008793D01*
X005793Y008784D02*
X005793Y008784D01*
X006060Y009008D02*
X006060Y009008D01*
X006123Y009031D02*
X004988Y009031D01*
X004988Y009270D02*
X025461Y009270D01*
X025440Y009508D02*
X025461Y009508D01*
X025016Y009508D02*
X025016Y009508D01*
X025016Y009290D02*
X025016Y009787D01*
X025016Y009787D01*
X024519Y009787D01*
X024519Y009581D01*
X024810Y009290D01*
X025016Y009290D01*
X024592Y009508D02*
X024440Y009508D01*
X024513Y009581D02*
X024222Y009290D01*
X023810Y009290D01*
X023519Y009581D01*
X023519Y009993D01*
X023810Y010285D01*
X024222Y010285D01*
X024513Y009993D01*
X024513Y009581D01*
X024513Y009747D02*
X024519Y009747D01*
X024519Y009787D02*
X025016Y009787D01*
X025016Y009787D01*
X025016Y009787D01*
X025016Y010285D01*
X024810Y010285D01*
X024519Y009993D01*
X024519Y009787D01*
X024513Y009985D02*
X024519Y009985D01*
X024749Y010224D02*
X024282Y010224D01*
X024394Y010462D02*
X024638Y010462D01*
X024519Y010701D02*
X024513Y010701D01*
X025016Y010224D02*
X025016Y010224D01*
X025016Y009985D02*
X025016Y009985D01*
X025016Y009747D02*
X025016Y009747D01*
X025282Y010224D02*
X025461Y010224D01*
X025461Y010462D02*
X025394Y010462D01*
X024519Y011655D02*
X024513Y011655D01*
X024513Y011893D02*
X024519Y011893D01*
X024657Y012132D02*
X024374Y012132D01*
X024302Y012370D02*
X024730Y012370D01*
X024519Y012609D02*
X024513Y012609D01*
X024513Y012847D02*
X024519Y012847D01*
X024611Y013086D02*
X024420Y013086D01*
X023611Y013086D02*
X019083Y013086D01*
X019164Y013005D02*
X018960Y013209D01*
X018861Y013250D01*
X017876Y013250D01*
X017858Y013269D01*
X017733Y013320D01*
X017598Y013320D01*
X017473Y013269D01*
X017377Y013173D01*
X017325Y013048D01*
X017325Y012913D01*
X017377Y012788D01*
X017473Y012692D01*
X017598Y012640D01*
X017733Y012640D01*
X017858Y012692D01*
X017876Y012710D01*
X018231Y012710D01*
X018231Y012637D01*
X018283Y012512D01*
X018378Y012416D01*
X018503Y012365D01*
X018608Y012365D01*
X018743Y012230D01*
X018743Y012204D01*
X018794Y012079D01*
X018827Y012047D01*
X018801Y012020D01*
X018795Y012020D01*
X018757Y012058D01*
X018611Y012119D01*
X018452Y012119D01*
X018306Y012058D01*
X018194Y011946D01*
X018133Y011800D01*
X018133Y011641D01*
X018194Y011495D01*
X018306Y011383D01*
X018452Y011322D01*
X018611Y011322D01*
X018757Y011383D01*
X018795Y011420D01*
X018985Y011420D01*
X019095Y011466D01*
X019994Y012365D01*
X020473Y012365D01*
X020511Y012328D01*
X020657Y012267D01*
X020815Y012267D01*
X020962Y012328D01*
X021074Y012440D01*
X021134Y012586D01*
X021134Y012745D01*
X021074Y012891D01*
X020962Y013003D01*
X020815Y013063D01*
X020657Y013063D01*
X020511Y013003D01*
X020473Y012965D01*
X019810Y012965D01*
X019700Y012920D01*
X019616Y012835D01*
X019462Y012682D01*
X019462Y012733D01*
X019410Y012858D01*
X019315Y012954D01*
X019190Y013005D01*
X019164Y013005D01*
X019415Y012847D02*
X019628Y012847D01*
X019761Y012132D02*
X023657Y012132D01*
X023730Y012370D02*
X021004Y012370D01*
X021134Y012609D02*
X023519Y012609D01*
X023519Y012847D02*
X021092Y012847D01*
X019522Y011893D02*
X023519Y011893D01*
X023519Y011655D02*
X019284Y011655D01*
X018790Y011416D02*
X023099Y011416D01*
X023091Y011178D02*
X016344Y011178D01*
X016352Y011158D02*
X016300Y011283D01*
X016204Y011379D01*
X016079Y011431D01*
X015944Y011431D01*
X015819Y011379D01*
X015724Y011283D01*
X015672Y011158D01*
X015672Y011023D01*
X015712Y010926D01*
X015712Y010270D01*
X015672Y010174D01*
X015672Y010039D01*
X015724Y009914D01*
X015819Y009818D01*
X015944Y009766D01*
X016079Y009766D01*
X016204Y009818D01*
X016300Y009914D01*
X016352Y010039D01*
X016352Y010174D01*
X016312Y010270D01*
X016312Y010926D01*
X016352Y011023D01*
X016352Y011158D01*
X016317Y010939D02*
X023519Y010939D01*
X023519Y010701D02*
X016312Y010701D01*
X016312Y010462D02*
X023638Y010462D01*
X023749Y010224D02*
X016331Y010224D01*
X016330Y009985D02*
X023519Y009985D01*
X023519Y009747D02*
X006808Y009747D01*
X006812Y009751D02*
X006521Y009460D01*
X006109Y009460D01*
X005818Y009751D01*
X005818Y010163D01*
X006109Y010454D01*
X006521Y010454D01*
X006812Y010163D01*
X006812Y009751D01*
X006812Y009985D02*
X015694Y009985D01*
X015692Y010224D02*
X006751Y010224D01*
X006521Y010460D02*
X006812Y010751D01*
X006812Y011163D01*
X006521Y011454D01*
X006109Y011454D01*
X005818Y011163D01*
X005818Y010751D01*
X006109Y010460D01*
X006521Y010460D01*
X006524Y010462D02*
X015712Y010462D01*
X015712Y010701D02*
X006762Y010701D01*
X006812Y010939D02*
X015706Y010939D01*
X015680Y011178D02*
X006797Y011178D01*
X006558Y011416D02*
X008398Y011416D01*
X008401Y011410D02*
X008496Y011314D01*
X008621Y011262D01*
X008757Y011262D01*
X008882Y011314D01*
X008977Y011410D01*
X009029Y011535D01*
X009029Y011561D01*
X010377Y012909D01*
X010453Y012985D01*
X010494Y013084D01*
X010494Y013518D01*
X010513Y013536D01*
X010564Y013661D01*
X010564Y013796D01*
X010513Y013921D01*
X010417Y014017D01*
X010292Y014068D01*
X010258Y014068D01*
X010258Y015053D01*
X010276Y015071D01*
X010328Y015196D01*
X010328Y015331D01*
X010276Y015456D01*
X010181Y015552D01*
X010062Y015601D01*
X010040Y015653D01*
X009945Y015749D01*
X009820Y015801D01*
X009684Y015801D01*
X009559Y015749D01*
X009476Y015666D01*
X009393Y015749D01*
X009268Y015801D01*
X009133Y015801D01*
X009008Y015749D01*
X008913Y015653D01*
X008861Y015528D01*
X008861Y015393D01*
X008913Y015268D01*
X008931Y015250D01*
X008931Y013643D01*
X008647Y013360D01*
X008621Y013360D01*
X008496Y013308D01*
X008401Y013212D01*
X008349Y013087D01*
X008349Y012952D01*
X008394Y012843D01*
X008349Y012733D01*
X008349Y012598D01*
X008394Y012488D01*
X008349Y012379D01*
X008349Y012243D01*
X008394Y012134D01*
X008349Y012024D01*
X008349Y011889D01*
X008394Y011780D01*
X008349Y011670D01*
X008349Y011535D01*
X008401Y011410D01*
X008349Y011655D02*
X006716Y011655D01*
X006812Y011751D02*
X006521Y011460D01*
X006109Y011460D01*
X005818Y011751D01*
X005818Y012163D01*
X006109Y012454D01*
X006521Y012454D01*
X006812Y012163D01*
X006812Y011751D01*
X006812Y011893D02*
X008349Y011893D01*
X008393Y012132D02*
X006812Y012132D01*
X006604Y012370D02*
X008349Y012370D01*
X008349Y012609D02*
X006670Y012609D01*
X006812Y012751D02*
X006521Y012460D01*
X006109Y012460D01*
X005818Y012751D01*
X005818Y013163D01*
X006109Y013454D01*
X006521Y013454D01*
X006812Y013163D01*
X006812Y012751D01*
X006812Y012847D02*
X008392Y012847D01*
X008349Y013086D02*
X006812Y013086D01*
X006650Y013324D02*
X008536Y013324D01*
X008850Y013563D02*
X006624Y013563D01*
X006521Y013460D02*
X006812Y013751D01*
X006812Y014163D01*
X006521Y014454D01*
X006109Y014454D01*
X005818Y014163D01*
X005818Y013751D01*
X006109Y013460D01*
X006521Y013460D01*
X006812Y013801D02*
X008931Y013801D01*
X008931Y014040D02*
X006812Y014040D01*
X006696Y014278D02*
X008931Y014278D01*
X008931Y014517D02*
X004988Y014517D01*
X004988Y014755D02*
X007969Y014755D01*
X007968Y014756D02*
X008063Y014661D01*
X008188Y014609D01*
X008324Y014609D01*
X008448Y014661D01*
X008544Y014756D01*
X008566Y014808D01*
X008685Y014857D01*
X008780Y014953D01*
X008832Y015078D01*
X008832Y015213D01*
X008780Y015338D01*
X008685Y015434D01*
X008560Y015486D01*
X008534Y015486D01*
X008069Y015950D01*
X007970Y015991D01*
X007763Y015991D01*
X007745Y016010D01*
X007620Y016061D01*
X007485Y016061D01*
X007360Y016010D01*
X007264Y015914D01*
X007212Y015789D01*
X007212Y015654D01*
X007252Y015558D01*
X007217Y015474D01*
X007217Y015339D01*
X007269Y015214D01*
X007364Y015118D01*
X007489Y015066D01*
X007625Y015066D01*
X007718Y015105D01*
X007916Y014907D01*
X007916Y014881D01*
X007968Y014756D01*
X007829Y014994D02*
X004988Y014994D01*
X004988Y015232D02*
X007261Y015232D01*
X007217Y015471D02*
X004988Y015471D01*
X004988Y015709D02*
X007212Y015709D01*
X007298Y015948D02*
X004988Y015948D01*
X004988Y016186D02*
X023036Y016186D01*
X023036Y015948D02*
X008072Y015948D01*
X008310Y015709D02*
X008969Y015709D01*
X008861Y015471D02*
X008596Y015471D01*
X008824Y015232D02*
X008931Y015232D01*
X008931Y014994D02*
X008797Y014994D01*
X008931Y014755D02*
X008543Y014755D01*
X009433Y015709D02*
X009520Y015709D01*
X009984Y015709D02*
X023036Y015709D01*
X023036Y015471D02*
X010262Y015471D01*
X010328Y015232D02*
X023036Y015232D01*
X023036Y014994D02*
X010258Y014994D01*
X010258Y014755D02*
X023036Y014755D01*
X023036Y014517D02*
X010258Y014517D01*
X010258Y014278D02*
X023036Y014278D01*
X023036Y014040D02*
X010361Y014040D01*
X010562Y013801D02*
X023036Y013801D01*
X023036Y013563D02*
X010524Y013563D01*
X010494Y013324D02*
X012214Y013324D01*
X012180Y013291D02*
X012129Y013166D01*
X012129Y013148D01*
X012074Y013126D01*
X011978Y013030D01*
X011927Y012905D01*
X011927Y012770D01*
X011978Y012645D01*
X012074Y012549D01*
X012129Y012527D01*
X012129Y012519D01*
X012180Y012394D01*
X012276Y012298D01*
X012401Y012247D01*
X012536Y012247D01*
X012661Y012298D01*
X012679Y012317D01*
X013045Y012317D01*
X013063Y012298D01*
X013188Y012247D01*
X013324Y012247D01*
X013448Y012298D01*
X013544Y012394D01*
X013596Y012519D01*
X013596Y012529D01*
X013645Y012549D01*
X013741Y012645D01*
X013793Y012770D01*
X013793Y012905D01*
X013741Y013030D01*
X013645Y013126D01*
X013596Y013146D01*
X013596Y013166D01*
X013544Y013291D01*
X013448Y013387D01*
X013324Y013438D01*
X013188Y013438D01*
X013063Y013387D01*
X013045Y013368D01*
X012679Y013368D01*
X012661Y013387D01*
X012536Y013438D01*
X012401Y013438D01*
X012276Y013387D01*
X012180Y013291D01*
X012034Y013086D02*
X010494Y013086D01*
X010316Y012847D02*
X011927Y012847D01*
X012015Y012609D02*
X010077Y012609D01*
X009839Y012370D02*
X012204Y012370D01*
X013520Y012370D02*
X018490Y012370D01*
X018243Y012609D02*
X013705Y012609D01*
X013793Y012847D02*
X017352Y012847D01*
X017341Y013086D02*
X013685Y013086D01*
X013511Y013324D02*
X023073Y013324D01*
X025302Y012370D02*
X025461Y012370D01*
X025461Y012132D02*
X025374Y012132D01*
X023592Y009508D02*
X006570Y009508D01*
X006060Y009508D02*
X005570Y009508D01*
X005808Y009747D02*
X005822Y009747D01*
X005812Y009985D02*
X005818Y009985D01*
X005879Y010224D02*
X005751Y010224D01*
X005524Y010462D02*
X006106Y010462D01*
X005868Y010701D02*
X005762Y010701D01*
X005812Y010939D02*
X005818Y010939D01*
X005797Y011178D02*
X005833Y011178D01*
X006071Y011416D02*
X005558Y011416D01*
X005716Y011655D02*
X005914Y011655D01*
X005818Y011893D02*
X005812Y011893D01*
X005812Y012132D02*
X005818Y012132D01*
X006025Y012370D02*
X005604Y012370D01*
X005670Y012609D02*
X005960Y012609D01*
X005818Y012847D02*
X005812Y012847D01*
X005812Y013086D02*
X005818Y013086D01*
X005979Y013324D02*
X005650Y013324D01*
X005624Y013563D02*
X006006Y013563D01*
X005818Y013801D02*
X005812Y013801D01*
X005812Y014040D02*
X005818Y014040D01*
X005933Y014278D02*
X005696Y014278D01*
X005006Y013563D02*
X004988Y013563D01*
X004988Y012370D02*
X005025Y012370D01*
X004988Y011416D02*
X005071Y011416D01*
X005106Y010462D02*
X004988Y010462D01*
X004988Y009508D02*
X005060Y009508D01*
X005558Y008138D02*
X005558Y008138D01*
X006139Y006885D02*
X008534Y006885D01*
X008619Y006800D02*
X008296Y007123D01*
X008296Y007350D02*
X008846Y007350D01*
X008846Y007350D01*
X008846Y007350D01*
X008846Y006800D01*
X008619Y006800D01*
X008846Y006800D02*
X009074Y006800D01*
X009396Y007123D01*
X009448Y007123D01*
X009396Y007123D02*
X009396Y007350D01*
X008846Y007350D01*
X008296Y007350D01*
X008296Y007362D02*
X007178Y007362D01*
X007066Y007267D02*
X007066Y007267D01*
X007333Y007492D02*
X007333Y007492D01*
X007333Y007492D01*
X007396Y007600D02*
X008156Y007600D01*
X007824Y007839D02*
X007516Y007839D01*
X007508Y007794D02*
X007508Y007794D01*
X007558Y008077D02*
X007745Y008077D01*
X007568Y008138D02*
X007568Y008138D01*
X007537Y008316D02*
X007774Y008316D01*
X007934Y008554D02*
X007466Y008554D01*
X007508Y008482D02*
X007508Y008482D01*
X007333Y008784D02*
X007333Y008784D01*
X007323Y008793D02*
X013435Y008793D01*
X013374Y008767D02*
X013591Y008857D01*
X013825Y008857D01*
X014042Y008767D01*
X014208Y008601D01*
X014274Y008443D01*
X014340Y008509D01*
X014557Y008598D01*
X014791Y008598D01*
X015008Y008509D01*
X015174Y008343D01*
X015224Y008221D01*
X015275Y008343D01*
X015441Y008509D01*
X015658Y008598D01*
X015892Y008598D01*
X016109Y008509D01*
X016175Y008443D01*
X016241Y008601D01*
X016407Y008767D01*
X016623Y008857D01*
X016858Y008857D01*
X017075Y008767D01*
X017241Y008601D01*
X017331Y008385D01*
X017331Y008150D01*
X017241Y007933D01*
X017075Y007767D01*
X016858Y007677D01*
X016623Y007677D01*
X016407Y007767D01*
X016341Y007833D01*
X016275Y007674D01*
X016109Y007508D01*
X015892Y007418D01*
X015658Y007418D01*
X015441Y007508D01*
X015275Y007674D01*
X015224Y007796D01*
X015174Y007674D01*
X015008Y007508D01*
X014791Y007418D01*
X014557Y007418D01*
X014340Y007508D01*
X014174Y007674D01*
X014108Y007833D01*
X014042Y007767D01*
X013825Y007677D01*
X013591Y007677D01*
X013374Y007767D01*
X013208Y007933D01*
X013118Y008150D01*
X013118Y008385D01*
X013208Y008601D01*
X013374Y008767D01*
X013188Y008554D02*
X009759Y008554D01*
X009919Y008316D02*
X013118Y008316D01*
X013148Y008077D02*
X009948Y008077D01*
X010207Y007839D02*
X013302Y007839D01*
X014248Y007600D02*
X010441Y007600D01*
X010499Y007362D02*
X020062Y007362D01*
X020067Y007356D02*
X020236Y007286D01*
X020418Y007286D01*
X020586Y007356D01*
X020715Y007485D01*
X020785Y007653D01*
X020785Y007835D01*
X020715Y008003D01*
X020586Y008132D01*
X020418Y008202D01*
X020236Y008202D01*
X020067Y008132D01*
X019939Y008003D01*
X019869Y007835D01*
X019869Y007653D01*
X019939Y007485D01*
X020067Y007356D01*
X019891Y007600D02*
X016201Y007600D01*
X015349Y007600D02*
X015100Y007600D01*
X015185Y008316D02*
X015264Y008316D01*
X015551Y008554D02*
X014898Y008554D01*
X014450Y008554D02*
X014228Y008554D01*
X013981Y008793D02*
X016468Y008793D01*
X016221Y008554D02*
X015999Y008554D01*
X017014Y008793D02*
X023126Y008793D01*
X023116Y008784D02*
X023116Y008784D01*
X023383Y009008D01*
X023383Y009008D01*
X023711Y009128D01*
X024060Y009128D01*
X024388Y009008D01*
X024388Y009008D01*
X024656Y008784D01*
X024656Y008784D01*
X024830Y008482D01*
X024830Y008482D01*
X024891Y008138D01*
X024891Y008138D01*
X024830Y007794D01*
X024830Y007794D01*
X024656Y007492D01*
X024656Y007492D01*
X024656Y007492D01*
X024388Y007267D01*
X024388Y007267D01*
X024060Y007148D01*
X023834Y007148D01*
X023711Y007148D01*
X023383Y007267D01*
X023383Y007267D01*
X023116Y007492D01*
X023116Y007492D01*
X022941Y007794D01*
X022941Y007794D01*
X022881Y008138D01*
X022881Y008138D01*
X022941Y008482D01*
X022941Y008482D01*
X023116Y008784D01*
X023116Y008784D01*
X022983Y008554D02*
X017261Y008554D01*
X017331Y008316D02*
X022912Y008316D01*
X022891Y008077D02*
X022641Y008077D01*
X022586Y008132D02*
X022418Y008202D01*
X022236Y008202D01*
X022067Y008132D01*
X021939Y008003D01*
X021869Y007835D01*
X021869Y007653D01*
X021939Y007485D01*
X022067Y007356D01*
X022236Y007286D01*
X022418Y007286D01*
X022586Y007356D01*
X022715Y007485D01*
X022785Y007653D01*
X022785Y007835D01*
X022715Y008003D01*
X022586Y008132D01*
X022783Y007839D02*
X022933Y007839D01*
X023053Y007600D02*
X022763Y007600D01*
X022592Y007362D02*
X023270Y007362D01*
X022062Y007362D02*
X021579Y007362D01*
X021567Y007353D02*
X021625Y007395D01*
X021676Y007446D01*
X021718Y007504D01*
X021751Y007568D01*
X021773Y007637D01*
X021785Y007708D01*
X021785Y007744D01*
X021327Y007744D01*
X021327Y007744D01*
X021785Y007744D01*
X021785Y007780D01*
X021773Y007851D01*
X021751Y007920D01*
X021718Y007984D01*
X021676Y008042D01*
X021625Y008093D01*
X021567Y008136D01*
X021503Y008168D01*
X021434Y008191D01*
X021363Y008202D01*
X021327Y008202D01*
X021327Y007744D01*
X021327Y007286D01*
X021363Y007286D01*
X021434Y007298D01*
X021503Y007320D01*
X021567Y007353D01*
X021327Y007362D02*
X021327Y007362D01*
X021327Y007286D02*
X021327Y007744D01*
X021327Y007744D01*
X021327Y007744D01*
X020869Y007744D01*
X020869Y007708D01*
X020880Y007637D01*
X020903Y007568D01*
X020935Y007504D01*
X020978Y007446D01*
X021029Y007395D01*
X021087Y007353D01*
X021151Y007320D01*
X021220Y007298D01*
X021291Y007286D01*
X021327Y007286D01*
X021074Y007362D02*
X020592Y007362D01*
X020763Y007600D02*
X020892Y007600D01*
X020869Y007744D02*
X021327Y007744D01*
X021327Y007744D01*
X021327Y008202D01*
X021291Y008202D01*
X021220Y008191D01*
X021151Y008168D01*
X021087Y008136D01*
X021029Y008093D01*
X020978Y008042D01*
X020935Y007984D01*
X020903Y007920D01*
X020880Y007851D01*
X020869Y007780D01*
X020869Y007744D01*
X020878Y007839D02*
X020783Y007839D01*
X020641Y008077D02*
X021013Y008077D01*
X021327Y008077D02*
X021327Y008077D01*
X021327Y007839D02*
X021327Y007839D01*
X021327Y007600D02*
X021327Y007600D01*
X021761Y007600D02*
X021891Y007600D01*
X021870Y007839D02*
X021775Y007839D01*
X021641Y008077D02*
X022013Y008077D01*
X023446Y009031D02*
X007003Y009031D01*
X008657Y008554D02*
X009036Y008554D01*
X008876Y008316D02*
X008817Y008316D01*
X008845Y008077D02*
X008848Y008077D01*
X008846Y007900D02*
X008846Y007350D01*
X008846Y006800D01*
X008846Y006885D02*
X008846Y006885D01*
X008846Y007123D02*
X008846Y007123D01*
X008846Y007350D02*
X008846Y007350D01*
X008846Y007350D01*
X008846Y007900D01*
X008846Y007839D02*
X008846Y007839D01*
X008846Y007600D02*
X008846Y007600D01*
X008846Y007362D02*
X008846Y007362D01*
X008846Y007350D02*
X009396Y007350D01*
X009396Y007578D01*
X009387Y007588D01*
X009452Y007588D01*
X009399Y007460D01*
X009399Y007241D01*
X009483Y007039D01*
X009637Y006884D01*
X009839Y006800D01*
X010058Y006800D01*
X010260Y006884D01*
X010450Y007123D02*
X024632Y007123D01*
X024501Y007362D02*
X024871Y007362D01*
X024719Y007600D02*
X025063Y007600D01*
X025222Y007839D02*
X024838Y007839D01*
X024880Y008077D02*
X025346Y008077D01*
X025445Y008316D02*
X024860Y008316D01*
X024789Y008554D02*
X025461Y008554D01*
X025461Y008793D02*
X024645Y008793D01*
X024326Y009031D02*
X025461Y009031D01*
X020013Y008077D02*
X017301Y008077D01*
X017147Y007839D02*
X019870Y007839D01*
X018273Y011416D02*
X016114Y011416D01*
X015910Y011416D02*
X008980Y011416D01*
X009123Y011655D02*
X018133Y011655D01*
X018172Y011893D02*
X009362Y011893D01*
X009600Y012132D02*
X018773Y012132D01*
X023036Y016425D02*
X004988Y016425D01*
X004988Y016663D02*
X023036Y016663D01*
X023036Y016902D02*
X004988Y016902D01*
X004988Y017140D02*
X010675Y017140D01*
X010684Y017118D02*
X010780Y017023D01*
X010905Y016971D01*
X011040Y016971D01*
X011165Y017023D01*
X011261Y017118D01*
X011312Y017243D01*
X011312Y017379D01*
X023036Y017379D01*
X023036Y017617D02*
X011464Y017617D01*
X011287Y017440D02*
X013599Y019753D01*
X013661Y019727D01*
X013796Y019727D01*
X013921Y019779D01*
X014017Y019874D01*
X014068Y019999D01*
X014068Y020135D01*
X014017Y020260D01*
X013921Y020355D01*
X013832Y020392D01*
X013832Y020450D01*
X013780Y020574D01*
X013685Y020670D01*
X013560Y020722D01*
X013424Y020722D01*
X013300Y020670D01*
X013204Y020574D01*
X013152Y020450D01*
X013152Y020424D01*
X010812Y018084D01*
X010787Y018084D01*
X010662Y018032D01*
X010566Y017937D01*
X010514Y017812D01*
X010514Y017676D01*
X010566Y017551D01*
X010662Y017456D01*
X010664Y017455D01*
X010632Y017379D01*
X010633Y017379D02*
X004988Y017379D01*
X004988Y017617D02*
X007414Y017617D01*
X007364Y017638D02*
X007489Y017586D01*
X007625Y017586D01*
X007750Y017638D01*
X007845Y017734D01*
X007897Y017859D01*
X007897Y017994D01*
X007845Y018119D01*
X007750Y018214D01*
X007625Y018266D01*
X007489Y018266D01*
X007364Y018214D01*
X007346Y018196D01*
X007241Y018196D01*
X006470Y018967D01*
X006470Y018993D01*
X006418Y019118D01*
X006323Y019213D01*
X006198Y019265D01*
X006062Y019265D01*
X005937Y019213D01*
X005842Y019118D01*
X005790Y018993D01*
X005790Y018858D01*
X005842Y018733D01*
X005937Y018637D01*
X006062Y018585D01*
X006088Y018585D01*
X006976Y017697D01*
X007075Y017656D01*
X007346Y017656D01*
X007364Y017638D01*
X007700Y017617D02*
X010539Y017617D01*
X010533Y017856D02*
X007896Y017856D01*
X007855Y018094D02*
X010823Y018094D01*
X011061Y018333D02*
X007104Y018333D01*
X006866Y018571D02*
X011300Y018571D01*
X011538Y018810D02*
X006627Y018810D01*
X006447Y019048D02*
X011777Y019048D01*
X012015Y019287D02*
X007917Y019287D01*
X007932Y019302D02*
X007952Y019294D01*
X008087Y019294D01*
X008177Y019331D01*
X008267Y019294D01*
X008402Y019294D01*
X008527Y019346D01*
X008623Y019441D01*
X008675Y019566D01*
X008675Y019701D01*
X008623Y019826D01*
X008605Y019845D01*
X008605Y020132D01*
X008623Y020150D01*
X008675Y020275D01*
X008675Y020410D01*
X008623Y020535D01*
X008527Y020631D01*
X008402Y020683D01*
X008267Y020683D01*
X008142Y020631D01*
X008135Y020623D01*
X008087Y020643D01*
X007952Y020643D01*
X007827Y020591D01*
X007820Y020584D01*
X007772Y020604D01*
X007637Y020604D01*
X007512Y020552D01*
X007416Y020456D01*
X007365Y020331D01*
X007365Y020196D01*
X007416Y020071D01*
X007435Y020053D01*
X007435Y019766D01*
X007416Y019748D01*
X007365Y019623D01*
X007365Y019487D01*
X007416Y019363D01*
X007512Y019267D01*
X007637Y019215D01*
X007772Y019215D01*
X007897Y019267D01*
X007932Y019302D01*
X007492Y019287D02*
X004988Y019287D01*
X004988Y019525D02*
X007365Y019525D01*
X007433Y019764D02*
X004988Y019764D01*
X004988Y020002D02*
X007435Y020002D01*
X007365Y020241D02*
X004988Y020241D01*
X004988Y020479D02*
X007439Y020479D01*
X007135Y020718D02*
X013415Y020718D01*
X013570Y020718D02*
X025461Y020718D01*
X025461Y020956D02*
X007297Y020956D01*
X007249Y021195D02*
X025461Y021195D01*
X025461Y021433D02*
X006992Y021433D01*
X006992Y021508D02*
X006472Y021508D01*
X006992Y021508D01*
X006992Y021672D02*
X025461Y021672D01*
X025461Y021910D02*
X006805Y021910D01*
X006849Y022149D02*
X025461Y022149D01*
X025461Y022387D02*
X006992Y022387D01*
X006992Y022626D02*
X025461Y022626D01*
X025461Y022864D02*
X006851Y022864D01*
X006803Y023103D02*
X025461Y023103D01*
X025461Y023341D02*
X021943Y023341D01*
X021992Y023361D02*
X022087Y023457D01*
X022139Y023582D01*
X022139Y023717D01*
X022099Y023814D01*
X022099Y025456D01*
X022171Y025527D01*
X022237Y025688D01*
X022237Y025863D01*
X022171Y026024D01*
X022047Y026147D01*
X021886Y026214D01*
X021712Y026214D01*
X021551Y026147D01*
X021428Y026024D01*
X021422Y026010D01*
X021385Y026061D01*
X021337Y026110D01*
X021281Y026150D01*
X021219Y026182D01*
X021154Y026203D01*
X021086Y026214D01*
X021051Y026214D01*
X021017Y026214D01*
X020949Y026203D01*
X020883Y026182D01*
X020822Y026150D01*
X020766Y026110D01*
X020717Y026061D01*
X020676Y026005D01*
X020645Y025944D01*
X020624Y025878D01*
X020613Y025810D01*
X020613Y025776D01*
X021051Y025776D01*
X021051Y026214D01*
X021051Y025776D01*
X021051Y025776D01*
X021051Y025776D01*
X020613Y025776D01*
X020613Y025741D01*
X020624Y025673D01*
X020645Y025607D01*
X020676Y025546D01*
X020717Y025490D01*
X020766Y025441D01*
X020822Y025401D01*
X020883Y025370D01*
X020949Y025348D01*
X021017Y025337D01*
X021051Y025337D01*
X021051Y025776D01*
X021051Y025776D01*
X021051Y025337D01*
X021086Y025337D01*
X021154Y025348D01*
X021219Y025370D01*
X021281Y025401D01*
X021337Y025441D01*
X021385Y025490D01*
X021422Y025541D01*
X021428Y025527D01*
X021499Y025456D01*
X021499Y023814D01*
X021459Y023717D01*
X021459Y023582D01*
X021511Y023457D01*
X021607Y023361D01*
X021732Y023310D01*
X021867Y023310D01*
X021992Y023361D01*
X022138Y023580D02*
X025461Y023580D01*
X025461Y023818D02*
X022099Y023818D01*
X022099Y024057D02*
X025461Y024057D01*
X025461Y024295D02*
X022099Y024295D01*
X022099Y024534D02*
X023538Y024534D01*
X023383Y024590D02*
X023711Y024471D01*
X023938Y024471D01*
X024060Y024471D01*
X024060Y024471D01*
X024388Y024590D01*
X024388Y024590D01*
X024656Y024814D01*
X024656Y024814D01*
X024656Y024814D01*
X024830Y025117D01*
X024891Y025461D01*
X024830Y025804D01*
X024656Y026107D01*
X024388Y026331D01*
X024060Y026451D01*
X023711Y026451D01*
X023383Y026331D01*
X023116Y026107D01*
X023116Y026107D01*
X022941Y025804D01*
X022881Y025461D01*
X022881Y025461D01*
X022941Y025117D01*
X022941Y025117D01*
X023116Y024814D01*
X023383Y024590D01*
X023383Y024590D01*
X023166Y024772D02*
X022099Y024772D01*
X022099Y025011D02*
X023002Y025011D01*
X023116Y024814D02*
X023116Y024814D01*
X022918Y025249D02*
X022099Y025249D01*
X022131Y025488D02*
X022885Y025488D01*
X022927Y025726D02*
X022237Y025726D01*
X022195Y025965D02*
X023034Y025965D01*
X023116Y026107D02*
X023116Y026107D01*
X023231Y026203D02*
X021911Y026203D01*
X021687Y026203D02*
X021151Y026203D01*
X021051Y026203D02*
X021051Y026203D01*
X020951Y026203D02*
X007218Y026203D01*
X007333Y026107D02*
X007066Y026331D01*
X007066Y026331D01*
X006738Y026451D01*
X006388Y026451D01*
X006060Y026331D01*
X005793Y026107D01*
X005793Y026107D01*
X005793Y026107D01*
X005618Y025804D01*
X005558Y025461D01*
X005618Y025117D01*
X005618Y025117D01*
X005793Y024814D01*
X006060Y024590D01*
X006060Y024590D01*
X006388Y024471D01*
X006615Y024471D01*
X006738Y024471D01*
X007066Y024590D01*
X007333Y024814D01*
X007333Y024814D01*
X007333Y024814D01*
X007508Y025117D01*
X007568Y025461D01*
X007508Y025804D01*
X007508Y025804D01*
X007333Y026107D01*
X007333Y026107D01*
X007415Y025965D02*
X020656Y025965D01*
X020615Y025726D02*
X007521Y025726D01*
X007563Y025488D02*
X020719Y025488D01*
X021051Y025488D02*
X021051Y025488D01*
X021051Y025726D02*
X021051Y025726D01*
X021051Y025965D02*
X021051Y025965D01*
X021383Y025488D02*
X021467Y025488D01*
X021499Y025249D02*
X007531Y025249D01*
X007508Y025117D02*
X007508Y025117D01*
X007446Y025011D02*
X021499Y025011D01*
X021499Y024772D02*
X007283Y024772D01*
X007066Y024590D02*
X007066Y024590D01*
X006911Y024534D02*
X021499Y024534D01*
X021499Y024295D02*
X004988Y024295D01*
X004988Y024057D02*
X021499Y024057D01*
X021499Y023818D02*
X006897Y023818D01*
X006992Y023580D02*
X021460Y023580D01*
X021655Y023341D02*
X006992Y023341D01*
X006047Y023818D02*
X005897Y023818D01*
X006215Y024534D02*
X004988Y024534D01*
X004988Y024772D02*
X005843Y024772D01*
X005793Y024814D02*
X005793Y024814D01*
X005680Y025011D02*
X004988Y025011D01*
X004988Y025249D02*
X005595Y025249D01*
X005558Y025461D02*
X005558Y025461D01*
X005563Y025488D02*
X005031Y025488D01*
X005118Y025726D02*
X005605Y025726D01*
X005618Y025804D02*
X005618Y025804D01*
X005711Y025965D02*
X005229Y025965D01*
X005366Y026203D02*
X005908Y026203D01*
X006060Y026331D02*
X006060Y026331D01*
X006364Y026442D02*
X005512Y026442D01*
X005712Y026680D02*
X024737Y026680D01*
X024937Y026442D02*
X024085Y026442D01*
X024388Y026331D02*
X024388Y026331D01*
X024541Y026203D02*
X025082Y026203D01*
X025220Y025965D02*
X024738Y025965D01*
X024656Y026107D02*
X024656Y026107D01*
X024830Y025804D02*
X024830Y025804D01*
X024844Y025726D02*
X025331Y025726D01*
X025418Y025488D02*
X024886Y025488D01*
X024891Y025461D02*
X024891Y025461D01*
X024854Y025249D02*
X025461Y025249D01*
X025461Y025011D02*
X024769Y025011D01*
X024830Y025117D02*
X024830Y025117D01*
X024606Y024772D02*
X025461Y024772D01*
X025461Y024534D02*
X024234Y024534D01*
X022941Y025804D02*
X022941Y025804D01*
X023383Y026331D02*
X023383Y026331D01*
X023687Y026442D02*
X006762Y026442D01*
X006200Y027157D02*
X024248Y027157D01*
X024533Y026919D02*
X005916Y026919D01*
X006523Y027396D02*
X012815Y027396D01*
X012736Y027475D02*
X012736Y027475D01*
X012670Y027634D02*
X006936Y027634D01*
X007568Y025461D02*
X007568Y025461D01*
X006738Y024471D02*
X006738Y024471D01*
X005047Y023818D02*
X004988Y023818D01*
X006472Y021508D02*
X006472Y021508D01*
X006000Y020956D02*
X004988Y020956D01*
X004988Y020718D02*
X006778Y020718D01*
X005813Y019048D02*
X004988Y019048D01*
X004988Y018810D02*
X005810Y018810D01*
X006102Y018571D02*
X004988Y018571D01*
X004988Y018333D02*
X006340Y018333D01*
X006579Y018094D02*
X004988Y018094D01*
X004988Y017856D02*
X006817Y017856D01*
X008658Y019525D02*
X012254Y019525D01*
X012492Y019764D02*
X008649Y019764D01*
X008605Y020002D02*
X012731Y020002D01*
X012969Y020241D02*
X008661Y020241D01*
X008646Y020479D02*
X013164Y020479D01*
X013820Y020479D02*
X025461Y020479D01*
X025461Y020241D02*
X014024Y020241D01*
X014068Y020002D02*
X025461Y020002D01*
X025461Y019764D02*
X013885Y019764D01*
X013372Y019525D02*
X023036Y019525D01*
X023036Y019287D02*
X013133Y019287D01*
X012895Y019048D02*
X023036Y019048D01*
X023036Y018810D02*
X012656Y018810D01*
X012418Y018571D02*
X023036Y018571D01*
X023036Y018333D02*
X012179Y018333D01*
X011941Y018094D02*
X023036Y018094D01*
X023036Y017856D02*
X011702Y017856D01*
X011287Y017440D02*
X011312Y017379D01*
X011270Y017140D02*
X023036Y017140D01*
X023925Y027396D02*
X017634Y027396D01*
X017541Y027303D02*
X017541Y027303D01*
X017779Y027634D02*
X023512Y027634D01*
X012908Y027303D02*
X012908Y027303D01*
X005050Y021195D02*
X004988Y021195D01*
X010632Y017379D02*
X010632Y017243D01*
X010684Y017118D01*
X009396Y007362D02*
X009399Y007362D01*
X009159Y006885D02*
X009637Y006885D01*
D22*
X011012Y009757D03*
X010643Y010293D03*
X010303Y010776D03*
X009949Y011209D03*
X010657Y011209D03*
X014791Y009949D03*
X018531Y011720D03*
X020736Y012665D03*
X006012Y016312D03*
X005657Y015224D03*
X005170Y014742D03*
X005151Y018758D03*
X005146Y019437D03*
M02*
