%
M48
M72
T01C0.0120
T02C0.0236
T03C0.0315
T04C0.0320
T05C0.0400
T06C0.1300
%
T01
X7126Y8728
X7126Y9082
X7126Y9437
X7126Y9791
X7126Y10145
X5669Y11287
X5354Y11838
X6023Y12114
X5876Y12532
X5871Y12847
X6023Y13216
X6850Y13649
X5984Y14397
X5836Y15052
X6850Y14752
X7716Y14200
X7716Y13374
X7637Y12586
X7913Y12389
X8189Y12586
X8425Y12389
X9015Y12468
X9409Y12507
X10511Y12547
X10669Y12035
X11102Y10539
X11732Y10145
X12441Y10145
X13504Y11405
X13504Y12626
X15039Y12626
X15039Y13846
X15039Y15067
X15039Y16287
X15039Y17507
X13504Y17507
X13504Y16287
X13504Y15067
X13464Y14161
X10748Y15500
X9606Y16011
X9291Y14870
X9488Y14437
X8622Y14476
X8031Y15539
X6771Y16759
X6456Y16759
X6141Y16681
X6141Y17389
X6456Y17429
X6771Y17468
X6929Y17862
X6417Y18531
X7204Y19082
X7756Y19594
X9055Y19830
X9134Y20460
X10078Y19515
X9882Y18807
X9882Y18019
X11929Y17507
X12165Y17193
X13385Y19909
X16456Y21838
X16417Y22429
X17401Y21602
X17756Y22035
X19803Y21484
X19882Y22586
X19842Y23649
X20433Y24673
X17323Y24673
X15945Y23649
X12874Y24319
X12047Y24200
X10866Y24161
X10984Y24752
X10315Y24752
X10197Y24043
X9370Y24200
X9370Y23256
X10197Y23059
X10157Y22153
X8385Y24240
X7401Y24200
X6732Y23689
X7401Y23256
X7756Y22665
X6456Y22665
X6456Y21759
X6456Y20696
X6417Y19555
X5197Y18216
X5197Y17468
X4567Y16051
X3622Y15893
X3582Y16602
X4055Y14633
X4055Y13846
X4330Y13019
X4173Y12389
X3661Y11917
X6693Y11996
X6929Y12193
X7047Y12704
X8661Y10854
X8464Y8492
X8543Y7862
X9094Y7429
X13582Y7941
X14330Y7941
X17008Y9830
X17126Y9397
X17834Y10067
X18267Y10106
X19015Y9358
X18819Y9082
X18071Y8846
X17126Y8649
X19055Y8059
X19724Y6051
X20945Y9791
X20708Y10500
X21181Y11405
X21181Y12626
X21181Y13846
X21181Y15067
X21181Y16287
X21181Y17507
X20275Y17744
X19645Y16287
X19645Y15067
X19645Y13846
X19645Y12626
X19645Y11405
X18110Y11405
X18110Y12626
X18110Y13846
X18110Y15067
X18110Y16287
X18110Y17507
X16574Y17507
X16574Y16287
X16574Y15067
X16574Y13846
X16574Y12626
X16574Y11405
X15039Y11405
X10669Y13649
X16574Y19082
X6417Y24752
T02
X19157Y4870
X20157Y4870
X21157Y4870
T03
X8015Y4488
X7415Y5251
X6815Y4488
X6315Y5251
T04
X12145Y5393
X13111Y5134
X14212Y5134
X15178Y5393
T05
X22452Y6913
X22452Y7913
X22452Y8913
X22452Y9913
X23452Y9913
X23452Y8913
X23452Y7913
X23452Y6913
X4752Y7082
X4752Y8082
X4752Y9082
X4752Y10082
X4752Y11082
X3752Y11082
X3752Y10082
X3752Y9082
X3752Y8082
X3752Y7082
X3909Y18633
X4909Y18633
X4909Y19633
X3909Y19633
X3909Y20633
X4909Y20633
T06
X5000Y5263
X5000Y22586
X22323Y22586
X22323Y5263
M30
