G75*
%MOIN*%
%OFA0B0*%
%FSLAX24Y24*%
%IPPOS*%
%LPD*%
%AMOC8*
5,1,8,0,0,1.08239X$1,22.5*
%
%ADD10C,0.0000*%
%ADD11OC8,0.0600*%
%ADD12C,0.0436*%
%ADD13C,0.0740*%
%ADD14C,0.0320*%
%ADD15C,0.0660*%
%ADD16OC8,0.0660*%
%ADD17C,0.0240*%
%ADD18C,0.0100*%
%ADD19C,0.0160*%
%ADD20C,0.0320*%
%ADD21C,0.0356*%
D10*
X004350Y005263D02*
X004352Y005313D01*
X004358Y005363D01*
X004368Y005413D01*
X004381Y005461D01*
X004398Y005509D01*
X004419Y005555D01*
X004443Y005599D01*
X004471Y005641D01*
X004502Y005681D01*
X004536Y005718D01*
X004573Y005753D01*
X004612Y005784D01*
X004653Y005813D01*
X004697Y005838D01*
X004743Y005860D01*
X004790Y005878D01*
X004838Y005892D01*
X004887Y005903D01*
X004937Y005910D01*
X004987Y005913D01*
X005038Y005912D01*
X005088Y005907D01*
X005138Y005898D01*
X005186Y005886D01*
X005234Y005869D01*
X005280Y005849D01*
X005325Y005826D01*
X005368Y005799D01*
X005408Y005769D01*
X005446Y005736D01*
X005481Y005700D01*
X005514Y005661D01*
X005543Y005620D01*
X005569Y005577D01*
X005592Y005532D01*
X005611Y005485D01*
X005626Y005437D01*
X005638Y005388D01*
X005646Y005338D01*
X005650Y005288D01*
X005650Y005238D01*
X005646Y005188D01*
X005638Y005138D01*
X005626Y005089D01*
X005611Y005041D01*
X005592Y004994D01*
X005569Y004949D01*
X005543Y004906D01*
X005514Y004865D01*
X005481Y004826D01*
X005446Y004790D01*
X005408Y004757D01*
X005368Y004727D01*
X005325Y004700D01*
X005280Y004677D01*
X005234Y004657D01*
X005186Y004640D01*
X005138Y004628D01*
X005088Y004619D01*
X005038Y004614D01*
X004987Y004613D01*
X004937Y004616D01*
X004887Y004623D01*
X004838Y004634D01*
X004790Y004648D01*
X004743Y004666D01*
X004697Y004688D01*
X004653Y004713D01*
X004612Y004742D01*
X004573Y004773D01*
X004536Y004808D01*
X004502Y004845D01*
X004471Y004885D01*
X004443Y004927D01*
X004419Y004971D01*
X004398Y005017D01*
X004381Y005065D01*
X004368Y005113D01*
X004358Y005163D01*
X004352Y005213D01*
X004350Y005263D01*
X003031Y006444D02*
X003031Y021405D01*
X004350Y022586D02*
X004352Y022636D01*
X004358Y022686D01*
X004368Y022736D01*
X004381Y022784D01*
X004398Y022832D01*
X004419Y022878D01*
X004443Y022922D01*
X004471Y022964D01*
X004502Y023004D01*
X004536Y023041D01*
X004573Y023076D01*
X004612Y023107D01*
X004653Y023136D01*
X004697Y023161D01*
X004743Y023183D01*
X004790Y023201D01*
X004838Y023215D01*
X004887Y023226D01*
X004937Y023233D01*
X004987Y023236D01*
X005038Y023235D01*
X005088Y023230D01*
X005138Y023221D01*
X005186Y023209D01*
X005234Y023192D01*
X005280Y023172D01*
X005325Y023149D01*
X005368Y023122D01*
X005408Y023092D01*
X005446Y023059D01*
X005481Y023023D01*
X005514Y022984D01*
X005543Y022943D01*
X005569Y022900D01*
X005592Y022855D01*
X005611Y022808D01*
X005626Y022760D01*
X005638Y022711D01*
X005646Y022661D01*
X005650Y022611D01*
X005650Y022561D01*
X005646Y022511D01*
X005638Y022461D01*
X005626Y022412D01*
X005611Y022364D01*
X005592Y022317D01*
X005569Y022272D01*
X005543Y022229D01*
X005514Y022188D01*
X005481Y022149D01*
X005446Y022113D01*
X005408Y022080D01*
X005368Y022050D01*
X005325Y022023D01*
X005280Y022000D01*
X005234Y021980D01*
X005186Y021963D01*
X005138Y021951D01*
X005088Y021942D01*
X005038Y021937D01*
X004987Y021936D01*
X004937Y021939D01*
X004887Y021946D01*
X004838Y021957D01*
X004790Y021971D01*
X004743Y021989D01*
X004697Y022011D01*
X004653Y022036D01*
X004612Y022065D01*
X004573Y022096D01*
X004536Y022131D01*
X004502Y022168D01*
X004471Y022208D01*
X004443Y022250D01*
X004419Y022294D01*
X004398Y022340D01*
X004381Y022388D01*
X004368Y022436D01*
X004358Y022486D01*
X004352Y022536D01*
X004350Y022586D01*
X003031Y021405D02*
X003033Y021529D01*
X003039Y021652D01*
X003048Y021776D01*
X003062Y021898D01*
X003079Y022021D01*
X003101Y022143D01*
X003126Y022264D01*
X003155Y022384D01*
X003187Y022503D01*
X003224Y022622D01*
X003264Y022739D01*
X003307Y022854D01*
X003355Y022969D01*
X003406Y023081D01*
X003460Y023192D01*
X003518Y023302D01*
X003579Y023409D01*
X003644Y023515D01*
X003712Y023618D01*
X003783Y023719D01*
X003857Y023818D01*
X003934Y023915D01*
X004015Y024009D01*
X004098Y024100D01*
X004184Y024189D01*
X004273Y024275D01*
X004364Y024358D01*
X004458Y024439D01*
X004555Y024516D01*
X004654Y024590D01*
X004755Y024661D01*
X004858Y024729D01*
X004964Y024794D01*
X005071Y024855D01*
X005181Y024913D01*
X005292Y024967D01*
X005404Y025018D01*
X005519Y025066D01*
X005634Y025109D01*
X005751Y025149D01*
X005870Y025186D01*
X005989Y025218D01*
X006109Y025247D01*
X006230Y025272D01*
X006352Y025294D01*
X006475Y025311D01*
X006597Y025325D01*
X006721Y025334D01*
X006844Y025340D01*
X006968Y025342D01*
X010905Y025342D01*
X010944Y025340D01*
X010982Y025334D01*
X011019Y025325D01*
X011056Y025312D01*
X011091Y025295D01*
X011124Y025276D01*
X011155Y025253D01*
X011184Y025227D01*
X011210Y025198D01*
X011233Y025167D01*
X011252Y025134D01*
X011269Y025099D01*
X011282Y025062D01*
X011291Y025025D01*
X011297Y024987D01*
X011299Y024948D01*
X011301Y024909D01*
X011307Y024871D01*
X011316Y024834D01*
X011329Y024797D01*
X011346Y024762D01*
X011365Y024729D01*
X011388Y024698D01*
X011414Y024669D01*
X011443Y024643D01*
X011474Y024620D01*
X011507Y024601D01*
X011542Y024584D01*
X011579Y024571D01*
X011616Y024562D01*
X011654Y024556D01*
X011693Y024554D01*
X011693Y024555D02*
X015630Y024555D01*
X015630Y024554D02*
X015669Y024556D01*
X015707Y024562D01*
X015744Y024571D01*
X015781Y024584D01*
X015816Y024601D01*
X015849Y024620D01*
X015880Y024643D01*
X015909Y024669D01*
X015935Y024698D01*
X015958Y024729D01*
X015977Y024762D01*
X015994Y024797D01*
X016007Y024834D01*
X016016Y024871D01*
X016022Y024909D01*
X016024Y024948D01*
X016023Y024948D02*
X016025Y024987D01*
X016031Y025025D01*
X016040Y025062D01*
X016053Y025099D01*
X016070Y025134D01*
X016089Y025167D01*
X016112Y025198D01*
X016138Y025227D01*
X016167Y025253D01*
X016198Y025276D01*
X016231Y025295D01*
X016266Y025312D01*
X016303Y025325D01*
X016340Y025334D01*
X016378Y025340D01*
X016417Y025342D01*
X020354Y025342D01*
X021673Y022586D02*
X021675Y022636D01*
X021681Y022686D01*
X021691Y022736D01*
X021704Y022784D01*
X021721Y022832D01*
X021742Y022878D01*
X021766Y022922D01*
X021794Y022964D01*
X021825Y023004D01*
X021859Y023041D01*
X021896Y023076D01*
X021935Y023107D01*
X021976Y023136D01*
X022020Y023161D01*
X022066Y023183D01*
X022113Y023201D01*
X022161Y023215D01*
X022210Y023226D01*
X022260Y023233D01*
X022310Y023236D01*
X022361Y023235D01*
X022411Y023230D01*
X022461Y023221D01*
X022509Y023209D01*
X022557Y023192D01*
X022603Y023172D01*
X022648Y023149D01*
X022691Y023122D01*
X022731Y023092D01*
X022769Y023059D01*
X022804Y023023D01*
X022837Y022984D01*
X022866Y022943D01*
X022892Y022900D01*
X022915Y022855D01*
X022934Y022808D01*
X022949Y022760D01*
X022961Y022711D01*
X022969Y022661D01*
X022973Y022611D01*
X022973Y022561D01*
X022969Y022511D01*
X022961Y022461D01*
X022949Y022412D01*
X022934Y022364D01*
X022915Y022317D01*
X022892Y022272D01*
X022866Y022229D01*
X022837Y022188D01*
X022804Y022149D01*
X022769Y022113D01*
X022731Y022080D01*
X022691Y022050D01*
X022648Y022023D01*
X022603Y022000D01*
X022557Y021980D01*
X022509Y021963D01*
X022461Y021951D01*
X022411Y021942D01*
X022361Y021937D01*
X022310Y021936D01*
X022260Y021939D01*
X022210Y021946D01*
X022161Y021957D01*
X022113Y021971D01*
X022066Y021989D01*
X022020Y022011D01*
X021976Y022036D01*
X021935Y022065D01*
X021896Y022096D01*
X021859Y022131D01*
X021825Y022168D01*
X021794Y022208D01*
X021766Y022250D01*
X021742Y022294D01*
X021721Y022340D01*
X021704Y022388D01*
X021691Y022436D01*
X021681Y022486D01*
X021675Y022536D01*
X021673Y022586D01*
X024291Y021405D02*
X024289Y021529D01*
X024283Y021652D01*
X024274Y021776D01*
X024260Y021898D01*
X024243Y022021D01*
X024221Y022143D01*
X024196Y022264D01*
X024167Y022384D01*
X024135Y022503D01*
X024098Y022622D01*
X024058Y022739D01*
X024015Y022854D01*
X023967Y022969D01*
X023916Y023081D01*
X023862Y023192D01*
X023804Y023302D01*
X023743Y023409D01*
X023678Y023515D01*
X023610Y023618D01*
X023539Y023719D01*
X023465Y023818D01*
X023388Y023915D01*
X023307Y024009D01*
X023224Y024100D01*
X023138Y024189D01*
X023049Y024275D01*
X022958Y024358D01*
X022864Y024439D01*
X022767Y024516D01*
X022668Y024590D01*
X022567Y024661D01*
X022464Y024729D01*
X022358Y024794D01*
X022251Y024855D01*
X022141Y024913D01*
X022030Y024967D01*
X021918Y025018D01*
X021803Y025066D01*
X021688Y025109D01*
X021571Y025149D01*
X021452Y025186D01*
X021333Y025218D01*
X021213Y025247D01*
X021092Y025272D01*
X020970Y025294D01*
X020847Y025311D01*
X020725Y025325D01*
X020601Y025334D01*
X020478Y025340D01*
X020354Y025342D01*
X024291Y021405D02*
X024291Y016996D01*
X024289Y016957D01*
X024283Y016919D01*
X024274Y016882D01*
X024261Y016845D01*
X024244Y016810D01*
X024225Y016777D01*
X024202Y016746D01*
X024176Y016717D01*
X024147Y016691D01*
X024116Y016668D01*
X024083Y016649D01*
X024048Y016632D01*
X024011Y016619D01*
X023974Y016610D01*
X023936Y016604D01*
X023897Y016602D01*
X021693Y016602D01*
X021693Y016523D01*
X021693Y010578D01*
X023897Y010578D01*
X023897Y010579D02*
X023936Y010577D01*
X023974Y010571D01*
X024011Y010562D01*
X024048Y010549D01*
X024083Y010532D01*
X024116Y010513D01*
X024147Y010490D01*
X024176Y010464D01*
X024202Y010435D01*
X024225Y010404D01*
X024244Y010371D01*
X024261Y010336D01*
X024274Y010299D01*
X024283Y010262D01*
X024289Y010224D01*
X024291Y010185D01*
X024291Y006444D01*
X021673Y005263D02*
X021675Y005313D01*
X021681Y005363D01*
X021691Y005413D01*
X021704Y005461D01*
X021721Y005509D01*
X021742Y005555D01*
X021766Y005599D01*
X021794Y005641D01*
X021825Y005681D01*
X021859Y005718D01*
X021896Y005753D01*
X021935Y005784D01*
X021976Y005813D01*
X022020Y005838D01*
X022066Y005860D01*
X022113Y005878D01*
X022161Y005892D01*
X022210Y005903D01*
X022260Y005910D01*
X022310Y005913D01*
X022361Y005912D01*
X022411Y005907D01*
X022461Y005898D01*
X022509Y005886D01*
X022557Y005869D01*
X022603Y005849D01*
X022648Y005826D01*
X022691Y005799D01*
X022731Y005769D01*
X022769Y005736D01*
X022804Y005700D01*
X022837Y005661D01*
X022866Y005620D01*
X022892Y005577D01*
X022915Y005532D01*
X022934Y005485D01*
X022949Y005437D01*
X022961Y005388D01*
X022969Y005338D01*
X022973Y005288D01*
X022973Y005238D01*
X022969Y005188D01*
X022961Y005138D01*
X022949Y005089D01*
X022934Y005041D01*
X022915Y004994D01*
X022892Y004949D01*
X022866Y004906D01*
X022837Y004865D01*
X022804Y004826D01*
X022769Y004790D01*
X022731Y004757D01*
X022691Y004727D01*
X022648Y004700D01*
X022603Y004677D01*
X022557Y004657D01*
X022509Y004640D01*
X022461Y004628D01*
X022411Y004619D01*
X022361Y004614D01*
X022310Y004613D01*
X022260Y004616D01*
X022210Y004623D01*
X022161Y004634D01*
X022113Y004648D01*
X022066Y004666D01*
X022020Y004688D01*
X021976Y004713D01*
X021935Y004742D01*
X021896Y004773D01*
X021859Y004808D01*
X021825Y004845D01*
X021794Y004885D01*
X021766Y004927D01*
X021742Y004971D01*
X021721Y005017D01*
X021704Y005065D01*
X021691Y005113D01*
X021681Y005163D01*
X021675Y005213D01*
X021673Y005263D01*
X021141Y003294D02*
X021251Y003296D01*
X021361Y003302D01*
X021470Y003311D01*
X021579Y003325D01*
X021688Y003342D01*
X021796Y003363D01*
X021903Y003388D01*
X022009Y003416D01*
X022114Y003448D01*
X022218Y003484D01*
X022321Y003523D01*
X022422Y003566D01*
X022522Y003613D01*
X022620Y003663D01*
X022716Y003716D01*
X022810Y003773D01*
X022902Y003833D01*
X022993Y003896D01*
X023080Y003962D01*
X023166Y004031D01*
X023249Y004103D01*
X023329Y004178D01*
X023407Y004256D01*
X023482Y004336D01*
X023554Y004419D01*
X023623Y004505D01*
X023689Y004592D01*
X023752Y004683D01*
X023812Y004775D01*
X023869Y004869D01*
X023922Y004965D01*
X023972Y005063D01*
X024019Y005163D01*
X024062Y005264D01*
X024101Y005367D01*
X024137Y005471D01*
X024169Y005576D01*
X024197Y005682D01*
X024222Y005789D01*
X024243Y005897D01*
X024260Y006006D01*
X024274Y006115D01*
X024283Y006224D01*
X024289Y006334D01*
X024291Y006444D01*
X021141Y003295D02*
X006181Y003295D01*
X006181Y003294D02*
X006071Y003296D01*
X005961Y003302D01*
X005852Y003311D01*
X005743Y003325D01*
X005634Y003342D01*
X005526Y003363D01*
X005419Y003388D01*
X005313Y003416D01*
X005208Y003448D01*
X005104Y003484D01*
X005001Y003523D01*
X004900Y003566D01*
X004800Y003613D01*
X004702Y003663D01*
X004606Y003716D01*
X004512Y003773D01*
X004420Y003833D01*
X004329Y003896D01*
X004242Y003962D01*
X004156Y004031D01*
X004073Y004103D01*
X003993Y004178D01*
X003915Y004256D01*
X003840Y004336D01*
X003768Y004419D01*
X003699Y004505D01*
X003633Y004592D01*
X003570Y004683D01*
X003510Y004775D01*
X003453Y004869D01*
X003400Y004965D01*
X003350Y005063D01*
X003303Y005163D01*
X003260Y005264D01*
X003221Y005367D01*
X003185Y005471D01*
X003153Y005576D01*
X003125Y005682D01*
X003100Y005789D01*
X003079Y005897D01*
X003062Y006006D01*
X003048Y006115D01*
X003039Y006224D01*
X003033Y006334D01*
X003031Y006444D01*
D11*
X003752Y007082D03*
X004752Y007082D03*
X004752Y008082D03*
X004752Y009082D03*
X004752Y010082D03*
X004752Y011082D03*
X003752Y011082D03*
X003752Y010082D03*
X003752Y009082D03*
X003752Y008082D03*
X003909Y018633D03*
X004909Y018633D03*
X004909Y019633D03*
X003909Y019633D03*
X003909Y020633D03*
X004909Y020633D03*
X022452Y009913D03*
X022452Y008913D03*
X022452Y007913D03*
X022452Y006913D03*
X023452Y006913D03*
X023452Y007913D03*
X023452Y008913D03*
X023452Y009913D03*
D12*
X020763Y004870D03*
X019763Y004870D03*
X018763Y004870D03*
D13*
X015178Y005393D03*
X014212Y005134D03*
X013111Y005134D03*
X012145Y005393D03*
D14*
X019882Y022586D03*
D15*
X007834Y005263D03*
X008385Y004476D03*
X006732Y005263D03*
D16*
X007283Y004476D03*
D17*
X007126Y008728D03*
X007126Y009082D03*
X007126Y009437D03*
X007126Y009791D03*
X007126Y010145D03*
X005669Y011287D03*
X005354Y011838D03*
X006023Y012114D03*
X005994Y012532D03*
X005989Y012847D03*
X006023Y013216D03*
X006850Y013649D03*
X006023Y014397D03*
X005994Y015052D03*
X006850Y014752D03*
X007716Y014200D03*
X007716Y013374D03*
X007637Y012586D03*
X007913Y012389D03*
X008189Y012586D03*
X008425Y012389D03*
X009015Y012468D03*
X009409Y012507D03*
X010511Y012547D03*
X010669Y012035D03*
X010118Y010815D03*
X010905Y010224D03*
X010703Y009963D03*
X010905Y009712D03*
X011693Y009712D03*
X011889Y009963D03*
X011693Y010224D03*
X012165Y008531D03*
X013779Y010342D03*
X013504Y011405D03*
X013504Y012626D03*
X015039Y012626D03*
X015039Y013846D03*
X015039Y015067D03*
X015039Y016287D03*
X015039Y017507D03*
X013504Y017507D03*
X013504Y016287D03*
X013504Y015067D03*
X013464Y014161D03*
X010748Y015500D03*
X009409Y014437D03*
X009291Y014870D03*
X009015Y015185D03*
X008622Y014476D03*
X008031Y015539D03*
X006771Y016759D03*
X006456Y016759D03*
X006141Y016681D03*
X006141Y017389D03*
X006456Y017429D03*
X006771Y017468D03*
X006929Y017862D03*
X006417Y018531D03*
X007204Y019082D03*
X007756Y019594D03*
X009055Y019830D03*
X009134Y020460D03*
X010078Y019515D03*
X009882Y018807D03*
X009882Y018019D03*
X011929Y017507D03*
X012165Y017193D03*
X012677Y019437D03*
X010275Y022035D03*
X010275Y022862D03*
X010000Y023256D03*
X010000Y023728D03*
X010315Y024161D03*
X010315Y024752D03*
X010984Y024752D03*
X010984Y024082D03*
X012165Y024122D03*
X012874Y024240D03*
X016023Y023728D03*
X016417Y022429D03*
X016456Y021838D03*
X017401Y021563D03*
X017756Y022035D03*
X019803Y021484D03*
X019842Y023649D03*
X020433Y024673D03*
X017323Y024673D03*
X016574Y019082D03*
X016574Y017507D03*
X016574Y016287D03*
X016574Y015067D03*
X016574Y013846D03*
X016574Y012626D03*
X016574Y011405D03*
X016102Y010106D03*
X017008Y009830D03*
X017559Y009791D03*
X017519Y009397D03*
X018110Y011405D03*
X018110Y012626D03*
X018110Y013846D03*
X018110Y015067D03*
X018110Y016287D03*
X018110Y017507D03*
X019645Y016287D03*
X019645Y015067D03*
X019645Y013846D03*
X019645Y012626D03*
X019645Y011405D03*
X020708Y010500D03*
X020945Y009791D03*
X021850Y008413D03*
X021181Y011405D03*
X021181Y012626D03*
X021181Y013846D03*
X021181Y015067D03*
X021181Y016287D03*
X021181Y017507D03*
X020275Y017744D03*
X015039Y011405D03*
X014448Y008216D03*
X014448Y007232D03*
X008661Y010854D03*
X006929Y012271D03*
X006693Y012074D03*
X007047Y012704D03*
X003582Y014948D03*
X004567Y016051D03*
X005197Y017468D03*
X005393Y018137D03*
X006417Y019555D03*
X006456Y020696D03*
X006653Y021759D03*
X006417Y022232D03*
X006850Y022704D03*
X006417Y023216D03*
X006771Y023689D03*
X007401Y023256D03*
X007874Y023177D03*
X007401Y024161D03*
X006456Y024752D03*
X008385Y024240D03*
X009370Y024161D03*
X009370Y023256D03*
X010669Y013649D03*
D18*
X009409Y014437D02*
X009409Y014633D01*
X009488Y014712D01*
X011968Y017193D01*
X012165Y017193D01*
X011929Y017507D02*
X009291Y014870D01*
X008189Y012586D02*
X008189Y010500D01*
X007126Y009437D01*
X007126Y009791D02*
X007913Y010578D01*
X007913Y010696D01*
X007913Y012389D01*
X007637Y012586D02*
X007637Y010736D01*
X007637Y010657D01*
X007126Y010145D01*
X007126Y009082D02*
X008425Y010381D01*
X008425Y010500D01*
X008425Y012389D01*
X006929Y012271D02*
X006353Y012847D01*
X006235Y012847D01*
X006156Y012847D01*
X006077Y012847D01*
X005989Y012847D01*
X005994Y012532D02*
X006235Y012532D01*
X006693Y012074D01*
X008661Y010854D02*
X008661Y010460D01*
X008661Y010263D01*
X007126Y008728D01*
X010703Y009963D02*
X011889Y009963D01*
X011693Y009712D02*
X010905Y009712D01*
X010905Y010224D02*
X011693Y010224D01*
X016102Y010106D02*
X017244Y010106D01*
X017559Y009791D01*
X017519Y009397D02*
X017086Y009830D01*
X017008Y009830D01*
X021850Y008413D02*
X022952Y008413D01*
X023452Y007913D01*
X017401Y021563D02*
X017401Y021681D01*
X017756Y022035D01*
X017362Y021602D02*
X017401Y021563D01*
X006771Y017468D02*
X006771Y016759D01*
X006456Y016759D02*
X006456Y017429D01*
X006141Y017389D02*
X006141Y016681D01*
X005994Y015052D02*
X005566Y015052D01*
X004567Y016051D01*
X004685Y018216D02*
X005315Y018216D01*
X005393Y018137D01*
X004685Y018216D02*
X004370Y018531D01*
X004370Y018767D01*
X003976Y019161D01*
X003740Y019161D01*
X003464Y019437D01*
X003464Y020189D01*
X003909Y020633D01*
D19*
X014448Y008216D02*
X014448Y007232D01*
X016968Y008846D02*
X017362Y008846D01*
X018307Y009791D01*
X019173Y009791D01*
D20*
X004771Y004250D02*
X004308Y004250D01*
X004348Y004211D02*
X003947Y004611D01*
X003632Y005082D01*
X003425Y005583D01*
X003425Y006617D01*
X003520Y006522D01*
X003984Y006522D01*
X004252Y006790D01*
X004520Y006522D01*
X004984Y006522D01*
X005312Y006850D01*
X005312Y007314D01*
X005044Y007582D01*
X005312Y007850D01*
X005312Y008314D01*
X005044Y008582D01*
X005312Y008850D01*
X005312Y009314D01*
X005044Y009582D01*
X005312Y009850D01*
X005312Y010314D01*
X005044Y010582D01*
X005312Y010850D01*
X005312Y011314D01*
X004984Y011642D01*
X004520Y011642D01*
X004252Y011374D01*
X003984Y011642D01*
X003520Y011642D01*
X003425Y011547D01*
X003425Y018326D01*
X003677Y018073D01*
X004141Y018073D01*
X004265Y018197D01*
X004422Y018041D01*
X004422Y018041D01*
X004509Y017953D01*
X004623Y017906D01*
X005087Y017906D01*
X005178Y017815D01*
X005318Y017757D01*
X005469Y017757D01*
X005609Y017815D01*
X005716Y017922D01*
X005773Y018062D01*
X005773Y018213D01*
X005716Y018353D01*
X005609Y018460D01*
X005469Y018517D01*
X005469Y018633D01*
X004909Y018633D01*
X004909Y018633D01*
X005469Y018633D01*
X005469Y018865D01*
X005201Y019133D01*
X005469Y019402D01*
X005469Y019865D01*
X005201Y020133D01*
X005469Y020402D01*
X005469Y020865D01*
X005141Y021193D01*
X004677Y021193D01*
X004409Y020925D01*
X004141Y021193D01*
X003677Y021193D01*
X003425Y020941D01*
X003425Y022380D01*
X003636Y022959D01*
X003956Y023514D01*
X004368Y024005D01*
X004859Y024417D01*
X005414Y024738D01*
X005993Y024948D01*
X011039Y024948D01*
X011039Y024818D01*
X011138Y024578D01*
X011322Y024394D01*
X011322Y024394D01*
X011563Y024295D01*
X015760Y024295D01*
X016000Y024394D01*
X016184Y024578D01*
X016283Y024818D01*
X016283Y024948D01*
X021329Y024948D01*
X021908Y024738D01*
X022463Y024417D01*
X022954Y024005D01*
X023366Y023514D01*
X023687Y022959D01*
X023897Y022380D01*
X023897Y016862D01*
X021641Y016862D01*
X021545Y016822D01*
X021472Y016749D01*
X021433Y016654D01*
X021433Y010527D01*
X021472Y010431D01*
X021545Y010358D01*
X021641Y010318D01*
X022066Y010318D01*
X021892Y010145D01*
X021892Y009681D01*
X022160Y009413D01*
X021892Y009145D01*
X021892Y008793D01*
X021774Y008793D01*
X021635Y008735D01*
X021528Y008628D01*
X021470Y008489D01*
X021470Y008337D01*
X021528Y008198D01*
X021635Y008091D01*
X021774Y008033D01*
X021892Y008033D01*
X021892Y007681D01*
X022160Y007413D01*
X021892Y007145D01*
X021892Y006681D01*
X022220Y006353D01*
X022684Y006353D01*
X022952Y006621D01*
X023220Y006353D01*
X023452Y006353D01*
X023452Y006913D01*
X023452Y006913D01*
X023452Y006353D01*
X023684Y006353D01*
X023897Y006566D01*
X023897Y005583D01*
X023690Y005082D01*
X023375Y004611D01*
X022975Y004211D01*
X022504Y003896D01*
X022003Y003689D01*
X005320Y003689D01*
X004819Y003896D01*
X004348Y004211D01*
X004477Y004358D02*
X004818Y004233D01*
X004940Y004233D01*
X005181Y004233D01*
X005523Y004358D01*
X005801Y004591D01*
X005801Y004591D01*
X005801Y004591D01*
X005982Y004906D01*
X006046Y005263D01*
X006046Y005263D01*
X005982Y005621D01*
X005801Y005936D01*
X005523Y006169D01*
X005523Y006169D01*
X005181Y006293D01*
X004818Y006293D01*
X004477Y006169D01*
X004477Y006169D01*
X004198Y005936D01*
X004198Y005936D01*
X004198Y005936D01*
X004017Y005621D01*
X003954Y005263D01*
X004017Y004906D01*
X004017Y004906D01*
X004198Y004591D01*
X004477Y004358D01*
X004225Y004569D02*
X003990Y004569D01*
X004198Y004591D02*
X004198Y004591D01*
X004027Y004887D02*
X003763Y004887D01*
X003581Y005206D02*
X003964Y005206D01*
X003954Y005263D02*
X003954Y005263D01*
X004000Y005524D02*
X003449Y005524D01*
X003425Y005843D02*
X004145Y005843D01*
X004017Y005621D02*
X004017Y005621D01*
X004467Y006161D02*
X003425Y006161D01*
X003425Y006480D02*
X022094Y006480D01*
X022141Y006293D02*
X021800Y006169D01*
X021800Y006169D01*
X021521Y005936D01*
X021340Y005621D01*
X021277Y005263D01*
X021340Y004906D01*
X021521Y004591D01*
X021800Y004358D01*
X022141Y004233D01*
X022263Y004233D01*
X022504Y004233D01*
X022845Y004358D01*
X023124Y004591D01*
X023305Y004906D01*
X023368Y005263D01*
X023368Y005263D01*
X023305Y005621D01*
X023124Y005936D01*
X022845Y006169D01*
X022504Y006293D01*
X022141Y006293D01*
X021790Y006161D02*
X005532Y006161D01*
X005801Y005936D02*
X005801Y005936D01*
X005854Y005843D02*
X006589Y005843D01*
X006615Y005853D02*
X006398Y005764D01*
X006232Y005598D01*
X006142Y005381D01*
X006142Y005146D01*
X006232Y004929D01*
X006398Y004763D01*
X006615Y004673D01*
X006693Y004673D01*
X006693Y004476D01*
X007283Y004476D01*
X007283Y004476D01*
X006693Y004476D01*
X006693Y004232D01*
X007039Y003886D01*
X007283Y003886D01*
X007283Y004476D01*
X007283Y004476D01*
X007283Y003886D01*
X007528Y003886D01*
X007855Y004214D01*
X007885Y004142D01*
X008051Y003976D01*
X008268Y003886D01*
X008503Y003886D01*
X008720Y003976D01*
X008886Y004142D01*
X008975Y004359D01*
X008975Y004593D01*
X008886Y004810D01*
X008720Y004976D01*
X008503Y005066D01*
X008391Y005066D01*
X008424Y005146D01*
X008424Y005381D01*
X008334Y005598D01*
X008169Y005764D01*
X007952Y005853D01*
X007717Y005853D01*
X007500Y005764D01*
X007334Y005598D01*
X007283Y005474D01*
X007232Y005598D01*
X007066Y005764D01*
X006849Y005853D01*
X006615Y005853D01*
X006875Y005843D02*
X007692Y005843D01*
X007977Y005843D02*
X011704Y005843D01*
X011788Y005927D02*
X011611Y005750D01*
X011515Y005518D01*
X011515Y005267D01*
X011611Y005036D01*
X011788Y004859D01*
X012019Y004763D01*
X012270Y004763D01*
X012502Y004859D01*
X012531Y004888D01*
X012576Y004777D01*
X012754Y004600D01*
X012985Y004504D01*
X013236Y004504D01*
X013467Y004600D01*
X013645Y004777D01*
X013661Y004817D01*
X013678Y004777D01*
X013855Y004600D01*
X014086Y004504D01*
X014337Y004504D01*
X014568Y004600D01*
X014746Y004777D01*
X014792Y004888D01*
X014821Y004859D01*
X015052Y004763D01*
X015303Y004763D01*
X015534Y004859D01*
X015712Y005036D01*
X015808Y005267D01*
X015808Y005518D01*
X015712Y005750D01*
X015534Y005927D01*
X015303Y006023D01*
X015052Y006023D01*
X014821Y005927D01*
X014643Y005750D01*
X014598Y005639D01*
X014568Y005668D01*
X014337Y005764D01*
X014086Y005764D01*
X013855Y005668D01*
X013678Y005491D01*
X013661Y005451D01*
X013645Y005491D01*
X013467Y005668D01*
X013236Y005764D01*
X012985Y005764D01*
X012754Y005668D01*
X012725Y005639D01*
X012679Y005750D01*
X012502Y005927D01*
X012270Y006023D01*
X012019Y006023D01*
X011788Y005927D01*
X011517Y005524D02*
X008365Y005524D01*
X008424Y005206D02*
X011540Y005206D01*
X011759Y004887D02*
X008808Y004887D01*
X008975Y004569D02*
X012829Y004569D01*
X012531Y004887D02*
X012530Y004887D01*
X013393Y004569D02*
X013930Y004569D01*
X014494Y004569D02*
X018388Y004569D01*
X018358Y004599D02*
X018493Y004464D01*
X018668Y004392D01*
X018859Y004392D01*
X019034Y004464D01*
X019169Y004599D01*
X019242Y004775D01*
X019242Y004965D01*
X019169Y005141D01*
X019034Y005275D01*
X018859Y005348D01*
X018668Y005348D01*
X018493Y005275D01*
X018358Y005141D01*
X018285Y004965D01*
X018285Y004775D01*
X018358Y004599D01*
X018285Y004887D02*
X015563Y004887D01*
X015782Y005206D02*
X018424Y005206D01*
X019103Y005206D02*
X019424Y005206D01*
X019399Y005181D02*
X019355Y005120D01*
X019320Y005053D01*
X019297Y004982D01*
X019285Y004907D01*
X019285Y004870D01*
X019763Y004870D01*
X019763Y004870D01*
X019763Y005348D01*
X019726Y005348D01*
X019651Y005336D01*
X019580Y005313D01*
X019513Y005279D01*
X019452Y005234D01*
X019399Y005181D01*
X019285Y004887D02*
X019242Y004887D01*
X019285Y004870D02*
X019285Y004832D01*
X019297Y004758D01*
X019320Y004686D01*
X019355Y004619D01*
X019399Y004558D01*
X019452Y004505D01*
X019513Y004461D01*
X019580Y004427D01*
X019651Y004403D01*
X019726Y004392D01*
X019763Y004392D01*
X019763Y004870D01*
X019763Y004870D01*
X019285Y004870D01*
X019391Y004569D02*
X019139Y004569D01*
X019763Y004569D02*
X019763Y004569D01*
X019763Y004392D02*
X019801Y004392D01*
X019875Y004403D01*
X019947Y004427D01*
X020014Y004461D01*
X020075Y004505D01*
X020128Y004558D01*
X020172Y004619D01*
X020207Y004686D01*
X020230Y004758D01*
X020242Y004832D01*
X020242Y004870D01*
X020242Y004907D01*
X020230Y004982D01*
X020207Y005053D01*
X020172Y005120D01*
X020128Y005181D01*
X020075Y005234D01*
X020014Y005279D01*
X019947Y005313D01*
X019875Y005336D01*
X019801Y005348D01*
X019763Y005348D01*
X019763Y004870D01*
X019763Y004870D01*
X020242Y004870D01*
X019763Y004870D01*
X019763Y004870D01*
X019763Y004392D01*
X020136Y004569D02*
X020388Y004569D01*
X020358Y004599D02*
X020493Y004464D01*
X020668Y004392D01*
X020859Y004392D01*
X021034Y004464D01*
X021169Y004599D01*
X021242Y004775D01*
X021242Y004965D01*
X021169Y005141D01*
X021034Y005275D01*
X020859Y005348D01*
X020668Y005348D01*
X020493Y005275D01*
X020358Y005141D01*
X020285Y004965D01*
X020285Y004775D01*
X020358Y004599D01*
X020285Y004887D02*
X020242Y004887D01*
X020103Y005206D02*
X020424Y005206D01*
X021103Y005206D02*
X021287Y005206D01*
X021277Y005263D02*
X021277Y005263D01*
X021323Y005524D02*
X015805Y005524D01*
X015618Y005843D02*
X021468Y005843D01*
X021521Y005936D02*
X021521Y005936D01*
X021521Y005936D01*
X021340Y005621D02*
X021340Y005621D01*
X021340Y004906D02*
X021340Y004906D01*
X021350Y004887D02*
X021242Y004887D01*
X021139Y004569D02*
X021548Y004569D01*
X021521Y004591D02*
X021521Y004591D01*
X021800Y004358D02*
X021800Y004358D01*
X022094Y004250D02*
X008931Y004250D01*
X008614Y003932D02*
X022557Y003932D01*
X022551Y004250D02*
X023014Y004250D01*
X022845Y004358D02*
X022845Y004358D01*
X023097Y004569D02*
X023333Y004569D01*
X023124Y004591D02*
X023124Y004591D01*
X023124Y004591D01*
X023295Y004887D02*
X023560Y004887D01*
X023305Y004906D02*
X023305Y004906D01*
X023358Y005206D02*
X023741Y005206D01*
X023873Y005524D02*
X023322Y005524D01*
X023305Y005621D02*
X023305Y005621D01*
X023177Y005843D02*
X023897Y005843D01*
X023897Y006161D02*
X022855Y006161D01*
X022845Y006169D02*
X022845Y006169D01*
X022811Y006480D02*
X023094Y006480D01*
X023452Y006480D02*
X023452Y006480D01*
X023452Y006798D02*
X023452Y006798D01*
X023811Y006480D02*
X023897Y006480D01*
X023124Y005936D02*
X023124Y005936D01*
X021892Y006798D02*
X005260Y006798D01*
X005312Y007117D02*
X014085Y007117D01*
X014068Y007156D02*
X014126Y007017D01*
X014233Y006910D01*
X014373Y006852D01*
X014524Y006852D01*
X014664Y006910D01*
X014771Y007017D01*
X014828Y007156D01*
X014828Y007307D01*
X014788Y007404D01*
X014788Y008044D01*
X014828Y008141D01*
X014828Y008292D01*
X014771Y008431D01*
X014664Y008538D01*
X014524Y008596D01*
X014373Y008596D01*
X014233Y008538D01*
X014126Y008431D01*
X014068Y008292D01*
X014068Y008141D01*
X014108Y008044D01*
X014108Y007404D01*
X014068Y007307D01*
X014068Y007156D01*
X014108Y007435D02*
X005190Y007435D01*
X005215Y007754D02*
X014108Y007754D01*
X014097Y008072D02*
X005312Y008072D01*
X005235Y008391D02*
X006946Y008391D01*
X006910Y008406D02*
X007050Y008348D01*
X007201Y008348D01*
X007341Y008406D01*
X007448Y008513D01*
X007506Y008652D01*
X007506Y008670D01*
X008837Y010001D01*
X008924Y010088D01*
X008971Y010202D01*
X008971Y010627D01*
X008983Y010639D01*
X009041Y010778D01*
X009041Y010930D01*
X008983Y011069D01*
X008876Y011176D01*
X008737Y011234D01*
X008735Y011234D01*
X008735Y012162D01*
X008747Y012174D01*
X008805Y012314D01*
X008805Y012465D01*
X008747Y012605D01*
X008640Y012712D01*
X008529Y012758D01*
X008511Y012801D01*
X008404Y012908D01*
X008264Y012966D01*
X008113Y012966D01*
X007973Y012908D01*
X007913Y012848D01*
X007853Y012908D01*
X007713Y012966D01*
X007562Y012966D01*
X007422Y012908D01*
X007315Y012801D01*
X007257Y012662D01*
X007257Y012511D01*
X007315Y012371D01*
X007327Y012359D01*
X007327Y010785D01*
X007067Y010525D01*
X007050Y010525D01*
X006910Y010467D01*
X006804Y010361D01*
X006746Y010221D01*
X006746Y010070D01*
X006788Y009968D01*
X006746Y009867D01*
X006746Y009715D01*
X006788Y009614D01*
X006746Y009512D01*
X006746Y009361D01*
X006788Y009259D01*
X006746Y009158D01*
X006746Y009007D01*
X006788Y008905D01*
X006746Y008804D01*
X006746Y008652D01*
X006804Y008513D01*
X006910Y008406D01*
X006746Y008709D02*
X005171Y008709D01*
X005312Y009028D02*
X006746Y009028D01*
X006752Y009346D02*
X005279Y009346D01*
X005126Y009665D02*
X006767Y009665D01*
X006781Y009983D02*
X005312Y009983D01*
X005312Y010302D02*
X006779Y010302D01*
X007162Y010620D02*
X005082Y010620D01*
X005312Y010939D02*
X007327Y010939D01*
X007327Y011257D02*
X005312Y011257D01*
X005050Y011576D02*
X007327Y011576D01*
X007327Y011894D02*
X007029Y011894D01*
X007033Y011903D02*
X007015Y011859D01*
X006908Y011752D01*
X006768Y011694D01*
X006617Y011694D01*
X006477Y011752D01*
X006370Y011859D01*
X006313Y011999D01*
X006313Y012016D01*
X006145Y012183D01*
X006069Y012152D01*
X005918Y012152D01*
X005779Y012210D01*
X005672Y012317D01*
X005614Y012456D01*
X005614Y012608D01*
X005645Y012684D01*
X005609Y012771D01*
X005609Y012923D01*
X005667Y013062D01*
X005774Y013169D01*
X005913Y013227D01*
X006064Y013227D01*
X006204Y013169D01*
X006216Y013157D01*
X006415Y013157D01*
X006529Y013110D01*
X006987Y012651D01*
X007004Y012651D01*
X007144Y012593D01*
X007251Y012487D01*
X007309Y012347D01*
X007309Y012196D01*
X007251Y012056D01*
X007144Y011949D01*
X007033Y011903D01*
X007309Y012213D02*
X007327Y012213D01*
X007257Y012531D02*
X007206Y012531D01*
X007364Y012850D02*
X006789Y012850D01*
X006205Y013168D02*
X021433Y013168D01*
X021433Y012850D02*
X008462Y012850D01*
X008777Y012531D02*
X021433Y012531D01*
X021433Y012213D02*
X008763Y012213D01*
X008735Y011894D02*
X021433Y011894D01*
X021433Y011576D02*
X008735Y011576D01*
X008735Y011257D02*
X021433Y011257D01*
X021433Y010939D02*
X009037Y010939D01*
X008971Y010620D02*
X021433Y010620D01*
X021892Y009983D02*
X019567Y009983D01*
X019544Y010039D02*
X019611Y009878D01*
X019611Y009704D01*
X019544Y009543D01*
X019421Y009420D01*
X019260Y009353D01*
X019086Y009353D01*
X018925Y009420D01*
X018893Y009451D01*
X018448Y009451D01*
X017554Y008558D01*
X017430Y008506D01*
X017248Y008506D01*
X017216Y008475D01*
X017055Y008408D01*
X016881Y008408D01*
X016720Y008475D01*
X016597Y008598D01*
X016530Y008759D01*
X016530Y008933D01*
X016597Y009094D01*
X016720Y009217D01*
X016881Y009284D01*
X017055Y009284D01*
X017176Y009234D01*
X017139Y009322D01*
X017139Y009339D01*
X017028Y009450D01*
X016932Y009450D01*
X016792Y009508D01*
X016685Y009615D01*
X016628Y009755D01*
X016628Y009796D01*
X016329Y009796D01*
X016317Y009784D01*
X016178Y009726D01*
X016026Y009726D01*
X015887Y009784D01*
X015780Y009891D01*
X015722Y010030D01*
X015722Y010181D01*
X015780Y010321D01*
X015887Y010428D01*
X016026Y010486D01*
X016178Y010486D01*
X016317Y010428D01*
X016329Y010416D01*
X017305Y010416D01*
X017419Y010369D01*
X017617Y010171D01*
X017634Y010171D01*
X017774Y010113D01*
X017881Y010006D01*
X017928Y009893D01*
X018019Y009984D01*
X018114Y010079D01*
X018239Y010131D01*
X018893Y010131D01*
X018925Y010162D01*
X019086Y010229D01*
X019260Y010229D01*
X019421Y010162D01*
X019544Y010039D01*
X019595Y009665D02*
X021909Y009665D01*
X022094Y009346D02*
X018343Y009346D01*
X018025Y009028D02*
X021892Y009028D01*
X021609Y008709D02*
X017706Y008709D01*
X017132Y009346D02*
X011802Y009346D01*
X011768Y009332D02*
X011908Y009390D01*
X012015Y009497D01*
X012068Y009626D01*
X012105Y009641D01*
X012212Y009748D01*
X012269Y009888D01*
X012269Y010039D01*
X012212Y010178D01*
X012105Y010285D01*
X012073Y010299D01*
X012073Y010300D01*
X012015Y010439D01*
X011908Y010546D01*
X011768Y010604D01*
X011617Y010604D01*
X011477Y010546D01*
X011465Y010534D01*
X011133Y010534D01*
X011120Y010546D01*
X010981Y010604D01*
X010830Y010604D01*
X010690Y010546D01*
X010583Y010439D01*
X010526Y010301D01*
X010488Y010285D01*
X010381Y010178D01*
X010323Y010039D01*
X010323Y009888D01*
X010381Y009748D01*
X010488Y009641D01*
X010531Y009623D01*
X010583Y009497D01*
X010690Y009390D01*
X010830Y009332D01*
X010981Y009332D01*
X011120Y009390D01*
X011133Y009402D01*
X011465Y009402D01*
X011477Y009390D01*
X011617Y009332D01*
X011768Y009332D01*
X011583Y009346D02*
X011015Y009346D01*
X010795Y009346D02*
X008182Y009346D01*
X007864Y009028D02*
X016569Y009028D01*
X016551Y008709D02*
X007545Y008709D01*
X007305Y008391D02*
X014110Y008391D01*
X014787Y008391D02*
X021470Y008391D01*
X021679Y008072D02*
X014800Y008072D01*
X014788Y007754D02*
X021892Y007754D01*
X022138Y007435D02*
X014788Y007435D01*
X014812Y007117D02*
X021892Y007117D01*
X019763Y005206D02*
X019763Y005206D01*
X019763Y004887D02*
X019763Y004887D01*
X016665Y009665D02*
X012129Y009665D01*
X012269Y009983D02*
X015741Y009983D01*
X015772Y010302D02*
X012072Y010302D01*
X010526Y010302D02*
X008971Y010302D01*
X008819Y009983D02*
X010323Y009983D01*
X010464Y009665D02*
X008501Y009665D01*
X006356Y011894D02*
X003425Y011894D01*
X003425Y011576D02*
X003453Y011576D01*
X004050Y011576D02*
X004453Y011576D01*
X003425Y012213D02*
X005776Y012213D01*
X005614Y012531D02*
X003425Y012531D01*
X003425Y012850D02*
X005609Y012850D01*
X005773Y013168D02*
X003425Y013168D01*
X003425Y013487D02*
X021433Y013487D01*
X021433Y013805D02*
X003425Y013805D01*
X003425Y014124D02*
X009184Y014124D01*
X009194Y014114D02*
X009334Y014057D01*
X009485Y014057D01*
X009624Y014114D01*
X009731Y014221D01*
X009789Y014361D01*
X009789Y014512D01*
X009771Y014557D01*
X012045Y016831D01*
X012089Y016813D01*
X012241Y016813D01*
X012380Y016870D01*
X012487Y016977D01*
X012545Y017117D01*
X012545Y017268D01*
X012487Y017408D01*
X012380Y017515D01*
X012309Y017544D01*
X012309Y017583D01*
X012251Y017723D01*
X012144Y017830D01*
X012004Y017887D01*
X011853Y017887D01*
X011714Y017830D01*
X011607Y017723D01*
X011549Y017583D01*
X011549Y017566D01*
X009233Y015250D01*
X009215Y015250D01*
X009076Y015192D01*
X008969Y015085D01*
X008911Y014945D01*
X008911Y014794D01*
X008969Y014654D01*
X009053Y014570D01*
X009029Y014512D01*
X009029Y014361D01*
X009087Y014221D01*
X009194Y014114D01*
X009029Y014442D02*
X003425Y014442D01*
X003425Y014761D02*
X005458Y014761D01*
X005504Y014742D02*
X005766Y014742D01*
X005779Y014730D01*
X005918Y014672D01*
X006069Y014672D01*
X006209Y014730D01*
X006316Y014837D01*
X006374Y014976D01*
X006374Y015127D01*
X006316Y015267D01*
X006209Y015374D01*
X006069Y015432D01*
X005918Y015432D01*
X005779Y015374D01*
X005766Y015362D01*
X005694Y015362D01*
X004947Y016109D01*
X004947Y016126D01*
X004889Y016266D01*
X004782Y016373D01*
X004642Y016431D01*
X004491Y016431D01*
X004351Y016373D01*
X004244Y016266D01*
X004187Y016126D01*
X004187Y015975D01*
X004244Y015836D01*
X004351Y015729D01*
X004491Y015671D01*
X004508Y015671D01*
X005390Y014789D01*
X005504Y014742D01*
X005100Y015079D02*
X003425Y015079D01*
X003425Y015398D02*
X004781Y015398D01*
X004381Y015716D02*
X003425Y015716D01*
X003425Y016035D02*
X004187Y016035D01*
X004332Y016353D02*
X003425Y016353D01*
X003425Y016672D02*
X005761Y016672D01*
X005761Y016605D02*
X005819Y016465D01*
X005926Y016359D01*
X006066Y016301D01*
X006217Y016301D01*
X006357Y016359D01*
X006378Y016380D01*
X006381Y016379D01*
X006532Y016379D01*
X006614Y016413D01*
X006696Y016379D01*
X006847Y016379D01*
X006987Y016437D01*
X007093Y016544D01*
X007151Y016684D01*
X007151Y016835D01*
X007093Y016975D01*
X007081Y016987D01*
X007081Y017241D01*
X007093Y017253D01*
X007151Y017393D01*
X007151Y017544D01*
X007093Y017683D01*
X006987Y017790D01*
X006847Y017848D01*
X006696Y017848D01*
X006566Y017795D01*
X006532Y017809D01*
X006381Y017809D01*
X006251Y017755D01*
X006217Y017769D01*
X006066Y017769D01*
X005926Y017712D01*
X005819Y017605D01*
X005761Y017465D01*
X005761Y017314D01*
X005819Y017174D01*
X005831Y017162D01*
X005831Y016908D01*
X005819Y016896D01*
X005761Y016756D01*
X005761Y016605D01*
X005939Y016353D02*
X004801Y016353D01*
X005021Y016035D02*
X010018Y016035D01*
X010336Y016353D02*
X006344Y016353D01*
X005831Y016990D02*
X003425Y016990D01*
X003425Y017309D02*
X005763Y017309D01*
X005842Y017627D02*
X003425Y017627D01*
X003425Y017946D02*
X004527Y017946D01*
X005469Y018583D02*
X023897Y018583D01*
X023897Y018901D02*
X005433Y018901D01*
X005288Y019220D02*
X023897Y019220D01*
X023897Y019538D02*
X005469Y019538D01*
X005469Y019857D02*
X023897Y019857D01*
X023897Y020175D02*
X005243Y020175D01*
X005469Y020494D02*
X023897Y020494D01*
X023897Y020812D02*
X005469Y020812D01*
X005204Y021131D02*
X019562Y021131D01*
X019565Y021128D02*
X019719Y021064D01*
X019886Y021064D01*
X020041Y021128D01*
X020119Y021207D01*
X020238Y021325D01*
X020302Y021479D01*
X020302Y022670D01*
X020238Y022824D01*
X020119Y022942D01*
X019965Y023006D01*
X019798Y023006D01*
X019644Y022942D01*
X019526Y022824D01*
X019462Y022670D01*
X019462Y021737D01*
X019447Y021722D01*
X019383Y021567D01*
X019383Y021400D01*
X019447Y021246D01*
X019565Y021128D01*
X019383Y021449D02*
X017766Y021449D01*
X017781Y021487D02*
X017781Y021622D01*
X017814Y021655D01*
X017831Y021655D01*
X017971Y021713D01*
X018078Y021820D01*
X018136Y021959D01*
X018136Y022111D01*
X018078Y022250D01*
X017971Y022357D01*
X017831Y022415D01*
X017680Y022415D01*
X017540Y022357D01*
X017433Y022250D01*
X017376Y022111D01*
X017376Y022093D01*
X017138Y021856D01*
X017125Y021824D01*
X017079Y021778D01*
X017021Y021638D01*
X017021Y021487D01*
X017079Y021347D01*
X017186Y021240D01*
X017326Y021183D01*
X017477Y021183D01*
X017616Y021240D01*
X017723Y021347D01*
X017781Y021487D01*
X018026Y021768D02*
X019462Y021768D01*
X019462Y022086D02*
X018136Y022086D01*
X017856Y022405D02*
X019462Y022405D01*
X019484Y022723D02*
X006021Y022723D01*
X006046Y022586D02*
X005982Y022944D01*
X005801Y023259D01*
X005523Y023492D01*
X005523Y023492D01*
X005181Y023616D01*
X004818Y023616D01*
X004477Y023492D01*
X004477Y023492D01*
X004198Y023259D01*
X004198Y023259D01*
X004198Y023259D01*
X004017Y022944D01*
X003954Y022586D01*
X004017Y022229D01*
X004017Y022229D01*
X004198Y021914D01*
X004477Y021680D01*
X004818Y021556D01*
X005059Y021556D01*
X005181Y021556D01*
X005181Y021556D01*
X005523Y021680D01*
X005801Y021914D01*
X005982Y022229D01*
X006046Y022586D01*
X006046Y022586D01*
X006014Y022405D02*
X017656Y022405D01*
X017369Y022086D02*
X005900Y022086D01*
X005982Y022229D02*
X005982Y022229D01*
X005801Y021914D02*
X005801Y021914D01*
X005801Y021914D01*
X005627Y021768D02*
X017075Y021768D01*
X017037Y021449D02*
X003425Y021449D01*
X003425Y021131D02*
X003615Y021131D01*
X004204Y021131D02*
X004615Y021131D01*
X004477Y021680D02*
X004477Y021680D01*
X004373Y021768D02*
X003425Y021768D01*
X003425Y022086D02*
X004099Y022086D01*
X004198Y021914D02*
X004198Y021914D01*
X003986Y022405D02*
X003434Y022405D01*
X003550Y022723D02*
X003978Y022723D01*
X003954Y022586D02*
X003954Y022586D01*
X004017Y022944D02*
X004017Y022944D01*
X004073Y023042D02*
X003683Y023042D01*
X003867Y023360D02*
X004320Y023360D01*
X004094Y023679D02*
X023228Y023679D01*
X023002Y023360D02*
X023455Y023360D01*
X023639Y023042D02*
X023249Y023042D01*
X023305Y022944D02*
X023124Y023259D01*
X022845Y023492D01*
X022504Y023616D01*
X022141Y023616D01*
X021800Y023492D01*
X021800Y023492D01*
X021521Y023259D01*
X021521Y023259D01*
X021521Y023259D01*
X021340Y022944D01*
X021277Y022586D01*
X021340Y022229D01*
X021340Y022229D01*
X021521Y021914D01*
X021800Y021680D01*
X022141Y021556D01*
X022382Y021556D01*
X022504Y021556D01*
X022504Y021556D01*
X022845Y021680D01*
X023124Y021914D01*
X023305Y022229D01*
X023368Y022586D01*
X023305Y022944D01*
X023305Y022944D01*
X023344Y022723D02*
X023772Y022723D01*
X023888Y022405D02*
X023336Y022405D01*
X023305Y022229D02*
X023305Y022229D01*
X023223Y022086D02*
X023897Y022086D01*
X023897Y021768D02*
X022950Y021768D01*
X022845Y021680D02*
X022845Y021680D01*
X023124Y021914D02*
X023124Y021914D01*
X023124Y021914D01*
X023368Y022586D02*
X023368Y022586D01*
X023124Y023259D02*
X023124Y023259D01*
X022845Y023492D02*
X022845Y023492D01*
X022961Y023997D02*
X004362Y023997D01*
X004738Y024316D02*
X011511Y024316D01*
X011138Y024578D02*
X011138Y024578D01*
X011115Y024634D02*
X005235Y024634D01*
X005679Y023360D02*
X021643Y023360D01*
X021396Y023042D02*
X005926Y023042D01*
X005982Y022944D02*
X005982Y022944D01*
X005801Y023259D02*
X005801Y023259D01*
X005523Y021680D02*
X005523Y021680D01*
X005752Y018264D02*
X023897Y018264D01*
X023897Y017946D02*
X005725Y017946D01*
X007117Y017627D02*
X011567Y017627D01*
X011292Y017309D02*
X007117Y017309D01*
X007081Y016990D02*
X010973Y016990D01*
X010655Y016672D02*
X007146Y016672D01*
X006151Y015398D02*
X009381Y015398D01*
X009699Y015716D02*
X005339Y015716D01*
X005658Y015398D02*
X005836Y015398D01*
X006374Y015079D02*
X008967Y015079D01*
X008925Y014761D02*
X006240Y014761D01*
X007911Y012850D02*
X007915Y012850D01*
X009634Y014124D02*
X021433Y014124D01*
X021433Y014442D02*
X009789Y014442D01*
X009975Y014761D02*
X021433Y014761D01*
X021433Y015079D02*
X010293Y015079D01*
X010612Y015398D02*
X021433Y015398D01*
X021433Y015716D02*
X010930Y015716D01*
X011249Y016035D02*
X021433Y016035D01*
X021433Y016353D02*
X011567Y016353D01*
X011886Y016672D02*
X021440Y016672D01*
X023897Y016990D02*
X012493Y016990D01*
X012528Y017309D02*
X023897Y017309D01*
X023897Y017627D02*
X012290Y017627D01*
X015811Y024316D02*
X022584Y024316D01*
X022087Y024634D02*
X016207Y024634D01*
X016184Y024578D02*
X016184Y024578D01*
X016000Y024394D02*
X016000Y024394D01*
X019803Y021484D02*
X019882Y021563D01*
X019882Y022586D01*
X020279Y022723D02*
X021301Y022723D01*
X021277Y022586D02*
X021277Y022586D01*
X021309Y022405D02*
X020302Y022405D01*
X020302Y022086D02*
X021422Y022086D01*
X021521Y021914D02*
X021521Y021914D01*
X021695Y021768D02*
X020302Y021768D01*
X020289Y021449D02*
X023897Y021449D01*
X023897Y021131D02*
X020044Y021131D01*
X021340Y022944D02*
X021340Y022944D01*
X021800Y021680D02*
X021800Y021680D01*
X022049Y010302D02*
X017486Y010302D01*
X017890Y009983D02*
X018018Y009983D01*
X014737Y005843D02*
X012586Y005843D01*
X013611Y005524D02*
X013711Y005524D01*
X014791Y004887D02*
X014792Y004887D01*
X008157Y003932D02*
X007573Y003932D01*
X007283Y003932D02*
X007283Y003932D01*
X006993Y003932D02*
X004765Y003932D01*
X005228Y004250D02*
X006693Y004250D01*
X006693Y004569D02*
X005774Y004569D01*
X005523Y004358D02*
X005523Y004358D01*
X005972Y004887D02*
X006274Y004887D01*
X005982Y004906D02*
X005982Y004906D01*
X006035Y005206D02*
X006142Y005206D01*
X006201Y005524D02*
X006000Y005524D01*
X005982Y005621D02*
X005982Y005621D01*
X007262Y005524D02*
X007304Y005524D01*
X007283Y004250D02*
X007283Y004250D01*
X003486Y018264D02*
X003425Y018264D01*
D21*
X003582Y016563D03*
X003587Y015883D03*
X004448Y013438D03*
X004094Y012350D03*
X003607Y011868D03*
X008385Y008334D03*
X008740Y007901D03*
X009094Y007468D03*
X009448Y006917D03*
X009094Y008334D03*
X013228Y007074D03*
X016968Y008846D03*
X019173Y009791D03*
M02*
