G75*
G70*
%OFA0B0*%
%FSLAX24Y24*%
%IPPOS*%
%LPD*%
%AMOC8*
5,1,8,0,0,1.08239X$1,22.5*
%
%ADD10C,0.0000*%
%ADD11R,0.0540X0.0260*%
%ADD12R,0.0260X0.0540*%
%ADD13R,0.0316X0.0493*%
%ADD14C,0.0480*%
%ADD15R,0.0493X0.0316*%
%ADD16OC8,0.0560*%
%ADD17C,0.0560*%
%ADD18R,0.0591X0.0434*%
%ADD19C,0.1340*%
%ADD20C,0.0375*%
%ADD21OC8,0.0640*%
%ADD22R,0.0237X0.0591*%
%ADD23R,0.0237X0.0631*%
%ADD24R,0.0591X0.1890*%
%ADD25R,0.0473X0.1536*%
%ADD26R,0.0670X0.0500*%
%ADD27R,0.0720X0.0060*%
%ADD28C,0.0555*%
%ADD29R,0.0177X0.0590*%
%ADD30R,0.0512X0.0394*%
%ADD31C,0.0700*%
%ADD32OC8,0.0700*%
%ADD33C,0.0925*%
D10*
X000350Y000677D02*
X000350Y020362D01*
X020035Y020362D01*
X020035Y000677D01*
X000350Y000677D01*
X000881Y001858D02*
X000883Y001908D01*
X000889Y001958D01*
X000899Y002008D01*
X000912Y002056D01*
X000929Y002104D01*
X000950Y002150D01*
X000974Y002194D01*
X001002Y002236D01*
X001033Y002276D01*
X001067Y002313D01*
X001104Y002348D01*
X001143Y002379D01*
X001184Y002408D01*
X001228Y002433D01*
X001274Y002455D01*
X001321Y002473D01*
X001369Y002487D01*
X001418Y002498D01*
X001468Y002505D01*
X001518Y002508D01*
X001569Y002507D01*
X001619Y002502D01*
X001669Y002493D01*
X001717Y002481D01*
X001765Y002464D01*
X001811Y002444D01*
X001856Y002421D01*
X001899Y002394D01*
X001939Y002364D01*
X001977Y002331D01*
X002012Y002295D01*
X002045Y002256D01*
X002074Y002215D01*
X002100Y002172D01*
X002123Y002127D01*
X002142Y002080D01*
X002157Y002032D01*
X002169Y001983D01*
X002177Y001933D01*
X002181Y001883D01*
X002181Y001833D01*
X002177Y001783D01*
X002169Y001733D01*
X002157Y001684D01*
X002142Y001636D01*
X002123Y001589D01*
X002100Y001544D01*
X002074Y001501D01*
X002045Y001460D01*
X002012Y001421D01*
X001977Y001385D01*
X001939Y001352D01*
X001899Y001322D01*
X001856Y001295D01*
X001811Y001272D01*
X001765Y001252D01*
X001717Y001235D01*
X001669Y001223D01*
X001619Y001214D01*
X001569Y001209D01*
X001518Y001208D01*
X001468Y001211D01*
X001418Y001218D01*
X001369Y001229D01*
X001321Y001243D01*
X001274Y001261D01*
X001228Y001283D01*
X001184Y001308D01*
X001143Y001337D01*
X001104Y001368D01*
X001067Y001403D01*
X001033Y001440D01*
X001002Y001480D01*
X000974Y001522D01*
X000950Y001566D01*
X000929Y001612D01*
X000912Y001660D01*
X000899Y001708D01*
X000889Y001758D01*
X000883Y001808D01*
X000881Y001858D01*
X000881Y019181D02*
X000883Y019231D01*
X000889Y019281D01*
X000899Y019331D01*
X000912Y019379D01*
X000929Y019427D01*
X000950Y019473D01*
X000974Y019517D01*
X001002Y019559D01*
X001033Y019599D01*
X001067Y019636D01*
X001104Y019671D01*
X001143Y019702D01*
X001184Y019731D01*
X001228Y019756D01*
X001274Y019778D01*
X001321Y019796D01*
X001369Y019810D01*
X001418Y019821D01*
X001468Y019828D01*
X001518Y019831D01*
X001569Y019830D01*
X001619Y019825D01*
X001669Y019816D01*
X001717Y019804D01*
X001765Y019787D01*
X001811Y019767D01*
X001856Y019744D01*
X001899Y019717D01*
X001939Y019687D01*
X001977Y019654D01*
X002012Y019618D01*
X002045Y019579D01*
X002074Y019538D01*
X002100Y019495D01*
X002123Y019450D01*
X002142Y019403D01*
X002157Y019355D01*
X002169Y019306D01*
X002177Y019256D01*
X002181Y019206D01*
X002181Y019156D01*
X002177Y019106D01*
X002169Y019056D01*
X002157Y019007D01*
X002142Y018959D01*
X002123Y018912D01*
X002100Y018867D01*
X002074Y018824D01*
X002045Y018783D01*
X002012Y018744D01*
X001977Y018708D01*
X001939Y018675D01*
X001899Y018645D01*
X001856Y018618D01*
X001811Y018595D01*
X001765Y018575D01*
X001717Y018558D01*
X001669Y018546D01*
X001619Y018537D01*
X001569Y018532D01*
X001518Y018531D01*
X001468Y018534D01*
X001418Y018541D01*
X001369Y018552D01*
X001321Y018566D01*
X001274Y018584D01*
X001228Y018606D01*
X001184Y018631D01*
X001143Y018660D01*
X001104Y018691D01*
X001067Y018726D01*
X001033Y018763D01*
X001002Y018803D01*
X000974Y018845D01*
X000950Y018889D01*
X000929Y018935D01*
X000912Y018983D01*
X000899Y019031D01*
X000889Y019081D01*
X000883Y019131D01*
X000881Y019181D01*
X018204Y019181D02*
X018206Y019231D01*
X018212Y019281D01*
X018222Y019331D01*
X018235Y019379D01*
X018252Y019427D01*
X018273Y019473D01*
X018297Y019517D01*
X018325Y019559D01*
X018356Y019599D01*
X018390Y019636D01*
X018427Y019671D01*
X018466Y019702D01*
X018507Y019731D01*
X018551Y019756D01*
X018597Y019778D01*
X018644Y019796D01*
X018692Y019810D01*
X018741Y019821D01*
X018791Y019828D01*
X018841Y019831D01*
X018892Y019830D01*
X018942Y019825D01*
X018992Y019816D01*
X019040Y019804D01*
X019088Y019787D01*
X019134Y019767D01*
X019179Y019744D01*
X019222Y019717D01*
X019262Y019687D01*
X019300Y019654D01*
X019335Y019618D01*
X019368Y019579D01*
X019397Y019538D01*
X019423Y019495D01*
X019446Y019450D01*
X019465Y019403D01*
X019480Y019355D01*
X019492Y019306D01*
X019500Y019256D01*
X019504Y019206D01*
X019504Y019156D01*
X019500Y019106D01*
X019492Y019056D01*
X019480Y019007D01*
X019465Y018959D01*
X019446Y018912D01*
X019423Y018867D01*
X019397Y018824D01*
X019368Y018783D01*
X019335Y018744D01*
X019300Y018708D01*
X019262Y018675D01*
X019222Y018645D01*
X019179Y018618D01*
X019134Y018595D01*
X019088Y018575D01*
X019040Y018558D01*
X018992Y018546D01*
X018942Y018537D01*
X018892Y018532D01*
X018841Y018531D01*
X018791Y018534D01*
X018741Y018541D01*
X018692Y018552D01*
X018644Y018566D01*
X018597Y018584D01*
X018551Y018606D01*
X018507Y018631D01*
X018466Y018660D01*
X018427Y018691D01*
X018390Y018726D01*
X018356Y018763D01*
X018325Y018803D01*
X018297Y018845D01*
X018273Y018889D01*
X018252Y018935D01*
X018235Y018983D01*
X018222Y019031D01*
X018212Y019081D01*
X018206Y019131D01*
X018204Y019181D01*
X018204Y001858D02*
X018206Y001908D01*
X018212Y001958D01*
X018222Y002008D01*
X018235Y002056D01*
X018252Y002104D01*
X018273Y002150D01*
X018297Y002194D01*
X018325Y002236D01*
X018356Y002276D01*
X018390Y002313D01*
X018427Y002348D01*
X018466Y002379D01*
X018507Y002408D01*
X018551Y002433D01*
X018597Y002455D01*
X018644Y002473D01*
X018692Y002487D01*
X018741Y002498D01*
X018791Y002505D01*
X018841Y002508D01*
X018892Y002507D01*
X018942Y002502D01*
X018992Y002493D01*
X019040Y002481D01*
X019088Y002464D01*
X019134Y002444D01*
X019179Y002421D01*
X019222Y002394D01*
X019262Y002364D01*
X019300Y002331D01*
X019335Y002295D01*
X019368Y002256D01*
X019397Y002215D01*
X019423Y002172D01*
X019446Y002127D01*
X019465Y002080D01*
X019480Y002032D01*
X019492Y001983D01*
X019500Y001933D01*
X019504Y001883D01*
X019504Y001833D01*
X019500Y001783D01*
X019492Y001733D01*
X019480Y001684D01*
X019465Y001636D01*
X019446Y001589D01*
X019423Y001544D01*
X019397Y001501D01*
X019368Y001460D01*
X019335Y001421D01*
X019300Y001385D01*
X019262Y001352D01*
X019222Y001322D01*
X019179Y001295D01*
X019134Y001272D01*
X019088Y001252D01*
X019040Y001235D01*
X018992Y001223D01*
X018942Y001214D01*
X018892Y001209D01*
X018841Y001208D01*
X018791Y001211D01*
X018741Y001218D01*
X018692Y001229D01*
X018644Y001243D01*
X018597Y001261D01*
X018551Y001283D01*
X018507Y001308D01*
X018466Y001337D01*
X018427Y001368D01*
X018390Y001403D01*
X018356Y001440D01*
X018325Y001480D01*
X018297Y001522D01*
X018273Y001566D01*
X018252Y001612D01*
X018235Y001660D01*
X018222Y001708D01*
X018212Y001758D01*
X018206Y001808D01*
X018204Y001858D01*
D11*
X010915Y005418D03*
X010915Y005733D03*
X010915Y006048D03*
X010915Y006363D03*
X010915Y006678D03*
X010915Y006993D03*
X010915Y007308D03*
X010915Y007623D03*
X007535Y007623D03*
X007535Y007308D03*
X007535Y006993D03*
X007535Y006678D03*
X007535Y006363D03*
X007535Y006048D03*
X007535Y005733D03*
X007535Y005418D03*
D12*
X008122Y004830D03*
X008437Y004830D03*
X008752Y004830D03*
X009067Y004830D03*
X009382Y004830D03*
X009697Y004830D03*
X010012Y004830D03*
X010327Y004830D03*
X010327Y008210D03*
X010012Y008210D03*
X009697Y008210D03*
X009382Y008210D03*
X009067Y008210D03*
X008752Y008210D03*
X008437Y008210D03*
X008122Y008210D03*
D13*
X006905Y008197D03*
X006157Y008197D03*
X006157Y009496D03*
X006905Y009496D03*
X006905Y010352D03*
X006157Y010352D03*
X001826Y005677D03*
X001078Y005677D03*
X001078Y003708D03*
X001826Y003708D03*
X007338Y003290D03*
X008086Y003290D03*
X008529Y003288D03*
X009277Y003288D03*
X008480Y001228D03*
X007732Y001228D03*
X011393Y004456D03*
X012141Y004456D03*
X016570Y001681D03*
X017319Y001681D03*
X005404Y015874D03*
X004656Y015874D03*
X004657Y016699D03*
X005405Y016699D03*
X013637Y016656D03*
X014385Y016656D03*
X017574Y016661D03*
X018322Y016661D03*
D14*
X003268Y005634D02*
X002828Y005634D01*
X002828Y003713D02*
X003268Y003713D01*
D15*
X004799Y004142D03*
X004799Y004890D03*
X005704Y004338D03*
X005704Y003590D03*
X006551Y003945D03*
X006551Y003197D03*
X006196Y006056D03*
X006196Y006804D03*
X007594Y010342D03*
X007594Y011090D03*
X010350Y011071D03*
X010350Y011819D03*
X012358Y009752D03*
X012358Y009004D03*
X013421Y009004D03*
X013421Y009752D03*
X014248Y009752D03*
X014248Y009004D03*
X014996Y009004D03*
X014996Y009752D03*
X015862Y009752D03*
X015862Y009004D03*
X012063Y006622D03*
X012063Y005874D03*
X016574Y003052D03*
X016574Y002304D03*
X010350Y015264D03*
X010350Y016012D03*
X002781Y015894D03*
X002781Y016642D03*
D16*
X004413Y018118D03*
D17*
X005213Y018118D03*
D18*
X008775Y002626D03*
X008775Y001878D03*
X007830Y002252D03*
D19*
X001531Y001858D03*
X001531Y019181D03*
X018854Y019181D03*
X018854Y001858D03*
D20*
X016354Y010254D02*
X016354Y010254D01*
X016354Y011100D01*
X016354Y011100D01*
X016354Y010254D01*
X016354Y010628D02*
X016354Y010628D01*
X016354Y011002D02*
X016354Y011002D01*
X015862Y010254D02*
X015862Y010254D01*
X015862Y011100D01*
X015862Y011100D01*
X015862Y010254D01*
X015862Y010628D02*
X015862Y010628D01*
X015862Y011002D02*
X015862Y011002D01*
X015370Y010254D02*
X015370Y010254D01*
X015370Y011100D01*
X015370Y011100D01*
X015370Y010254D01*
X015370Y010628D02*
X015370Y010628D01*
X015370Y011002D02*
X015370Y011002D01*
X014878Y010254D02*
X014878Y010254D01*
X014878Y011100D01*
X014878Y011100D01*
X014878Y010254D01*
X014878Y010628D02*
X014878Y010628D01*
X014878Y011002D02*
X014878Y011002D01*
X014385Y010254D02*
X014385Y010254D01*
X014385Y011100D01*
X014385Y011100D01*
X014385Y010254D01*
X014385Y010628D02*
X014385Y010628D01*
X014385Y011002D02*
X014385Y011002D01*
X013893Y010254D02*
X013893Y010254D01*
X013893Y011100D01*
X013893Y011100D01*
X013893Y010254D01*
X013893Y010628D02*
X013893Y010628D01*
X013893Y011002D02*
X013893Y011002D01*
X013401Y010254D02*
X013401Y010254D01*
X013401Y011100D01*
X013401Y011100D01*
X013401Y010254D01*
X013401Y010628D02*
X013401Y010628D01*
X013401Y011002D02*
X013401Y011002D01*
X012909Y010254D02*
X012909Y010254D01*
X012909Y011100D01*
X012909Y011100D01*
X012909Y010254D01*
X012909Y010628D02*
X012909Y010628D01*
X012909Y011002D02*
X012909Y011002D01*
X012417Y010254D02*
X012417Y010254D01*
X012417Y011100D01*
X012417Y011100D01*
X012417Y010254D01*
X012417Y010628D02*
X012417Y010628D01*
X012417Y011002D02*
X012417Y011002D01*
X011974Y011327D02*
X011974Y011327D01*
X011128Y011327D01*
X011128Y011327D01*
X011974Y011327D01*
X011974Y011819D02*
X011974Y011819D01*
X011128Y011819D01*
X011128Y011819D01*
X011974Y011819D01*
X011974Y012311D02*
X011974Y012311D01*
X011128Y012311D01*
X011128Y012311D01*
X011974Y012311D01*
X011974Y012803D02*
X011974Y012803D01*
X011128Y012803D01*
X011128Y012803D01*
X011974Y012803D01*
X011974Y013295D02*
X011974Y013295D01*
X011128Y013295D01*
X011128Y013295D01*
X011974Y013295D01*
X011974Y013787D02*
X011974Y013787D01*
X011128Y013787D01*
X011128Y013787D01*
X011974Y013787D01*
X011974Y014279D02*
X011974Y014279D01*
X011128Y014279D01*
X011128Y014279D01*
X011974Y014279D01*
X011974Y014771D02*
X011974Y014771D01*
X011128Y014771D01*
X011128Y014771D01*
X011974Y014771D01*
X012417Y014998D02*
X012417Y014998D01*
X012417Y015844D01*
X012417Y015844D01*
X012417Y014998D01*
X012417Y015372D02*
X012417Y015372D01*
X012417Y015746D02*
X012417Y015746D01*
X012909Y014998D02*
X012909Y014998D01*
X012909Y015844D01*
X012909Y015844D01*
X012909Y014998D01*
X012909Y015372D02*
X012909Y015372D01*
X012909Y015746D02*
X012909Y015746D01*
X013401Y014998D02*
X013401Y014998D01*
X013401Y015844D01*
X013401Y015844D01*
X013401Y014998D01*
X013401Y015372D02*
X013401Y015372D01*
X013401Y015746D02*
X013401Y015746D01*
X013893Y014998D02*
X013893Y014998D01*
X013893Y015844D01*
X013893Y015844D01*
X013893Y014998D01*
X013893Y015372D02*
X013893Y015372D01*
X013893Y015746D02*
X013893Y015746D01*
X014385Y014998D02*
X014385Y014998D01*
X014385Y015844D01*
X014385Y015844D01*
X014385Y014998D01*
X014385Y015372D02*
X014385Y015372D01*
X014385Y015746D02*
X014385Y015746D01*
X014878Y014998D02*
X014878Y014998D01*
X014878Y015844D01*
X014878Y015844D01*
X014878Y014998D01*
X014878Y015372D02*
X014878Y015372D01*
X014878Y015746D02*
X014878Y015746D01*
X015370Y014998D02*
X015370Y014998D01*
X015370Y015844D01*
X015370Y015844D01*
X015370Y014998D01*
X015370Y015372D02*
X015370Y015372D01*
X015370Y015746D02*
X015370Y015746D01*
X015862Y014998D02*
X015862Y014998D01*
X015862Y015844D01*
X015862Y015844D01*
X015862Y014998D01*
X015862Y015372D02*
X015862Y015372D01*
X015862Y015746D02*
X015862Y015746D01*
X016354Y014998D02*
X016354Y014998D01*
X016354Y015844D01*
X016354Y015844D01*
X016354Y014998D01*
X016354Y015372D02*
X016354Y015372D01*
X016354Y015746D02*
X016354Y015746D01*
X016846Y014998D02*
X016846Y014998D01*
X016846Y015844D01*
X016846Y015844D01*
X016846Y014998D01*
X016846Y015372D02*
X016846Y015372D01*
X016846Y015746D02*
X016846Y015746D01*
X017338Y014998D02*
X017338Y014998D01*
X017338Y015844D01*
X017338Y015844D01*
X017338Y014998D01*
X017338Y015372D02*
X017338Y015372D01*
X017338Y015746D02*
X017338Y015746D01*
X017830Y014998D02*
X017830Y014998D01*
X017830Y015844D01*
X017830Y015844D01*
X017830Y014998D01*
X017830Y015372D02*
X017830Y015372D01*
X017830Y015746D02*
X017830Y015746D01*
X018322Y014998D02*
X018322Y014998D01*
X018322Y015844D01*
X018322Y015844D01*
X018322Y014998D01*
X018322Y015372D02*
X018322Y015372D01*
X018322Y015746D02*
X018322Y015746D01*
D21*
X016315Y018001D03*
X016315Y019001D03*
X015315Y019001D03*
X014315Y019001D03*
X013315Y019001D03*
X012315Y019001D03*
X012315Y018001D03*
X013315Y018001D03*
X014315Y018001D03*
X015315Y018001D03*
X017803Y008645D03*
X017803Y007645D03*
X017803Y006645D03*
X018803Y006645D03*
X018803Y007645D03*
X018803Y008645D03*
X018803Y005575D03*
X017803Y005575D03*
X017803Y004575D03*
X017803Y003575D03*
X018803Y003575D03*
X018803Y004575D03*
X002783Y009625D03*
X002783Y011405D03*
D22*
X007594Y018039D03*
X007909Y018039D03*
X008224Y018039D03*
X008539Y018039D03*
X008854Y018039D03*
D23*
X009288Y018058D03*
X007163Y018059D03*
D24*
X006790Y018689D03*
X009661Y018688D03*
D25*
X010153Y018865D03*
X006298Y018866D03*
D26*
X011449Y017045D03*
X011449Y016445D03*
D27*
X011449Y016745D03*
D28*
X010689Y001658D03*
X009689Y001658D03*
X013922Y001542D03*
X014922Y001542D03*
X015922Y001542D03*
D29*
X009587Y012641D03*
X009331Y012641D03*
X009075Y012641D03*
X008819Y012641D03*
X008563Y012641D03*
X008307Y012641D03*
X008051Y012641D03*
X007795Y012641D03*
X007539Y012641D03*
X007283Y012641D03*
X007028Y012641D03*
X006772Y012641D03*
X006516Y012641D03*
X006260Y012641D03*
X006260Y015519D03*
X006516Y015519D03*
X006772Y015519D03*
X007028Y015519D03*
X007283Y015519D03*
X007539Y015519D03*
X007795Y015519D03*
X008051Y015519D03*
X008307Y015519D03*
X008563Y015519D03*
X008819Y015519D03*
X009075Y015519D03*
X009331Y015519D03*
X009587Y015519D03*
D30*
X011492Y009752D03*
X011492Y009004D03*
X010547Y009378D03*
D31*
X004618Y002436D03*
X005118Y001674D03*
X006318Y001674D03*
D32*
X005718Y002436D03*
D33*
X003763Y009135D03*
X003763Y011895D03*
M02*
