G75*
%MOIN*%
%OFA0B0*%
%FSLAX24Y24*%
%IPPOS*%
%LPD*%
%AMOC8*
5,1,8,0,0,1.08239X$1,22.5*
%
%ADD10C,0.0000*%
%ADD11OC8,0.0600*%
%ADD12C,0.0436*%
%ADD13C,0.0740*%
%ADD14C,0.0660*%
%ADD15OC8,0.0660*%
%ADD16C,0.0320*%
%ADD17C,0.0240*%
%ADD18C,0.0100*%
%ADD19C,0.0160*%
%ADD20C,0.0320*%
D10*
X004350Y005263D02*
X004352Y005313D01*
X004358Y005363D01*
X004368Y005413D01*
X004381Y005461D01*
X004398Y005509D01*
X004419Y005555D01*
X004443Y005599D01*
X004471Y005641D01*
X004502Y005681D01*
X004536Y005718D01*
X004573Y005753D01*
X004612Y005784D01*
X004653Y005813D01*
X004697Y005838D01*
X004743Y005860D01*
X004790Y005878D01*
X004838Y005892D01*
X004887Y005903D01*
X004937Y005910D01*
X004987Y005913D01*
X005038Y005912D01*
X005088Y005907D01*
X005138Y005898D01*
X005186Y005886D01*
X005234Y005869D01*
X005280Y005849D01*
X005325Y005826D01*
X005368Y005799D01*
X005408Y005769D01*
X005446Y005736D01*
X005481Y005700D01*
X005514Y005661D01*
X005543Y005620D01*
X005569Y005577D01*
X005592Y005532D01*
X005611Y005485D01*
X005626Y005437D01*
X005638Y005388D01*
X005646Y005338D01*
X005650Y005288D01*
X005650Y005238D01*
X005646Y005188D01*
X005638Y005138D01*
X005626Y005089D01*
X005611Y005041D01*
X005592Y004994D01*
X005569Y004949D01*
X005543Y004906D01*
X005514Y004865D01*
X005481Y004826D01*
X005446Y004790D01*
X005408Y004757D01*
X005368Y004727D01*
X005325Y004700D01*
X005280Y004677D01*
X005234Y004657D01*
X005186Y004640D01*
X005138Y004628D01*
X005088Y004619D01*
X005038Y004614D01*
X004987Y004613D01*
X004937Y004616D01*
X004887Y004623D01*
X004838Y004634D01*
X004790Y004648D01*
X004743Y004666D01*
X004697Y004688D01*
X004653Y004713D01*
X004612Y004742D01*
X004573Y004773D01*
X004536Y004808D01*
X004502Y004845D01*
X004471Y004885D01*
X004443Y004927D01*
X004419Y004971D01*
X004398Y005017D01*
X004381Y005065D01*
X004368Y005113D01*
X004358Y005163D01*
X004352Y005213D01*
X004350Y005263D01*
X003031Y006444D02*
X003031Y021405D01*
X004350Y022586D02*
X004352Y022636D01*
X004358Y022686D01*
X004368Y022736D01*
X004381Y022784D01*
X004398Y022832D01*
X004419Y022878D01*
X004443Y022922D01*
X004471Y022964D01*
X004502Y023004D01*
X004536Y023041D01*
X004573Y023076D01*
X004612Y023107D01*
X004653Y023136D01*
X004697Y023161D01*
X004743Y023183D01*
X004790Y023201D01*
X004838Y023215D01*
X004887Y023226D01*
X004937Y023233D01*
X004987Y023236D01*
X005038Y023235D01*
X005088Y023230D01*
X005138Y023221D01*
X005186Y023209D01*
X005234Y023192D01*
X005280Y023172D01*
X005325Y023149D01*
X005368Y023122D01*
X005408Y023092D01*
X005446Y023059D01*
X005481Y023023D01*
X005514Y022984D01*
X005543Y022943D01*
X005569Y022900D01*
X005592Y022855D01*
X005611Y022808D01*
X005626Y022760D01*
X005638Y022711D01*
X005646Y022661D01*
X005650Y022611D01*
X005650Y022561D01*
X005646Y022511D01*
X005638Y022461D01*
X005626Y022412D01*
X005611Y022364D01*
X005592Y022317D01*
X005569Y022272D01*
X005543Y022229D01*
X005514Y022188D01*
X005481Y022149D01*
X005446Y022113D01*
X005408Y022080D01*
X005368Y022050D01*
X005325Y022023D01*
X005280Y022000D01*
X005234Y021980D01*
X005186Y021963D01*
X005138Y021951D01*
X005088Y021942D01*
X005038Y021937D01*
X004987Y021936D01*
X004937Y021939D01*
X004887Y021946D01*
X004838Y021957D01*
X004790Y021971D01*
X004743Y021989D01*
X004697Y022011D01*
X004653Y022036D01*
X004612Y022065D01*
X004573Y022096D01*
X004536Y022131D01*
X004502Y022168D01*
X004471Y022208D01*
X004443Y022250D01*
X004419Y022294D01*
X004398Y022340D01*
X004381Y022388D01*
X004368Y022436D01*
X004358Y022486D01*
X004352Y022536D01*
X004350Y022586D01*
X003031Y021405D02*
X003033Y021529D01*
X003039Y021652D01*
X003048Y021776D01*
X003062Y021898D01*
X003079Y022021D01*
X003101Y022143D01*
X003126Y022264D01*
X003155Y022384D01*
X003187Y022503D01*
X003224Y022622D01*
X003264Y022739D01*
X003307Y022854D01*
X003355Y022969D01*
X003406Y023081D01*
X003460Y023192D01*
X003518Y023302D01*
X003579Y023409D01*
X003644Y023515D01*
X003712Y023618D01*
X003783Y023719D01*
X003857Y023818D01*
X003934Y023915D01*
X004015Y024009D01*
X004098Y024100D01*
X004184Y024189D01*
X004273Y024275D01*
X004364Y024358D01*
X004458Y024439D01*
X004555Y024516D01*
X004654Y024590D01*
X004755Y024661D01*
X004858Y024729D01*
X004964Y024794D01*
X005071Y024855D01*
X005181Y024913D01*
X005292Y024967D01*
X005404Y025018D01*
X005519Y025066D01*
X005634Y025109D01*
X005751Y025149D01*
X005870Y025186D01*
X005989Y025218D01*
X006109Y025247D01*
X006230Y025272D01*
X006352Y025294D01*
X006475Y025311D01*
X006597Y025325D01*
X006721Y025334D01*
X006844Y025340D01*
X006968Y025342D01*
X010905Y025342D01*
X010944Y025340D01*
X010982Y025334D01*
X011019Y025325D01*
X011056Y025312D01*
X011091Y025295D01*
X011124Y025276D01*
X011155Y025253D01*
X011184Y025227D01*
X011210Y025198D01*
X011233Y025167D01*
X011252Y025134D01*
X011269Y025099D01*
X011282Y025062D01*
X011291Y025025D01*
X011297Y024987D01*
X011299Y024948D01*
X011301Y024909D01*
X011307Y024871D01*
X011316Y024834D01*
X011329Y024797D01*
X011346Y024762D01*
X011365Y024729D01*
X011388Y024698D01*
X011414Y024669D01*
X011443Y024643D01*
X011474Y024620D01*
X011507Y024601D01*
X011542Y024584D01*
X011579Y024571D01*
X011616Y024562D01*
X011654Y024556D01*
X011693Y024554D01*
X011693Y024555D02*
X015630Y024555D01*
X015630Y024554D02*
X015669Y024556D01*
X015707Y024562D01*
X015744Y024571D01*
X015781Y024584D01*
X015816Y024601D01*
X015849Y024620D01*
X015880Y024643D01*
X015909Y024669D01*
X015935Y024698D01*
X015958Y024729D01*
X015977Y024762D01*
X015994Y024797D01*
X016007Y024834D01*
X016016Y024871D01*
X016022Y024909D01*
X016024Y024948D01*
X016023Y024948D02*
X016025Y024987D01*
X016031Y025025D01*
X016040Y025062D01*
X016053Y025099D01*
X016070Y025134D01*
X016089Y025167D01*
X016112Y025198D01*
X016138Y025227D01*
X016167Y025253D01*
X016198Y025276D01*
X016231Y025295D01*
X016266Y025312D01*
X016303Y025325D01*
X016340Y025334D01*
X016378Y025340D01*
X016417Y025342D01*
X020354Y025342D01*
X021673Y022586D02*
X021675Y022636D01*
X021681Y022686D01*
X021691Y022736D01*
X021704Y022784D01*
X021721Y022832D01*
X021742Y022878D01*
X021766Y022922D01*
X021794Y022964D01*
X021825Y023004D01*
X021859Y023041D01*
X021896Y023076D01*
X021935Y023107D01*
X021976Y023136D01*
X022020Y023161D01*
X022066Y023183D01*
X022113Y023201D01*
X022161Y023215D01*
X022210Y023226D01*
X022260Y023233D01*
X022310Y023236D01*
X022361Y023235D01*
X022411Y023230D01*
X022461Y023221D01*
X022509Y023209D01*
X022557Y023192D01*
X022603Y023172D01*
X022648Y023149D01*
X022691Y023122D01*
X022731Y023092D01*
X022769Y023059D01*
X022804Y023023D01*
X022837Y022984D01*
X022866Y022943D01*
X022892Y022900D01*
X022915Y022855D01*
X022934Y022808D01*
X022949Y022760D01*
X022961Y022711D01*
X022969Y022661D01*
X022973Y022611D01*
X022973Y022561D01*
X022969Y022511D01*
X022961Y022461D01*
X022949Y022412D01*
X022934Y022364D01*
X022915Y022317D01*
X022892Y022272D01*
X022866Y022229D01*
X022837Y022188D01*
X022804Y022149D01*
X022769Y022113D01*
X022731Y022080D01*
X022691Y022050D01*
X022648Y022023D01*
X022603Y022000D01*
X022557Y021980D01*
X022509Y021963D01*
X022461Y021951D01*
X022411Y021942D01*
X022361Y021937D01*
X022310Y021936D01*
X022260Y021939D01*
X022210Y021946D01*
X022161Y021957D01*
X022113Y021971D01*
X022066Y021989D01*
X022020Y022011D01*
X021976Y022036D01*
X021935Y022065D01*
X021896Y022096D01*
X021859Y022131D01*
X021825Y022168D01*
X021794Y022208D01*
X021766Y022250D01*
X021742Y022294D01*
X021721Y022340D01*
X021704Y022388D01*
X021691Y022436D01*
X021681Y022486D01*
X021675Y022536D01*
X021673Y022586D01*
X024291Y021405D02*
X024289Y021529D01*
X024283Y021652D01*
X024274Y021776D01*
X024260Y021898D01*
X024243Y022021D01*
X024221Y022143D01*
X024196Y022264D01*
X024167Y022384D01*
X024135Y022503D01*
X024098Y022622D01*
X024058Y022739D01*
X024015Y022854D01*
X023967Y022969D01*
X023916Y023081D01*
X023862Y023192D01*
X023804Y023302D01*
X023743Y023409D01*
X023678Y023515D01*
X023610Y023618D01*
X023539Y023719D01*
X023465Y023818D01*
X023388Y023915D01*
X023307Y024009D01*
X023224Y024100D01*
X023138Y024189D01*
X023049Y024275D01*
X022958Y024358D01*
X022864Y024439D01*
X022767Y024516D01*
X022668Y024590D01*
X022567Y024661D01*
X022464Y024729D01*
X022358Y024794D01*
X022251Y024855D01*
X022141Y024913D01*
X022030Y024967D01*
X021918Y025018D01*
X021803Y025066D01*
X021688Y025109D01*
X021571Y025149D01*
X021452Y025186D01*
X021333Y025218D01*
X021213Y025247D01*
X021092Y025272D01*
X020970Y025294D01*
X020847Y025311D01*
X020725Y025325D01*
X020601Y025334D01*
X020478Y025340D01*
X020354Y025342D01*
X024291Y021405D02*
X024291Y016996D01*
X024289Y016957D01*
X024283Y016919D01*
X024274Y016882D01*
X024261Y016845D01*
X024244Y016810D01*
X024225Y016777D01*
X024202Y016746D01*
X024176Y016717D01*
X024147Y016691D01*
X024116Y016668D01*
X024083Y016649D01*
X024048Y016632D01*
X024011Y016619D01*
X023974Y016610D01*
X023936Y016604D01*
X023897Y016602D01*
X021693Y016602D01*
X021693Y016523D01*
X021693Y010578D01*
X023897Y010578D01*
X023897Y010579D02*
X023936Y010577D01*
X023974Y010571D01*
X024011Y010562D01*
X024048Y010549D01*
X024083Y010532D01*
X024116Y010513D01*
X024147Y010490D01*
X024176Y010464D01*
X024202Y010435D01*
X024225Y010404D01*
X024244Y010371D01*
X024261Y010336D01*
X024274Y010299D01*
X024283Y010262D01*
X024289Y010224D01*
X024291Y010185D01*
X024291Y006444D01*
X021673Y005263D02*
X021675Y005313D01*
X021681Y005363D01*
X021691Y005413D01*
X021704Y005461D01*
X021721Y005509D01*
X021742Y005555D01*
X021766Y005599D01*
X021794Y005641D01*
X021825Y005681D01*
X021859Y005718D01*
X021896Y005753D01*
X021935Y005784D01*
X021976Y005813D01*
X022020Y005838D01*
X022066Y005860D01*
X022113Y005878D01*
X022161Y005892D01*
X022210Y005903D01*
X022260Y005910D01*
X022310Y005913D01*
X022361Y005912D01*
X022411Y005907D01*
X022461Y005898D01*
X022509Y005886D01*
X022557Y005869D01*
X022603Y005849D01*
X022648Y005826D01*
X022691Y005799D01*
X022731Y005769D01*
X022769Y005736D01*
X022804Y005700D01*
X022837Y005661D01*
X022866Y005620D01*
X022892Y005577D01*
X022915Y005532D01*
X022934Y005485D01*
X022949Y005437D01*
X022961Y005388D01*
X022969Y005338D01*
X022973Y005288D01*
X022973Y005238D01*
X022969Y005188D01*
X022961Y005138D01*
X022949Y005089D01*
X022934Y005041D01*
X022915Y004994D01*
X022892Y004949D01*
X022866Y004906D01*
X022837Y004865D01*
X022804Y004826D01*
X022769Y004790D01*
X022731Y004757D01*
X022691Y004727D01*
X022648Y004700D01*
X022603Y004677D01*
X022557Y004657D01*
X022509Y004640D01*
X022461Y004628D01*
X022411Y004619D01*
X022361Y004614D01*
X022310Y004613D01*
X022260Y004616D01*
X022210Y004623D01*
X022161Y004634D01*
X022113Y004648D01*
X022066Y004666D01*
X022020Y004688D01*
X021976Y004713D01*
X021935Y004742D01*
X021896Y004773D01*
X021859Y004808D01*
X021825Y004845D01*
X021794Y004885D01*
X021766Y004927D01*
X021742Y004971D01*
X021721Y005017D01*
X021704Y005065D01*
X021691Y005113D01*
X021681Y005163D01*
X021675Y005213D01*
X021673Y005263D01*
X021141Y003294D02*
X021251Y003296D01*
X021361Y003302D01*
X021470Y003311D01*
X021579Y003325D01*
X021688Y003342D01*
X021796Y003363D01*
X021903Y003388D01*
X022009Y003416D01*
X022114Y003448D01*
X022218Y003484D01*
X022321Y003523D01*
X022422Y003566D01*
X022522Y003613D01*
X022620Y003663D01*
X022716Y003716D01*
X022810Y003773D01*
X022902Y003833D01*
X022993Y003896D01*
X023080Y003962D01*
X023166Y004031D01*
X023249Y004103D01*
X023329Y004178D01*
X023407Y004256D01*
X023482Y004336D01*
X023554Y004419D01*
X023623Y004505D01*
X023689Y004592D01*
X023752Y004683D01*
X023812Y004775D01*
X023869Y004869D01*
X023922Y004965D01*
X023972Y005063D01*
X024019Y005163D01*
X024062Y005264D01*
X024101Y005367D01*
X024137Y005471D01*
X024169Y005576D01*
X024197Y005682D01*
X024222Y005789D01*
X024243Y005897D01*
X024260Y006006D01*
X024274Y006115D01*
X024283Y006224D01*
X024289Y006334D01*
X024291Y006444D01*
X021141Y003295D02*
X006181Y003295D01*
X006181Y003294D02*
X006071Y003296D01*
X005961Y003302D01*
X005852Y003311D01*
X005743Y003325D01*
X005634Y003342D01*
X005526Y003363D01*
X005419Y003388D01*
X005313Y003416D01*
X005208Y003448D01*
X005104Y003484D01*
X005001Y003523D01*
X004900Y003566D01*
X004800Y003613D01*
X004702Y003663D01*
X004606Y003716D01*
X004512Y003773D01*
X004420Y003833D01*
X004329Y003896D01*
X004242Y003962D01*
X004156Y004031D01*
X004073Y004103D01*
X003993Y004178D01*
X003915Y004256D01*
X003840Y004336D01*
X003768Y004419D01*
X003699Y004505D01*
X003633Y004592D01*
X003570Y004683D01*
X003510Y004775D01*
X003453Y004869D01*
X003400Y004965D01*
X003350Y005063D01*
X003303Y005163D01*
X003260Y005264D01*
X003221Y005367D01*
X003185Y005471D01*
X003153Y005576D01*
X003125Y005682D01*
X003100Y005789D01*
X003079Y005897D01*
X003062Y006006D01*
X003048Y006115D01*
X003039Y006224D01*
X003033Y006334D01*
X003031Y006444D01*
D11*
X003752Y007082D03*
X004752Y007082D03*
X004752Y008082D03*
X004752Y009082D03*
X004752Y010082D03*
X004752Y011082D03*
X003752Y011082D03*
X003752Y010082D03*
X003752Y009082D03*
X003752Y008082D03*
X003909Y018633D03*
X004909Y018633D03*
X004909Y019633D03*
X003909Y019633D03*
X003909Y020633D03*
X004909Y020633D03*
X022452Y009913D03*
X022452Y008913D03*
X022452Y007913D03*
X022452Y006913D03*
X023452Y006913D03*
X023452Y007913D03*
X023452Y008913D03*
X023452Y009913D03*
D12*
X021157Y004870D03*
X020157Y004870D03*
X019157Y004870D03*
D13*
X015178Y005393D03*
X014212Y005134D03*
X013111Y005134D03*
X012145Y005393D03*
D14*
X008015Y004488D03*
X006815Y004488D03*
X006315Y005251D03*
D15*
X007415Y005251D03*
D16*
X019882Y022586D03*
D17*
X019842Y023649D03*
X020433Y024673D03*
X017756Y022035D03*
X017401Y021602D03*
X016456Y021838D03*
X016417Y022429D03*
X015945Y023649D03*
X017323Y024673D03*
X019803Y021484D03*
X016574Y019082D03*
X016574Y017507D03*
X016574Y016287D03*
X016574Y015067D03*
X016574Y013846D03*
X016574Y012626D03*
X016574Y011405D03*
X018110Y011405D03*
X018110Y012626D03*
X018110Y013846D03*
X018110Y015067D03*
X018110Y016287D03*
X018110Y017507D03*
X019645Y016287D03*
X019645Y015067D03*
X019645Y013846D03*
X019645Y012626D03*
X019645Y011405D03*
X020708Y010500D03*
X020945Y009791D03*
X021181Y011405D03*
X021181Y012626D03*
X021181Y013846D03*
X021181Y015067D03*
X021181Y016287D03*
X021181Y017507D03*
X020275Y017744D03*
X015039Y017507D03*
X015039Y016287D03*
X015039Y015067D03*
X015039Y013846D03*
X015039Y012626D03*
X015039Y011405D03*
X013504Y011405D03*
X013504Y012626D03*
X013464Y014161D03*
X013504Y015067D03*
X013504Y016287D03*
X013504Y017507D03*
X012165Y017193D03*
X011929Y017507D03*
X010748Y015500D03*
X009606Y016011D03*
X009291Y014870D03*
X009488Y014437D03*
X008622Y014476D03*
X007716Y014200D03*
X007716Y013374D03*
X007637Y012586D03*
X007913Y012389D03*
X008189Y012586D03*
X008425Y012389D03*
X009015Y012468D03*
X009409Y012507D03*
X010511Y012547D03*
X010669Y012035D03*
X011102Y010539D03*
X011732Y010145D03*
X012441Y010145D03*
X013582Y007941D03*
X014330Y007941D03*
X017008Y009830D03*
X017126Y009397D03*
X017834Y010067D03*
X018267Y010106D03*
X019015Y009358D03*
X018819Y009082D03*
X018071Y008846D03*
X017126Y008649D03*
X019055Y008059D03*
X019724Y006051D03*
X010669Y013649D03*
X008031Y015539D03*
X006850Y014752D03*
X005984Y014397D03*
X005836Y015052D03*
X004567Y016051D03*
X003622Y015893D03*
X003582Y016602D03*
X005197Y017468D03*
X005197Y018216D03*
X006141Y017389D03*
X006456Y017429D03*
X006771Y017468D03*
X006929Y017862D03*
X006417Y018531D03*
X007204Y019082D03*
X007756Y019594D03*
X009055Y019830D03*
X009134Y020460D03*
X010078Y019515D03*
X009882Y018807D03*
X009882Y018019D03*
X006771Y016759D03*
X006456Y016759D03*
X006141Y016681D03*
X004055Y014633D03*
X004055Y013846D03*
X004330Y013019D03*
X004173Y012389D03*
X003661Y011917D03*
X005354Y011838D03*
X005669Y011287D03*
X006023Y012114D03*
X005876Y012532D03*
X005871Y012847D03*
X006023Y013216D03*
X006850Y013649D03*
X007047Y012704D03*
X006929Y012193D03*
X006693Y011996D03*
X007126Y010145D03*
X007126Y009791D03*
X007126Y009437D03*
X007126Y009082D03*
X007126Y008728D03*
X008464Y008492D03*
X008543Y007862D03*
X009094Y007429D03*
X008661Y010854D03*
X006417Y019555D03*
X006456Y020696D03*
X006456Y021759D03*
X006456Y022665D03*
X007401Y023256D03*
X006732Y023689D03*
X007401Y024200D03*
X006417Y024752D03*
X008385Y024240D03*
X009370Y024200D03*
X010197Y024043D03*
X010866Y024161D03*
X010984Y024752D03*
X010315Y024752D03*
X009370Y023256D03*
X010197Y023059D03*
X010157Y022153D03*
X012047Y024200D03*
X012874Y024319D03*
X013385Y019909D03*
X007756Y022665D03*
D18*
X003976Y019161D02*
X004370Y018767D01*
X004370Y018531D01*
X004685Y018216D01*
X005197Y018216D01*
X006141Y017389D02*
X006141Y016681D01*
X006456Y016759D02*
X006456Y017429D01*
X006771Y017468D02*
X006771Y016759D01*
X005836Y015052D02*
X005566Y015052D01*
X004567Y016051D01*
X003976Y019161D02*
X003740Y019161D01*
X003464Y019437D01*
X003464Y020189D01*
X003909Y020633D01*
X009291Y014870D02*
X011929Y017507D01*
X011968Y017193D02*
X012165Y017193D01*
X011968Y017193D02*
X009488Y014712D01*
X009488Y014594D01*
X009488Y014437D01*
X008189Y012586D02*
X008189Y010500D01*
X007126Y009437D01*
X007126Y009791D02*
X007913Y010578D01*
X007913Y010696D01*
X007913Y012389D01*
X007637Y012586D02*
X007637Y010736D01*
X007637Y010657D01*
X007126Y010145D01*
X007126Y009082D02*
X008425Y010381D01*
X008425Y010500D01*
X008425Y012389D01*
X006929Y012193D02*
X006235Y012847D01*
X006156Y012847D01*
X006077Y012847D01*
X005871Y012847D01*
X005876Y012532D02*
X006117Y012532D01*
X006693Y011996D01*
X008661Y010854D02*
X008661Y010460D01*
X008661Y010263D01*
X007126Y008728D01*
X011732Y010145D02*
X012441Y010145D01*
X013582Y007941D02*
X014330Y007941D01*
X017008Y009830D02*
X017086Y009830D01*
X018071Y008846D01*
X018819Y009082D02*
X017834Y010067D01*
X018267Y010106D02*
X019015Y009358D01*
X017126Y009397D02*
X017126Y008649D01*
X017362Y021602D02*
X017401Y021602D01*
X017401Y021681D01*
X017756Y022035D01*
D19*
X006366Y004246D02*
X004200Y004246D01*
X004297Y004149D02*
X003885Y004561D01*
X003562Y005045D01*
X003425Y005375D01*
X003425Y006730D01*
X003553Y006602D01*
X003950Y006602D01*
X004232Y006883D01*
X004232Y007281D01*
X003950Y007562D01*
X003553Y007562D01*
X003425Y007434D01*
X003425Y007730D01*
X003553Y007602D01*
X003950Y007602D01*
X004232Y007883D01*
X004232Y008281D01*
X003950Y008562D01*
X003553Y008562D01*
X003425Y008434D01*
X003425Y008730D01*
X003553Y008602D01*
X003950Y008602D01*
X004232Y008883D01*
X004232Y009281D01*
X003950Y009562D01*
X003553Y009562D01*
X003425Y009434D01*
X003425Y009730D01*
X003553Y009602D01*
X003950Y009602D01*
X004232Y009883D01*
X004232Y010281D01*
X003950Y010562D01*
X003553Y010562D01*
X003425Y010434D01*
X003425Y010730D01*
X003553Y010602D01*
X003950Y010602D01*
X004232Y010883D01*
X004232Y011281D01*
X003950Y011562D01*
X003553Y011562D01*
X003425Y011434D01*
X003425Y019151D01*
X003510Y019066D01*
X003586Y018989D01*
X003429Y018832D01*
X003429Y018435D01*
X003710Y018153D01*
X004108Y018153D01*
X004265Y018311D01*
X004274Y018301D01*
X004589Y017986D01*
X005002Y017986D01*
X005027Y017962D01*
X005137Y017916D01*
X005256Y017916D01*
X005366Y017962D01*
X005451Y018046D01*
X005497Y018156D01*
X005497Y018276D01*
X005451Y018386D01*
X005389Y018448D01*
X005389Y018613D01*
X004929Y018613D01*
X004929Y018653D01*
X005389Y018653D01*
X005389Y018832D01*
X005108Y019113D01*
X004929Y019113D01*
X004929Y018653D01*
X004889Y018653D01*
X004889Y019113D01*
X004710Y019113D01*
X004530Y018933D01*
X004208Y019254D01*
X004389Y019435D01*
X004389Y019832D01*
X004108Y020113D01*
X003714Y020113D01*
X003754Y020153D01*
X004108Y020153D01*
X004389Y020435D01*
X004389Y020832D01*
X004108Y021113D01*
X003710Y021113D01*
X003429Y020832D01*
X003429Y020479D01*
X003425Y020474D01*
X003425Y022613D01*
X003563Y022993D01*
X003891Y023560D01*
X004312Y024062D01*
X004813Y024483D01*
X005380Y024810D01*
X005760Y024948D01*
X011119Y024948D01*
X011119Y024834D01*
X011206Y024623D01*
X011368Y024462D01*
X011578Y024375D01*
X015744Y024375D01*
X015955Y024462D01*
X016116Y024623D01*
X016116Y024623D01*
X016203Y024834D01*
X016203Y024948D01*
X021562Y024948D01*
X021942Y024810D01*
X022509Y024483D01*
X023011Y024062D01*
X023432Y023560D01*
X023759Y022993D01*
X023897Y022613D01*
X023897Y016782D01*
X021618Y016782D01*
X021513Y016677D01*
X021513Y010504D01*
X021618Y010398D01*
X023897Y010398D01*
X023897Y010147D01*
X023651Y010393D01*
X023254Y010393D01*
X022972Y010112D01*
X022972Y009714D01*
X023254Y009433D01*
X023651Y009433D01*
X023897Y009679D01*
X023897Y009147D01*
X023651Y009393D01*
X023254Y009393D01*
X022972Y009112D01*
X022972Y008714D01*
X023254Y008433D01*
X023651Y008433D01*
X023897Y008679D01*
X023897Y008147D01*
X023651Y008393D01*
X023254Y008393D01*
X022972Y008112D01*
X022972Y007714D01*
X023254Y007433D01*
X023651Y007433D01*
X023897Y007679D01*
X023897Y007147D01*
X023651Y007393D01*
X023472Y007393D01*
X023472Y006933D01*
X023432Y006933D01*
X023432Y006893D01*
X022972Y006893D01*
X022972Y006714D01*
X023254Y006433D01*
X023432Y006433D01*
X023432Y006893D01*
X023472Y006893D01*
X023472Y006433D01*
X023651Y006433D01*
X023897Y006679D01*
X023897Y005375D01*
X023760Y005045D01*
X023437Y004561D01*
X023025Y004149D01*
X022541Y003826D01*
X022211Y003689D01*
X005112Y003689D01*
X004781Y003826D01*
X004297Y004149D01*
X004389Y004087D02*
X006499Y004087D01*
X006483Y004099D02*
X006548Y004052D01*
X006619Y004016D01*
X006696Y003991D01*
X006775Y003978D01*
X006815Y003978D01*
X006855Y003978D01*
X006934Y003991D01*
X007011Y004016D01*
X007082Y004052D01*
X007147Y004099D01*
X007204Y004156D01*
X007251Y004221D01*
X007288Y004293D01*
X007312Y004369D01*
X007325Y004448D01*
X007325Y004488D01*
X006815Y004488D01*
X006815Y003978D01*
X006815Y004488D01*
X006815Y004488D01*
X006305Y004488D01*
X006305Y004448D01*
X006318Y004369D01*
X006342Y004293D01*
X006379Y004221D01*
X006426Y004156D01*
X006483Y004099D01*
X006815Y004087D02*
X006815Y004087D01*
X006815Y004246D02*
X006815Y004246D01*
X006815Y004404D02*
X006815Y004404D01*
X006815Y004488D02*
X006815Y004488D01*
X006815Y004488D01*
X006305Y004488D01*
X006305Y004529D01*
X006318Y004608D01*
X006342Y004684D01*
X006371Y004741D01*
X006214Y004741D01*
X006026Y004819D01*
X005907Y004938D01*
X005906Y004933D01*
X005906Y004933D01*
X005739Y004643D01*
X005739Y004643D01*
X005739Y004643D01*
X005482Y004428D01*
X005482Y004428D01*
X005167Y004313D01*
X004909Y004313D01*
X004832Y004313D01*
X004517Y004428D01*
X004261Y004643D01*
X004261Y004643D01*
X004093Y004933D01*
X004093Y004933D01*
X004035Y005263D01*
X004035Y005263D01*
X004093Y005593D01*
X004093Y005593D01*
X004261Y005883D01*
X004261Y005883D01*
X004261Y005883D01*
X004517Y006099D01*
X004517Y006099D01*
X004832Y006213D01*
X005167Y006213D01*
X005482Y006099D01*
X005482Y006099D01*
X005739Y005883D01*
X005739Y005883D01*
X005906Y005593D01*
X005906Y005593D01*
X005911Y005568D01*
X006026Y005683D01*
X006214Y005761D01*
X006416Y005761D01*
X006604Y005683D01*
X006747Y005540D01*
X006825Y005352D01*
X006825Y005149D01*
X006762Y004996D01*
X006775Y004998D01*
X006815Y004998D01*
X006815Y004488D01*
X007325Y004488D01*
X007325Y004529D01*
X007312Y004608D01*
X007288Y004684D01*
X007259Y004741D01*
X007568Y004741D01*
X007505Y004590D01*
X007505Y004387D01*
X007583Y004200D01*
X007726Y004056D01*
X007914Y003978D01*
X008116Y003978D01*
X008304Y004056D01*
X008447Y004200D01*
X008525Y004387D01*
X008525Y004590D01*
X008447Y004777D01*
X008304Y004921D01*
X008116Y004998D01*
X007914Y004998D01*
X007863Y004977D01*
X007925Y005040D01*
X007925Y005462D01*
X007626Y005761D01*
X007204Y005761D01*
X006905Y005462D01*
X006905Y005040D01*
X006971Y004974D01*
X006934Y004986D01*
X006855Y004998D01*
X006815Y004998D01*
X006815Y004488D01*
X006815Y004488D01*
X006815Y004563D02*
X006815Y004563D01*
X006815Y004721D02*
X006815Y004721D01*
X006815Y004880D02*
X006815Y004880D01*
X006779Y005038D02*
X006906Y005038D01*
X006905Y005197D02*
X006825Y005197D01*
X006824Y005355D02*
X006905Y005355D01*
X006957Y005514D02*
X006758Y005514D01*
X006615Y005672D02*
X007115Y005672D01*
X007715Y005672D02*
X011665Y005672D01*
X011678Y005704D02*
X011595Y005502D01*
X011595Y005283D01*
X011678Y005081D01*
X011833Y004927D01*
X012035Y004843D01*
X012254Y004843D01*
X012456Y004927D01*
X012561Y005031D01*
X012561Y005025D01*
X012644Y004822D01*
X012799Y004668D01*
X013001Y004584D01*
X013220Y004584D01*
X013422Y004668D01*
X013577Y004822D01*
X013661Y005025D01*
X013661Y005243D01*
X013577Y005446D01*
X013422Y005600D01*
X013220Y005684D01*
X013001Y005684D01*
X012799Y005600D01*
X012695Y005496D01*
X012695Y005502D01*
X012611Y005704D01*
X012456Y005859D01*
X012254Y005943D01*
X012035Y005943D01*
X011833Y005859D01*
X011678Y005704D01*
X011805Y005831D02*
X005769Y005831D01*
X005861Y005672D02*
X006015Y005672D01*
X005612Y005989D02*
X021710Y005989D01*
X021584Y005883D02*
X021584Y005883D01*
X021416Y005593D01*
X021358Y005263D01*
X021367Y005214D01*
X021236Y005268D01*
X021078Y005268D01*
X020932Y005207D01*
X020820Y005095D01*
X020759Y004949D01*
X020759Y004790D01*
X020820Y004644D01*
X020932Y004532D01*
X021078Y004472D01*
X021236Y004472D01*
X021383Y004532D01*
X021495Y004644D01*
X021532Y004733D01*
X021584Y004643D01*
X021840Y004428D01*
X021840Y004428D01*
X022155Y004313D01*
X022231Y004313D01*
X022490Y004313D01*
X022805Y004428D01*
X023061Y004643D01*
X023061Y004643D01*
X023061Y004643D01*
X023229Y004933D01*
X023229Y004933D01*
X023287Y005263D01*
X023287Y005263D01*
X023229Y005593D01*
X023229Y005593D01*
X023061Y005883D01*
X023061Y005883D01*
X022805Y006099D01*
X022805Y006099D01*
X022490Y006213D01*
X022155Y006213D01*
X021840Y006099D01*
X021584Y005883D01*
X021584Y005883D01*
X021553Y005831D02*
X015517Y005831D01*
X015489Y005859D02*
X015287Y005943D01*
X015068Y005943D01*
X014866Y005859D01*
X014711Y005704D01*
X014628Y005502D01*
X014628Y005496D01*
X014523Y005600D01*
X014321Y005684D01*
X014102Y005684D01*
X013900Y005600D01*
X013745Y005446D01*
X013662Y005243D01*
X013662Y005025D01*
X013745Y004822D01*
X013900Y004668D01*
X014102Y004584D01*
X014321Y004584D01*
X014523Y004668D01*
X014678Y004822D01*
X014762Y005025D01*
X014762Y005031D01*
X014866Y004927D01*
X015068Y004843D01*
X015287Y004843D01*
X015489Y004927D01*
X015644Y005081D01*
X015728Y005283D01*
X015728Y005502D01*
X015644Y005704D01*
X015489Y005859D01*
X015657Y005672D02*
X021462Y005672D01*
X021416Y005593D02*
X021416Y005593D01*
X021402Y005514D02*
X015723Y005514D01*
X015728Y005355D02*
X021374Y005355D01*
X021358Y005263D02*
X021358Y005263D01*
X020921Y005197D02*
X020384Y005197D01*
X020411Y005179D02*
X020346Y005222D01*
X020273Y005252D01*
X020196Y005268D01*
X020157Y005268D01*
X020118Y005268D01*
X020041Y005252D01*
X019969Y005222D01*
X019903Y005179D01*
X019848Y005123D01*
X019804Y005058D01*
X019774Y004986D01*
X019759Y004909D01*
X019759Y004870D01*
X020157Y004870D01*
X020157Y005268D01*
X020157Y004870D01*
X020157Y004870D01*
X020157Y004870D01*
X020555Y004870D01*
X020555Y004909D01*
X020540Y004986D01*
X020510Y005058D01*
X020466Y005123D01*
X020411Y005179D01*
X020518Y005038D02*
X020796Y005038D01*
X020759Y004880D02*
X020555Y004880D01*
X020555Y004870D02*
X020157Y004870D01*
X020157Y004870D01*
X019759Y004870D01*
X019759Y004830D01*
X019774Y004754D01*
X019804Y004681D01*
X019848Y004616D01*
X019903Y004560D01*
X019969Y004517D01*
X020041Y004487D01*
X020118Y004472D01*
X020157Y004472D01*
X020157Y004870D01*
X020157Y004870D01*
X020157Y004472D01*
X020196Y004472D01*
X020273Y004487D01*
X020346Y004517D01*
X020411Y004560D01*
X020466Y004616D01*
X020510Y004681D01*
X020540Y004754D01*
X020555Y004830D01*
X020555Y004870D01*
X020527Y004721D02*
X020788Y004721D01*
X020901Y004563D02*
X020413Y004563D01*
X020157Y004563D02*
X020157Y004563D01*
X020157Y004721D02*
X020157Y004721D01*
X020157Y004880D02*
X020157Y004880D01*
X020157Y005038D02*
X020157Y005038D01*
X020157Y005197D02*
X020157Y005197D01*
X019930Y005197D02*
X019393Y005197D01*
X019383Y005207D02*
X019236Y005268D01*
X019078Y005268D01*
X018932Y005207D01*
X018820Y005095D01*
X018759Y004949D01*
X018759Y004790D01*
X018820Y004644D01*
X018932Y004532D01*
X019078Y004472D01*
X019236Y004472D01*
X019383Y004532D01*
X019495Y004644D01*
X019555Y004790D01*
X019555Y004949D01*
X019495Y005095D01*
X019383Y005207D01*
X019518Y005038D02*
X019796Y005038D01*
X019759Y004880D02*
X019555Y004880D01*
X019527Y004721D02*
X019788Y004721D01*
X019901Y004563D02*
X019413Y004563D01*
X018901Y004563D02*
X008525Y004563D01*
X008525Y004404D02*
X021905Y004404D01*
X021679Y004563D02*
X021413Y004563D01*
X021584Y004643D02*
X021584Y004643D01*
X021538Y004721D02*
X021527Y004721D01*
X022408Y003770D02*
X004914Y003770D01*
X004626Y003929D02*
X022696Y003929D01*
X022933Y004087D02*
X008335Y004087D01*
X008467Y004246D02*
X023122Y004246D01*
X023281Y004404D02*
X022740Y004404D01*
X022805Y004428D02*
X022805Y004428D01*
X022966Y004563D02*
X023438Y004563D01*
X023544Y004721D02*
X023107Y004721D01*
X023198Y004880D02*
X023650Y004880D01*
X023756Y005038D02*
X023247Y005038D01*
X023275Y005197D02*
X023823Y005197D01*
X023889Y005355D02*
X023271Y005355D01*
X023243Y005514D02*
X023897Y005514D01*
X023897Y005672D02*
X023183Y005672D01*
X023092Y005831D02*
X023897Y005831D01*
X023897Y005989D02*
X022935Y005989D01*
X022670Y006148D02*
X023897Y006148D01*
X023897Y006306D02*
X003425Y006306D01*
X003425Y006148D02*
X004652Y006148D01*
X004387Y005989D02*
X003425Y005989D01*
X003425Y005831D02*
X004230Y005831D01*
X004139Y005672D02*
X003425Y005672D01*
X003425Y005514D02*
X004079Y005514D01*
X004051Y005355D02*
X003433Y005355D01*
X003499Y005197D02*
X004047Y005197D01*
X004075Y005038D02*
X003566Y005038D01*
X003672Y004880D02*
X004124Y004880D01*
X004216Y004721D02*
X003778Y004721D01*
X003884Y004563D02*
X004357Y004563D01*
X004582Y004404D02*
X004041Y004404D01*
X005417Y004404D02*
X006312Y004404D01*
X006310Y004563D02*
X005643Y004563D01*
X005784Y004721D02*
X006361Y004721D01*
X005965Y004880D02*
X005875Y004880D01*
X005590Y006051D02*
X005678Y006156D01*
X005590Y006051D01*
X005347Y006148D02*
X021975Y006148D01*
X021840Y006099D02*
X021840Y006099D01*
X022222Y006465D02*
X003425Y006465D01*
X003425Y006623D02*
X003532Y006623D01*
X003972Y006623D02*
X004532Y006623D01*
X004553Y006602D02*
X004950Y006602D01*
X005232Y006883D01*
X005232Y007281D01*
X004950Y007562D01*
X004553Y007562D01*
X004272Y007281D01*
X004272Y006883D01*
X004553Y006602D01*
X004373Y006782D02*
X004130Y006782D01*
X004232Y006940D02*
X004272Y006940D01*
X004272Y007099D02*
X004232Y007099D01*
X004232Y007257D02*
X004272Y007257D01*
X004406Y007416D02*
X004097Y007416D01*
X004081Y007733D02*
X004422Y007733D01*
X004553Y007602D02*
X004950Y007602D01*
X005232Y007883D01*
X005232Y008281D01*
X004950Y008562D01*
X004553Y008562D01*
X004272Y008281D01*
X004272Y007883D01*
X004553Y007602D01*
X004272Y007891D02*
X004232Y007891D01*
X004232Y008050D02*
X004272Y008050D01*
X004272Y008208D02*
X004232Y008208D01*
X004146Y008367D02*
X004357Y008367D01*
X004516Y008525D02*
X003987Y008525D01*
X004032Y008684D02*
X004471Y008684D01*
X004553Y008602D02*
X004950Y008602D01*
X005232Y008883D01*
X005232Y009281D01*
X004950Y009562D01*
X004553Y009562D01*
X004272Y009281D01*
X004272Y008883D01*
X004553Y008602D01*
X004313Y008842D02*
X004191Y008842D01*
X004232Y009001D02*
X004272Y009001D01*
X004272Y009159D02*
X004232Y009159D01*
X004195Y009318D02*
X004308Y009318D01*
X004467Y009476D02*
X004036Y009476D01*
X003983Y009635D02*
X004520Y009635D01*
X004553Y009602D02*
X004950Y009602D01*
X005232Y009883D01*
X005232Y010281D01*
X004950Y010562D01*
X004553Y010562D01*
X004272Y010281D01*
X004272Y009883D01*
X004553Y009602D01*
X004362Y009793D02*
X004142Y009793D01*
X004232Y009952D02*
X004272Y009952D01*
X004272Y010110D02*
X004232Y010110D01*
X004232Y010269D02*
X004272Y010269D01*
X004418Y010427D02*
X004085Y010427D01*
X004093Y010744D02*
X004411Y010744D01*
X004272Y010883D02*
X004553Y010602D01*
X004950Y010602D01*
X005232Y010883D01*
X005232Y011281D01*
X004950Y011562D01*
X004553Y011562D01*
X004272Y011281D01*
X004272Y010883D01*
X004272Y010903D02*
X004232Y010903D01*
X004232Y011061D02*
X004272Y011061D01*
X004272Y011220D02*
X004232Y011220D01*
X004134Y011378D02*
X004369Y011378D01*
X004527Y011537D02*
X003976Y011537D01*
X003527Y011537D02*
X003425Y011537D01*
X003425Y011695D02*
X007407Y011695D01*
X007407Y011537D02*
X004976Y011537D01*
X005134Y011378D02*
X007407Y011378D01*
X007407Y011220D02*
X005232Y011220D01*
X005232Y011061D02*
X007407Y011061D01*
X007407Y010903D02*
X005232Y010903D01*
X005093Y010744D02*
X007400Y010744D01*
X007407Y010752D02*
X007100Y010445D01*
X007066Y010445D01*
X006956Y010400D01*
X006871Y010315D01*
X006826Y010205D01*
X006826Y010086D01*
X006871Y009975D01*
X006879Y009968D01*
X006871Y009961D01*
X006826Y009851D01*
X006826Y009731D01*
X006871Y009621D01*
X006879Y009614D01*
X006871Y009607D01*
X006826Y009496D01*
X006826Y009377D01*
X006871Y009267D01*
X006879Y009259D01*
X006871Y009252D01*
X006826Y009142D01*
X006826Y009023D01*
X006871Y008912D01*
X006879Y008905D01*
X006871Y008898D01*
X006826Y008788D01*
X006826Y008668D01*
X006871Y008558D01*
X006956Y008474D01*
X007066Y008428D01*
X007185Y008428D01*
X007296Y008474D01*
X007380Y008558D01*
X007426Y008668D01*
X007426Y008703D01*
X008756Y010033D01*
X008891Y010168D01*
X008891Y010660D01*
X008915Y010684D01*
X008961Y010794D01*
X008961Y010914D01*
X008915Y011024D01*
X008831Y011108D01*
X008721Y011154D01*
X008655Y011154D01*
X008655Y012195D01*
X008679Y012219D01*
X008725Y012330D01*
X008725Y012449D01*
X008679Y012559D01*
X008595Y012644D01*
X008485Y012689D01*
X008471Y012689D01*
X008443Y012756D01*
X008359Y012841D01*
X008248Y012886D01*
X008129Y012886D01*
X008019Y012841D01*
X007934Y012756D01*
X007913Y012705D01*
X007892Y012756D01*
X007807Y012841D01*
X007697Y012886D01*
X007578Y012886D01*
X007468Y012841D01*
X007383Y012756D01*
X007337Y012646D01*
X007337Y012527D01*
X007383Y012416D01*
X007407Y012392D01*
X007407Y010752D01*
X007241Y010586D02*
X003425Y010586D01*
X003425Y009635D02*
X003520Y009635D01*
X003467Y009476D02*
X003425Y009476D01*
X003425Y008684D02*
X003471Y008684D01*
X003425Y008525D02*
X003516Y008525D01*
X003425Y007574D02*
X022112Y007574D01*
X021972Y007714D02*
X022254Y007433D01*
X022651Y007433D01*
X022932Y007714D01*
X022932Y008112D01*
X022651Y008393D01*
X022254Y008393D01*
X021972Y008112D01*
X021972Y007714D01*
X021972Y007733D02*
X014547Y007733D01*
X014585Y007771D02*
X014630Y007881D01*
X014630Y008000D01*
X014585Y008110D01*
X014500Y008195D01*
X014390Y008241D01*
X014271Y008241D01*
X014160Y008195D01*
X014136Y008171D01*
X013777Y008171D01*
X013752Y008195D01*
X013642Y008241D01*
X013523Y008241D01*
X013412Y008195D01*
X013328Y008110D01*
X013282Y008000D01*
X013282Y007881D01*
X013328Y007771D01*
X013412Y007686D01*
X013523Y007641D01*
X013642Y007641D01*
X013752Y007686D01*
X013777Y007711D01*
X014136Y007711D01*
X014160Y007686D01*
X014271Y007641D01*
X014390Y007641D01*
X014500Y007686D01*
X014585Y007771D01*
X014630Y007891D02*
X021972Y007891D01*
X021972Y008050D02*
X014610Y008050D01*
X014468Y008208D02*
X022069Y008208D01*
X022228Y008367D02*
X017228Y008367D01*
X017185Y008349D02*
X017296Y008395D01*
X017380Y008479D01*
X017426Y008590D01*
X017426Y008709D01*
X017380Y008819D01*
X017356Y008843D01*
X017356Y009203D01*
X017372Y009219D01*
X017771Y008821D01*
X017771Y008786D01*
X017816Y008676D01*
X017901Y008592D01*
X018011Y008546D01*
X018130Y008546D01*
X018240Y008592D01*
X018325Y008676D01*
X018371Y008786D01*
X018371Y008906D01*
X018325Y009016D01*
X018240Y009100D01*
X018130Y009146D01*
X018096Y009146D01*
X017276Y009966D01*
X017262Y010000D01*
X017177Y010085D01*
X017067Y010130D01*
X016948Y010130D01*
X016838Y010085D01*
X016753Y010000D01*
X016708Y009890D01*
X016708Y009771D01*
X016753Y009660D01*
X016838Y009576D01*
X016870Y009563D01*
X016826Y009457D01*
X016826Y009338D01*
X016871Y009227D01*
X016896Y009203D01*
X016896Y008843D01*
X016871Y008819D01*
X016826Y008709D01*
X016826Y008590D01*
X016871Y008479D01*
X016956Y008395D01*
X017066Y008349D01*
X017185Y008349D01*
X017023Y008367D02*
X005146Y008367D01*
X005232Y008208D02*
X013445Y008208D01*
X013303Y008050D02*
X005232Y008050D01*
X005232Y007891D02*
X013282Y007891D01*
X013366Y007733D02*
X005081Y007733D01*
X005097Y007416D02*
X023897Y007416D01*
X023897Y007574D02*
X023793Y007574D01*
X023787Y007257D02*
X023897Y007257D01*
X023472Y007257D02*
X023432Y007257D01*
X023432Y007393D02*
X023254Y007393D01*
X022972Y007112D01*
X022972Y006933D01*
X023432Y006933D01*
X023432Y007393D01*
X023432Y007099D02*
X023472Y007099D01*
X023472Y006940D02*
X023432Y006940D01*
X023432Y006782D02*
X023472Y006782D01*
X023472Y006623D02*
X023432Y006623D01*
X023432Y006465D02*
X023472Y006465D01*
X023683Y006465D02*
X023897Y006465D01*
X023897Y006623D02*
X023842Y006623D01*
X023222Y006465D02*
X022683Y006465D01*
X022651Y006433D02*
X022932Y006714D01*
X022932Y007112D01*
X022651Y007393D01*
X022254Y007393D01*
X021972Y007112D01*
X021972Y006714D01*
X022254Y006433D01*
X022651Y006433D01*
X022842Y006623D02*
X023063Y006623D01*
X022972Y006782D02*
X022932Y006782D01*
X022932Y006940D02*
X022972Y006940D01*
X022972Y007099D02*
X022932Y007099D01*
X022787Y007257D02*
X023118Y007257D01*
X023112Y007574D02*
X022793Y007574D01*
X022932Y007733D02*
X022972Y007733D01*
X022972Y007891D02*
X022932Y007891D01*
X022932Y008050D02*
X022972Y008050D01*
X023069Y008208D02*
X022836Y008208D01*
X022677Y008367D02*
X023228Y008367D01*
X023161Y008525D02*
X022744Y008525D01*
X022651Y008433D02*
X022932Y008714D01*
X022932Y009112D01*
X022651Y009393D01*
X022254Y009393D01*
X021972Y009112D01*
X021972Y008714D01*
X022254Y008433D01*
X022651Y008433D01*
X022902Y008684D02*
X023003Y008684D01*
X022972Y008842D02*
X022932Y008842D01*
X022932Y009001D02*
X022972Y009001D01*
X023020Y009159D02*
X022885Y009159D01*
X022726Y009318D02*
X023179Y009318D01*
X023210Y009476D02*
X022695Y009476D01*
X022651Y009433D02*
X022932Y009714D01*
X022932Y010112D01*
X022651Y010393D01*
X022254Y010393D01*
X021972Y010112D01*
X021972Y009714D01*
X022254Y009433D01*
X022651Y009433D01*
X022853Y009635D02*
X023052Y009635D01*
X022972Y009793D02*
X022932Y009793D01*
X022932Y009952D02*
X022972Y009952D01*
X022972Y010110D02*
X022932Y010110D01*
X022775Y010269D02*
X023130Y010269D01*
X023775Y010269D02*
X023897Y010269D01*
X023897Y009635D02*
X023853Y009635D01*
X023897Y009476D02*
X023695Y009476D01*
X023726Y009318D02*
X023897Y009318D01*
X023885Y009159D02*
X023897Y009159D01*
X023897Y008525D02*
X023744Y008525D01*
X023677Y008367D02*
X023897Y008367D01*
X023897Y008208D02*
X023836Y008208D01*
X022161Y008525D02*
X017399Y008525D01*
X017426Y008684D02*
X017813Y008684D01*
X017749Y008842D02*
X017357Y008842D01*
X017356Y009001D02*
X017590Y009001D01*
X017432Y009159D02*
X017356Y009159D01*
X017765Y009476D02*
X018099Y009476D01*
X018258Y009318D02*
X017924Y009318D01*
X018082Y009159D02*
X018416Y009159D01*
X018519Y009057D02*
X018519Y009023D01*
X018564Y008912D01*
X018649Y008828D01*
X018759Y008782D01*
X018878Y008782D01*
X018989Y008828D01*
X019073Y008912D01*
X019119Y009023D01*
X019119Y009076D01*
X019185Y009104D01*
X019270Y009188D01*
X019315Y009298D01*
X019315Y009418D01*
X019270Y009528D01*
X019185Y009612D01*
X019075Y009658D01*
X019041Y009658D01*
X018567Y010131D01*
X018567Y010166D01*
X018522Y010276D01*
X018437Y010360D01*
X018327Y010406D01*
X018208Y010406D01*
X018097Y010360D01*
X018031Y010294D01*
X018004Y010321D01*
X017894Y010367D01*
X017775Y010367D01*
X017664Y010321D01*
X017580Y010236D01*
X017534Y010126D01*
X017534Y010007D01*
X017580Y009897D01*
X017664Y009812D01*
X017775Y009767D01*
X017809Y009767D01*
X018519Y009057D01*
X018528Y009001D02*
X018331Y009001D01*
X018371Y008842D02*
X018634Y008842D01*
X018328Y008684D02*
X022003Y008684D01*
X021972Y008842D02*
X019003Y008842D01*
X019110Y009001D02*
X021972Y009001D01*
X022020Y009159D02*
X019241Y009159D01*
X019315Y009318D02*
X022179Y009318D01*
X022210Y009476D02*
X019291Y009476D01*
X019131Y009635D02*
X022052Y009635D01*
X021972Y009793D02*
X018905Y009793D01*
X018747Y009952D02*
X021972Y009952D01*
X021972Y010110D02*
X018588Y010110D01*
X018525Y010269D02*
X022130Y010269D01*
X021589Y010427D02*
X012543Y010427D01*
X012500Y010445D02*
X012381Y010445D01*
X012271Y010400D01*
X012246Y010375D01*
X011926Y010375D01*
X011902Y010400D01*
X011792Y010445D01*
X011672Y010445D01*
X011562Y010400D01*
X011478Y010315D01*
X011432Y010205D01*
X011432Y010086D01*
X011478Y009975D01*
X011562Y009891D01*
X011672Y009845D01*
X011792Y009845D01*
X011902Y009891D01*
X011926Y009915D01*
X012246Y009915D01*
X012271Y009891D01*
X012381Y009845D01*
X012500Y009845D01*
X012611Y009891D01*
X012695Y009975D01*
X012741Y010086D01*
X012741Y010205D01*
X012695Y010315D01*
X012611Y010400D01*
X012500Y010445D01*
X012338Y010427D02*
X011835Y010427D01*
X011629Y010427D02*
X008891Y010427D01*
X008891Y010269D02*
X011458Y010269D01*
X011432Y010110D02*
X008833Y010110D01*
X008675Y009952D02*
X011501Y009952D01*
X012671Y009952D02*
X016733Y009952D01*
X016708Y009793D02*
X008516Y009793D01*
X008358Y009635D02*
X016779Y009635D01*
X016834Y009476D02*
X008199Y009476D01*
X008041Y009318D02*
X016834Y009318D01*
X016896Y009159D02*
X007882Y009159D01*
X007724Y009001D02*
X016896Y009001D01*
X016895Y008842D02*
X007565Y008842D01*
X007426Y008684D02*
X016826Y008684D01*
X016852Y008525D02*
X007347Y008525D01*
X006904Y008525D02*
X004987Y008525D01*
X005032Y008684D02*
X006826Y008684D01*
X006848Y008842D02*
X005191Y008842D01*
X005232Y009001D02*
X006835Y009001D01*
X006833Y009159D02*
X005232Y009159D01*
X005195Y009318D02*
X006850Y009318D01*
X006826Y009476D02*
X005036Y009476D01*
X004983Y009635D02*
X006866Y009635D01*
X006826Y009793D02*
X005142Y009793D01*
X005232Y009952D02*
X006868Y009952D01*
X006826Y010110D02*
X005232Y010110D01*
X005232Y010269D02*
X006852Y010269D01*
X007023Y010427D02*
X005085Y010427D01*
X006438Y011826D02*
X006523Y011741D01*
X006633Y011696D01*
X006752Y011696D01*
X006863Y011741D01*
X006947Y011826D01*
X006975Y011893D01*
X006988Y011893D01*
X007099Y011938D01*
X007183Y012023D01*
X007229Y012133D01*
X007229Y012252D01*
X007183Y012362D01*
X007099Y012447D01*
X006988Y012493D01*
X006946Y012493D01*
X006395Y013012D01*
X006330Y013077D01*
X006326Y013077D01*
X006323Y013080D01*
X006232Y013077D01*
X006065Y013077D01*
X006041Y013101D01*
X005930Y013147D01*
X005811Y013147D01*
X005701Y013101D01*
X005616Y013017D01*
X005571Y012907D01*
X005571Y012787D01*
X005614Y012684D01*
X005576Y012592D01*
X005576Y012472D01*
X005621Y012362D01*
X005706Y012278D01*
X005816Y012232D01*
X005935Y012232D01*
X006046Y012278D01*
X006049Y012281D01*
X006393Y011961D01*
X006393Y011936D01*
X006438Y011826D01*
X006427Y011854D02*
X003425Y011854D01*
X003425Y012012D02*
X006337Y012012D01*
X006167Y012171D02*
X003425Y012171D01*
X003425Y012329D02*
X005654Y012329D01*
X005576Y012488D02*
X003425Y012488D01*
X003425Y012646D02*
X005598Y012646D01*
X005571Y012805D02*
X003425Y012805D01*
X003425Y012963D02*
X005594Y012963D01*
X005750Y013122D02*
X003425Y013122D01*
X003425Y013280D02*
X021513Y013280D01*
X021513Y013122D02*
X005991Y013122D01*
X006447Y012963D02*
X021513Y012963D01*
X021513Y012805D02*
X008394Y012805D01*
X008588Y012646D02*
X021513Y012646D01*
X021513Y012488D02*
X008709Y012488D01*
X008725Y012329D02*
X021513Y012329D01*
X021513Y012171D02*
X008655Y012171D01*
X008655Y012012D02*
X021513Y012012D01*
X021513Y011854D02*
X008655Y011854D01*
X008655Y011695D02*
X021513Y011695D01*
X021513Y011537D02*
X008655Y011537D01*
X008655Y011378D02*
X021513Y011378D01*
X021513Y011220D02*
X008655Y011220D01*
X008878Y011061D02*
X021513Y011061D01*
X021513Y010903D02*
X008961Y010903D01*
X008940Y010744D02*
X021513Y010744D01*
X021513Y010586D02*
X008891Y010586D01*
X007407Y011854D02*
X006959Y011854D01*
X007173Y012012D02*
X007407Y012012D01*
X007407Y012171D02*
X007229Y012171D01*
X007197Y012329D02*
X007407Y012329D01*
X007353Y012488D02*
X007000Y012488D01*
X006783Y012646D02*
X007338Y012646D01*
X007432Y012805D02*
X006615Y012805D01*
X007843Y012805D02*
X007983Y012805D01*
X009318Y014182D02*
X009428Y014137D01*
X009548Y014137D01*
X009658Y014182D01*
X009742Y014267D01*
X009788Y014377D01*
X009788Y014496D01*
X009742Y014607D01*
X009725Y014624D01*
X012026Y016925D01*
X012105Y016893D01*
X012225Y016893D01*
X012335Y016938D01*
X012419Y017023D01*
X012465Y017133D01*
X012465Y017252D01*
X012419Y017362D01*
X012335Y017447D01*
X012229Y017491D01*
X012229Y017567D01*
X012183Y017677D01*
X012099Y017762D01*
X011988Y017807D01*
X011869Y017807D01*
X011759Y017762D01*
X011674Y017677D01*
X011629Y017567D01*
X011629Y017533D01*
X009266Y015170D01*
X009231Y015170D01*
X009121Y015124D01*
X009037Y015040D01*
X008991Y014929D01*
X008991Y014810D01*
X009037Y014700D01*
X009121Y014615D01*
X009220Y014574D01*
X009188Y014496D01*
X009188Y014377D01*
X009234Y014267D01*
X009318Y014182D01*
X009269Y014231D02*
X003425Y014231D01*
X003425Y014073D02*
X021513Y014073D01*
X021513Y014231D02*
X009707Y014231D01*
X009788Y014390D02*
X021513Y014390D01*
X021513Y014548D02*
X009766Y014548D01*
X009808Y014707D02*
X021513Y014707D01*
X021513Y014865D02*
X009966Y014865D01*
X010125Y015024D02*
X021513Y015024D01*
X021513Y015182D02*
X010283Y015182D01*
X010442Y015341D02*
X021513Y015341D01*
X021513Y015499D02*
X010600Y015499D01*
X010759Y015658D02*
X021513Y015658D01*
X021513Y015816D02*
X010917Y015816D01*
X011076Y015975D02*
X021513Y015975D01*
X021513Y016133D02*
X011234Y016133D01*
X011393Y016292D02*
X021513Y016292D01*
X021513Y016450D02*
X011551Y016450D01*
X011710Y016609D02*
X021513Y016609D01*
X021603Y016767D02*
X011868Y016767D01*
X012305Y016926D02*
X023897Y016926D01*
X023897Y017084D02*
X012445Y017084D01*
X012465Y017243D02*
X023897Y017243D01*
X023897Y017401D02*
X012380Y017401D01*
X012229Y017560D02*
X023897Y017560D01*
X023897Y017718D02*
X012142Y017718D01*
X011715Y017718D02*
X006945Y017718D01*
X006941Y017722D02*
X006831Y017768D01*
X006712Y017768D01*
X006601Y017722D01*
X006581Y017702D01*
X006516Y017729D01*
X006397Y017729D01*
X006286Y017683D01*
X006266Y017663D01*
X006201Y017689D01*
X006082Y017689D01*
X005971Y017644D01*
X005887Y017559D01*
X005841Y017449D01*
X005841Y017330D01*
X005887Y017219D01*
X005911Y017195D01*
X005911Y016875D01*
X005887Y016851D01*
X005841Y016740D01*
X005841Y016621D01*
X005887Y016511D01*
X005971Y016426D01*
X006082Y016381D01*
X006201Y016381D01*
X006311Y016426D01*
X006360Y016475D01*
X006397Y016459D01*
X006516Y016459D01*
X006614Y016500D01*
X006712Y016459D01*
X006831Y016459D01*
X006941Y016505D01*
X007026Y016590D01*
X007071Y016700D01*
X007071Y016819D01*
X007026Y016929D01*
X007001Y016954D01*
X007001Y017274D01*
X007026Y017298D01*
X007071Y017408D01*
X007071Y017528D01*
X007026Y017638D01*
X006941Y017722D01*
X007058Y017560D02*
X011629Y017560D01*
X011497Y017401D02*
X007068Y017401D01*
X007001Y017243D02*
X011339Y017243D01*
X011180Y017084D02*
X007001Y017084D01*
X007027Y016926D02*
X011022Y016926D01*
X010863Y016767D02*
X007071Y016767D01*
X007034Y016609D02*
X010705Y016609D01*
X010546Y016450D02*
X006335Y016450D01*
X005947Y016450D02*
X003425Y016450D01*
X003425Y016292D02*
X004383Y016292D01*
X004397Y016305D02*
X004312Y016221D01*
X004267Y016110D01*
X004267Y015991D01*
X004312Y015881D01*
X004397Y015796D01*
X004507Y015751D01*
X004541Y015751D01*
X005470Y014822D01*
X005642Y014822D01*
X005666Y014797D01*
X005777Y014752D01*
X005896Y014752D01*
X006006Y014797D01*
X006091Y014882D01*
X006136Y014992D01*
X006136Y015111D01*
X006091Y015222D01*
X006006Y015306D01*
X005896Y015352D01*
X005777Y015352D01*
X005666Y015306D01*
X005651Y015291D01*
X004867Y016076D01*
X004867Y016110D01*
X004821Y016221D01*
X004737Y016305D01*
X004626Y016351D01*
X004507Y016351D01*
X004397Y016305D01*
X004276Y016133D02*
X003425Y016133D01*
X003425Y015975D02*
X004273Y015975D01*
X004377Y015816D02*
X003425Y015816D01*
X003425Y015658D02*
X004634Y015658D01*
X004793Y015499D02*
X003425Y015499D01*
X003425Y015341D02*
X004951Y015341D01*
X005110Y015182D02*
X003425Y015182D01*
X003425Y015024D02*
X005268Y015024D01*
X005427Y014865D02*
X003425Y014865D01*
X003425Y014707D02*
X009034Y014707D01*
X008991Y014865D02*
X006074Y014865D01*
X006136Y015024D02*
X009030Y015024D01*
X009278Y015182D02*
X006107Y015182D01*
X005922Y015341D02*
X009437Y015341D01*
X009595Y015499D02*
X005443Y015499D01*
X005602Y015341D02*
X005750Y015341D01*
X005285Y015658D02*
X009754Y015658D01*
X009912Y015816D02*
X005126Y015816D01*
X004968Y015975D02*
X010071Y015975D01*
X010229Y016133D02*
X004857Y016133D01*
X004750Y016292D02*
X010388Y016292D01*
X009209Y014548D02*
X003425Y014548D01*
X003425Y014390D02*
X009188Y014390D01*
X005846Y016609D02*
X003425Y016609D01*
X003425Y016767D02*
X005853Y016767D01*
X005911Y016926D02*
X003425Y016926D01*
X003425Y017084D02*
X005911Y017084D01*
X005877Y017243D02*
X003425Y017243D01*
X003425Y017401D02*
X005841Y017401D01*
X005888Y017560D02*
X003425Y017560D01*
X003425Y017718D02*
X006372Y017718D01*
X006541Y017718D02*
X006597Y017718D01*
X005497Y018194D02*
X023897Y018194D01*
X023897Y018352D02*
X005465Y018352D01*
X005389Y018511D02*
X023897Y018511D01*
X023897Y018669D02*
X005389Y018669D01*
X005389Y018828D02*
X023897Y018828D01*
X023897Y018986D02*
X005235Y018986D01*
X005108Y019153D02*
X005389Y019435D01*
X005389Y019832D01*
X005108Y020113D01*
X004710Y020113D01*
X004429Y019832D01*
X004429Y019435D01*
X004710Y019153D01*
X005108Y019153D01*
X005258Y019303D02*
X023897Y019303D01*
X023897Y019145D02*
X004317Y019145D01*
X004258Y019303D02*
X004560Y019303D01*
X004429Y019462D02*
X004389Y019462D01*
X004389Y019620D02*
X004429Y019620D01*
X004429Y019779D02*
X004389Y019779D01*
X004284Y019937D02*
X004534Y019937D01*
X004693Y020096D02*
X004125Y020096D01*
X004209Y020254D02*
X004609Y020254D01*
X004710Y020153D02*
X004429Y020435D01*
X004429Y020832D01*
X004710Y021113D01*
X005108Y021113D01*
X005389Y020832D01*
X005389Y020435D01*
X005108Y020153D01*
X004710Y020153D01*
X004451Y020413D02*
X004367Y020413D01*
X004389Y020571D02*
X004429Y020571D01*
X004429Y020730D02*
X004389Y020730D01*
X004333Y020888D02*
X004485Y020888D01*
X004644Y021047D02*
X004174Y021047D01*
X003644Y021047D02*
X003425Y021047D01*
X003425Y021205D02*
X019600Y021205D01*
X019610Y021196D02*
X019735Y021144D01*
X019870Y021144D01*
X019995Y021196D01*
X020074Y021274D01*
X020170Y021370D01*
X020222Y021495D01*
X020222Y022654D01*
X020170Y022779D01*
X020074Y022874D01*
X019949Y022926D01*
X019814Y022926D01*
X019689Y022874D01*
X019593Y022779D01*
X019542Y022654D01*
X019542Y021703D01*
X019515Y021676D01*
X019463Y021551D01*
X019463Y021416D01*
X019515Y021291D01*
X019610Y021196D01*
X019484Y021364D02*
X017587Y021364D01*
X017571Y021348D02*
X017656Y021432D01*
X017701Y021542D01*
X017701Y021655D01*
X017781Y021735D01*
X017815Y021735D01*
X017926Y021781D01*
X018010Y021865D01*
X018056Y021975D01*
X018056Y022095D01*
X018010Y022205D01*
X017926Y022289D01*
X017815Y022335D01*
X017696Y022335D01*
X017586Y022289D01*
X017501Y022205D01*
X017456Y022095D01*
X017456Y022060D01*
X017266Y021871D01*
X017231Y021856D01*
X017147Y021772D01*
X017101Y021662D01*
X017101Y021542D01*
X017147Y021432D01*
X017231Y021348D01*
X017342Y021302D01*
X017461Y021302D01*
X017571Y021348D01*
X017693Y021522D02*
X019463Y021522D01*
X019519Y021681D02*
X017727Y021681D01*
X017984Y021839D02*
X019542Y021839D01*
X019542Y021998D02*
X018056Y021998D01*
X018030Y022156D02*
X019542Y022156D01*
X019542Y022315D02*
X017864Y022315D01*
X017647Y022315D02*
X005916Y022315D01*
X005906Y022256D02*
X005964Y022586D01*
X005906Y022916D01*
X005906Y022916D01*
X005739Y023206D01*
X005482Y023422D01*
X005167Y023536D01*
X004832Y023536D01*
X004517Y023422D01*
X004261Y023206D01*
X004093Y022916D01*
X004035Y022586D01*
X004093Y022256D01*
X004261Y021966D01*
X004517Y021751D01*
X004832Y021636D01*
X005091Y021636D01*
X005167Y021636D01*
X005167Y021636D01*
X005482Y021751D01*
X005739Y021966D01*
X005739Y021966D01*
X005739Y021966D01*
X005906Y022256D01*
X005906Y022256D01*
X005848Y022156D02*
X017481Y022156D01*
X017393Y021998D02*
X005757Y021998D01*
X005588Y021839D02*
X017214Y021839D01*
X017109Y021681D02*
X005290Y021681D01*
X005482Y021751D02*
X005482Y021751D01*
X005174Y021047D02*
X023897Y021047D01*
X023897Y021205D02*
X020005Y021205D01*
X020164Y021364D02*
X023897Y021364D01*
X023897Y021522D02*
X020222Y021522D01*
X020222Y021681D02*
X022032Y021681D01*
X022155Y021636D02*
X021840Y021751D01*
X021840Y021751D01*
X021584Y021966D01*
X021584Y021966D01*
X021416Y022256D01*
X021416Y022256D01*
X021358Y022586D01*
X021358Y022586D01*
X021416Y022916D01*
X021416Y022916D01*
X021584Y023206D01*
X021584Y023206D01*
X021584Y023206D01*
X021840Y023422D01*
X021840Y023422D01*
X022155Y023536D01*
X022490Y023536D01*
X022805Y023422D01*
X022805Y023422D01*
X023061Y023206D01*
X023061Y023206D01*
X023229Y022916D01*
X023229Y022916D01*
X023287Y022586D01*
X023287Y022586D01*
X023229Y022256D01*
X023229Y022256D01*
X023061Y021966D01*
X023061Y021966D01*
X022805Y021751D01*
X022805Y021751D01*
X022490Y021636D01*
X022414Y021636D01*
X022155Y021636D01*
X022490Y021636D02*
X022490Y021636D01*
X022613Y021681D02*
X023897Y021681D01*
X023897Y021839D02*
X022910Y021839D01*
X023061Y021966D02*
X023061Y021966D01*
X023080Y021998D02*
X023897Y021998D01*
X023897Y022156D02*
X023171Y022156D01*
X023239Y022315D02*
X023897Y022315D01*
X023897Y022473D02*
X023267Y022473D01*
X023279Y022632D02*
X023890Y022632D01*
X023833Y022790D02*
X023251Y022790D01*
X023210Y022949D02*
X023775Y022949D01*
X023693Y023107D02*
X023119Y023107D01*
X022990Y023266D02*
X023601Y023266D01*
X023510Y023424D02*
X022797Y023424D01*
X023279Y023741D02*
X004043Y023741D01*
X003910Y023583D02*
X023412Y023583D01*
X023146Y023900D02*
X004176Y023900D01*
X004309Y024058D02*
X023013Y024058D01*
X022826Y024217D02*
X004497Y024217D01*
X004685Y024375D02*
X011577Y024375D01*
X011368Y024462D02*
X011368Y024462D01*
X011296Y024534D02*
X004902Y024534D01*
X005177Y024692D02*
X011178Y024692D01*
X011206Y024623D02*
X011206Y024623D01*
X011119Y024851D02*
X005492Y024851D01*
X005474Y023424D02*
X021848Y023424D01*
X021655Y023266D02*
X005668Y023266D01*
X005739Y023206D02*
X005739Y023206D01*
X005796Y023107D02*
X021526Y023107D01*
X021435Y022949D02*
X005887Y022949D01*
X005928Y022790D02*
X019605Y022790D01*
X019542Y022632D02*
X005956Y022632D01*
X005964Y022586D02*
X005964Y022586D01*
X005944Y022473D02*
X019542Y022473D01*
X020222Y022473D02*
X021378Y022473D01*
X021366Y022632D02*
X020222Y022632D01*
X020158Y022790D02*
X021394Y022790D01*
X021406Y022315D02*
X020222Y022315D01*
X020222Y022156D02*
X021474Y022156D01*
X021565Y021998D02*
X020222Y021998D01*
X020222Y021839D02*
X021735Y021839D01*
X023897Y020888D02*
X005333Y020888D01*
X005389Y020730D02*
X023897Y020730D01*
X023897Y020571D02*
X005389Y020571D01*
X005367Y020413D02*
X023897Y020413D01*
X023897Y020254D02*
X005209Y020254D01*
X005125Y020096D02*
X023897Y020096D01*
X023897Y019937D02*
X005284Y019937D01*
X005389Y019779D02*
X023897Y019779D01*
X023897Y019620D02*
X005389Y019620D01*
X005389Y019462D02*
X023897Y019462D01*
X023897Y018035D02*
X005440Y018035D01*
X004929Y018669D02*
X004889Y018669D01*
X004889Y018828D02*
X004929Y018828D01*
X004929Y018986D02*
X004889Y018986D01*
X004583Y018986D02*
X004476Y018986D01*
X004382Y018194D02*
X004148Y018194D01*
X004540Y018035D02*
X003425Y018035D01*
X003425Y017877D02*
X023897Y017877D01*
X021513Y013914D02*
X003425Y013914D01*
X003425Y013756D02*
X021513Y013756D01*
X021513Y013597D02*
X003425Y013597D01*
X003425Y013439D02*
X021513Y013439D01*
X017941Y009635D02*
X017607Y009635D01*
X017710Y009793D02*
X017448Y009793D01*
X017557Y009952D02*
X017290Y009952D01*
X017115Y010110D02*
X017534Y010110D01*
X017612Y010269D02*
X012714Y010269D01*
X012741Y010110D02*
X016900Y010110D01*
X014193Y008208D02*
X013720Y008208D01*
X014074Y005672D02*
X013248Y005672D01*
X012973Y005672D02*
X012624Y005672D01*
X012690Y005514D02*
X012713Y005514D01*
X012484Y005831D02*
X014838Y005831D01*
X014698Y005672D02*
X014349Y005672D01*
X014609Y005514D02*
X014632Y005514D01*
X014702Y004880D02*
X014979Y004880D01*
X015376Y004880D02*
X018759Y004880D01*
X018788Y004721D02*
X014577Y004721D01*
X013846Y004721D02*
X013476Y004721D01*
X013601Y004880D02*
X013722Y004880D01*
X013661Y005038D02*
X013662Y005038D01*
X013661Y005197D02*
X013662Y005197D01*
X013708Y005355D02*
X013614Y005355D01*
X013508Y005514D02*
X013814Y005514D01*
X012745Y004721D02*
X008471Y004721D01*
X008345Y004880D02*
X011946Y004880D01*
X011721Y005038D02*
X007924Y005038D01*
X007925Y005197D02*
X011630Y005197D01*
X011595Y005355D02*
X007925Y005355D01*
X007873Y005514D02*
X011600Y005514D01*
X012344Y004880D02*
X012621Y004880D01*
X015601Y005038D02*
X018796Y005038D01*
X018921Y005197D02*
X015692Y005197D01*
X021972Y006782D02*
X005130Y006782D01*
X005232Y006940D02*
X021972Y006940D01*
X021972Y007099D02*
X005232Y007099D01*
X005232Y007257D02*
X022118Y007257D01*
X022063Y006623D02*
X004972Y006623D01*
X007269Y004721D02*
X007560Y004721D01*
X007505Y004563D02*
X007320Y004563D01*
X007318Y004404D02*
X007505Y004404D01*
X007563Y004246D02*
X007264Y004246D01*
X007131Y004087D02*
X007695Y004087D01*
X003670Y018194D02*
X003425Y018194D01*
X003425Y018352D02*
X003511Y018352D01*
X003429Y018511D02*
X003425Y018511D01*
X003425Y018669D02*
X003429Y018669D01*
X003425Y018828D02*
X003429Y018828D01*
X003425Y018986D02*
X003583Y018986D01*
X003431Y019145D02*
X003425Y019145D01*
X003425Y020571D02*
X003429Y020571D01*
X003425Y020730D02*
X003429Y020730D01*
X003425Y020888D02*
X003485Y020888D01*
X003425Y021364D02*
X017215Y021364D01*
X017109Y021522D02*
X003425Y021522D01*
X003425Y021681D02*
X004709Y021681D01*
X004517Y021751D02*
X004517Y021751D01*
X004412Y021839D02*
X003425Y021839D01*
X003425Y021998D02*
X004242Y021998D01*
X004261Y021966D02*
X004261Y021966D01*
X004151Y022156D02*
X003425Y022156D01*
X003425Y022315D02*
X004083Y022315D01*
X004093Y022256D02*
X004093Y022256D01*
X004055Y022473D02*
X003425Y022473D01*
X003432Y022632D02*
X004043Y022632D01*
X004035Y022586D02*
X004035Y022586D01*
X004071Y022790D02*
X003489Y022790D01*
X003547Y022949D02*
X004112Y022949D01*
X004093Y022916D02*
X004093Y022916D01*
X004204Y023107D02*
X003629Y023107D01*
X003721Y023266D02*
X004332Y023266D01*
X004261Y023206D02*
X004261Y023206D01*
X004261Y023206D01*
X004517Y023422D02*
X004517Y023422D01*
X004525Y023424D02*
X003812Y023424D01*
X005482Y023422D02*
X005482Y023422D01*
X015745Y024375D02*
X022637Y024375D01*
X022420Y024534D02*
X016026Y024534D01*
X015955Y024462D02*
X015955Y024462D01*
X016145Y024692D02*
X022146Y024692D01*
X021830Y024851D02*
X016203Y024851D01*
D20*
X019803Y021484D02*
X019882Y021563D01*
X019882Y022586D01*
M02*
