G75*
%MOIN*%
%OFA0B0*%
%FSLAX24Y24*%
%IPPOS*%
%LPD*%
%AMOC8*
5,1,8,0,0,1.08239X$1,22.5*
%
%ADD10C,0.0000*%
%ADD11C,0.1340*%
%ADD12OC8,0.0640*%
%ADD13C,0.0516*%
%ADD14C,0.0780*%
%ADD15OC8,0.0594*%
%ADD16C,0.0476*%
%ADD17C,0.0700*%
%ADD18OC8,0.0700*%
D10*
X007744Y006169D02*
X022705Y006169D01*
X023236Y008138D02*
X023238Y008188D01*
X023244Y008238D01*
X023254Y008288D01*
X023267Y008336D01*
X023284Y008384D01*
X023305Y008430D01*
X023329Y008474D01*
X023357Y008516D01*
X023388Y008556D01*
X023422Y008593D01*
X023459Y008628D01*
X023498Y008659D01*
X023539Y008688D01*
X023583Y008713D01*
X023629Y008735D01*
X023676Y008753D01*
X023724Y008767D01*
X023773Y008778D01*
X023823Y008785D01*
X023873Y008788D01*
X023924Y008787D01*
X023974Y008782D01*
X024024Y008773D01*
X024072Y008761D01*
X024120Y008744D01*
X024166Y008724D01*
X024211Y008701D01*
X024254Y008674D01*
X024294Y008644D01*
X024332Y008611D01*
X024367Y008575D01*
X024400Y008536D01*
X024429Y008495D01*
X024455Y008452D01*
X024478Y008407D01*
X024497Y008360D01*
X024512Y008312D01*
X024524Y008263D01*
X024532Y008213D01*
X024536Y008163D01*
X024536Y008113D01*
X024532Y008063D01*
X024524Y008013D01*
X024512Y007964D01*
X024497Y007916D01*
X024478Y007869D01*
X024455Y007824D01*
X024429Y007781D01*
X024400Y007740D01*
X024367Y007701D01*
X024332Y007665D01*
X024294Y007632D01*
X024254Y007602D01*
X024211Y007575D01*
X024166Y007552D01*
X024120Y007532D01*
X024072Y007515D01*
X024024Y007503D01*
X023974Y007494D01*
X023924Y007489D01*
X023873Y007488D01*
X023823Y007491D01*
X023773Y007498D01*
X023724Y007509D01*
X023676Y007523D01*
X023629Y007541D01*
X023583Y007563D01*
X023539Y007588D01*
X023498Y007617D01*
X023459Y007648D01*
X023422Y007683D01*
X023388Y007720D01*
X023357Y007760D01*
X023329Y007802D01*
X023305Y007846D01*
X023284Y007892D01*
X023267Y007940D01*
X023254Y007988D01*
X023244Y008038D01*
X023238Y008088D01*
X023236Y008138D01*
X022705Y006169D02*
X022815Y006171D01*
X022925Y006177D01*
X023034Y006186D01*
X023143Y006200D01*
X023252Y006217D01*
X023360Y006238D01*
X023467Y006263D01*
X023573Y006291D01*
X023678Y006323D01*
X023782Y006359D01*
X023885Y006398D01*
X023986Y006441D01*
X024086Y006488D01*
X024184Y006538D01*
X024280Y006591D01*
X024374Y006648D01*
X024466Y006708D01*
X024557Y006771D01*
X024644Y006837D01*
X024730Y006906D01*
X024813Y006978D01*
X024893Y007053D01*
X024971Y007131D01*
X025046Y007211D01*
X025118Y007294D01*
X025187Y007380D01*
X025253Y007467D01*
X025316Y007558D01*
X025376Y007650D01*
X025433Y007744D01*
X025486Y007840D01*
X025536Y007938D01*
X025583Y008038D01*
X025626Y008139D01*
X025665Y008242D01*
X025701Y008346D01*
X025733Y008451D01*
X025761Y008557D01*
X025786Y008664D01*
X025807Y008772D01*
X025824Y008881D01*
X025838Y008990D01*
X025847Y009099D01*
X025853Y009209D01*
X025855Y009319D01*
X025854Y009319D02*
X025854Y013059D01*
X025855Y013059D02*
X025853Y013098D01*
X025847Y013136D01*
X025838Y013173D01*
X025825Y013210D01*
X025808Y013245D01*
X025789Y013278D01*
X025766Y013309D01*
X025740Y013338D01*
X025711Y013364D01*
X025680Y013387D01*
X025647Y013406D01*
X025612Y013423D01*
X025575Y013436D01*
X025538Y013445D01*
X025500Y013451D01*
X025461Y013453D01*
X023256Y013453D01*
X023256Y019398D01*
X023256Y019476D01*
X025461Y019476D01*
X025500Y019478D01*
X025538Y019484D01*
X025575Y019493D01*
X025612Y019506D01*
X025647Y019523D01*
X025680Y019542D01*
X025711Y019565D01*
X025740Y019591D01*
X025766Y019620D01*
X025789Y019651D01*
X025808Y019684D01*
X025825Y019719D01*
X025838Y019756D01*
X025847Y019793D01*
X025853Y019831D01*
X025855Y019870D01*
X025854Y019870D02*
X025854Y024280D01*
X023236Y025461D02*
X023238Y025511D01*
X023244Y025561D01*
X023254Y025611D01*
X023267Y025659D01*
X023284Y025707D01*
X023305Y025753D01*
X023329Y025797D01*
X023357Y025839D01*
X023388Y025879D01*
X023422Y025916D01*
X023459Y025951D01*
X023498Y025982D01*
X023539Y026011D01*
X023583Y026036D01*
X023629Y026058D01*
X023676Y026076D01*
X023724Y026090D01*
X023773Y026101D01*
X023823Y026108D01*
X023873Y026111D01*
X023924Y026110D01*
X023974Y026105D01*
X024024Y026096D01*
X024072Y026084D01*
X024120Y026067D01*
X024166Y026047D01*
X024211Y026024D01*
X024254Y025997D01*
X024294Y025967D01*
X024332Y025934D01*
X024367Y025898D01*
X024400Y025859D01*
X024429Y025818D01*
X024455Y025775D01*
X024478Y025730D01*
X024497Y025683D01*
X024512Y025635D01*
X024524Y025586D01*
X024532Y025536D01*
X024536Y025486D01*
X024536Y025436D01*
X024532Y025386D01*
X024524Y025336D01*
X024512Y025287D01*
X024497Y025239D01*
X024478Y025192D01*
X024455Y025147D01*
X024429Y025104D01*
X024400Y025063D01*
X024367Y025024D01*
X024332Y024988D01*
X024294Y024955D01*
X024254Y024925D01*
X024211Y024898D01*
X024166Y024875D01*
X024120Y024855D01*
X024072Y024838D01*
X024024Y024826D01*
X023974Y024817D01*
X023924Y024812D01*
X023873Y024811D01*
X023823Y024814D01*
X023773Y024821D01*
X023724Y024832D01*
X023676Y024846D01*
X023629Y024864D01*
X023583Y024886D01*
X023539Y024911D01*
X023498Y024940D01*
X023459Y024971D01*
X023422Y025006D01*
X023388Y025043D01*
X023357Y025083D01*
X023329Y025125D01*
X023305Y025169D01*
X023284Y025215D01*
X023267Y025263D01*
X023254Y025311D01*
X023244Y025361D01*
X023238Y025411D01*
X023236Y025461D01*
X025854Y024280D02*
X025852Y024404D01*
X025846Y024527D01*
X025837Y024651D01*
X025823Y024773D01*
X025806Y024896D01*
X025784Y025018D01*
X025759Y025139D01*
X025730Y025259D01*
X025698Y025378D01*
X025661Y025497D01*
X025621Y025614D01*
X025578Y025729D01*
X025530Y025844D01*
X025479Y025956D01*
X025425Y026067D01*
X025367Y026177D01*
X025306Y026284D01*
X025241Y026390D01*
X025173Y026493D01*
X025102Y026594D01*
X025028Y026693D01*
X024951Y026790D01*
X024870Y026884D01*
X024787Y026975D01*
X024701Y027064D01*
X024612Y027150D01*
X024521Y027233D01*
X024427Y027314D01*
X024330Y027391D01*
X024231Y027465D01*
X024130Y027536D01*
X024027Y027604D01*
X023921Y027669D01*
X023814Y027730D01*
X023704Y027788D01*
X023593Y027842D01*
X023481Y027893D01*
X023366Y027941D01*
X023251Y027984D01*
X023134Y028024D01*
X023015Y028061D01*
X022896Y028093D01*
X022776Y028122D01*
X022655Y028147D01*
X022533Y028169D01*
X022410Y028186D01*
X022288Y028200D01*
X022164Y028209D01*
X022041Y028215D01*
X021917Y028217D01*
X017980Y028217D01*
X017941Y028215D01*
X017903Y028209D01*
X017866Y028200D01*
X017829Y028187D01*
X017794Y028170D01*
X017761Y028151D01*
X017730Y028128D01*
X017701Y028102D01*
X017675Y028073D01*
X017652Y028042D01*
X017633Y028009D01*
X017616Y027974D01*
X017603Y027937D01*
X017594Y027900D01*
X017588Y027862D01*
X017586Y027823D01*
X017587Y027823D02*
X017585Y027784D01*
X017579Y027746D01*
X017570Y027709D01*
X017557Y027672D01*
X017540Y027637D01*
X017521Y027604D01*
X017498Y027573D01*
X017472Y027544D01*
X017443Y027518D01*
X017412Y027495D01*
X017379Y027476D01*
X017344Y027459D01*
X017307Y027446D01*
X017270Y027437D01*
X017232Y027431D01*
X017193Y027429D01*
X013256Y027429D01*
X013217Y027431D01*
X013179Y027437D01*
X013142Y027446D01*
X013105Y027459D01*
X013070Y027476D01*
X013037Y027495D01*
X013006Y027518D01*
X012977Y027544D01*
X012951Y027573D01*
X012928Y027604D01*
X012909Y027637D01*
X012892Y027672D01*
X012879Y027709D01*
X012870Y027746D01*
X012864Y027784D01*
X012862Y027823D01*
X012863Y027823D02*
X012861Y027862D01*
X012855Y027900D01*
X012846Y027937D01*
X012833Y027974D01*
X012816Y028009D01*
X012797Y028042D01*
X012774Y028073D01*
X012748Y028102D01*
X012719Y028128D01*
X012688Y028151D01*
X012655Y028170D01*
X012620Y028187D01*
X012583Y028200D01*
X012546Y028209D01*
X012508Y028215D01*
X012469Y028217D01*
X008531Y028217D01*
X005913Y025461D02*
X005915Y025511D01*
X005921Y025561D01*
X005931Y025611D01*
X005944Y025659D01*
X005961Y025707D01*
X005982Y025753D01*
X006006Y025797D01*
X006034Y025839D01*
X006065Y025879D01*
X006099Y025916D01*
X006136Y025951D01*
X006175Y025982D01*
X006216Y026011D01*
X006260Y026036D01*
X006306Y026058D01*
X006353Y026076D01*
X006401Y026090D01*
X006450Y026101D01*
X006500Y026108D01*
X006550Y026111D01*
X006601Y026110D01*
X006651Y026105D01*
X006701Y026096D01*
X006749Y026084D01*
X006797Y026067D01*
X006843Y026047D01*
X006888Y026024D01*
X006931Y025997D01*
X006971Y025967D01*
X007009Y025934D01*
X007044Y025898D01*
X007077Y025859D01*
X007106Y025818D01*
X007132Y025775D01*
X007155Y025730D01*
X007174Y025683D01*
X007189Y025635D01*
X007201Y025586D01*
X007209Y025536D01*
X007213Y025486D01*
X007213Y025436D01*
X007209Y025386D01*
X007201Y025336D01*
X007189Y025287D01*
X007174Y025239D01*
X007155Y025192D01*
X007132Y025147D01*
X007106Y025104D01*
X007077Y025063D01*
X007044Y025024D01*
X007009Y024988D01*
X006971Y024955D01*
X006931Y024925D01*
X006888Y024898D01*
X006843Y024875D01*
X006797Y024855D01*
X006749Y024838D01*
X006701Y024826D01*
X006651Y024817D01*
X006601Y024812D01*
X006550Y024811D01*
X006500Y024814D01*
X006450Y024821D01*
X006401Y024832D01*
X006353Y024846D01*
X006306Y024864D01*
X006260Y024886D01*
X006216Y024911D01*
X006175Y024940D01*
X006136Y024971D01*
X006099Y025006D01*
X006065Y025043D01*
X006034Y025083D01*
X006006Y025125D01*
X005982Y025169D01*
X005961Y025215D01*
X005944Y025263D01*
X005931Y025311D01*
X005921Y025361D01*
X005915Y025411D01*
X005913Y025461D01*
X004594Y024280D02*
X004594Y009319D01*
X005913Y008138D02*
X005915Y008188D01*
X005921Y008238D01*
X005931Y008288D01*
X005944Y008336D01*
X005961Y008384D01*
X005982Y008430D01*
X006006Y008474D01*
X006034Y008516D01*
X006065Y008556D01*
X006099Y008593D01*
X006136Y008628D01*
X006175Y008659D01*
X006216Y008688D01*
X006260Y008713D01*
X006306Y008735D01*
X006353Y008753D01*
X006401Y008767D01*
X006450Y008778D01*
X006500Y008785D01*
X006550Y008788D01*
X006601Y008787D01*
X006651Y008782D01*
X006701Y008773D01*
X006749Y008761D01*
X006797Y008744D01*
X006843Y008724D01*
X006888Y008701D01*
X006931Y008674D01*
X006971Y008644D01*
X007009Y008611D01*
X007044Y008575D01*
X007077Y008536D01*
X007106Y008495D01*
X007132Y008452D01*
X007155Y008407D01*
X007174Y008360D01*
X007189Y008312D01*
X007201Y008263D01*
X007209Y008213D01*
X007213Y008163D01*
X007213Y008113D01*
X007209Y008063D01*
X007201Y008013D01*
X007189Y007964D01*
X007174Y007916D01*
X007155Y007869D01*
X007132Y007824D01*
X007106Y007781D01*
X007077Y007740D01*
X007044Y007701D01*
X007009Y007665D01*
X006971Y007632D01*
X006931Y007602D01*
X006888Y007575D01*
X006843Y007552D01*
X006797Y007532D01*
X006749Y007515D01*
X006701Y007503D01*
X006651Y007494D01*
X006601Y007489D01*
X006550Y007488D01*
X006500Y007491D01*
X006450Y007498D01*
X006401Y007509D01*
X006353Y007523D01*
X006306Y007541D01*
X006260Y007563D01*
X006216Y007588D01*
X006175Y007617D01*
X006136Y007648D01*
X006099Y007683D01*
X006065Y007720D01*
X006034Y007760D01*
X006006Y007802D01*
X005982Y007846D01*
X005961Y007892D01*
X005944Y007940D01*
X005931Y007988D01*
X005921Y008038D01*
X005915Y008088D01*
X005913Y008138D01*
X004594Y009319D02*
X004596Y009209D01*
X004602Y009099D01*
X004611Y008990D01*
X004625Y008881D01*
X004642Y008772D01*
X004663Y008664D01*
X004688Y008557D01*
X004716Y008451D01*
X004748Y008346D01*
X004784Y008242D01*
X004823Y008139D01*
X004866Y008038D01*
X004913Y007938D01*
X004963Y007840D01*
X005016Y007744D01*
X005073Y007650D01*
X005133Y007558D01*
X005196Y007467D01*
X005262Y007380D01*
X005331Y007294D01*
X005403Y007211D01*
X005478Y007131D01*
X005556Y007053D01*
X005636Y006978D01*
X005719Y006906D01*
X005805Y006837D01*
X005892Y006771D01*
X005983Y006708D01*
X006075Y006648D01*
X006169Y006591D01*
X006265Y006538D01*
X006363Y006488D01*
X006463Y006441D01*
X006564Y006398D01*
X006667Y006359D01*
X006771Y006323D01*
X006876Y006291D01*
X006982Y006263D01*
X007089Y006238D01*
X007197Y006217D01*
X007306Y006200D01*
X007415Y006186D01*
X007524Y006177D01*
X007634Y006171D01*
X007744Y006169D01*
X004594Y024280D02*
X004596Y024404D01*
X004602Y024527D01*
X004611Y024651D01*
X004625Y024773D01*
X004642Y024896D01*
X004664Y025018D01*
X004689Y025139D01*
X004718Y025259D01*
X004750Y025378D01*
X004787Y025497D01*
X004827Y025614D01*
X004870Y025729D01*
X004918Y025844D01*
X004969Y025956D01*
X005023Y026067D01*
X005081Y026177D01*
X005142Y026284D01*
X005207Y026390D01*
X005275Y026493D01*
X005346Y026594D01*
X005420Y026693D01*
X005497Y026790D01*
X005578Y026884D01*
X005661Y026975D01*
X005747Y027064D01*
X005836Y027150D01*
X005927Y027233D01*
X006021Y027314D01*
X006118Y027391D01*
X006217Y027465D01*
X006318Y027536D01*
X006421Y027604D01*
X006527Y027669D01*
X006634Y027730D01*
X006744Y027788D01*
X006855Y027842D01*
X006967Y027893D01*
X007082Y027941D01*
X007197Y027984D01*
X007314Y028024D01*
X007433Y028061D01*
X007552Y028093D01*
X007672Y028122D01*
X007793Y028147D01*
X007915Y028169D01*
X008038Y028186D01*
X008160Y028200D01*
X008284Y028209D01*
X008407Y028215D01*
X008531Y028217D01*
D11*
X006563Y025461D03*
X006563Y008138D03*
X023886Y008138D03*
X023886Y025461D03*
D12*
X006472Y023508D03*
X006472Y022508D03*
X005472Y022508D03*
X005472Y023508D03*
X005472Y021508D03*
X006472Y021508D03*
D13*
X020327Y007744D03*
X021327Y007744D03*
X022327Y007744D03*
D14*
X016741Y008267D03*
X015775Y008008D03*
X014674Y008008D03*
X013708Y008267D03*
D15*
X006315Y009957D03*
X005315Y009957D03*
X005315Y010957D03*
X005315Y011957D03*
X005315Y012957D03*
X005315Y013957D03*
X006315Y013957D03*
X006315Y012957D03*
X006315Y011957D03*
X006315Y010957D03*
X024016Y010787D03*
X024016Y009787D03*
X025016Y009787D03*
X025016Y010787D03*
X025016Y011787D03*
X024016Y011787D03*
X024016Y012787D03*
X025016Y012787D03*
D16*
X021799Y025776D03*
X021051Y025776D03*
D17*
X009398Y008138D03*
X009949Y007350D03*
X008295Y008138D03*
D18*
X008846Y007350D03*
M02*
