G75*
G70*
%OFA0B0*%
%FSLAX24Y24*%
%IPPOS*%
%LPD*%
%AMOC8*
5,1,8,0,0,1.08239X$1,22.5*
%
%ADD10C,0.0000*%
%ADD11C,0.0030*%
%ADD12C,0.0020*%
%ADD13C,0.0060*%
%ADD14C,0.0050*%
%ADD15C,0.0039*%
%ADD16C,0.0100*%
D10*
X000350Y000677D02*
X000350Y020362D01*
X020035Y020362D01*
X020035Y000677D01*
X000350Y000677D01*
X000881Y001858D02*
X000883Y001908D01*
X000889Y001958D01*
X000899Y002008D01*
X000912Y002056D01*
X000929Y002104D01*
X000950Y002150D01*
X000974Y002194D01*
X001002Y002236D01*
X001033Y002276D01*
X001067Y002313D01*
X001104Y002348D01*
X001143Y002379D01*
X001184Y002408D01*
X001228Y002433D01*
X001274Y002455D01*
X001321Y002473D01*
X001369Y002487D01*
X001418Y002498D01*
X001468Y002505D01*
X001518Y002508D01*
X001569Y002507D01*
X001619Y002502D01*
X001669Y002493D01*
X001717Y002481D01*
X001765Y002464D01*
X001811Y002444D01*
X001856Y002421D01*
X001899Y002394D01*
X001939Y002364D01*
X001977Y002331D01*
X002012Y002295D01*
X002045Y002256D01*
X002074Y002215D01*
X002100Y002172D01*
X002123Y002127D01*
X002142Y002080D01*
X002157Y002032D01*
X002169Y001983D01*
X002177Y001933D01*
X002181Y001883D01*
X002181Y001833D01*
X002177Y001783D01*
X002169Y001733D01*
X002157Y001684D01*
X002142Y001636D01*
X002123Y001589D01*
X002100Y001544D01*
X002074Y001501D01*
X002045Y001460D01*
X002012Y001421D01*
X001977Y001385D01*
X001939Y001352D01*
X001899Y001322D01*
X001856Y001295D01*
X001811Y001272D01*
X001765Y001252D01*
X001717Y001235D01*
X001669Y001223D01*
X001619Y001214D01*
X001569Y001209D01*
X001518Y001208D01*
X001468Y001211D01*
X001418Y001218D01*
X001369Y001229D01*
X001321Y001243D01*
X001274Y001261D01*
X001228Y001283D01*
X001184Y001308D01*
X001143Y001337D01*
X001104Y001368D01*
X001067Y001403D01*
X001033Y001440D01*
X001002Y001480D01*
X000974Y001522D01*
X000950Y001566D01*
X000929Y001612D01*
X000912Y001660D01*
X000899Y001708D01*
X000889Y001758D01*
X000883Y001808D01*
X000881Y001858D01*
X000881Y019181D02*
X000883Y019231D01*
X000889Y019281D01*
X000899Y019331D01*
X000912Y019379D01*
X000929Y019427D01*
X000950Y019473D01*
X000974Y019517D01*
X001002Y019559D01*
X001033Y019599D01*
X001067Y019636D01*
X001104Y019671D01*
X001143Y019702D01*
X001184Y019731D01*
X001228Y019756D01*
X001274Y019778D01*
X001321Y019796D01*
X001369Y019810D01*
X001418Y019821D01*
X001468Y019828D01*
X001518Y019831D01*
X001569Y019830D01*
X001619Y019825D01*
X001669Y019816D01*
X001717Y019804D01*
X001765Y019787D01*
X001811Y019767D01*
X001856Y019744D01*
X001899Y019717D01*
X001939Y019687D01*
X001977Y019654D01*
X002012Y019618D01*
X002045Y019579D01*
X002074Y019538D01*
X002100Y019495D01*
X002123Y019450D01*
X002142Y019403D01*
X002157Y019355D01*
X002169Y019306D01*
X002177Y019256D01*
X002181Y019206D01*
X002181Y019156D01*
X002177Y019106D01*
X002169Y019056D01*
X002157Y019007D01*
X002142Y018959D01*
X002123Y018912D01*
X002100Y018867D01*
X002074Y018824D01*
X002045Y018783D01*
X002012Y018744D01*
X001977Y018708D01*
X001939Y018675D01*
X001899Y018645D01*
X001856Y018618D01*
X001811Y018595D01*
X001765Y018575D01*
X001717Y018558D01*
X001669Y018546D01*
X001619Y018537D01*
X001569Y018532D01*
X001518Y018531D01*
X001468Y018534D01*
X001418Y018541D01*
X001369Y018552D01*
X001321Y018566D01*
X001274Y018584D01*
X001228Y018606D01*
X001184Y018631D01*
X001143Y018660D01*
X001104Y018691D01*
X001067Y018726D01*
X001033Y018763D01*
X001002Y018803D01*
X000974Y018845D01*
X000950Y018889D01*
X000929Y018935D01*
X000912Y018983D01*
X000899Y019031D01*
X000889Y019081D01*
X000883Y019131D01*
X000881Y019181D01*
X018204Y019181D02*
X018206Y019231D01*
X018212Y019281D01*
X018222Y019331D01*
X018235Y019379D01*
X018252Y019427D01*
X018273Y019473D01*
X018297Y019517D01*
X018325Y019559D01*
X018356Y019599D01*
X018390Y019636D01*
X018427Y019671D01*
X018466Y019702D01*
X018507Y019731D01*
X018551Y019756D01*
X018597Y019778D01*
X018644Y019796D01*
X018692Y019810D01*
X018741Y019821D01*
X018791Y019828D01*
X018841Y019831D01*
X018892Y019830D01*
X018942Y019825D01*
X018992Y019816D01*
X019040Y019804D01*
X019088Y019787D01*
X019134Y019767D01*
X019179Y019744D01*
X019222Y019717D01*
X019262Y019687D01*
X019300Y019654D01*
X019335Y019618D01*
X019368Y019579D01*
X019397Y019538D01*
X019423Y019495D01*
X019446Y019450D01*
X019465Y019403D01*
X019480Y019355D01*
X019492Y019306D01*
X019500Y019256D01*
X019504Y019206D01*
X019504Y019156D01*
X019500Y019106D01*
X019492Y019056D01*
X019480Y019007D01*
X019465Y018959D01*
X019446Y018912D01*
X019423Y018867D01*
X019397Y018824D01*
X019368Y018783D01*
X019335Y018744D01*
X019300Y018708D01*
X019262Y018675D01*
X019222Y018645D01*
X019179Y018618D01*
X019134Y018595D01*
X019088Y018575D01*
X019040Y018558D01*
X018992Y018546D01*
X018942Y018537D01*
X018892Y018532D01*
X018841Y018531D01*
X018791Y018534D01*
X018741Y018541D01*
X018692Y018552D01*
X018644Y018566D01*
X018597Y018584D01*
X018551Y018606D01*
X018507Y018631D01*
X018466Y018660D01*
X018427Y018691D01*
X018390Y018726D01*
X018356Y018763D01*
X018325Y018803D01*
X018297Y018845D01*
X018273Y018889D01*
X018252Y018935D01*
X018235Y018983D01*
X018222Y019031D01*
X018212Y019081D01*
X018206Y019131D01*
X018204Y019181D01*
X018204Y001858D02*
X018206Y001908D01*
X018212Y001958D01*
X018222Y002008D01*
X018235Y002056D01*
X018252Y002104D01*
X018273Y002150D01*
X018297Y002194D01*
X018325Y002236D01*
X018356Y002276D01*
X018390Y002313D01*
X018427Y002348D01*
X018466Y002379D01*
X018507Y002408D01*
X018551Y002433D01*
X018597Y002455D01*
X018644Y002473D01*
X018692Y002487D01*
X018741Y002498D01*
X018791Y002505D01*
X018841Y002508D01*
X018892Y002507D01*
X018942Y002502D01*
X018992Y002493D01*
X019040Y002481D01*
X019088Y002464D01*
X019134Y002444D01*
X019179Y002421D01*
X019222Y002394D01*
X019262Y002364D01*
X019300Y002331D01*
X019335Y002295D01*
X019368Y002256D01*
X019397Y002215D01*
X019423Y002172D01*
X019446Y002127D01*
X019465Y002080D01*
X019480Y002032D01*
X019492Y001983D01*
X019500Y001933D01*
X019504Y001883D01*
X019504Y001833D01*
X019500Y001783D01*
X019492Y001733D01*
X019480Y001684D01*
X019465Y001636D01*
X019446Y001589D01*
X019423Y001544D01*
X019397Y001501D01*
X019368Y001460D01*
X019335Y001421D01*
X019300Y001385D01*
X019262Y001352D01*
X019222Y001322D01*
X019179Y001295D01*
X019134Y001272D01*
X019088Y001252D01*
X019040Y001235D01*
X018992Y001223D01*
X018942Y001214D01*
X018892Y001209D01*
X018841Y001208D01*
X018791Y001211D01*
X018741Y001218D01*
X018692Y001229D01*
X018644Y001243D01*
X018597Y001261D01*
X018551Y001283D01*
X018507Y001308D01*
X018466Y001337D01*
X018427Y001368D01*
X018390Y001403D01*
X018356Y001440D01*
X018325Y001480D01*
X018297Y001522D01*
X018273Y001566D01*
X018252Y001612D01*
X018235Y001660D01*
X018222Y001708D01*
X018212Y001758D01*
X018206Y001808D01*
X018204Y001858D01*
D11*
X017639Y002006D02*
X017591Y001958D01*
X017494Y001958D01*
X017446Y002006D01*
X017344Y001958D02*
X017151Y001958D01*
X017248Y001958D02*
X017248Y002248D01*
X017151Y002152D01*
X017050Y002200D02*
X017001Y002248D01*
X016905Y002248D01*
X016856Y002200D01*
X016856Y002006D01*
X016905Y001958D01*
X017001Y001958D01*
X017050Y002006D01*
X017446Y002200D02*
X017494Y002248D01*
X017591Y002248D01*
X017639Y002200D01*
X017639Y002152D01*
X017591Y002103D01*
X017639Y002055D01*
X017639Y002006D01*
X017591Y002103D02*
X017542Y002103D01*
X016238Y002314D02*
X015947Y002314D01*
X015947Y002459D01*
X015996Y002508D01*
X016092Y002508D01*
X016141Y002459D01*
X016141Y002314D01*
X016141Y002411D02*
X016238Y002508D01*
X016238Y002609D02*
X016238Y002802D01*
X016238Y002705D02*
X015947Y002705D01*
X016044Y002609D01*
X016092Y002903D02*
X016044Y003000D01*
X016044Y003048D01*
X016092Y003097D01*
X016189Y003097D01*
X016238Y003048D01*
X016238Y002952D01*
X016189Y002903D01*
X016092Y002903D02*
X015947Y002903D01*
X015947Y003097D01*
X015838Y002241D02*
X015838Y001951D01*
X015934Y001951D02*
X015741Y001951D01*
X015640Y001951D02*
X015640Y002241D01*
X015543Y002145D01*
X015446Y002241D01*
X015446Y001951D01*
X015345Y001951D02*
X015248Y002048D01*
X015297Y002048D02*
X015152Y002048D01*
X015152Y001951D02*
X015152Y002241D01*
X015297Y002241D01*
X015345Y002193D01*
X015345Y002096D01*
X015297Y002048D01*
X015052Y001951D02*
X014955Y001951D01*
X015004Y001951D02*
X015004Y002241D01*
X015052Y002241D02*
X014955Y002241D01*
X014854Y002096D02*
X014661Y002096D01*
X014559Y001951D02*
X014366Y001951D01*
X014366Y002241D01*
X014265Y002193D02*
X014265Y002096D01*
X014216Y002048D01*
X014071Y002048D01*
X014071Y001951D02*
X014071Y002241D01*
X014216Y002241D01*
X014265Y002193D01*
X015741Y002145D02*
X015838Y002241D01*
X016245Y004192D02*
X016438Y004192D01*
X016487Y004240D01*
X016487Y004337D01*
X016438Y004385D01*
X016487Y004487D02*
X016196Y004487D01*
X016487Y004680D01*
X016196Y004680D01*
X016245Y004781D02*
X016196Y004830D01*
X016196Y004926D01*
X016245Y004975D01*
X016293Y004975D01*
X016487Y004781D01*
X016487Y004975D01*
X016245Y004385D02*
X016196Y004337D01*
X016196Y004240D01*
X016245Y004192D01*
X016245Y007223D02*
X016438Y007223D01*
X016487Y007272D01*
X016487Y007369D01*
X016438Y007417D01*
X016487Y007518D02*
X016196Y007518D01*
X016487Y007712D01*
X016196Y007712D01*
X016245Y007813D02*
X016196Y007861D01*
X016196Y007958D01*
X016245Y008006D01*
X016293Y008006D01*
X016341Y007958D01*
X016390Y008006D01*
X016438Y008006D01*
X016487Y007958D01*
X016487Y007861D01*
X016438Y007813D01*
X016341Y007910D02*
X016341Y007958D01*
X016104Y008227D02*
X016056Y008179D01*
X015959Y008179D01*
X015911Y008227D01*
X015911Y008275D01*
X015959Y008324D01*
X016056Y008324D01*
X016104Y008275D01*
X016104Y008227D01*
X016056Y008324D02*
X016104Y008372D01*
X016104Y008420D01*
X016056Y008469D01*
X015959Y008469D01*
X015911Y008420D01*
X015911Y008372D01*
X015959Y008324D01*
X015810Y008324D02*
X015810Y008420D01*
X015761Y008469D01*
X015616Y008469D01*
X015616Y008179D01*
X015616Y008275D02*
X015761Y008275D01*
X015810Y008324D01*
X015713Y008275D02*
X015810Y008179D01*
X015170Y008718D02*
X015170Y008766D01*
X014977Y008766D01*
X014875Y008718D02*
X014875Y008621D01*
X014827Y008573D01*
X014682Y008573D01*
X014779Y008573D02*
X014875Y008476D01*
X014977Y008476D02*
X014977Y008524D01*
X015170Y008718D01*
X014875Y008718D02*
X014827Y008766D01*
X014682Y008766D01*
X014682Y008476D01*
X014490Y008469D02*
X014393Y008420D01*
X014297Y008324D01*
X014442Y008324D01*
X014490Y008275D01*
X014490Y008227D01*
X014442Y008179D01*
X014345Y008179D01*
X014297Y008227D01*
X014297Y008324D01*
X014196Y008324D02*
X014196Y008420D01*
X014147Y008469D01*
X014002Y008469D01*
X014002Y008179D01*
X014002Y008275D02*
X014147Y008275D01*
X014196Y008324D01*
X014099Y008275D02*
X014196Y008179D01*
X013635Y008524D02*
X013586Y008476D01*
X013490Y008476D01*
X013441Y008524D01*
X013441Y008621D02*
X013538Y008669D01*
X013586Y008669D01*
X013635Y008621D01*
X013635Y008524D01*
X013441Y008621D02*
X013441Y008766D01*
X013635Y008766D01*
X013340Y008718D02*
X013340Y008621D01*
X013292Y008573D01*
X013147Y008573D01*
X013243Y008573D02*
X013340Y008476D01*
X013147Y008476D02*
X013147Y008766D01*
X013292Y008766D01*
X013340Y008718D01*
X012572Y008621D02*
X012378Y008621D01*
X012523Y008766D01*
X012523Y008476D01*
X012277Y008476D02*
X012180Y008573D01*
X012229Y008573D02*
X012084Y008573D01*
X012084Y008476D02*
X012084Y008766D01*
X012229Y008766D01*
X012277Y008718D01*
X012277Y008621D01*
X012229Y008573D01*
X010609Y009675D02*
X010560Y009627D01*
X010367Y009627D01*
X010318Y009675D01*
X010318Y009772D01*
X010367Y009821D01*
X010560Y009821D01*
X010609Y009772D01*
X010609Y009675D01*
X010512Y009724D02*
X010609Y009821D01*
X010609Y009922D02*
X010415Y010115D01*
X010367Y010115D01*
X010318Y010067D01*
X010318Y009970D01*
X010367Y009922D01*
X010609Y009922D02*
X010609Y010115D01*
X009983Y011033D02*
X010031Y011082D01*
X010031Y011178D01*
X009983Y011227D01*
X010031Y011328D02*
X010031Y011521D01*
X010031Y011425D02*
X009741Y011425D01*
X009838Y011328D01*
X009790Y011227D02*
X009741Y011178D01*
X009741Y011082D01*
X009790Y011033D01*
X009983Y011033D01*
X009983Y011623D02*
X009790Y011816D01*
X009983Y011816D01*
X010031Y011768D01*
X010031Y011671D01*
X009983Y011623D01*
X009790Y011623D01*
X009741Y011671D01*
X009741Y011768D01*
X009790Y011816D01*
X010039Y013694D02*
X010039Y013791D01*
X010039Y013743D02*
X010329Y013743D01*
X010329Y013791D02*
X010329Y013694D01*
X010281Y013891D02*
X010088Y013891D01*
X010039Y013939D01*
X010039Y014036D01*
X010088Y014084D01*
X010088Y014185D02*
X010039Y014234D01*
X010039Y014331D01*
X010088Y014379D01*
X010136Y014379D01*
X010184Y014331D01*
X010233Y014379D01*
X010281Y014379D01*
X010329Y014331D01*
X010329Y014234D01*
X010281Y014185D01*
X010281Y014084D02*
X010329Y014036D01*
X010329Y013939D01*
X010281Y013891D01*
X010184Y014282D02*
X010184Y014331D01*
X010756Y015274D02*
X010950Y015274D01*
X010998Y015322D01*
X010998Y015419D01*
X010950Y015467D01*
X010998Y015569D02*
X010998Y015762D01*
X010998Y015665D02*
X010708Y015665D01*
X010804Y015569D01*
X010756Y015467D02*
X010708Y015419D01*
X010708Y015322D01*
X010756Y015274D01*
X010804Y015863D02*
X010708Y015960D01*
X010998Y015960D01*
X010998Y015863D02*
X010998Y016057D01*
X011960Y016464D02*
X012008Y016415D01*
X012057Y016415D01*
X012105Y016464D01*
X012105Y016560D01*
X012154Y016609D01*
X012202Y016609D01*
X012250Y016560D01*
X012250Y016464D01*
X012202Y016415D01*
X011960Y016464D02*
X011960Y016560D01*
X012008Y016609D01*
X011960Y016807D02*
X011960Y016903D01*
X011960Y016855D02*
X012202Y016855D01*
X012250Y016807D01*
X012250Y016758D01*
X012202Y016710D01*
X012250Y017005D02*
X012250Y017198D01*
X012250Y017101D02*
X011960Y017101D01*
X012057Y017005D01*
X010691Y018416D02*
X010740Y018464D01*
X010740Y018561D01*
X010691Y018609D01*
X010740Y018710D02*
X010449Y018710D01*
X010740Y018904D01*
X010449Y018904D01*
X010546Y019005D02*
X010449Y019102D01*
X010740Y019102D01*
X010740Y019198D02*
X010740Y019005D01*
X010498Y018609D02*
X010449Y018561D01*
X010449Y018464D01*
X010498Y018416D01*
X010691Y018416D01*
X013737Y017217D02*
X013737Y017023D01*
X013785Y016975D01*
X013882Y016975D01*
X013931Y017023D01*
X014032Y017023D02*
X014032Y017072D01*
X014080Y017120D01*
X014177Y017120D01*
X014225Y017072D01*
X014225Y017023D01*
X014177Y016975D01*
X014080Y016975D01*
X014032Y017023D01*
X014080Y017120D02*
X014032Y017169D01*
X014032Y017217D01*
X014080Y017265D01*
X014177Y017265D01*
X014225Y017217D01*
X014225Y017169D01*
X014177Y017120D01*
X013931Y017217D02*
X013882Y017265D01*
X013785Y017265D01*
X013737Y017217D01*
X013948Y019583D02*
X014044Y019583D01*
X014093Y019632D01*
X014194Y019583D02*
X014194Y019874D01*
X014387Y019583D01*
X014387Y019874D01*
X014488Y019729D02*
X014682Y019729D01*
X014634Y019874D02*
X014488Y019729D01*
X014634Y019874D02*
X014634Y019583D01*
X014093Y019825D02*
X014044Y019874D01*
X013948Y019874D01*
X013899Y019825D01*
X013899Y019632D01*
X013948Y019583D01*
X017585Y017200D02*
X017585Y017006D01*
X017633Y016958D01*
X017730Y016958D01*
X017778Y017006D01*
X017879Y017006D02*
X017928Y016958D01*
X018024Y016958D01*
X018073Y017006D01*
X018073Y017200D01*
X018024Y017248D01*
X017928Y017248D01*
X017879Y017200D01*
X017879Y017152D01*
X017928Y017103D01*
X018073Y017103D01*
X017778Y017200D02*
X017730Y017248D01*
X017633Y017248D01*
X017585Y017200D01*
X019420Y017156D02*
X019541Y017035D01*
X019541Y016915D02*
X019784Y016794D01*
X019541Y016672D01*
X019723Y016437D02*
X019784Y016437D01*
X019784Y016376D01*
X019723Y016376D01*
X019723Y016437D01*
X019662Y016257D02*
X019420Y016257D01*
X019662Y016257D02*
X019784Y016135D01*
X019662Y016014D01*
X019420Y016014D01*
X019420Y015894D02*
X019420Y015651D01*
X019784Y015651D01*
X019784Y015894D01*
X019602Y015773D02*
X019602Y015651D01*
X019602Y015532D02*
X019480Y015532D01*
X019420Y015471D01*
X019420Y015289D01*
X019784Y015289D01*
X019662Y015289D02*
X019662Y015471D01*
X019602Y015532D01*
X019662Y015410D02*
X019784Y015532D01*
X019420Y014807D02*
X019420Y014564D01*
X019420Y014444D02*
X019420Y014322D01*
X019420Y014383D02*
X019784Y014383D01*
X019784Y014322D02*
X019784Y014444D01*
X019784Y014685D02*
X019420Y014685D01*
X019480Y014202D02*
X019420Y014142D01*
X019420Y014020D01*
X019480Y013960D01*
X019723Y013960D01*
X019784Y014020D01*
X019784Y014142D01*
X019723Y014202D01*
X019602Y014202D01*
X019602Y014081D01*
X019581Y013557D02*
X019581Y013436D01*
X019520Y013496D02*
X019763Y013496D01*
X019823Y013557D01*
X019823Y013315D02*
X019823Y013194D01*
X019823Y013255D02*
X019581Y013255D01*
X019581Y013194D01*
X019459Y013255D02*
X019399Y013255D01*
X019459Y013074D02*
X019702Y012832D01*
X019641Y012892D02*
X019823Y013074D01*
X019823Y012832D02*
X019459Y012832D01*
X019520Y012712D02*
X019641Y012712D01*
X019702Y012651D01*
X019702Y012469D01*
X019823Y012469D02*
X019459Y012469D01*
X019459Y012651D01*
X019520Y012712D01*
X019702Y012590D02*
X019823Y012712D01*
X019823Y012349D02*
X019823Y012227D01*
X019823Y012288D02*
X019459Y012288D01*
X019459Y012227D02*
X019459Y012349D01*
X019097Y012471D02*
X019097Y012568D01*
X019097Y012520D02*
X018807Y012520D01*
X018807Y012568D02*
X018807Y012471D01*
X018855Y012668D02*
X019049Y012668D01*
X019097Y012716D01*
X019097Y012813D01*
X019049Y012861D01*
X019097Y012963D02*
X018904Y013156D01*
X018855Y013156D01*
X018807Y013108D01*
X018807Y013011D01*
X018855Y012963D01*
X018855Y012861D02*
X018807Y012813D01*
X018807Y012716D01*
X018855Y012668D01*
X019097Y012963D02*
X019097Y013156D01*
X019784Y017035D02*
X019784Y017277D01*
X019784Y017397D02*
X019723Y017397D01*
X019723Y017458D01*
X019784Y017458D01*
X019784Y017397D01*
X019723Y017579D02*
X019480Y017821D01*
X019723Y017821D01*
X019784Y017761D01*
X019784Y017639D01*
X019723Y017579D01*
X019480Y017579D01*
X019420Y017639D01*
X019420Y017761D01*
X019480Y017821D01*
X019420Y017156D02*
X019784Y017156D01*
X016245Y007417D02*
X016196Y007369D01*
X016196Y007272D01*
X016245Y007223D01*
X012622Y006449D02*
X012622Y006352D01*
X012574Y006304D01*
X012477Y006304D02*
X012428Y006400D01*
X012428Y006449D01*
X012477Y006497D01*
X012574Y006497D01*
X012622Y006449D01*
X012477Y006304D02*
X012332Y006304D01*
X012332Y006497D01*
X012380Y006202D02*
X012332Y006154D01*
X012332Y006057D01*
X012380Y006009D01*
X012574Y006009D01*
X012622Y006057D01*
X012622Y006154D01*
X012574Y006202D01*
X012040Y005004D02*
X011895Y004859D01*
X012089Y004859D01*
X012040Y004714D02*
X012040Y005004D01*
X011794Y004956D02*
X011746Y005004D01*
X011649Y005004D01*
X011600Y004956D01*
X011600Y004762D01*
X011649Y004714D01*
X011746Y004714D01*
X011794Y004762D01*
X010267Y003152D02*
X010074Y003152D01*
X010171Y003152D02*
X010171Y003442D01*
X010074Y003345D01*
X009973Y003345D02*
X009924Y003297D01*
X009779Y003297D01*
X009678Y003297D02*
X009630Y003248D01*
X009484Y003248D01*
X009484Y003152D02*
X009484Y003442D01*
X009630Y003442D01*
X009678Y003393D01*
X009678Y003297D01*
X009581Y003248D02*
X009678Y003152D01*
X009779Y003152D02*
X009924Y003152D01*
X009973Y003200D01*
X009973Y003248D01*
X009924Y003297D01*
X009973Y003345D02*
X009973Y003393D01*
X009924Y003442D01*
X009779Y003442D01*
X009779Y003152D01*
X008123Y003569D02*
X007929Y003569D01*
X008123Y003763D01*
X008123Y003811D01*
X008075Y003860D01*
X007978Y003860D01*
X007929Y003811D01*
X007828Y003811D02*
X007828Y003763D01*
X007780Y003715D01*
X007635Y003715D01*
X007534Y003715D02*
X007534Y003811D01*
X007485Y003860D01*
X007340Y003860D01*
X007340Y003569D01*
X007340Y003666D02*
X007485Y003666D01*
X007534Y003715D01*
X007437Y003666D02*
X007534Y003569D01*
X007635Y003569D02*
X007635Y003860D01*
X007780Y003860D01*
X007828Y003811D01*
X007780Y003715D02*
X007828Y003666D01*
X007828Y003618D01*
X007780Y003569D01*
X007635Y003569D01*
X006882Y004143D02*
X006882Y004433D01*
X006737Y004288D01*
X006930Y004288D01*
X006636Y004143D02*
X006442Y004143D01*
X006539Y004143D02*
X006539Y004433D01*
X006442Y004337D01*
X006341Y004385D02*
X006341Y004288D01*
X006293Y004240D01*
X006148Y004240D01*
X006244Y004240D02*
X006341Y004143D01*
X006148Y004143D02*
X006148Y004433D01*
X006293Y004433D01*
X006341Y004385D01*
X006123Y004585D02*
X006075Y004537D01*
X005978Y004537D01*
X005930Y004585D01*
X005829Y004537D02*
X005635Y004537D01*
X005732Y004537D02*
X005732Y004827D01*
X005635Y004730D01*
X005534Y004682D02*
X005486Y004634D01*
X005341Y004634D01*
X005437Y004634D02*
X005534Y004537D01*
X005534Y004682D02*
X005534Y004779D01*
X005486Y004827D01*
X005341Y004827D01*
X005341Y004537D01*
X005111Y005090D02*
X004918Y005090D01*
X005111Y005284D01*
X005111Y005332D01*
X005063Y005380D01*
X004966Y005380D01*
X004918Y005332D01*
X004720Y005380D02*
X004720Y005090D01*
X004816Y005090D02*
X004623Y005090D01*
X004522Y005090D02*
X004425Y005187D01*
X004473Y005187D02*
X004328Y005187D01*
X004328Y005090D02*
X004328Y005380D01*
X004473Y005380D01*
X004522Y005332D01*
X004522Y005235D01*
X004473Y005187D01*
X004623Y005284D02*
X004720Y005380D01*
X004103Y005957D02*
X004200Y006053D01*
X004345Y006053D01*
X004200Y006053D02*
X004103Y006150D01*
X004055Y006150D01*
X004151Y006251D02*
X004055Y006348D01*
X004345Y006348D01*
X004345Y006251D02*
X004345Y006445D01*
X004103Y005957D02*
X004055Y005957D01*
X005570Y006233D02*
X005618Y006184D01*
X005812Y006184D01*
X005860Y006233D01*
X005860Y006329D01*
X005812Y006378D01*
X005812Y006479D02*
X005860Y006527D01*
X005860Y006624D01*
X005812Y006672D01*
X005763Y006672D01*
X005715Y006624D01*
X005715Y006576D01*
X005715Y006624D02*
X005667Y006672D01*
X005618Y006672D01*
X005570Y006624D01*
X005570Y006527D01*
X005618Y006479D01*
X005618Y006378D02*
X005570Y006329D01*
X005570Y006233D01*
X005978Y004827D02*
X006075Y004827D01*
X006123Y004779D01*
X006123Y004730D01*
X006075Y004682D01*
X006123Y004634D01*
X006123Y004585D01*
X006075Y004682D02*
X006027Y004682D01*
X005930Y004779D02*
X005978Y004827D01*
X003925Y002510D02*
X003925Y002317D01*
X003780Y002462D01*
X004070Y002462D01*
X004022Y002215D02*
X003828Y002215D01*
X003780Y002167D01*
X003780Y002022D01*
X004070Y002022D01*
X004070Y002167D01*
X004022Y002215D01*
X004070Y001921D02*
X004070Y001727D01*
X003780Y001727D01*
X003780Y001921D01*
X003925Y001824D02*
X003925Y001727D01*
X004070Y001626D02*
X004070Y001433D01*
X003780Y001433D01*
X001695Y004045D02*
X001501Y004045D01*
X001598Y004045D02*
X001598Y004335D01*
X001501Y004238D01*
X001400Y004287D02*
X001352Y004335D01*
X001255Y004335D01*
X001207Y004287D01*
X001207Y004093D01*
X001255Y004045D01*
X001352Y004045D01*
X001400Y004093D01*
X001352Y006013D02*
X001400Y006062D01*
X001352Y006013D02*
X001255Y006013D01*
X001207Y006062D01*
X001207Y006255D01*
X001255Y006303D01*
X001352Y006303D01*
X001400Y006255D01*
X001501Y006255D02*
X001550Y006303D01*
X001647Y006303D01*
X001695Y006255D01*
X001695Y006207D01*
X001501Y006013D01*
X001695Y006013D01*
X005647Y007922D02*
X005647Y008067D01*
X005695Y008116D01*
X005792Y008116D01*
X005840Y008067D01*
X005840Y007922D01*
X005937Y007922D02*
X005647Y007922D01*
X005840Y008019D02*
X005937Y008116D01*
X005937Y008217D02*
X005743Y008410D01*
X005695Y008410D01*
X005647Y008362D01*
X005647Y008265D01*
X005695Y008217D01*
X005937Y008217D02*
X005937Y008410D01*
X005937Y009261D02*
X005647Y009261D01*
X005647Y009406D01*
X005695Y009454D01*
X005792Y009454D01*
X005840Y009406D01*
X005840Y009261D01*
X005840Y009358D02*
X005937Y009454D01*
X005889Y009556D02*
X005937Y009604D01*
X005937Y009701D01*
X005889Y009749D01*
X005840Y009749D01*
X005792Y009701D01*
X005792Y009652D01*
X005792Y009701D02*
X005743Y009749D01*
X005695Y009749D01*
X005647Y009701D01*
X005647Y009604D01*
X005695Y009556D01*
X005656Y010127D02*
X005656Y010272D01*
X005705Y010321D01*
X005802Y010321D01*
X005850Y010272D01*
X005850Y010127D01*
X005947Y010127D02*
X005656Y010127D01*
X005850Y010224D02*
X005947Y010321D01*
X005947Y010422D02*
X005947Y010615D01*
X005947Y010518D02*
X005656Y010518D01*
X005753Y010422D01*
X004381Y010487D02*
X004381Y010680D01*
X004381Y010584D02*
X004091Y010584D01*
X004188Y010487D01*
X004140Y010386D02*
X004091Y010337D01*
X004091Y010241D01*
X004140Y010192D01*
X004188Y010192D01*
X004236Y010241D01*
X004236Y010337D01*
X004285Y010386D01*
X004333Y010386D01*
X004381Y010337D01*
X004381Y010241D01*
X004333Y010192D01*
X007264Y008530D02*
X007361Y008530D01*
X007312Y008530D02*
X007312Y008240D01*
X007264Y008240D02*
X007361Y008240D01*
X007460Y008288D02*
X007509Y008240D01*
X007606Y008240D01*
X007654Y008288D01*
X007755Y008240D02*
X007949Y008240D01*
X007852Y008240D02*
X007852Y008530D01*
X007755Y008433D01*
X007654Y008482D02*
X007606Y008530D01*
X007509Y008530D01*
X007460Y008482D01*
X007460Y008288D01*
X007506Y009360D02*
X007700Y009360D01*
X007748Y009408D01*
X007748Y009505D01*
X007700Y009553D01*
X007748Y009655D02*
X007748Y009848D01*
X007748Y009751D02*
X007458Y009751D01*
X007554Y009655D01*
X007506Y009553D02*
X007458Y009505D01*
X007458Y009408D01*
X007506Y009360D01*
X007506Y009949D02*
X007458Y009998D01*
X007458Y010094D01*
X007506Y010143D01*
X007554Y010143D01*
X007748Y009949D01*
X007748Y010143D01*
X005930Y015601D02*
X005640Y015601D01*
X005640Y015746D01*
X005688Y015794D01*
X005785Y015794D01*
X005833Y015746D01*
X005833Y015601D01*
X005833Y015697D02*
X005930Y015794D01*
X005882Y015895D02*
X005930Y015944D01*
X005930Y016040D01*
X005882Y016089D01*
X005688Y016089D01*
X005640Y016040D01*
X005640Y015944D01*
X005688Y015895D01*
X005737Y015895D01*
X005785Y015944D01*
X005785Y016089D01*
X005880Y016392D02*
X005687Y016392D01*
X005638Y016441D01*
X005638Y016538D01*
X005687Y016586D01*
X005783Y016687D02*
X005687Y016784D01*
X005638Y016881D01*
X005783Y016832D02*
X005783Y016687D01*
X005880Y016687D01*
X005929Y016735D01*
X005929Y016832D01*
X005880Y016881D01*
X005832Y016881D01*
X005783Y016832D01*
X005880Y016586D02*
X005929Y016538D01*
X005929Y016441D01*
X005880Y016392D01*
X003683Y017866D02*
X003683Y017963D01*
X003635Y018011D01*
X003635Y018112D02*
X003683Y018112D01*
X003635Y018112D02*
X003441Y018306D01*
X003393Y018306D01*
X003393Y018112D01*
X003441Y018011D02*
X003393Y017963D01*
X003393Y017866D01*
X003441Y017817D01*
X003635Y017817D01*
X003683Y017866D01*
X003429Y016840D02*
X003429Y016646D01*
X003429Y016743D02*
X003139Y016743D01*
X003236Y016646D01*
X003187Y016545D02*
X003139Y016496D01*
X003139Y016351D01*
X003429Y016351D01*
X003429Y016496D01*
X003381Y016545D01*
X003187Y016545D01*
X003139Y016250D02*
X003139Y016057D01*
X003429Y016057D01*
X003429Y016250D01*
X003284Y016153D02*
X003284Y016057D01*
X003429Y015956D02*
X003429Y015762D01*
X003139Y015762D01*
X007506Y002423D02*
X007506Y002230D01*
X007506Y002326D02*
X007216Y002326D01*
X007313Y002230D01*
X007216Y002128D02*
X007216Y001935D01*
X007216Y002032D02*
X007506Y002032D01*
X007485Y001431D02*
X007533Y001383D01*
X007533Y001286D01*
X007485Y001238D01*
X007292Y001238D01*
X007243Y001286D01*
X007243Y001383D01*
X007292Y001431D01*
X007292Y001137D02*
X007388Y001137D01*
X007437Y001088D01*
X007437Y000943D01*
X007533Y000943D02*
X007243Y000943D01*
X007243Y001088D01*
X007292Y001137D01*
X007437Y001040D02*
X007533Y001137D01*
X011427Y001447D02*
X011572Y001447D01*
X011621Y001495D01*
X011621Y001689D01*
X011572Y001737D01*
X011427Y001737D01*
X011427Y001447D01*
X011722Y001447D02*
X011915Y001447D01*
X011819Y001447D02*
X011819Y001737D01*
X011722Y001641D01*
D12*
X016659Y003516D02*
X016733Y003443D01*
X016806Y003516D01*
X016806Y003663D01*
X016880Y003553D02*
X016880Y003480D01*
X016917Y003443D01*
X017027Y003443D01*
X017101Y003480D02*
X017138Y003443D01*
X017248Y003443D01*
X017248Y003590D02*
X017138Y003590D01*
X017101Y003553D01*
X017101Y003480D01*
X017027Y003590D02*
X016917Y003590D01*
X016880Y003553D01*
X016659Y003516D02*
X016659Y003663D01*
X016659Y004466D02*
X016769Y004466D01*
X016806Y004503D01*
X016806Y004650D01*
X016769Y004687D01*
X016659Y004687D01*
X016659Y004466D01*
X016880Y004466D02*
X017027Y004466D01*
X016954Y004466D02*
X016954Y004687D01*
X016880Y004613D01*
X017101Y004613D02*
X017175Y004687D01*
X017175Y004466D01*
X017248Y004466D02*
X017101Y004466D01*
X017101Y005451D02*
X017211Y005451D01*
X017248Y005487D01*
X017248Y005634D01*
X017211Y005671D01*
X017101Y005671D01*
X017101Y005451D01*
X017027Y005451D02*
X017027Y005671D01*
X016880Y005671D02*
X016880Y005451D01*
X016806Y005487D02*
X016806Y005561D01*
X016733Y005561D01*
X016806Y005634D02*
X016769Y005671D01*
X016696Y005671D01*
X016659Y005634D01*
X016659Y005487D01*
X016696Y005451D01*
X016769Y005451D01*
X016806Y005487D01*
X016880Y005671D02*
X017027Y005451D01*
X017003Y006514D02*
X017003Y006661D01*
X016929Y006734D01*
X016856Y006661D01*
X016856Y006514D01*
X016856Y006624D02*
X017003Y006624D01*
X017077Y006550D02*
X017077Y006514D01*
X017077Y006550D02*
X017224Y006697D01*
X017224Y006734D01*
X017077Y006734D01*
X017101Y007537D02*
X017211Y007537D01*
X017248Y007574D01*
X017248Y007721D01*
X017211Y007758D01*
X017101Y007758D01*
X017101Y007537D01*
X017027Y007537D02*
X017027Y007758D01*
X016880Y007758D02*
X016880Y007537D01*
X016806Y007574D02*
X016806Y007647D01*
X016733Y007647D01*
X016806Y007574D02*
X016769Y007537D01*
X016696Y007537D01*
X016659Y007574D01*
X016659Y007721D01*
X016696Y007758D01*
X016769Y007758D01*
X016806Y007721D01*
X016880Y007758D02*
X017027Y007537D01*
X017027Y008522D02*
X016880Y008522D01*
X016954Y008522D02*
X016954Y008742D01*
X016880Y008668D01*
X016806Y008705D02*
X016769Y008742D01*
X016659Y008742D01*
X016659Y008522D01*
X016769Y008522D01*
X016806Y008558D01*
X016806Y008705D01*
X017101Y008705D02*
X017138Y008742D01*
X017211Y008742D01*
X017248Y008705D01*
X017101Y008558D01*
X017138Y008522D01*
X017211Y008522D01*
X017248Y008558D01*
X017248Y008705D01*
X017101Y008705D02*
X017101Y008558D01*
X019376Y008522D02*
X019486Y008522D01*
X019523Y008558D01*
X019523Y008705D01*
X019486Y008742D01*
X019376Y008742D01*
X019376Y008522D01*
X019597Y008558D02*
X019633Y008522D01*
X019707Y008522D01*
X019744Y008558D01*
X019744Y008705D01*
X019707Y008742D01*
X019633Y008742D01*
X019597Y008705D01*
X019597Y008668D01*
X019633Y008632D01*
X019744Y008632D01*
X019707Y007758D02*
X019744Y007721D01*
X019597Y007574D01*
X019633Y007537D01*
X019707Y007537D01*
X019744Y007574D01*
X019744Y007721D01*
X019707Y007758D02*
X019633Y007758D01*
X019597Y007721D01*
X019597Y007574D01*
X019523Y007537D02*
X019523Y007684D01*
X019449Y007758D01*
X019376Y007684D01*
X019376Y007537D01*
X019376Y007647D02*
X019523Y007647D01*
X019449Y006773D02*
X019523Y006700D01*
X019523Y006553D01*
X019597Y006553D02*
X019744Y006553D01*
X019670Y006553D02*
X019670Y006773D01*
X019597Y006700D01*
X019523Y006663D02*
X019376Y006663D01*
X019376Y006700D02*
X019376Y006553D01*
X019376Y006700D02*
X019449Y006773D01*
X019366Y005711D02*
X020029Y005711D01*
X019965Y005671D02*
X019818Y005671D01*
X019891Y005671D02*
X019891Y005451D01*
X019744Y005487D02*
X019707Y005451D01*
X019633Y005451D01*
X019597Y005487D01*
X019633Y005561D02*
X019707Y005561D01*
X019744Y005524D01*
X019744Y005487D01*
X019633Y005561D02*
X019597Y005598D01*
X019597Y005634D01*
X019633Y005671D01*
X019707Y005671D01*
X019744Y005634D01*
X019523Y005634D02*
X019523Y005561D01*
X019486Y005524D01*
X019376Y005524D01*
X019449Y005524D02*
X019523Y005451D01*
X019376Y005451D02*
X019376Y005671D01*
X019486Y005671D01*
X019523Y005634D01*
X019486Y004687D02*
X019376Y004687D01*
X019376Y004466D01*
X019486Y004466D01*
X019523Y004503D01*
X019523Y004650D01*
X019486Y004687D01*
X019597Y004613D02*
X019670Y004687D01*
X019670Y004466D01*
X019597Y004466D02*
X019744Y004466D01*
X019818Y004503D02*
X019854Y004466D01*
X019928Y004466D01*
X019965Y004503D01*
X019965Y004540D01*
X019928Y004577D01*
X019891Y004577D01*
X019928Y004577D02*
X019965Y004613D01*
X019965Y004650D01*
X019928Y004687D01*
X019854Y004687D01*
X019818Y004650D01*
X019854Y003663D02*
X019818Y003626D01*
X019854Y003663D02*
X019928Y003663D01*
X019965Y003626D01*
X019965Y003590D01*
X019818Y003443D01*
X019965Y003443D01*
X019744Y003443D02*
X019597Y003443D01*
X019670Y003443D02*
X019670Y003663D01*
X019597Y003590D01*
X019523Y003626D02*
X019523Y003480D01*
X019486Y003443D01*
X019376Y003443D01*
X019376Y003663D01*
X019486Y003663D01*
X019523Y003626D01*
X003748Y003363D02*
X003748Y005984D01*
X003746Y006035D01*
X003741Y006086D01*
X003731Y006136D01*
X003718Y006186D01*
X003702Y006234D01*
X003682Y006281D01*
X003658Y006327D01*
X003632Y006370D01*
X003602Y006412D01*
X003569Y006451D01*
X003534Y006488D01*
X003496Y006522D01*
X003455Y006553D01*
X003413Y006582D01*
X003368Y006607D01*
X003322Y006628D01*
X003274Y006647D01*
X003225Y006661D01*
X003175Y006672D01*
X003125Y006680D01*
X003074Y006684D01*
X003022Y006684D01*
X002971Y006680D01*
X002921Y006672D01*
X002871Y006661D01*
X002822Y006647D01*
X002774Y006628D01*
X002728Y006607D01*
X002683Y006582D01*
X002641Y006553D01*
X002600Y006522D01*
X002562Y006488D01*
X002527Y006451D01*
X002494Y006412D01*
X002464Y006370D01*
X002438Y006327D01*
X002414Y006281D01*
X002394Y006234D01*
X002378Y006186D01*
X002365Y006136D01*
X002355Y006086D01*
X002350Y006035D01*
X002348Y005984D01*
X002348Y003363D01*
X002350Y003312D01*
X002355Y003261D01*
X002365Y003211D01*
X002378Y003161D01*
X002394Y003113D01*
X002414Y003066D01*
X002438Y003020D01*
X002464Y002977D01*
X002494Y002935D01*
X002527Y002896D01*
X002562Y002859D01*
X002600Y002825D01*
X002641Y002794D01*
X002683Y002765D01*
X002728Y002740D01*
X002774Y002719D01*
X002822Y002700D01*
X002871Y002686D01*
X002921Y002675D01*
X002971Y002667D01*
X003022Y002663D01*
X003074Y002663D01*
X003125Y002667D01*
X003175Y002675D01*
X003225Y002686D01*
X003274Y002700D01*
X003322Y002719D01*
X003368Y002740D01*
X003413Y002765D01*
X003455Y002794D01*
X003496Y002825D01*
X003534Y002859D01*
X003569Y002896D01*
X003602Y002935D01*
X003632Y002977D01*
X003658Y003020D01*
X003682Y003066D01*
X003702Y003113D01*
X003718Y003161D01*
X003731Y003211D01*
X003741Y003261D01*
X003746Y003312D01*
X003748Y003363D01*
D13*
X003948Y003442D02*
X003948Y005906D01*
X003946Y005965D01*
X003940Y006023D01*
X003931Y006082D01*
X003917Y006139D01*
X003900Y006195D01*
X003879Y006250D01*
X003855Y006304D01*
X003827Y006356D01*
X003796Y006406D01*
X003762Y006454D01*
X003725Y006499D01*
X003684Y006542D01*
X003641Y006583D01*
X003596Y006620D01*
X003548Y006654D01*
X003498Y006685D01*
X003446Y006713D01*
X003392Y006737D01*
X003337Y006758D01*
X003281Y006775D01*
X003224Y006789D01*
X003165Y006798D01*
X003107Y006804D01*
X003048Y006806D01*
X002989Y006804D01*
X002931Y006798D01*
X002872Y006789D01*
X002815Y006775D01*
X002759Y006758D01*
X002704Y006737D01*
X002650Y006713D01*
X002598Y006685D01*
X002548Y006654D01*
X002500Y006620D01*
X002455Y006583D01*
X002412Y006542D01*
X002371Y006499D01*
X002334Y006454D01*
X002300Y006406D01*
X002269Y006356D01*
X002241Y006304D01*
X002217Y006250D01*
X002196Y006195D01*
X002179Y006139D01*
X002165Y006082D01*
X002156Y006023D01*
X002150Y005965D01*
X002148Y005906D01*
X002148Y003442D01*
X002150Y003383D01*
X002156Y003325D01*
X002165Y003266D01*
X002179Y003209D01*
X002196Y003153D01*
X002217Y003098D01*
X002241Y003044D01*
X002269Y002992D01*
X002300Y002942D01*
X002334Y002894D01*
X002371Y002849D01*
X002412Y002806D01*
X002455Y002765D01*
X002500Y002728D01*
X002548Y002694D01*
X002598Y002663D01*
X002650Y002635D01*
X002704Y002611D01*
X002759Y002590D01*
X002815Y002573D01*
X002872Y002559D01*
X002931Y002550D01*
X002989Y002544D01*
X003048Y002542D01*
X003107Y002544D01*
X003165Y002550D01*
X003224Y002559D01*
X003281Y002573D01*
X003337Y002590D01*
X003392Y002611D01*
X003446Y002635D01*
X003498Y002663D01*
X003548Y002694D01*
X003596Y002728D01*
X003641Y002765D01*
X003684Y002806D01*
X003725Y002849D01*
X003762Y002894D01*
X003796Y002942D01*
X003827Y002992D01*
X003855Y003044D01*
X003879Y003098D01*
X003900Y003153D01*
X003917Y003209D01*
X003931Y003266D01*
X003940Y003325D01*
X003946Y003383D01*
X003948Y003442D01*
X007845Y005140D02*
X007845Y007760D01*
X007985Y007900D01*
X010605Y007900D01*
X010605Y005140D01*
X007845Y005140D01*
X003273Y009065D02*
X001873Y009065D01*
X001873Y009515D01*
X001873Y011965D01*
X003273Y011965D01*
X003273Y011865D02*
X003073Y011865D01*
X003273Y011865D02*
X003273Y011565D01*
X003373Y011565D01*
X003373Y011265D01*
X003273Y011265D01*
X003273Y010815D01*
X003173Y010815D01*
X003173Y010215D01*
X003273Y010215D01*
X003273Y009815D01*
X003373Y009815D01*
X003373Y009465D01*
X003273Y009465D01*
X003273Y009165D01*
X003073Y009165D01*
X002473Y009165D02*
X001973Y009165D01*
X001973Y010265D01*
X002373Y010265D01*
X002373Y010765D01*
X001973Y010765D01*
X001973Y010265D01*
X001773Y010015D02*
X001773Y009515D01*
X001873Y009515D01*
X001773Y010015D02*
X001623Y010015D01*
X001623Y011015D01*
X001773Y011015D01*
X001773Y010015D01*
X001973Y010765D02*
X001973Y011865D01*
X002473Y011865D01*
X001873Y011515D02*
X001773Y011515D01*
X001773Y011015D01*
X005876Y012929D02*
X005876Y015232D01*
X009970Y015232D01*
X009970Y012929D01*
X005876Y012929D01*
X006079Y013312D02*
X006081Y013338D01*
X006087Y013364D01*
X006096Y013389D01*
X006109Y013412D01*
X006125Y013433D01*
X006144Y013451D01*
X006166Y013467D01*
X006189Y013479D01*
X006214Y013487D01*
X006240Y013492D01*
X006267Y013493D01*
X006293Y013490D01*
X006318Y013483D01*
X006343Y013473D01*
X006365Y013459D01*
X006386Y013442D01*
X006403Y013423D01*
X006418Y013401D01*
X006429Y013377D01*
X006437Y013351D01*
X006441Y013325D01*
X006441Y013299D01*
X006437Y013273D01*
X006429Y013247D01*
X006418Y013223D01*
X006403Y013201D01*
X006386Y013182D01*
X006365Y013165D01*
X006343Y013151D01*
X006318Y013141D01*
X006293Y013134D01*
X006267Y013131D01*
X006240Y013132D01*
X006214Y013137D01*
X006189Y013145D01*
X006166Y013157D01*
X006144Y013173D01*
X006125Y013191D01*
X006109Y013212D01*
X006096Y013235D01*
X006087Y013260D01*
X006081Y013286D01*
X006079Y013312D01*
X005213Y017318D02*
X005213Y017518D01*
X005313Y017418D02*
X005113Y017418D01*
X003813Y018118D02*
X003815Y018181D01*
X003821Y018243D01*
X003831Y018305D01*
X003844Y018367D01*
X003862Y018427D01*
X003883Y018486D01*
X003908Y018544D01*
X003937Y018600D01*
X003969Y018654D01*
X004004Y018706D01*
X004042Y018755D01*
X004084Y018803D01*
X004128Y018847D01*
X004176Y018889D01*
X004225Y018927D01*
X004277Y018962D01*
X004331Y018994D01*
X004387Y019023D01*
X004445Y019048D01*
X004504Y019069D01*
X004564Y019087D01*
X004626Y019100D01*
X004688Y019110D01*
X004750Y019116D01*
X004813Y019118D01*
X004876Y019116D01*
X004938Y019110D01*
X005000Y019100D01*
X005062Y019087D01*
X005122Y019069D01*
X005181Y019048D01*
X005239Y019023D01*
X005295Y018994D01*
X005349Y018962D01*
X005401Y018927D01*
X005450Y018889D01*
X005498Y018847D01*
X005542Y018803D01*
X005584Y018755D01*
X005622Y018706D01*
X005657Y018654D01*
X005689Y018600D01*
X005718Y018544D01*
X005743Y018486D01*
X005764Y018427D01*
X005782Y018367D01*
X005795Y018305D01*
X005805Y018243D01*
X005811Y018181D01*
X005813Y018118D01*
X005811Y018055D01*
X005805Y017993D01*
X005795Y017931D01*
X005782Y017869D01*
X005764Y017809D01*
X005743Y017750D01*
X005718Y017692D01*
X005689Y017636D01*
X005657Y017582D01*
X005622Y017530D01*
X005584Y017481D01*
X005542Y017433D01*
X005498Y017389D01*
X005450Y017347D01*
X005401Y017309D01*
X005349Y017274D01*
X005295Y017242D01*
X005239Y017213D01*
X005181Y017188D01*
X005122Y017167D01*
X005062Y017149D01*
X005000Y017136D01*
X004938Y017126D01*
X004876Y017120D01*
X004813Y017118D01*
X004750Y017120D01*
X004688Y017126D01*
X004626Y017136D01*
X004564Y017149D01*
X004504Y017167D01*
X004445Y017188D01*
X004387Y017213D01*
X004331Y017242D01*
X004277Y017274D01*
X004225Y017309D01*
X004176Y017347D01*
X004128Y017389D01*
X004084Y017433D01*
X004042Y017481D01*
X004004Y017530D01*
X003969Y017582D01*
X003937Y017636D01*
X003908Y017692D01*
X003883Y017750D01*
X003862Y017809D01*
X003844Y017869D01*
X003831Y017931D01*
X003821Y017993D01*
X003815Y018055D01*
X003813Y018118D01*
X011049Y017295D02*
X011049Y016195D01*
X011051Y016178D01*
X011055Y016161D01*
X011062Y016145D01*
X011072Y016131D01*
X011085Y016118D01*
X011099Y016108D01*
X011115Y016101D01*
X011132Y016097D01*
X011149Y016095D01*
X011749Y016095D01*
X011766Y016097D01*
X011783Y016101D01*
X011799Y016108D01*
X011813Y016118D01*
X011826Y016131D01*
X011836Y016145D01*
X011843Y016161D01*
X011847Y016178D01*
X011849Y016195D01*
X011849Y017295D01*
X011847Y017312D01*
X011843Y017329D01*
X011836Y017345D01*
X011826Y017359D01*
X011813Y017372D01*
X011799Y017382D01*
X011783Y017389D01*
X011766Y017393D01*
X011749Y017395D01*
X011149Y017395D01*
X011132Y017393D01*
X011115Y017389D01*
X011099Y017382D01*
X011085Y017372D01*
X011072Y017359D01*
X011062Y017345D01*
X011055Y017329D01*
X011051Y017312D01*
X011049Y017295D01*
X011815Y017751D02*
X011815Y019251D01*
X012065Y019501D01*
X012565Y019501D01*
X012815Y019251D01*
X012815Y017751D01*
X012565Y017501D01*
X012065Y017501D01*
X011815Y017751D01*
X012815Y017751D02*
X013065Y017501D01*
X013565Y017501D01*
X013815Y017751D01*
X013815Y019251D01*
X013565Y019501D01*
X013065Y019501D01*
X012815Y019251D01*
X013815Y019251D02*
X014065Y019501D01*
X014565Y019501D01*
X014815Y019251D01*
X014815Y017751D01*
X014565Y017501D01*
X014065Y017501D01*
X013815Y017751D01*
X014815Y017751D02*
X015065Y017501D01*
X015565Y017501D01*
X015815Y017751D01*
X015815Y019251D01*
X015565Y019501D01*
X015065Y019501D01*
X014815Y019251D01*
X015815Y019251D02*
X016065Y019501D01*
X016565Y019501D01*
X016815Y019251D01*
X016815Y017751D01*
X016565Y017501D01*
X016065Y017501D01*
X015815Y017751D01*
X017553Y009145D02*
X019053Y009145D01*
X019303Y008895D01*
X019303Y008395D01*
X019053Y008145D01*
X017553Y008145D01*
X017303Y007895D01*
X017303Y007395D01*
X017553Y007145D01*
X017303Y006895D01*
X017303Y006395D01*
X017553Y006145D01*
X019053Y006145D01*
X019303Y006395D01*
X019303Y006895D01*
X019053Y007145D01*
X017553Y007145D01*
X017553Y008145D02*
X017303Y008395D01*
X017303Y008895D01*
X017553Y009145D01*
X019053Y008145D02*
X019303Y007895D01*
X019303Y007395D01*
X019053Y007145D01*
X019053Y006075D02*
X017553Y006075D01*
X017303Y005825D01*
X017303Y005325D01*
X017553Y005075D01*
X019053Y005075D01*
X019303Y005325D01*
X019303Y005825D01*
X019053Y006075D01*
X019053Y005075D02*
X019303Y004825D01*
X019303Y004325D01*
X019053Y004075D01*
X017553Y004075D01*
X017303Y004325D01*
X017303Y004825D01*
X017553Y005075D01*
X017553Y004075D02*
X017303Y003825D01*
X017303Y003325D01*
X017553Y003075D01*
X019053Y003075D01*
X019303Y003325D01*
X019303Y003825D01*
X019053Y004075D01*
D14*
X017102Y001878D02*
X016787Y001878D01*
X016787Y001484D02*
X017102Y001484D01*
X016771Y002520D02*
X016771Y002835D01*
X016377Y002835D02*
X016377Y002520D01*
X016025Y001857D02*
X013820Y001857D01*
X013820Y001149D02*
X013820Y000716D01*
X014293Y000716D01*
X015474Y000716D01*
X016025Y000716D01*
X016025Y001149D01*
X015474Y000716D02*
X015472Y000668D01*
X015466Y000621D01*
X015457Y000575D01*
X015444Y000529D01*
X015427Y000484D01*
X015406Y000441D01*
X015383Y000400D01*
X015355Y000361D01*
X015325Y000324D01*
X015292Y000290D01*
X015257Y000258D01*
X015219Y000230D01*
X015178Y000204D01*
X015136Y000182D01*
X015093Y000163D01*
X015047Y000148D01*
X015001Y000137D01*
X014954Y000129D01*
X014907Y000125D01*
X014859Y000125D01*
X014812Y000129D01*
X014765Y000137D01*
X014719Y000148D01*
X014673Y000163D01*
X014630Y000182D01*
X014588Y000204D01*
X014547Y000230D01*
X014509Y000258D01*
X014474Y000290D01*
X014441Y000324D01*
X014411Y000361D01*
X014383Y000400D01*
X014360Y000441D01*
X014339Y000484D01*
X014322Y000529D01*
X014309Y000575D01*
X014300Y000621D01*
X014294Y000668D01*
X014292Y000716D01*
X011925Y004260D02*
X011610Y004260D01*
X011610Y004653D02*
X011925Y004653D01*
X011866Y006090D02*
X011866Y006405D01*
X012259Y006405D02*
X012259Y006090D01*
X012161Y009220D02*
X012161Y009535D01*
X012555Y009535D02*
X012555Y009220D01*
X013224Y009220D02*
X013224Y009535D01*
X013618Y009535D02*
X013618Y009220D01*
X014051Y009220D02*
X014051Y009535D01*
X014444Y009535D02*
X014444Y009220D01*
X014799Y009220D02*
X014799Y009535D01*
X015193Y009535D02*
X015193Y009220D01*
X015665Y009220D02*
X015665Y009535D01*
X016059Y009535D02*
X016059Y009220D01*
X018677Y010677D02*
X011551Y010677D01*
X011551Y015421D01*
X018677Y015421D01*
X018677Y010677D01*
X018106Y016464D02*
X017791Y016464D01*
X017791Y016858D02*
X018106Y016858D01*
X014169Y016853D02*
X013854Y016853D01*
X013854Y016460D02*
X014169Y016460D01*
X010547Y015795D02*
X010547Y015480D01*
X010153Y015480D02*
X010153Y015795D01*
X009740Y019653D02*
X009740Y020323D01*
X006708Y020323D01*
X006708Y019653D01*
X005188Y016896D02*
X004873Y016896D01*
X004873Y016502D02*
X005188Y016502D01*
X005188Y016071D02*
X004873Y016071D01*
X004873Y015677D02*
X005188Y015677D01*
X002978Y016110D02*
X002978Y016425D01*
X002899Y016386D02*
X002663Y016386D01*
X002584Y016425D02*
X002584Y016110D01*
X002663Y016149D02*
X002781Y016346D01*
X002899Y016149D01*
X002663Y016149D01*
X007397Y010874D02*
X007397Y010559D01*
X007791Y010559D02*
X007791Y010874D01*
X006689Y010549D02*
X006374Y010549D01*
X006374Y010155D02*
X006689Y010155D01*
X006689Y009693D02*
X006374Y009693D01*
X006374Y009299D02*
X006689Y009299D01*
X006689Y008394D02*
X006374Y008394D01*
X006374Y008000D02*
X006689Y008000D01*
X007625Y008020D02*
X007627Y008040D01*
X007633Y008058D01*
X007642Y008076D01*
X007654Y008091D01*
X007669Y008103D01*
X007687Y008112D01*
X007705Y008118D01*
X007725Y008120D01*
X007745Y008118D01*
X007763Y008112D01*
X007781Y008103D01*
X007796Y008091D01*
X007808Y008076D01*
X007817Y008058D01*
X007823Y008040D01*
X007825Y008020D01*
X007823Y008000D01*
X007817Y007982D01*
X007808Y007964D01*
X007796Y007949D01*
X007781Y007937D01*
X007763Y007928D01*
X007745Y007922D01*
X007725Y007920D01*
X007705Y007922D01*
X007687Y007928D01*
X007669Y007937D01*
X007654Y007949D01*
X007642Y007964D01*
X007633Y007982D01*
X007627Y008000D01*
X007625Y008020D01*
X006393Y006587D02*
X006393Y006272D01*
X006000Y006272D02*
X006000Y006587D01*
X004996Y004673D02*
X004996Y004358D01*
X004602Y004358D02*
X004602Y004673D01*
X005507Y004122D02*
X005507Y003807D01*
X005901Y003807D02*
X005901Y004122D01*
X006354Y003728D02*
X006354Y003413D01*
X006748Y003413D02*
X006748Y003728D01*
X007555Y003487D02*
X007870Y003487D01*
X007870Y003093D02*
X007555Y003093D01*
X008746Y003091D02*
X009061Y003091D01*
X009061Y003485D02*
X008746Y003485D01*
X009260Y002355D02*
X009260Y000961D01*
X009302Y000909D01*
X009347Y000858D01*
X009395Y000811D01*
X009446Y000766D01*
X009499Y000725D01*
X009554Y000686D01*
X009611Y000651D01*
X009671Y000619D01*
X009732Y000591D01*
X009795Y000566D01*
X009859Y000545D01*
X009924Y000528D01*
X009990Y000514D01*
X010057Y000505D01*
X010124Y000499D01*
X010192Y000497D01*
X010259Y000499D01*
X010326Y000505D01*
X010393Y000515D01*
X010459Y000529D01*
X010524Y000546D01*
X010588Y000568D01*
X010651Y000593D01*
X010712Y000621D01*
X010771Y000653D01*
X010828Y000689D01*
X010884Y000728D01*
X010936Y000770D01*
X010987Y000814D01*
X011034Y000862D01*
X011079Y000913D01*
X011121Y000966D01*
X011160Y001021D01*
X011195Y001078D01*
X011227Y001138D01*
X011255Y001199D01*
X011280Y001261D01*
X011301Y001325D01*
X011319Y001391D01*
X011332Y001457D01*
X011342Y001523D01*
X011348Y001591D01*
X011350Y001658D01*
X011348Y001725D01*
X011342Y001793D01*
X011332Y001859D01*
X011319Y001925D01*
X011301Y001991D01*
X011280Y002055D01*
X011255Y002117D01*
X011227Y002178D01*
X011195Y002238D01*
X011160Y002295D01*
X011121Y002350D01*
X011079Y002403D01*
X011034Y002454D01*
X010987Y002502D01*
X010936Y002546D01*
X010884Y002588D01*
X010828Y002627D01*
X010771Y002663D01*
X010712Y002695D01*
X010651Y002723D01*
X010588Y002748D01*
X010524Y002770D01*
X010459Y002787D01*
X010393Y002801D01*
X010326Y002811D01*
X010259Y002817D01*
X010192Y002819D01*
X010124Y002817D01*
X010057Y002811D01*
X009990Y002802D01*
X009924Y002788D01*
X009859Y002771D01*
X009795Y002750D01*
X009732Y002725D01*
X009671Y002697D01*
X009611Y002665D01*
X009554Y002630D01*
X009499Y002591D01*
X009446Y002550D01*
X009395Y002505D01*
X009347Y002458D01*
X009302Y002407D01*
X009260Y002355D01*
X008263Y001425D02*
X007948Y001425D01*
X007948Y001031D02*
X008263Y001031D01*
X006468Y001305D02*
X006468Y002805D01*
X006068Y002805D02*
X006068Y002055D01*
X005368Y002055D01*
X005368Y002805D01*
X006068Y002805D01*
X004484Y002055D02*
X004486Y002117D01*
X004492Y002180D01*
X004502Y002241D01*
X004516Y002302D01*
X004533Y002362D01*
X004554Y002421D01*
X004580Y002478D01*
X004608Y002533D01*
X004640Y002587D01*
X004676Y002638D01*
X004714Y002688D01*
X004756Y002734D01*
X004800Y002778D01*
X004848Y002819D01*
X004897Y002857D01*
X004949Y002891D01*
X005003Y002922D01*
X005059Y002950D01*
X005117Y002974D01*
X005176Y002995D01*
X005236Y003011D01*
X005297Y003024D01*
X005359Y003033D01*
X005421Y003038D01*
X005484Y003039D01*
X005546Y003036D01*
X005608Y003029D01*
X005670Y003018D01*
X005730Y003003D01*
X005790Y002985D01*
X005848Y002963D01*
X005905Y002937D01*
X005960Y002907D01*
X006013Y002874D01*
X006064Y002838D01*
X006112Y002799D01*
X006158Y002756D01*
X006201Y002711D01*
X006241Y002663D01*
X006278Y002613D01*
X006312Y002560D01*
X006343Y002506D01*
X006369Y002450D01*
X006393Y002392D01*
X006412Y002332D01*
X006428Y002272D01*
X006440Y002210D01*
X006448Y002149D01*
X006452Y002086D01*
X006452Y002024D01*
X006448Y001961D01*
X006440Y001900D01*
X006428Y001838D01*
X006412Y001778D01*
X006393Y001718D01*
X006369Y001660D01*
X006343Y001604D01*
X006312Y001550D01*
X006278Y001497D01*
X006241Y001447D01*
X006201Y001399D01*
X006158Y001354D01*
X006112Y001311D01*
X006064Y001272D01*
X006013Y001236D01*
X005960Y001203D01*
X005905Y001173D01*
X005848Y001147D01*
X005790Y001125D01*
X005730Y001107D01*
X005670Y001092D01*
X005608Y001081D01*
X005546Y001074D01*
X005484Y001071D01*
X005421Y001072D01*
X005359Y001077D01*
X005297Y001086D01*
X005236Y001099D01*
X005176Y001115D01*
X005117Y001136D01*
X005059Y001160D01*
X005003Y001188D01*
X004949Y001219D01*
X004897Y001253D01*
X004848Y001291D01*
X004800Y001332D01*
X004756Y001376D01*
X004714Y001422D01*
X004676Y001472D01*
X004640Y001523D01*
X004608Y001577D01*
X004580Y001632D01*
X004554Y001689D01*
X004533Y001748D01*
X004516Y001808D01*
X004502Y001869D01*
X004492Y001930D01*
X004486Y001993D01*
X004484Y002055D01*
X006468Y002805D02*
X006425Y002859D01*
X006379Y002911D01*
X006330Y002960D01*
X006278Y003007D01*
X006224Y003050D01*
X006168Y003091D01*
X006109Y003128D01*
X006049Y003162D01*
X005986Y003192D01*
X005923Y003219D01*
X005857Y003243D01*
X005791Y003263D01*
X005723Y003279D01*
X005655Y003291D01*
X005586Y003299D01*
X005517Y003304D01*
X005447Y003305D01*
X005378Y003302D01*
X005309Y003295D01*
X005241Y003284D01*
X005173Y003270D01*
X005106Y003251D01*
X005040Y003229D01*
X004975Y003204D01*
X004912Y003175D01*
X004851Y003142D01*
X004792Y003106D01*
X004735Y003067D01*
X004679Y003025D01*
X004627Y002980D01*
X004577Y002932D01*
X004530Y002881D01*
X004485Y002827D01*
X004444Y002772D01*
X004406Y002714D01*
X004371Y002654D01*
X004339Y002592D01*
X004311Y002529D01*
X004287Y002464D01*
X004266Y002398D01*
X004249Y002330D01*
X004235Y002262D01*
X004226Y002193D01*
X004220Y002124D01*
X004218Y002055D01*
X004220Y001986D01*
X004226Y001917D01*
X004235Y001848D01*
X004249Y001780D01*
X004266Y001712D01*
X004287Y001646D01*
X004311Y001581D01*
X004339Y001518D01*
X004371Y001456D01*
X004406Y001396D01*
X004444Y001338D01*
X004485Y001283D01*
X004530Y001229D01*
X004577Y001178D01*
X004627Y001130D01*
X004679Y001085D01*
X004735Y001043D01*
X004792Y001004D01*
X004851Y000968D01*
X004912Y000935D01*
X004975Y000906D01*
X005040Y000881D01*
X005106Y000859D01*
X005173Y000840D01*
X005241Y000826D01*
X005309Y000815D01*
X005378Y000808D01*
X005447Y000805D01*
X005517Y000806D01*
X005586Y000811D01*
X005655Y000819D01*
X005723Y000831D01*
X005791Y000847D01*
X005857Y000867D01*
X005923Y000891D01*
X005986Y000918D01*
X006049Y000948D01*
X006109Y000982D01*
X006168Y001019D01*
X006224Y001060D01*
X006278Y001103D01*
X006330Y001150D01*
X006379Y001199D01*
X006425Y001251D01*
X006468Y001305D01*
X001610Y003512D02*
X001295Y003512D01*
X001295Y003905D02*
X001610Y003905D01*
X001610Y005480D02*
X001295Y005480D01*
X001295Y005874D02*
X001610Y005874D01*
X010153Y011287D02*
X010153Y011602D01*
X010547Y011602D02*
X010547Y011287D01*
D15*
X005670Y012820D02*
X005672Y012838D01*
X005678Y012856D01*
X005687Y012872D01*
X005699Y012885D01*
X005714Y012896D01*
X005731Y012904D01*
X005749Y012908D01*
X005767Y012908D01*
X005785Y012904D01*
X005802Y012896D01*
X005817Y012885D01*
X005829Y012872D01*
X005838Y012856D01*
X005844Y012838D01*
X005846Y012820D01*
X005844Y012802D01*
X005838Y012784D01*
X005829Y012768D01*
X005817Y012755D01*
X005802Y012744D01*
X005785Y012736D01*
X005767Y012732D01*
X005749Y012732D01*
X005731Y012736D01*
X005714Y012744D01*
X005699Y012755D01*
X005687Y012768D01*
X005678Y012784D01*
X005672Y012802D01*
X005670Y012820D01*
D16*
X010759Y009938D02*
X010759Y009638D01*
X010759Y009938D02*
X011119Y009938D01*
X011279Y009498D02*
X011279Y009258D01*
X011119Y008818D02*
X010759Y008818D01*
X010759Y009118D01*
M02*
