%
M48
M72
T01C0.0120
T02C0.0157
T03C0.0197
T04C0.0240
T05C0.0315
T06C0.0320
T07C0.0400
T08C0.0590
T09C0.1300
%
T01
X8893Y3866
X10468Y6268
X8854Y6740
X12752Y6268
X7122Y11149
X6728Y11543
X9602Y16307
X9326Y16701
X8539Y17488
X8106Y17488
X15586Y17134
X16137Y17173
X16374Y16189
X16846Y16189
T02
X18303Y17094
X13893Y14535
X13401Y11489
X11492Y10470
X10350Y10716
X9366Y9496
X8145Y9496
X7958Y7030
X7958Y6356
X9381Y5716
X9691Y5480
X10980Y5126
X11767Y5126
X12653Y4432
X11767Y3905
X11767Y3512
X11019Y3512
X10704Y3905
X10862Y2685
X11964Y2685
X9267Y2626
X12358Y6622
X11649Y7685
X11216Y8000
X14248Y8669
X15862Y8669
X16256Y11504
X10350Y16464
X9641Y17567
X8741Y14924
X8052Y14924
X6885Y16110
X6807Y17567
X2781Y17134
X6256Y12020
X7633Y12016
X7791Y13275
X1256Y4732
X17319Y1268
T03
X9056Y10318
X8126Y10318
X6649Y8748
X5665Y8787
T04
X3048Y5634
X3048Y3713
T05
X4618Y2436
X5118Y1674
X5718Y2436
X6318Y1674
X9689Y1658
X10689Y1658
X13922Y1542
X14922Y1542
X15922Y1542
T06
X5213Y18118
X4413Y18118
T07
X2783Y11405
X2783Y9625
X12315Y18001
X12315Y19001
X13315Y19001
X14315Y19001
X15315Y19001
X16315Y19001
X16315Y18001
X15315Y18001
X14315Y18001
X13315Y18001
X17803Y8645
X17803Y7645
X17803Y6645
X18803Y6645
X18803Y7645
X18803Y8645
X18803Y5575
X17803Y5575
X17803Y4575
X17803Y3575
X18803Y3575
X18803Y4575
T08
X3763Y9135
X3763Y11895
T09
X1531Y1858
X1531Y19181
X18854Y19181
X18854Y1858
M30
