G75*
%MOIN*%
%OFA0B0*%
%FSLAX24Y24*%
%IPPOS*%
%LPD*%
%AMOC8*
5,1,8,0,0,1.08239X$1,22.5*
%
%ADD10C,0.0000*%
%ADD11C,0.0030*%
%ADD12C,0.0060*%
%ADD13C,0.0040*%
%ADD14C,0.0050*%
%ADD15C,0.0010*%
%ADD16C,0.0100*%
%ADD17C,0.0020*%
%ADD18C,0.0080*%
%ADD19R,0.1984X0.0028*%
%ADD20R,0.1323X0.0028*%
%ADD21R,0.0634X0.0028*%
%ADD22R,0.1268X0.0028*%
%ADD23R,0.0606X0.0028*%
%ADD24R,0.1213X0.0028*%
%ADD25R,0.1185X0.0028*%
%ADD26R,0.0579X0.0028*%
%ADD27R,0.1157X0.0028*%
%ADD28R,0.0551X0.0028*%
%ADD29R,0.0992X0.0028*%
%ADD30R,0.0165X0.0028*%
%ADD31R,0.0909X0.0028*%
%ADD32R,0.0138X0.0028*%
%ADD33R,0.0882X0.0028*%
%ADD34R,0.0524X0.0028*%
%ADD35R,0.0827X0.0028*%
%ADD36R,0.0799X0.0028*%
%ADD37R,0.0193X0.0028*%
%ADD38R,0.0854X0.0028*%
%ADD39R,0.0496X0.0028*%
%ADD40R,0.0220X0.0028*%
%ADD41R,0.0469X0.0028*%
%ADD42R,0.0937X0.0028*%
%ADD43R,0.1130X0.0028*%
%ADD44R,0.1240X0.0028*%
%ADD45R,0.0661X0.0028*%
%ADD46R,0.0140X0.0096*%
%ADD47C,0.0157*%
D10*
X004350Y005263D02*
X004352Y005313D01*
X004358Y005363D01*
X004368Y005413D01*
X004381Y005461D01*
X004398Y005509D01*
X004419Y005555D01*
X004443Y005599D01*
X004471Y005641D01*
X004502Y005681D01*
X004536Y005718D01*
X004573Y005753D01*
X004612Y005784D01*
X004653Y005813D01*
X004697Y005838D01*
X004743Y005860D01*
X004790Y005878D01*
X004838Y005892D01*
X004887Y005903D01*
X004937Y005910D01*
X004987Y005913D01*
X005038Y005912D01*
X005088Y005907D01*
X005138Y005898D01*
X005186Y005886D01*
X005234Y005869D01*
X005280Y005849D01*
X005325Y005826D01*
X005368Y005799D01*
X005408Y005769D01*
X005446Y005736D01*
X005481Y005700D01*
X005514Y005661D01*
X005543Y005620D01*
X005569Y005577D01*
X005592Y005532D01*
X005611Y005485D01*
X005626Y005437D01*
X005638Y005388D01*
X005646Y005338D01*
X005650Y005288D01*
X005650Y005238D01*
X005646Y005188D01*
X005638Y005138D01*
X005626Y005089D01*
X005611Y005041D01*
X005592Y004994D01*
X005569Y004949D01*
X005543Y004906D01*
X005514Y004865D01*
X005481Y004826D01*
X005446Y004790D01*
X005408Y004757D01*
X005368Y004727D01*
X005325Y004700D01*
X005280Y004677D01*
X005234Y004657D01*
X005186Y004640D01*
X005138Y004628D01*
X005088Y004619D01*
X005038Y004614D01*
X004987Y004613D01*
X004937Y004616D01*
X004887Y004623D01*
X004838Y004634D01*
X004790Y004648D01*
X004743Y004666D01*
X004697Y004688D01*
X004653Y004713D01*
X004612Y004742D01*
X004573Y004773D01*
X004536Y004808D01*
X004502Y004845D01*
X004471Y004885D01*
X004443Y004927D01*
X004419Y004971D01*
X004398Y005017D01*
X004381Y005065D01*
X004368Y005113D01*
X004358Y005163D01*
X004352Y005213D01*
X004350Y005263D01*
X003031Y006444D02*
X003031Y021405D01*
X004350Y022586D02*
X004352Y022636D01*
X004358Y022686D01*
X004368Y022736D01*
X004381Y022784D01*
X004398Y022832D01*
X004419Y022878D01*
X004443Y022922D01*
X004471Y022964D01*
X004502Y023004D01*
X004536Y023041D01*
X004573Y023076D01*
X004612Y023107D01*
X004653Y023136D01*
X004697Y023161D01*
X004743Y023183D01*
X004790Y023201D01*
X004838Y023215D01*
X004887Y023226D01*
X004937Y023233D01*
X004987Y023236D01*
X005038Y023235D01*
X005088Y023230D01*
X005138Y023221D01*
X005186Y023209D01*
X005234Y023192D01*
X005280Y023172D01*
X005325Y023149D01*
X005368Y023122D01*
X005408Y023092D01*
X005446Y023059D01*
X005481Y023023D01*
X005514Y022984D01*
X005543Y022943D01*
X005569Y022900D01*
X005592Y022855D01*
X005611Y022808D01*
X005626Y022760D01*
X005638Y022711D01*
X005646Y022661D01*
X005650Y022611D01*
X005650Y022561D01*
X005646Y022511D01*
X005638Y022461D01*
X005626Y022412D01*
X005611Y022364D01*
X005592Y022317D01*
X005569Y022272D01*
X005543Y022229D01*
X005514Y022188D01*
X005481Y022149D01*
X005446Y022113D01*
X005408Y022080D01*
X005368Y022050D01*
X005325Y022023D01*
X005280Y022000D01*
X005234Y021980D01*
X005186Y021963D01*
X005138Y021951D01*
X005088Y021942D01*
X005038Y021937D01*
X004987Y021936D01*
X004937Y021939D01*
X004887Y021946D01*
X004838Y021957D01*
X004790Y021971D01*
X004743Y021989D01*
X004697Y022011D01*
X004653Y022036D01*
X004612Y022065D01*
X004573Y022096D01*
X004536Y022131D01*
X004502Y022168D01*
X004471Y022208D01*
X004443Y022250D01*
X004419Y022294D01*
X004398Y022340D01*
X004381Y022388D01*
X004368Y022436D01*
X004358Y022486D01*
X004352Y022536D01*
X004350Y022586D01*
X003031Y021405D02*
X003033Y021529D01*
X003039Y021652D01*
X003048Y021776D01*
X003062Y021898D01*
X003079Y022021D01*
X003101Y022143D01*
X003126Y022264D01*
X003155Y022384D01*
X003187Y022503D01*
X003224Y022622D01*
X003264Y022739D01*
X003307Y022854D01*
X003355Y022969D01*
X003406Y023081D01*
X003460Y023192D01*
X003518Y023302D01*
X003579Y023409D01*
X003644Y023515D01*
X003712Y023618D01*
X003783Y023719D01*
X003857Y023818D01*
X003934Y023915D01*
X004015Y024009D01*
X004098Y024100D01*
X004184Y024189D01*
X004273Y024275D01*
X004364Y024358D01*
X004458Y024439D01*
X004555Y024516D01*
X004654Y024590D01*
X004755Y024661D01*
X004858Y024729D01*
X004964Y024794D01*
X005071Y024855D01*
X005181Y024913D01*
X005292Y024967D01*
X005404Y025018D01*
X005519Y025066D01*
X005634Y025109D01*
X005751Y025149D01*
X005870Y025186D01*
X005989Y025218D01*
X006109Y025247D01*
X006230Y025272D01*
X006352Y025294D01*
X006475Y025311D01*
X006597Y025325D01*
X006721Y025334D01*
X006844Y025340D01*
X006968Y025342D01*
X010905Y025342D01*
X010944Y025340D01*
X010982Y025334D01*
X011019Y025325D01*
X011056Y025312D01*
X011091Y025295D01*
X011124Y025276D01*
X011155Y025253D01*
X011184Y025227D01*
X011210Y025198D01*
X011233Y025167D01*
X011252Y025134D01*
X011269Y025099D01*
X011282Y025062D01*
X011291Y025025D01*
X011297Y024987D01*
X011299Y024948D01*
X011301Y024909D01*
X011307Y024871D01*
X011316Y024834D01*
X011329Y024797D01*
X011346Y024762D01*
X011365Y024729D01*
X011388Y024698D01*
X011414Y024669D01*
X011443Y024643D01*
X011474Y024620D01*
X011507Y024601D01*
X011542Y024584D01*
X011579Y024571D01*
X011616Y024562D01*
X011654Y024556D01*
X011693Y024554D01*
X011693Y024555D02*
X015630Y024555D01*
X015630Y024554D02*
X015669Y024556D01*
X015707Y024562D01*
X015744Y024571D01*
X015781Y024584D01*
X015816Y024601D01*
X015849Y024620D01*
X015880Y024643D01*
X015909Y024669D01*
X015935Y024698D01*
X015958Y024729D01*
X015977Y024762D01*
X015994Y024797D01*
X016007Y024834D01*
X016016Y024871D01*
X016022Y024909D01*
X016024Y024948D01*
X016023Y024948D02*
X016025Y024987D01*
X016031Y025025D01*
X016040Y025062D01*
X016053Y025099D01*
X016070Y025134D01*
X016089Y025167D01*
X016112Y025198D01*
X016138Y025227D01*
X016167Y025253D01*
X016198Y025276D01*
X016231Y025295D01*
X016266Y025312D01*
X016303Y025325D01*
X016340Y025334D01*
X016378Y025340D01*
X016417Y025342D01*
X020354Y025342D01*
X021673Y022586D02*
X021675Y022636D01*
X021681Y022686D01*
X021691Y022736D01*
X021704Y022784D01*
X021721Y022832D01*
X021742Y022878D01*
X021766Y022922D01*
X021794Y022964D01*
X021825Y023004D01*
X021859Y023041D01*
X021896Y023076D01*
X021935Y023107D01*
X021976Y023136D01*
X022020Y023161D01*
X022066Y023183D01*
X022113Y023201D01*
X022161Y023215D01*
X022210Y023226D01*
X022260Y023233D01*
X022310Y023236D01*
X022361Y023235D01*
X022411Y023230D01*
X022461Y023221D01*
X022509Y023209D01*
X022557Y023192D01*
X022603Y023172D01*
X022648Y023149D01*
X022691Y023122D01*
X022731Y023092D01*
X022769Y023059D01*
X022804Y023023D01*
X022837Y022984D01*
X022866Y022943D01*
X022892Y022900D01*
X022915Y022855D01*
X022934Y022808D01*
X022949Y022760D01*
X022961Y022711D01*
X022969Y022661D01*
X022973Y022611D01*
X022973Y022561D01*
X022969Y022511D01*
X022961Y022461D01*
X022949Y022412D01*
X022934Y022364D01*
X022915Y022317D01*
X022892Y022272D01*
X022866Y022229D01*
X022837Y022188D01*
X022804Y022149D01*
X022769Y022113D01*
X022731Y022080D01*
X022691Y022050D01*
X022648Y022023D01*
X022603Y022000D01*
X022557Y021980D01*
X022509Y021963D01*
X022461Y021951D01*
X022411Y021942D01*
X022361Y021937D01*
X022310Y021936D01*
X022260Y021939D01*
X022210Y021946D01*
X022161Y021957D01*
X022113Y021971D01*
X022066Y021989D01*
X022020Y022011D01*
X021976Y022036D01*
X021935Y022065D01*
X021896Y022096D01*
X021859Y022131D01*
X021825Y022168D01*
X021794Y022208D01*
X021766Y022250D01*
X021742Y022294D01*
X021721Y022340D01*
X021704Y022388D01*
X021691Y022436D01*
X021681Y022486D01*
X021675Y022536D01*
X021673Y022586D01*
X024291Y021405D02*
X024289Y021529D01*
X024283Y021652D01*
X024274Y021776D01*
X024260Y021898D01*
X024243Y022021D01*
X024221Y022143D01*
X024196Y022264D01*
X024167Y022384D01*
X024135Y022503D01*
X024098Y022622D01*
X024058Y022739D01*
X024015Y022854D01*
X023967Y022969D01*
X023916Y023081D01*
X023862Y023192D01*
X023804Y023302D01*
X023743Y023409D01*
X023678Y023515D01*
X023610Y023618D01*
X023539Y023719D01*
X023465Y023818D01*
X023388Y023915D01*
X023307Y024009D01*
X023224Y024100D01*
X023138Y024189D01*
X023049Y024275D01*
X022958Y024358D01*
X022864Y024439D01*
X022767Y024516D01*
X022668Y024590D01*
X022567Y024661D01*
X022464Y024729D01*
X022358Y024794D01*
X022251Y024855D01*
X022141Y024913D01*
X022030Y024967D01*
X021918Y025018D01*
X021803Y025066D01*
X021688Y025109D01*
X021571Y025149D01*
X021452Y025186D01*
X021333Y025218D01*
X021213Y025247D01*
X021092Y025272D01*
X020970Y025294D01*
X020847Y025311D01*
X020725Y025325D01*
X020601Y025334D01*
X020478Y025340D01*
X020354Y025342D01*
X024291Y021405D02*
X024291Y016996D01*
X024289Y016957D01*
X024283Y016919D01*
X024274Y016882D01*
X024261Y016845D01*
X024244Y016810D01*
X024225Y016777D01*
X024202Y016746D01*
X024176Y016717D01*
X024147Y016691D01*
X024116Y016668D01*
X024083Y016649D01*
X024048Y016632D01*
X024011Y016619D01*
X023974Y016610D01*
X023936Y016604D01*
X023897Y016602D01*
X021693Y016602D01*
X021693Y016523D01*
X021693Y010578D01*
X023897Y010578D01*
X023897Y010579D02*
X023936Y010577D01*
X023974Y010571D01*
X024011Y010562D01*
X024048Y010549D01*
X024083Y010532D01*
X024116Y010513D01*
X024147Y010490D01*
X024176Y010464D01*
X024202Y010435D01*
X024225Y010404D01*
X024244Y010371D01*
X024261Y010336D01*
X024274Y010299D01*
X024283Y010262D01*
X024289Y010224D01*
X024291Y010185D01*
X024291Y006444D01*
X021673Y005263D02*
X021675Y005313D01*
X021681Y005363D01*
X021691Y005413D01*
X021704Y005461D01*
X021721Y005509D01*
X021742Y005555D01*
X021766Y005599D01*
X021794Y005641D01*
X021825Y005681D01*
X021859Y005718D01*
X021896Y005753D01*
X021935Y005784D01*
X021976Y005813D01*
X022020Y005838D01*
X022066Y005860D01*
X022113Y005878D01*
X022161Y005892D01*
X022210Y005903D01*
X022260Y005910D01*
X022310Y005913D01*
X022361Y005912D01*
X022411Y005907D01*
X022461Y005898D01*
X022509Y005886D01*
X022557Y005869D01*
X022603Y005849D01*
X022648Y005826D01*
X022691Y005799D01*
X022731Y005769D01*
X022769Y005736D01*
X022804Y005700D01*
X022837Y005661D01*
X022866Y005620D01*
X022892Y005577D01*
X022915Y005532D01*
X022934Y005485D01*
X022949Y005437D01*
X022961Y005388D01*
X022969Y005338D01*
X022973Y005288D01*
X022973Y005238D01*
X022969Y005188D01*
X022961Y005138D01*
X022949Y005089D01*
X022934Y005041D01*
X022915Y004994D01*
X022892Y004949D01*
X022866Y004906D01*
X022837Y004865D01*
X022804Y004826D01*
X022769Y004790D01*
X022731Y004757D01*
X022691Y004727D01*
X022648Y004700D01*
X022603Y004677D01*
X022557Y004657D01*
X022509Y004640D01*
X022461Y004628D01*
X022411Y004619D01*
X022361Y004614D01*
X022310Y004613D01*
X022260Y004616D01*
X022210Y004623D01*
X022161Y004634D01*
X022113Y004648D01*
X022066Y004666D01*
X022020Y004688D01*
X021976Y004713D01*
X021935Y004742D01*
X021896Y004773D01*
X021859Y004808D01*
X021825Y004845D01*
X021794Y004885D01*
X021766Y004927D01*
X021742Y004971D01*
X021721Y005017D01*
X021704Y005065D01*
X021691Y005113D01*
X021681Y005163D01*
X021675Y005213D01*
X021673Y005263D01*
X021141Y003294D02*
X021251Y003296D01*
X021361Y003302D01*
X021470Y003311D01*
X021579Y003325D01*
X021688Y003342D01*
X021796Y003363D01*
X021903Y003388D01*
X022009Y003416D01*
X022114Y003448D01*
X022218Y003484D01*
X022321Y003523D01*
X022422Y003566D01*
X022522Y003613D01*
X022620Y003663D01*
X022716Y003716D01*
X022810Y003773D01*
X022902Y003833D01*
X022993Y003896D01*
X023080Y003962D01*
X023166Y004031D01*
X023249Y004103D01*
X023329Y004178D01*
X023407Y004256D01*
X023482Y004336D01*
X023554Y004419D01*
X023623Y004505D01*
X023689Y004592D01*
X023752Y004683D01*
X023812Y004775D01*
X023869Y004869D01*
X023922Y004965D01*
X023972Y005063D01*
X024019Y005163D01*
X024062Y005264D01*
X024101Y005367D01*
X024137Y005471D01*
X024169Y005576D01*
X024197Y005682D01*
X024222Y005789D01*
X024243Y005897D01*
X024260Y006006D01*
X024274Y006115D01*
X024283Y006224D01*
X024289Y006334D01*
X024291Y006444D01*
X021141Y003295D02*
X006181Y003295D01*
X006181Y003294D02*
X006071Y003296D01*
X005961Y003302D01*
X005852Y003311D01*
X005743Y003325D01*
X005634Y003342D01*
X005526Y003363D01*
X005419Y003388D01*
X005313Y003416D01*
X005208Y003448D01*
X005104Y003484D01*
X005001Y003523D01*
X004900Y003566D01*
X004800Y003613D01*
X004702Y003663D01*
X004606Y003716D01*
X004512Y003773D01*
X004420Y003833D01*
X004329Y003896D01*
X004242Y003962D01*
X004156Y004031D01*
X004073Y004103D01*
X003993Y004178D01*
X003915Y004256D01*
X003840Y004336D01*
X003768Y004419D01*
X003699Y004505D01*
X003633Y004592D01*
X003570Y004683D01*
X003510Y004775D01*
X003453Y004869D01*
X003400Y004965D01*
X003350Y005063D01*
X003303Y005163D01*
X003260Y005264D01*
X003221Y005367D01*
X003185Y005471D01*
X003153Y005576D01*
X003125Y005682D01*
X003100Y005789D01*
X003079Y005897D01*
X003062Y006006D01*
X003048Y006115D01*
X003039Y006224D01*
X003033Y006334D01*
X003031Y006444D01*
D11*
X003460Y006455D02*
X003460Y006262D01*
X003508Y006213D01*
X003605Y006213D01*
X003653Y006262D01*
X003754Y006213D02*
X003754Y006504D01*
X003948Y006213D01*
X003948Y006504D01*
X004049Y006455D02*
X004097Y006504D01*
X004194Y006504D01*
X004242Y006455D01*
X004242Y006407D01*
X004049Y006213D01*
X004242Y006213D01*
X003653Y006455D02*
X003605Y006504D01*
X003508Y006504D01*
X003460Y006455D01*
X005329Y006815D02*
X005329Y006960D01*
X005378Y007009D01*
X005571Y007009D01*
X005620Y006960D01*
X005620Y006815D01*
X005329Y006815D01*
X005329Y007110D02*
X005475Y007110D01*
X005426Y007206D01*
X005426Y007255D01*
X005475Y007303D01*
X005571Y007303D01*
X005620Y007255D01*
X005620Y007158D01*
X005571Y007110D01*
X005329Y007110D02*
X005329Y007303D01*
X006307Y007636D02*
X006307Y007781D01*
X006356Y007829D01*
X006452Y007829D01*
X006501Y007781D01*
X006501Y007636D01*
X006597Y007636D02*
X006307Y007636D01*
X006501Y007733D02*
X006597Y007829D01*
X006549Y007931D02*
X006597Y007979D01*
X006597Y008076D01*
X006549Y008124D01*
X006452Y008124D01*
X006404Y008076D01*
X006404Y008027D01*
X006452Y007931D01*
X006307Y007931D01*
X006307Y008124D01*
X007331Y008129D02*
X007379Y008032D01*
X007476Y007935D01*
X007476Y008081D01*
X007524Y008129D01*
X007573Y008129D01*
X007621Y008081D01*
X007621Y007984D01*
X007573Y007935D01*
X007476Y007935D01*
X007476Y007834D02*
X007379Y007834D01*
X007331Y007786D01*
X007331Y007641D01*
X007621Y007641D01*
X007524Y007641D02*
X007524Y007786D01*
X007476Y007834D01*
X007524Y007738D02*
X007621Y007834D01*
X008231Y008640D02*
X008231Y008785D01*
X008280Y008833D01*
X008377Y008833D01*
X008425Y008785D01*
X008425Y008640D01*
X008425Y008737D02*
X008522Y008833D01*
X008522Y008934D02*
X008522Y009080D01*
X008473Y009128D01*
X008425Y009128D01*
X008377Y009080D01*
X008377Y008934D01*
X008522Y008934D02*
X008231Y008934D01*
X008231Y009080D01*
X008280Y009128D01*
X008328Y009128D01*
X008377Y009080D01*
X008328Y009229D02*
X008231Y009326D01*
X008522Y009326D01*
X008522Y009229D02*
X008522Y009423D01*
X008522Y008640D02*
X008231Y008640D01*
X009557Y009246D02*
X009557Y009537D01*
X009702Y009537D01*
X009751Y009488D01*
X009751Y009391D01*
X009702Y009343D01*
X009557Y009343D01*
X009654Y009343D02*
X009751Y009246D01*
X009852Y009246D02*
X009997Y009246D01*
X010045Y009295D01*
X010045Y009343D01*
X009997Y009391D01*
X009852Y009391D01*
X009852Y009246D02*
X009852Y009537D01*
X009997Y009537D01*
X010045Y009488D01*
X010045Y009440D01*
X009997Y009391D01*
X010146Y009488D02*
X010195Y009537D01*
X010292Y009537D01*
X010340Y009488D01*
X010340Y009440D01*
X010146Y009246D01*
X010340Y009246D01*
X010545Y008365D02*
X010738Y008365D01*
X010641Y008365D02*
X010641Y008074D01*
X010839Y008074D02*
X011033Y008074D01*
X010936Y008074D02*
X010936Y008365D01*
X010839Y008268D01*
X010919Y006925D02*
X010870Y006876D01*
X010870Y006683D01*
X010919Y006634D01*
X011015Y006634D01*
X011064Y006683D01*
X011165Y006634D02*
X011358Y006634D01*
X011262Y006634D02*
X011262Y006925D01*
X011165Y006828D01*
X011064Y006876D02*
X011015Y006925D01*
X010919Y006925D01*
X010769Y006876D02*
X010769Y006779D01*
X010721Y006731D01*
X010576Y006731D01*
X010672Y006731D02*
X010769Y006634D01*
X010576Y006634D02*
X010576Y006925D01*
X010721Y006925D01*
X010769Y006876D01*
X009099Y006528D02*
X009050Y006528D01*
X008857Y006721D01*
X008809Y006721D01*
X008809Y006528D01*
X008857Y006427D02*
X008809Y006378D01*
X008809Y006233D01*
X009099Y006233D01*
X009002Y006233D02*
X009002Y006378D01*
X008954Y006427D01*
X008857Y006427D01*
X009002Y006330D02*
X009099Y006427D01*
X010576Y004090D02*
X010721Y004090D01*
X010769Y004042D01*
X010769Y003945D01*
X010721Y003896D01*
X010576Y003896D01*
X010576Y003800D02*
X010576Y004090D01*
X010672Y003896D02*
X010769Y003800D01*
X010870Y003848D02*
X010919Y003800D01*
X011015Y003800D01*
X011064Y003848D01*
X011165Y003800D02*
X011358Y003993D01*
X011358Y004042D01*
X011310Y004090D01*
X011213Y004090D01*
X011165Y004042D01*
X011064Y004042D02*
X011015Y004090D01*
X010919Y004090D01*
X010870Y004042D01*
X010870Y003848D01*
X011165Y003800D02*
X011358Y003800D01*
X012076Y004109D02*
X012216Y004072D01*
X012275Y004106D01*
X012325Y004293D01*
X012291Y004352D01*
X012151Y004390D01*
X012076Y004109D01*
X012360Y004033D02*
X012547Y003983D01*
X012454Y004008D02*
X012529Y004288D01*
X012410Y004220D01*
X013099Y006066D02*
X013293Y006066D01*
X013341Y006114D01*
X013341Y006211D01*
X013293Y006259D01*
X013341Y006360D02*
X013341Y006554D01*
X013341Y006457D02*
X013051Y006457D01*
X013147Y006360D01*
X013099Y006259D02*
X013051Y006211D01*
X013051Y006114D01*
X013099Y006066D01*
X013099Y006655D02*
X013051Y006703D01*
X013051Y006800D01*
X013099Y006849D01*
X013147Y006849D01*
X013196Y006800D01*
X013196Y006752D01*
X013196Y006800D02*
X013244Y006849D01*
X013293Y006849D01*
X013341Y006800D01*
X013341Y006703D01*
X013293Y006655D01*
X013415Y007726D02*
X013415Y008016D01*
X013561Y008016D01*
X013609Y007968D01*
X013609Y007871D01*
X013561Y007822D01*
X013415Y007822D01*
X013512Y007822D02*
X013609Y007726D01*
X013710Y007726D02*
X013904Y007726D01*
X013807Y007726D02*
X013807Y008016D01*
X013710Y007919D01*
X014005Y007919D02*
X014102Y008016D01*
X014102Y007726D01*
X014198Y007726D02*
X014005Y007726D01*
X014505Y009652D02*
X014505Y009845D01*
X014505Y009748D02*
X014795Y009748D01*
X014795Y009946D02*
X014601Y010140D01*
X014553Y010140D01*
X014505Y010091D01*
X014505Y009995D01*
X014553Y009946D01*
X014795Y009946D02*
X014795Y010140D01*
X014179Y009975D02*
X014179Y009782D01*
X014131Y009734D01*
X014034Y009734D01*
X013986Y009782D01*
X014034Y009879D02*
X014179Y009879D01*
X014179Y009975D02*
X014131Y010024D01*
X014034Y010024D01*
X013986Y009975D01*
X013986Y009927D01*
X014034Y009879D01*
X013885Y009879D02*
X013836Y009830D01*
X013691Y009830D01*
X013691Y009734D02*
X013691Y010024D01*
X013836Y010024D01*
X013885Y009975D01*
X013885Y009879D01*
X013788Y009830D02*
X013885Y009734D01*
X013450Y009979D02*
X013402Y009930D01*
X013305Y009930D01*
X013257Y009979D01*
X013450Y010172D01*
X013450Y009979D01*
X013450Y010172D02*
X013402Y010221D01*
X013305Y010221D01*
X013257Y010172D01*
X013257Y009979D01*
X013156Y009930D02*
X012962Y009930D01*
X013059Y009930D02*
X013059Y010221D01*
X012962Y010124D01*
X012861Y010172D02*
X012813Y010221D01*
X012667Y010221D01*
X012667Y009930D01*
X012667Y010027D02*
X012813Y010027D01*
X012861Y010075D01*
X012861Y010172D01*
X012764Y010027D02*
X012861Y009930D01*
X014065Y011114D02*
X014113Y011066D01*
X014065Y011114D02*
X014065Y011211D01*
X014113Y011259D01*
X014161Y011259D01*
X014355Y011066D01*
X014355Y011259D01*
X014306Y011360D02*
X014355Y011409D01*
X014355Y011506D01*
X014306Y011554D01*
X014210Y011554D01*
X014161Y011506D01*
X014161Y011457D01*
X014210Y011360D01*
X014065Y011360D01*
X014065Y011554D01*
X011374Y014093D02*
X011374Y014189D01*
X011326Y014238D01*
X011229Y014339D02*
X011229Y014532D01*
X011374Y014484D02*
X011084Y014484D01*
X011229Y014339D01*
X011132Y014238D02*
X011084Y014189D01*
X011084Y014093D01*
X011132Y014044D01*
X011326Y014044D01*
X011374Y014093D01*
X012065Y014672D02*
X012113Y014624D01*
X012307Y014624D01*
X012355Y014672D01*
X012355Y014769D01*
X012307Y014818D01*
X012355Y014919D02*
X012355Y015112D01*
X012355Y015015D02*
X012065Y015015D01*
X012162Y014919D01*
X012113Y014818D02*
X012065Y014769D01*
X012065Y014672D01*
X012113Y015213D02*
X012162Y015213D01*
X012210Y015262D01*
X012210Y015407D01*
X012307Y015407D02*
X012113Y015407D01*
X012065Y015358D01*
X012065Y015262D01*
X012113Y015213D01*
X012307Y015213D02*
X012355Y015262D01*
X012355Y015358D01*
X012307Y015407D01*
X010875Y017065D02*
X010681Y017065D01*
X010633Y017113D01*
X010633Y017210D01*
X010681Y017258D01*
X010730Y017360D02*
X010633Y017456D01*
X010923Y017456D01*
X010923Y017360D02*
X010923Y017553D01*
X010875Y017258D02*
X010923Y017210D01*
X010923Y017113D01*
X010875Y017065D01*
X010062Y016350D02*
X010062Y016060D01*
X009965Y016060D02*
X010159Y016060D01*
X009965Y016253D02*
X010062Y016350D01*
X009864Y016302D02*
X009816Y016350D01*
X009719Y016350D01*
X009671Y016302D01*
X009671Y016108D01*
X009719Y016060D01*
X009816Y016060D01*
X009864Y016108D01*
X009571Y016060D02*
X009474Y016060D01*
X009523Y016060D02*
X009523Y016350D01*
X009571Y016350D02*
X009474Y016350D01*
X008128Y016680D02*
X008128Y016777D01*
X008080Y016825D01*
X008080Y016927D02*
X008128Y016975D01*
X008128Y017072D01*
X008080Y017120D01*
X007886Y017120D01*
X007838Y017072D01*
X007838Y016975D01*
X007886Y016927D01*
X007934Y016927D01*
X007983Y016975D01*
X007983Y017120D01*
X007886Y016825D02*
X007838Y016777D01*
X007838Y016680D01*
X007886Y016632D01*
X008080Y016632D01*
X008128Y016680D01*
X008897Y017804D02*
X008994Y017804D01*
X009042Y017853D01*
X009143Y017853D02*
X009192Y017804D01*
X009288Y017804D01*
X009337Y017853D01*
X009337Y017901D01*
X009288Y017949D01*
X009192Y017949D01*
X009143Y017998D01*
X009143Y018046D01*
X009192Y018095D01*
X009288Y018095D01*
X009337Y018046D01*
X009337Y017998D01*
X009288Y017949D01*
X009192Y017949D02*
X009143Y017901D01*
X009143Y017853D01*
X009042Y018046D02*
X008994Y018095D01*
X008897Y018095D01*
X008849Y018046D01*
X008849Y017853D01*
X008897Y017804D01*
X008364Y018137D02*
X008364Y018234D01*
X008316Y018282D01*
X008316Y018383D02*
X008364Y018383D01*
X008316Y018383D02*
X008122Y018577D01*
X008074Y018577D01*
X008074Y018383D01*
X008122Y018282D02*
X008074Y018234D01*
X008074Y018137D01*
X008122Y018089D01*
X008316Y018089D01*
X008364Y018137D01*
X007476Y019925D02*
X007186Y019925D01*
X007186Y020070D01*
X007234Y020119D01*
X007331Y020119D01*
X007380Y020070D01*
X007380Y019925D01*
X007380Y020022D02*
X007476Y020119D01*
X007331Y020220D02*
X007331Y020413D01*
X007186Y020365D02*
X007331Y020220D01*
X007476Y020365D02*
X007186Y020365D01*
X005777Y020525D02*
X005729Y020476D01*
X005777Y020525D02*
X005777Y020622D01*
X005729Y020670D01*
X005632Y020670D01*
X005584Y020622D01*
X005584Y020573D01*
X005632Y020476D01*
X005487Y020476D01*
X005487Y020670D01*
X005487Y020771D02*
X005680Y020771D01*
X005777Y020868D01*
X005680Y020965D01*
X005487Y020965D01*
X005632Y020375D02*
X005632Y020182D01*
X005535Y020279D02*
X005729Y020279D01*
X005729Y018996D02*
X005535Y018996D01*
X005487Y018948D01*
X005487Y018803D01*
X005777Y018803D01*
X005777Y018948D01*
X005729Y018996D01*
X005777Y018701D02*
X005487Y018701D01*
X005487Y018508D02*
X005777Y018701D01*
X005777Y018508D02*
X005487Y018508D01*
X005535Y018407D02*
X005487Y018358D01*
X005487Y018262D01*
X005535Y018213D01*
X005729Y018213D01*
X005777Y018262D01*
X005777Y018358D01*
X005729Y018407D01*
X005632Y018407D01*
X005632Y018310D01*
X005620Y016514D02*
X005668Y016465D01*
X005716Y016514D01*
X005765Y016514D01*
X005813Y016465D01*
X005813Y016369D01*
X005765Y016320D01*
X005765Y016219D02*
X005813Y016171D01*
X005813Y016074D01*
X005765Y016026D01*
X005571Y016026D01*
X005523Y016074D01*
X005523Y016171D01*
X005571Y016219D01*
X005571Y016320D02*
X005523Y016369D01*
X005523Y016465D01*
X005571Y016514D01*
X005620Y016514D01*
X005668Y016465D02*
X005668Y016417D01*
X005063Y015095D02*
X005063Y014902D01*
X005063Y014999D02*
X004773Y014999D01*
X004870Y014902D01*
X005063Y014801D02*
X005063Y014607D01*
X004773Y014607D01*
X004870Y014506D02*
X005063Y014506D01*
X004918Y014506D02*
X004918Y014313D01*
X004870Y014313D02*
X004773Y014409D01*
X004870Y014506D01*
X004870Y014313D02*
X005063Y014313D01*
X005063Y014115D02*
X004773Y014115D01*
X004773Y014211D02*
X004773Y014018D01*
X004773Y013917D02*
X005063Y013723D01*
X005063Y013917D02*
X004773Y013723D01*
X004206Y013332D02*
X004206Y013235D01*
X004157Y013186D01*
X004061Y013186D01*
X004061Y013332D01*
X004109Y013380D01*
X004157Y013380D01*
X004206Y013332D01*
X004061Y013186D02*
X003964Y013283D01*
X003915Y013380D01*
X003964Y013085D02*
X003915Y013037D01*
X003915Y012940D01*
X003964Y012892D01*
X004157Y012892D01*
X004206Y012940D01*
X004206Y013037D01*
X004157Y013085D01*
X004231Y015703D02*
X004183Y015751D01*
X004231Y015703D02*
X004328Y015703D01*
X004376Y015751D01*
X004376Y015848D01*
X004328Y015896D01*
X004279Y015896D01*
X004183Y015848D01*
X004183Y015993D01*
X004376Y015993D01*
X004081Y015945D02*
X004033Y015993D01*
X003936Y015993D01*
X003888Y015945D01*
X003888Y015751D01*
X003936Y015703D01*
X004033Y015703D01*
X004081Y015751D01*
X003864Y017066D02*
X003671Y017066D01*
X003767Y017066D02*
X003767Y017356D01*
X003671Y017260D01*
X003570Y017308D02*
X003570Y017211D01*
X003521Y017163D01*
X003376Y017163D01*
X003376Y017066D02*
X003376Y017356D01*
X003521Y017356D01*
X003570Y017308D01*
X003473Y017163D02*
X003570Y017066D01*
X003633Y021213D02*
X003730Y021213D01*
X003681Y021213D02*
X003681Y021504D01*
X003633Y021504D02*
X003730Y021504D01*
X003829Y021455D02*
X003829Y021262D01*
X003878Y021213D01*
X003974Y021213D01*
X004023Y021262D01*
X004124Y021262D02*
X004172Y021213D01*
X004269Y021213D01*
X004317Y021262D01*
X004317Y021310D01*
X004269Y021359D01*
X004172Y021359D01*
X004124Y021407D01*
X004124Y021455D01*
X004172Y021504D01*
X004269Y021504D01*
X004317Y021455D01*
X004419Y021504D02*
X004419Y021213D01*
X004419Y021310D02*
X004564Y021310D01*
X004612Y021359D01*
X004612Y021455D01*
X004564Y021504D01*
X004419Y021504D01*
X004023Y021455D02*
X003974Y021504D01*
X003878Y021504D01*
X003829Y021455D01*
X006161Y023973D02*
X006258Y023973D01*
X006307Y024022D01*
X006408Y023973D02*
X006408Y024264D01*
X006601Y023973D01*
X006601Y024264D01*
X006702Y024167D02*
X006799Y024264D01*
X006799Y023973D01*
X006702Y023973D02*
X006896Y023973D01*
X006307Y024215D02*
X006258Y024264D01*
X006161Y024264D01*
X006113Y024215D01*
X006113Y024022D01*
X006161Y023973D01*
X007023Y022773D02*
X007023Y022580D01*
X007119Y022483D01*
X007216Y022580D01*
X007216Y022773D01*
X007317Y022725D02*
X007366Y022773D01*
X007462Y022773D01*
X007511Y022725D01*
X007511Y022677D01*
X007317Y022483D01*
X007511Y022483D01*
X008192Y022372D02*
X008240Y022420D01*
X008289Y022420D01*
X008337Y022372D01*
X008386Y022420D01*
X008434Y022420D01*
X008482Y022372D01*
X008482Y022275D01*
X008434Y022227D01*
X008482Y022126D02*
X008386Y022029D01*
X008386Y022077D02*
X008386Y021932D01*
X008482Y021932D02*
X008192Y021932D01*
X008192Y022077D01*
X008240Y022126D01*
X008337Y022126D01*
X008386Y022077D01*
X008240Y022227D02*
X008192Y022275D01*
X008192Y022372D01*
X008337Y022372D02*
X008337Y022324D01*
X008907Y022323D02*
X009197Y022323D01*
X009197Y022227D02*
X009197Y022420D01*
X009004Y022227D02*
X008907Y022323D01*
X008907Y022125D02*
X009101Y022125D01*
X009197Y022029D01*
X009101Y021932D01*
X008907Y021932D01*
X009403Y022680D02*
X009306Y022777D01*
X009306Y022970D01*
X009500Y022970D02*
X009500Y022777D01*
X009403Y022680D01*
X009601Y022728D02*
X009649Y022680D01*
X009746Y022680D01*
X009794Y022728D01*
X009794Y022777D01*
X009746Y022825D01*
X009697Y022825D01*
X009746Y022825D02*
X009794Y022873D01*
X009794Y022922D01*
X009746Y022970D01*
X009649Y022970D01*
X009601Y022922D01*
X012022Y022117D02*
X012022Y022020D01*
X012071Y021972D01*
X012022Y022117D02*
X012071Y022165D01*
X012119Y022165D01*
X012313Y021972D01*
X012313Y022165D01*
X012313Y021871D02*
X012313Y021677D01*
X012313Y021774D02*
X012022Y021774D01*
X012119Y021677D01*
X012071Y021576D02*
X012022Y021528D01*
X012022Y021431D01*
X012071Y021383D01*
X012264Y021383D01*
X012313Y021431D01*
X012313Y021528D01*
X012264Y021576D01*
X012294Y020728D02*
X012294Y020438D01*
X012197Y020438D02*
X012391Y020438D01*
X012197Y020631D02*
X012294Y020728D01*
X012096Y020728D02*
X011902Y020728D01*
X011902Y020438D01*
X011902Y020583D02*
X011999Y020583D01*
X013208Y020422D02*
X013208Y020326D01*
X013257Y020277D01*
X013305Y020277D01*
X013353Y020326D01*
X013353Y020422D01*
X013402Y020471D01*
X013450Y020471D01*
X013498Y020422D01*
X013498Y020326D01*
X013450Y020277D01*
X013402Y020277D01*
X013353Y020326D01*
X013353Y020422D02*
X013305Y020471D01*
X013257Y020471D01*
X013208Y020422D01*
X013208Y020079D02*
X013498Y020079D01*
X013498Y019982D02*
X013498Y020176D01*
X013305Y019982D02*
X013208Y020079D01*
X013257Y019881D02*
X013208Y019833D01*
X013208Y019688D01*
X013498Y019688D01*
X013402Y019688D02*
X013402Y019833D01*
X013353Y019881D01*
X013257Y019881D01*
X013402Y019785D02*
X013498Y019881D01*
X014212Y019182D02*
X014163Y019134D01*
X014163Y018940D01*
X014212Y018892D01*
X014309Y018892D01*
X014357Y018940D01*
X014458Y018892D02*
X014652Y018892D01*
X014555Y018892D02*
X014555Y019182D01*
X014458Y019085D01*
X014357Y019134D02*
X014309Y019182D01*
X014212Y019182D01*
X014753Y019182D02*
X014753Y019037D01*
X014850Y019085D01*
X014898Y019085D01*
X014946Y019037D01*
X014946Y018940D01*
X014898Y018892D01*
X014801Y018892D01*
X014753Y018940D01*
X014753Y019182D02*
X014946Y019182D01*
X015743Y019697D02*
X015743Y019890D01*
X015791Y019939D01*
X015888Y019939D01*
X015937Y019890D01*
X016038Y019842D02*
X016134Y019939D01*
X016134Y019648D01*
X016038Y019648D02*
X016231Y019648D01*
X016332Y019648D02*
X016332Y019697D01*
X016526Y019890D01*
X016526Y019939D01*
X016332Y019939D01*
X015937Y019697D02*
X015888Y019648D01*
X015791Y019648D01*
X015743Y019697D01*
X017106Y020200D02*
X017106Y020345D01*
X017154Y020393D01*
X017251Y020393D01*
X017299Y020345D01*
X017299Y020200D01*
X017299Y020296D02*
X017396Y020393D01*
X017396Y020494D02*
X017396Y020688D01*
X017396Y020591D02*
X017106Y020591D01*
X017203Y020494D01*
X017106Y020200D02*
X017396Y020200D01*
X017396Y020789D02*
X017348Y020789D01*
X017154Y020982D01*
X017106Y020982D01*
X017106Y020789D01*
X018007Y020789D02*
X018055Y020741D01*
X018152Y020741D01*
X018200Y020789D01*
X018301Y020741D02*
X018495Y020741D01*
X018398Y020741D02*
X018398Y021031D01*
X018301Y020934D01*
X018200Y020983D02*
X018152Y021031D01*
X018055Y021031D01*
X018007Y020983D01*
X018007Y020789D01*
X018596Y020789D02*
X018644Y020741D01*
X018741Y020741D01*
X018790Y020789D01*
X018790Y020838D01*
X018741Y020886D01*
X018596Y020886D01*
X018596Y020789D01*
X018596Y020886D02*
X018693Y020983D01*
X018790Y021031D01*
X018580Y022765D02*
X018483Y022765D01*
X018435Y022813D01*
X018435Y022862D01*
X018483Y022910D01*
X018580Y022910D01*
X018628Y022862D01*
X018628Y022813D01*
X018580Y022765D01*
X018580Y022910D02*
X018628Y022958D01*
X018628Y023007D01*
X018580Y023055D01*
X018483Y023055D01*
X018435Y023007D01*
X018435Y022958D01*
X018483Y022910D01*
X018333Y022910D02*
X018333Y023007D01*
X018285Y023055D01*
X018140Y023055D01*
X018140Y022765D01*
X018140Y022862D02*
X018285Y022862D01*
X018333Y022910D01*
X018237Y022862D02*
X018333Y022765D01*
X018364Y023550D02*
X018461Y023647D01*
X018558Y023550D01*
X018558Y023840D01*
X018659Y023744D02*
X018756Y023840D01*
X018756Y023550D01*
X018659Y023550D02*
X018853Y023550D01*
X018364Y023550D02*
X018364Y023840D01*
X018263Y023792D02*
X018215Y023840D01*
X018118Y023840D01*
X018070Y023792D01*
X018070Y023744D01*
X018118Y023695D01*
X018215Y023695D01*
X018263Y023647D01*
X018263Y023598D01*
X018215Y023550D01*
X018118Y023550D01*
X018070Y023598D01*
X015636Y024153D02*
X015442Y024153D01*
X015539Y024153D02*
X015539Y024443D01*
X015442Y024346D01*
X015341Y024395D02*
X015293Y024443D01*
X015147Y024443D01*
X015147Y024153D01*
X015293Y024153D01*
X015341Y024201D01*
X015341Y024395D01*
X015046Y024443D02*
X014853Y024443D01*
X014853Y024153D01*
X015046Y024153D01*
X014950Y024298D02*
X014853Y024298D01*
X014752Y024153D02*
X014558Y024153D01*
X014558Y024443D01*
X014240Y024379D02*
X014240Y024331D01*
X014047Y024137D01*
X014240Y024137D01*
X014240Y024379D02*
X014192Y024427D01*
X014095Y024427D01*
X014047Y024379D01*
X013946Y024379D02*
X013946Y024282D01*
X013897Y024234D01*
X013752Y024234D01*
X013849Y024234D02*
X013946Y024137D01*
X013752Y024137D02*
X013752Y024427D01*
X013897Y024427D01*
X013946Y024379D01*
X013476Y023551D02*
X013476Y023357D01*
X013476Y023454D02*
X013186Y023454D01*
X013282Y023357D01*
X013476Y023256D02*
X013476Y023063D01*
X013476Y023160D02*
X013186Y023160D01*
X013282Y023063D01*
X013234Y022962D02*
X013186Y022913D01*
X013186Y022817D01*
X013234Y022768D01*
X013427Y022768D01*
X013476Y022817D01*
X013476Y022913D01*
X013427Y022962D01*
X013450Y021927D02*
X013498Y021879D01*
X013498Y021782D01*
X013450Y021734D01*
X013402Y021734D01*
X013353Y021782D01*
X013353Y021879D01*
X013402Y021927D01*
X013450Y021927D01*
X013353Y021879D02*
X013305Y021927D01*
X013257Y021927D01*
X013208Y021879D01*
X013208Y021782D01*
X013257Y021734D01*
X013305Y021734D01*
X013353Y021782D01*
X013498Y021633D02*
X013498Y021439D01*
X013498Y021536D02*
X013208Y021536D01*
X013305Y021439D01*
X013257Y021338D02*
X013208Y021290D01*
X013208Y021193D01*
X013257Y021145D01*
X013450Y021145D01*
X013498Y021193D01*
X013498Y021290D01*
X013450Y021338D01*
X014526Y022653D02*
X014623Y022653D01*
X014575Y022653D02*
X014575Y022943D01*
X014623Y022943D02*
X014526Y022943D01*
X014723Y022895D02*
X014723Y022702D01*
X014771Y022653D01*
X014868Y022653D01*
X014916Y022702D01*
X015018Y022702D02*
X015066Y022653D01*
X015163Y022653D01*
X015211Y022702D01*
X015211Y022750D01*
X015163Y022798D01*
X015114Y022798D01*
X015163Y022798D02*
X015211Y022847D01*
X015211Y022895D01*
X015163Y022943D01*
X015066Y022943D01*
X015018Y022895D01*
X014916Y022895D02*
X014868Y022943D01*
X014771Y022943D01*
X014723Y022895D01*
X011391Y018928D02*
X011391Y018734D01*
X011197Y018928D01*
X011149Y018928D01*
X011101Y018879D01*
X011101Y018783D01*
X011149Y018734D01*
X011149Y018633D02*
X011101Y018585D01*
X011101Y018488D01*
X011149Y018440D01*
X011343Y018440D01*
X011391Y018488D01*
X011391Y018585D01*
X011343Y018633D01*
X011391Y018340D02*
X011391Y018243D01*
X011391Y018292D02*
X011101Y018292D01*
X011101Y018340D02*
X011101Y018243D01*
X014070Y017688D02*
X014070Y017591D01*
X014118Y017543D01*
X014070Y017688D02*
X014118Y017736D01*
X014166Y017736D01*
X014360Y017543D01*
X014360Y017736D01*
X014360Y017442D02*
X014360Y017248D01*
X014360Y017345D02*
X014070Y017345D01*
X014166Y017248D01*
X010245Y011785D02*
X010051Y011785D01*
X010245Y011591D01*
X010293Y011640D01*
X010293Y011736D01*
X010245Y011785D01*
X010051Y011785D02*
X010003Y011736D01*
X010003Y011640D01*
X010051Y011591D01*
X010245Y011591D01*
X010293Y011490D02*
X010293Y011297D01*
X010293Y011393D02*
X010003Y011393D01*
X010100Y011297D01*
X010051Y011196D02*
X010003Y011147D01*
X010003Y011050D01*
X010051Y011002D01*
X010245Y011002D01*
X010293Y011050D01*
X010293Y011147D01*
X010245Y011196D01*
X007255Y010782D02*
X007255Y010734D01*
X007061Y010541D01*
X007255Y010541D01*
X007255Y010782D02*
X007207Y010831D01*
X007110Y010831D01*
X007061Y010782D01*
X006960Y010782D02*
X006912Y010831D01*
X006815Y010831D01*
X006767Y010782D01*
X006767Y010589D01*
X006815Y010541D01*
X006912Y010541D01*
X006960Y010589D01*
X008450Y003905D02*
X008450Y003615D01*
X008643Y003615D01*
X008744Y003615D02*
X008938Y003615D01*
X009039Y003615D02*
X009184Y003615D01*
X009233Y003663D01*
X009233Y003857D01*
X009184Y003905D01*
X009039Y003905D01*
X009039Y003615D01*
X008841Y003760D02*
X008744Y003760D01*
X008744Y003905D02*
X008744Y003615D01*
X008744Y003905D02*
X008938Y003905D01*
X009334Y003857D02*
X009382Y003905D01*
X009479Y003905D01*
X009527Y003857D01*
X009527Y003808D01*
X009334Y003615D01*
X009527Y003615D01*
X014800Y004276D02*
X014875Y003996D01*
X015015Y004033D01*
X015049Y004093D01*
X014999Y004279D01*
X014940Y004314D01*
X014800Y004276D01*
X015097Y004306D02*
X015131Y004365D01*
X015224Y004390D01*
X015284Y004356D01*
X015296Y004309D01*
X015159Y004072D01*
X015346Y004122D01*
X018584Y005748D02*
X018633Y005700D01*
X018729Y005700D01*
X018778Y005748D01*
X018879Y005700D02*
X019072Y005700D01*
X018976Y005700D02*
X018976Y005990D01*
X018879Y005894D01*
X018778Y005942D02*
X018729Y005990D01*
X018633Y005990D01*
X018584Y005942D01*
X018584Y005748D01*
X019174Y005845D02*
X019367Y005845D01*
X019319Y005700D02*
X019319Y005990D01*
X019174Y005845D01*
X020754Y007924D02*
X020754Y008069D01*
X020803Y008118D01*
X020900Y008118D01*
X020948Y008069D01*
X020948Y007924D01*
X021045Y007924D02*
X020754Y007924D01*
X020948Y008021D02*
X021045Y008118D01*
X021045Y008219D02*
X021045Y008412D01*
X021045Y008315D02*
X020754Y008315D01*
X020851Y008219D01*
X020803Y008513D02*
X020754Y008562D01*
X020754Y008658D01*
X020803Y008707D01*
X020851Y008707D01*
X020900Y008658D01*
X020948Y008707D01*
X020996Y008707D01*
X021045Y008658D01*
X021045Y008562D01*
X020996Y008513D01*
X020900Y008610D02*
X020900Y008658D01*
X020261Y009216D02*
X020213Y009168D01*
X020116Y009168D01*
X020068Y009216D01*
X020261Y009409D01*
X020261Y009216D01*
X020068Y009216D02*
X020068Y009409D01*
X020116Y009458D01*
X020213Y009458D01*
X020261Y009409D01*
X019967Y009409D02*
X019918Y009458D01*
X019821Y009458D01*
X019773Y009409D01*
X019672Y009409D02*
X019624Y009458D01*
X019527Y009458D01*
X019478Y009409D01*
X019478Y009216D01*
X019527Y009168D01*
X019624Y009168D01*
X019672Y009216D01*
X019773Y009168D02*
X019967Y009361D01*
X019967Y009409D01*
X019967Y009168D02*
X019773Y009168D01*
X021584Y009598D02*
X021584Y009695D01*
X021633Y009743D01*
X021681Y009743D01*
X021729Y009695D01*
X021778Y009743D01*
X021826Y009743D01*
X021874Y009695D01*
X021874Y009598D01*
X021826Y009549D01*
X021729Y009646D02*
X021729Y009695D01*
X021633Y009549D02*
X021584Y009598D01*
X021729Y009448D02*
X021729Y009255D01*
X021633Y009352D02*
X021826Y009352D01*
X021826Y009844D02*
X021826Y009892D01*
X021874Y009892D01*
X021874Y009844D01*
X021826Y009844D01*
X021826Y009991D02*
X021874Y010040D01*
X021874Y010137D01*
X021826Y010185D01*
X021778Y010185D01*
X021729Y010137D01*
X021729Y010088D01*
X021729Y010137D02*
X021681Y010185D01*
X021633Y010185D01*
X021584Y010137D01*
X021584Y010040D01*
X021633Y009991D01*
X021584Y010286D02*
X021778Y010286D01*
X021874Y010383D01*
X021778Y010480D01*
X021584Y010480D01*
X020418Y011114D02*
X020369Y011066D01*
X020418Y011114D02*
X020418Y011211D01*
X020369Y011259D01*
X020321Y011259D01*
X020273Y011211D01*
X020273Y011163D01*
X020273Y011211D02*
X020224Y011259D01*
X020176Y011259D01*
X020127Y011211D01*
X020127Y011114D01*
X020176Y011066D01*
X020273Y011360D02*
X020273Y011506D01*
X020321Y011554D01*
X020369Y011554D01*
X020418Y011506D01*
X020418Y011409D01*
X020369Y011360D01*
X020273Y011360D01*
X020176Y011457D01*
X020127Y011554D01*
X021584Y007282D02*
X021778Y007282D01*
X021874Y007185D01*
X021778Y007088D01*
X021584Y007088D01*
X021584Y006987D02*
X021584Y006794D01*
X021729Y006794D01*
X021681Y006890D01*
X021681Y006939D01*
X021729Y006987D01*
X021826Y006987D01*
X021874Y006939D01*
X021874Y006842D01*
X021826Y006794D01*
X021729Y006692D02*
X021729Y006499D01*
X021633Y006596D02*
X021826Y006596D01*
X023172Y006258D02*
X023172Y006065D01*
X023221Y006017D01*
X023317Y006017D01*
X023366Y006065D01*
X023467Y006017D02*
X023467Y006307D01*
X023660Y006017D01*
X023660Y006307D01*
X023761Y006258D02*
X023810Y006307D01*
X023907Y006307D01*
X023955Y006258D01*
X023955Y006210D01*
X023907Y006162D01*
X023955Y006113D01*
X023955Y006065D01*
X023907Y006017D01*
X023810Y006017D01*
X023761Y006065D01*
X023858Y006162D02*
X023907Y006162D01*
X023366Y006258D02*
X023317Y006307D01*
X023221Y006307D01*
X023172Y006258D01*
X020423Y017503D02*
X020423Y017697D01*
X020423Y017600D02*
X020133Y017600D01*
X020229Y017503D01*
X020566Y018373D02*
X020663Y018373D01*
X020614Y018373D02*
X020614Y018663D01*
X020566Y018663D02*
X020663Y018663D01*
X020762Y018615D02*
X020762Y018421D01*
X020811Y018373D01*
X020907Y018373D01*
X020956Y018421D01*
X021057Y018518D02*
X021250Y018518D01*
X021202Y018373D02*
X021202Y018663D01*
X021057Y018518D01*
X020956Y018615D02*
X020907Y018663D01*
X020811Y018663D01*
X020762Y018615D01*
X021427Y019023D02*
X021427Y019314D01*
X021572Y019314D01*
X021621Y019265D01*
X021621Y019169D01*
X021572Y019120D01*
X021427Y019120D01*
X021524Y019120D02*
X021621Y019023D01*
X021722Y019023D02*
X021915Y019023D01*
X021818Y019023D02*
X021818Y019314D01*
X021722Y019217D01*
X022016Y019169D02*
X022161Y019169D01*
X022210Y019120D01*
X022210Y019072D01*
X022161Y019023D01*
X022065Y019023D01*
X022016Y019072D01*
X022016Y019169D01*
X022113Y019265D01*
X022210Y019314D01*
X022166Y020072D02*
X022166Y020362D01*
X022021Y020217D01*
X022215Y020217D01*
X021920Y020072D02*
X021727Y020072D01*
X021823Y020072D02*
X021823Y020362D01*
X021727Y020265D01*
X021625Y020217D02*
X021577Y020168D01*
X021432Y020168D01*
X021432Y020072D02*
X021432Y020362D01*
X021577Y020362D01*
X021625Y020314D01*
X021625Y020217D01*
X021529Y020168D02*
X021625Y020072D01*
X021625Y021017D02*
X021529Y021113D01*
X021577Y021113D02*
X021432Y021113D01*
X021432Y021017D02*
X021432Y021307D01*
X021577Y021307D01*
X021625Y021258D01*
X021625Y021162D01*
X021577Y021113D01*
X021727Y021017D02*
X021920Y021017D01*
X021823Y021017D02*
X021823Y021307D01*
X021727Y021210D01*
X022021Y021162D02*
X022021Y021307D01*
X022215Y021307D01*
X022166Y021210D02*
X022215Y021162D01*
X022215Y021065D01*
X022166Y021017D01*
X022070Y021017D01*
X022021Y021065D01*
X022021Y021162D02*
X022118Y021210D01*
X022166Y021210D01*
D12*
X015639Y021494D02*
X015639Y022498D01*
X015640Y022498D02*
X015639Y022511D01*
X015634Y022524D01*
X015627Y022535D01*
X015618Y022544D01*
X015607Y022551D01*
X015594Y022556D01*
X015581Y022557D01*
X015581Y022556D02*
X014577Y022556D01*
X014576Y022556D02*
X014563Y022555D01*
X014551Y022550D01*
X014540Y022543D01*
X014530Y022534D01*
X014523Y022523D01*
X014519Y022511D01*
X014517Y022497D01*
X014517Y022498D02*
X014517Y021494D01*
X014518Y021481D01*
X014523Y021468D01*
X014530Y021457D01*
X014539Y021448D01*
X014550Y021441D01*
X014563Y021436D01*
X014576Y021435D01*
X015580Y021435D01*
X015593Y021436D01*
X015605Y021441D01*
X015616Y021448D01*
X015626Y021457D01*
X015633Y021468D01*
X015637Y021480D01*
X015639Y021494D01*
X005409Y020883D02*
X005409Y020383D01*
X005159Y020133D01*
X003659Y020133D01*
X003409Y019883D01*
X003409Y019383D01*
X003659Y019133D01*
X003409Y018883D01*
X003409Y018383D01*
X003659Y018133D01*
X005159Y018133D01*
X005409Y018383D01*
X005409Y018883D01*
X005159Y019133D01*
X003659Y019133D01*
X003659Y020133D02*
X003409Y020383D01*
X003409Y020883D01*
X003659Y021133D01*
X005159Y021133D01*
X005409Y020883D01*
X005159Y020133D02*
X005409Y019883D01*
X005409Y019383D01*
X005159Y019133D01*
X005002Y011582D02*
X003502Y011582D01*
X003252Y011332D01*
X003252Y010832D01*
X003502Y010582D01*
X005002Y010582D01*
X005252Y010332D01*
X005252Y009832D01*
X005002Y009582D01*
X003502Y009582D01*
X003252Y009332D01*
X003252Y008832D01*
X003502Y008582D01*
X005002Y008582D01*
X005252Y008332D01*
X005252Y007832D01*
X005002Y007582D01*
X005252Y007332D01*
X005252Y006832D01*
X005002Y006582D01*
X003502Y006582D01*
X003252Y006832D01*
X003252Y007332D01*
X003502Y007582D01*
X005002Y007582D01*
X005002Y008582D02*
X005252Y008832D01*
X005252Y009332D01*
X005002Y009582D01*
X005002Y010582D02*
X005252Y010832D01*
X005252Y011332D01*
X005002Y011582D01*
X003502Y010582D02*
X003252Y010332D01*
X003252Y009832D01*
X003502Y009582D01*
X003502Y008582D02*
X003252Y008332D01*
X003252Y007832D01*
X003502Y007582D01*
X016959Y007516D02*
X017172Y007516D01*
X017066Y007516D02*
X017066Y008156D01*
X017172Y008156D02*
X016959Y008156D01*
X017389Y008156D02*
X017389Y007516D01*
X017389Y007729D02*
X017709Y007729D01*
X017816Y007836D01*
X017816Y008049D01*
X017709Y008156D01*
X017389Y008156D01*
X017602Y007729D02*
X017816Y007516D01*
X018033Y007516D02*
X018033Y008156D01*
X018140Y007836D02*
X018460Y007516D01*
X018678Y007516D02*
X018891Y007516D01*
X018784Y007516D02*
X018784Y007943D01*
X018678Y007943D01*
X018784Y008156D02*
X018784Y008263D01*
X018460Y008156D02*
X018033Y007729D01*
X017817Y007106D02*
X017817Y006466D01*
X018030Y006466D02*
X017603Y006466D01*
X017172Y006466D02*
X017386Y006893D01*
X017603Y006893D02*
X017817Y007106D01*
X018248Y006572D02*
X018355Y006572D01*
X018355Y006466D01*
X018248Y006466D01*
X018248Y006572D01*
X018570Y006466D02*
X018997Y006893D01*
X018997Y006999D01*
X018890Y007106D01*
X018677Y007106D01*
X018570Y006999D01*
X018570Y006466D02*
X018997Y006466D01*
X019215Y006466D02*
X019215Y006572D01*
X019321Y006572D01*
X019321Y006466D01*
X019215Y006466D01*
X019537Y006572D02*
X019964Y006999D01*
X019964Y006572D01*
X019857Y006466D01*
X019644Y006466D01*
X019537Y006572D01*
X019537Y006999D01*
X019644Y007106D01*
X019857Y007106D01*
X019964Y006999D01*
X019321Y007516D02*
X019214Y007622D01*
X019214Y008049D01*
X019107Y007943D02*
X019321Y007943D01*
X016959Y006893D02*
X017172Y006466D01*
X021952Y006663D02*
X021952Y007163D01*
X022202Y007413D01*
X023702Y007413D01*
X023952Y007163D01*
X023952Y006663D01*
X023702Y006413D01*
X022202Y006413D01*
X021952Y006663D01*
X022202Y007413D02*
X021952Y007663D01*
X021952Y008163D01*
X022202Y008413D01*
X023702Y008413D01*
X023952Y008163D01*
X023952Y007663D01*
X023702Y007413D01*
X023702Y008413D02*
X023952Y008663D01*
X023952Y009163D01*
X023702Y009413D01*
X022202Y009413D01*
X021952Y009163D01*
X021952Y008663D01*
X022202Y008413D01*
X022202Y009413D02*
X021952Y009663D01*
X021952Y010163D01*
X022202Y010413D01*
X023702Y010413D01*
X023952Y010163D01*
X023952Y009663D01*
X023702Y009413D01*
D13*
X021105Y007284D02*
X021105Y007008D01*
X020633Y007008D02*
X020633Y007284D01*
X020275Y006149D02*
X020000Y006149D01*
X020000Y005677D02*
X020275Y005677D01*
X020216Y009569D02*
X019941Y009569D01*
X019941Y010042D02*
X020216Y010042D01*
X016653Y009378D02*
X016653Y009102D01*
X016181Y009102D02*
X016181Y009378D01*
X014134Y009102D02*
X014134Y008826D01*
X013661Y008826D02*
X013661Y009102D01*
X013149Y009023D02*
X013149Y009299D01*
X012677Y009299D02*
X012677Y009023D01*
X012775Y008177D02*
X012500Y008177D01*
X012500Y007704D02*
X012775Y007704D01*
X013464Y006779D02*
X013464Y006504D01*
X013937Y006504D02*
X013937Y006779D01*
X010334Y008674D02*
X010059Y008674D01*
X010059Y009146D02*
X010334Y009146D01*
X009094Y009141D02*
X009094Y009417D01*
X008622Y009417D02*
X008622Y009141D01*
X010393Y010952D02*
X010393Y011228D01*
X010866Y011228D02*
X010866Y010952D01*
X011914Y013748D02*
X011914Y014023D01*
X012386Y014023D02*
X012386Y013748D01*
X010984Y014535D02*
X010984Y014811D01*
X010511Y014811D02*
X010511Y014535D01*
X010472Y016189D02*
X010472Y016464D01*
X010945Y016464D02*
X010945Y016189D01*
X009626Y017232D02*
X009350Y017232D01*
X009350Y017704D02*
X009626Y017704D01*
X007992Y018551D02*
X007992Y018826D01*
X007519Y018826D02*
X007519Y018551D01*
X007283Y017370D02*
X007283Y017094D01*
X007756Y017094D02*
X007756Y017370D01*
X005452Y016799D02*
X005452Y016523D01*
X004980Y016523D02*
X004980Y016799D01*
X004153Y017439D02*
X003878Y017439D01*
X003878Y017911D02*
X004153Y017911D01*
X004153Y015603D02*
X003878Y015603D01*
X003878Y015131D02*
X004153Y015131D01*
X003833Y012921D02*
X003833Y012645D01*
X003361Y012645D02*
X003361Y012921D01*
X005851Y010992D02*
X006127Y010992D01*
X006127Y010519D02*
X005851Y010519D01*
X006181Y006996D02*
X006181Y006720D01*
X006653Y006720D02*
X006653Y006996D01*
X007204Y006996D02*
X007204Y006720D01*
X007677Y006720D02*
X007677Y006996D01*
X008228Y006996D02*
X008228Y006720D01*
X008700Y006720D02*
X008700Y006996D01*
X015571Y018861D02*
X015846Y018861D01*
X015846Y019333D02*
X015571Y019333D01*
X015354Y019633D02*
X014134Y019633D01*
X014134Y020126D01*
X014134Y020795D02*
X014134Y021287D01*
X015354Y021287D01*
X015787Y020854D01*
X016535Y020952D02*
X016535Y020677D01*
X017008Y020677D02*
X017008Y020952D01*
X015787Y020067D02*
X015354Y019633D01*
X015649Y020795D02*
X015623Y020843D01*
X015594Y020890D01*
X015561Y020935D01*
X015525Y020977D01*
X015486Y021016D01*
X015445Y021053D01*
X015401Y021086D01*
X015355Y021117D01*
X015306Y021143D01*
X015256Y021166D01*
X015204Y021186D01*
X015151Y021202D01*
X015097Y021214D01*
X015043Y021222D01*
X014988Y021226D01*
X014932Y021226D01*
X014877Y021222D01*
X014823Y021214D01*
X014769Y021202D01*
X014716Y021186D01*
X014664Y021166D01*
X014614Y021143D01*
X014565Y021117D01*
X014519Y021086D01*
X014475Y021053D01*
X014434Y021016D01*
X014395Y020977D01*
X014359Y020935D01*
X014326Y020890D01*
X014297Y020843D01*
X014271Y020795D01*
X014271Y020125D02*
X014297Y020077D01*
X014326Y020030D01*
X014359Y019985D01*
X014395Y019943D01*
X014434Y019904D01*
X014475Y019867D01*
X014519Y019834D01*
X014565Y019803D01*
X014614Y019777D01*
X014664Y019754D01*
X014716Y019734D01*
X014769Y019718D01*
X014823Y019706D01*
X014877Y019698D01*
X014932Y019694D01*
X014988Y019694D01*
X015043Y019698D01*
X015097Y019706D01*
X015151Y019718D01*
X015204Y019734D01*
X015256Y019754D01*
X015306Y019777D01*
X015355Y019803D01*
X015401Y019834D01*
X015445Y019867D01*
X015486Y019904D01*
X015525Y019943D01*
X015561Y019985D01*
X015594Y020030D01*
X015623Y020077D01*
X015649Y020125D01*
X013110Y020165D02*
X013110Y020441D01*
X012637Y020441D02*
X012637Y020165D01*
X012637Y021622D02*
X012637Y021897D01*
X013110Y021897D02*
X013110Y021622D01*
X012323Y022626D02*
X011889Y022193D01*
X012323Y022626D02*
X012323Y023846D01*
X011830Y023846D01*
X011161Y023846D02*
X010669Y023846D01*
X010669Y022626D01*
X011102Y022193D01*
X011161Y022330D02*
X011113Y022356D01*
X011066Y022385D01*
X011021Y022418D01*
X010979Y022454D01*
X010940Y022493D01*
X010903Y022534D01*
X010870Y022578D01*
X010839Y022624D01*
X010813Y022673D01*
X010790Y022723D01*
X010770Y022775D01*
X010754Y022828D01*
X010742Y022882D01*
X010734Y022936D01*
X010730Y022991D01*
X010730Y023047D01*
X010734Y023102D01*
X010742Y023156D01*
X010754Y023210D01*
X010770Y023263D01*
X010790Y023315D01*
X010813Y023365D01*
X010839Y023414D01*
X010870Y023460D01*
X010903Y023504D01*
X010940Y023545D01*
X010979Y023584D01*
X011021Y023620D01*
X011066Y023653D01*
X011113Y023682D01*
X011161Y023708D01*
X011831Y023708D02*
X011879Y023682D01*
X011926Y023653D01*
X011971Y023620D01*
X012013Y023584D01*
X012052Y023545D01*
X012089Y023504D01*
X012122Y023460D01*
X012153Y023414D01*
X012179Y023365D01*
X012202Y023315D01*
X012222Y023263D01*
X012238Y023210D01*
X012250Y023156D01*
X012258Y023102D01*
X012262Y023047D01*
X012262Y022991D01*
X012258Y022936D01*
X012250Y022882D01*
X012238Y022828D01*
X012222Y022775D01*
X012202Y022723D01*
X012179Y022673D01*
X012153Y022624D01*
X012122Y022578D01*
X012089Y022534D01*
X012052Y022493D01*
X012013Y022454D01*
X011971Y022418D01*
X011926Y022385D01*
X011879Y022356D01*
X011831Y022330D01*
X012636Y023225D02*
X012636Y023501D01*
X013108Y023501D02*
X013108Y023225D01*
X013760Y023226D02*
X013760Y023502D01*
X014232Y023502D02*
X014232Y023226D01*
X017224Y023177D02*
X017500Y023177D01*
X017500Y022704D02*
X017224Y022704D01*
X018484Y021602D02*
X018760Y021602D01*
X018760Y021130D02*
X018484Y021130D01*
X020531Y020972D02*
X020807Y020972D01*
X020807Y021444D02*
X020531Y021444D01*
X020531Y020460D02*
X020807Y020460D01*
X020807Y019988D02*
X020531Y019988D01*
X020531Y019437D02*
X020807Y019437D01*
X020807Y018964D02*
X020531Y018964D01*
X008504Y021016D02*
X008504Y021292D01*
X008031Y021292D02*
X008031Y021016D01*
X007480Y021016D02*
X007480Y021292D01*
X007008Y021292D02*
X007008Y021016D01*
D14*
X012952Y018256D02*
X012952Y017704D01*
X012952Y018256D02*
X013976Y018256D01*
X015115Y023613D02*
X015249Y023738D01*
X015115Y023863D01*
X015115Y023613D01*
X015115Y023616D02*
X015119Y023616D01*
X015115Y023665D02*
X015171Y023665D01*
X015223Y023713D02*
X015115Y023713D01*
X015115Y023762D02*
X015223Y023762D01*
X015171Y023810D02*
X015115Y023810D01*
X015115Y023859D02*
X015119Y023859D01*
X015249Y023863D02*
X015249Y023613D01*
X018011Y023944D02*
X019862Y023944D01*
X019862Y024023D01*
X019862Y024555D02*
X019862Y024712D01*
X019862Y025224D02*
X019862Y025322D01*
X019448Y025322D01*
X019448Y025716D01*
X018425Y025716D01*
X018425Y025322D01*
X019448Y025322D01*
X018425Y025322D02*
X018011Y025322D01*
X018011Y025224D01*
X018011Y024712D02*
X018011Y024555D01*
X018011Y024023D02*
X018011Y023944D01*
X020511Y018256D02*
X024252Y018256D01*
X024252Y010618D01*
X020511Y010618D01*
X020866Y005185D02*
X018661Y005185D01*
X018661Y004476D02*
X018661Y004043D01*
X019134Y004043D01*
X020315Y004043D01*
X020866Y004043D01*
X020866Y004476D01*
X020315Y004043D02*
X020313Y003995D01*
X020307Y003948D01*
X020298Y003902D01*
X020285Y003856D01*
X020268Y003811D01*
X020247Y003768D01*
X020224Y003727D01*
X020196Y003688D01*
X020166Y003651D01*
X020133Y003617D01*
X020098Y003585D01*
X020060Y003557D01*
X020019Y003531D01*
X019977Y003509D01*
X019934Y003490D01*
X019888Y003475D01*
X019842Y003464D01*
X019795Y003456D01*
X019748Y003452D01*
X019700Y003452D01*
X019653Y003456D01*
X019606Y003464D01*
X019560Y003475D01*
X019514Y003490D01*
X019471Y003509D01*
X019429Y003531D01*
X019388Y003557D01*
X019350Y003585D01*
X019315Y003617D01*
X019282Y003651D01*
X019252Y003688D01*
X019224Y003727D01*
X019201Y003768D01*
X019180Y003811D01*
X019163Y003856D01*
X019150Y003902D01*
X019141Y003948D01*
X019135Y003995D01*
X019133Y004043D01*
X015304Y004815D02*
X014652Y004967D01*
X014509Y005499D02*
X014998Y005956D01*
X015029Y005842D01*
X015273Y004929D02*
X015304Y004815D01*
X013206Y005597D02*
X013237Y005712D01*
X012585Y005560D01*
X012442Y005028D02*
X012931Y004571D01*
X012962Y004685D01*
X007677Y004870D02*
X007677Y004082D01*
X006889Y004082D01*
X006889Y004870D01*
X007677Y004870D01*
X008535Y004091D02*
X008490Y004038D01*
X008443Y003988D01*
X008393Y003940D01*
X008340Y003895D01*
X008285Y003854D01*
X008228Y003815D01*
X008168Y003780D01*
X008107Y003748D01*
X008044Y003719D01*
X007980Y003694D01*
X007914Y003673D01*
X007847Y003655D01*
X007780Y003641D01*
X007711Y003630D01*
X007643Y003624D01*
X007574Y003621D01*
X007505Y003622D01*
X007436Y003627D01*
X007367Y003636D01*
X007299Y003648D01*
X007232Y003665D01*
X007166Y003684D01*
X007101Y003708D01*
X007037Y003735D01*
X006975Y003766D01*
X006915Y003800D01*
X006857Y003837D01*
X006801Y003877D01*
X006747Y003921D01*
X006696Y003967D01*
X006647Y004016D01*
X006602Y004068D01*
X006559Y004122D01*
X006559Y004120D01*
X006559Y004122D02*
X006559Y004870D01*
X006559Y005618D02*
X006602Y005673D01*
X006648Y005725D01*
X006698Y005774D01*
X006749Y005821D01*
X006804Y005865D01*
X006860Y005905D01*
X006919Y005943D01*
X006980Y005977D01*
X007043Y006007D01*
X007107Y006034D01*
X007173Y006058D01*
X007240Y006077D01*
X007308Y006093D01*
X007376Y006106D01*
X007445Y006114D01*
X007515Y006118D01*
X007585Y006119D01*
X007654Y006115D01*
X007724Y006108D01*
X007793Y006097D01*
X007861Y006082D01*
X007928Y006063D01*
X007994Y006041D01*
X008059Y006015D01*
X008122Y005985D01*
X008183Y005952D01*
X008242Y005915D01*
X008300Y005876D01*
X008355Y005833D01*
X008407Y005787D01*
X008457Y005738D01*
X008504Y005687D01*
X008548Y005633D01*
X008589Y005576D01*
X008627Y005518D01*
X008661Y005457D01*
X008692Y005395D01*
X008720Y005331D01*
X008744Y005265D01*
X008764Y005198D01*
X008781Y005131D01*
X008793Y005062D01*
X008802Y004993D01*
X008807Y004923D01*
X008808Y004854D01*
X008805Y004784D01*
X008798Y004714D01*
X008788Y004646D01*
X012952Y010618D02*
X013976Y010618D01*
X012952Y010618D02*
X012952Y011169D01*
X004645Y014232D02*
X004645Y014248D01*
X004094Y014732D02*
X003937Y014732D01*
X003385Y014248D02*
X003385Y014232D01*
X003937Y013748D02*
X004094Y013748D01*
D15*
X012841Y006080D02*
X012818Y005993D01*
X012819Y005994D02*
X012766Y006005D01*
X012713Y006013D01*
X012659Y006017D01*
X012605Y006018D01*
X012552Y006014D01*
X012498Y006007D01*
X012446Y005996D01*
X012394Y005981D01*
X012344Y005962D01*
X012294Y005940D01*
X012247Y005915D01*
X012202Y005886D01*
X012151Y005960D01*
X012150Y005960D01*
X012197Y005990D01*
X012246Y006017D01*
X012297Y006040D01*
X012348Y006060D01*
X012402Y006077D01*
X012456Y006090D01*
X012511Y006100D01*
X012566Y006106D01*
X012621Y006108D01*
X012677Y006107D01*
X012733Y006102D01*
X012788Y006093D01*
X012842Y006080D01*
X012840Y006072D01*
X012786Y006084D01*
X012731Y006093D01*
X012677Y006098D01*
X012622Y006099D01*
X012567Y006097D01*
X012512Y006091D01*
X012457Y006081D01*
X012404Y006068D01*
X012351Y006052D01*
X012300Y006032D01*
X012250Y006009D01*
X012202Y005982D01*
X012155Y005953D01*
X012161Y005945D01*
X012207Y005975D01*
X012254Y006001D01*
X012304Y006024D01*
X012354Y006043D01*
X012406Y006060D01*
X012459Y006073D01*
X012513Y006082D01*
X012567Y006088D01*
X012622Y006090D01*
X012676Y006089D01*
X012730Y006084D01*
X012784Y006075D01*
X012837Y006063D01*
X012835Y006054D01*
X012782Y006066D01*
X012729Y006075D01*
X012675Y006080D01*
X012622Y006081D01*
X012568Y006079D01*
X012514Y006073D01*
X012461Y006064D01*
X012409Y006051D01*
X012357Y006035D01*
X012307Y006015D01*
X012258Y005993D01*
X012211Y005967D01*
X012166Y005938D01*
X012171Y005930D01*
X012216Y005959D01*
X012262Y005985D01*
X012311Y006007D01*
X012360Y006026D01*
X012411Y006042D01*
X012463Y006055D01*
X012515Y006064D01*
X012568Y006070D01*
X012622Y006072D01*
X012675Y006071D01*
X012728Y006066D01*
X012781Y006057D01*
X012833Y006046D01*
X012830Y006037D01*
X012779Y006049D01*
X012727Y006057D01*
X012674Y006062D01*
X012622Y006063D01*
X012569Y006061D01*
X012517Y006055D01*
X012465Y006046D01*
X012414Y006034D01*
X012363Y006018D01*
X012314Y005999D01*
X012267Y005977D01*
X012220Y005951D01*
X012176Y005923D01*
X012181Y005916D01*
X012225Y005944D01*
X012271Y005969D01*
X012318Y005991D01*
X012366Y006009D01*
X012416Y006025D01*
X012467Y006037D01*
X012518Y006046D01*
X012570Y006052D01*
X012622Y006054D01*
X012674Y006053D01*
X012726Y006048D01*
X012777Y006040D01*
X012828Y006028D01*
X012826Y006020D01*
X012771Y006032D01*
X012716Y006040D01*
X012660Y006044D01*
X012605Y006045D01*
X012549Y006041D01*
X012494Y006033D01*
X012439Y006022D01*
X012386Y006007D01*
X012333Y005987D01*
X012282Y005965D01*
X012233Y005938D01*
X012186Y005908D01*
X012191Y005901D01*
X012238Y005930D01*
X012286Y005956D01*
X012337Y005979D01*
X012388Y005998D01*
X012441Y006013D01*
X012495Y006025D01*
X012550Y006032D01*
X012605Y006036D01*
X012660Y006035D01*
X012715Y006031D01*
X012769Y006023D01*
X012823Y006011D01*
X012821Y006002D01*
X012768Y006014D01*
X012714Y006022D01*
X012660Y006026D01*
X012605Y006027D01*
X012551Y006023D01*
X012497Y006016D01*
X012444Y006004D01*
X012391Y005989D01*
X012340Y005971D01*
X012290Y005948D01*
X012243Y005923D01*
X012197Y005893D01*
X011864Y004904D02*
X011945Y004942D01*
X011970Y004893D01*
X011998Y004847D01*
X012029Y004803D01*
X012064Y004761D01*
X012101Y004722D01*
X012142Y004685D01*
X012184Y004652D01*
X012230Y004622D01*
X012277Y004595D01*
X012326Y004571D01*
X012376Y004551D01*
X012428Y004535D01*
X012405Y004449D01*
X012404Y004448D01*
X012351Y004465D01*
X012298Y004485D01*
X012247Y004509D01*
X012198Y004535D01*
X012151Y004566D01*
X012106Y004599D01*
X012063Y004635D01*
X012022Y004674D01*
X011984Y004716D01*
X011949Y004760D01*
X011917Y004806D01*
X011889Y004854D01*
X011863Y004904D01*
X011871Y004908D01*
X011897Y004858D01*
X011925Y004811D01*
X011957Y004765D01*
X011991Y004721D01*
X012029Y004680D01*
X012069Y004642D01*
X012111Y004606D01*
X012156Y004573D01*
X012203Y004543D01*
X012251Y004517D01*
X012302Y004493D01*
X012354Y004473D01*
X012407Y004457D01*
X012409Y004465D01*
X012357Y004482D01*
X012305Y004502D01*
X012256Y004525D01*
X012207Y004551D01*
X012161Y004581D01*
X012117Y004613D01*
X012075Y004648D01*
X012035Y004687D01*
X011998Y004727D01*
X011964Y004770D01*
X011933Y004815D01*
X011904Y004863D01*
X011879Y004911D01*
X011888Y004915D01*
X011912Y004867D01*
X011940Y004820D01*
X011971Y004776D01*
X012005Y004733D01*
X012041Y004693D01*
X012081Y004655D01*
X012122Y004620D01*
X012166Y004588D01*
X012212Y004559D01*
X012260Y004533D01*
X012309Y004510D01*
X012360Y004490D01*
X012411Y004474D01*
X012414Y004483D01*
X012362Y004499D01*
X012312Y004518D01*
X012264Y004541D01*
X012216Y004567D01*
X012171Y004595D01*
X012128Y004627D01*
X012087Y004662D01*
X012048Y004699D01*
X012012Y004739D01*
X011978Y004781D01*
X011948Y004825D01*
X011920Y004871D01*
X011896Y004919D01*
X011904Y004923D01*
X011928Y004876D01*
X011955Y004830D01*
X011986Y004786D01*
X012019Y004745D01*
X012054Y004705D01*
X012093Y004668D01*
X012133Y004634D01*
X012176Y004603D01*
X012221Y004574D01*
X012268Y004549D01*
X012316Y004526D01*
X012365Y004507D01*
X012416Y004492D01*
X012418Y004500D01*
X012368Y004516D01*
X012319Y004535D01*
X012272Y004557D01*
X012226Y004582D01*
X012181Y004610D01*
X012139Y004641D01*
X012099Y004675D01*
X012061Y004712D01*
X012026Y004750D01*
X011993Y004792D01*
X011963Y004835D01*
X011936Y004880D01*
X011912Y004927D01*
X011920Y004930D01*
X011944Y004884D01*
X011971Y004840D01*
X012000Y004797D01*
X012032Y004756D01*
X012067Y004718D01*
X012105Y004682D01*
X012144Y004648D01*
X012186Y004618D01*
X012230Y004590D01*
X012276Y004565D01*
X012323Y004543D01*
X012371Y004524D01*
X012421Y004509D01*
X012423Y004518D01*
X012374Y004533D01*
X012326Y004551D01*
X012280Y004573D01*
X012235Y004598D01*
X012191Y004625D01*
X012150Y004655D01*
X012111Y004689D01*
X012074Y004724D01*
X012039Y004762D01*
X012007Y004802D01*
X011978Y004844D01*
X011952Y004888D01*
X011928Y004934D01*
X011937Y004938D01*
X011962Y004889D01*
X011990Y004842D01*
X012022Y004797D01*
X012057Y004755D01*
X012095Y004715D01*
X012136Y004679D01*
X012179Y004645D01*
X012225Y004614D01*
X012272Y004587D01*
X012322Y004563D01*
X012373Y004543D01*
X012425Y004526D01*
X014472Y006077D02*
X014495Y005990D01*
X014495Y005991D02*
X014443Y005975D01*
X014393Y005955D01*
X014345Y005932D01*
X014298Y005905D01*
X014253Y005875D01*
X014211Y005842D01*
X014171Y005806D01*
X014134Y005768D01*
X014099Y005726D01*
X014067Y005683D01*
X014039Y005637D01*
X014014Y005589D01*
X013933Y005627D01*
X013933Y005628D01*
X013958Y005677D01*
X013987Y005725D01*
X014019Y005770D01*
X014054Y005814D01*
X014092Y005855D01*
X014132Y005893D01*
X014175Y005929D01*
X014220Y005962D01*
X014267Y005992D01*
X014316Y006018D01*
X014366Y006041D01*
X014418Y006061D01*
X014471Y006078D01*
X014474Y006069D01*
X014421Y006053D01*
X014370Y006033D01*
X014320Y006010D01*
X014271Y005984D01*
X014225Y005954D01*
X014180Y005922D01*
X014138Y005887D01*
X014098Y005849D01*
X014061Y005808D01*
X014027Y005765D01*
X013995Y005720D01*
X013966Y005673D01*
X013941Y005624D01*
X013949Y005620D01*
X013974Y005668D01*
X014002Y005715D01*
X014034Y005760D01*
X014068Y005802D01*
X014105Y005842D01*
X014144Y005880D01*
X014186Y005915D01*
X014230Y005947D01*
X014276Y005976D01*
X014324Y006002D01*
X014373Y006025D01*
X014424Y006044D01*
X014476Y006061D01*
X014478Y006052D01*
X014427Y006036D01*
X014377Y006017D01*
X014328Y005994D01*
X014281Y005968D01*
X014235Y005939D01*
X014191Y005908D01*
X014150Y005873D01*
X014111Y005836D01*
X014075Y005796D01*
X014041Y005754D01*
X014010Y005710D01*
X013982Y005664D01*
X013957Y005616D01*
X013965Y005612D01*
X013990Y005660D01*
X014018Y005705D01*
X014048Y005749D01*
X014082Y005790D01*
X014118Y005830D01*
X014156Y005866D01*
X014197Y005901D01*
X014240Y005932D01*
X014285Y005960D01*
X014332Y005986D01*
X014380Y006008D01*
X014430Y006027D01*
X014481Y006043D01*
X014483Y006034D01*
X014433Y006019D01*
X014384Y006000D01*
X014336Y005978D01*
X014290Y005953D01*
X014245Y005924D01*
X014203Y005893D01*
X014162Y005860D01*
X014124Y005823D01*
X014088Y005785D01*
X014055Y005744D01*
X014025Y005700D01*
X013998Y005655D01*
X013974Y005609D01*
X013982Y005605D01*
X014006Y005651D01*
X014033Y005695D01*
X014063Y005738D01*
X014095Y005779D01*
X014130Y005817D01*
X014168Y005853D01*
X014208Y005886D01*
X014250Y005917D01*
X014294Y005945D01*
X014340Y005970D01*
X014387Y005992D01*
X014436Y006010D01*
X014485Y006026D01*
X014488Y006017D01*
X014435Y006000D01*
X014383Y005980D01*
X014332Y005956D01*
X014284Y005928D01*
X014238Y005897D01*
X014194Y005863D01*
X014152Y005826D01*
X014113Y005786D01*
X014078Y005743D01*
X014045Y005698D01*
X014016Y005650D01*
X013990Y005601D01*
X013998Y005597D01*
X014024Y005646D01*
X014052Y005693D01*
X014085Y005737D01*
X014120Y005780D01*
X014158Y005819D01*
X014199Y005856D01*
X014243Y005890D01*
X014289Y005921D01*
X014337Y005948D01*
X014386Y005972D01*
X014438Y005992D01*
X014490Y006008D01*
X014492Y006000D01*
X014440Y005983D01*
X014390Y005963D01*
X014341Y005940D01*
X014293Y005913D01*
X014248Y005883D01*
X014205Y005849D01*
X014165Y005813D01*
X014127Y005774D01*
X014092Y005732D01*
X014060Y005688D01*
X014031Y005642D01*
X014006Y005593D01*
X014213Y004570D02*
X014264Y004644D01*
X014264Y004643D02*
X014310Y004614D01*
X014357Y004588D01*
X014407Y004565D01*
X014457Y004546D01*
X014510Y004531D01*
X014563Y004520D01*
X014616Y004512D01*
X014671Y004508D01*
X014725Y004509D01*
X014779Y004513D01*
X014833Y004521D01*
X014886Y004532D01*
X014908Y004446D01*
X014909Y004446D01*
X014854Y004433D01*
X014799Y004424D01*
X014743Y004419D01*
X014687Y004418D01*
X014630Y004420D01*
X014575Y004427D01*
X014519Y004436D01*
X014465Y004450D01*
X014411Y004467D01*
X014359Y004488D01*
X014308Y004512D01*
X014259Y004539D01*
X014212Y004570D01*
X014217Y004577D01*
X014264Y004547D01*
X014312Y004520D01*
X014363Y004496D01*
X014414Y004476D01*
X014467Y004459D01*
X014521Y004445D01*
X014576Y004436D01*
X014631Y004429D01*
X014687Y004427D01*
X014742Y004428D01*
X014797Y004433D01*
X014852Y004442D01*
X014907Y004454D01*
X014904Y004463D01*
X014851Y004451D01*
X014796Y004442D01*
X014742Y004437D01*
X014687Y004436D01*
X014632Y004438D01*
X014577Y004444D01*
X014523Y004454D01*
X014470Y004467D01*
X014417Y004484D01*
X014366Y004504D01*
X014317Y004528D01*
X014269Y004554D01*
X014222Y004584D01*
X014228Y004592D01*
X014273Y004562D01*
X014321Y004536D01*
X014370Y004512D01*
X014420Y004492D01*
X014472Y004476D01*
X014525Y004463D01*
X014578Y004453D01*
X014632Y004447D01*
X014687Y004445D01*
X014741Y004446D01*
X014795Y004451D01*
X014849Y004460D01*
X014902Y004472D01*
X014900Y004480D01*
X014847Y004468D01*
X014794Y004460D01*
X014741Y004455D01*
X014687Y004454D01*
X014633Y004456D01*
X014580Y004462D01*
X014527Y004472D01*
X014475Y004485D01*
X014423Y004501D01*
X014373Y004521D01*
X014325Y004544D01*
X014278Y004570D01*
X014233Y004599D01*
X014238Y004606D01*
X014283Y004577D01*
X014329Y004552D01*
X014377Y004529D01*
X014426Y004509D01*
X014477Y004493D01*
X014529Y004480D01*
X014581Y004471D01*
X014634Y004465D01*
X014687Y004463D01*
X014740Y004464D01*
X014793Y004469D01*
X014845Y004477D01*
X014897Y004489D01*
X014895Y004498D01*
X014844Y004486D01*
X014792Y004478D01*
X014739Y004473D01*
X014687Y004472D01*
X014634Y004474D01*
X014582Y004480D01*
X014531Y004489D01*
X014480Y004502D01*
X014430Y004518D01*
X014381Y004537D01*
X014333Y004560D01*
X014287Y004585D01*
X014243Y004614D01*
X014248Y004621D01*
X014292Y004593D01*
X014337Y004568D01*
X014384Y004545D01*
X014433Y004526D01*
X014482Y004511D01*
X014532Y004498D01*
X014584Y004489D01*
X014635Y004483D01*
X014687Y004481D01*
X014739Y004482D01*
X014791Y004487D01*
X014842Y004495D01*
X014893Y004506D01*
X014890Y004515D01*
X014840Y004504D01*
X014789Y004496D01*
X014738Y004491D01*
X014687Y004490D01*
X014636Y004492D01*
X014585Y004498D01*
X014534Y004507D01*
X014484Y004519D01*
X014436Y004535D01*
X014388Y004554D01*
X014341Y004576D01*
X014297Y004601D01*
X014254Y004628D01*
X014259Y004636D01*
X014305Y004606D01*
X014353Y004580D01*
X014403Y004557D01*
X014455Y004538D01*
X014507Y004522D01*
X014561Y004511D01*
X014615Y004503D01*
X014670Y004499D01*
X014725Y004500D01*
X014780Y004504D01*
X014834Y004512D01*
X014888Y004524D01*
D16*
X014228Y004610D02*
X014211Y004673D01*
X014488Y006036D02*
X014539Y006050D01*
X014591Y006060D01*
X014643Y006066D01*
X014696Y006070D01*
X014748Y006069D01*
X014801Y006066D01*
X014853Y006059D01*
X014905Y006048D01*
X014956Y006034D01*
X015006Y006017D01*
X015054Y005996D01*
X015101Y005973D01*
X015147Y005946D01*
X015191Y005916D01*
X015232Y005884D01*
X015272Y005849D01*
X015486Y005045D02*
X015470Y004994D01*
X015451Y004945D01*
X015429Y004897D01*
X015403Y004851D01*
X015374Y004807D01*
X015342Y004764D01*
X015308Y004724D01*
X015271Y004687D01*
X015231Y004652D01*
X015189Y004619D01*
X015145Y004590D01*
X015099Y004564D01*
X015052Y004540D01*
X015003Y004520D01*
X014953Y004504D01*
X014901Y004491D01*
X013981Y005533D02*
X013964Y005596D01*
X013204Y004679D02*
X013165Y004643D01*
X013124Y004610D01*
X013080Y004580D01*
X013035Y004553D01*
X012988Y004529D01*
X012939Y004508D01*
X012889Y004491D01*
X012838Y004477D01*
X012786Y004466D01*
X012734Y004459D01*
X012681Y004455D01*
X012628Y004455D01*
X012576Y004459D01*
X012523Y004466D01*
X012471Y004477D01*
X012421Y004491D01*
X011897Y004931D02*
X011914Y004994D01*
X012834Y006036D02*
X012885Y006022D01*
X012935Y006005D01*
X012984Y005985D01*
X013031Y005961D01*
X013076Y005935D01*
X013120Y005905D01*
X013162Y005873D01*
X013201Y005838D01*
X013238Y005800D01*
X013273Y005760D01*
X013305Y005718D01*
X013334Y005674D01*
X013360Y005628D01*
X013383Y005581D01*
X013403Y005532D01*
X013419Y005482D01*
X012144Y005854D02*
X012161Y005916D01*
X014897Y008837D02*
X014897Y009137D01*
X014897Y008837D02*
X015257Y008837D01*
X015417Y009277D02*
X015417Y009517D01*
X014897Y009657D02*
X014897Y009957D01*
X015257Y009957D01*
X009652Y015839D02*
X009654Y015859D01*
X009659Y015879D01*
X009669Y015897D01*
X009681Y015914D01*
X009696Y015928D01*
X009714Y015938D01*
X009733Y015946D01*
X009753Y015950D01*
X009773Y015950D01*
X009793Y015946D01*
X009812Y015938D01*
X009830Y015928D01*
X009845Y015914D01*
X009857Y015897D01*
X009867Y015879D01*
X009872Y015859D01*
X009874Y015839D01*
X009872Y015819D01*
X009867Y015799D01*
X009857Y015781D01*
X009845Y015764D01*
X009830Y015750D01*
X009812Y015740D01*
X009793Y015732D01*
X009773Y015728D01*
X009753Y015728D01*
X009733Y015732D01*
X009714Y015740D01*
X009696Y015750D01*
X009681Y015764D01*
X009669Y015781D01*
X009659Y015799D01*
X009654Y015819D01*
X009652Y015839D01*
X009180Y015367D02*
X009182Y015387D01*
X009187Y015407D01*
X009197Y015425D01*
X009209Y015442D01*
X009224Y015456D01*
X009242Y015466D01*
X009261Y015474D01*
X009281Y015478D01*
X009301Y015478D01*
X009321Y015474D01*
X009340Y015466D01*
X009358Y015456D01*
X009373Y015442D01*
X009385Y015425D01*
X009395Y015407D01*
X009400Y015387D01*
X009402Y015367D01*
X009400Y015347D01*
X009395Y015327D01*
X009385Y015309D01*
X009373Y015292D01*
X009358Y015278D01*
X009340Y015268D01*
X009321Y015260D01*
X009301Y015256D01*
X009281Y015256D01*
X009261Y015260D01*
X009242Y015268D01*
X009224Y015278D01*
X009209Y015292D01*
X009197Y015309D01*
X009187Y015327D01*
X009182Y015347D01*
X009180Y015367D01*
X009763Y023661D02*
X009785Y023661D01*
X009785Y024361D01*
X010085Y024361D01*
X010085Y025161D01*
X009785Y025161D01*
X009785Y025661D01*
X006985Y025661D01*
X006985Y025161D01*
X006685Y025161D01*
X006685Y024361D01*
X006985Y024361D01*
X006985Y023661D01*
X007008Y023661D01*
D17*
X005485Y025331D02*
X009985Y025331D01*
X015652Y021308D02*
X015654Y021327D01*
X015659Y021344D01*
X015668Y021361D01*
X015681Y021375D01*
X015695Y021386D01*
X015712Y021394D01*
X015730Y021399D01*
X015749Y021400D01*
X015767Y021397D01*
X015785Y021391D01*
X015800Y021381D01*
X015814Y021368D01*
X015824Y021353D01*
X015832Y021336D01*
X015836Y021317D01*
X015836Y021299D01*
X015832Y021280D01*
X015824Y021263D01*
X015814Y021248D01*
X015800Y021235D01*
X015785Y021225D01*
X015767Y021219D01*
X015749Y021216D01*
X015730Y021217D01*
X015712Y021222D01*
X015695Y021230D01*
X015681Y021241D01*
X015668Y021255D01*
X015659Y021272D01*
X015654Y021289D01*
X015652Y021308D01*
X016824Y009633D02*
X016787Y009596D01*
X016787Y009523D01*
X016824Y009486D01*
X016824Y009633D02*
X016861Y009633D01*
X017008Y009486D01*
X017008Y009633D01*
X017008Y009412D02*
X017008Y009265D01*
X017008Y009339D02*
X016787Y009339D01*
X016861Y009265D01*
X016898Y009191D02*
X016934Y009154D01*
X016934Y009044D01*
X017008Y009044D02*
X016787Y009044D01*
X016787Y009154D01*
X016824Y009191D01*
X016898Y009191D01*
X016934Y009118D02*
X017008Y009191D01*
D18*
X009606Y012060D02*
X009448Y011902D01*
X005984Y011902D01*
X005826Y012060D01*
X005826Y015524D01*
X005984Y015682D01*
X009448Y015682D01*
X009606Y015524D01*
X009606Y012060D01*
X010933Y019049D02*
X011271Y019049D01*
X011421Y019503D02*
X011421Y019715D01*
X011271Y020169D02*
X010933Y020169D01*
D19*
X015781Y008322D03*
X015781Y008295D03*
X015781Y008267D03*
X015781Y008240D03*
X015781Y008212D03*
X015781Y008185D03*
X015781Y008157D03*
X015781Y008130D03*
X015781Y008102D03*
X015781Y008074D03*
X015781Y006559D03*
X015781Y006531D03*
X015781Y006504D03*
X015781Y006476D03*
X015781Y006448D03*
X015781Y006421D03*
X015781Y006393D03*
X015781Y006366D03*
D20*
X015450Y006586D03*
D21*
X016456Y006586D03*
X016456Y007992D03*
X016456Y008019D03*
D22*
X015423Y006614D03*
D23*
X016470Y006614D03*
X016470Y006641D03*
X016470Y007937D03*
X016470Y007964D03*
X015092Y007716D03*
D24*
X015395Y006641D03*
D25*
X015382Y006669D03*
X015382Y008019D03*
D26*
X015078Y006972D03*
X016484Y006724D03*
X016484Y006696D03*
X016484Y006669D03*
X016484Y007854D03*
X016484Y007881D03*
X016484Y007909D03*
D27*
X015368Y007909D03*
X015368Y007937D03*
X015368Y006752D03*
X015368Y006724D03*
X015368Y006696D03*
D28*
X015065Y007689D03*
X016498Y007771D03*
X016498Y007799D03*
X016498Y007826D03*
X016498Y006807D03*
X016498Y006779D03*
X016498Y006752D03*
D29*
X015285Y006779D03*
D30*
X015561Y007000D03*
X015616Y007165D03*
X015616Y007193D03*
X015616Y007220D03*
X015616Y007248D03*
X015616Y007275D03*
X015616Y007303D03*
X015616Y007330D03*
X015616Y007358D03*
X015616Y007385D03*
X015616Y007413D03*
X015616Y007441D03*
X015616Y007468D03*
X015616Y007496D03*
X015616Y007523D03*
X015588Y007606D03*
X015561Y007661D03*
X016002Y007496D03*
X016002Y007468D03*
X016002Y007441D03*
X016002Y007413D03*
X016002Y007385D03*
X016002Y007358D03*
X016002Y007330D03*
X016002Y007303D03*
X016002Y007275D03*
X016002Y007248D03*
X016002Y007220D03*
X016002Y007193D03*
X016002Y007165D03*
X015947Y006917D03*
X015919Y006862D03*
X015919Y006834D03*
X015891Y006779D03*
D31*
X015244Y006807D03*
D32*
X015905Y006807D03*
D33*
X015230Y006834D03*
X015230Y007854D03*
D34*
X015051Y007496D03*
X015051Y007468D03*
X015051Y007441D03*
X015051Y007413D03*
X015051Y007385D03*
X015051Y007358D03*
X015051Y007330D03*
X015051Y007303D03*
X015051Y007275D03*
X015051Y007248D03*
X015051Y007220D03*
X015051Y007193D03*
X015051Y007165D03*
X015051Y007000D03*
X016511Y006972D03*
X016511Y006944D03*
X016511Y006917D03*
X016511Y006889D03*
X016511Y006862D03*
X016511Y006834D03*
X016511Y007661D03*
X016511Y007689D03*
X016511Y007716D03*
X016511Y007744D03*
D35*
X015202Y007744D03*
X015202Y007826D03*
X015202Y006917D03*
X015202Y006862D03*
D36*
X015189Y006889D03*
X015189Y007771D03*
X015189Y007799D03*
D37*
X015547Y007689D03*
X015574Y007633D03*
X015602Y007578D03*
X015602Y007551D03*
X015960Y007633D03*
X015960Y007661D03*
X015960Y007689D03*
X015933Y007716D03*
X015933Y007744D03*
X015933Y007771D03*
X015905Y007826D03*
X015988Y007606D03*
X015988Y007578D03*
X015988Y007551D03*
X015988Y007523D03*
X015988Y007137D03*
X015988Y007110D03*
X015988Y007082D03*
X015988Y007055D03*
X015960Y007000D03*
X015960Y006972D03*
X015960Y006944D03*
X015933Y006889D03*
X015602Y007082D03*
X015602Y007110D03*
X015602Y007137D03*
X015574Y007055D03*
X015574Y007027D03*
X015547Y006972D03*
D38*
X015216Y006944D03*
D39*
X015037Y007027D03*
X015037Y007110D03*
X015037Y007137D03*
X015037Y007523D03*
X015037Y007551D03*
X015037Y007661D03*
X016525Y007633D03*
X016525Y007606D03*
X016525Y007578D03*
X016525Y007551D03*
X016525Y007523D03*
X016525Y007137D03*
X016525Y007110D03*
X016525Y007082D03*
X016525Y007055D03*
X016525Y007027D03*
X016525Y007000D03*
D40*
X015974Y007027D03*
X015919Y007799D03*
X015891Y007854D03*
X015864Y007881D03*
X015533Y007716D03*
D41*
X015023Y007633D03*
X015023Y007606D03*
X015023Y007578D03*
X015023Y007082D03*
X015023Y007055D03*
X016539Y007165D03*
X016539Y007193D03*
X016539Y007220D03*
X016539Y007248D03*
X016539Y007275D03*
X016539Y007303D03*
X016539Y007330D03*
X016539Y007358D03*
X016539Y007385D03*
X016539Y007413D03*
X016539Y007441D03*
X016539Y007468D03*
X016539Y007496D03*
D42*
X015258Y007881D03*
D43*
X015354Y007964D03*
X015354Y007992D03*
D44*
X015409Y008047D03*
D45*
X016443Y008047D03*
D46*
X015709Y021612D03*
X015709Y021867D03*
X015709Y022123D03*
X015709Y022379D03*
X014447Y022380D03*
X014447Y022124D03*
X014447Y021868D03*
X014447Y021612D03*
D47*
X019095Y022586D02*
X019097Y022642D01*
X019103Y022697D01*
X019113Y022751D01*
X019126Y022805D01*
X019144Y022858D01*
X019165Y022909D01*
X019189Y022959D01*
X019217Y023007D01*
X019249Y023053D01*
X019283Y023097D01*
X019321Y023138D01*
X019361Y023176D01*
X019404Y023211D01*
X019449Y023243D01*
X019497Y023272D01*
X019546Y023298D01*
X019597Y023320D01*
X019649Y023338D01*
X019703Y023352D01*
X019758Y023363D01*
X019813Y023370D01*
X019868Y023373D01*
X019924Y023372D01*
X019979Y023367D01*
X020034Y023358D01*
X020088Y023346D01*
X020141Y023329D01*
X020193Y023309D01*
X020243Y023285D01*
X020291Y023258D01*
X020338Y023228D01*
X020382Y023194D01*
X020424Y023157D01*
X020462Y023117D01*
X020499Y023075D01*
X020532Y023030D01*
X020561Y022984D01*
X020588Y022935D01*
X020610Y022884D01*
X020630Y022832D01*
X020645Y022778D01*
X020657Y022724D01*
X020665Y022669D01*
X020669Y022614D01*
X020669Y022558D01*
X020665Y022503D01*
X020657Y022448D01*
X020645Y022394D01*
X020630Y022340D01*
X020610Y022288D01*
X020588Y022237D01*
X020561Y022188D01*
X020532Y022142D01*
X020499Y022097D01*
X020462Y022055D01*
X020424Y022015D01*
X020382Y021978D01*
X020338Y021944D01*
X020291Y021914D01*
X020243Y021887D01*
X020193Y021863D01*
X020141Y021843D01*
X020088Y021826D01*
X020034Y021814D01*
X019979Y021805D01*
X019924Y021800D01*
X019868Y021799D01*
X019813Y021802D01*
X019758Y021809D01*
X019703Y021820D01*
X019649Y021834D01*
X019597Y021852D01*
X019546Y021874D01*
X019497Y021900D01*
X019449Y021929D01*
X019404Y021961D01*
X019361Y021996D01*
X019321Y022034D01*
X019283Y022075D01*
X019249Y022119D01*
X019217Y022165D01*
X019189Y022213D01*
X019165Y022263D01*
X019144Y022314D01*
X019126Y022367D01*
X019113Y022421D01*
X019103Y022475D01*
X019097Y022530D01*
X019095Y022586D01*
M02*
