G75*
%MOIN*%
%OFA0B0*%
%FSLAX24Y24*%
%IPPOS*%
%LPD*%
%AMOC8*
5,1,8,0,0,1.08239X$1,22.5*
%
%ADD10C,0.0000*%
%ADD11C,0.0030*%
%ADD12C,0.0060*%
%ADD13C,0.0050*%
%ADD14C,0.0100*%
%ADD15C,0.0080*%
%ADD16C,0.0040*%
%ADD17C,0.0020*%
%ADD18R,0.1984X0.0028*%
%ADD19R,0.1323X0.0028*%
%ADD20R,0.0634X0.0028*%
%ADD21R,0.1268X0.0028*%
%ADD22R,0.0606X0.0028*%
%ADD23R,0.1213X0.0028*%
%ADD24R,0.1185X0.0028*%
%ADD25R,0.0579X0.0028*%
%ADD26R,0.1157X0.0028*%
%ADD27R,0.0551X0.0028*%
%ADD28R,0.0992X0.0028*%
%ADD29R,0.0165X0.0028*%
%ADD30R,0.0909X0.0028*%
%ADD31R,0.0138X0.0028*%
%ADD32R,0.0882X0.0028*%
%ADD33R,0.0524X0.0028*%
%ADD34R,0.0827X0.0028*%
%ADD35R,0.0799X0.0028*%
%ADD36R,0.0193X0.0028*%
%ADD37R,0.0854X0.0028*%
%ADD38R,0.0496X0.0028*%
%ADD39R,0.0220X0.0028*%
%ADD40R,0.0469X0.0028*%
%ADD41R,0.0937X0.0028*%
%ADD42R,0.1130X0.0028*%
%ADD43R,0.1240X0.0028*%
%ADD44R,0.0661X0.0028*%
D10*
X001991Y002069D02*
X001993Y002119D01*
X001999Y002169D01*
X002009Y002219D01*
X002022Y002267D01*
X002039Y002315D01*
X002060Y002361D01*
X002084Y002405D01*
X002112Y002447D01*
X002143Y002487D01*
X002177Y002524D01*
X002214Y002559D01*
X002253Y002590D01*
X002294Y002619D01*
X002338Y002644D01*
X002384Y002666D01*
X002431Y002684D01*
X002479Y002698D01*
X002528Y002709D01*
X002578Y002716D01*
X002628Y002719D01*
X002679Y002718D01*
X002729Y002713D01*
X002779Y002704D01*
X002827Y002692D01*
X002875Y002675D01*
X002921Y002655D01*
X002966Y002632D01*
X003009Y002605D01*
X003049Y002575D01*
X003087Y002542D01*
X003122Y002506D01*
X003155Y002467D01*
X003184Y002426D01*
X003210Y002383D01*
X003233Y002338D01*
X003252Y002291D01*
X003267Y002243D01*
X003279Y002194D01*
X003287Y002144D01*
X003291Y002094D01*
X003291Y002044D01*
X003287Y001994D01*
X003279Y001944D01*
X003267Y001895D01*
X003252Y001847D01*
X003233Y001800D01*
X003210Y001755D01*
X003184Y001712D01*
X003155Y001671D01*
X003122Y001632D01*
X003087Y001596D01*
X003049Y001563D01*
X003009Y001533D01*
X002966Y001506D01*
X002921Y001483D01*
X002875Y001463D01*
X002827Y001446D01*
X002779Y001434D01*
X002729Y001425D01*
X002679Y001420D01*
X002628Y001419D01*
X002578Y001422D01*
X002528Y001429D01*
X002479Y001440D01*
X002431Y001454D01*
X002384Y001472D01*
X002338Y001494D01*
X002294Y001519D01*
X002253Y001548D01*
X002214Y001579D01*
X002177Y001614D01*
X002143Y001651D01*
X002112Y001691D01*
X002084Y001733D01*
X002060Y001777D01*
X002039Y001823D01*
X002022Y001871D01*
X002009Y001919D01*
X001999Y001969D01*
X001993Y002019D01*
X001991Y002069D01*
X000672Y003250D02*
X000672Y018210D01*
X001991Y019391D02*
X001993Y019441D01*
X001999Y019491D01*
X002009Y019541D01*
X002022Y019589D01*
X002039Y019637D01*
X002060Y019683D01*
X002084Y019727D01*
X002112Y019769D01*
X002143Y019809D01*
X002177Y019846D01*
X002214Y019881D01*
X002253Y019912D01*
X002294Y019941D01*
X002338Y019966D01*
X002384Y019988D01*
X002431Y020006D01*
X002479Y020020D01*
X002528Y020031D01*
X002578Y020038D01*
X002628Y020041D01*
X002679Y020040D01*
X002729Y020035D01*
X002779Y020026D01*
X002827Y020014D01*
X002875Y019997D01*
X002921Y019977D01*
X002966Y019954D01*
X003009Y019927D01*
X003049Y019897D01*
X003087Y019864D01*
X003122Y019828D01*
X003155Y019789D01*
X003184Y019748D01*
X003210Y019705D01*
X003233Y019660D01*
X003252Y019613D01*
X003267Y019565D01*
X003279Y019516D01*
X003287Y019466D01*
X003291Y019416D01*
X003291Y019366D01*
X003287Y019316D01*
X003279Y019266D01*
X003267Y019217D01*
X003252Y019169D01*
X003233Y019122D01*
X003210Y019077D01*
X003184Y019034D01*
X003155Y018993D01*
X003122Y018954D01*
X003087Y018918D01*
X003049Y018885D01*
X003009Y018855D01*
X002966Y018828D01*
X002921Y018805D01*
X002875Y018785D01*
X002827Y018768D01*
X002779Y018756D01*
X002729Y018747D01*
X002679Y018742D01*
X002628Y018741D01*
X002578Y018744D01*
X002528Y018751D01*
X002479Y018762D01*
X002431Y018776D01*
X002384Y018794D01*
X002338Y018816D01*
X002294Y018841D01*
X002253Y018870D01*
X002214Y018901D01*
X002177Y018936D01*
X002143Y018973D01*
X002112Y019013D01*
X002084Y019055D01*
X002060Y019099D01*
X002039Y019145D01*
X002022Y019193D01*
X002009Y019241D01*
X001999Y019291D01*
X001993Y019341D01*
X001991Y019391D01*
X000672Y018211D02*
X000687Y018326D01*
X000705Y018442D01*
X000727Y018556D01*
X000754Y018670D01*
X000783Y018783D01*
X000817Y018894D01*
X000854Y019005D01*
X000894Y019114D01*
X000939Y019222D01*
X000986Y019329D01*
X001038Y019434D01*
X001092Y019537D01*
X001150Y019638D01*
X001211Y019737D01*
X001276Y019834D01*
X001343Y019930D01*
X001414Y020022D01*
X001488Y020113D01*
X001564Y020201D01*
X001644Y020286D01*
X001726Y020369D01*
X001811Y020449D01*
X001898Y020526D01*
X001988Y020601D01*
X002080Y020672D01*
X002175Y020740D01*
X002272Y020806D01*
X002370Y020868D01*
X002471Y020926D01*
X002574Y020982D01*
X002678Y021034D01*
X002784Y021082D01*
X002892Y021127D01*
X003001Y021169D01*
X003111Y021207D01*
X003223Y021241D01*
X003335Y021272D01*
X003449Y021299D01*
X003563Y021322D01*
X003678Y021341D01*
X003794Y021357D01*
X003910Y021369D01*
X004026Y021377D01*
X004143Y021381D01*
X004259Y021382D01*
X004376Y021378D01*
X004493Y021371D01*
X004609Y021360D01*
X018782Y021360D01*
X019313Y019391D02*
X019315Y019441D01*
X019321Y019491D01*
X019331Y019541D01*
X019344Y019589D01*
X019361Y019637D01*
X019382Y019683D01*
X019406Y019727D01*
X019434Y019769D01*
X019465Y019809D01*
X019499Y019846D01*
X019536Y019881D01*
X019575Y019912D01*
X019616Y019941D01*
X019660Y019966D01*
X019706Y019988D01*
X019753Y020006D01*
X019801Y020020D01*
X019850Y020031D01*
X019900Y020038D01*
X019950Y020041D01*
X020001Y020040D01*
X020051Y020035D01*
X020101Y020026D01*
X020149Y020014D01*
X020197Y019997D01*
X020243Y019977D01*
X020288Y019954D01*
X020331Y019927D01*
X020371Y019897D01*
X020409Y019864D01*
X020444Y019828D01*
X020477Y019789D01*
X020506Y019748D01*
X020532Y019705D01*
X020555Y019660D01*
X020574Y019613D01*
X020589Y019565D01*
X020601Y019516D01*
X020609Y019466D01*
X020613Y019416D01*
X020613Y019366D01*
X020609Y019316D01*
X020601Y019266D01*
X020589Y019217D01*
X020574Y019169D01*
X020555Y019122D01*
X020532Y019077D01*
X020506Y019034D01*
X020477Y018993D01*
X020444Y018954D01*
X020409Y018918D01*
X020371Y018885D01*
X020331Y018855D01*
X020288Y018828D01*
X020243Y018805D01*
X020197Y018785D01*
X020149Y018768D01*
X020101Y018756D01*
X020051Y018747D01*
X020001Y018742D01*
X019950Y018741D01*
X019900Y018744D01*
X019850Y018751D01*
X019801Y018762D01*
X019753Y018776D01*
X019706Y018794D01*
X019660Y018816D01*
X019616Y018841D01*
X019575Y018870D01*
X019536Y018901D01*
X019499Y018936D01*
X019465Y018973D01*
X019434Y019013D01*
X019406Y019055D01*
X019382Y019099D01*
X019361Y019145D01*
X019344Y019193D01*
X019331Y019241D01*
X019321Y019291D01*
X019315Y019341D01*
X019313Y019391D01*
X018782Y021360D02*
X018892Y021358D01*
X019002Y021352D01*
X019111Y021343D01*
X019220Y021329D01*
X019329Y021312D01*
X019437Y021291D01*
X019544Y021266D01*
X019650Y021238D01*
X019755Y021206D01*
X019859Y021170D01*
X019962Y021131D01*
X020063Y021088D01*
X020163Y021041D01*
X020261Y020991D01*
X020357Y020938D01*
X020451Y020881D01*
X020543Y020821D01*
X020634Y020758D01*
X020721Y020692D01*
X020807Y020623D01*
X020890Y020551D01*
X020970Y020476D01*
X021048Y020398D01*
X021123Y020318D01*
X021195Y020235D01*
X021264Y020149D01*
X021330Y020062D01*
X021393Y019971D01*
X021453Y019879D01*
X021510Y019785D01*
X021563Y019689D01*
X021613Y019591D01*
X021660Y019491D01*
X021703Y019390D01*
X021742Y019287D01*
X021778Y019183D01*
X021810Y019078D01*
X021838Y018972D01*
X021863Y018865D01*
X021884Y018757D01*
X021901Y018648D01*
X021915Y018539D01*
X021924Y018430D01*
X021930Y018320D01*
X021932Y018210D01*
X021932Y003250D01*
X019313Y002069D02*
X019315Y002119D01*
X019321Y002169D01*
X019331Y002219D01*
X019344Y002267D01*
X019361Y002315D01*
X019382Y002361D01*
X019406Y002405D01*
X019434Y002447D01*
X019465Y002487D01*
X019499Y002524D01*
X019536Y002559D01*
X019575Y002590D01*
X019616Y002619D01*
X019660Y002644D01*
X019706Y002666D01*
X019753Y002684D01*
X019801Y002698D01*
X019850Y002709D01*
X019900Y002716D01*
X019950Y002719D01*
X020001Y002718D01*
X020051Y002713D01*
X020101Y002704D01*
X020149Y002692D01*
X020197Y002675D01*
X020243Y002655D01*
X020288Y002632D01*
X020331Y002605D01*
X020371Y002575D01*
X020409Y002542D01*
X020444Y002506D01*
X020477Y002467D01*
X020506Y002426D01*
X020532Y002383D01*
X020555Y002338D01*
X020574Y002291D01*
X020589Y002243D01*
X020601Y002194D01*
X020609Y002144D01*
X020613Y002094D01*
X020613Y002044D01*
X020609Y001994D01*
X020601Y001944D01*
X020589Y001895D01*
X020574Y001847D01*
X020555Y001800D01*
X020532Y001755D01*
X020506Y001712D01*
X020477Y001671D01*
X020444Y001632D01*
X020409Y001596D01*
X020371Y001563D01*
X020331Y001533D01*
X020288Y001506D01*
X020243Y001483D01*
X020197Y001463D01*
X020149Y001446D01*
X020101Y001434D01*
X020051Y001425D01*
X020001Y001420D01*
X019950Y001419D01*
X019900Y001422D01*
X019850Y001429D01*
X019801Y001440D01*
X019753Y001454D01*
X019706Y001472D01*
X019660Y001494D01*
X019616Y001519D01*
X019575Y001548D01*
X019536Y001579D01*
X019499Y001614D01*
X019465Y001651D01*
X019434Y001691D01*
X019406Y001733D01*
X019382Y001777D01*
X019361Y001823D01*
X019344Y001871D01*
X019331Y001919D01*
X019321Y001969D01*
X019315Y002019D01*
X019313Y002069D01*
X018782Y000100D02*
X018892Y000102D01*
X019002Y000108D01*
X019111Y000117D01*
X019220Y000131D01*
X019329Y000148D01*
X019437Y000169D01*
X019544Y000194D01*
X019650Y000222D01*
X019755Y000254D01*
X019859Y000290D01*
X019962Y000329D01*
X020063Y000372D01*
X020163Y000419D01*
X020261Y000469D01*
X020357Y000522D01*
X020451Y000579D01*
X020543Y000639D01*
X020634Y000702D01*
X020721Y000768D01*
X020807Y000837D01*
X020890Y000909D01*
X020970Y000984D01*
X021048Y001062D01*
X021123Y001142D01*
X021195Y001225D01*
X021264Y001311D01*
X021330Y001398D01*
X021393Y001489D01*
X021453Y001581D01*
X021510Y001675D01*
X021563Y001771D01*
X021613Y001869D01*
X021660Y001969D01*
X021703Y002070D01*
X021742Y002173D01*
X021778Y002277D01*
X021810Y002382D01*
X021838Y002488D01*
X021863Y002595D01*
X021884Y002703D01*
X021901Y002812D01*
X021915Y002921D01*
X021924Y003030D01*
X021930Y003140D01*
X021932Y003250D01*
X018782Y000100D02*
X003822Y000100D01*
X003712Y000102D01*
X003602Y000108D01*
X003493Y000117D01*
X003384Y000131D01*
X003275Y000148D01*
X003167Y000169D01*
X003060Y000194D01*
X002954Y000222D01*
X002849Y000254D01*
X002745Y000290D01*
X002642Y000329D01*
X002541Y000372D01*
X002441Y000419D01*
X002343Y000469D01*
X002247Y000522D01*
X002153Y000579D01*
X002061Y000639D01*
X001970Y000702D01*
X001883Y000768D01*
X001797Y000837D01*
X001714Y000909D01*
X001634Y000984D01*
X001556Y001062D01*
X001481Y001142D01*
X001409Y001225D01*
X001340Y001311D01*
X001274Y001398D01*
X001211Y001489D01*
X001151Y001581D01*
X001094Y001675D01*
X001041Y001771D01*
X000991Y001869D01*
X000944Y001969D01*
X000901Y002070D01*
X000862Y002173D01*
X000826Y002277D01*
X000794Y002382D01*
X000766Y002488D01*
X000741Y002595D01*
X000720Y002703D01*
X000703Y002812D01*
X000689Y002921D01*
X000680Y003030D01*
X000674Y003140D01*
X000672Y003250D01*
D11*
X001516Y003275D02*
X001516Y003082D01*
X001564Y003033D01*
X001661Y003033D01*
X001709Y003082D01*
X001810Y003033D02*
X001810Y003323D01*
X002004Y003033D01*
X002004Y003323D01*
X002105Y003275D02*
X002153Y003323D01*
X002250Y003323D01*
X002298Y003275D01*
X002298Y003227D01*
X002250Y003178D01*
X002298Y003130D01*
X002298Y003082D01*
X002250Y003033D01*
X002153Y003033D01*
X002105Y003082D01*
X002202Y003178D02*
X002250Y003178D01*
X001709Y003275D02*
X001661Y003323D01*
X001564Y003323D01*
X001516Y003275D01*
X002970Y003620D02*
X002970Y003765D01*
X003019Y003814D01*
X003212Y003814D01*
X003261Y003765D01*
X003261Y003620D01*
X002970Y003620D01*
X002970Y003915D02*
X003115Y003915D01*
X003067Y004012D01*
X003067Y004060D01*
X003115Y004108D01*
X003212Y004108D01*
X003261Y004060D01*
X003261Y003963D01*
X003212Y003915D01*
X002970Y003915D02*
X002970Y004108D01*
X003987Y004402D02*
X003987Y004547D01*
X004036Y004595D01*
X004133Y004595D01*
X004181Y004547D01*
X004181Y004402D01*
X004181Y004498D02*
X004278Y004595D01*
X004229Y004696D02*
X004278Y004745D01*
X004278Y004841D01*
X004229Y004890D01*
X004036Y004890D01*
X003987Y004841D01*
X003987Y004745D01*
X004036Y004696D01*
X004084Y004696D01*
X004133Y004745D01*
X004133Y004890D01*
X004278Y004402D02*
X003987Y004402D01*
X005011Y004407D02*
X005011Y004552D01*
X005059Y004600D01*
X005156Y004600D01*
X005205Y004552D01*
X005205Y004407D01*
X005205Y004503D02*
X005301Y004600D01*
X005253Y004701D02*
X005301Y004750D01*
X005301Y004846D01*
X005253Y004895D01*
X005205Y004895D01*
X005156Y004846D01*
X005156Y004750D01*
X005108Y004701D01*
X005059Y004701D01*
X005011Y004750D01*
X005011Y004846D01*
X005059Y004895D01*
X005108Y004895D01*
X005156Y004846D01*
X005156Y004750D02*
X005205Y004701D01*
X005253Y004701D01*
X005301Y004407D02*
X005011Y004407D01*
X006049Y004402D02*
X006049Y004547D01*
X006098Y004595D01*
X006195Y004595D01*
X006243Y004547D01*
X006243Y004402D01*
X006243Y004498D02*
X006340Y004595D01*
X006291Y004696D02*
X006340Y004745D01*
X006340Y004841D01*
X006291Y004890D01*
X006195Y004890D01*
X006146Y004841D01*
X006146Y004793D01*
X006195Y004696D01*
X006049Y004696D01*
X006049Y004890D01*
X006049Y004402D02*
X006340Y004402D01*
X007634Y005642D02*
X007828Y005642D01*
X007731Y005642D02*
X007731Y005352D01*
X007929Y005352D02*
X008122Y005352D01*
X008026Y005352D02*
X008026Y005642D01*
X007929Y005546D01*
X008300Y005933D02*
X008300Y006224D01*
X008446Y006224D01*
X008494Y006175D01*
X008494Y006078D01*
X008446Y006030D01*
X008300Y006030D01*
X008397Y006030D02*
X008494Y005933D01*
X008595Y005933D02*
X008595Y006224D01*
X008740Y006224D01*
X008789Y006175D01*
X008789Y006127D01*
X008740Y006078D01*
X008595Y006078D01*
X008595Y005933D02*
X008740Y005933D01*
X008789Y005982D01*
X008789Y006030D01*
X008740Y006078D01*
X008890Y006175D02*
X008938Y006224D01*
X009035Y006224D01*
X009083Y006175D01*
X009083Y006127D01*
X008890Y005933D01*
X009083Y005933D01*
X008160Y004099D02*
X008160Y003905D01*
X007966Y004099D01*
X007918Y004099D01*
X007870Y004050D01*
X007870Y003953D01*
X007918Y003905D01*
X007918Y003804D02*
X007870Y003756D01*
X007870Y003659D01*
X007918Y003610D01*
X008111Y003610D01*
X008160Y003659D01*
X008160Y003756D01*
X008111Y003804D01*
X008160Y003509D02*
X008063Y003413D01*
X008063Y003461D02*
X008063Y003316D01*
X008160Y003316D02*
X007870Y003316D01*
X007870Y003461D01*
X007918Y003509D01*
X008015Y003509D01*
X008063Y003461D01*
X009319Y000919D02*
X009459Y000882D01*
X009494Y000822D01*
X009444Y000635D01*
X009384Y000601D01*
X009244Y000639D01*
X009319Y000919D01*
X009579Y000749D02*
X009697Y000818D01*
X009622Y000538D01*
X009529Y000563D02*
X009716Y000512D01*
X006892Y000499D02*
X006699Y000499D01*
X006892Y000692D01*
X006892Y000741D01*
X006844Y000789D01*
X006747Y000789D01*
X006699Y000741D01*
X006598Y000741D02*
X006598Y000547D01*
X006549Y000499D01*
X006404Y000499D01*
X006404Y000789D01*
X006549Y000789D01*
X006598Y000741D01*
X006303Y000789D02*
X006110Y000789D01*
X006110Y000499D01*
X006303Y000499D01*
X006206Y000644D02*
X006110Y000644D01*
X006008Y000499D02*
X005815Y000499D01*
X005815Y000789D01*
X010625Y003316D02*
X010625Y003461D01*
X010674Y003509D01*
X010771Y003509D01*
X010819Y003461D01*
X010819Y003316D01*
X010819Y003413D02*
X010916Y003509D01*
X010867Y003610D02*
X010916Y003659D01*
X010916Y003756D01*
X010867Y003804D01*
X010916Y003905D02*
X010916Y004099D01*
X010916Y004002D02*
X010625Y004002D01*
X010722Y003905D01*
X010674Y003804D02*
X010625Y003756D01*
X010625Y003659D01*
X010674Y003610D01*
X010867Y003610D01*
X010916Y003316D02*
X010625Y003316D01*
X011481Y005515D02*
X011481Y005660D01*
X011529Y005709D01*
X011626Y005709D01*
X011674Y005660D01*
X011674Y005515D01*
X011771Y005515D02*
X011481Y005515D01*
X011674Y005612D02*
X011771Y005709D01*
X011771Y005810D02*
X011771Y006003D01*
X011771Y005907D02*
X011481Y005907D01*
X011577Y005810D01*
X011577Y006105D02*
X011481Y006201D01*
X011771Y006201D01*
X011771Y006105D02*
X011771Y006298D01*
X012007Y007746D02*
X012007Y008036D01*
X011911Y008036D02*
X012104Y008036D01*
X012205Y007988D02*
X012254Y008036D01*
X012351Y008036D01*
X012399Y007988D01*
X012399Y007939D01*
X012205Y007746D01*
X012399Y007746D01*
X011996Y009209D02*
X011802Y009403D01*
X011754Y009403D01*
X011705Y009355D01*
X011705Y009258D01*
X011754Y009209D01*
X011996Y009209D02*
X011996Y009403D01*
X011947Y009504D02*
X011996Y009553D01*
X011996Y009649D01*
X011947Y009698D01*
X011851Y009698D01*
X011802Y009649D01*
X011802Y009601D01*
X011851Y009504D01*
X011705Y009504D01*
X011705Y009698D01*
X010177Y008338D02*
X010177Y008289D01*
X010129Y008241D01*
X010177Y008193D01*
X010177Y008144D01*
X010129Y008096D01*
X010032Y008096D01*
X009984Y008144D01*
X009883Y008096D02*
X009689Y008096D01*
X009786Y008096D02*
X009786Y008386D01*
X009689Y008289D01*
X009588Y008241D02*
X009540Y008193D01*
X009394Y008193D01*
X009491Y008193D02*
X009588Y008096D01*
X009588Y008241D02*
X009588Y008338D01*
X009540Y008386D01*
X009394Y008386D01*
X009394Y008096D01*
X009984Y008338D02*
X010032Y008386D01*
X010129Y008386D01*
X010177Y008338D01*
X010129Y008241D02*
X010080Y008241D01*
X008485Y008485D02*
X008485Y008582D01*
X008437Y008631D01*
X008485Y008732D02*
X008485Y008925D01*
X008485Y008828D02*
X008195Y008828D01*
X008292Y008732D01*
X008244Y008631D02*
X008195Y008582D01*
X008195Y008485D01*
X008244Y008437D01*
X008437Y008437D01*
X008485Y008485D01*
X008437Y009026D02*
X008244Y009026D01*
X008195Y009075D01*
X008195Y009171D01*
X008244Y009220D01*
X008437Y009026D01*
X008485Y009075D01*
X008485Y009171D01*
X008437Y009220D01*
X008244Y009220D01*
X008222Y010298D02*
X008415Y010298D01*
X008464Y010347D01*
X008464Y010443D01*
X008415Y010492D01*
X008319Y010593D02*
X008319Y010786D01*
X008464Y010738D02*
X008173Y010738D01*
X008319Y010593D01*
X008222Y010492D02*
X008173Y010443D01*
X008173Y010347D01*
X008222Y010298D01*
X009809Y010354D02*
X009809Y010209D01*
X010100Y010209D01*
X010003Y010209D02*
X010003Y010354D01*
X009954Y010402D01*
X009858Y010402D01*
X009809Y010354D01*
X009906Y010503D02*
X009809Y010600D01*
X010100Y010600D01*
X010100Y010503D02*
X010100Y010697D01*
X010100Y010798D02*
X009906Y010992D01*
X009858Y010992D01*
X009809Y010943D01*
X009809Y010846D01*
X009858Y010798D01*
X010100Y010798D02*
X010100Y010992D01*
X010100Y010402D02*
X010003Y010305D01*
X007918Y012432D02*
X007724Y012432D01*
X007821Y012432D02*
X007821Y012722D01*
X007724Y012625D01*
X007623Y012674D02*
X007575Y012722D01*
X007478Y012722D01*
X007430Y012674D01*
X007430Y012480D01*
X007478Y012432D01*
X007575Y012432D01*
X007623Y012480D01*
X007330Y012432D02*
X007233Y012432D01*
X007282Y012432D02*
X007282Y012722D01*
X007330Y012722D02*
X007233Y012722D01*
X008244Y013870D02*
X008437Y013870D01*
X008485Y013918D01*
X008485Y014015D01*
X008437Y014064D01*
X008485Y014165D02*
X008485Y014358D01*
X008485Y014262D02*
X008195Y014262D01*
X008292Y014165D01*
X008244Y014064D02*
X008195Y014015D01*
X008195Y013918D01*
X008244Y013870D01*
X007717Y014649D02*
X007620Y014649D01*
X007571Y014697D01*
X007571Y014746D01*
X007620Y014794D01*
X007717Y014794D01*
X007765Y014746D01*
X007765Y014697D01*
X007717Y014649D01*
X007717Y014794D02*
X007765Y014842D01*
X007765Y014891D01*
X007717Y014939D01*
X007620Y014939D01*
X007571Y014891D01*
X007571Y014842D01*
X007620Y014794D01*
X007470Y014891D02*
X007422Y014939D01*
X007325Y014939D01*
X007277Y014891D01*
X007277Y014697D01*
X007325Y014649D01*
X007422Y014649D01*
X007470Y014697D01*
X008584Y015245D02*
X008584Y015342D01*
X008584Y015294D02*
X008874Y015294D01*
X008874Y015342D02*
X008874Y015245D01*
X008826Y015442D02*
X008632Y015442D01*
X008584Y015490D01*
X008584Y015587D01*
X008632Y015635D01*
X008632Y015736D02*
X008584Y015785D01*
X008584Y015881D01*
X008632Y015930D01*
X008681Y015930D01*
X008874Y015736D01*
X008874Y015930D01*
X008826Y015635D02*
X008874Y015587D01*
X008874Y015490D01*
X008826Y015442D01*
X009706Y013551D02*
X009706Y013357D01*
X009851Y013357D01*
X009803Y013454D01*
X009803Y013502D01*
X009851Y013551D01*
X009948Y013551D01*
X009996Y013502D01*
X009996Y013405D01*
X009948Y013357D01*
X009996Y013256D02*
X009996Y013062D01*
X009996Y013159D02*
X009706Y013159D01*
X009803Y013062D01*
X009754Y012961D02*
X009706Y012913D01*
X009706Y012816D01*
X009754Y012768D01*
X009948Y012768D01*
X009996Y012816D01*
X009996Y012913D01*
X009948Y012961D01*
X011807Y015392D02*
X011710Y015489D01*
X012001Y015489D01*
X012001Y015585D02*
X012001Y015392D01*
X012001Y015686D02*
X011807Y015880D01*
X011759Y015880D01*
X011710Y015832D01*
X011710Y015735D01*
X011759Y015686D01*
X012001Y015686D02*
X012001Y015880D01*
X012719Y017626D02*
X012816Y017626D01*
X012864Y017675D01*
X012965Y017626D02*
X013159Y017626D01*
X013062Y017626D02*
X013062Y017916D01*
X012965Y017820D01*
X012864Y017868D02*
X012816Y017916D01*
X012719Y017916D01*
X012671Y017868D01*
X012671Y017675D01*
X012719Y017626D01*
X013260Y017771D02*
X013453Y017771D01*
X013405Y017626D02*
X013405Y017916D01*
X013260Y017771D01*
X011765Y018820D02*
X011475Y018820D01*
X011475Y018965D01*
X011523Y019013D01*
X011620Y019013D01*
X011668Y018965D01*
X011668Y018820D01*
X011668Y018917D02*
X011765Y019013D01*
X011765Y019114D02*
X011571Y019308D01*
X011523Y019308D01*
X011475Y019260D01*
X011475Y019163D01*
X011523Y019114D01*
X011765Y019114D02*
X011765Y019308D01*
X012081Y019737D02*
X012274Y019737D01*
X012376Y019737D02*
X012376Y020028D01*
X012569Y020028D01*
X012670Y020028D02*
X012815Y020028D01*
X012864Y019979D01*
X012864Y019786D01*
X012815Y019737D01*
X012670Y019737D01*
X012670Y020028D01*
X012472Y019883D02*
X012376Y019883D01*
X012376Y019737D02*
X012569Y019737D01*
X012965Y019737D02*
X013158Y019737D01*
X013062Y019737D02*
X013062Y020028D01*
X012965Y019931D01*
X012081Y020028D02*
X012081Y019737D01*
X010754Y019335D02*
X010754Y019142D01*
X010754Y019238D02*
X010463Y019238D01*
X010560Y019142D01*
X010754Y019040D02*
X010754Y018847D01*
X010754Y018944D02*
X010463Y018944D01*
X010560Y018847D01*
X010512Y018746D02*
X010463Y018697D01*
X010463Y018601D01*
X010512Y018552D01*
X010705Y018552D01*
X010754Y018601D01*
X010754Y018697D01*
X010705Y018746D01*
X009796Y018715D02*
X009796Y018522D01*
X009796Y018619D02*
X009506Y018619D01*
X009602Y018522D01*
X009554Y018421D02*
X009506Y018372D01*
X009506Y018275D01*
X009554Y018227D01*
X009748Y018227D01*
X009796Y018275D01*
X009796Y018372D01*
X009748Y018421D01*
X009796Y018816D02*
X009602Y019010D01*
X009554Y019010D01*
X009506Y018962D01*
X009506Y018865D01*
X009554Y018816D01*
X009796Y018816D02*
X009796Y019010D01*
X008631Y020778D02*
X008438Y020778D01*
X008535Y020778D02*
X008535Y021069D01*
X008438Y020972D01*
X008337Y021069D02*
X008337Y020778D01*
X008143Y021069D01*
X008143Y020778D01*
X008042Y020827D02*
X007994Y020778D01*
X007897Y020778D01*
X007848Y020827D01*
X007848Y021020D01*
X007897Y021069D01*
X007994Y021069D01*
X008042Y021020D01*
X007809Y018990D02*
X007809Y018700D01*
X007712Y018700D02*
X007906Y018700D01*
X007712Y018893D02*
X007809Y018990D01*
X007611Y018990D02*
X007417Y018990D01*
X007417Y018700D01*
X007417Y018845D02*
X007514Y018845D01*
X006922Y017328D02*
X006632Y017328D01*
X006777Y017183D01*
X006777Y017376D01*
X006777Y017081D02*
X006825Y017033D01*
X006825Y016888D01*
X006825Y016985D02*
X006922Y017081D01*
X006777Y017081D02*
X006680Y017081D01*
X006632Y017033D01*
X006632Y016888D01*
X006922Y016888D01*
X006141Y016924D02*
X006044Y016827D01*
X006044Y016875D02*
X006044Y016730D01*
X006141Y016730D02*
X005851Y016730D01*
X005851Y016875D01*
X005899Y016924D01*
X005996Y016924D01*
X006044Y016875D01*
X006092Y017025D02*
X006141Y017073D01*
X006141Y017170D01*
X006092Y017218D01*
X006044Y017218D01*
X005996Y017170D01*
X005996Y017122D01*
X005996Y017170D02*
X005947Y017218D01*
X005899Y017218D01*
X005851Y017170D01*
X005851Y017073D01*
X005899Y017025D01*
X005611Y016527D02*
X005563Y016527D01*
X005370Y016720D01*
X005321Y016720D01*
X005321Y016527D01*
X005370Y016426D02*
X005321Y016377D01*
X005321Y016281D01*
X005370Y016232D01*
X005563Y016232D01*
X005611Y016281D01*
X005611Y016377D01*
X005563Y016426D01*
X005117Y016730D02*
X004827Y016730D01*
X004827Y016875D01*
X004875Y016924D01*
X004972Y016924D01*
X005020Y016875D01*
X005020Y016730D01*
X005020Y016827D02*
X005117Y016924D01*
X005069Y017025D02*
X005117Y017073D01*
X005117Y017170D01*
X005069Y017218D01*
X005020Y017218D01*
X004972Y017170D01*
X004972Y017025D01*
X005069Y017025D01*
X004972Y017025D02*
X004875Y017122D01*
X004827Y017218D01*
X003418Y017330D02*
X003370Y017282D01*
X003418Y017330D02*
X003418Y017427D01*
X003370Y017475D01*
X003273Y017475D01*
X003224Y017427D01*
X003224Y017378D01*
X003273Y017282D01*
X003128Y017282D01*
X003128Y017475D01*
X003128Y017576D02*
X003321Y017576D01*
X003418Y017673D01*
X003321Y017770D01*
X003128Y017770D01*
X003273Y017180D02*
X003273Y016987D01*
X003176Y017084D02*
X003370Y017084D01*
X002559Y018115D02*
X002414Y018115D01*
X002414Y018019D02*
X002414Y018309D01*
X002559Y018309D01*
X002607Y018260D01*
X002607Y018164D01*
X002559Y018115D01*
X002313Y018115D02*
X002264Y018164D01*
X002167Y018164D01*
X002119Y018212D01*
X002119Y018260D01*
X002167Y018309D01*
X002264Y018309D01*
X002313Y018260D01*
X002313Y018115D02*
X002313Y018067D01*
X002264Y018019D01*
X002167Y018019D01*
X002119Y018067D01*
X002018Y018067D02*
X001970Y018019D01*
X001873Y018019D01*
X001824Y018067D01*
X001824Y018260D01*
X001873Y018309D01*
X001970Y018309D01*
X002018Y018260D01*
X001725Y018309D02*
X001628Y018309D01*
X001676Y018309D02*
X001676Y018019D01*
X001628Y018019D02*
X001725Y018019D01*
X003176Y015801D02*
X003128Y015753D01*
X003128Y015608D01*
X003418Y015608D01*
X003418Y015753D01*
X003370Y015801D01*
X003176Y015801D01*
X003128Y015507D02*
X003418Y015507D01*
X003128Y015313D01*
X003418Y015313D01*
X003370Y015212D02*
X003273Y015212D01*
X003273Y015115D01*
X003176Y015018D02*
X003370Y015018D01*
X003418Y015067D01*
X003418Y015164D01*
X003370Y015212D01*
X003176Y015212D02*
X003128Y015164D01*
X003128Y015067D01*
X003176Y015018D01*
X003051Y014657D02*
X003100Y014609D01*
X003100Y014512D01*
X003051Y014464D01*
X003051Y014363D02*
X003100Y014314D01*
X003100Y014218D01*
X003051Y014169D01*
X002858Y014169D01*
X002809Y014218D01*
X002809Y014314D01*
X002858Y014363D01*
X002858Y014464D02*
X002809Y014512D01*
X002809Y014609D01*
X002858Y014657D01*
X002906Y014657D01*
X002954Y014609D01*
X003003Y014657D01*
X003051Y014657D01*
X002954Y014609D02*
X002954Y014561D01*
X002747Y014477D02*
X002650Y014380D01*
X002549Y014428D02*
X002549Y014331D01*
X002501Y014283D01*
X002356Y014283D01*
X002452Y014283D02*
X002549Y014186D01*
X002650Y014186D02*
X002844Y014186D01*
X002747Y014186D02*
X002747Y014477D01*
X002549Y014428D02*
X002501Y014477D01*
X002356Y014477D01*
X002356Y014186D01*
X001899Y012759D02*
X001705Y012759D01*
X001705Y012614D01*
X001802Y012662D01*
X001850Y012662D01*
X001899Y012614D01*
X001899Y012517D01*
X001850Y012469D01*
X001754Y012469D01*
X001705Y012517D01*
X001604Y012517D02*
X001556Y012469D01*
X001459Y012469D01*
X001411Y012517D01*
X001411Y012711D01*
X001459Y012759D01*
X001556Y012759D01*
X001604Y012711D01*
X002380Y010348D02*
X002380Y010155D01*
X002380Y010252D02*
X002089Y010252D01*
X002186Y010155D01*
X002380Y010054D02*
X002380Y009860D01*
X002089Y009860D01*
X002186Y009759D02*
X002380Y009759D01*
X002234Y009759D02*
X002234Y009566D01*
X002186Y009566D02*
X002380Y009566D01*
X002186Y009566D02*
X002089Y009662D01*
X002186Y009759D01*
X002089Y009465D02*
X002089Y009271D01*
X002089Y009368D02*
X002380Y009368D01*
X002380Y009170D02*
X002089Y008976D01*
X002089Y009170D02*
X002380Y008976D01*
X001599Y008927D02*
X001550Y008975D01*
X001502Y008975D01*
X001453Y008927D01*
X001453Y008782D01*
X001550Y008782D01*
X001599Y008830D01*
X001599Y008927D01*
X001453Y008782D02*
X001357Y008879D01*
X001308Y008975D01*
X001357Y008681D02*
X001308Y008632D01*
X001308Y008535D01*
X001357Y008487D01*
X001550Y008487D01*
X001599Y008535D01*
X001599Y008632D01*
X001550Y008681D01*
X004329Y007588D02*
X004329Y007394D01*
X004377Y007346D01*
X004474Y007346D01*
X004522Y007394D01*
X004624Y007346D02*
X004817Y007539D01*
X004817Y007588D01*
X004769Y007636D01*
X004672Y007636D01*
X004624Y007588D01*
X004522Y007588D02*
X004474Y007636D01*
X004377Y007636D01*
X004329Y007588D01*
X004624Y007346D02*
X004817Y007346D01*
X006305Y007362D02*
X006354Y007410D01*
X006451Y007410D01*
X006499Y007362D01*
X006499Y007217D01*
X006499Y007313D02*
X006596Y007410D01*
X006596Y007511D02*
X006305Y007511D01*
X006305Y007656D01*
X006354Y007705D01*
X006402Y007705D01*
X006451Y007656D01*
X006451Y007511D01*
X006596Y007511D02*
X006596Y007656D01*
X006547Y007705D01*
X006499Y007705D01*
X006451Y007656D01*
X006402Y007806D02*
X006305Y007903D01*
X006596Y007903D01*
X006596Y007999D02*
X006596Y007806D01*
X006305Y007362D02*
X006305Y007217D01*
X006596Y007217D01*
X012874Y000806D02*
X013014Y000843D01*
X013073Y000809D01*
X013123Y000622D01*
X013089Y000563D01*
X012949Y000525D01*
X012874Y000806D01*
X013171Y000835D02*
X013205Y000894D01*
X013298Y000919D01*
X013358Y000885D01*
X013370Y000838D01*
X013233Y000601D01*
X013420Y000652D01*
X015845Y002044D02*
X015941Y002044D01*
X015893Y002044D02*
X015893Y002334D01*
X015845Y002334D02*
X015941Y002334D01*
X016041Y002334D02*
X016186Y002334D01*
X016234Y002286D01*
X016234Y002189D01*
X016186Y002141D01*
X016041Y002141D01*
X016138Y002141D02*
X016234Y002044D01*
X016336Y002189D02*
X016529Y002189D01*
X016630Y002141D02*
X016775Y002141D01*
X016824Y002189D01*
X016824Y002286D01*
X016775Y002334D01*
X016630Y002334D01*
X016630Y002044D01*
X016727Y002141D02*
X016824Y002044D01*
X016925Y002044D02*
X017118Y002044D01*
X017220Y002093D02*
X017220Y002286D01*
X017268Y002334D01*
X017365Y002334D01*
X017413Y002286D01*
X017514Y002334D02*
X017514Y002044D01*
X017708Y002044D01*
X017809Y002044D02*
X017906Y002044D01*
X017857Y002044D02*
X017857Y002334D01*
X017809Y002334D02*
X017906Y002334D01*
X018005Y002334D02*
X018005Y002141D01*
X018102Y002044D01*
X018199Y002141D01*
X018199Y002334D01*
X018300Y002334D02*
X018300Y002044D01*
X018493Y002044D01*
X018595Y002044D02*
X018595Y002334D01*
X018740Y002334D01*
X018788Y002286D01*
X018788Y002189D01*
X018740Y002141D01*
X018595Y002141D01*
X018691Y002141D02*
X018788Y002044D01*
X018493Y002334D02*
X018300Y002334D01*
X018300Y002189D02*
X018397Y002189D01*
X017708Y002334D02*
X017514Y002334D01*
X017514Y002189D02*
X017611Y002189D01*
X017413Y002093D02*
X017365Y002044D01*
X017268Y002044D01*
X017220Y002093D01*
X017022Y002189D02*
X016925Y002189D01*
X016925Y002334D02*
X016925Y002044D01*
X016925Y002334D02*
X017118Y002334D01*
X017258Y003214D02*
X017355Y003214D01*
X017403Y003262D01*
X017504Y003214D02*
X017698Y003214D01*
X017601Y003214D02*
X017601Y003504D01*
X017504Y003407D01*
X017403Y003456D02*
X017355Y003504D01*
X017258Y003504D01*
X017209Y003456D01*
X017209Y003262D01*
X017258Y003214D01*
X017799Y003262D02*
X017847Y003214D01*
X017944Y003214D01*
X017992Y003262D01*
X017992Y003311D01*
X017944Y003359D01*
X017895Y003359D01*
X017944Y003359D02*
X017992Y003407D01*
X017992Y003456D01*
X017944Y003504D01*
X017847Y003504D01*
X017799Y003456D01*
X018513Y004769D02*
X018513Y004914D01*
X018562Y004962D01*
X018659Y004962D01*
X018707Y004914D01*
X018707Y004769D01*
X018707Y004865D02*
X018804Y004962D01*
X018804Y005063D02*
X018804Y005257D01*
X018804Y005160D02*
X018513Y005160D01*
X018610Y005063D01*
X018659Y005358D02*
X018610Y005455D01*
X018610Y005503D01*
X018659Y005551D01*
X018755Y005551D01*
X018804Y005503D01*
X018804Y005406D01*
X018755Y005358D01*
X018659Y005358D02*
X018513Y005358D01*
X018513Y005551D01*
X018513Y004769D02*
X018804Y004769D01*
X019264Y004362D02*
X019458Y004362D01*
X019555Y004266D01*
X019458Y004169D01*
X019264Y004169D01*
X019264Y004068D02*
X019264Y003874D01*
X019410Y003874D01*
X019361Y003971D01*
X019361Y004019D01*
X019410Y004068D01*
X019506Y004068D01*
X019555Y004019D01*
X019555Y003923D01*
X019506Y003874D01*
X019410Y003773D02*
X019410Y003580D01*
X019506Y003676D02*
X019313Y003676D01*
X020268Y003354D02*
X020268Y003160D01*
X020316Y003112D01*
X020413Y003112D01*
X020461Y003160D01*
X020562Y003112D02*
X020562Y003402D01*
X020756Y003112D01*
X020756Y003402D01*
X020857Y003257D02*
X021050Y003257D01*
X021002Y003112D02*
X021002Y003402D01*
X020857Y003257D01*
X020461Y003354D02*
X020413Y003402D01*
X020316Y003402D01*
X020268Y003354D01*
X016041Y002334D02*
X016041Y002044D01*
X014330Y006066D02*
X014040Y006066D01*
X014040Y006212D01*
X014088Y006260D01*
X014185Y006260D01*
X014233Y006212D01*
X014233Y006066D01*
X014233Y006163D02*
X014330Y006260D01*
X014330Y006361D02*
X014330Y006555D01*
X014330Y006458D02*
X014040Y006458D01*
X014136Y006361D01*
X014185Y006656D02*
X014185Y006849D01*
X014330Y006801D02*
X014040Y006801D01*
X014185Y006656D01*
X016245Y007765D02*
X016293Y007717D01*
X016390Y007717D01*
X016438Y007765D01*
X016539Y007717D02*
X016733Y007717D01*
X016636Y007717D02*
X016636Y008007D01*
X016539Y007910D01*
X016438Y007959D02*
X016390Y008007D01*
X016293Y008007D01*
X016245Y007959D01*
X016245Y007765D01*
X016834Y007765D02*
X016883Y007717D01*
X016979Y007717D01*
X017028Y007765D01*
X017028Y007814D01*
X016979Y007862D01*
X016834Y007862D01*
X016834Y007765D01*
X016834Y007862D02*
X016931Y007959D01*
X017028Y008007D01*
X017817Y009209D02*
X017768Y009258D01*
X017768Y009355D01*
X017817Y009403D01*
X017865Y009403D01*
X017913Y009355D01*
X017962Y009403D01*
X018010Y009403D01*
X018059Y009355D01*
X018059Y009258D01*
X018010Y009209D01*
X017913Y009306D02*
X017913Y009355D01*
X017913Y009504D02*
X017817Y009601D01*
X017768Y009698D01*
X017913Y009649D02*
X017913Y009504D01*
X018010Y009504D01*
X018059Y009553D01*
X018059Y009649D01*
X018010Y009698D01*
X017962Y009698D01*
X017913Y009649D01*
X017870Y015647D02*
X017773Y015744D01*
X018064Y015744D01*
X018064Y015647D02*
X018064Y015841D01*
X018207Y016517D02*
X018303Y016517D01*
X018255Y016517D02*
X018255Y016807D01*
X018207Y016807D02*
X018303Y016807D01*
X018403Y016758D02*
X018403Y016565D01*
X018452Y016517D01*
X018548Y016517D01*
X018597Y016565D01*
X018698Y016565D02*
X018746Y016517D01*
X018843Y016517D01*
X018891Y016565D01*
X018891Y016613D01*
X018843Y016662D01*
X018795Y016662D01*
X018843Y016662D02*
X018891Y016710D01*
X018891Y016758D01*
X018843Y016807D01*
X018746Y016807D01*
X018698Y016758D01*
X018597Y016758D02*
X018548Y016807D01*
X018452Y016807D01*
X018403Y016758D01*
X016100Y020158D02*
X015906Y020158D01*
X016003Y020158D02*
X016003Y020449D01*
X015906Y020352D01*
X015805Y020449D02*
X015805Y020158D01*
X015708Y020255D01*
X015612Y020158D01*
X015612Y020449D01*
X015510Y020400D02*
X015462Y020449D01*
X015365Y020449D01*
X015317Y020400D01*
X015317Y020352D01*
X015365Y020303D01*
X015462Y020303D01*
X015510Y020255D01*
X015510Y020207D01*
X015462Y020158D01*
X015365Y020158D01*
X015317Y020207D01*
X014588Y020195D02*
X014588Y020098D01*
X014539Y020050D01*
X014346Y020243D01*
X014539Y020243D01*
X014588Y020195D01*
X014539Y020050D02*
X014346Y020050D01*
X014298Y020098D01*
X014298Y020195D01*
X014346Y020243D01*
X014588Y019949D02*
X014588Y019755D01*
X014588Y019852D02*
X014298Y019852D01*
X014394Y019755D01*
X014346Y019654D02*
X014443Y019654D01*
X014491Y019606D01*
X014491Y019461D01*
X014491Y019557D02*
X014588Y019654D01*
X014588Y019461D02*
X014298Y019461D01*
X014298Y019606D01*
X014346Y019654D01*
X005826Y014557D02*
X005777Y014605D01*
X005584Y014605D01*
X005536Y014557D01*
X005536Y014460D01*
X005584Y014412D01*
X005632Y014412D01*
X005681Y014460D01*
X005681Y014605D01*
X005826Y014557D02*
X005826Y014460D01*
X005777Y014412D01*
X005777Y014311D02*
X005826Y014262D01*
X005826Y014165D01*
X005777Y014117D01*
X005584Y014117D01*
X005536Y014165D01*
X005536Y014262D01*
X005584Y014311D01*
X005471Y018771D02*
X005471Y018820D01*
X005665Y019013D01*
X005665Y019062D01*
X005471Y019062D01*
X005370Y019013D02*
X005370Y018917D01*
X005322Y018868D01*
X005176Y018868D01*
X005176Y018771D02*
X005176Y019062D01*
X005322Y019062D01*
X005370Y019013D01*
X005273Y018868D02*
X005370Y018771D01*
D12*
X003050Y017689D02*
X003050Y017189D01*
X002800Y016939D01*
X001300Y016939D01*
X001050Y016689D01*
X001050Y016189D01*
X001300Y015939D01*
X001050Y015689D01*
X001050Y015189D01*
X001300Y014939D01*
X002800Y014939D01*
X003050Y015189D01*
X003050Y015689D01*
X002800Y015939D01*
X001300Y015939D01*
X001300Y016939D02*
X001050Y017189D01*
X001050Y017689D01*
X001300Y017939D01*
X002800Y017939D01*
X003050Y017689D01*
X002800Y016939D02*
X003050Y016689D01*
X003050Y016189D01*
X002800Y015939D01*
X002643Y008387D02*
X001143Y008387D01*
X000893Y008137D01*
X000893Y007637D01*
X001143Y007387D01*
X002643Y007387D01*
X002893Y007137D01*
X002893Y006637D01*
X002643Y006387D01*
X001143Y006387D01*
X000893Y006137D01*
X000893Y005637D01*
X001143Y005387D01*
X002643Y005387D01*
X002893Y005137D01*
X002893Y004637D01*
X002643Y004387D01*
X002893Y004137D01*
X002893Y003637D01*
X002643Y003387D01*
X001143Y003387D01*
X000893Y003637D01*
X000893Y004137D01*
X001143Y004387D01*
X002643Y004387D01*
X002643Y005387D02*
X002893Y005637D01*
X002893Y006137D01*
X002643Y006387D01*
X002643Y007387D02*
X002893Y007637D01*
X002893Y008137D01*
X002643Y008387D01*
X001143Y007387D02*
X000893Y007137D01*
X000893Y006637D01*
X001143Y006387D01*
X001143Y005387D02*
X000893Y005137D01*
X000893Y004637D01*
X001143Y004387D01*
X014718Y004297D02*
X014931Y003870D01*
X015145Y004297D01*
X015362Y004297D02*
X015576Y004511D01*
X015576Y003870D01*
X015789Y003870D02*
X015362Y003870D01*
X016007Y003870D02*
X016114Y003870D01*
X016114Y003977D01*
X016007Y003977D01*
X016007Y003870D01*
X016329Y003870D02*
X016756Y003870D01*
X016543Y003870D02*
X016543Y004511D01*
X016329Y004297D01*
X016437Y004920D02*
X016650Y004920D01*
X016543Y004920D02*
X016543Y005347D01*
X016437Y005347D01*
X016543Y005561D02*
X016543Y005667D01*
X016866Y005347D02*
X017080Y005347D01*
X016973Y005454D02*
X016973Y005027D01*
X017080Y004920D01*
X016219Y004920D02*
X015899Y005240D01*
X015792Y005134D02*
X016219Y005561D01*
X015792Y005561D02*
X015792Y004920D01*
X015575Y004920D02*
X015361Y005134D01*
X015468Y005134D02*
X015575Y005240D01*
X015575Y005454D01*
X015468Y005561D01*
X015147Y005561D01*
X015147Y004920D01*
X015147Y005134D02*
X015468Y005134D01*
X014931Y004920D02*
X014718Y004920D01*
X014825Y004920D02*
X014825Y005561D01*
X014931Y005561D02*
X014718Y005561D01*
X019633Y005744D02*
X019633Y006244D01*
X019883Y006494D01*
X021383Y006494D01*
X021633Y006244D01*
X021633Y005744D01*
X021383Y005494D01*
X019883Y005494D01*
X019633Y005244D01*
X019633Y004744D01*
X019883Y004494D01*
X019633Y004244D01*
X019633Y003744D01*
X019883Y003494D01*
X021383Y003494D01*
X021633Y003744D01*
X021633Y004244D01*
X021383Y004494D01*
X019883Y004494D01*
X019883Y005494D02*
X019633Y005744D01*
X019883Y006494D02*
X019633Y006744D01*
X019633Y007244D01*
X019883Y007494D01*
X021383Y007494D01*
X021633Y007244D01*
X021633Y006744D01*
X021383Y006494D01*
X021383Y005494D02*
X021633Y005244D01*
X021633Y004744D01*
X021383Y004494D01*
X017824Y018398D02*
X017524Y018398D01*
X017524Y018498D01*
X017074Y018498D01*
X017074Y018598D01*
X016474Y018598D01*
X016474Y018498D01*
X016074Y018498D01*
X016074Y018398D02*
X015724Y018398D01*
X015724Y018498D01*
X015424Y018498D01*
X015424Y018698D01*
X015324Y018498D02*
X015326Y020025D01*
X018223Y020025D01*
X018224Y018498D01*
X018124Y018498D02*
X018124Y018698D01*
X018124Y018498D02*
X017824Y018498D01*
X017824Y018398D01*
X018124Y019298D02*
X018124Y019798D01*
X017024Y019798D01*
X016524Y019798D01*
X015424Y019798D01*
X015424Y019298D01*
X016274Y020025D02*
X016274Y021694D01*
X017274Y021694D01*
X017274Y020025D01*
X017024Y019798D02*
X017024Y019398D01*
X016524Y019398D01*
X016524Y019798D01*
D13*
X018152Y016399D02*
X021893Y016399D01*
X021893Y008761D01*
X018152Y008761D01*
X011617Y008761D02*
X010593Y008761D01*
X010593Y009313D01*
X009158Y002982D02*
X008797Y001636D01*
X008798Y001637D02*
X008824Y001575D01*
X008855Y001515D01*
X008889Y001456D01*
X008926Y001400D01*
X008967Y001346D01*
X009010Y001295D01*
X009056Y001246D01*
X009106Y001199D01*
X009157Y001156D01*
X009212Y001116D01*
X009268Y001079D01*
X009327Y001046D01*
X009387Y001016D01*
X009449Y000989D01*
X009512Y000966D01*
X009577Y000947D01*
X009643Y000931D01*
X009709Y000920D01*
X009776Y000912D01*
X009843Y000908D01*
X009911Y000909D01*
X009978Y000913D01*
X010045Y000921D01*
X010112Y000932D01*
X010177Y000948D01*
X010242Y000967D01*
X010305Y000991D01*
X010367Y001017D01*
X010427Y001048D01*
X010486Y001082D01*
X010542Y001119D01*
X010596Y001159D01*
X010648Y001202D01*
X010697Y001249D01*
X010743Y001298D01*
X010786Y001349D01*
X010826Y001404D01*
X010863Y001460D01*
X010897Y001518D01*
X010927Y001579D01*
X010954Y001641D01*
X010977Y001704D01*
X010996Y001769D01*
X011012Y001834D01*
X011024Y001901D01*
X011032Y001968D01*
X011035Y002035D01*
X011036Y002102D01*
X011032Y002170D01*
X011024Y002237D01*
X011012Y002303D01*
X010997Y002369D01*
X010977Y002433D01*
X010954Y002497D01*
X010928Y002559D01*
X010898Y002619D01*
X010864Y002677D01*
X010827Y002734D01*
X010787Y002788D01*
X010743Y002840D01*
X010697Y002889D01*
X010648Y002935D01*
X010597Y002979D01*
X010543Y003019D01*
X010486Y003056D01*
X010428Y003090D01*
X010368Y003120D01*
X010306Y003147D01*
X010243Y003170D01*
X010178Y003190D01*
X010112Y003205D01*
X010046Y003217D01*
X009979Y003225D01*
X009912Y003229D01*
X009844Y003230D01*
X009777Y003226D01*
X009710Y003218D01*
X009644Y003207D01*
X009578Y003191D01*
X009513Y003172D01*
X009450Y003149D01*
X009388Y003123D01*
X009327Y003093D01*
X009269Y003059D01*
X009212Y003022D01*
X009158Y002982D01*
X011651Y002501D02*
X012012Y001155D01*
X012012Y001156D02*
X012066Y001116D01*
X012123Y001079D01*
X012181Y001045D01*
X012242Y001015D01*
X012304Y000989D01*
X012367Y000966D01*
X012432Y000947D01*
X012498Y000931D01*
X012564Y000920D01*
X012631Y000912D01*
X012698Y000908D01*
X012766Y000909D01*
X012833Y000913D01*
X012900Y000921D01*
X012966Y000933D01*
X013032Y000948D01*
X013097Y000968D01*
X013160Y000991D01*
X013222Y001018D01*
X013282Y001048D01*
X013340Y001082D01*
X013397Y001119D01*
X013451Y001159D01*
X013502Y001203D01*
X013551Y001249D01*
X013597Y001298D01*
X013641Y001350D01*
X013681Y001404D01*
X013718Y001461D01*
X013752Y001519D01*
X013782Y001579D01*
X013808Y001641D01*
X013831Y001705D01*
X013851Y001769D01*
X013866Y001835D01*
X013878Y001901D01*
X013886Y001968D01*
X013890Y002036D01*
X013889Y002103D01*
X013886Y002170D01*
X013878Y002237D01*
X013866Y002304D01*
X013850Y002369D01*
X013831Y002434D01*
X013808Y002497D01*
X013781Y002559D01*
X013751Y002620D01*
X013717Y002678D01*
X013680Y002734D01*
X013640Y002789D01*
X013597Y002840D01*
X013551Y002889D01*
X013502Y002936D01*
X013450Y002979D01*
X013396Y003019D01*
X013340Y003056D01*
X013281Y003090D01*
X013221Y003121D01*
X013159Y003147D01*
X013096Y003171D01*
X013031Y003190D01*
X012966Y003206D01*
X012899Y003217D01*
X012832Y003225D01*
X012765Y003229D01*
X012697Y003230D01*
X012630Y003226D01*
X012563Y003218D01*
X012497Y003207D01*
X012431Y003191D01*
X012366Y003172D01*
X012303Y003149D01*
X012241Y003122D01*
X012181Y003092D01*
X012122Y003059D01*
X012066Y003022D01*
X012011Y002982D01*
X011960Y002939D01*
X011910Y002892D01*
X011864Y002843D01*
X011821Y002792D01*
X011780Y002738D01*
X011743Y002682D01*
X011709Y002623D01*
X011678Y002563D01*
X011652Y002501D01*
X016696Y001990D02*
X018900Y001990D01*
X018900Y001281D02*
X018900Y000848D01*
X018349Y000848D01*
X017168Y000848D01*
X016696Y000848D01*
X016696Y001281D01*
X017168Y000848D02*
X017170Y000800D01*
X017176Y000753D01*
X017185Y000707D01*
X017198Y000661D01*
X017215Y000616D01*
X017236Y000573D01*
X017259Y000532D01*
X017287Y000493D01*
X017317Y000456D01*
X017350Y000422D01*
X017385Y000390D01*
X017423Y000362D01*
X017464Y000336D01*
X017506Y000314D01*
X017549Y000295D01*
X017595Y000280D01*
X017641Y000269D01*
X017688Y000261D01*
X017735Y000257D01*
X017783Y000257D01*
X017830Y000261D01*
X017877Y000269D01*
X017923Y000280D01*
X017969Y000295D01*
X018012Y000314D01*
X018054Y000336D01*
X018095Y000362D01*
X018133Y000390D01*
X018168Y000422D01*
X018201Y000456D01*
X018231Y000493D01*
X018259Y000532D01*
X018282Y000573D01*
X018303Y000616D01*
X018320Y000661D01*
X018333Y000707D01*
X018342Y000753D01*
X018348Y000800D01*
X018350Y000848D01*
X005806Y000925D02*
X005806Y002425D01*
X005406Y002425D02*
X005406Y001675D01*
X004706Y001675D01*
X004706Y002425D01*
X005406Y002425D01*
X003822Y001675D02*
X003824Y001737D01*
X003830Y001800D01*
X003840Y001861D01*
X003854Y001922D01*
X003871Y001982D01*
X003892Y002041D01*
X003918Y002098D01*
X003946Y002153D01*
X003978Y002207D01*
X004014Y002258D01*
X004052Y002308D01*
X004094Y002354D01*
X004138Y002398D01*
X004186Y002439D01*
X004235Y002477D01*
X004287Y002511D01*
X004341Y002542D01*
X004397Y002570D01*
X004455Y002594D01*
X004514Y002615D01*
X004574Y002631D01*
X004635Y002644D01*
X004697Y002653D01*
X004759Y002658D01*
X004822Y002659D01*
X004884Y002656D01*
X004946Y002649D01*
X005008Y002638D01*
X005068Y002623D01*
X005128Y002605D01*
X005186Y002583D01*
X005243Y002557D01*
X005298Y002527D01*
X005351Y002494D01*
X005402Y002458D01*
X005450Y002419D01*
X005496Y002376D01*
X005539Y002331D01*
X005579Y002283D01*
X005616Y002233D01*
X005650Y002180D01*
X005681Y002126D01*
X005707Y002070D01*
X005731Y002012D01*
X005750Y001952D01*
X005766Y001892D01*
X005778Y001830D01*
X005786Y001769D01*
X005790Y001706D01*
X005790Y001644D01*
X005786Y001581D01*
X005778Y001520D01*
X005766Y001458D01*
X005750Y001398D01*
X005731Y001338D01*
X005707Y001280D01*
X005681Y001224D01*
X005650Y001170D01*
X005616Y001117D01*
X005579Y001067D01*
X005539Y001019D01*
X005496Y000974D01*
X005450Y000931D01*
X005402Y000892D01*
X005351Y000856D01*
X005298Y000823D01*
X005243Y000793D01*
X005186Y000767D01*
X005128Y000745D01*
X005068Y000727D01*
X005008Y000712D01*
X004946Y000701D01*
X004884Y000694D01*
X004822Y000691D01*
X004759Y000692D01*
X004697Y000697D01*
X004635Y000706D01*
X004574Y000719D01*
X004514Y000735D01*
X004455Y000756D01*
X004397Y000780D01*
X004341Y000808D01*
X004287Y000839D01*
X004235Y000873D01*
X004186Y000911D01*
X004138Y000952D01*
X004094Y000996D01*
X004052Y001042D01*
X004014Y001092D01*
X003978Y001143D01*
X003946Y001197D01*
X003918Y001252D01*
X003892Y001309D01*
X003871Y001368D01*
X003854Y001428D01*
X003840Y001489D01*
X003830Y001550D01*
X003824Y001613D01*
X003822Y001675D01*
X005806Y002425D02*
X005763Y002479D01*
X005717Y002531D01*
X005668Y002580D01*
X005616Y002627D01*
X005562Y002670D01*
X005506Y002711D01*
X005447Y002748D01*
X005387Y002782D01*
X005324Y002812D01*
X005261Y002839D01*
X005195Y002863D01*
X005129Y002883D01*
X005061Y002899D01*
X004993Y002911D01*
X004924Y002919D01*
X004855Y002924D01*
X004785Y002925D01*
X004716Y002922D01*
X004647Y002915D01*
X004579Y002904D01*
X004511Y002890D01*
X004444Y002871D01*
X004378Y002849D01*
X004313Y002824D01*
X004250Y002795D01*
X004189Y002762D01*
X004130Y002726D01*
X004073Y002687D01*
X004017Y002645D01*
X003965Y002600D01*
X003915Y002552D01*
X003868Y002501D01*
X003823Y002447D01*
X003782Y002392D01*
X003744Y002334D01*
X003709Y002274D01*
X003677Y002212D01*
X003649Y002149D01*
X003625Y002084D01*
X003604Y002018D01*
X003587Y001950D01*
X003573Y001882D01*
X003564Y001813D01*
X003558Y001744D01*
X003556Y001675D01*
X003558Y001606D01*
X003564Y001537D01*
X003573Y001468D01*
X003587Y001400D01*
X003604Y001332D01*
X003625Y001266D01*
X003649Y001201D01*
X003677Y001138D01*
X003709Y001076D01*
X003744Y001016D01*
X003782Y000958D01*
X003823Y000903D01*
X003868Y000849D01*
X003915Y000798D01*
X003965Y000750D01*
X004017Y000705D01*
X004073Y000663D01*
X004130Y000624D01*
X004189Y000588D01*
X004250Y000555D01*
X004313Y000526D01*
X004378Y000501D01*
X004444Y000479D01*
X004511Y000460D01*
X004579Y000446D01*
X004647Y000435D01*
X004716Y000428D01*
X004785Y000425D01*
X004855Y000426D01*
X004924Y000431D01*
X004993Y000439D01*
X005061Y000451D01*
X005129Y000467D01*
X005195Y000487D01*
X005261Y000511D01*
X005324Y000538D01*
X005387Y000568D01*
X005447Y000602D01*
X005506Y000639D01*
X005562Y000680D01*
X005616Y000723D01*
X005668Y000770D01*
X005717Y000819D01*
X005763Y000871D01*
X005806Y000925D01*
X001814Y010538D02*
X001578Y010538D01*
X001066Y010951D02*
X001066Y011109D01*
X001578Y011522D02*
X001814Y011522D01*
X002326Y011109D02*
X002326Y010951D01*
X010593Y015848D02*
X010593Y016399D01*
X011617Y016399D01*
X012638Y020300D02*
X012771Y020425D01*
X012638Y020550D01*
X012638Y020300D01*
X012638Y020325D02*
X012664Y020325D01*
X012638Y020373D02*
X012716Y020373D01*
X012768Y020422D02*
X012638Y020422D01*
X012638Y020470D02*
X012723Y020470D01*
X012671Y020519D02*
X012638Y020519D01*
X012771Y020550D02*
X012771Y020300D01*
D14*
X007726Y020379D02*
X007426Y020379D01*
X007426Y019679D01*
X007404Y019679D01*
X007726Y020379D02*
X007726Y021179D01*
X007426Y021179D01*
X007426Y021679D01*
X004626Y021679D01*
X004626Y021179D01*
X004326Y021179D01*
X004326Y020379D01*
X004626Y020379D01*
X004626Y019679D01*
X004648Y019679D01*
X006821Y012172D02*
X006823Y012192D01*
X006828Y012212D01*
X006838Y012230D01*
X006850Y012247D01*
X006865Y012261D01*
X006883Y012271D01*
X006902Y012279D01*
X006922Y012283D01*
X006942Y012283D01*
X006962Y012279D01*
X006981Y012271D01*
X006999Y012261D01*
X007014Y012247D01*
X007026Y012230D01*
X007036Y012212D01*
X007041Y012192D01*
X007043Y012172D01*
X007041Y012152D01*
X007036Y012132D01*
X007026Y012114D01*
X007014Y012097D01*
X006999Y012083D01*
X006981Y012073D01*
X006962Y012065D01*
X006942Y012061D01*
X006922Y012061D01*
X006902Y012065D01*
X006883Y012073D01*
X006865Y012083D01*
X006850Y012097D01*
X006838Y012114D01*
X006828Y012132D01*
X006823Y012152D01*
X006821Y012172D01*
X012538Y008062D02*
X012538Y007762D01*
X012538Y008062D02*
X012898Y008062D01*
X013058Y007622D02*
X013058Y007382D01*
X012898Y006942D02*
X012538Y006942D01*
X012538Y007242D01*
D15*
X007247Y008865D02*
X007089Y008707D01*
X003625Y008707D01*
X003467Y008865D01*
X003467Y012329D01*
X003625Y012487D01*
X007089Y012487D01*
X007247Y012329D01*
X007247Y008865D01*
X008574Y016051D02*
X008912Y016051D01*
X009062Y016505D02*
X009062Y016716D01*
X008912Y017171D02*
X008574Y017171D01*
D16*
X008664Y019037D02*
X008231Y019470D01*
X008231Y020691D01*
X008723Y020691D01*
X009393Y020691D02*
X009885Y020691D01*
X009885Y019470D01*
X009452Y019037D01*
X008723Y019175D02*
X008675Y019201D01*
X008628Y019230D01*
X008583Y019263D01*
X008541Y019299D01*
X008502Y019338D01*
X008465Y019379D01*
X008432Y019423D01*
X008401Y019469D01*
X008375Y019518D01*
X008352Y019568D01*
X008332Y019620D01*
X008316Y019673D01*
X008304Y019727D01*
X008296Y019781D01*
X008292Y019836D01*
X008292Y019892D01*
X008296Y019947D01*
X008304Y020001D01*
X008316Y020055D01*
X008332Y020108D01*
X008352Y020160D01*
X008375Y020210D01*
X008401Y020259D01*
X008432Y020305D01*
X008465Y020349D01*
X008502Y020390D01*
X008541Y020429D01*
X008583Y020465D01*
X008628Y020498D01*
X008675Y020527D01*
X008723Y020553D01*
X009393Y020553D02*
X009441Y020527D01*
X009488Y020498D01*
X009533Y020465D01*
X009575Y020429D01*
X009614Y020390D01*
X009651Y020349D01*
X009684Y020305D01*
X009715Y020259D01*
X009741Y020210D01*
X009764Y020160D01*
X009784Y020108D01*
X009800Y020055D01*
X009812Y020001D01*
X009820Y019947D01*
X009824Y019892D01*
X009824Y019836D01*
X009820Y019781D01*
X009812Y019727D01*
X009800Y019673D01*
X009784Y019620D01*
X009764Y019568D01*
X009741Y019518D01*
X009715Y019469D01*
X009684Y019423D01*
X009651Y019379D01*
X009614Y019338D01*
X009575Y019299D01*
X009533Y019263D01*
X009488Y019230D01*
X009441Y019201D01*
X009393Y019175D01*
D17*
X007626Y021349D02*
X003126Y021349D01*
D18*
X013383Y005718D03*
X013383Y005691D03*
X013383Y005663D03*
X013383Y005635D03*
X013383Y005608D03*
X013383Y005580D03*
X013383Y005553D03*
X013383Y005525D03*
X013383Y005498D03*
X013383Y005470D03*
X013383Y003954D03*
X013383Y003927D03*
X013383Y003899D03*
X013383Y003872D03*
X013383Y003844D03*
X013383Y003817D03*
X013383Y003789D03*
X013383Y003761D03*
D19*
X013052Y003982D03*
D20*
X014058Y003982D03*
X014058Y005387D03*
X014058Y005415D03*
D21*
X013024Y004009D03*
D22*
X014072Y004009D03*
X014072Y004037D03*
X014072Y005332D03*
X014072Y005360D03*
X012694Y005112D03*
D23*
X012997Y004037D03*
D24*
X012983Y004065D03*
X012983Y005415D03*
D25*
X012680Y004368D03*
X014085Y004120D03*
X014085Y004092D03*
X014085Y004065D03*
X014085Y005250D03*
X014085Y005277D03*
X014085Y005305D03*
D26*
X012969Y005305D03*
X012969Y005332D03*
X012969Y004147D03*
X012969Y004120D03*
X012969Y004092D03*
D27*
X012666Y005084D03*
X014099Y005167D03*
X014099Y005194D03*
X014099Y005222D03*
X014099Y004202D03*
X014099Y004175D03*
X014099Y004147D03*
D28*
X012887Y004175D03*
D29*
X013162Y004395D03*
X013217Y004561D03*
X013217Y004588D03*
X013217Y004616D03*
X013217Y004643D03*
X013217Y004671D03*
X013217Y004698D03*
X013217Y004726D03*
X013217Y004754D03*
X013217Y004781D03*
X013217Y004809D03*
X013217Y004836D03*
X013217Y004864D03*
X013217Y004891D03*
X013217Y004919D03*
X013190Y005002D03*
X013162Y005057D03*
X013603Y004891D03*
X013603Y004864D03*
X013603Y004836D03*
X013603Y004809D03*
X013603Y004781D03*
X013603Y004754D03*
X013603Y004726D03*
X013603Y004698D03*
X013603Y004671D03*
X013603Y004643D03*
X013603Y004616D03*
X013603Y004588D03*
X013603Y004561D03*
X013548Y004313D03*
X013520Y004257D03*
X013520Y004230D03*
X013493Y004175D03*
D30*
X012845Y004202D03*
D31*
X013507Y004202D03*
D32*
X012831Y004230D03*
X012831Y005250D03*
D33*
X012652Y004891D03*
X012652Y004864D03*
X012652Y004836D03*
X012652Y004809D03*
X012652Y004781D03*
X012652Y004754D03*
X012652Y004726D03*
X012652Y004698D03*
X012652Y004671D03*
X012652Y004643D03*
X012652Y004616D03*
X012652Y004588D03*
X012652Y004561D03*
X012652Y004395D03*
X014113Y004368D03*
X014113Y004340D03*
X014113Y004313D03*
X014113Y004285D03*
X014113Y004257D03*
X014113Y004230D03*
X014113Y005057D03*
X014113Y005084D03*
X014113Y005112D03*
X014113Y005139D03*
D34*
X012804Y005139D03*
X012804Y005222D03*
X012804Y004313D03*
X012804Y004257D03*
D35*
X012790Y004285D03*
X012790Y005167D03*
X012790Y005194D03*
D36*
X013148Y005084D03*
X013176Y005029D03*
X013204Y004974D03*
X013204Y004946D03*
X013562Y005029D03*
X013562Y005057D03*
X013562Y005084D03*
X013534Y005112D03*
X013534Y005139D03*
X013534Y005167D03*
X013507Y005222D03*
X013589Y005002D03*
X013589Y004974D03*
X013589Y004946D03*
X013589Y004919D03*
X013589Y004533D03*
X013589Y004506D03*
X013589Y004478D03*
X013589Y004450D03*
X013562Y004395D03*
X013562Y004368D03*
X013562Y004340D03*
X013534Y004285D03*
X013204Y004478D03*
X013204Y004506D03*
X013204Y004533D03*
X013176Y004450D03*
X013176Y004423D03*
X013148Y004368D03*
D37*
X012818Y004340D03*
D38*
X012639Y004423D03*
X012639Y004506D03*
X012639Y004533D03*
X012639Y004919D03*
X012639Y004946D03*
X012639Y005057D03*
X014127Y005029D03*
X014127Y005002D03*
X014127Y004974D03*
X014127Y004946D03*
X014127Y004919D03*
X014127Y004533D03*
X014127Y004506D03*
X014127Y004478D03*
X014127Y004450D03*
X014127Y004423D03*
X014127Y004395D03*
D39*
X013576Y004423D03*
X013520Y005194D03*
X013493Y005250D03*
X013465Y005277D03*
X013135Y005112D03*
D40*
X012625Y005029D03*
X012625Y005002D03*
X012625Y004974D03*
X012625Y004478D03*
X012625Y004450D03*
X014141Y004561D03*
X014141Y004588D03*
X014141Y004616D03*
X014141Y004643D03*
X014141Y004671D03*
X014141Y004698D03*
X014141Y004726D03*
X014141Y004754D03*
X014141Y004781D03*
X014141Y004809D03*
X014141Y004836D03*
X014141Y004864D03*
X014141Y004891D03*
D41*
X012859Y005277D03*
D42*
X012956Y005360D03*
X012956Y005387D03*
D43*
X013011Y005443D03*
D44*
X014044Y005443D03*
M02*
