G75*
%MOIN*%
%OFA0B0*%
%FSLAX24Y24*%
%IPPOS*%
%LPD*%
%AMOC8*
5,1,8,0,0,1.08239X$1,22.5*
%
%ADD10C,0.0000*%
%ADD11R,0.0670X0.0552*%
%ADD12R,0.0552X0.0670*%
%ADD13R,0.0591X0.0434*%
%ADD14C,0.1340*%
%ADD15OC8,0.0640*%
%ADD16C,0.0476*%
%ADD17C,0.0555*%
%ADD18R,0.0512X0.0394*%
%ADD19C,0.0700*%
%ADD20OC8,0.0700*%
%ADD21R,0.0355X0.0670*%
%ADD22R,0.0670X0.0355*%
%ADD23R,0.0512X0.0257*%
%ADD24R,0.0591X0.0906*%
%ADD25C,0.0174*%
%ADD26C,0.0434*%
%ADD27C,0.0020*%
%ADD28C,0.0130*%
%ADD29C,0.0352*%
%ADD30C,0.0064*%
%ADD31R,0.0788X0.1379*%
%ADD32R,0.0552X0.0453*%
%ADD33C,0.0634*%
%ADD34C,0.0814*%
%ADD35R,0.1103X0.0670*%
%ADD36R,0.0434X0.0434*%
D10*
X001991Y002069D02*
X001993Y002119D01*
X001999Y002169D01*
X002009Y002219D01*
X002022Y002267D01*
X002039Y002315D01*
X002060Y002361D01*
X002084Y002405D01*
X002112Y002447D01*
X002143Y002487D01*
X002177Y002524D01*
X002214Y002559D01*
X002253Y002590D01*
X002294Y002619D01*
X002338Y002644D01*
X002384Y002666D01*
X002431Y002684D01*
X002479Y002698D01*
X002528Y002709D01*
X002578Y002716D01*
X002628Y002719D01*
X002679Y002718D01*
X002729Y002713D01*
X002779Y002704D01*
X002827Y002692D01*
X002875Y002675D01*
X002921Y002655D01*
X002966Y002632D01*
X003009Y002605D01*
X003049Y002575D01*
X003087Y002542D01*
X003122Y002506D01*
X003155Y002467D01*
X003184Y002426D01*
X003210Y002383D01*
X003233Y002338D01*
X003252Y002291D01*
X003267Y002243D01*
X003279Y002194D01*
X003287Y002144D01*
X003291Y002094D01*
X003291Y002044D01*
X003287Y001994D01*
X003279Y001944D01*
X003267Y001895D01*
X003252Y001847D01*
X003233Y001800D01*
X003210Y001755D01*
X003184Y001712D01*
X003155Y001671D01*
X003122Y001632D01*
X003087Y001596D01*
X003049Y001563D01*
X003009Y001533D01*
X002966Y001506D01*
X002921Y001483D01*
X002875Y001463D01*
X002827Y001446D01*
X002779Y001434D01*
X002729Y001425D01*
X002679Y001420D01*
X002628Y001419D01*
X002578Y001422D01*
X002528Y001429D01*
X002479Y001440D01*
X002431Y001454D01*
X002384Y001472D01*
X002338Y001494D01*
X002294Y001519D01*
X002253Y001548D01*
X002214Y001579D01*
X002177Y001614D01*
X002143Y001651D01*
X002112Y001691D01*
X002084Y001733D01*
X002060Y001777D01*
X002039Y001823D01*
X002022Y001871D01*
X002009Y001919D01*
X001999Y001969D01*
X001993Y002019D01*
X001991Y002069D01*
X000672Y003250D02*
X000672Y018210D01*
X001991Y019391D02*
X001993Y019441D01*
X001999Y019491D01*
X002009Y019541D01*
X002022Y019589D01*
X002039Y019637D01*
X002060Y019683D01*
X002084Y019727D01*
X002112Y019769D01*
X002143Y019809D01*
X002177Y019846D01*
X002214Y019881D01*
X002253Y019912D01*
X002294Y019941D01*
X002338Y019966D01*
X002384Y019988D01*
X002431Y020006D01*
X002479Y020020D01*
X002528Y020031D01*
X002578Y020038D01*
X002628Y020041D01*
X002679Y020040D01*
X002729Y020035D01*
X002779Y020026D01*
X002827Y020014D01*
X002875Y019997D01*
X002921Y019977D01*
X002966Y019954D01*
X003009Y019927D01*
X003049Y019897D01*
X003087Y019864D01*
X003122Y019828D01*
X003155Y019789D01*
X003184Y019748D01*
X003210Y019705D01*
X003233Y019660D01*
X003252Y019613D01*
X003267Y019565D01*
X003279Y019516D01*
X003287Y019466D01*
X003291Y019416D01*
X003291Y019366D01*
X003287Y019316D01*
X003279Y019266D01*
X003267Y019217D01*
X003252Y019169D01*
X003233Y019122D01*
X003210Y019077D01*
X003184Y019034D01*
X003155Y018993D01*
X003122Y018954D01*
X003087Y018918D01*
X003049Y018885D01*
X003009Y018855D01*
X002966Y018828D01*
X002921Y018805D01*
X002875Y018785D01*
X002827Y018768D01*
X002779Y018756D01*
X002729Y018747D01*
X002679Y018742D01*
X002628Y018741D01*
X002578Y018744D01*
X002528Y018751D01*
X002479Y018762D01*
X002431Y018776D01*
X002384Y018794D01*
X002338Y018816D01*
X002294Y018841D01*
X002253Y018870D01*
X002214Y018901D01*
X002177Y018936D01*
X002143Y018973D01*
X002112Y019013D01*
X002084Y019055D01*
X002060Y019099D01*
X002039Y019145D01*
X002022Y019193D01*
X002009Y019241D01*
X001999Y019291D01*
X001993Y019341D01*
X001991Y019391D01*
X000672Y018211D02*
X000687Y018326D01*
X000705Y018442D01*
X000727Y018556D01*
X000754Y018670D01*
X000783Y018783D01*
X000817Y018894D01*
X000854Y019005D01*
X000894Y019114D01*
X000939Y019222D01*
X000986Y019329D01*
X001038Y019434D01*
X001092Y019537D01*
X001150Y019638D01*
X001211Y019737D01*
X001276Y019834D01*
X001343Y019930D01*
X001414Y020022D01*
X001488Y020113D01*
X001564Y020201D01*
X001644Y020286D01*
X001726Y020369D01*
X001811Y020449D01*
X001898Y020526D01*
X001988Y020601D01*
X002080Y020672D01*
X002175Y020740D01*
X002272Y020806D01*
X002370Y020868D01*
X002471Y020926D01*
X002574Y020982D01*
X002678Y021034D01*
X002784Y021082D01*
X002892Y021127D01*
X003001Y021169D01*
X003111Y021207D01*
X003223Y021241D01*
X003335Y021272D01*
X003449Y021299D01*
X003563Y021322D01*
X003678Y021341D01*
X003794Y021357D01*
X003910Y021369D01*
X004026Y021377D01*
X004143Y021381D01*
X004259Y021382D01*
X004376Y021378D01*
X004493Y021371D01*
X004609Y021360D01*
X018782Y021360D01*
X019313Y019391D02*
X019315Y019441D01*
X019321Y019491D01*
X019331Y019541D01*
X019344Y019589D01*
X019361Y019637D01*
X019382Y019683D01*
X019406Y019727D01*
X019434Y019769D01*
X019465Y019809D01*
X019499Y019846D01*
X019536Y019881D01*
X019575Y019912D01*
X019616Y019941D01*
X019660Y019966D01*
X019706Y019988D01*
X019753Y020006D01*
X019801Y020020D01*
X019850Y020031D01*
X019900Y020038D01*
X019950Y020041D01*
X020001Y020040D01*
X020051Y020035D01*
X020101Y020026D01*
X020149Y020014D01*
X020197Y019997D01*
X020243Y019977D01*
X020288Y019954D01*
X020331Y019927D01*
X020371Y019897D01*
X020409Y019864D01*
X020444Y019828D01*
X020477Y019789D01*
X020506Y019748D01*
X020532Y019705D01*
X020555Y019660D01*
X020574Y019613D01*
X020589Y019565D01*
X020601Y019516D01*
X020609Y019466D01*
X020613Y019416D01*
X020613Y019366D01*
X020609Y019316D01*
X020601Y019266D01*
X020589Y019217D01*
X020574Y019169D01*
X020555Y019122D01*
X020532Y019077D01*
X020506Y019034D01*
X020477Y018993D01*
X020444Y018954D01*
X020409Y018918D01*
X020371Y018885D01*
X020331Y018855D01*
X020288Y018828D01*
X020243Y018805D01*
X020197Y018785D01*
X020149Y018768D01*
X020101Y018756D01*
X020051Y018747D01*
X020001Y018742D01*
X019950Y018741D01*
X019900Y018744D01*
X019850Y018751D01*
X019801Y018762D01*
X019753Y018776D01*
X019706Y018794D01*
X019660Y018816D01*
X019616Y018841D01*
X019575Y018870D01*
X019536Y018901D01*
X019499Y018936D01*
X019465Y018973D01*
X019434Y019013D01*
X019406Y019055D01*
X019382Y019099D01*
X019361Y019145D01*
X019344Y019193D01*
X019331Y019241D01*
X019321Y019291D01*
X019315Y019341D01*
X019313Y019391D01*
X018782Y021360D02*
X018892Y021358D01*
X019002Y021352D01*
X019111Y021343D01*
X019220Y021329D01*
X019329Y021312D01*
X019437Y021291D01*
X019544Y021266D01*
X019650Y021238D01*
X019755Y021206D01*
X019859Y021170D01*
X019962Y021131D01*
X020063Y021088D01*
X020163Y021041D01*
X020261Y020991D01*
X020357Y020938D01*
X020451Y020881D01*
X020543Y020821D01*
X020634Y020758D01*
X020721Y020692D01*
X020807Y020623D01*
X020890Y020551D01*
X020970Y020476D01*
X021048Y020398D01*
X021123Y020318D01*
X021195Y020235D01*
X021264Y020149D01*
X021330Y020062D01*
X021393Y019971D01*
X021453Y019879D01*
X021510Y019785D01*
X021563Y019689D01*
X021613Y019591D01*
X021660Y019491D01*
X021703Y019390D01*
X021742Y019287D01*
X021778Y019183D01*
X021810Y019078D01*
X021838Y018972D01*
X021863Y018865D01*
X021884Y018757D01*
X021901Y018648D01*
X021915Y018539D01*
X021924Y018430D01*
X021930Y018320D01*
X021932Y018210D01*
X021932Y003250D01*
X019313Y002069D02*
X019315Y002119D01*
X019321Y002169D01*
X019331Y002219D01*
X019344Y002267D01*
X019361Y002315D01*
X019382Y002361D01*
X019406Y002405D01*
X019434Y002447D01*
X019465Y002487D01*
X019499Y002524D01*
X019536Y002559D01*
X019575Y002590D01*
X019616Y002619D01*
X019660Y002644D01*
X019706Y002666D01*
X019753Y002684D01*
X019801Y002698D01*
X019850Y002709D01*
X019900Y002716D01*
X019950Y002719D01*
X020001Y002718D01*
X020051Y002713D01*
X020101Y002704D01*
X020149Y002692D01*
X020197Y002675D01*
X020243Y002655D01*
X020288Y002632D01*
X020331Y002605D01*
X020371Y002575D01*
X020409Y002542D01*
X020444Y002506D01*
X020477Y002467D01*
X020506Y002426D01*
X020532Y002383D01*
X020555Y002338D01*
X020574Y002291D01*
X020589Y002243D01*
X020601Y002194D01*
X020609Y002144D01*
X020613Y002094D01*
X020613Y002044D01*
X020609Y001994D01*
X020601Y001944D01*
X020589Y001895D01*
X020574Y001847D01*
X020555Y001800D01*
X020532Y001755D01*
X020506Y001712D01*
X020477Y001671D01*
X020444Y001632D01*
X020409Y001596D01*
X020371Y001563D01*
X020331Y001533D01*
X020288Y001506D01*
X020243Y001483D01*
X020197Y001463D01*
X020149Y001446D01*
X020101Y001434D01*
X020051Y001425D01*
X020001Y001420D01*
X019950Y001419D01*
X019900Y001422D01*
X019850Y001429D01*
X019801Y001440D01*
X019753Y001454D01*
X019706Y001472D01*
X019660Y001494D01*
X019616Y001519D01*
X019575Y001548D01*
X019536Y001579D01*
X019499Y001614D01*
X019465Y001651D01*
X019434Y001691D01*
X019406Y001733D01*
X019382Y001777D01*
X019361Y001823D01*
X019344Y001871D01*
X019331Y001919D01*
X019321Y001969D01*
X019315Y002019D01*
X019313Y002069D01*
X018782Y000100D02*
X018892Y000102D01*
X019002Y000108D01*
X019111Y000117D01*
X019220Y000131D01*
X019329Y000148D01*
X019437Y000169D01*
X019544Y000194D01*
X019650Y000222D01*
X019755Y000254D01*
X019859Y000290D01*
X019962Y000329D01*
X020063Y000372D01*
X020163Y000419D01*
X020261Y000469D01*
X020357Y000522D01*
X020451Y000579D01*
X020543Y000639D01*
X020634Y000702D01*
X020721Y000768D01*
X020807Y000837D01*
X020890Y000909D01*
X020970Y000984D01*
X021048Y001062D01*
X021123Y001142D01*
X021195Y001225D01*
X021264Y001311D01*
X021330Y001398D01*
X021393Y001489D01*
X021453Y001581D01*
X021510Y001675D01*
X021563Y001771D01*
X021613Y001869D01*
X021660Y001969D01*
X021703Y002070D01*
X021742Y002173D01*
X021778Y002277D01*
X021810Y002382D01*
X021838Y002488D01*
X021863Y002595D01*
X021884Y002703D01*
X021901Y002812D01*
X021915Y002921D01*
X021924Y003030D01*
X021930Y003140D01*
X021932Y003250D01*
X018782Y000100D02*
X003822Y000100D01*
X003712Y000102D01*
X003602Y000108D01*
X003493Y000117D01*
X003384Y000131D01*
X003275Y000148D01*
X003167Y000169D01*
X003060Y000194D01*
X002954Y000222D01*
X002849Y000254D01*
X002745Y000290D01*
X002642Y000329D01*
X002541Y000372D01*
X002441Y000419D01*
X002343Y000469D01*
X002247Y000522D01*
X002153Y000579D01*
X002061Y000639D01*
X001970Y000702D01*
X001883Y000768D01*
X001797Y000837D01*
X001714Y000909D01*
X001634Y000984D01*
X001556Y001062D01*
X001481Y001142D01*
X001409Y001225D01*
X001340Y001311D01*
X001274Y001398D01*
X001211Y001489D01*
X001151Y001581D01*
X001094Y001675D01*
X001041Y001771D01*
X000991Y001869D01*
X000944Y001969D01*
X000901Y002070D01*
X000862Y002173D01*
X000826Y002277D01*
X000794Y002382D01*
X000766Y002488D01*
X000741Y002595D01*
X000720Y002703D01*
X000703Y002812D01*
X000689Y002921D01*
X000680Y003030D01*
X000674Y003140D01*
X000672Y003250D01*
D11*
X004058Y003269D03*
X004058Y004057D03*
X005081Y004057D03*
X005081Y003269D03*
X006125Y003269D03*
X006125Y004057D03*
X006381Y006084D03*
X006381Y006872D03*
X008270Y007344D03*
X008270Y008131D03*
X009845Y009076D03*
X009845Y009864D03*
X008389Y011084D03*
X008389Y011872D03*
X008270Y012738D03*
X008270Y013525D03*
X009791Y012423D03*
X009791Y011635D03*
X011538Y007423D03*
X011538Y006635D03*
X014058Y007187D03*
X014058Y007974D03*
X018549Y004424D03*
X018549Y003636D03*
X005396Y015100D03*
X005160Y014431D03*
X005160Y013643D03*
X005396Y015887D03*
X004885Y017566D03*
X004885Y018353D03*
X005908Y018353D03*
X005908Y017566D03*
X002818Y013860D03*
X002818Y013072D03*
X001317Y010061D03*
X001317Y009273D03*
X010513Y019656D03*
X010513Y020444D03*
X011519Y020444D03*
X011519Y019657D03*
X014333Y019116D03*
X014333Y018328D03*
D12*
X013704Y017201D03*
X012916Y017201D03*
X013098Y020425D03*
X012311Y020425D03*
X007522Y014273D03*
X006735Y014273D03*
X002050Y014480D03*
X001263Y014480D03*
X001263Y012093D03*
X002050Y012093D03*
X003236Y007561D03*
X004023Y007561D03*
X007168Y006188D03*
X007956Y006188D03*
X010515Y008328D03*
X011302Y008328D03*
X017326Y007949D03*
X018113Y007949D03*
X017778Y002836D03*
X018566Y002836D03*
D13*
X007680Y005061D03*
X006735Y005435D03*
X006735Y004687D03*
D14*
X002641Y002069D03*
X002641Y019391D03*
X019963Y019391D03*
X019963Y002069D03*
D15*
X020133Y003994D03*
X021133Y003994D03*
X021133Y004994D03*
X020133Y004994D03*
X020133Y005994D03*
X021133Y005994D03*
X021133Y006994D03*
X020133Y006994D03*
X002550Y015439D03*
X001550Y015439D03*
X001550Y016439D03*
X001550Y017439D03*
X002550Y017439D03*
X002550Y016439D03*
X002393Y007887D03*
X001393Y007887D03*
X001393Y006887D03*
X002393Y006887D03*
X002393Y005887D03*
X002393Y004887D03*
X001393Y004887D03*
X001393Y005887D03*
X001393Y003887D03*
X002393Y003887D03*
D16*
X016798Y001675D03*
X017798Y001675D03*
X018798Y001675D03*
D17*
X013212Y002198D03*
X012246Y001939D03*
X010358Y001939D03*
X009392Y002198D03*
D18*
X013270Y007128D03*
X013270Y007876D03*
X012326Y007502D03*
D19*
X005656Y001294D03*
X004456Y001294D03*
X003956Y002056D03*
D20*
X005056Y002056D03*
D21*
X011853Y008761D03*
X012404Y008761D03*
X012956Y008761D03*
X013507Y008761D03*
X014058Y008761D03*
X014609Y008761D03*
X015160Y008761D03*
X015711Y008761D03*
X016263Y008761D03*
X016814Y008761D03*
X017365Y008761D03*
X017916Y008761D03*
X017916Y016399D03*
X017365Y016399D03*
X016814Y016399D03*
X016263Y016399D03*
X015711Y016399D03*
X015160Y016399D03*
X014609Y016399D03*
X014058Y016399D03*
X013507Y016399D03*
X012956Y016399D03*
X012404Y016399D03*
X011853Y016399D03*
D22*
X010593Y015612D03*
X010593Y015061D03*
X010593Y014509D03*
X010593Y013958D03*
X010593Y013407D03*
X010593Y012856D03*
X010593Y012305D03*
X010593Y011754D03*
X010593Y011202D03*
X010593Y010651D03*
X010593Y010100D03*
X010593Y009549D03*
D23*
X009255Y016237D03*
X009255Y016985D03*
X008231Y016985D03*
X008231Y016611D03*
X008231Y016237D03*
D24*
X009058Y019234D03*
X009058Y020494D03*
D25*
X006911Y013089D02*
X006911Y012673D01*
X006911Y013089D02*
X006953Y013089D01*
X006953Y012673D01*
X006911Y012673D01*
X006911Y012846D02*
X006953Y012846D01*
X006953Y013019D02*
X006911Y013019D01*
X006596Y013089D02*
X006596Y012673D01*
X006596Y013089D02*
X006638Y013089D01*
X006638Y012673D01*
X006596Y012673D01*
X006596Y012846D02*
X006638Y012846D01*
X006638Y013019D02*
X006596Y013019D01*
X006281Y013089D02*
X006281Y012673D01*
X006281Y013089D02*
X006323Y013089D01*
X006323Y012673D01*
X006281Y012673D01*
X006281Y012846D02*
X006323Y012846D01*
X006323Y013019D02*
X006281Y013019D01*
X005966Y013089D02*
X005966Y012673D01*
X005966Y013089D02*
X006008Y013089D01*
X006008Y012673D01*
X005966Y012673D01*
X005966Y012846D02*
X006008Y012846D01*
X006008Y013019D02*
X005966Y013019D01*
X005651Y013089D02*
X005651Y012673D01*
X005651Y013089D02*
X005693Y013089D01*
X005693Y012673D01*
X005651Y012673D01*
X005651Y012846D02*
X005693Y012846D01*
X005693Y013019D02*
X005651Y013019D01*
X005336Y013089D02*
X005336Y012673D01*
X005336Y013089D02*
X005378Y013089D01*
X005378Y012673D01*
X005336Y012673D01*
X005336Y012846D02*
X005378Y012846D01*
X005378Y013019D02*
X005336Y013019D01*
X005021Y013089D02*
X005021Y012673D01*
X005021Y013089D02*
X005063Y013089D01*
X005063Y012673D01*
X005021Y012673D01*
X005021Y012846D02*
X005063Y012846D01*
X005063Y013019D02*
X005021Y013019D01*
X004706Y013089D02*
X004706Y012673D01*
X004706Y013089D02*
X004748Y013089D01*
X004748Y012673D01*
X004706Y012673D01*
X004706Y012846D02*
X004748Y012846D01*
X004748Y013019D02*
X004706Y013019D01*
X004391Y013089D02*
X004391Y012673D01*
X004391Y013089D02*
X004433Y013089D01*
X004433Y012673D01*
X004391Y012673D01*
X004391Y012846D02*
X004433Y012846D01*
X004433Y013019D02*
X004391Y013019D01*
X004076Y013089D02*
X004076Y012673D01*
X004076Y013089D02*
X004118Y013089D01*
X004118Y012673D01*
X004076Y012673D01*
X004076Y012846D02*
X004118Y012846D01*
X004118Y013019D02*
X004076Y013019D01*
X003761Y013089D02*
X003761Y012673D01*
X003761Y013089D02*
X003803Y013089D01*
X003803Y012673D01*
X003761Y012673D01*
X003761Y012846D02*
X003803Y012846D01*
X003803Y013019D02*
X003761Y013019D01*
X002866Y012193D02*
X002866Y012151D01*
X002866Y012193D02*
X003282Y012193D01*
X003282Y012151D01*
X002866Y012151D01*
X002866Y011878D02*
X002866Y011836D01*
X002866Y011878D02*
X003282Y011878D01*
X003282Y011836D01*
X002866Y011836D01*
X002866Y011563D02*
X002866Y011521D01*
X002866Y011563D02*
X003282Y011563D01*
X003282Y011521D01*
X002866Y011521D01*
X002866Y011248D02*
X002866Y011206D01*
X002866Y011248D02*
X003282Y011248D01*
X003282Y011206D01*
X002866Y011206D01*
X002866Y010933D02*
X002866Y010891D01*
X002866Y010933D02*
X003282Y010933D01*
X003282Y010891D01*
X002866Y010891D01*
X002866Y010618D02*
X002866Y010576D01*
X002866Y010618D02*
X003282Y010618D01*
X003282Y010576D01*
X002866Y010576D01*
X002866Y010303D02*
X002866Y010261D01*
X002866Y010303D02*
X003282Y010303D01*
X003282Y010261D01*
X002866Y010261D01*
X002866Y009988D02*
X002866Y009946D01*
X002866Y009988D02*
X003282Y009988D01*
X003282Y009946D01*
X002866Y009946D01*
X002866Y009673D02*
X002866Y009631D01*
X002866Y009673D02*
X003282Y009673D01*
X003282Y009631D01*
X002866Y009631D01*
X002866Y009358D02*
X002866Y009316D01*
X002866Y009358D02*
X003282Y009358D01*
X003282Y009316D01*
X002866Y009316D01*
X002866Y009043D02*
X002866Y009001D01*
X002866Y009043D02*
X003282Y009043D01*
X003282Y009001D01*
X002866Y009001D01*
X003761Y008522D02*
X003761Y008106D01*
X003761Y008522D02*
X003803Y008522D01*
X003803Y008106D01*
X003761Y008106D01*
X003761Y008279D02*
X003803Y008279D01*
X003803Y008452D02*
X003761Y008452D01*
X004076Y008522D02*
X004076Y008106D01*
X004076Y008522D02*
X004118Y008522D01*
X004118Y008106D01*
X004076Y008106D01*
X004076Y008279D02*
X004118Y008279D01*
X004118Y008452D02*
X004076Y008452D01*
X004391Y008522D02*
X004391Y008106D01*
X004391Y008522D02*
X004433Y008522D01*
X004433Y008106D01*
X004391Y008106D01*
X004391Y008279D02*
X004433Y008279D01*
X004433Y008452D02*
X004391Y008452D01*
X004706Y008522D02*
X004706Y008106D01*
X004706Y008522D02*
X004748Y008522D01*
X004748Y008106D01*
X004706Y008106D01*
X004706Y008279D02*
X004748Y008279D01*
X004748Y008452D02*
X004706Y008452D01*
X005021Y008522D02*
X005021Y008106D01*
X005021Y008522D02*
X005063Y008522D01*
X005063Y008106D01*
X005021Y008106D01*
X005021Y008279D02*
X005063Y008279D01*
X005063Y008452D02*
X005021Y008452D01*
X005336Y008522D02*
X005336Y008106D01*
X005336Y008522D02*
X005378Y008522D01*
X005378Y008106D01*
X005336Y008106D01*
X005336Y008279D02*
X005378Y008279D01*
X005378Y008452D02*
X005336Y008452D01*
X005651Y008522D02*
X005651Y008106D01*
X005651Y008522D02*
X005693Y008522D01*
X005693Y008106D01*
X005651Y008106D01*
X005651Y008279D02*
X005693Y008279D01*
X005693Y008452D02*
X005651Y008452D01*
X005966Y008522D02*
X005966Y008106D01*
X005966Y008522D02*
X006008Y008522D01*
X006008Y008106D01*
X005966Y008106D01*
X005966Y008279D02*
X006008Y008279D01*
X006008Y008452D02*
X005966Y008452D01*
X006281Y008522D02*
X006281Y008106D01*
X006281Y008522D02*
X006323Y008522D01*
X006323Y008106D01*
X006281Y008106D01*
X006281Y008279D02*
X006323Y008279D01*
X006323Y008452D02*
X006281Y008452D01*
X006596Y008522D02*
X006596Y008106D01*
X006596Y008522D02*
X006638Y008522D01*
X006638Y008106D01*
X006596Y008106D01*
X006596Y008279D02*
X006638Y008279D01*
X006638Y008452D02*
X006596Y008452D01*
X006911Y008522D02*
X006911Y008106D01*
X006911Y008522D02*
X006953Y008522D01*
X006953Y008106D01*
X006911Y008106D01*
X006911Y008279D02*
X006953Y008279D01*
X006953Y008452D02*
X006911Y008452D01*
X007433Y009001D02*
X007433Y009043D01*
X007849Y009043D01*
X007849Y009001D01*
X007433Y009001D01*
X007433Y009316D02*
X007433Y009358D01*
X007849Y009358D01*
X007849Y009316D01*
X007433Y009316D01*
X007433Y009631D02*
X007433Y009673D01*
X007849Y009673D01*
X007849Y009631D01*
X007433Y009631D01*
X007433Y009946D02*
X007433Y009988D01*
X007849Y009988D01*
X007849Y009946D01*
X007433Y009946D01*
X007433Y010261D02*
X007433Y010303D01*
X007849Y010303D01*
X007849Y010261D01*
X007433Y010261D01*
X007433Y010576D02*
X007433Y010618D01*
X007849Y010618D01*
X007849Y010576D01*
X007433Y010576D01*
X007433Y010891D02*
X007433Y010933D01*
X007849Y010933D01*
X007849Y010891D01*
X007433Y010891D01*
X007433Y011206D02*
X007433Y011248D01*
X007849Y011248D01*
X007849Y011206D01*
X007433Y011206D01*
X007433Y011521D02*
X007433Y011563D01*
X007849Y011563D01*
X007849Y011521D01*
X007433Y011521D01*
X007433Y011836D02*
X007433Y011878D01*
X007849Y011878D01*
X007849Y011836D01*
X007433Y011836D01*
X007433Y012151D02*
X007433Y012193D01*
X007849Y012193D01*
X007849Y012151D01*
X007433Y012151D01*
D26*
X005357Y010597D03*
D27*
X005416Y019994D02*
X005596Y019994D01*
X005596Y019444D01*
X005416Y019444D01*
X005416Y019994D01*
X005416Y019463D02*
X005596Y019463D01*
X005596Y019482D02*
X005416Y019482D01*
X005416Y019501D02*
X005596Y019501D01*
X005596Y019520D02*
X005416Y019520D01*
X005416Y019539D02*
X005596Y019539D01*
X005596Y019558D02*
X005416Y019558D01*
X005416Y019577D02*
X005596Y019577D01*
X005596Y019596D02*
X005416Y019596D01*
X005416Y019615D02*
X005596Y019615D01*
X005596Y019634D02*
X005416Y019634D01*
X005416Y019653D02*
X005596Y019653D01*
X005596Y019672D02*
X005416Y019672D01*
X005416Y019691D02*
X005596Y019691D01*
X005596Y019710D02*
X005416Y019710D01*
X005416Y019729D02*
X005596Y019729D01*
X005596Y019748D02*
X005416Y019748D01*
X005416Y019767D02*
X005596Y019767D01*
X005596Y019786D02*
X005416Y019786D01*
X005416Y019805D02*
X005596Y019805D01*
X005596Y019824D02*
X005416Y019824D01*
X005416Y019843D02*
X005596Y019843D01*
X005596Y019862D02*
X005416Y019862D01*
X005416Y019881D02*
X005596Y019881D01*
X005596Y019900D02*
X005416Y019900D01*
X005416Y019919D02*
X005596Y019919D01*
X005596Y019938D02*
X005416Y019938D01*
X005416Y019957D02*
X005596Y019957D01*
X005596Y019976D02*
X005416Y019976D01*
X005676Y019994D02*
X005856Y019994D01*
X005856Y019444D01*
X005676Y019444D01*
X005676Y019994D01*
X005676Y019463D02*
X005856Y019463D01*
X005856Y019482D02*
X005676Y019482D01*
X005676Y019501D02*
X005856Y019501D01*
X005856Y019520D02*
X005676Y019520D01*
X005676Y019539D02*
X005856Y019539D01*
X005856Y019558D02*
X005676Y019558D01*
X005676Y019577D02*
X005856Y019577D01*
X005856Y019596D02*
X005676Y019596D01*
X005676Y019615D02*
X005856Y019615D01*
X005856Y019634D02*
X005676Y019634D01*
X005676Y019653D02*
X005856Y019653D01*
X005856Y019672D02*
X005676Y019672D01*
X005676Y019691D02*
X005856Y019691D01*
X005856Y019710D02*
X005676Y019710D01*
X005676Y019729D02*
X005856Y019729D01*
X005856Y019748D02*
X005676Y019748D01*
X005676Y019767D02*
X005856Y019767D01*
X005856Y019786D02*
X005676Y019786D01*
X005676Y019805D02*
X005856Y019805D01*
X005856Y019824D02*
X005676Y019824D01*
X005676Y019843D02*
X005856Y019843D01*
X005856Y019862D02*
X005676Y019862D01*
X005676Y019881D02*
X005856Y019881D01*
X005856Y019900D02*
X005676Y019900D01*
X005676Y019919D02*
X005856Y019919D01*
X005856Y019938D02*
X005676Y019938D01*
X005676Y019957D02*
X005856Y019957D01*
X005856Y019976D02*
X005676Y019976D01*
X005936Y019994D02*
X006116Y019994D01*
X006116Y019444D01*
X005936Y019444D01*
X005936Y019994D01*
X005936Y019463D02*
X006116Y019463D01*
X006116Y019482D02*
X005936Y019482D01*
X005936Y019501D02*
X006116Y019501D01*
X006116Y019520D02*
X005936Y019520D01*
X005936Y019539D02*
X006116Y019539D01*
X006116Y019558D02*
X005936Y019558D01*
X005936Y019577D02*
X006116Y019577D01*
X006116Y019596D02*
X005936Y019596D01*
X005936Y019615D02*
X006116Y019615D01*
X006116Y019634D02*
X005936Y019634D01*
X005936Y019653D02*
X006116Y019653D01*
X006116Y019672D02*
X005936Y019672D01*
X005936Y019691D02*
X006116Y019691D01*
X006116Y019710D02*
X005936Y019710D01*
X005936Y019729D02*
X006116Y019729D01*
X006116Y019748D02*
X005936Y019748D01*
X005936Y019767D02*
X006116Y019767D01*
X006116Y019786D02*
X005936Y019786D01*
X005936Y019805D02*
X006116Y019805D01*
X006116Y019824D02*
X005936Y019824D01*
X005936Y019843D02*
X006116Y019843D01*
X006116Y019862D02*
X005936Y019862D01*
X005936Y019881D02*
X006116Y019881D01*
X006116Y019900D02*
X005936Y019900D01*
X005936Y019919D02*
X006116Y019919D01*
X006116Y019938D02*
X005936Y019938D01*
X005936Y019957D02*
X006116Y019957D01*
X006116Y019976D02*
X005936Y019976D01*
X006196Y019994D02*
X006376Y019994D01*
X006376Y019444D01*
X006196Y019444D01*
X006196Y019994D01*
X006196Y019463D02*
X006376Y019463D01*
X006376Y019482D02*
X006196Y019482D01*
X006196Y019501D02*
X006376Y019501D01*
X006376Y019520D02*
X006196Y019520D01*
X006196Y019539D02*
X006376Y019539D01*
X006376Y019558D02*
X006196Y019558D01*
X006196Y019577D02*
X006376Y019577D01*
X006376Y019596D02*
X006196Y019596D01*
X006196Y019615D02*
X006376Y019615D01*
X006376Y019634D02*
X006196Y019634D01*
X006196Y019653D02*
X006376Y019653D01*
X006376Y019672D02*
X006196Y019672D01*
X006196Y019691D02*
X006376Y019691D01*
X006376Y019710D02*
X006196Y019710D01*
X006196Y019729D02*
X006376Y019729D01*
X006376Y019748D02*
X006196Y019748D01*
X006196Y019767D02*
X006376Y019767D01*
X006376Y019786D02*
X006196Y019786D01*
X006196Y019805D02*
X006376Y019805D01*
X006376Y019824D02*
X006196Y019824D01*
X006196Y019843D02*
X006376Y019843D01*
X006376Y019862D02*
X006196Y019862D01*
X006196Y019881D02*
X006376Y019881D01*
X006376Y019900D02*
X006196Y019900D01*
X006196Y019919D02*
X006376Y019919D01*
X006376Y019938D02*
X006196Y019938D01*
X006196Y019957D02*
X006376Y019957D01*
X006376Y019976D02*
X006196Y019976D01*
X006456Y019994D02*
X006636Y019994D01*
X006636Y019444D01*
X006456Y019444D01*
X006456Y019994D01*
X006456Y019463D02*
X006636Y019463D01*
X006636Y019482D02*
X006456Y019482D01*
X006456Y019501D02*
X006636Y019501D01*
X006636Y019520D02*
X006456Y019520D01*
X006456Y019539D02*
X006636Y019539D01*
X006636Y019558D02*
X006456Y019558D01*
X006456Y019577D02*
X006636Y019577D01*
X006636Y019596D02*
X006456Y019596D01*
X006456Y019615D02*
X006636Y019615D01*
X006636Y019634D02*
X006456Y019634D01*
X006456Y019653D02*
X006636Y019653D01*
X006636Y019672D02*
X006456Y019672D01*
X006456Y019691D02*
X006636Y019691D01*
X006636Y019710D02*
X006456Y019710D01*
X006456Y019729D02*
X006636Y019729D01*
X006636Y019748D02*
X006456Y019748D01*
X006456Y019767D02*
X006636Y019767D01*
X006636Y019786D02*
X006456Y019786D01*
X006456Y019805D02*
X006636Y019805D01*
X006636Y019824D02*
X006456Y019824D01*
X006456Y019843D02*
X006636Y019843D01*
X006636Y019862D02*
X006456Y019862D01*
X006456Y019881D02*
X006636Y019881D01*
X006636Y019900D02*
X006456Y019900D01*
X006456Y019919D02*
X006636Y019919D01*
X006636Y019938D02*
X006456Y019938D01*
X006456Y019957D02*
X006636Y019957D01*
X006636Y019976D02*
X006456Y019976D01*
D28*
X007046Y021039D02*
X007606Y021039D01*
X007606Y020519D01*
X007046Y020519D01*
X007046Y021039D01*
X007046Y020648D02*
X007606Y020648D01*
X007606Y020777D02*
X007046Y020777D01*
X007046Y020906D02*
X007606Y020906D01*
X007606Y021035D02*
X007046Y021035D01*
X005006Y021039D02*
X004446Y021039D01*
X005006Y021039D02*
X005006Y020519D01*
X004446Y020519D01*
X004446Y021039D01*
X004446Y020648D02*
X005006Y020648D01*
X005006Y020777D02*
X004446Y020777D01*
X004446Y020906D02*
X005006Y020906D01*
X005006Y021035D02*
X004446Y021035D01*
D29*
X004902Y019763D02*
X005190Y019763D01*
X005190Y019675D01*
X004902Y019675D01*
X004902Y019763D01*
X006862Y019763D02*
X007150Y019763D01*
X007150Y019675D01*
X006862Y019675D01*
X006862Y019763D01*
D30*
X006714Y021067D02*
X006138Y021067D01*
X006714Y021067D02*
X006714Y020491D01*
X006138Y020491D01*
X006138Y021067D01*
X006138Y020554D02*
X006714Y020554D01*
X006714Y020617D02*
X006138Y020617D01*
X006138Y020680D02*
X006714Y020680D01*
X006714Y020743D02*
X006138Y020743D01*
X006138Y020806D02*
X006714Y020806D01*
X006714Y020869D02*
X006138Y020869D01*
X006138Y020932D02*
X006714Y020932D01*
X006714Y020995D02*
X006138Y020995D01*
X006138Y021058D02*
X006714Y021058D01*
X005914Y021067D02*
X005338Y021067D01*
X005914Y021067D02*
X005914Y020491D01*
X005338Y020491D01*
X005338Y021067D01*
X005338Y020554D02*
X005914Y020554D01*
X005914Y020617D02*
X005338Y020617D01*
X005338Y020680D02*
X005914Y020680D01*
X005914Y020743D02*
X005338Y020743D01*
X005338Y020806D02*
X005914Y020806D01*
X005914Y020869D02*
X005338Y020869D01*
X005338Y020932D02*
X005914Y020932D01*
X005914Y020995D02*
X005338Y020995D01*
X005338Y021058D02*
X005914Y021058D01*
D31*
X007542Y017974D03*
X009078Y017974D03*
D32*
X002148Y011394D03*
X002148Y010666D03*
X001243Y010666D03*
X001243Y011394D03*
D33*
X015889Y018998D03*
X017660Y018998D03*
D34*
X018154Y018017D03*
X015394Y018017D03*
D35*
X010003Y004706D03*
X010003Y003604D03*
X008782Y003604D03*
X008782Y004706D03*
D36*
X006774Y017659D03*
X006774Y018446D03*
X004885Y018958D03*
X004097Y018958D03*
M02*
