%
M48
M72
T01C0.0120
T02C0.0236
T03C0.0276
T04C0.0315
T05C0.0320
T06C0.0354
T07C0.0400
T08C0.1300
%
T01
X8689Y11602
X8689Y11957
X8689Y12311
X8689Y12665
X8689Y13020
X7232Y14161
X6917Y14713
X7557Y15406
X7552Y15721
X7587Y16091
X8413Y16524
X9280Y16248
X9280Y17075
X10185Y17350
X10579Y18059
X10854Y17744
X10972Y17311
X12232Y16524
X12075Y15421
X12232Y14909
X11681Y13689
X12469Y13098
X12267Y12838
X12469Y12587
X13256Y12587
X13453Y12838
X13256Y13098
X13728Y11406
X15343Y13217
X15067Y14280
X15067Y15500
X15028Y17035
X15067Y17941
X15067Y19161
X15067Y20382
X13728Y20067
X13492Y20382
X14240Y22311
X11661Y22296
X11484Y21563
X11489Y20815
X10977Y19673
X12311Y18374
X10972Y15382
X10579Y15343
X9988Y15264
X9752Y15461
X9476Y15264
X9201Y15461
X8610Y15579
X8492Y15146
X8256Y14949
X7587Y14988
X7587Y17272
X7557Y17926
X8413Y17626
X9594Y18413
X8335Y19634
X8020Y19634
X7705Y19555
X7705Y20264
X8020Y20303
X8335Y20343
X8492Y20736
X7980Y21406
X7980Y22429
X8965Y22075
X9437Y22547
X10697Y22626
X10697Y23305
X11839Y24890
X11839Y25736
X11917Y26209
X11770Y26627
X11164Y26105
X9949Y27070
X9437Y26051
X8728Y26091
X8413Y25579
X7980Y25106
X8217Y24634
X8020Y23571
X7980Y26051
X8098Y26642
X7862Y27626
X8920Y27626
X10987Y27646
X12045Y27601
X12547Y27626
X12547Y26957
X13728Y26996
X14437Y27114
X16524Y24358
X17587Y26602
X18886Y27547
X21996Y27547
X21799Y23650
X21839Y20618
X22744Y20382
X22744Y19161
X22744Y17941
X22744Y16720
X22744Y15500
X22744Y14280
X22272Y13374
X22508Y12665
X23413Y11287
X21209Y14280
X21209Y15500
X21209Y16720
X21209Y17941
X21209Y19161
X19673Y19161
X19673Y17941
X19673Y16720
X19673Y15500
X19673Y14280
X18138Y14280
X18138Y15500
X18138Y16720
X18138Y17941
X18138Y19161
X18138Y20382
X19673Y20382
X18138Y21957
X16602Y20382
X16602Y19161
X16602Y17941
X16602Y16720
X16602Y15500
X16602Y14280
X17665Y12980
X18571Y12705
X19122Y12665
X19083Y12272
X16012Y11091
X16012Y10106
X10224Y13728
X6130Y18925
X5146Y17823
X6760Y20343
X6957Y21012
T02
X5146Y19437
X5151Y18758
X6012Y16312
X5657Y15224
X5170Y14742
X9949Y11209
X10303Y10776
X10657Y11209
X10643Y10293
X11012Y9757
X14791Y9949
X18531Y11720
X20736Y12665
X21051Y25776
X21799Y25776
T03
X21327Y7744
X22327Y7744
X20327Y7744
T04
X9949Y7350
X9398Y8138
X8846Y7350
X8295Y8138
T05
X13708Y8267
X14674Y8008
X15775Y8008
X16741Y8267
T06
X24016Y9787
X25016Y9787
X25016Y10787
X24016Y10787
X24016Y11787
X25016Y11787
X25016Y12787
X24016Y12787
X6315Y12957
X6315Y13957
X5315Y13957
X5315Y12957
X5315Y11957
X6315Y11957
X6315Y10957
X5315Y10957
X5315Y9957
X6315Y9957
T07
X6472Y21508
X5472Y21508
X5472Y22508
X5472Y23508
X6472Y23508
X6472Y22508
T08
X6563Y8138
X6563Y25461
X23886Y25461
X23886Y8138
M30
