G75*
%MOIN*%
%OFA0B0*%
%FSLAX24Y24*%
%IPPOS*%
%LPD*%
%AMOC8*
5,1,8,0,0,1.08239X$1,22.5*
%
%ADD10C,0.0000*%
%ADD11C,0.1340*%
%ADD12OC8,0.0640*%
%ADD13C,0.0476*%
%ADD14C,0.0555*%
%ADD15C,0.0700*%
%ADD16OC8,0.0700*%
%ADD17C,0.0634*%
%ADD18C,0.0814*%
D10*
X001991Y002069D02*
X001993Y002119D01*
X001999Y002169D01*
X002009Y002219D01*
X002022Y002267D01*
X002039Y002315D01*
X002060Y002361D01*
X002084Y002405D01*
X002112Y002447D01*
X002143Y002487D01*
X002177Y002524D01*
X002214Y002559D01*
X002253Y002590D01*
X002294Y002619D01*
X002338Y002644D01*
X002384Y002666D01*
X002431Y002684D01*
X002479Y002698D01*
X002528Y002709D01*
X002578Y002716D01*
X002628Y002719D01*
X002679Y002718D01*
X002729Y002713D01*
X002779Y002704D01*
X002827Y002692D01*
X002875Y002675D01*
X002921Y002655D01*
X002966Y002632D01*
X003009Y002605D01*
X003049Y002575D01*
X003087Y002542D01*
X003122Y002506D01*
X003155Y002467D01*
X003184Y002426D01*
X003210Y002383D01*
X003233Y002338D01*
X003252Y002291D01*
X003267Y002243D01*
X003279Y002194D01*
X003287Y002144D01*
X003291Y002094D01*
X003291Y002044D01*
X003287Y001994D01*
X003279Y001944D01*
X003267Y001895D01*
X003252Y001847D01*
X003233Y001800D01*
X003210Y001755D01*
X003184Y001712D01*
X003155Y001671D01*
X003122Y001632D01*
X003087Y001596D01*
X003049Y001563D01*
X003009Y001533D01*
X002966Y001506D01*
X002921Y001483D01*
X002875Y001463D01*
X002827Y001446D01*
X002779Y001434D01*
X002729Y001425D01*
X002679Y001420D01*
X002628Y001419D01*
X002578Y001422D01*
X002528Y001429D01*
X002479Y001440D01*
X002431Y001454D01*
X002384Y001472D01*
X002338Y001494D01*
X002294Y001519D01*
X002253Y001548D01*
X002214Y001579D01*
X002177Y001614D01*
X002143Y001651D01*
X002112Y001691D01*
X002084Y001733D01*
X002060Y001777D01*
X002039Y001823D01*
X002022Y001871D01*
X002009Y001919D01*
X001999Y001969D01*
X001993Y002019D01*
X001991Y002069D01*
X000672Y003250D02*
X000672Y018210D01*
X001991Y019391D02*
X001993Y019441D01*
X001999Y019491D01*
X002009Y019541D01*
X002022Y019589D01*
X002039Y019637D01*
X002060Y019683D01*
X002084Y019727D01*
X002112Y019769D01*
X002143Y019809D01*
X002177Y019846D01*
X002214Y019881D01*
X002253Y019912D01*
X002294Y019941D01*
X002338Y019966D01*
X002384Y019988D01*
X002431Y020006D01*
X002479Y020020D01*
X002528Y020031D01*
X002578Y020038D01*
X002628Y020041D01*
X002679Y020040D01*
X002729Y020035D01*
X002779Y020026D01*
X002827Y020014D01*
X002875Y019997D01*
X002921Y019977D01*
X002966Y019954D01*
X003009Y019927D01*
X003049Y019897D01*
X003087Y019864D01*
X003122Y019828D01*
X003155Y019789D01*
X003184Y019748D01*
X003210Y019705D01*
X003233Y019660D01*
X003252Y019613D01*
X003267Y019565D01*
X003279Y019516D01*
X003287Y019466D01*
X003291Y019416D01*
X003291Y019366D01*
X003287Y019316D01*
X003279Y019266D01*
X003267Y019217D01*
X003252Y019169D01*
X003233Y019122D01*
X003210Y019077D01*
X003184Y019034D01*
X003155Y018993D01*
X003122Y018954D01*
X003087Y018918D01*
X003049Y018885D01*
X003009Y018855D01*
X002966Y018828D01*
X002921Y018805D01*
X002875Y018785D01*
X002827Y018768D01*
X002779Y018756D01*
X002729Y018747D01*
X002679Y018742D01*
X002628Y018741D01*
X002578Y018744D01*
X002528Y018751D01*
X002479Y018762D01*
X002431Y018776D01*
X002384Y018794D01*
X002338Y018816D01*
X002294Y018841D01*
X002253Y018870D01*
X002214Y018901D01*
X002177Y018936D01*
X002143Y018973D01*
X002112Y019013D01*
X002084Y019055D01*
X002060Y019099D01*
X002039Y019145D01*
X002022Y019193D01*
X002009Y019241D01*
X001999Y019291D01*
X001993Y019341D01*
X001991Y019391D01*
X000672Y018211D02*
X000687Y018326D01*
X000705Y018442D01*
X000727Y018556D01*
X000754Y018670D01*
X000783Y018783D01*
X000817Y018894D01*
X000854Y019005D01*
X000894Y019114D01*
X000939Y019222D01*
X000986Y019329D01*
X001038Y019434D01*
X001092Y019537D01*
X001150Y019638D01*
X001211Y019737D01*
X001276Y019834D01*
X001343Y019930D01*
X001414Y020022D01*
X001488Y020113D01*
X001564Y020201D01*
X001644Y020286D01*
X001726Y020369D01*
X001811Y020449D01*
X001898Y020526D01*
X001988Y020601D01*
X002080Y020672D01*
X002175Y020740D01*
X002272Y020806D01*
X002370Y020868D01*
X002471Y020926D01*
X002574Y020982D01*
X002678Y021034D01*
X002784Y021082D01*
X002892Y021127D01*
X003001Y021169D01*
X003111Y021207D01*
X003223Y021241D01*
X003335Y021272D01*
X003449Y021299D01*
X003563Y021322D01*
X003678Y021341D01*
X003794Y021357D01*
X003910Y021369D01*
X004026Y021377D01*
X004143Y021381D01*
X004259Y021382D01*
X004376Y021378D01*
X004493Y021371D01*
X004609Y021360D01*
X018782Y021360D01*
X019313Y019391D02*
X019315Y019441D01*
X019321Y019491D01*
X019331Y019541D01*
X019344Y019589D01*
X019361Y019637D01*
X019382Y019683D01*
X019406Y019727D01*
X019434Y019769D01*
X019465Y019809D01*
X019499Y019846D01*
X019536Y019881D01*
X019575Y019912D01*
X019616Y019941D01*
X019660Y019966D01*
X019706Y019988D01*
X019753Y020006D01*
X019801Y020020D01*
X019850Y020031D01*
X019900Y020038D01*
X019950Y020041D01*
X020001Y020040D01*
X020051Y020035D01*
X020101Y020026D01*
X020149Y020014D01*
X020197Y019997D01*
X020243Y019977D01*
X020288Y019954D01*
X020331Y019927D01*
X020371Y019897D01*
X020409Y019864D01*
X020444Y019828D01*
X020477Y019789D01*
X020506Y019748D01*
X020532Y019705D01*
X020555Y019660D01*
X020574Y019613D01*
X020589Y019565D01*
X020601Y019516D01*
X020609Y019466D01*
X020613Y019416D01*
X020613Y019366D01*
X020609Y019316D01*
X020601Y019266D01*
X020589Y019217D01*
X020574Y019169D01*
X020555Y019122D01*
X020532Y019077D01*
X020506Y019034D01*
X020477Y018993D01*
X020444Y018954D01*
X020409Y018918D01*
X020371Y018885D01*
X020331Y018855D01*
X020288Y018828D01*
X020243Y018805D01*
X020197Y018785D01*
X020149Y018768D01*
X020101Y018756D01*
X020051Y018747D01*
X020001Y018742D01*
X019950Y018741D01*
X019900Y018744D01*
X019850Y018751D01*
X019801Y018762D01*
X019753Y018776D01*
X019706Y018794D01*
X019660Y018816D01*
X019616Y018841D01*
X019575Y018870D01*
X019536Y018901D01*
X019499Y018936D01*
X019465Y018973D01*
X019434Y019013D01*
X019406Y019055D01*
X019382Y019099D01*
X019361Y019145D01*
X019344Y019193D01*
X019331Y019241D01*
X019321Y019291D01*
X019315Y019341D01*
X019313Y019391D01*
X018782Y021360D02*
X018892Y021358D01*
X019002Y021352D01*
X019111Y021343D01*
X019220Y021329D01*
X019329Y021312D01*
X019437Y021291D01*
X019544Y021266D01*
X019650Y021238D01*
X019755Y021206D01*
X019859Y021170D01*
X019962Y021131D01*
X020063Y021088D01*
X020163Y021041D01*
X020261Y020991D01*
X020357Y020938D01*
X020451Y020881D01*
X020543Y020821D01*
X020634Y020758D01*
X020721Y020692D01*
X020807Y020623D01*
X020890Y020551D01*
X020970Y020476D01*
X021048Y020398D01*
X021123Y020318D01*
X021195Y020235D01*
X021264Y020149D01*
X021330Y020062D01*
X021393Y019971D01*
X021453Y019879D01*
X021510Y019785D01*
X021563Y019689D01*
X021613Y019591D01*
X021660Y019491D01*
X021703Y019390D01*
X021742Y019287D01*
X021778Y019183D01*
X021810Y019078D01*
X021838Y018972D01*
X021863Y018865D01*
X021884Y018757D01*
X021901Y018648D01*
X021915Y018539D01*
X021924Y018430D01*
X021930Y018320D01*
X021932Y018210D01*
X021932Y003250D01*
X019313Y002069D02*
X019315Y002119D01*
X019321Y002169D01*
X019331Y002219D01*
X019344Y002267D01*
X019361Y002315D01*
X019382Y002361D01*
X019406Y002405D01*
X019434Y002447D01*
X019465Y002487D01*
X019499Y002524D01*
X019536Y002559D01*
X019575Y002590D01*
X019616Y002619D01*
X019660Y002644D01*
X019706Y002666D01*
X019753Y002684D01*
X019801Y002698D01*
X019850Y002709D01*
X019900Y002716D01*
X019950Y002719D01*
X020001Y002718D01*
X020051Y002713D01*
X020101Y002704D01*
X020149Y002692D01*
X020197Y002675D01*
X020243Y002655D01*
X020288Y002632D01*
X020331Y002605D01*
X020371Y002575D01*
X020409Y002542D01*
X020444Y002506D01*
X020477Y002467D01*
X020506Y002426D01*
X020532Y002383D01*
X020555Y002338D01*
X020574Y002291D01*
X020589Y002243D01*
X020601Y002194D01*
X020609Y002144D01*
X020613Y002094D01*
X020613Y002044D01*
X020609Y001994D01*
X020601Y001944D01*
X020589Y001895D01*
X020574Y001847D01*
X020555Y001800D01*
X020532Y001755D01*
X020506Y001712D01*
X020477Y001671D01*
X020444Y001632D01*
X020409Y001596D01*
X020371Y001563D01*
X020331Y001533D01*
X020288Y001506D01*
X020243Y001483D01*
X020197Y001463D01*
X020149Y001446D01*
X020101Y001434D01*
X020051Y001425D01*
X020001Y001420D01*
X019950Y001419D01*
X019900Y001422D01*
X019850Y001429D01*
X019801Y001440D01*
X019753Y001454D01*
X019706Y001472D01*
X019660Y001494D01*
X019616Y001519D01*
X019575Y001548D01*
X019536Y001579D01*
X019499Y001614D01*
X019465Y001651D01*
X019434Y001691D01*
X019406Y001733D01*
X019382Y001777D01*
X019361Y001823D01*
X019344Y001871D01*
X019331Y001919D01*
X019321Y001969D01*
X019315Y002019D01*
X019313Y002069D01*
X018782Y000100D02*
X018892Y000102D01*
X019002Y000108D01*
X019111Y000117D01*
X019220Y000131D01*
X019329Y000148D01*
X019437Y000169D01*
X019544Y000194D01*
X019650Y000222D01*
X019755Y000254D01*
X019859Y000290D01*
X019962Y000329D01*
X020063Y000372D01*
X020163Y000419D01*
X020261Y000469D01*
X020357Y000522D01*
X020451Y000579D01*
X020543Y000639D01*
X020634Y000702D01*
X020721Y000768D01*
X020807Y000837D01*
X020890Y000909D01*
X020970Y000984D01*
X021048Y001062D01*
X021123Y001142D01*
X021195Y001225D01*
X021264Y001311D01*
X021330Y001398D01*
X021393Y001489D01*
X021453Y001581D01*
X021510Y001675D01*
X021563Y001771D01*
X021613Y001869D01*
X021660Y001969D01*
X021703Y002070D01*
X021742Y002173D01*
X021778Y002277D01*
X021810Y002382D01*
X021838Y002488D01*
X021863Y002595D01*
X021884Y002703D01*
X021901Y002812D01*
X021915Y002921D01*
X021924Y003030D01*
X021930Y003140D01*
X021932Y003250D01*
X018782Y000100D02*
X003822Y000100D01*
X003712Y000102D01*
X003602Y000108D01*
X003493Y000117D01*
X003384Y000131D01*
X003275Y000148D01*
X003167Y000169D01*
X003060Y000194D01*
X002954Y000222D01*
X002849Y000254D01*
X002745Y000290D01*
X002642Y000329D01*
X002541Y000372D01*
X002441Y000419D01*
X002343Y000469D01*
X002247Y000522D01*
X002153Y000579D01*
X002061Y000639D01*
X001970Y000702D01*
X001883Y000768D01*
X001797Y000837D01*
X001714Y000909D01*
X001634Y000984D01*
X001556Y001062D01*
X001481Y001142D01*
X001409Y001225D01*
X001340Y001311D01*
X001274Y001398D01*
X001211Y001489D01*
X001151Y001581D01*
X001094Y001675D01*
X001041Y001771D01*
X000991Y001869D01*
X000944Y001969D01*
X000901Y002070D01*
X000862Y002173D01*
X000826Y002277D01*
X000794Y002382D01*
X000766Y002488D01*
X000741Y002595D01*
X000720Y002703D01*
X000703Y002812D01*
X000689Y002921D01*
X000680Y003030D01*
X000674Y003140D01*
X000672Y003250D01*
D11*
X002641Y002069D03*
X002641Y019391D03*
X019963Y019391D03*
X019963Y002069D03*
D12*
X020133Y003994D03*
X021133Y003994D03*
X021133Y004994D03*
X020133Y004994D03*
X020133Y005994D03*
X021133Y005994D03*
X021133Y006994D03*
X020133Y006994D03*
X002550Y015439D03*
X001550Y015439D03*
X001550Y016439D03*
X001550Y017439D03*
X002550Y017439D03*
X002550Y016439D03*
X002393Y007887D03*
X001393Y007887D03*
X001393Y006887D03*
X002393Y006887D03*
X002393Y005887D03*
X002393Y004887D03*
X001393Y004887D03*
X001393Y005887D03*
X001393Y003887D03*
X002393Y003887D03*
D13*
X016798Y001675D03*
X017798Y001675D03*
X018798Y001675D03*
D14*
X013212Y002198D03*
X012246Y001939D03*
X010358Y001939D03*
X009392Y002198D03*
D15*
X005656Y001294D03*
X004456Y001294D03*
X003956Y002056D03*
D16*
X005056Y002056D03*
D17*
X015889Y018998D03*
X017660Y018998D03*
D18*
X018154Y018017D03*
X015394Y018017D03*
M02*
