G75*
%MOIN*%
%OFA0B0*%
%FSLAX24Y24*%
%IPPOS*%
%LPD*%
%AMOC8*
5,1,8,0,0,1.08239X$1,22.5*
%
%ADD10C,0.0000*%
%ADD11OC8,0.0600*%
%ADD12C,0.0436*%
%ADD13C,0.0515*%
%ADD14C,0.0660*%
%ADD15OC8,0.0660*%
%ADD16C,0.0594*%
%ADD17C,0.0774*%
%ADD18C,0.0240*%
%ADD19C,0.0100*%
%ADD20C,0.0160*%
D10*
X001991Y002069D02*
X001993Y002119D01*
X001999Y002169D01*
X002009Y002219D01*
X002022Y002267D01*
X002039Y002315D01*
X002060Y002361D01*
X002084Y002405D01*
X002112Y002447D01*
X002143Y002487D01*
X002177Y002524D01*
X002214Y002559D01*
X002253Y002590D01*
X002294Y002619D01*
X002338Y002644D01*
X002384Y002666D01*
X002431Y002684D01*
X002479Y002698D01*
X002528Y002709D01*
X002578Y002716D01*
X002628Y002719D01*
X002679Y002718D01*
X002729Y002713D01*
X002779Y002704D01*
X002827Y002692D01*
X002875Y002675D01*
X002921Y002655D01*
X002966Y002632D01*
X003009Y002605D01*
X003049Y002575D01*
X003087Y002542D01*
X003122Y002506D01*
X003155Y002467D01*
X003184Y002426D01*
X003210Y002383D01*
X003233Y002338D01*
X003252Y002291D01*
X003267Y002243D01*
X003279Y002194D01*
X003287Y002144D01*
X003291Y002094D01*
X003291Y002044D01*
X003287Y001994D01*
X003279Y001944D01*
X003267Y001895D01*
X003252Y001847D01*
X003233Y001800D01*
X003210Y001755D01*
X003184Y001712D01*
X003155Y001671D01*
X003122Y001632D01*
X003087Y001596D01*
X003049Y001563D01*
X003009Y001533D01*
X002966Y001506D01*
X002921Y001483D01*
X002875Y001463D01*
X002827Y001446D01*
X002779Y001434D01*
X002729Y001425D01*
X002679Y001420D01*
X002628Y001419D01*
X002578Y001422D01*
X002528Y001429D01*
X002479Y001440D01*
X002431Y001454D01*
X002384Y001472D01*
X002338Y001494D01*
X002294Y001519D01*
X002253Y001548D01*
X002214Y001579D01*
X002177Y001614D01*
X002143Y001651D01*
X002112Y001691D01*
X002084Y001733D01*
X002060Y001777D01*
X002039Y001823D01*
X002022Y001871D01*
X002009Y001919D01*
X001999Y001969D01*
X001993Y002019D01*
X001991Y002069D01*
X000672Y003250D02*
X000672Y018210D01*
X001991Y019391D02*
X001993Y019441D01*
X001999Y019491D01*
X002009Y019541D01*
X002022Y019589D01*
X002039Y019637D01*
X002060Y019683D01*
X002084Y019727D01*
X002112Y019769D01*
X002143Y019809D01*
X002177Y019846D01*
X002214Y019881D01*
X002253Y019912D01*
X002294Y019941D01*
X002338Y019966D01*
X002384Y019988D01*
X002431Y020006D01*
X002479Y020020D01*
X002528Y020031D01*
X002578Y020038D01*
X002628Y020041D01*
X002679Y020040D01*
X002729Y020035D01*
X002779Y020026D01*
X002827Y020014D01*
X002875Y019997D01*
X002921Y019977D01*
X002966Y019954D01*
X003009Y019927D01*
X003049Y019897D01*
X003087Y019864D01*
X003122Y019828D01*
X003155Y019789D01*
X003184Y019748D01*
X003210Y019705D01*
X003233Y019660D01*
X003252Y019613D01*
X003267Y019565D01*
X003279Y019516D01*
X003287Y019466D01*
X003291Y019416D01*
X003291Y019366D01*
X003287Y019316D01*
X003279Y019266D01*
X003267Y019217D01*
X003252Y019169D01*
X003233Y019122D01*
X003210Y019077D01*
X003184Y019034D01*
X003155Y018993D01*
X003122Y018954D01*
X003087Y018918D01*
X003049Y018885D01*
X003009Y018855D01*
X002966Y018828D01*
X002921Y018805D01*
X002875Y018785D01*
X002827Y018768D01*
X002779Y018756D01*
X002729Y018747D01*
X002679Y018742D01*
X002628Y018741D01*
X002578Y018744D01*
X002528Y018751D01*
X002479Y018762D01*
X002431Y018776D01*
X002384Y018794D01*
X002338Y018816D01*
X002294Y018841D01*
X002253Y018870D01*
X002214Y018901D01*
X002177Y018936D01*
X002143Y018973D01*
X002112Y019013D01*
X002084Y019055D01*
X002060Y019099D01*
X002039Y019145D01*
X002022Y019193D01*
X002009Y019241D01*
X001999Y019291D01*
X001993Y019341D01*
X001991Y019391D01*
X000672Y018211D02*
X000687Y018326D01*
X000705Y018442D01*
X000727Y018556D01*
X000754Y018670D01*
X000783Y018783D01*
X000817Y018894D01*
X000854Y019005D01*
X000894Y019114D01*
X000939Y019222D01*
X000986Y019329D01*
X001038Y019434D01*
X001092Y019537D01*
X001150Y019638D01*
X001211Y019737D01*
X001276Y019834D01*
X001343Y019930D01*
X001414Y020022D01*
X001488Y020113D01*
X001564Y020201D01*
X001644Y020286D01*
X001726Y020369D01*
X001811Y020449D01*
X001898Y020526D01*
X001988Y020601D01*
X002080Y020672D01*
X002175Y020740D01*
X002272Y020806D01*
X002370Y020868D01*
X002471Y020926D01*
X002574Y020982D01*
X002678Y021034D01*
X002784Y021082D01*
X002892Y021127D01*
X003001Y021169D01*
X003111Y021207D01*
X003223Y021241D01*
X003335Y021272D01*
X003449Y021299D01*
X003563Y021322D01*
X003678Y021341D01*
X003794Y021357D01*
X003910Y021369D01*
X004026Y021377D01*
X004143Y021381D01*
X004259Y021382D01*
X004376Y021378D01*
X004493Y021371D01*
X004609Y021360D01*
X018782Y021360D01*
X019313Y019391D02*
X019315Y019441D01*
X019321Y019491D01*
X019331Y019541D01*
X019344Y019589D01*
X019361Y019637D01*
X019382Y019683D01*
X019406Y019727D01*
X019434Y019769D01*
X019465Y019809D01*
X019499Y019846D01*
X019536Y019881D01*
X019575Y019912D01*
X019616Y019941D01*
X019660Y019966D01*
X019706Y019988D01*
X019753Y020006D01*
X019801Y020020D01*
X019850Y020031D01*
X019900Y020038D01*
X019950Y020041D01*
X020001Y020040D01*
X020051Y020035D01*
X020101Y020026D01*
X020149Y020014D01*
X020197Y019997D01*
X020243Y019977D01*
X020288Y019954D01*
X020331Y019927D01*
X020371Y019897D01*
X020409Y019864D01*
X020444Y019828D01*
X020477Y019789D01*
X020506Y019748D01*
X020532Y019705D01*
X020555Y019660D01*
X020574Y019613D01*
X020589Y019565D01*
X020601Y019516D01*
X020609Y019466D01*
X020613Y019416D01*
X020613Y019366D01*
X020609Y019316D01*
X020601Y019266D01*
X020589Y019217D01*
X020574Y019169D01*
X020555Y019122D01*
X020532Y019077D01*
X020506Y019034D01*
X020477Y018993D01*
X020444Y018954D01*
X020409Y018918D01*
X020371Y018885D01*
X020331Y018855D01*
X020288Y018828D01*
X020243Y018805D01*
X020197Y018785D01*
X020149Y018768D01*
X020101Y018756D01*
X020051Y018747D01*
X020001Y018742D01*
X019950Y018741D01*
X019900Y018744D01*
X019850Y018751D01*
X019801Y018762D01*
X019753Y018776D01*
X019706Y018794D01*
X019660Y018816D01*
X019616Y018841D01*
X019575Y018870D01*
X019536Y018901D01*
X019499Y018936D01*
X019465Y018973D01*
X019434Y019013D01*
X019406Y019055D01*
X019382Y019099D01*
X019361Y019145D01*
X019344Y019193D01*
X019331Y019241D01*
X019321Y019291D01*
X019315Y019341D01*
X019313Y019391D01*
X018782Y021360D02*
X018892Y021358D01*
X019002Y021352D01*
X019111Y021343D01*
X019220Y021329D01*
X019329Y021312D01*
X019437Y021291D01*
X019544Y021266D01*
X019650Y021238D01*
X019755Y021206D01*
X019859Y021170D01*
X019962Y021131D01*
X020063Y021088D01*
X020163Y021041D01*
X020261Y020991D01*
X020357Y020938D01*
X020451Y020881D01*
X020543Y020821D01*
X020634Y020758D01*
X020721Y020692D01*
X020807Y020623D01*
X020890Y020551D01*
X020970Y020476D01*
X021048Y020398D01*
X021123Y020318D01*
X021195Y020235D01*
X021264Y020149D01*
X021330Y020062D01*
X021393Y019971D01*
X021453Y019879D01*
X021510Y019785D01*
X021563Y019689D01*
X021613Y019591D01*
X021660Y019491D01*
X021703Y019390D01*
X021742Y019287D01*
X021778Y019183D01*
X021810Y019078D01*
X021838Y018972D01*
X021863Y018865D01*
X021884Y018757D01*
X021901Y018648D01*
X021915Y018539D01*
X021924Y018430D01*
X021930Y018320D01*
X021932Y018210D01*
X021932Y003250D01*
X019313Y002069D02*
X019315Y002119D01*
X019321Y002169D01*
X019331Y002219D01*
X019344Y002267D01*
X019361Y002315D01*
X019382Y002361D01*
X019406Y002405D01*
X019434Y002447D01*
X019465Y002487D01*
X019499Y002524D01*
X019536Y002559D01*
X019575Y002590D01*
X019616Y002619D01*
X019660Y002644D01*
X019706Y002666D01*
X019753Y002684D01*
X019801Y002698D01*
X019850Y002709D01*
X019900Y002716D01*
X019950Y002719D01*
X020001Y002718D01*
X020051Y002713D01*
X020101Y002704D01*
X020149Y002692D01*
X020197Y002675D01*
X020243Y002655D01*
X020288Y002632D01*
X020331Y002605D01*
X020371Y002575D01*
X020409Y002542D01*
X020444Y002506D01*
X020477Y002467D01*
X020506Y002426D01*
X020532Y002383D01*
X020555Y002338D01*
X020574Y002291D01*
X020589Y002243D01*
X020601Y002194D01*
X020609Y002144D01*
X020613Y002094D01*
X020613Y002044D01*
X020609Y001994D01*
X020601Y001944D01*
X020589Y001895D01*
X020574Y001847D01*
X020555Y001800D01*
X020532Y001755D01*
X020506Y001712D01*
X020477Y001671D01*
X020444Y001632D01*
X020409Y001596D01*
X020371Y001563D01*
X020331Y001533D01*
X020288Y001506D01*
X020243Y001483D01*
X020197Y001463D01*
X020149Y001446D01*
X020101Y001434D01*
X020051Y001425D01*
X020001Y001420D01*
X019950Y001419D01*
X019900Y001422D01*
X019850Y001429D01*
X019801Y001440D01*
X019753Y001454D01*
X019706Y001472D01*
X019660Y001494D01*
X019616Y001519D01*
X019575Y001548D01*
X019536Y001579D01*
X019499Y001614D01*
X019465Y001651D01*
X019434Y001691D01*
X019406Y001733D01*
X019382Y001777D01*
X019361Y001823D01*
X019344Y001871D01*
X019331Y001919D01*
X019321Y001969D01*
X019315Y002019D01*
X019313Y002069D01*
X018782Y000100D02*
X018892Y000102D01*
X019002Y000108D01*
X019111Y000117D01*
X019220Y000131D01*
X019329Y000148D01*
X019437Y000169D01*
X019544Y000194D01*
X019650Y000222D01*
X019755Y000254D01*
X019859Y000290D01*
X019962Y000329D01*
X020063Y000372D01*
X020163Y000419D01*
X020261Y000469D01*
X020357Y000522D01*
X020451Y000579D01*
X020543Y000639D01*
X020634Y000702D01*
X020721Y000768D01*
X020807Y000837D01*
X020890Y000909D01*
X020970Y000984D01*
X021048Y001062D01*
X021123Y001142D01*
X021195Y001225D01*
X021264Y001311D01*
X021330Y001398D01*
X021393Y001489D01*
X021453Y001581D01*
X021510Y001675D01*
X021563Y001771D01*
X021613Y001869D01*
X021660Y001969D01*
X021703Y002070D01*
X021742Y002173D01*
X021778Y002277D01*
X021810Y002382D01*
X021838Y002488D01*
X021863Y002595D01*
X021884Y002703D01*
X021901Y002812D01*
X021915Y002921D01*
X021924Y003030D01*
X021930Y003140D01*
X021932Y003250D01*
X018782Y000100D02*
X003822Y000100D01*
X003712Y000102D01*
X003602Y000108D01*
X003493Y000117D01*
X003384Y000131D01*
X003275Y000148D01*
X003167Y000169D01*
X003060Y000194D01*
X002954Y000222D01*
X002849Y000254D01*
X002745Y000290D01*
X002642Y000329D01*
X002541Y000372D01*
X002441Y000419D01*
X002343Y000469D01*
X002247Y000522D01*
X002153Y000579D01*
X002061Y000639D01*
X001970Y000702D01*
X001883Y000768D01*
X001797Y000837D01*
X001714Y000909D01*
X001634Y000984D01*
X001556Y001062D01*
X001481Y001142D01*
X001409Y001225D01*
X001340Y001311D01*
X001274Y001398D01*
X001211Y001489D01*
X001151Y001581D01*
X001094Y001675D01*
X001041Y001771D01*
X000991Y001869D01*
X000944Y001969D01*
X000901Y002070D01*
X000862Y002173D01*
X000826Y002277D01*
X000794Y002382D01*
X000766Y002488D01*
X000741Y002595D01*
X000720Y002703D01*
X000703Y002812D01*
X000689Y002921D01*
X000680Y003030D01*
X000674Y003140D01*
X000672Y003250D01*
D11*
X001393Y003887D03*
X002393Y003887D03*
X002393Y004887D03*
X002393Y005887D03*
X001393Y005887D03*
X001393Y004887D03*
X001393Y006887D03*
X002393Y006887D03*
X002393Y007887D03*
X001393Y007887D03*
X001550Y015439D03*
X002550Y015439D03*
X002550Y016439D03*
X002550Y017439D03*
X001550Y017439D03*
X001550Y016439D03*
X020133Y006994D03*
X021133Y006994D03*
X021133Y005994D03*
X020133Y005994D03*
X020133Y004994D03*
X021133Y004994D03*
X021133Y003994D03*
X020133Y003994D03*
D12*
X018798Y001675D03*
X017798Y001675D03*
X016798Y001675D03*
D13*
X013212Y002198D03*
X012246Y001939D03*
X010358Y001939D03*
X009392Y002198D03*
D14*
X005656Y001294D03*
X004456Y001294D03*
X003956Y002056D03*
D15*
X005056Y002056D03*
D16*
X015889Y018998D03*
X017660Y018998D03*
D17*
X018154Y018017D03*
X015394Y018017D03*
D18*
X014097Y017187D03*
X013231Y015612D03*
X013231Y014431D03*
X013231Y013328D03*
X013231Y012305D03*
X013822Y011163D03*
X013822Y009824D03*
X012483Y009824D03*
X011144Y009824D03*
X011144Y011163D03*
X011144Y012305D03*
X011302Y013328D03*
X011302Y014431D03*
X011302Y015612D03*
X010987Y016832D03*
X010987Y017383D03*
X007759Y016596D03*
X007404Y015730D03*
X006617Y016793D03*
X006774Y017305D03*
X005396Y016399D03*
X004845Y015887D03*
X004019Y015887D03*
X004019Y015336D03*
X004648Y014864D03*
X004412Y014273D03*
X004097Y014234D03*
X003782Y014194D03*
X004097Y013565D03*
X003782Y013486D03*
X004412Y013565D03*
X005672Y012344D03*
X004491Y011557D03*
X003625Y011202D03*
X003477Y011857D03*
X002207Y012856D03*
X001971Y012620D03*
X001223Y012620D03*
X001223Y013407D03*
X002837Y014273D03*
X002837Y015021D03*
X004452Y016675D03*
X004097Y017502D03*
X004097Y018604D03*
X004097Y019470D03*
X004491Y019706D03*
X005042Y020218D03*
X004137Y020769D03*
X006026Y020257D03*
X007011Y020218D03*
X007601Y019706D03*
X007601Y018919D03*
X007916Y020769D03*
X013585Y020336D03*
X017916Y015809D03*
X018782Y015612D03*
X018782Y014431D03*
X018782Y013328D03*
X018782Y012305D03*
X018782Y010572D03*
X017916Y009313D03*
X018546Y008013D03*
X016263Y009431D03*
X015121Y009391D03*
X015121Y010572D03*
X015160Y012305D03*
X015160Y013328D03*
X015160Y014431D03*
X015160Y015612D03*
X016893Y015612D03*
X016893Y014431D03*
X016893Y013328D03*
X016893Y012305D03*
X016893Y010572D03*
X013231Y006754D03*
X012404Y008289D03*
X011735Y008131D03*
X009688Y010292D03*
X008546Y010292D03*
X008074Y009470D03*
X008546Y008958D03*
X009333Y008289D03*
X008822Y007344D03*
X007444Y008171D03*
X006302Y007659D03*
X006341Y008919D03*
X005869Y008919D03*
X005515Y008919D03*
X005160Y008919D03*
X004491Y008998D03*
X003743Y008919D03*
X002995Y008643D03*
X003310Y008092D03*
X001774Y009313D03*
X001932Y009746D03*
X001696Y010651D03*
X001696Y011006D03*
X001696Y011360D03*
X003664Y010021D03*
X004491Y010139D03*
X005357Y010179D03*
X005357Y011006D03*
X006263Y011084D03*
X006971Y010730D03*
X007168Y011242D03*
X007050Y011872D03*
X007247Y012817D03*
X008389Y012305D03*
X009727Y013013D03*
X007522Y014824D03*
X012483Y011163D03*
X007011Y009352D03*
X004767Y006714D03*
X004767Y006360D03*
X004767Y006006D03*
X004767Y005651D03*
X006184Y004667D03*
X006735Y004234D03*
X007877Y004155D03*
X007089Y003131D03*
X001302Y008722D03*
X017365Y002856D03*
D19*
X013231Y006754D02*
X012404Y007580D01*
X012404Y008289D01*
X009688Y010292D02*
X008546Y010292D01*
X007956Y011242D02*
X009727Y013013D01*
X007956Y011242D02*
X007168Y011242D01*
X008546Y008958D02*
X009215Y008289D01*
X009333Y008289D01*
X006302Y007659D02*
X006302Y007265D01*
X004767Y005651D01*
X004767Y006006D02*
X005869Y007108D01*
X005869Y008919D01*
X005515Y008919D02*
X005515Y007108D01*
X004767Y006360D01*
X004767Y006714D02*
X005160Y007108D01*
X005160Y008919D01*
X003477Y011857D02*
X003206Y011857D01*
X002207Y012856D01*
X003782Y013486D02*
X003782Y014194D01*
X004097Y014234D02*
X004097Y013565D01*
X004412Y013565D02*
X004412Y014273D01*
X002837Y015021D02*
X002326Y015021D01*
X002011Y015336D01*
X002011Y015572D01*
X001617Y015966D01*
X001381Y015966D01*
X001105Y016242D01*
X001105Y016994D01*
X001550Y017439D01*
X010987Y017305D02*
X010987Y017383D01*
X010987Y017305D02*
X010987Y016832D01*
X015633Y018998D02*
X015869Y018998D01*
X015889Y018998D01*
D20*
X001203Y001850D02*
X001526Y001366D01*
X001938Y000954D01*
X002422Y000631D01*
X002752Y000494D01*
X019852Y000494D01*
X020182Y000631D01*
X020666Y000954D01*
X021078Y001366D01*
X021401Y001850D01*
X021538Y002180D01*
X021538Y003720D01*
X021331Y003514D01*
X021153Y003514D01*
X021153Y003974D01*
X021113Y003974D01*
X021113Y003514D01*
X020934Y003514D01*
X020653Y003795D01*
X020653Y003974D01*
X021113Y003974D01*
X021113Y004014D01*
X021113Y004474D01*
X020934Y004474D01*
X020653Y004193D01*
X020653Y004014D01*
X021113Y004014D01*
X021153Y004014D01*
X021153Y004474D01*
X021331Y004474D01*
X021538Y004267D01*
X021538Y004720D01*
X021331Y004514D01*
X020934Y004514D01*
X020653Y004795D01*
X020653Y005193D01*
X020934Y005474D01*
X021331Y005474D01*
X021538Y005267D01*
X021538Y005720D01*
X021331Y005514D01*
X020934Y005514D01*
X020653Y005795D01*
X020653Y006193D01*
X020934Y006474D01*
X021331Y006474D01*
X021538Y006267D01*
X021538Y006720D01*
X021331Y006514D01*
X020934Y006514D01*
X020653Y006795D01*
X020653Y007193D01*
X020934Y007474D01*
X021331Y007474D01*
X021538Y007267D01*
X021538Y008581D01*
X019298Y008581D01*
X019193Y008687D01*
X019193Y014781D01*
X019298Y014886D01*
X021538Y014886D01*
X021538Y019279D01*
X020908Y019279D01*
X020928Y019391D02*
X020928Y019391D01*
X020870Y019061D01*
X020702Y018771D01*
X020702Y018771D01*
X020446Y018556D01*
X020446Y018556D01*
X020131Y018441D01*
X019872Y018441D01*
X019796Y018441D01*
X019481Y018556D01*
X019481Y018556D01*
X019224Y018771D01*
X019224Y018771D01*
X019057Y019061D01*
X019057Y019061D01*
X018999Y019391D01*
X018999Y019391D01*
X019057Y019721D01*
X019057Y019721D01*
X019224Y020011D01*
X019224Y020011D01*
X019224Y020011D01*
X019481Y020227D01*
X019481Y020227D01*
X019796Y020341D01*
X020131Y020341D01*
X020446Y020227D01*
X020446Y020227D01*
X020702Y020011D01*
X020702Y020011D01*
X020870Y019721D01*
X020870Y019721D01*
X020928Y019391D01*
X020920Y019437D02*
X021473Y019437D01*
X021538Y019279D02*
X021401Y019610D01*
X021078Y020094D01*
X020666Y020506D01*
X020182Y020829D01*
X019852Y020966D01*
X002981Y020966D01*
X002959Y020960D01*
X002370Y020654D01*
X001852Y020240D01*
X001424Y019732D01*
X001104Y019151D01*
X001066Y019029D01*
X001066Y017280D01*
X001070Y017284D01*
X001070Y017637D01*
X001351Y017919D01*
X001749Y017919D01*
X002030Y017637D01*
X002030Y017240D01*
X001749Y016959D01*
X001395Y016959D01*
X001355Y016919D01*
X001749Y016919D01*
X002030Y016637D01*
X002030Y016240D01*
X001849Y016059D01*
X002170Y015738D01*
X002351Y015919D01*
X002530Y015919D01*
X002530Y015459D01*
X002570Y015459D01*
X002570Y015919D01*
X002749Y015919D01*
X003030Y015637D01*
X003030Y015459D01*
X002570Y015459D01*
X002570Y015419D01*
X003030Y015419D01*
X003030Y015253D01*
X003092Y015191D01*
X003137Y015081D01*
X003137Y014962D01*
X003092Y014851D01*
X003007Y014767D01*
X002897Y014721D01*
X002778Y014721D01*
X002667Y014767D01*
X002643Y014791D01*
X002230Y014791D01*
X002096Y014926D01*
X001915Y015106D01*
X001906Y015116D01*
X001749Y014959D01*
X001351Y014959D01*
X001070Y015240D01*
X001070Y015637D01*
X001227Y015794D01*
X001151Y015871D01*
X001066Y015956D01*
X001066Y008239D01*
X001194Y008367D01*
X001591Y008367D01*
X001873Y008086D01*
X001873Y007689D01*
X001591Y007407D01*
X001194Y007407D01*
X001066Y007535D01*
X001066Y007239D01*
X001194Y007367D01*
X001591Y007367D01*
X001873Y007086D01*
X001873Y006689D01*
X001591Y006407D01*
X001194Y006407D01*
X001066Y006535D01*
X001066Y006239D01*
X001194Y006367D01*
X001591Y006367D01*
X001873Y006086D01*
X001873Y005689D01*
X001591Y005407D01*
X001194Y005407D01*
X001066Y005535D01*
X001066Y005239D01*
X001194Y005367D01*
X001591Y005367D01*
X001873Y005086D01*
X001873Y004689D01*
X001591Y004407D01*
X001194Y004407D01*
X001066Y004535D01*
X001066Y004239D01*
X001194Y004367D01*
X001591Y004367D01*
X001873Y004086D01*
X001873Y003689D01*
X001591Y003407D01*
X001194Y003407D01*
X001066Y003535D01*
X001066Y002180D01*
X001203Y001850D01*
X001207Y001844D02*
X001716Y001844D01*
X001734Y001739D02*
X001734Y001739D01*
X001676Y002069D01*
X001676Y002069D01*
X001734Y002398D01*
X001734Y002398D01*
X001902Y002689D01*
X001902Y002689D01*
X002158Y002904D01*
X002158Y002904D01*
X002473Y003019D01*
X002808Y003019D01*
X003123Y002904D01*
X003123Y002904D01*
X003380Y002689D01*
X003380Y002689D01*
X003547Y002398D01*
X003547Y002398D01*
X003552Y002373D01*
X003667Y002488D01*
X003854Y002566D01*
X004057Y002566D01*
X004245Y002488D01*
X004388Y002345D01*
X004466Y002158D01*
X004466Y001955D01*
X004402Y001801D01*
X004416Y001804D01*
X004456Y001804D01*
X004456Y001294D01*
X004456Y001294D01*
X004456Y001804D01*
X004496Y001804D01*
X004575Y001791D01*
X004611Y001779D01*
X004546Y001845D01*
X004546Y002267D01*
X004845Y002566D01*
X005267Y002566D01*
X005566Y002267D01*
X005566Y001845D01*
X005504Y001782D01*
X005554Y001804D01*
X005757Y001804D01*
X005945Y001726D01*
X006088Y001582D01*
X006166Y001395D01*
X006166Y001192D01*
X006088Y001005D01*
X005945Y000861D01*
X005757Y000784D01*
X005554Y000784D01*
X005367Y000861D01*
X005224Y001005D01*
X005146Y001192D01*
X005146Y001395D01*
X005208Y001546D01*
X004900Y001546D01*
X004929Y001489D01*
X004953Y001413D01*
X004966Y001334D01*
X004966Y001294D01*
X004456Y001294D01*
X004456Y001294D01*
X004456Y001294D01*
X003946Y001294D01*
X003946Y001334D01*
X003958Y001413D01*
X003983Y001489D01*
X004012Y001546D01*
X003854Y001546D01*
X003667Y001624D01*
X003548Y001743D01*
X003547Y001739D01*
X003547Y001739D01*
X003380Y001448D01*
X003380Y001448D01*
X003380Y001448D01*
X003123Y001233D01*
X003123Y001233D01*
X002808Y001119D01*
X002732Y001119D01*
X002473Y001119D01*
X002158Y001233D01*
X002158Y001233D01*
X001902Y001448D01*
X001902Y001448D01*
X001734Y001739D01*
X001765Y001685D02*
X001313Y001685D01*
X001419Y001527D02*
X001857Y001527D01*
X001997Y001368D02*
X001525Y001368D01*
X001682Y001210D02*
X002223Y001210D01*
X002030Y000893D02*
X004140Y000893D01*
X004124Y000905D02*
X004189Y000857D01*
X004260Y000821D01*
X004336Y000796D01*
X004416Y000784D01*
X004456Y000784D01*
X004496Y000784D01*
X004575Y000796D01*
X004652Y000821D01*
X004723Y000857D01*
X004788Y000905D01*
X004845Y000961D01*
X004892Y001026D01*
X004929Y001098D01*
X004953Y001174D01*
X004966Y001253D01*
X004966Y001294D01*
X004456Y001294D01*
X003946Y001294D01*
X003946Y001253D01*
X003958Y001174D01*
X003983Y001098D01*
X004020Y001026D01*
X004067Y000961D01*
X004124Y000905D01*
X004007Y001051D02*
X001841Y001051D01*
X002267Y000734D02*
X020337Y000734D01*
X020574Y000893D02*
X005976Y000893D01*
X006107Y001051D02*
X020763Y001051D01*
X020922Y001210D02*
X020381Y001210D01*
X020446Y001233D02*
X020446Y001233D01*
X020702Y001448D01*
X020702Y001448D01*
X020702Y001448D01*
X020870Y001739D01*
X020928Y002069D01*
X020870Y002398D01*
X020870Y002398D01*
X020702Y002689D01*
X020446Y002904D01*
X020446Y002904D01*
X020131Y003019D01*
X019796Y003019D01*
X019481Y002904D01*
X019224Y002689D01*
X019224Y002689D01*
X019224Y002689D01*
X019057Y002398D01*
X018999Y002069D01*
X018999Y002069D01*
X019007Y002019D01*
X018877Y002073D01*
X018719Y002073D01*
X018573Y002012D01*
X018461Y001900D01*
X018400Y001754D01*
X018400Y001596D01*
X018461Y001449D01*
X018573Y001337D01*
X018719Y001277D01*
X018877Y001277D01*
X019024Y001337D01*
X019136Y001449D01*
X019172Y001538D01*
X019224Y001448D01*
X019481Y001233D01*
X019481Y001233D01*
X019796Y001119D01*
X020055Y001119D01*
X020131Y001119D01*
X020446Y001233D01*
X020606Y001368D02*
X021079Y001368D01*
X021185Y001527D02*
X020747Y001527D01*
X020839Y001685D02*
X021291Y001685D01*
X021397Y001844D02*
X020888Y001844D01*
X020870Y001739D02*
X020870Y001739D01*
X020916Y002002D02*
X021464Y002002D01*
X021530Y002161D02*
X020912Y002161D01*
X020928Y002069D02*
X020928Y002069D01*
X020884Y002319D02*
X021538Y002319D01*
X021538Y002478D02*
X020824Y002478D01*
X020733Y002636D02*
X021538Y002636D01*
X021538Y002795D02*
X020576Y002795D01*
X020702Y002689D02*
X020702Y002689D01*
X020311Y002953D02*
X021538Y002953D01*
X021538Y003112D02*
X001066Y003112D01*
X001066Y003270D02*
X021538Y003270D01*
X021538Y003429D02*
X002612Y003429D01*
X002591Y003407D02*
X002873Y003689D01*
X002873Y004086D01*
X002591Y004367D01*
X002194Y004367D01*
X001913Y004086D01*
X001913Y003689D01*
X002194Y003407D01*
X002591Y003407D01*
X002771Y003587D02*
X019861Y003587D01*
X019934Y003514D02*
X020331Y003514D01*
X020613Y003795D01*
X020613Y004193D01*
X020331Y004474D01*
X019934Y004474D01*
X019653Y004193D01*
X019653Y003795D01*
X019934Y003514D01*
X019702Y003746D02*
X002873Y003746D01*
X002873Y003904D02*
X019653Y003904D01*
X019653Y004063D02*
X002873Y004063D01*
X002738Y004221D02*
X019681Y004221D01*
X019840Y004380D02*
X001066Y004380D01*
X001722Y004538D02*
X002063Y004538D01*
X002194Y004407D02*
X002591Y004407D01*
X002873Y004689D01*
X002873Y005086D01*
X002591Y005367D01*
X002194Y005367D01*
X001913Y005086D01*
X001913Y004689D01*
X002194Y004407D01*
X002047Y004221D02*
X001738Y004221D01*
X001873Y004063D02*
X001913Y004063D01*
X001913Y003904D02*
X001873Y003904D01*
X001873Y003746D02*
X001913Y003746D01*
X002014Y003587D02*
X001771Y003587D01*
X001612Y003429D02*
X002173Y003429D01*
X002293Y002953D02*
X001066Y002953D01*
X001066Y002795D02*
X002028Y002795D01*
X001902Y002689D02*
X001902Y002689D01*
X001871Y002636D02*
X001066Y002636D01*
X001066Y002478D02*
X001780Y002478D01*
X001720Y002319D02*
X001066Y002319D01*
X001074Y002161D02*
X001692Y002161D01*
X001688Y002002D02*
X001140Y002002D01*
X001173Y003429D02*
X001066Y003429D01*
X001873Y004697D02*
X001913Y004697D01*
X001913Y004855D02*
X001873Y004855D01*
X001873Y005014D02*
X001913Y005014D01*
X001998Y005172D02*
X001787Y005172D01*
X001628Y005331D02*
X002157Y005331D01*
X002194Y005407D02*
X002591Y005407D01*
X002873Y005689D01*
X002873Y006086D01*
X002591Y006367D01*
X002194Y006367D01*
X001913Y006086D01*
X001913Y005689D01*
X002194Y005407D01*
X002112Y005489D02*
X001673Y005489D01*
X001831Y005648D02*
X001954Y005648D01*
X001913Y005806D02*
X001873Y005806D01*
X001873Y005965D02*
X001913Y005965D01*
X001949Y006123D02*
X001836Y006123D01*
X001677Y006282D02*
X002108Y006282D01*
X002194Y006407D02*
X002591Y006407D01*
X002873Y006689D01*
X002873Y007086D01*
X002591Y007367D01*
X002194Y007367D01*
X001913Y007086D01*
X001913Y006689D01*
X002194Y006407D01*
X002161Y006440D02*
X001624Y006440D01*
X001782Y006599D02*
X002003Y006599D01*
X001913Y006757D02*
X001873Y006757D01*
X001873Y006916D02*
X001913Y006916D01*
X001913Y007074D02*
X001873Y007074D01*
X001726Y007233D02*
X002059Y007233D01*
X002194Y007407D02*
X002591Y007407D01*
X002873Y007689D01*
X002873Y008086D01*
X002591Y008367D01*
X002194Y008367D01*
X001913Y008086D01*
X001913Y007689D01*
X002194Y007407D01*
X002052Y007550D02*
X001733Y007550D01*
X001873Y007708D02*
X001913Y007708D01*
X001913Y007867D02*
X001873Y007867D01*
X001873Y008025D02*
X001913Y008025D01*
X002010Y008184D02*
X001775Y008184D01*
X001617Y008342D02*
X002168Y008342D01*
X002617Y008342D02*
X004930Y008342D01*
X004930Y008184D02*
X002775Y008184D01*
X002873Y008025D02*
X004930Y008025D01*
X004930Y007867D02*
X002873Y007867D01*
X002873Y007708D02*
X004930Y007708D01*
X004930Y007550D02*
X002733Y007550D01*
X002726Y007233D02*
X004930Y007233D01*
X004930Y007203D02*
X004741Y007014D01*
X004707Y007014D01*
X004597Y006969D01*
X004512Y006884D01*
X004467Y006774D01*
X004467Y006654D01*
X004512Y006544D01*
X004519Y006537D01*
X004512Y006530D01*
X004467Y006420D01*
X004467Y006300D01*
X004512Y006190D01*
X004519Y006183D01*
X004512Y006175D01*
X004467Y006065D01*
X004467Y005946D01*
X004512Y005836D01*
X004519Y005828D01*
X004512Y005821D01*
X004467Y005711D01*
X004467Y005592D01*
X004512Y005481D01*
X004597Y005397D01*
X004707Y005351D01*
X004826Y005351D01*
X004936Y005397D01*
X005021Y005481D01*
X005067Y005592D01*
X005067Y005633D01*
X006467Y007105D01*
X006532Y007170D01*
X006532Y007173D01*
X006534Y007176D01*
X006532Y007268D01*
X006532Y007465D01*
X006556Y007489D01*
X006602Y007599D01*
X006602Y007719D01*
X006556Y007829D01*
X006472Y007913D01*
X006362Y007959D01*
X006242Y007959D01*
X006132Y007913D01*
X006099Y007880D01*
X006099Y008725D01*
X006123Y008749D01*
X006169Y008859D01*
X006169Y008979D01*
X006123Y009089D01*
X006039Y009173D01*
X005929Y009219D01*
X005809Y009219D01*
X005699Y009173D01*
X005692Y009166D01*
X005685Y009173D01*
X005574Y009219D01*
X005455Y009219D01*
X005345Y009173D01*
X005337Y009166D01*
X005330Y009173D01*
X005220Y009219D01*
X005101Y009219D01*
X004990Y009173D01*
X004906Y009089D01*
X004860Y008979D01*
X004860Y008859D01*
X004906Y008749D01*
X004930Y008725D01*
X004930Y007203D01*
X004801Y007074D02*
X002873Y007074D01*
X002873Y006916D02*
X004544Y006916D01*
X004467Y006757D02*
X002873Y006757D01*
X002782Y006599D02*
X004490Y006599D01*
X004475Y006440D02*
X002624Y006440D01*
X002677Y006282D02*
X004474Y006282D01*
X004490Y006123D02*
X002836Y006123D01*
X002873Y005965D02*
X004467Y005965D01*
X004506Y005806D02*
X002873Y005806D01*
X002831Y005648D02*
X004467Y005648D01*
X004509Y005489D02*
X002673Y005489D01*
X002628Y005331D02*
X019791Y005331D01*
X019653Y005193D02*
X019653Y004795D01*
X019934Y004514D01*
X020331Y004514D01*
X020613Y004795D01*
X020613Y005193D01*
X020331Y005474D01*
X019934Y005474D01*
X019653Y005193D01*
X019653Y005172D02*
X002787Y005172D01*
X002873Y005014D02*
X019653Y005014D01*
X019653Y004855D02*
X002873Y004855D01*
X002873Y004697D02*
X019751Y004697D01*
X019910Y004538D02*
X002722Y004538D01*
X002988Y002953D02*
X019616Y002953D01*
X019481Y002904D02*
X019481Y002904D01*
X019351Y002795D02*
X003253Y002795D01*
X003231Y002856D02*
X003319Y002961D01*
X003231Y002856D01*
X003410Y002636D02*
X019194Y002636D01*
X019103Y002478D02*
X013551Y002478D01*
X013583Y002446D02*
X013460Y002569D01*
X013299Y002635D01*
X013125Y002635D01*
X012964Y002569D01*
X012841Y002446D01*
X012775Y002285D01*
X012775Y002111D01*
X012841Y001950D01*
X012964Y001827D01*
X013125Y001760D01*
X013299Y001760D01*
X013460Y001827D01*
X013583Y001950D01*
X013650Y002111D01*
X013650Y002285D01*
X013583Y002446D01*
X013635Y002319D02*
X019043Y002319D01*
X019057Y002398D02*
X019057Y002398D01*
X019015Y002161D02*
X013650Y002161D01*
X013604Y002002D02*
X016562Y002002D01*
X016573Y002012D02*
X016461Y001900D01*
X016400Y001754D01*
X016400Y001596D01*
X016461Y001449D01*
X016573Y001337D01*
X016719Y001277D01*
X016877Y001277D01*
X017024Y001337D01*
X017136Y001449D01*
X017196Y001596D01*
X017196Y001754D01*
X017136Y001900D01*
X017024Y002012D01*
X016877Y002073D01*
X016719Y002073D01*
X016573Y002012D01*
X016437Y001844D02*
X013476Y001844D01*
X012948Y001844D02*
X012680Y001844D01*
X012684Y001852D02*
X012617Y001691D01*
X012494Y001568D01*
X012333Y001502D01*
X012159Y001502D01*
X011998Y001568D01*
X011875Y001691D01*
X011809Y001852D01*
X011809Y002026D01*
X011875Y002187D01*
X011998Y002310D01*
X012159Y002377D01*
X012333Y002377D01*
X012494Y002310D01*
X012617Y002187D01*
X012684Y002026D01*
X012684Y001852D01*
X012684Y002002D02*
X012820Y002002D01*
X012775Y002161D02*
X012628Y002161D01*
X012472Y002319D02*
X012789Y002319D01*
X012873Y002478D02*
X009731Y002478D01*
X009763Y002446D02*
X009640Y002569D01*
X009479Y002635D01*
X009305Y002635D01*
X009144Y002569D01*
X009021Y002446D01*
X008954Y002285D01*
X008954Y002111D01*
X009021Y001950D01*
X009144Y001827D01*
X009305Y001760D01*
X009479Y001760D01*
X009640Y001827D01*
X009763Y001950D01*
X009829Y002111D01*
X009829Y002285D01*
X009763Y002446D01*
X009815Y002319D02*
X010132Y002319D01*
X010110Y002310D02*
X009987Y002187D01*
X009920Y002026D01*
X009920Y001852D01*
X009987Y001691D01*
X010110Y001568D01*
X010271Y001502D01*
X010445Y001502D01*
X010606Y001568D01*
X010729Y001691D01*
X010795Y001852D01*
X010795Y002026D01*
X010729Y002187D01*
X010606Y002310D01*
X010445Y002377D01*
X010271Y002377D01*
X010110Y002310D01*
X009976Y002161D02*
X009829Y002161D01*
X009784Y002002D02*
X009920Y002002D01*
X009924Y001844D02*
X009656Y001844D01*
X009993Y001685D02*
X005986Y001685D01*
X006111Y001527D02*
X010211Y001527D01*
X010505Y001527D02*
X012099Y001527D01*
X011882Y001685D02*
X010722Y001685D01*
X010792Y001844D02*
X011812Y001844D01*
X011809Y002002D02*
X010795Y002002D01*
X010740Y002161D02*
X011864Y002161D01*
X012020Y002319D02*
X010584Y002319D01*
X009128Y001844D02*
X005565Y001844D01*
X005566Y002002D02*
X008999Y002002D01*
X008954Y002161D02*
X005566Y002161D01*
X005514Y002319D02*
X008968Y002319D01*
X009053Y002478D02*
X005356Y002478D01*
X004756Y002478D02*
X004256Y002478D01*
X004399Y002319D02*
X004598Y002319D01*
X004546Y002161D02*
X004465Y002161D01*
X004466Y002002D02*
X004546Y002002D01*
X004547Y001844D02*
X004420Y001844D01*
X004456Y001685D02*
X004456Y001685D01*
X004456Y001527D02*
X004456Y001527D01*
X004456Y001368D02*
X004456Y001368D01*
X004456Y001294D02*
X004456Y000784D01*
X004456Y001294D01*
X004456Y001294D01*
X004456Y001210D02*
X004456Y001210D01*
X004456Y001051D02*
X004456Y001051D01*
X004456Y000893D02*
X004456Y000893D01*
X004772Y000893D02*
X005336Y000893D01*
X005204Y001051D02*
X004905Y001051D01*
X004959Y001210D02*
X005146Y001210D01*
X005146Y001368D02*
X004960Y001368D01*
X004910Y001527D02*
X005200Y001527D01*
X006166Y001368D02*
X016542Y001368D01*
X016429Y001527D02*
X012393Y001527D01*
X012611Y001685D02*
X016400Y001685D01*
X017034Y002002D02*
X017571Y002002D01*
X017544Y001984D02*
X017489Y001929D01*
X017445Y001863D01*
X017415Y001791D01*
X017400Y001714D01*
X017400Y001675D01*
X017798Y001675D01*
X017798Y002073D01*
X017759Y002073D01*
X017682Y002058D01*
X017609Y002028D01*
X017544Y001984D01*
X017437Y001844D02*
X017159Y001844D01*
X017196Y001685D02*
X017400Y001685D01*
X017400Y001675D02*
X017400Y001636D01*
X017415Y001559D01*
X017445Y001486D01*
X017489Y001421D01*
X017544Y001366D01*
X017609Y001322D01*
X017682Y001292D01*
X017759Y001277D01*
X017798Y001277D01*
X017798Y001675D01*
X017798Y001675D01*
X017798Y002073D01*
X017837Y002073D01*
X017914Y002058D01*
X017987Y002028D01*
X018052Y001984D01*
X018107Y001929D01*
X018151Y001863D01*
X018181Y001791D01*
X018196Y001714D01*
X018196Y001675D01*
X017798Y001675D01*
X017798Y001675D01*
X017798Y001675D01*
X017400Y001675D01*
X017429Y001527D02*
X017168Y001527D01*
X017054Y001368D02*
X017542Y001368D01*
X017798Y001368D02*
X017798Y001368D01*
X017798Y001277D02*
X017837Y001277D01*
X017914Y001292D01*
X017987Y001322D01*
X018052Y001366D01*
X018107Y001421D01*
X018151Y001486D01*
X018181Y001559D01*
X018196Y001636D01*
X018196Y001675D01*
X017798Y001675D01*
X017798Y001675D01*
X017798Y001277D01*
X017798Y001527D02*
X017798Y001527D01*
X017798Y001685D02*
X017798Y001685D01*
X017798Y001844D02*
X017798Y001844D01*
X017798Y002002D02*
X017798Y002002D01*
X018025Y002002D02*
X018562Y002002D01*
X018437Y001844D02*
X018159Y001844D01*
X018196Y001685D02*
X018400Y001685D01*
X018429Y001527D02*
X018168Y001527D01*
X018054Y001368D02*
X018542Y001368D01*
X019054Y001368D02*
X019320Y001368D01*
X019224Y001448D02*
X019224Y001448D01*
X019179Y001527D02*
X019168Y001527D01*
X019546Y001210D02*
X006166Y001210D01*
X004002Y001527D02*
X003425Y001527D01*
X003516Y001685D02*
X003606Y001685D01*
X003284Y001368D02*
X003951Y001368D01*
X003953Y001210D02*
X003058Y001210D01*
X002555Y000576D02*
X020049Y000576D01*
X020131Y001119D02*
X020131Y001119D01*
X020405Y003587D02*
X020861Y003587D01*
X020702Y003746D02*
X020563Y003746D01*
X020613Y003904D02*
X020653Y003904D01*
X020653Y004063D02*
X020613Y004063D01*
X020584Y004221D02*
X020681Y004221D01*
X020840Y004380D02*
X020426Y004380D01*
X020356Y004538D02*
X020910Y004538D01*
X020751Y004697D02*
X020514Y004697D01*
X020613Y004855D02*
X020653Y004855D01*
X020653Y005014D02*
X020613Y005014D01*
X020613Y005172D02*
X020653Y005172D01*
X020791Y005331D02*
X020475Y005331D01*
X020331Y005514D02*
X020613Y005795D01*
X020613Y006193D01*
X020331Y006474D01*
X019934Y006474D01*
X019653Y006193D01*
X019653Y005795D01*
X019934Y005514D01*
X020331Y005514D01*
X020465Y005648D02*
X020800Y005648D01*
X020653Y005806D02*
X020613Y005806D01*
X020613Y005965D02*
X020653Y005965D01*
X020653Y006123D02*
X020613Y006123D01*
X020524Y006282D02*
X020742Y006282D01*
X020900Y006440D02*
X020365Y006440D01*
X020331Y006514D02*
X020613Y006795D01*
X020613Y006974D01*
X020153Y006974D01*
X020153Y007014D01*
X020613Y007014D01*
X020613Y007193D01*
X020331Y007474D01*
X020153Y007474D01*
X020153Y007014D01*
X020113Y007014D01*
X020113Y007474D01*
X019934Y007474D01*
X019653Y007193D01*
X019653Y007014D01*
X020113Y007014D01*
X020113Y006974D01*
X019653Y006974D01*
X019653Y006795D01*
X019934Y006514D01*
X020113Y006514D01*
X020113Y006974D01*
X020153Y006974D01*
X020153Y006514D01*
X020331Y006514D01*
X020416Y006599D02*
X020849Y006599D01*
X020691Y006757D02*
X020575Y006757D01*
X020613Y006916D02*
X020653Y006916D01*
X020653Y007074D02*
X020613Y007074D01*
X020573Y007233D02*
X020693Y007233D01*
X020851Y007391D02*
X020414Y007391D01*
X020153Y007391D02*
X020113Y007391D01*
X020113Y007233D02*
X020153Y007233D01*
X020153Y007074D02*
X020113Y007074D01*
X020113Y006916D02*
X020153Y006916D01*
X020153Y006757D02*
X020113Y006757D01*
X020113Y006599D02*
X020153Y006599D01*
X019900Y006440D02*
X005834Y006440D01*
X005684Y006282D02*
X019742Y006282D01*
X019653Y006123D02*
X005533Y006123D01*
X005382Y005965D02*
X019653Y005965D01*
X019653Y005806D02*
X005231Y005806D01*
X005080Y005648D02*
X019800Y005648D01*
X019849Y006599D02*
X013492Y006599D01*
X013485Y006584D02*
X013531Y006694D01*
X013531Y006813D01*
X013485Y006923D01*
X013401Y007008D01*
X013291Y007054D01*
X013256Y007054D01*
X012634Y007676D01*
X012634Y008095D01*
X012659Y008119D01*
X012704Y008229D01*
X012704Y008349D01*
X012659Y008459D01*
X012574Y008543D01*
X012464Y008589D01*
X012345Y008589D01*
X012234Y008543D01*
X012150Y008459D01*
X012104Y008349D01*
X012104Y008229D01*
X012150Y008119D01*
X012174Y008095D01*
X012174Y007485D01*
X012931Y006728D01*
X012931Y006694D01*
X012977Y006584D01*
X013061Y006499D01*
X013171Y006454D01*
X013291Y006454D01*
X013401Y006499D01*
X013485Y006584D01*
X013531Y006757D02*
X019691Y006757D01*
X019653Y006916D02*
X013489Y006916D01*
X013236Y007074D02*
X019653Y007074D01*
X019693Y007233D02*
X013077Y007233D01*
X012919Y007391D02*
X019851Y007391D01*
X019221Y008659D02*
X009171Y008659D01*
X009250Y008579D02*
X008846Y008984D01*
X008846Y009018D01*
X008800Y009128D01*
X008716Y009213D01*
X008606Y009258D01*
X008486Y009258D01*
X008376Y009213D01*
X008292Y009128D01*
X008246Y009018D01*
X008246Y008899D01*
X008292Y008788D01*
X008376Y008704D01*
X008486Y008658D01*
X008521Y008658D01*
X008985Y008194D01*
X009120Y008059D01*
X009139Y008059D01*
X009164Y008035D01*
X009274Y007989D01*
X009393Y007989D01*
X009503Y008035D01*
X009588Y008119D01*
X009633Y008229D01*
X009633Y008349D01*
X009588Y008459D01*
X009503Y008543D01*
X009393Y008589D01*
X009274Y008589D01*
X009250Y008579D01*
X009012Y008818D02*
X019193Y008818D01*
X019193Y008976D02*
X008854Y008976D01*
X008794Y009135D02*
X019193Y009135D01*
X019193Y009293D02*
X001066Y009293D01*
X001066Y009135D02*
X004952Y009135D01*
X004860Y008976D02*
X001066Y008976D01*
X001066Y008818D02*
X004878Y008818D01*
X004930Y008659D02*
X001066Y008659D01*
X001066Y008501D02*
X004930Y008501D01*
X004930Y007391D02*
X001066Y007391D01*
X001066Y006440D02*
X001161Y006440D01*
X001108Y006282D02*
X001066Y006282D01*
X001066Y005489D02*
X001112Y005489D01*
X001066Y005331D02*
X001157Y005331D01*
X003501Y002478D02*
X003656Y002478D01*
X005024Y005489D02*
X021538Y005489D01*
X021538Y005331D02*
X021475Y005331D01*
X021465Y005648D02*
X021538Y005648D01*
X021524Y006282D02*
X021538Y006282D01*
X021538Y006440D02*
X021365Y006440D01*
X021416Y006599D02*
X021538Y006599D01*
X021538Y007391D02*
X021414Y007391D01*
X021538Y007550D02*
X012760Y007550D01*
X012634Y007708D02*
X021538Y007708D01*
X021538Y007867D02*
X012634Y007867D01*
X012634Y008025D02*
X021538Y008025D01*
X021538Y008184D02*
X012685Y008184D01*
X012704Y008342D02*
X021538Y008342D01*
X021538Y008501D02*
X012617Y008501D01*
X012192Y008501D02*
X009546Y008501D01*
X009633Y008342D02*
X012104Y008342D01*
X012123Y008184D02*
X009614Y008184D01*
X009480Y008025D02*
X012174Y008025D01*
X012174Y007867D02*
X006519Y007867D01*
X006602Y007708D02*
X012174Y007708D01*
X012174Y007550D02*
X006581Y007550D01*
X006532Y007391D02*
X012268Y007391D01*
X012427Y007233D02*
X006533Y007233D01*
X006437Y007074D02*
X012585Y007074D01*
X012744Y006916D02*
X006287Y006916D01*
X006136Y006757D02*
X012902Y006757D01*
X012971Y006599D02*
X005985Y006599D01*
X006099Y008025D02*
X009187Y008025D01*
X008996Y008184D02*
X006099Y008184D01*
X006099Y008342D02*
X008837Y008342D01*
X008679Y008501D02*
X006099Y008501D01*
X006099Y008659D02*
X008485Y008659D01*
X008280Y008818D02*
X006152Y008818D01*
X006169Y008976D02*
X008246Y008976D01*
X008298Y009135D02*
X006078Y009135D01*
X006998Y010987D02*
X007108Y010942D01*
X007228Y010942D01*
X007338Y010987D01*
X007362Y011012D01*
X008051Y011012D01*
X009752Y012713D01*
X009787Y012713D01*
X009897Y012759D01*
X009981Y012843D01*
X010027Y012954D01*
X010027Y013073D01*
X009981Y013183D01*
X009897Y013268D01*
X009787Y013313D01*
X009667Y013313D01*
X009557Y013268D01*
X009473Y013183D01*
X009427Y013073D01*
X009427Y013039D01*
X007860Y011472D01*
X007362Y011472D01*
X007338Y011496D01*
X007228Y011542D01*
X007108Y011542D01*
X006998Y011496D01*
X006914Y011412D01*
X006868Y011301D01*
X006868Y011182D01*
X006914Y011072D01*
X006998Y010987D01*
X006949Y011037D02*
X001066Y011037D01*
X001066Y011195D02*
X006868Y011195D01*
X006890Y011354D02*
X001066Y011354D01*
X001066Y011512D02*
X007037Y011512D01*
X007300Y011512D02*
X007901Y011512D01*
X008059Y011671D02*
X003715Y011671D01*
X003731Y011687D02*
X003777Y011797D01*
X003777Y011917D01*
X003731Y012027D01*
X003647Y012111D01*
X003537Y012157D01*
X003417Y012157D01*
X003307Y012111D01*
X003292Y012096D01*
X002507Y012881D01*
X002507Y012916D01*
X002462Y013026D01*
X002377Y013110D01*
X002267Y013156D01*
X002148Y013156D01*
X002038Y013110D01*
X001953Y013026D01*
X001907Y012916D01*
X001907Y012796D01*
X001953Y012686D01*
X002038Y012602D01*
X002148Y012556D01*
X002182Y012556D01*
X003111Y011627D01*
X003283Y011627D01*
X003307Y011603D01*
X003417Y011557D01*
X003537Y011557D01*
X003647Y011603D01*
X003731Y011687D01*
X003777Y011829D02*
X008218Y011829D01*
X008376Y011988D02*
X003748Y011988D01*
X003563Y012146D02*
X008535Y012146D01*
X008693Y012305D02*
X003084Y012305D01*
X002926Y012463D02*
X008852Y012463D01*
X009010Y012622D02*
X002767Y012622D01*
X002609Y012780D02*
X009169Y012780D01*
X009327Y012939D02*
X002498Y012939D01*
X002391Y013097D02*
X009437Y013097D01*
X009545Y013256D02*
X003976Y013256D01*
X003952Y013231D02*
X004001Y013280D01*
X004038Y013265D01*
X004157Y013265D01*
X004255Y013305D01*
X004353Y013265D01*
X004472Y013265D01*
X004582Y013310D01*
X004667Y013395D01*
X004712Y013505D01*
X004712Y013624D01*
X004667Y013735D01*
X004642Y013759D01*
X004642Y014079D01*
X004667Y014103D01*
X004712Y014214D01*
X004712Y014333D01*
X004667Y014443D01*
X004582Y014528D01*
X004472Y014573D01*
X004353Y014573D01*
X004242Y014528D01*
X004222Y014507D01*
X004157Y014534D01*
X004038Y014534D01*
X003927Y014488D01*
X003907Y014468D01*
X003842Y014494D01*
X003723Y014494D01*
X003612Y014449D01*
X003528Y014364D01*
X003482Y014254D01*
X003482Y014135D01*
X003528Y014025D01*
X003552Y014000D01*
X003552Y013680D01*
X003528Y013656D01*
X003482Y013546D01*
X003482Y013426D01*
X003528Y013316D01*
X003612Y013231D01*
X003723Y013186D01*
X003842Y013186D01*
X003952Y013231D01*
X003588Y013256D02*
X001066Y013256D01*
X001066Y013414D02*
X003487Y013414D01*
X003493Y013573D02*
X001066Y013573D01*
X001066Y013731D02*
X003552Y013731D01*
X003552Y013890D02*
X001066Y013890D01*
X001066Y014048D02*
X003518Y014048D01*
X003482Y014207D02*
X001066Y014207D01*
X001066Y014365D02*
X003529Y014365D01*
X004013Y014524D02*
X001066Y014524D01*
X001066Y014682D02*
X019193Y014682D01*
X019193Y014524D02*
X004586Y014524D01*
X004699Y014365D02*
X019193Y014365D01*
X019193Y014207D02*
X004709Y014207D01*
X004642Y014048D02*
X019193Y014048D01*
X019193Y013890D02*
X004642Y013890D01*
X004668Y013731D02*
X019193Y013731D01*
X019193Y013573D02*
X004712Y013573D01*
X004675Y013414D02*
X019193Y013414D01*
X019193Y013256D02*
X009909Y013256D01*
X010017Y013097D02*
X019193Y013097D01*
X019193Y012939D02*
X010021Y012939D01*
X009918Y012780D02*
X019193Y012780D01*
X019193Y012622D02*
X009661Y012622D01*
X009502Y012463D02*
X019193Y012463D01*
X019193Y012305D02*
X009344Y012305D01*
X009185Y012146D02*
X019193Y012146D01*
X019193Y011988D02*
X009027Y011988D01*
X008868Y011829D02*
X019193Y011829D01*
X019193Y011671D02*
X008710Y011671D01*
X008551Y011512D02*
X019193Y011512D01*
X019193Y011354D02*
X008393Y011354D01*
X008234Y011195D02*
X019193Y011195D01*
X019193Y011037D02*
X008076Y011037D01*
X008376Y010546D02*
X008292Y010462D01*
X008246Y010352D01*
X008246Y010232D01*
X008292Y010122D01*
X008376Y010038D01*
X008486Y009992D01*
X008606Y009992D01*
X008716Y010038D01*
X008740Y010062D01*
X009494Y010062D01*
X009518Y010038D01*
X009628Y009992D01*
X009747Y009992D01*
X009858Y010038D01*
X009942Y010122D01*
X009988Y010232D01*
X009988Y010352D01*
X009942Y010462D01*
X009858Y010546D01*
X009747Y010592D01*
X009628Y010592D01*
X009518Y010546D01*
X009494Y010522D01*
X008740Y010522D01*
X008716Y010546D01*
X008606Y010592D01*
X008486Y010592D01*
X008376Y010546D01*
X008412Y010561D02*
X001066Y010561D01*
X001066Y010403D02*
X008267Y010403D01*
X008246Y010244D02*
X001066Y010244D01*
X001066Y010086D02*
X008328Y010086D01*
X008680Y010561D02*
X009553Y010561D01*
X009822Y010561D02*
X019193Y010561D01*
X019193Y010403D02*
X009967Y010403D01*
X009988Y010244D02*
X019193Y010244D01*
X019193Y010086D02*
X009906Y010086D01*
X004238Y014524D02*
X004182Y014524D01*
X003137Y014999D02*
X021538Y014999D01*
X021538Y015158D02*
X003106Y015158D01*
X003030Y015316D02*
X021538Y015316D01*
X021538Y015475D02*
X003030Y015475D01*
X003030Y015633D02*
X021538Y015633D01*
X021538Y015792D02*
X002876Y015792D01*
X002749Y015959D02*
X003030Y016240D01*
X003030Y016637D01*
X002749Y016919D01*
X002351Y016919D01*
X002070Y016637D01*
X002070Y016240D01*
X002351Y015959D01*
X002749Y015959D01*
X002899Y016109D02*
X021538Y016109D01*
X021538Y016267D02*
X003030Y016267D01*
X003030Y016426D02*
X021538Y016426D01*
X021538Y016584D02*
X011163Y016584D01*
X011157Y016578D02*
X011241Y016662D01*
X011287Y016773D01*
X011287Y016892D01*
X011241Y017002D01*
X011217Y017027D01*
X011217Y017189D01*
X011241Y017214D01*
X011287Y017324D01*
X011287Y017443D01*
X011241Y017553D01*
X011157Y017638D01*
X011047Y017683D01*
X010927Y017683D01*
X010817Y017638D01*
X010733Y017553D01*
X010687Y017443D01*
X010687Y017324D01*
X010733Y017214D01*
X010757Y017189D01*
X010757Y017027D01*
X010733Y017002D01*
X010687Y016892D01*
X010687Y016773D01*
X010733Y016662D01*
X010817Y016578D01*
X010927Y016532D01*
X011047Y016532D01*
X011157Y016578D01*
X011275Y016743D02*
X021538Y016743D01*
X021538Y016901D02*
X011283Y016901D01*
X011217Y017060D02*
X021538Y017060D01*
X021538Y017218D02*
X011243Y017218D01*
X011287Y017377D02*
X021538Y017377D01*
X021538Y017535D02*
X018455Y017535D01*
X018451Y017533D02*
X018524Y017585D01*
X018587Y017648D01*
X018639Y017720D01*
X018680Y017800D01*
X018707Y017885D01*
X018720Y017968D01*
X018203Y017968D01*
X018203Y017451D01*
X018287Y017464D01*
X018372Y017492D01*
X018451Y017533D01*
X018620Y017694D02*
X021538Y017694D01*
X021538Y017852D02*
X018697Y017852D01*
X018720Y018066D02*
X018707Y018150D01*
X018680Y018235D01*
X018639Y018314D01*
X018587Y018387D01*
X018524Y018450D01*
X018451Y018502D01*
X018372Y018543D01*
X018287Y018570D01*
X018203Y018583D01*
X018203Y018066D01*
X018720Y018066D01*
X018701Y018169D02*
X021538Y018169D01*
X021538Y018011D02*
X018203Y018011D01*
X018203Y017968D02*
X018203Y018066D01*
X018105Y018066D01*
X018105Y017968D01*
X017588Y017968D01*
X017601Y017885D01*
X017629Y017800D01*
X017670Y017720D01*
X017722Y017648D01*
X017785Y017585D01*
X017857Y017533D01*
X017937Y017492D01*
X018022Y017464D01*
X018105Y017451D01*
X018105Y017968D01*
X018203Y017968D01*
X018105Y018011D02*
X015443Y018011D01*
X015443Y017968D02*
X015443Y018066D01*
X015346Y018066D01*
X015346Y018583D01*
X015262Y018570D01*
X015177Y018543D01*
X015097Y018502D01*
X015025Y018450D01*
X014962Y018387D01*
X014910Y018314D01*
X014869Y018235D01*
X014842Y018150D01*
X014828Y018066D01*
X015346Y018066D01*
X015346Y017968D01*
X015443Y017968D01*
X015443Y017451D01*
X015527Y017464D01*
X015612Y017492D01*
X015692Y017533D01*
X015764Y017585D01*
X015827Y017648D01*
X015879Y017720D01*
X015920Y017800D01*
X015947Y017885D01*
X015961Y017968D01*
X015443Y017968D01*
X015394Y018017D02*
X015357Y018013D01*
X015003Y018013D01*
X014097Y017187D01*
X014910Y017720D02*
X014962Y017648D01*
X015025Y017585D01*
X015097Y017533D01*
X015177Y017492D01*
X015262Y017464D01*
X015346Y017451D01*
X015346Y017968D01*
X014828Y017968D01*
X014842Y017885D01*
X014869Y017800D01*
X014910Y017720D01*
X014929Y017694D02*
X002974Y017694D01*
X003030Y017637D02*
X002749Y017919D01*
X002351Y017919D01*
X002070Y017637D01*
X002070Y017240D01*
X002351Y016959D01*
X002749Y016959D01*
X003030Y017240D01*
X003030Y017637D01*
X003030Y017535D02*
X010725Y017535D01*
X010687Y017377D02*
X003030Y017377D01*
X003008Y017218D02*
X010731Y017218D01*
X010757Y017060D02*
X002850Y017060D01*
X002766Y016901D02*
X010691Y016901D01*
X010699Y016743D02*
X002925Y016743D01*
X003030Y016584D02*
X010811Y016584D01*
X011249Y017535D02*
X015094Y017535D01*
X015346Y017535D02*
X015443Y017535D01*
X015443Y017694D02*
X015346Y017694D01*
X015346Y017852D02*
X015443Y017852D01*
X015346Y018011D02*
X001066Y018011D01*
X001066Y018169D02*
X014848Y018169D01*
X014919Y018328D02*
X001066Y018328D01*
X001066Y018486D02*
X002350Y018486D01*
X002473Y018441D02*
X002158Y018556D01*
X002158Y018556D01*
X001902Y018771D01*
X001902Y018771D01*
X001734Y019061D01*
X001734Y019061D01*
X001676Y019391D01*
X001676Y019391D01*
X001734Y019721D01*
X001734Y019721D01*
X001902Y020011D01*
X001902Y020011D01*
X001902Y020011D01*
X002158Y020227D01*
X002158Y020227D01*
X002473Y020341D01*
X002808Y020341D01*
X003123Y020227D01*
X003123Y020227D01*
X003380Y020011D01*
X003380Y020011D01*
X003547Y019721D01*
X003547Y019721D01*
X003605Y019391D01*
X003605Y019391D01*
X003547Y019061D01*
X003547Y019061D01*
X003380Y018771D01*
X003380Y018771D01*
X003380Y018771D01*
X003123Y018556D01*
X003123Y018556D01*
X002808Y018441D01*
X002549Y018441D01*
X002473Y018441D01*
X002931Y018486D02*
X015075Y018486D01*
X015346Y018486D02*
X015443Y018486D01*
X015443Y018583D02*
X015527Y018570D01*
X015612Y018543D01*
X015692Y018502D01*
X015764Y018450D01*
X015827Y018387D01*
X015879Y018314D01*
X015920Y018235D01*
X015947Y018150D01*
X015961Y018066D01*
X015443Y018066D01*
X015443Y018583D01*
X015567Y018645D02*
X003228Y018645D01*
X003398Y018803D02*
X015453Y018803D01*
X015484Y018728D02*
X015618Y018593D01*
X015794Y018521D01*
X015983Y018521D01*
X016159Y018593D01*
X016293Y018728D01*
X016365Y018903D01*
X016365Y019092D01*
X016293Y019268D01*
X016159Y019402D01*
X015983Y019474D01*
X015794Y019474D01*
X015618Y019402D01*
X015484Y019268D01*
X015418Y019109D01*
X015403Y019093D01*
X015403Y018902D01*
X015418Y018887D01*
X015484Y018728D01*
X015403Y018962D02*
X003489Y018962D01*
X003557Y019120D02*
X015423Y019120D01*
X015495Y019279D02*
X003585Y019279D01*
X003597Y019437D02*
X015703Y019437D01*
X016074Y019437D02*
X017472Y019437D01*
X017477Y019440D02*
X017410Y019405D01*
X017350Y019361D01*
X017297Y019308D01*
X017252Y019248D01*
X017218Y019181D01*
X017195Y019109D01*
X017183Y019035D01*
X017183Y019016D01*
X017642Y019016D01*
X017642Y019474D01*
X017623Y019474D01*
X017549Y019463D01*
X017477Y019440D01*
X017642Y019437D02*
X017679Y019437D01*
X017679Y019474D02*
X017698Y019474D01*
X017772Y019463D01*
X017843Y019440D01*
X017910Y019405D01*
X017971Y019361D01*
X018024Y019308D01*
X018068Y019248D01*
X018102Y019181D01*
X018125Y019109D01*
X018137Y019035D01*
X018137Y019016D01*
X017679Y019016D01*
X017679Y018979D01*
X018137Y018979D01*
X018137Y018960D01*
X018125Y018886D01*
X018102Y018815D01*
X018068Y018748D01*
X018024Y018687D01*
X017971Y018634D01*
X017910Y018590D01*
X017843Y018556D01*
X017772Y018533D01*
X017698Y018521D01*
X017679Y018521D01*
X017679Y018979D01*
X017642Y018979D01*
X017642Y018521D01*
X017623Y018521D01*
X017549Y018533D01*
X017477Y018556D01*
X017410Y018590D01*
X017350Y018634D01*
X017297Y018687D01*
X017252Y018748D01*
X017218Y018815D01*
X017195Y018886D01*
X017183Y018960D01*
X017183Y018979D01*
X017642Y018979D01*
X017642Y019016D01*
X017679Y019016D01*
X017679Y019474D01*
X017848Y019437D02*
X019007Y019437D01*
X019019Y019279D02*
X018046Y019279D01*
X018122Y019120D02*
X019047Y019120D01*
X019115Y018962D02*
X018137Y018962D01*
X018096Y018803D02*
X019206Y018803D01*
X019375Y018645D02*
X017981Y018645D01*
X018022Y018570D02*
X017937Y018543D01*
X017857Y018502D01*
X017785Y018450D01*
X017722Y018387D01*
X017670Y018314D01*
X017629Y018235D01*
X017601Y018150D01*
X017588Y018066D01*
X018105Y018066D01*
X018105Y018583D01*
X018022Y018570D01*
X018105Y018486D02*
X018203Y018486D01*
X018203Y018328D02*
X018105Y018328D01*
X018105Y018169D02*
X018203Y018169D01*
X018474Y018486D02*
X019673Y018486D01*
X020254Y018486D02*
X021538Y018486D01*
X021538Y018328D02*
X018630Y018328D01*
X018203Y017852D02*
X018105Y017852D01*
X018105Y017694D02*
X018203Y017694D01*
X018203Y017535D02*
X018105Y017535D01*
X017854Y017535D02*
X015695Y017535D01*
X015860Y017694D02*
X017689Y017694D01*
X017612Y017852D02*
X015937Y017852D01*
X015941Y018169D02*
X017608Y018169D01*
X017679Y018328D02*
X015870Y018328D01*
X015714Y018486D02*
X017835Y018486D01*
X017679Y018645D02*
X017642Y018645D01*
X017642Y018803D02*
X017679Y018803D01*
X017679Y018962D02*
X017642Y018962D01*
X017642Y019120D02*
X017679Y019120D01*
X017679Y019279D02*
X017642Y019279D01*
X017275Y019279D02*
X016282Y019279D01*
X016354Y019120D02*
X017199Y019120D01*
X017183Y018962D02*
X016365Y018962D01*
X016324Y018803D02*
X017224Y018803D01*
X017339Y018645D02*
X016210Y018645D01*
X015443Y018328D02*
X015346Y018328D01*
X015346Y018169D02*
X015443Y018169D01*
X014852Y017852D02*
X002815Y017852D01*
X002285Y017852D02*
X001815Y017852D01*
X001974Y017694D02*
X002126Y017694D01*
X002070Y017535D02*
X002030Y017535D01*
X002030Y017377D02*
X002070Y017377D01*
X002092Y017218D02*
X002008Y017218D01*
X001850Y017060D02*
X002250Y017060D01*
X002334Y016901D02*
X001766Y016901D01*
X001925Y016743D02*
X002175Y016743D01*
X002070Y016584D02*
X002030Y016584D01*
X002030Y016426D02*
X002070Y016426D01*
X002070Y016267D02*
X002030Y016267D01*
X001899Y016109D02*
X002201Y016109D01*
X001958Y015950D02*
X021538Y015950D01*
X019253Y014841D02*
X003081Y014841D01*
X002570Y015475D02*
X002530Y015475D01*
X002530Y015633D02*
X002570Y015633D01*
X002570Y015792D02*
X002530Y015792D01*
X002224Y015792D02*
X002117Y015792D01*
X002023Y014999D02*
X001789Y014999D01*
X002181Y014841D02*
X001066Y014841D01*
X001066Y014999D02*
X001311Y014999D01*
X001152Y015158D02*
X001066Y015158D01*
X001066Y015316D02*
X001070Y015316D01*
X001066Y015475D02*
X001070Y015475D01*
X001066Y015633D02*
X001070Y015633D01*
X001066Y015792D02*
X001224Y015792D01*
X001072Y015950D02*
X001066Y015950D01*
X001066Y017377D02*
X001070Y017377D01*
X001066Y017535D02*
X001070Y017535D01*
X001066Y017694D02*
X001126Y017694D01*
X001066Y017852D02*
X001285Y017852D01*
X001066Y018645D02*
X002053Y018645D01*
X001883Y018803D02*
X001066Y018803D01*
X001066Y018962D02*
X001792Y018962D01*
X001724Y019120D02*
X001095Y019120D01*
X001175Y019279D02*
X001696Y019279D01*
X001684Y019437D02*
X001262Y019437D01*
X001349Y019596D02*
X001712Y019596D01*
X001753Y019754D02*
X001443Y019754D01*
X001576Y019913D02*
X001844Y019913D01*
X001973Y020071D02*
X001710Y020071D01*
X001843Y020230D02*
X002166Y020230D01*
X002037Y020388D02*
X020784Y020388D01*
X020942Y020230D02*
X020438Y020230D01*
X020631Y020071D02*
X021093Y020071D01*
X021199Y019913D02*
X020759Y019913D01*
X020851Y019754D02*
X021305Y019754D01*
X021407Y019596D02*
X020892Y019596D01*
X020880Y019120D02*
X021538Y019120D01*
X021538Y018962D02*
X020812Y018962D01*
X020721Y018803D02*
X021538Y018803D01*
X021538Y018645D02*
X020551Y018645D01*
X019295Y020071D02*
X003308Y020071D01*
X003437Y019913D02*
X019167Y019913D01*
X019076Y019754D02*
X003528Y019754D01*
X003569Y019596D02*
X019035Y019596D01*
X019489Y020230D02*
X003115Y020230D01*
X002773Y020864D02*
X020099Y020864D01*
X020368Y020705D02*
X002468Y020705D01*
X002235Y020547D02*
X020605Y020547D01*
X019193Y010878D02*
X001066Y010878D01*
X001066Y010720D02*
X019193Y010720D01*
X019193Y009927D02*
X001066Y009927D01*
X001066Y009769D02*
X019193Y009769D01*
X019193Y009610D02*
X001066Y009610D01*
X001066Y009452D02*
X019193Y009452D01*
X021514Y004697D02*
X021538Y004697D01*
X021538Y004538D02*
X021356Y004538D01*
X021426Y004380D02*
X021538Y004380D01*
X021153Y004380D02*
X021113Y004380D01*
X021113Y004221D02*
X021153Y004221D01*
X021153Y004063D02*
X021113Y004063D01*
X021113Y003904D02*
X021153Y003904D01*
X021153Y003746D02*
X021113Y003746D01*
X021113Y003587D02*
X021153Y003587D01*
X021405Y003587D02*
X021538Y003587D01*
X003391Y012146D02*
X003243Y012146D01*
X002909Y011829D02*
X001066Y011829D01*
X001066Y011671D02*
X003068Y011671D01*
X002751Y011988D02*
X001066Y011988D01*
X001066Y012146D02*
X002592Y012146D01*
X002434Y012305D02*
X001066Y012305D01*
X001066Y012463D02*
X002275Y012463D01*
X002018Y012622D02*
X001066Y012622D01*
X001066Y012780D02*
X001914Y012780D01*
X001917Y012939D02*
X001066Y012939D01*
X001066Y013097D02*
X002024Y013097D01*
X001735Y011045D02*
X001696Y011006D01*
X001168Y008342D02*
X001066Y008342D01*
M02*
