G75*
G70*
%OFA0B0*%
%FSLAX24Y24*%
%IPPOS*%
%LPD*%
%AMOC8*
5,1,8,0,0,1.08239X$1,22.5*
%
%ADD10C,0.0000*%
%ADD11R,0.0500X0.0220*%
%ADD12R,0.0220X0.0500*%
%ADD13R,0.0276X0.0453*%
%ADD14C,0.0440*%
%ADD15R,0.0453X0.0276*%
%ADD16OC8,0.0520*%
%ADD17C,0.0520*%
%ADD18R,0.0551X0.0394*%
%ADD19C,0.0335*%
%ADD20OC8,0.0600*%
%ADD21R,0.0197X0.0551*%
%ADD22R,0.0197X0.0591*%
%ADD23R,0.0551X0.1850*%
%ADD24R,0.0433X0.1496*%
%ADD25R,0.0630X0.0460*%
%ADD26C,0.0515*%
%ADD27R,0.0137X0.0550*%
%ADD28R,0.0472X0.0354*%
%ADD29C,0.0660*%
%ADD30OC8,0.0660*%
%ADD31C,0.0885*%
%ADD32C,0.0160*%
%ADD33C,0.0317*%
%ADD34C,0.0100*%
%ADD35C,0.0240*%
%ADD36C,0.0120*%
%ADD37C,0.0277*%
%ADD38C,0.0320*%
%ADD39C,0.0240*%
%ADD40C,0.0197*%
%ADD41C,0.0400*%
%ADD42C,0.0500*%
D10*
X000350Y000677D02*
X000350Y020362D01*
X020035Y020362D01*
X020035Y000677D01*
X000350Y000677D01*
X000881Y001858D02*
X000883Y001908D01*
X000889Y001958D01*
X000899Y002008D01*
X000912Y002056D01*
X000929Y002104D01*
X000950Y002150D01*
X000974Y002194D01*
X001002Y002236D01*
X001033Y002276D01*
X001067Y002313D01*
X001104Y002348D01*
X001143Y002379D01*
X001184Y002408D01*
X001228Y002433D01*
X001274Y002455D01*
X001321Y002473D01*
X001369Y002487D01*
X001418Y002498D01*
X001468Y002505D01*
X001518Y002508D01*
X001569Y002507D01*
X001619Y002502D01*
X001669Y002493D01*
X001717Y002481D01*
X001765Y002464D01*
X001811Y002444D01*
X001856Y002421D01*
X001899Y002394D01*
X001939Y002364D01*
X001977Y002331D01*
X002012Y002295D01*
X002045Y002256D01*
X002074Y002215D01*
X002100Y002172D01*
X002123Y002127D01*
X002142Y002080D01*
X002157Y002032D01*
X002169Y001983D01*
X002177Y001933D01*
X002181Y001883D01*
X002181Y001833D01*
X002177Y001783D01*
X002169Y001733D01*
X002157Y001684D01*
X002142Y001636D01*
X002123Y001589D01*
X002100Y001544D01*
X002074Y001501D01*
X002045Y001460D01*
X002012Y001421D01*
X001977Y001385D01*
X001939Y001352D01*
X001899Y001322D01*
X001856Y001295D01*
X001811Y001272D01*
X001765Y001252D01*
X001717Y001235D01*
X001669Y001223D01*
X001619Y001214D01*
X001569Y001209D01*
X001518Y001208D01*
X001468Y001211D01*
X001418Y001218D01*
X001369Y001229D01*
X001321Y001243D01*
X001274Y001261D01*
X001228Y001283D01*
X001184Y001308D01*
X001143Y001337D01*
X001104Y001368D01*
X001067Y001403D01*
X001033Y001440D01*
X001002Y001480D01*
X000974Y001522D01*
X000950Y001566D01*
X000929Y001612D01*
X000912Y001660D01*
X000899Y001708D01*
X000889Y001758D01*
X000883Y001808D01*
X000881Y001858D01*
X000881Y019181D02*
X000883Y019231D01*
X000889Y019281D01*
X000899Y019331D01*
X000912Y019379D01*
X000929Y019427D01*
X000950Y019473D01*
X000974Y019517D01*
X001002Y019559D01*
X001033Y019599D01*
X001067Y019636D01*
X001104Y019671D01*
X001143Y019702D01*
X001184Y019731D01*
X001228Y019756D01*
X001274Y019778D01*
X001321Y019796D01*
X001369Y019810D01*
X001418Y019821D01*
X001468Y019828D01*
X001518Y019831D01*
X001569Y019830D01*
X001619Y019825D01*
X001669Y019816D01*
X001717Y019804D01*
X001765Y019787D01*
X001811Y019767D01*
X001856Y019744D01*
X001899Y019717D01*
X001939Y019687D01*
X001977Y019654D01*
X002012Y019618D01*
X002045Y019579D01*
X002074Y019538D01*
X002100Y019495D01*
X002123Y019450D01*
X002142Y019403D01*
X002157Y019355D01*
X002169Y019306D01*
X002177Y019256D01*
X002181Y019206D01*
X002181Y019156D01*
X002177Y019106D01*
X002169Y019056D01*
X002157Y019007D01*
X002142Y018959D01*
X002123Y018912D01*
X002100Y018867D01*
X002074Y018824D01*
X002045Y018783D01*
X002012Y018744D01*
X001977Y018708D01*
X001939Y018675D01*
X001899Y018645D01*
X001856Y018618D01*
X001811Y018595D01*
X001765Y018575D01*
X001717Y018558D01*
X001669Y018546D01*
X001619Y018537D01*
X001569Y018532D01*
X001518Y018531D01*
X001468Y018534D01*
X001418Y018541D01*
X001369Y018552D01*
X001321Y018566D01*
X001274Y018584D01*
X001228Y018606D01*
X001184Y018631D01*
X001143Y018660D01*
X001104Y018691D01*
X001067Y018726D01*
X001033Y018763D01*
X001002Y018803D01*
X000974Y018845D01*
X000950Y018889D01*
X000929Y018935D01*
X000912Y018983D01*
X000899Y019031D01*
X000889Y019081D01*
X000883Y019131D01*
X000881Y019181D01*
X018204Y019181D02*
X018206Y019231D01*
X018212Y019281D01*
X018222Y019331D01*
X018235Y019379D01*
X018252Y019427D01*
X018273Y019473D01*
X018297Y019517D01*
X018325Y019559D01*
X018356Y019599D01*
X018390Y019636D01*
X018427Y019671D01*
X018466Y019702D01*
X018507Y019731D01*
X018551Y019756D01*
X018597Y019778D01*
X018644Y019796D01*
X018692Y019810D01*
X018741Y019821D01*
X018791Y019828D01*
X018841Y019831D01*
X018892Y019830D01*
X018942Y019825D01*
X018992Y019816D01*
X019040Y019804D01*
X019088Y019787D01*
X019134Y019767D01*
X019179Y019744D01*
X019222Y019717D01*
X019262Y019687D01*
X019300Y019654D01*
X019335Y019618D01*
X019368Y019579D01*
X019397Y019538D01*
X019423Y019495D01*
X019446Y019450D01*
X019465Y019403D01*
X019480Y019355D01*
X019492Y019306D01*
X019500Y019256D01*
X019504Y019206D01*
X019504Y019156D01*
X019500Y019106D01*
X019492Y019056D01*
X019480Y019007D01*
X019465Y018959D01*
X019446Y018912D01*
X019423Y018867D01*
X019397Y018824D01*
X019368Y018783D01*
X019335Y018744D01*
X019300Y018708D01*
X019262Y018675D01*
X019222Y018645D01*
X019179Y018618D01*
X019134Y018595D01*
X019088Y018575D01*
X019040Y018558D01*
X018992Y018546D01*
X018942Y018537D01*
X018892Y018532D01*
X018841Y018531D01*
X018791Y018534D01*
X018741Y018541D01*
X018692Y018552D01*
X018644Y018566D01*
X018597Y018584D01*
X018551Y018606D01*
X018507Y018631D01*
X018466Y018660D01*
X018427Y018691D01*
X018390Y018726D01*
X018356Y018763D01*
X018325Y018803D01*
X018297Y018845D01*
X018273Y018889D01*
X018252Y018935D01*
X018235Y018983D01*
X018222Y019031D01*
X018212Y019081D01*
X018206Y019131D01*
X018204Y019181D01*
X018204Y001858D02*
X018206Y001908D01*
X018212Y001958D01*
X018222Y002008D01*
X018235Y002056D01*
X018252Y002104D01*
X018273Y002150D01*
X018297Y002194D01*
X018325Y002236D01*
X018356Y002276D01*
X018390Y002313D01*
X018427Y002348D01*
X018466Y002379D01*
X018507Y002408D01*
X018551Y002433D01*
X018597Y002455D01*
X018644Y002473D01*
X018692Y002487D01*
X018741Y002498D01*
X018791Y002505D01*
X018841Y002508D01*
X018892Y002507D01*
X018942Y002502D01*
X018992Y002493D01*
X019040Y002481D01*
X019088Y002464D01*
X019134Y002444D01*
X019179Y002421D01*
X019222Y002394D01*
X019262Y002364D01*
X019300Y002331D01*
X019335Y002295D01*
X019368Y002256D01*
X019397Y002215D01*
X019423Y002172D01*
X019446Y002127D01*
X019465Y002080D01*
X019480Y002032D01*
X019492Y001983D01*
X019500Y001933D01*
X019504Y001883D01*
X019504Y001833D01*
X019500Y001783D01*
X019492Y001733D01*
X019480Y001684D01*
X019465Y001636D01*
X019446Y001589D01*
X019423Y001544D01*
X019397Y001501D01*
X019368Y001460D01*
X019335Y001421D01*
X019300Y001385D01*
X019262Y001352D01*
X019222Y001322D01*
X019179Y001295D01*
X019134Y001272D01*
X019088Y001252D01*
X019040Y001235D01*
X018992Y001223D01*
X018942Y001214D01*
X018892Y001209D01*
X018841Y001208D01*
X018791Y001211D01*
X018741Y001218D01*
X018692Y001229D01*
X018644Y001243D01*
X018597Y001261D01*
X018551Y001283D01*
X018507Y001308D01*
X018466Y001337D01*
X018427Y001368D01*
X018390Y001403D01*
X018356Y001440D01*
X018325Y001480D01*
X018297Y001522D01*
X018273Y001566D01*
X018252Y001612D01*
X018235Y001660D01*
X018222Y001708D01*
X018212Y001758D01*
X018206Y001808D01*
X018204Y001858D01*
D11*
X010915Y005418D03*
X010915Y005733D03*
X010915Y006048D03*
X010915Y006363D03*
X010915Y006678D03*
X010915Y006993D03*
X010915Y007308D03*
X010915Y007623D03*
X007535Y007623D03*
X007535Y007308D03*
X007535Y006993D03*
X007535Y006678D03*
X007535Y006363D03*
X007535Y006048D03*
X007535Y005733D03*
X007535Y005418D03*
D12*
X008122Y004830D03*
X008437Y004830D03*
X008752Y004830D03*
X009067Y004830D03*
X009382Y004830D03*
X009697Y004830D03*
X010012Y004830D03*
X010327Y004830D03*
X010327Y008210D03*
X010012Y008210D03*
X009697Y008210D03*
X009382Y008210D03*
X009067Y008210D03*
X008752Y008210D03*
X008437Y008210D03*
X008122Y008210D03*
D13*
X006905Y008197D03*
X006157Y008197D03*
X006157Y009496D03*
X006905Y009496D03*
X006905Y010352D03*
X006157Y010352D03*
X001826Y005677D03*
X001078Y005677D03*
X001078Y003708D03*
X001826Y003708D03*
X007338Y003290D03*
X008086Y003290D03*
X008529Y003288D03*
X009277Y003288D03*
X008480Y001228D03*
X007732Y001228D03*
X011393Y004456D03*
X012141Y004456D03*
X016570Y001681D03*
X017319Y001681D03*
X005404Y015874D03*
X004656Y015874D03*
X004657Y016699D03*
X005405Y016699D03*
X013637Y016656D03*
X014385Y016656D03*
X017574Y016661D03*
X018322Y016661D03*
D14*
X003268Y005634D02*
X002828Y005634D01*
X002828Y003713D02*
X003268Y003713D01*
D15*
X004799Y004142D03*
X004799Y004890D03*
X005704Y004338D03*
X005704Y003590D03*
X006551Y003945D03*
X006551Y003197D03*
X006196Y006056D03*
X006196Y006804D03*
X007594Y010342D03*
X007594Y011090D03*
X010350Y011071D03*
X010350Y011819D03*
X012358Y009752D03*
X012358Y009004D03*
X013421Y009004D03*
X013421Y009752D03*
X014248Y009752D03*
X014248Y009004D03*
X014996Y009004D03*
X014996Y009752D03*
X015862Y009752D03*
X015862Y009004D03*
X012063Y006622D03*
X012063Y005874D03*
X016574Y003052D03*
X016574Y002304D03*
X010350Y015264D03*
X010350Y016012D03*
X002781Y015894D03*
X002781Y016642D03*
D16*
X004413Y018118D03*
D17*
X005213Y018118D03*
D18*
X008775Y002626D03*
X008775Y001878D03*
X007830Y002252D03*
D19*
X012417Y010254D02*
X012417Y010254D01*
X012417Y011100D01*
X012417Y011100D01*
X012417Y010254D01*
X012417Y010588D02*
X012417Y010588D01*
X012417Y010922D02*
X012417Y010922D01*
X012909Y010254D02*
X012909Y010254D01*
X012909Y011100D01*
X012909Y011100D01*
X012909Y010254D01*
X012909Y010588D02*
X012909Y010588D01*
X012909Y010922D02*
X012909Y010922D01*
X013401Y010254D02*
X013401Y010254D01*
X013401Y011100D01*
X013401Y011100D01*
X013401Y010254D01*
X013401Y010588D02*
X013401Y010588D01*
X013401Y010922D02*
X013401Y010922D01*
X013893Y010254D02*
X013893Y010254D01*
X013893Y011100D01*
X013893Y011100D01*
X013893Y010254D01*
X013893Y010588D02*
X013893Y010588D01*
X013893Y010922D02*
X013893Y010922D01*
X014385Y010254D02*
X014385Y010254D01*
X014385Y011100D01*
X014385Y011100D01*
X014385Y010254D01*
X014385Y010588D02*
X014385Y010588D01*
X014385Y010922D02*
X014385Y010922D01*
X014878Y010254D02*
X014878Y010254D01*
X014878Y011100D01*
X014878Y011100D01*
X014878Y010254D01*
X014878Y010588D02*
X014878Y010588D01*
X014878Y010922D02*
X014878Y010922D01*
X015370Y010254D02*
X015370Y010254D01*
X015370Y011100D01*
X015370Y011100D01*
X015370Y010254D01*
X015370Y010588D02*
X015370Y010588D01*
X015370Y010922D02*
X015370Y010922D01*
X015862Y010254D02*
X015862Y010254D01*
X015862Y011100D01*
X015862Y011100D01*
X015862Y010254D01*
X015862Y010588D02*
X015862Y010588D01*
X015862Y010922D02*
X015862Y010922D01*
X016354Y010254D02*
X016354Y010254D01*
X016354Y011100D01*
X016354Y011100D01*
X016354Y010254D01*
X016354Y010588D02*
X016354Y010588D01*
X016354Y010922D02*
X016354Y010922D01*
X016354Y014998D02*
X016354Y014998D01*
X016354Y015844D01*
X016354Y015844D01*
X016354Y014998D01*
X016354Y015332D02*
X016354Y015332D01*
X016354Y015666D02*
X016354Y015666D01*
X016846Y014998D02*
X016846Y014998D01*
X016846Y015844D01*
X016846Y015844D01*
X016846Y014998D01*
X016846Y015332D02*
X016846Y015332D01*
X016846Y015666D02*
X016846Y015666D01*
X017338Y014998D02*
X017338Y014998D01*
X017338Y015844D01*
X017338Y015844D01*
X017338Y014998D01*
X017338Y015332D02*
X017338Y015332D01*
X017338Y015666D02*
X017338Y015666D01*
X017830Y014998D02*
X017830Y014998D01*
X017830Y015844D01*
X017830Y015844D01*
X017830Y014998D01*
X017830Y015332D02*
X017830Y015332D01*
X017830Y015666D02*
X017830Y015666D01*
X018322Y014998D02*
X018322Y014998D01*
X018322Y015844D01*
X018322Y015844D01*
X018322Y014998D01*
X018322Y015332D02*
X018322Y015332D01*
X018322Y015666D02*
X018322Y015666D01*
X015862Y014998D02*
X015862Y014998D01*
X015862Y015844D01*
X015862Y015844D01*
X015862Y014998D01*
X015862Y015332D02*
X015862Y015332D01*
X015862Y015666D02*
X015862Y015666D01*
X015370Y014998D02*
X015370Y014998D01*
X015370Y015844D01*
X015370Y015844D01*
X015370Y014998D01*
X015370Y015332D02*
X015370Y015332D01*
X015370Y015666D02*
X015370Y015666D01*
X014878Y014998D02*
X014878Y014998D01*
X014878Y015844D01*
X014878Y015844D01*
X014878Y014998D01*
X014878Y015332D02*
X014878Y015332D01*
X014878Y015666D02*
X014878Y015666D01*
X014385Y014998D02*
X014385Y014998D01*
X014385Y015844D01*
X014385Y015844D01*
X014385Y014998D01*
X014385Y015332D02*
X014385Y015332D01*
X014385Y015666D02*
X014385Y015666D01*
X013893Y014998D02*
X013893Y014998D01*
X013893Y015844D01*
X013893Y015844D01*
X013893Y014998D01*
X013893Y015332D02*
X013893Y015332D01*
X013893Y015666D02*
X013893Y015666D01*
X013401Y014998D02*
X013401Y014998D01*
X013401Y015844D01*
X013401Y015844D01*
X013401Y014998D01*
X013401Y015332D02*
X013401Y015332D01*
X013401Y015666D02*
X013401Y015666D01*
X012909Y014998D02*
X012909Y014998D01*
X012909Y015844D01*
X012909Y015844D01*
X012909Y014998D01*
X012909Y015332D02*
X012909Y015332D01*
X012909Y015666D02*
X012909Y015666D01*
X012417Y014998D02*
X012417Y014998D01*
X012417Y015844D01*
X012417Y015844D01*
X012417Y014998D01*
X012417Y015332D02*
X012417Y015332D01*
X012417Y015666D02*
X012417Y015666D01*
X011974Y014771D02*
X011974Y014771D01*
X011128Y014771D01*
X011128Y014771D01*
X011974Y014771D01*
X011974Y014279D02*
X011974Y014279D01*
X011128Y014279D01*
X011128Y014279D01*
X011974Y014279D01*
X011974Y013787D02*
X011974Y013787D01*
X011128Y013787D01*
X011128Y013787D01*
X011974Y013787D01*
X011974Y013295D02*
X011974Y013295D01*
X011128Y013295D01*
X011128Y013295D01*
X011974Y013295D01*
X011974Y012803D02*
X011974Y012803D01*
X011128Y012803D01*
X011128Y012803D01*
X011974Y012803D01*
X011974Y012311D02*
X011974Y012311D01*
X011128Y012311D01*
X011128Y012311D01*
X011974Y012311D01*
X011974Y011819D02*
X011974Y011819D01*
X011128Y011819D01*
X011128Y011819D01*
X011974Y011819D01*
X011974Y011327D02*
X011974Y011327D01*
X011128Y011327D01*
X011128Y011327D01*
X011974Y011327D01*
D20*
X017803Y008645D03*
X017803Y007645D03*
X017803Y006645D03*
X018803Y006645D03*
X018803Y007645D03*
X018803Y008645D03*
X018803Y005575D03*
X017803Y005575D03*
X017803Y004575D03*
X017803Y003575D03*
X018803Y003575D03*
X018803Y004575D03*
X016315Y018001D03*
X016315Y019001D03*
X015315Y019001D03*
X014315Y019001D03*
X013315Y019001D03*
X012315Y019001D03*
X012315Y018001D03*
X013315Y018001D03*
X014315Y018001D03*
X015315Y018001D03*
X002783Y011405D03*
X002783Y009625D03*
D21*
X007594Y018039D03*
X007909Y018039D03*
X008224Y018039D03*
X008539Y018039D03*
X008854Y018039D03*
D22*
X009288Y018058D03*
X007163Y018059D03*
D23*
X006790Y018689D03*
X009661Y018688D03*
D24*
X010153Y018865D03*
X006298Y018866D03*
D25*
X011449Y017045D03*
X011449Y016445D03*
D26*
X010689Y001658D03*
X009689Y001658D03*
X013922Y001542D03*
X014922Y001542D03*
X015922Y001542D03*
D27*
X009587Y012641D03*
X009331Y012641D03*
X009075Y012641D03*
X008819Y012641D03*
X008563Y012641D03*
X008307Y012641D03*
X008051Y012641D03*
X007795Y012641D03*
X007539Y012641D03*
X007283Y012641D03*
X007028Y012641D03*
X006772Y012641D03*
X006516Y012641D03*
X006260Y012641D03*
X006260Y015519D03*
X006516Y015519D03*
X006772Y015519D03*
X007028Y015519D03*
X007283Y015519D03*
X007539Y015519D03*
X007795Y015519D03*
X008051Y015519D03*
X008307Y015519D03*
X008563Y015519D03*
X008819Y015519D03*
X009075Y015519D03*
X009331Y015519D03*
X009587Y015519D03*
D28*
X011492Y009752D03*
X011492Y009004D03*
X010547Y009378D03*
D29*
X004618Y002436D03*
X005118Y001674D03*
X006318Y001674D03*
D30*
X005718Y002436D03*
D31*
X003763Y009135D03*
X003763Y011895D03*
D32*
X006256Y012020D02*
X006260Y012056D01*
X006260Y012641D01*
X007004Y012606D02*
X007028Y012641D01*
X007004Y012606D02*
X007004Y011504D01*
X007004Y011425D01*
X006452Y010874D01*
X006157Y010579D01*
X006157Y010352D01*
X006177Y009653D02*
X006157Y009496D01*
X006905Y009496D02*
X008145Y009496D01*
X008126Y010318D02*
X008140Y010342D01*
X007594Y010342D01*
X007584Y010352D01*
X006905Y010352D01*
X008426Y010667D02*
X008426Y008222D01*
X008437Y008210D01*
X008752Y008210D02*
X008756Y008213D01*
X008756Y010879D01*
X007633Y012001D01*
X007633Y012016D01*
X007795Y012641D02*
X007795Y013271D01*
X007791Y013275D01*
X009066Y014668D02*
X009346Y014668D01*
X009198Y014771D01*
X009066Y014668D02*
X009066Y015519D01*
X009075Y015519D01*
X008819Y015519D02*
X008815Y015047D01*
X008815Y014924D01*
X008741Y014924D01*
X008819Y015519D02*
X008819Y015519D01*
X008307Y015519D02*
X008307Y016342D01*
X007992Y016657D01*
X008224Y017000D02*
X008200Y017023D01*
X008200Y017055D01*
X008588Y017055D01*
X008854Y017399D01*
X008854Y018039D01*
X008859Y017995D01*
X009287Y018039D02*
X009288Y018058D01*
X009287Y018039D02*
X009641Y018039D01*
X009641Y018629D01*
X009661Y018688D01*
X007594Y018039D02*
X007515Y018000D01*
X007279Y018000D02*
X007182Y018000D01*
X007163Y018059D01*
X006984Y018019D01*
X006885Y016110D02*
X006885Y015834D01*
X006873Y015800D01*
X007028Y015519D01*
X006772Y015519D02*
X006873Y015800D01*
X008051Y015519D02*
X008052Y015519D01*
X008052Y014924D01*
X010114Y011819D02*
X009956Y011661D01*
X009956Y010677D01*
X010941Y009693D01*
X010941Y009575D01*
X011452Y009063D01*
X011492Y009004D01*
X012358Y009004D01*
X012358Y009752D02*
X011492Y009752D01*
X011492Y010470D01*
X010547Y009378D02*
X010409Y009240D01*
X009582Y009240D01*
X009697Y009125D01*
X009697Y008210D01*
X010012Y008210D02*
X010012Y008528D01*
X010114Y008630D01*
X013303Y008630D01*
X013421Y008748D01*
X013421Y009004D01*
X013421Y009752D02*
X013086Y009752D01*
X012909Y009929D01*
X012909Y010677D01*
X012948Y010559D01*
X013401Y010677D02*
X013401Y011489D01*
X013421Y009752D02*
X014248Y009752D01*
X014248Y009004D02*
X014248Y008669D01*
X014759Y008315D02*
X014996Y008551D01*
X014996Y009004D01*
X014996Y009752D02*
X015862Y009752D01*
X015862Y010323D01*
X015862Y009004D02*
X015862Y008669D01*
X014759Y008315D02*
X010429Y008315D01*
X010327Y008213D01*
X010327Y008210D01*
X009582Y009240D02*
X009366Y009496D01*
X009056Y010318D02*
X009056Y008222D01*
X009067Y008210D01*
X008122Y008210D02*
X006919Y008210D01*
X006905Y008197D01*
X007535Y005733D02*
X003146Y005733D01*
X003048Y005634D01*
X003854Y004949D02*
X004321Y005416D01*
X007533Y005416D01*
X007535Y005418D01*
X008063Y004890D02*
X008122Y004830D01*
X008063Y004890D02*
X004799Y004890D01*
X004799Y004142D02*
X004799Y002617D01*
X004618Y002436D01*
X005718Y002436D02*
X005704Y002619D01*
X005704Y003590D01*
X005704Y004338D02*
X008263Y004338D01*
X008437Y004512D01*
X008437Y004830D01*
X008421Y004814D01*
X008752Y004830D02*
X008752Y004158D01*
X008539Y003945D01*
X009051Y004496D02*
X010862Y002685D01*
X011393Y003079D02*
X011492Y003079D01*
X016492Y003079D01*
X016574Y003052D01*
X017319Y001681D02*
X017319Y001268D01*
X018803Y004575D02*
X018252Y005126D01*
X011767Y005126D01*
X012141Y004456D02*
X012161Y004456D01*
X012633Y004456D01*
X012653Y004432D01*
X012063Y005874D02*
X011767Y005874D01*
X011278Y006363D01*
X010915Y006363D01*
X010915Y006678D02*
X012007Y006678D01*
X012063Y006622D01*
X012358Y006622D01*
X010980Y005379D02*
X010980Y005126D01*
X010980Y005379D02*
X010954Y005379D01*
X009697Y005513D02*
X009691Y005480D01*
X009382Y005715D02*
X009381Y005716D01*
X009067Y004830D02*
X009051Y004830D01*
X009051Y004496D01*
X009267Y002626D02*
X008775Y002626D01*
X006551Y003197D02*
X006551Y001906D01*
X006318Y001674D01*
X003854Y004220D02*
X003347Y003713D01*
X003048Y003713D01*
X003854Y004220D02*
X003854Y004949D01*
X010114Y011819D02*
X010350Y011819D01*
X013893Y014535D02*
X013893Y015421D01*
X013696Y016543D02*
X013657Y016582D01*
X013637Y016656D01*
X014385Y016597D02*
X014405Y016597D01*
X017830Y015756D02*
X017830Y015421D01*
X018303Y015323D02*
X018322Y015421D01*
X018303Y015323D02*
X018303Y016543D01*
X018322Y016661D01*
X018322Y017114D01*
X018303Y017094D01*
X012780Y002685D02*
X011964Y002685D01*
X012780Y002685D02*
X013922Y001542D01*
D33*
X006649Y008748D03*
X005665Y008787D03*
X008126Y010318D03*
X009056Y010318D03*
D34*
X008426Y010667D02*
X008381Y010716D01*
X008381Y010834D01*
X007358Y011858D01*
X007358Y012567D01*
X007319Y012606D01*
X007283Y012641D01*
X006531Y012606D02*
X006516Y012641D01*
X006531Y012606D02*
X006531Y011740D01*
X006728Y011543D01*
X007122Y011149D02*
X007122Y011110D01*
X007594Y011110D01*
X007594Y011090D01*
X009067Y008210D02*
X009090Y008157D01*
X009090Y007645D01*
X010468Y006268D01*
X010941Y006976D02*
X010915Y006993D01*
X012752Y006268D02*
X012752Y006149D01*
X018185Y006149D01*
X018224Y006149D01*
X018775Y005598D01*
X018803Y005575D01*
X017803Y006645D02*
X017791Y006661D01*
X017791Y008630D02*
X017803Y008645D01*
X015862Y010598D02*
X015862Y010677D01*
X011449Y017045D02*
X011452Y017055D01*
X011531Y017134D01*
X011531Y017173D01*
X011649Y017212D01*
X007988Y007606D02*
X007555Y007606D01*
X007535Y007623D01*
X007988Y007606D02*
X008854Y006740D01*
X008539Y003945D02*
X008460Y003945D01*
X006570Y003945D01*
X006551Y003945D01*
X008086Y003290D02*
X008106Y003315D01*
X008303Y003315D01*
X008381Y003315D01*
X008381Y003275D01*
X008381Y003315D02*
X008500Y003315D01*
X008529Y003288D01*
X008893Y003866D02*
X008972Y003866D01*
X009248Y003590D01*
X009248Y003394D01*
X009326Y003315D01*
X009277Y003288D01*
X008775Y001897D02*
X008775Y001878D01*
X003106Y005677D02*
X003048Y005634D01*
D35*
X007122Y011149D03*
X006728Y011543D03*
X008854Y006740D03*
X010468Y006268D03*
X012752Y006268D03*
X008893Y003866D03*
X016374Y016189D03*
X016846Y016189D03*
X016137Y017173D03*
X015586Y017134D03*
X009602Y016307D03*
X009326Y016701D03*
X008539Y017488D03*
X008106Y017488D03*
D36*
X008224Y017606D01*
X008224Y018039D01*
X008539Y018039D02*
X008539Y017488D01*
X009326Y016701D02*
X009331Y016696D01*
X009331Y015519D01*
X009326Y015524D01*
X009331Y015519D02*
X009326Y015445D01*
X009587Y015519D02*
X009602Y015535D01*
X009602Y016307D01*
X009626Y016292D01*
X013315Y019001D02*
X013315Y019197D01*
X013732Y019614D01*
X016964Y019614D01*
X017161Y019378D01*
X017161Y018748D01*
X018775Y017134D01*
X018775Y014575D01*
X017830Y013630D01*
X016610Y013630D01*
X015862Y012882D01*
X015862Y010598D01*
X015862Y010677D02*
X015822Y010519D01*
X015822Y010362D01*
X015862Y010323D01*
X015901Y010519D02*
X015862Y010677D01*
X015941Y010559D01*
X014326Y009673D02*
X014248Y009752D01*
X016452Y008000D02*
X017633Y009181D01*
X018303Y009181D01*
X018803Y008681D01*
X018803Y008645D01*
X019011Y008118D02*
X019287Y007842D01*
X019287Y007130D01*
X018803Y006645D01*
X018291Y007134D02*
X018803Y007645D01*
X019011Y008118D02*
X017594Y008118D01*
X016846Y007370D01*
X011492Y007370D01*
X011239Y007623D01*
X010915Y007623D01*
X010915Y007308D02*
X011200Y007308D01*
X011374Y007134D01*
X018291Y007134D01*
X017803Y006645D02*
X017511Y006937D01*
X011964Y006937D01*
X010980Y006937D01*
X010941Y006976D01*
X011649Y007685D02*
X016570Y007685D01*
X017515Y008630D01*
X017791Y008630D01*
X016452Y008000D02*
X011216Y008000D01*
X009382Y005715D02*
X009382Y004830D01*
X009697Y004830D02*
X009697Y005513D01*
X010012Y004830D02*
X010012Y004243D01*
X010350Y003905D01*
X010704Y003905D01*
X011019Y003512D02*
X011019Y004535D01*
X010760Y004794D01*
X010327Y004794D01*
X010327Y004830D01*
X010915Y005418D02*
X010954Y005379D01*
X011767Y003905D02*
X016728Y003905D01*
X017397Y004575D01*
X017803Y004575D01*
X017358Y004063D02*
X016807Y003512D01*
X011767Y003512D01*
X008775Y001897D02*
X008303Y002370D01*
X008303Y003315D01*
X017358Y004063D02*
X018315Y004063D01*
X018803Y003575D01*
X016374Y015323D02*
X016374Y016189D01*
X016846Y016189D02*
X016846Y015421D01*
X016374Y015323D02*
X016354Y015421D01*
X016137Y017173D02*
X015822Y017488D01*
X015822Y018748D01*
X015491Y019079D01*
X015315Y019001D01*
X015315Y018001D02*
X015315Y017405D01*
X015586Y017134D01*
D37*
X018303Y017094D03*
X013893Y014535D03*
X013401Y011489D03*
X011492Y010470D03*
X010350Y010716D03*
X009366Y009496D03*
X008145Y009496D03*
X007958Y007030D03*
X007958Y006356D03*
X009381Y005716D03*
X009691Y005480D03*
X010980Y005126D03*
X011767Y005126D03*
X012653Y004432D03*
X011767Y003905D03*
X011767Y003512D03*
X011019Y003512D03*
X010704Y003905D03*
X010862Y002685D03*
X011964Y002685D03*
X009267Y002626D03*
X012358Y006622D03*
X011649Y007685D03*
X011216Y008000D03*
X014248Y008669D03*
X015862Y008669D03*
X016256Y011504D03*
X010350Y016464D03*
X009641Y017567D03*
X008741Y014924D03*
X008052Y014924D03*
X006885Y016110D03*
X006807Y017567D03*
X002781Y017134D03*
X006256Y012020D03*
X007633Y012016D03*
X007791Y013275D03*
X001256Y004732D03*
X017319Y001268D03*
D38*
X016354Y010677D02*
X016354Y011327D01*
X016256Y011504D01*
X017338Y015421D02*
X017830Y015421D01*
X017358Y016661D02*
X014420Y016661D01*
X014405Y016597D01*
X014405Y017004D01*
X014196Y017212D01*
X013224Y017212D01*
X012456Y016445D01*
X013633Y016382D02*
X013633Y016613D01*
X013637Y016656D01*
X013633Y016382D02*
X013893Y016043D01*
X013893Y015421D01*
X010350Y016012D02*
X010350Y016189D01*
X010350Y016464D01*
X008224Y017000D02*
X007988Y016764D01*
X007925Y016701D02*
X006885Y016701D01*
X006884Y016699D01*
X005405Y016699D01*
X005409Y016703D01*
X005409Y018044D01*
X005335Y018118D01*
X005213Y018118D01*
X004602Y018866D02*
X004405Y018669D01*
X004405Y018125D01*
X004413Y018118D01*
X004413Y016649D01*
X004405Y016642D01*
X004599Y016642D01*
X004657Y016699D01*
X004405Y016642D02*
X002781Y016642D01*
X002781Y016897D01*
X002781Y015894D02*
X002801Y015874D01*
X004656Y015874D01*
X005404Y015874D02*
X005404Y016698D01*
X005405Y016699D01*
X005424Y016718D01*
X005404Y016718D01*
X005404Y015874D02*
X005404Y011848D01*
X005404Y011105D01*
X006157Y010352D01*
X006157Y009496D01*
X006157Y008197D01*
X006157Y006843D01*
X006158Y006833D01*
X006162Y006824D01*
X006168Y006815D01*
X006177Y006809D01*
X006186Y006805D01*
X006196Y006804D01*
X010350Y010716D02*
X010350Y011071D01*
X011295Y011071D01*
X011551Y011327D01*
X011551Y011819D02*
X010350Y011819D01*
X006885Y016701D02*
X006295Y016701D01*
X006807Y017567D02*
X006807Y017842D01*
X006984Y018019D01*
X006807Y017842D02*
X006807Y018633D01*
X006790Y018689D01*
X006613Y018826D01*
X006494Y018841D01*
X006476Y018858D01*
X006494Y018841D02*
X006298Y018866D01*
X004602Y018866D01*
X007279Y018000D02*
X007515Y018000D01*
X009661Y018688D02*
X009838Y018825D01*
X010153Y018865D01*
X001078Y005677D02*
X001078Y004732D01*
X001078Y003708D01*
X001078Y004732D02*
X001256Y004732D01*
D39*
X001831Y003713D02*
X001826Y003708D01*
X001831Y003713D02*
X003048Y003713D01*
X006196Y006056D02*
X006831Y006056D01*
X007138Y006363D01*
X007535Y006363D01*
X007535Y006362D01*
X007536Y006361D01*
X007537Y006361D01*
X007958Y006356D01*
X008178Y006678D02*
X008460Y006395D01*
X008460Y006053D01*
X008465Y006048D01*
X008178Y006678D02*
X007535Y006678D01*
X007533Y006676D01*
X007004Y006676D01*
X006876Y006804D01*
X006196Y006804D01*
X007537Y006991D02*
X007958Y007030D01*
X007537Y006991D02*
X007536Y006991D01*
X007535Y006992D01*
X007535Y006993D01*
X006905Y008197D02*
X006905Y008492D01*
X006649Y008748D01*
X005665Y008787D02*
X004602Y009850D01*
X003027Y009850D01*
X002802Y009625D01*
X002783Y009625D01*
X007992Y016657D02*
X007988Y016661D01*
X007988Y016764D01*
X007925Y016701D01*
X011649Y017212D02*
X011649Y018256D01*
X012315Y019001D01*
X014385Y016656D02*
X014405Y016578D01*
X014405Y016597D01*
X014385Y016656D02*
X014385Y015421D01*
X011295Y005716D02*
X010898Y005716D01*
X011295Y005716D02*
X011374Y005638D01*
X011374Y004476D01*
X011393Y004456D01*
X011393Y003079D01*
X011393Y002362D01*
X010689Y001658D01*
D40*
X010898Y005716D02*
X010035Y005716D01*
X009704Y006048D01*
X008465Y006048D01*
X008145Y006048D01*
X007535Y006048D01*
X010898Y005716D02*
X010915Y005733D01*
X015922Y001542D02*
X016432Y001542D01*
X016570Y001681D01*
X016574Y001684D01*
X016574Y002304D01*
X016574Y003052D02*
X017241Y003052D01*
X017803Y003575D01*
X017338Y015421D02*
X017338Y016563D01*
X017358Y016661D01*
X017574Y016661D01*
X017574Y016978D01*
X016552Y018001D01*
X016315Y018001D01*
X003106Y005677D02*
X001826Y005677D01*
D41*
X007338Y003290D02*
X007338Y002291D01*
X007378Y002252D01*
X007830Y002252D01*
X007338Y002291D02*
X007338Y001366D01*
X007476Y001228D01*
X007732Y001228D01*
X008480Y001228D02*
X009689Y001228D01*
X009689Y001658D01*
X009198Y014771D02*
X010232Y014771D01*
X011449Y015989D01*
X011449Y016445D01*
X012456Y016445D01*
X010350Y015264D02*
X010350Y014771D01*
X010232Y014771D01*
X009641Y017567D02*
X009641Y018039D01*
X002781Y017134D02*
X002781Y016897D01*
D42*
X010350Y014771D02*
X010350Y011819D01*
M02*
