%
M48
M72
T01C0.0120
T02C0.0236
T03C0.0315
T04C0.0320
T05C0.0400
T06C0.1300
%
T01
X7126Y8728
X7126Y9082
X7126Y9437
X7126Y9791
X7126Y10145
X5669Y11287
X5354Y11838
X6023Y12114
X5994Y12532
X5989Y12847
X6023Y13216
X6850Y13649
X6023Y14397
X5994Y15052
X6850Y14752
X7716Y14200
X7716Y13374
X7637Y12586
X7913Y12389
X8189Y12586
X8425Y12389
X9015Y12468
X9409Y12507
X10511Y12547
X10669Y12035
X10118Y10815
X10905Y10224
X10703Y9963
X10905Y9712
X11693Y9712
X11889Y9963
X11693Y10224
X12165Y8531
X13779Y10342
X13504Y11405
X13504Y12626
X15039Y12626
X15039Y13846
X15039Y15067
X15039Y16287
X15039Y17507
X13504Y17507
X13504Y16287
X13504Y15067
X13464Y14161
X10748Y15500
X9409Y14437
X9291Y14870
X9015Y15185
X8622Y14476
X8031Y15539
X6771Y16759
X6456Y16759
X6141Y16681
X6141Y17389
X6456Y17429
X6771Y17468
X6929Y17862
X6417Y18531
X7204Y19082
X7756Y19594
X9055Y19830
X9134Y20460
X10078Y19515
X9882Y18807
X9882Y18019
X11929Y17507
X12165Y17193
X12677Y19437
X10275Y22035
X10275Y22862
X10000Y23256
X10000Y23728
X10315Y24161
X10315Y24752
X10984Y24752
X10984Y24082
X12165Y24122
X12874Y24240
X16023Y23728
X16417Y22429
X16456Y21838
X17401Y21563
X17756Y22035
X19803Y21484
X19882Y22586
X19842Y23649
X20433Y24673
X17323Y24673
X16574Y19082
X16574Y17507
X16574Y16287
X16574Y15067
X16574Y13846
X16574Y12626
X16574Y11405
X16102Y10106
X17008Y9830
X17559Y9791
X17519Y9397
X18110Y11405
X18110Y12626
X18110Y13846
X18110Y15067
X18110Y16287
X18110Y17507
X19645Y16287
X19645Y15067
X19645Y13846
X19645Y12626
X19645Y11405
X20708Y10500
X20945Y9791
X21850Y8413
X21181Y11405
X21181Y12626
X21181Y13846
X21181Y15067
X21181Y16287
X21181Y17507
X20275Y17744
X15039Y11405
X14448Y8216
X14448Y7232
X8661Y10854
X6929Y12271
X6693Y12074
X7047Y12704
X3582Y14948
X4567Y16051
X5197Y17468
X5393Y18137
X6417Y19555
X6456Y20696
X6653Y21759
X6417Y22232
X6850Y22704
X6417Y23216
X6771Y23689
X7401Y23256
X7874Y23177
X7401Y24161
X6456Y24752
X8385Y24240
X9370Y24161
X9370Y23256
X10669Y13649
T02
X9094Y8334
X8740Y7901
X9094Y7468
X9448Y6917
X8385Y8334
X4094Y12350
X3607Y11868
X4448Y13438
X3587Y15883
X3582Y16563
X13228Y7074
X16968Y8846
X19173Y9791
X18763Y4870
X19763Y4870
X20763Y4870
T03
X8385Y4476
X7834Y5263
X7283Y4476
X6732Y5263
T04
X12145Y5393
X13111Y5134
X14212Y5134
X15178Y5393
T05
X22452Y6913
X22452Y7913
X22452Y8913
X22452Y9913
X23452Y9913
X23452Y8913
X23452Y7913
X23452Y6913
X4752Y7082
X4752Y8082
X4752Y9082
X4752Y10082
X4752Y11082
X3752Y11082
X3752Y10082
X3752Y9082
X3752Y8082
X3752Y7082
X3909Y18633
X4909Y18633
X4909Y19633
X3909Y19633
X3909Y20633
X4909Y20633
T06
X5000Y5263
X5000Y22586
X22323Y22586
X22323Y5263
M30
