G75*
G70*
%OFA0B0*%
%FSLAX24Y24*%
%IPPOS*%
%LPD*%
%AMOC8*
5,1,8,0,0,1.08239X$1,22.5*
%
%ADD10C,0.0000*%
D10*
X000350Y000677D02*
X000350Y020362D01*
X020035Y020362D01*
X020035Y000677D01*
X000350Y000677D01*
X000881Y001858D02*
X000883Y001908D01*
X000889Y001958D01*
X000899Y002008D01*
X000912Y002056D01*
X000929Y002104D01*
X000950Y002150D01*
X000974Y002194D01*
X001002Y002236D01*
X001033Y002276D01*
X001067Y002313D01*
X001104Y002348D01*
X001143Y002379D01*
X001184Y002408D01*
X001228Y002433D01*
X001274Y002455D01*
X001321Y002473D01*
X001369Y002487D01*
X001418Y002498D01*
X001468Y002505D01*
X001518Y002508D01*
X001569Y002507D01*
X001619Y002502D01*
X001669Y002493D01*
X001717Y002481D01*
X001765Y002464D01*
X001811Y002444D01*
X001856Y002421D01*
X001899Y002394D01*
X001939Y002364D01*
X001977Y002331D01*
X002012Y002295D01*
X002045Y002256D01*
X002074Y002215D01*
X002100Y002172D01*
X002123Y002127D01*
X002142Y002080D01*
X002157Y002032D01*
X002169Y001983D01*
X002177Y001933D01*
X002181Y001883D01*
X002181Y001833D01*
X002177Y001783D01*
X002169Y001733D01*
X002157Y001684D01*
X002142Y001636D01*
X002123Y001589D01*
X002100Y001544D01*
X002074Y001501D01*
X002045Y001460D01*
X002012Y001421D01*
X001977Y001385D01*
X001939Y001352D01*
X001899Y001322D01*
X001856Y001295D01*
X001811Y001272D01*
X001765Y001252D01*
X001717Y001235D01*
X001669Y001223D01*
X001619Y001214D01*
X001569Y001209D01*
X001518Y001208D01*
X001468Y001211D01*
X001418Y001218D01*
X001369Y001229D01*
X001321Y001243D01*
X001274Y001261D01*
X001228Y001283D01*
X001184Y001308D01*
X001143Y001337D01*
X001104Y001368D01*
X001067Y001403D01*
X001033Y001440D01*
X001002Y001480D01*
X000974Y001522D01*
X000950Y001566D01*
X000929Y001612D01*
X000912Y001660D01*
X000899Y001708D01*
X000889Y001758D01*
X000883Y001808D01*
X000881Y001858D01*
X000881Y019181D02*
X000883Y019231D01*
X000889Y019281D01*
X000899Y019331D01*
X000912Y019379D01*
X000929Y019427D01*
X000950Y019473D01*
X000974Y019517D01*
X001002Y019559D01*
X001033Y019599D01*
X001067Y019636D01*
X001104Y019671D01*
X001143Y019702D01*
X001184Y019731D01*
X001228Y019756D01*
X001274Y019778D01*
X001321Y019796D01*
X001369Y019810D01*
X001418Y019821D01*
X001468Y019828D01*
X001518Y019831D01*
X001569Y019830D01*
X001619Y019825D01*
X001669Y019816D01*
X001717Y019804D01*
X001765Y019787D01*
X001811Y019767D01*
X001856Y019744D01*
X001899Y019717D01*
X001939Y019687D01*
X001977Y019654D01*
X002012Y019618D01*
X002045Y019579D01*
X002074Y019538D01*
X002100Y019495D01*
X002123Y019450D01*
X002142Y019403D01*
X002157Y019355D01*
X002169Y019306D01*
X002177Y019256D01*
X002181Y019206D01*
X002181Y019156D01*
X002177Y019106D01*
X002169Y019056D01*
X002157Y019007D01*
X002142Y018959D01*
X002123Y018912D01*
X002100Y018867D01*
X002074Y018824D01*
X002045Y018783D01*
X002012Y018744D01*
X001977Y018708D01*
X001939Y018675D01*
X001899Y018645D01*
X001856Y018618D01*
X001811Y018595D01*
X001765Y018575D01*
X001717Y018558D01*
X001669Y018546D01*
X001619Y018537D01*
X001569Y018532D01*
X001518Y018531D01*
X001468Y018534D01*
X001418Y018541D01*
X001369Y018552D01*
X001321Y018566D01*
X001274Y018584D01*
X001228Y018606D01*
X001184Y018631D01*
X001143Y018660D01*
X001104Y018691D01*
X001067Y018726D01*
X001033Y018763D01*
X001002Y018803D01*
X000974Y018845D01*
X000950Y018889D01*
X000929Y018935D01*
X000912Y018983D01*
X000899Y019031D01*
X000889Y019081D01*
X000883Y019131D01*
X000881Y019181D01*
X018204Y019181D02*
X018206Y019231D01*
X018212Y019281D01*
X018222Y019331D01*
X018235Y019379D01*
X018252Y019427D01*
X018273Y019473D01*
X018297Y019517D01*
X018325Y019559D01*
X018356Y019599D01*
X018390Y019636D01*
X018427Y019671D01*
X018466Y019702D01*
X018507Y019731D01*
X018551Y019756D01*
X018597Y019778D01*
X018644Y019796D01*
X018692Y019810D01*
X018741Y019821D01*
X018791Y019828D01*
X018841Y019831D01*
X018892Y019830D01*
X018942Y019825D01*
X018992Y019816D01*
X019040Y019804D01*
X019088Y019787D01*
X019134Y019767D01*
X019179Y019744D01*
X019222Y019717D01*
X019262Y019687D01*
X019300Y019654D01*
X019335Y019618D01*
X019368Y019579D01*
X019397Y019538D01*
X019423Y019495D01*
X019446Y019450D01*
X019465Y019403D01*
X019480Y019355D01*
X019492Y019306D01*
X019500Y019256D01*
X019504Y019206D01*
X019504Y019156D01*
X019500Y019106D01*
X019492Y019056D01*
X019480Y019007D01*
X019465Y018959D01*
X019446Y018912D01*
X019423Y018867D01*
X019397Y018824D01*
X019368Y018783D01*
X019335Y018744D01*
X019300Y018708D01*
X019262Y018675D01*
X019222Y018645D01*
X019179Y018618D01*
X019134Y018595D01*
X019088Y018575D01*
X019040Y018558D01*
X018992Y018546D01*
X018942Y018537D01*
X018892Y018532D01*
X018841Y018531D01*
X018791Y018534D01*
X018741Y018541D01*
X018692Y018552D01*
X018644Y018566D01*
X018597Y018584D01*
X018551Y018606D01*
X018507Y018631D01*
X018466Y018660D01*
X018427Y018691D01*
X018390Y018726D01*
X018356Y018763D01*
X018325Y018803D01*
X018297Y018845D01*
X018273Y018889D01*
X018252Y018935D01*
X018235Y018983D01*
X018222Y019031D01*
X018212Y019081D01*
X018206Y019131D01*
X018204Y019181D01*
X018204Y001858D02*
X018206Y001908D01*
X018212Y001958D01*
X018222Y002008D01*
X018235Y002056D01*
X018252Y002104D01*
X018273Y002150D01*
X018297Y002194D01*
X018325Y002236D01*
X018356Y002276D01*
X018390Y002313D01*
X018427Y002348D01*
X018466Y002379D01*
X018507Y002408D01*
X018551Y002433D01*
X018597Y002455D01*
X018644Y002473D01*
X018692Y002487D01*
X018741Y002498D01*
X018791Y002505D01*
X018841Y002508D01*
X018892Y002507D01*
X018942Y002502D01*
X018992Y002493D01*
X019040Y002481D01*
X019088Y002464D01*
X019134Y002444D01*
X019179Y002421D01*
X019222Y002394D01*
X019262Y002364D01*
X019300Y002331D01*
X019335Y002295D01*
X019368Y002256D01*
X019397Y002215D01*
X019423Y002172D01*
X019446Y002127D01*
X019465Y002080D01*
X019480Y002032D01*
X019492Y001983D01*
X019500Y001933D01*
X019504Y001883D01*
X019504Y001833D01*
X019500Y001783D01*
X019492Y001733D01*
X019480Y001684D01*
X019465Y001636D01*
X019446Y001589D01*
X019423Y001544D01*
X019397Y001501D01*
X019368Y001460D01*
X019335Y001421D01*
X019300Y001385D01*
X019262Y001352D01*
X019222Y001322D01*
X019179Y001295D01*
X019134Y001272D01*
X019088Y001252D01*
X019040Y001235D01*
X018992Y001223D01*
X018942Y001214D01*
X018892Y001209D01*
X018841Y001208D01*
X018791Y001211D01*
X018741Y001218D01*
X018692Y001229D01*
X018644Y001243D01*
X018597Y001261D01*
X018551Y001283D01*
X018507Y001308D01*
X018466Y001337D01*
X018427Y001368D01*
X018390Y001403D01*
X018356Y001440D01*
X018325Y001480D01*
X018297Y001522D01*
X018273Y001566D01*
X018252Y001612D01*
X018235Y001660D01*
X018222Y001708D01*
X018212Y001758D01*
X018206Y001808D01*
X018204Y001858D01*
M02*
