G75*
G70*
%OFA0B0*%
%FSLAX24Y24*%
%IPPOS*%
%LPD*%
%AMOC8*
5,1,8,0,0,1.08239X$1,22.5*
%
%ADD10C,0.0000*%
%ADD11C,0.0440*%
%ADD12OC8,0.0520*%
%ADD13C,0.0520*%
%ADD14OC8,0.0600*%
%ADD15C,0.0515*%
%ADD16C,0.0660*%
%ADD17OC8,0.0660*%
%ADD18C,0.0885*%
%ADD19C,0.0317*%
%ADD20C,0.0160*%
%ADD21C,0.0100*%
%ADD22C,0.0240*%
%ADD23C,0.0277*%
%ADD24C,0.0120*%
%ADD25C,0.0500*%
%ADD26C,0.0320*%
%ADD27C,0.0240*%
D10*
X000350Y000677D02*
X000350Y020362D01*
X020035Y020362D01*
X020035Y000677D01*
X000350Y000677D01*
X000881Y001858D02*
X000883Y001908D01*
X000889Y001958D01*
X000899Y002008D01*
X000912Y002056D01*
X000929Y002104D01*
X000950Y002150D01*
X000974Y002194D01*
X001002Y002236D01*
X001033Y002276D01*
X001067Y002313D01*
X001104Y002348D01*
X001143Y002379D01*
X001184Y002408D01*
X001228Y002433D01*
X001274Y002455D01*
X001321Y002473D01*
X001369Y002487D01*
X001418Y002498D01*
X001468Y002505D01*
X001518Y002508D01*
X001569Y002507D01*
X001619Y002502D01*
X001669Y002493D01*
X001717Y002481D01*
X001765Y002464D01*
X001811Y002444D01*
X001856Y002421D01*
X001899Y002394D01*
X001939Y002364D01*
X001977Y002331D01*
X002012Y002295D01*
X002045Y002256D01*
X002074Y002215D01*
X002100Y002172D01*
X002123Y002127D01*
X002142Y002080D01*
X002157Y002032D01*
X002169Y001983D01*
X002177Y001933D01*
X002181Y001883D01*
X002181Y001833D01*
X002177Y001783D01*
X002169Y001733D01*
X002157Y001684D01*
X002142Y001636D01*
X002123Y001589D01*
X002100Y001544D01*
X002074Y001501D01*
X002045Y001460D01*
X002012Y001421D01*
X001977Y001385D01*
X001939Y001352D01*
X001899Y001322D01*
X001856Y001295D01*
X001811Y001272D01*
X001765Y001252D01*
X001717Y001235D01*
X001669Y001223D01*
X001619Y001214D01*
X001569Y001209D01*
X001518Y001208D01*
X001468Y001211D01*
X001418Y001218D01*
X001369Y001229D01*
X001321Y001243D01*
X001274Y001261D01*
X001228Y001283D01*
X001184Y001308D01*
X001143Y001337D01*
X001104Y001368D01*
X001067Y001403D01*
X001033Y001440D01*
X001002Y001480D01*
X000974Y001522D01*
X000950Y001566D01*
X000929Y001612D01*
X000912Y001660D01*
X000899Y001708D01*
X000889Y001758D01*
X000883Y001808D01*
X000881Y001858D01*
X000881Y019181D02*
X000883Y019231D01*
X000889Y019281D01*
X000899Y019331D01*
X000912Y019379D01*
X000929Y019427D01*
X000950Y019473D01*
X000974Y019517D01*
X001002Y019559D01*
X001033Y019599D01*
X001067Y019636D01*
X001104Y019671D01*
X001143Y019702D01*
X001184Y019731D01*
X001228Y019756D01*
X001274Y019778D01*
X001321Y019796D01*
X001369Y019810D01*
X001418Y019821D01*
X001468Y019828D01*
X001518Y019831D01*
X001569Y019830D01*
X001619Y019825D01*
X001669Y019816D01*
X001717Y019804D01*
X001765Y019787D01*
X001811Y019767D01*
X001856Y019744D01*
X001899Y019717D01*
X001939Y019687D01*
X001977Y019654D01*
X002012Y019618D01*
X002045Y019579D01*
X002074Y019538D01*
X002100Y019495D01*
X002123Y019450D01*
X002142Y019403D01*
X002157Y019355D01*
X002169Y019306D01*
X002177Y019256D01*
X002181Y019206D01*
X002181Y019156D01*
X002177Y019106D01*
X002169Y019056D01*
X002157Y019007D01*
X002142Y018959D01*
X002123Y018912D01*
X002100Y018867D01*
X002074Y018824D01*
X002045Y018783D01*
X002012Y018744D01*
X001977Y018708D01*
X001939Y018675D01*
X001899Y018645D01*
X001856Y018618D01*
X001811Y018595D01*
X001765Y018575D01*
X001717Y018558D01*
X001669Y018546D01*
X001619Y018537D01*
X001569Y018532D01*
X001518Y018531D01*
X001468Y018534D01*
X001418Y018541D01*
X001369Y018552D01*
X001321Y018566D01*
X001274Y018584D01*
X001228Y018606D01*
X001184Y018631D01*
X001143Y018660D01*
X001104Y018691D01*
X001067Y018726D01*
X001033Y018763D01*
X001002Y018803D01*
X000974Y018845D01*
X000950Y018889D01*
X000929Y018935D01*
X000912Y018983D01*
X000899Y019031D01*
X000889Y019081D01*
X000883Y019131D01*
X000881Y019181D01*
X018204Y019181D02*
X018206Y019231D01*
X018212Y019281D01*
X018222Y019331D01*
X018235Y019379D01*
X018252Y019427D01*
X018273Y019473D01*
X018297Y019517D01*
X018325Y019559D01*
X018356Y019599D01*
X018390Y019636D01*
X018427Y019671D01*
X018466Y019702D01*
X018507Y019731D01*
X018551Y019756D01*
X018597Y019778D01*
X018644Y019796D01*
X018692Y019810D01*
X018741Y019821D01*
X018791Y019828D01*
X018841Y019831D01*
X018892Y019830D01*
X018942Y019825D01*
X018992Y019816D01*
X019040Y019804D01*
X019088Y019787D01*
X019134Y019767D01*
X019179Y019744D01*
X019222Y019717D01*
X019262Y019687D01*
X019300Y019654D01*
X019335Y019618D01*
X019368Y019579D01*
X019397Y019538D01*
X019423Y019495D01*
X019446Y019450D01*
X019465Y019403D01*
X019480Y019355D01*
X019492Y019306D01*
X019500Y019256D01*
X019504Y019206D01*
X019504Y019156D01*
X019500Y019106D01*
X019492Y019056D01*
X019480Y019007D01*
X019465Y018959D01*
X019446Y018912D01*
X019423Y018867D01*
X019397Y018824D01*
X019368Y018783D01*
X019335Y018744D01*
X019300Y018708D01*
X019262Y018675D01*
X019222Y018645D01*
X019179Y018618D01*
X019134Y018595D01*
X019088Y018575D01*
X019040Y018558D01*
X018992Y018546D01*
X018942Y018537D01*
X018892Y018532D01*
X018841Y018531D01*
X018791Y018534D01*
X018741Y018541D01*
X018692Y018552D01*
X018644Y018566D01*
X018597Y018584D01*
X018551Y018606D01*
X018507Y018631D01*
X018466Y018660D01*
X018427Y018691D01*
X018390Y018726D01*
X018356Y018763D01*
X018325Y018803D01*
X018297Y018845D01*
X018273Y018889D01*
X018252Y018935D01*
X018235Y018983D01*
X018222Y019031D01*
X018212Y019081D01*
X018206Y019131D01*
X018204Y019181D01*
X018204Y001858D02*
X018206Y001908D01*
X018212Y001958D01*
X018222Y002008D01*
X018235Y002056D01*
X018252Y002104D01*
X018273Y002150D01*
X018297Y002194D01*
X018325Y002236D01*
X018356Y002276D01*
X018390Y002313D01*
X018427Y002348D01*
X018466Y002379D01*
X018507Y002408D01*
X018551Y002433D01*
X018597Y002455D01*
X018644Y002473D01*
X018692Y002487D01*
X018741Y002498D01*
X018791Y002505D01*
X018841Y002508D01*
X018892Y002507D01*
X018942Y002502D01*
X018992Y002493D01*
X019040Y002481D01*
X019088Y002464D01*
X019134Y002444D01*
X019179Y002421D01*
X019222Y002394D01*
X019262Y002364D01*
X019300Y002331D01*
X019335Y002295D01*
X019368Y002256D01*
X019397Y002215D01*
X019423Y002172D01*
X019446Y002127D01*
X019465Y002080D01*
X019480Y002032D01*
X019492Y001983D01*
X019500Y001933D01*
X019504Y001883D01*
X019504Y001833D01*
X019500Y001783D01*
X019492Y001733D01*
X019480Y001684D01*
X019465Y001636D01*
X019446Y001589D01*
X019423Y001544D01*
X019397Y001501D01*
X019368Y001460D01*
X019335Y001421D01*
X019300Y001385D01*
X019262Y001352D01*
X019222Y001322D01*
X019179Y001295D01*
X019134Y001272D01*
X019088Y001252D01*
X019040Y001235D01*
X018992Y001223D01*
X018942Y001214D01*
X018892Y001209D01*
X018841Y001208D01*
X018791Y001211D01*
X018741Y001218D01*
X018692Y001229D01*
X018644Y001243D01*
X018597Y001261D01*
X018551Y001283D01*
X018507Y001308D01*
X018466Y001337D01*
X018427Y001368D01*
X018390Y001403D01*
X018356Y001440D01*
X018325Y001480D01*
X018297Y001522D01*
X018273Y001566D01*
X018252Y001612D01*
X018235Y001660D01*
X018222Y001708D01*
X018212Y001758D01*
X018206Y001808D01*
X018204Y001858D01*
D11*
X003268Y003713D02*
X002828Y003713D01*
X002828Y005634D02*
X003268Y005634D01*
D12*
X004413Y018118D03*
D13*
X005213Y018118D03*
D14*
X002783Y011405D03*
X002783Y009625D03*
X012315Y018001D03*
X012315Y019001D03*
X013315Y019001D03*
X014315Y019001D03*
X015315Y019001D03*
X016315Y019001D03*
X016315Y018001D03*
X015315Y018001D03*
X014315Y018001D03*
X013315Y018001D03*
X017803Y008645D03*
X017803Y007645D03*
X017803Y006645D03*
X018803Y006645D03*
X018803Y007645D03*
X018803Y008645D03*
X018803Y005575D03*
X017803Y005575D03*
X017803Y004575D03*
X017803Y003575D03*
X018803Y003575D03*
X018803Y004575D03*
D15*
X015922Y001542D03*
X014922Y001542D03*
X013922Y001542D03*
X010689Y001658D03*
X009689Y001658D03*
D16*
X006318Y001674D03*
X005118Y001674D03*
X004618Y002436D03*
D17*
X005718Y002436D03*
D18*
X003763Y009135D03*
X003763Y011895D03*
D19*
X005665Y008787D03*
X006649Y008748D03*
X008126Y010318D03*
X009056Y010318D03*
D20*
X008126Y010318D01*
X008145Y009496D02*
X009366Y009496D01*
X010938Y010444D02*
X011177Y010244D01*
X011492Y010470D02*
X011492Y010549D01*
X012432Y011489D01*
X013401Y011489D01*
X008815Y014924D02*
X008815Y014968D01*
X008815Y014924D02*
X008741Y014924D01*
X007791Y013708D02*
X007791Y013275D01*
X007791Y013708D02*
X006531Y014968D01*
X006531Y015756D01*
X006885Y016110D01*
X006256Y012020D02*
X007629Y012020D01*
X007633Y012016D01*
X012358Y006622D02*
X012476Y006622D01*
X011767Y005126D02*
X010980Y005126D01*
X012653Y004432D02*
X015015Y004831D01*
X014917Y001897D02*
X014917Y001542D01*
X014922Y001542D01*
X011964Y002685D02*
X010862Y002685D01*
X009287Y002645D02*
X009180Y002538D01*
X009248Y002626D02*
X009267Y002626D01*
X009287Y002645D01*
X005118Y001674D02*
X004609Y001674D01*
X004602Y001760D01*
D21*
X008893Y003866D02*
X008893Y006740D01*
X008854Y006740D01*
X010468Y006268D02*
X011019Y006268D01*
X012752Y006268D01*
X007122Y011149D02*
X006728Y011543D01*
D22*
X006728Y011543D03*
X007122Y011149D03*
X008854Y006740D03*
X010468Y006268D03*
X012752Y006268D03*
X008893Y003866D03*
X016374Y016189D03*
X016846Y016189D03*
X016137Y017173D03*
X015586Y017134D03*
X009602Y016307D03*
X009326Y016701D03*
X008539Y017488D03*
X008106Y017488D03*
D23*
X006807Y017567D03*
X006885Y016110D03*
X008052Y014924D03*
X008741Y014924D03*
X007791Y013275D03*
X007633Y012016D03*
X006256Y012020D03*
X008145Y009496D03*
X009366Y009496D03*
X010350Y010716D03*
X011492Y010470D03*
X013401Y011489D03*
X016256Y011504D03*
X015862Y008669D03*
X014248Y008669D03*
X012358Y006622D03*
X011649Y007685D03*
X011216Y008000D03*
X009381Y005716D03*
X009691Y005480D03*
X010980Y005126D03*
X011767Y005126D03*
X012653Y004432D03*
X011767Y003905D03*
X011767Y003512D03*
X011019Y003512D03*
X010704Y003905D03*
X010862Y002685D03*
X011964Y002685D03*
X009267Y002626D03*
X007958Y006356D03*
X007958Y007030D03*
X001256Y004732D03*
X010350Y016464D03*
X009641Y017567D03*
X013893Y014535D03*
X018303Y017094D03*
X002781Y017134D03*
X017319Y001268D03*
D24*
X011767Y003512D02*
X011019Y003512D01*
X010704Y003905D02*
X011767Y003905D01*
X009691Y005480D02*
X009691Y006002D01*
X011334Y007645D01*
X011374Y007685D01*
X011649Y007685D01*
X011216Y008000D02*
X009381Y006164D01*
X009381Y005716D01*
X016374Y016189D02*
X016374Y016386D01*
X015586Y017134D01*
X016137Y017173D02*
X016846Y016464D01*
X016846Y016189D01*
X009602Y016307D02*
X009287Y016307D01*
X008106Y017488D01*
X008539Y017488D02*
X009326Y016701D01*
D25*
X009524Y017127D02*
X015116Y017127D01*
X015116Y017040D02*
X015116Y017227D01*
X015167Y017351D01*
X015046Y017351D01*
X014815Y017581D01*
X014585Y017351D01*
X014046Y017351D01*
X013815Y017581D01*
X013585Y017351D01*
X013046Y017351D01*
X012815Y017581D01*
X012585Y017351D01*
X012046Y017351D01*
X011665Y017731D01*
X011665Y018270D01*
X011896Y018501D01*
X011665Y018731D01*
X011665Y019270D01*
X012046Y019651D01*
X012585Y019651D01*
X012815Y019420D01*
X013046Y019651D01*
X013585Y019651D01*
X013815Y019420D01*
X014046Y019651D01*
X014585Y019651D01*
X014815Y019420D01*
X015046Y019651D01*
X015585Y019651D01*
X015815Y019420D01*
X016046Y019651D01*
X016315Y019651D01*
X016315Y019001D01*
X016315Y019001D01*
X016315Y019651D01*
X016585Y019651D01*
X016965Y019270D01*
X016965Y019001D01*
X016315Y019001D01*
X016315Y019001D01*
X016965Y019001D01*
X016965Y018731D01*
X016735Y018501D01*
X016965Y018270D01*
X016965Y017731D01*
X016585Y017351D01*
X016573Y017351D01*
X016596Y017294D01*
X017194Y016697D01*
X017256Y016546D01*
X017256Y016427D01*
X017316Y016282D01*
X017316Y016095D01*
X017245Y015923D01*
X017112Y015790D01*
X016940Y015719D01*
X016753Y015719D01*
X016610Y015778D01*
X016467Y015719D01*
X016280Y015719D01*
X016107Y015790D01*
X015975Y015923D01*
X015904Y016095D01*
X015904Y016267D01*
X015480Y016669D01*
X015320Y016735D01*
X015188Y016867D01*
X015116Y017040D01*
X015522Y016629D02*
X009945Y016629D01*
X010000Y016573D02*
X009868Y016705D01*
X009796Y016735D01*
X009796Y016794D01*
X009725Y016967D01*
X009593Y017099D01*
X009448Y017159D01*
X008997Y017609D01*
X008937Y017754D01*
X008805Y017886D01*
X008632Y017958D01*
X008445Y017958D01*
X008322Y017907D01*
X008199Y017958D01*
X008012Y017958D01*
X007840Y017886D01*
X007707Y017754D01*
X007636Y017581D01*
X007636Y017395D01*
X007707Y017222D01*
X007840Y017090D01*
X007985Y017030D01*
X009055Y015959D01*
X009205Y015897D01*
X009364Y015897D01*
X009508Y015837D01*
X009695Y015837D01*
X009868Y015908D01*
X010000Y016041D01*
X010072Y016213D01*
X010072Y016400D01*
X010000Y016573D01*
X010038Y016130D02*
X015904Y016130D01*
X016763Y017127D02*
X019685Y017127D01*
X019685Y017626D02*
X016860Y017626D01*
X016965Y018124D02*
X018482Y018124D01*
X018656Y018061D02*
X019051Y018061D01*
X019423Y018196D01*
X019685Y018416D01*
X019685Y013249D01*
X019632Y013271D01*
X016501Y013271D01*
X016372Y013218D01*
X016274Y013119D01*
X016220Y012991D01*
X016220Y010279D01*
X016147Y010279D01*
X016018Y010226D01*
X015919Y010127D01*
X015866Y009999D01*
X015866Y009269D01*
X015919Y009140D01*
X016018Y009042D01*
X016147Y008988D01*
X017226Y008988D01*
X017153Y008915D01*
X017153Y008376D01*
X017384Y008145D01*
X017153Y007915D01*
X017153Y007645D01*
X017153Y007376D01*
X017384Y007145D01*
X017153Y006915D01*
X017153Y006376D01*
X017419Y006110D01*
X017153Y005844D01*
X017153Y005575D01*
X017803Y005575D01*
X017803Y005575D01*
X017153Y005575D01*
X017153Y005305D01*
X017384Y005075D01*
X017153Y004844D01*
X017153Y004305D01*
X017384Y004075D01*
X017153Y003844D01*
X017153Y003305D01*
X017534Y002925D01*
X018072Y002925D01*
X018303Y003155D01*
X018527Y002931D01*
X018285Y002843D01*
X017983Y002589D01*
X017785Y002247D01*
X017717Y001858D01*
X017785Y001469D01*
X017983Y001127D01*
X018102Y001027D01*
X016266Y001027D01*
X016267Y001027D01*
X016437Y001198D01*
X016530Y001421D01*
X016530Y001663D01*
X016437Y001886D01*
X016267Y002057D01*
X016043Y002150D01*
X015802Y002150D01*
X015578Y002057D01*
X015417Y001896D01*
X015386Y001938D01*
X015318Y002006D01*
X015241Y002062D01*
X015156Y002105D01*
X015065Y002135D01*
X014970Y002150D01*
X014922Y002150D01*
X014875Y002150D01*
X014780Y002135D01*
X014689Y002105D01*
X014604Y002062D01*
X014527Y002006D01*
X014459Y001938D01*
X014428Y001896D01*
X014267Y002057D01*
X014043Y002150D01*
X013802Y002150D01*
X013578Y002057D01*
X013407Y001886D01*
X013315Y001663D01*
X013315Y001421D01*
X013407Y001198D01*
X013578Y001027D01*
X013579Y001027D01*
X006534Y001027D01*
X006703Y001097D01*
X006895Y001288D01*
X006998Y001538D01*
X006998Y001809D01*
X006895Y002059D01*
X006703Y002250D01*
X006453Y002354D01*
X006398Y002354D01*
X006398Y002718D01*
X006000Y003116D01*
X005436Y003116D01*
X005168Y002848D01*
X005003Y003013D01*
X004753Y003116D01*
X004483Y003116D01*
X004233Y003013D01*
X004042Y002821D01*
X003938Y002571D01*
X003938Y002301D01*
X004042Y002051D01*
X004233Y001860D01*
X004445Y001772D01*
X004438Y001718D01*
X004438Y001674D01*
X002636Y001674D01*
X002668Y001858D02*
X002600Y001469D01*
X002600Y001469D01*
X002402Y001127D01*
X002402Y001127D01*
X002283Y001027D01*
X004904Y001027D01*
X004899Y001028D01*
X004817Y001062D01*
X004740Y001107D01*
X004669Y001161D01*
X004606Y001224D01*
X004551Y001295D01*
X004507Y001372D01*
X004473Y001455D01*
X004450Y001541D01*
X004438Y001629D01*
X004438Y001674D01*
X005118Y001674D01*
X005118Y001674D01*
X004438Y001674D01*
X003991Y002172D02*
X002613Y002172D01*
X002600Y002247D02*
X002600Y002247D01*
X002402Y002589D01*
X002100Y002843D01*
X002100Y002843D01*
X001729Y002978D01*
X001334Y002978D01*
X000962Y002843D01*
X000700Y002623D01*
X000700Y018416D01*
X000962Y018196D01*
X000962Y018196D01*
X001334Y018061D01*
X001729Y018061D01*
X002100Y018196D01*
X002402Y018450D01*
X002600Y018792D01*
X002668Y019181D01*
X002600Y019570D01*
X002402Y019912D01*
X002283Y020012D01*
X018102Y020012D01*
X017983Y019912D01*
X017983Y019912D01*
X017983Y019912D01*
X017785Y019570D01*
X017785Y019570D01*
X017717Y019181D01*
X017785Y018792D01*
X017983Y018450D01*
X018285Y018196D01*
X018285Y018196D01*
X018656Y018061D01*
X019226Y018124D02*
X019685Y018124D01*
X019423Y018196D02*
X019423Y018196D01*
X017983Y018450D02*
X017983Y018450D01*
X017883Y018623D02*
X016857Y018623D01*
X016965Y019121D02*
X017727Y019121D01*
X017717Y019181D02*
X017717Y019181D01*
X017785Y018792D02*
X017785Y018792D01*
X017814Y019620D02*
X016615Y019620D01*
X016315Y019620D02*
X016315Y019620D01*
X016016Y019620D02*
X015615Y019620D01*
X015016Y019620D02*
X014615Y019620D01*
X014016Y019620D02*
X013615Y019620D01*
X013016Y019620D02*
X012615Y019620D01*
X012016Y019620D02*
X002571Y019620D01*
X002600Y019570D02*
X002600Y019570D01*
X002668Y019181D02*
X002668Y019181D01*
X002658Y019121D02*
X011665Y019121D01*
X011774Y018623D02*
X005570Y018623D01*
X005558Y018635D02*
X005334Y018728D01*
X005091Y018728D01*
X004867Y018635D01*
X004813Y018580D01*
X004665Y018728D01*
X004413Y018728D01*
X004413Y018118D01*
X004413Y018118D01*
X004413Y018728D01*
X004160Y018728D01*
X003803Y018370D01*
X003803Y018118D01*
X004413Y018118D01*
X004413Y018118D01*
X004413Y017508D01*
X004665Y017508D01*
X004813Y017655D01*
X004867Y017601D01*
X005091Y017508D01*
X005334Y017508D01*
X005558Y017601D01*
X005730Y017772D01*
X005823Y017996D01*
X005823Y018239D01*
X005730Y018463D01*
X005558Y018635D01*
X005823Y018124D02*
X011665Y018124D01*
X011771Y017626D02*
X008991Y017626D01*
X008385Y016629D02*
X000700Y016629D01*
X000700Y016130D02*
X008884Y016130D01*
X007802Y017127D02*
X000700Y017127D01*
X000700Y017626D02*
X004042Y017626D01*
X004160Y017508D02*
X003803Y017865D01*
X003803Y018118D01*
X004413Y018118D01*
X004413Y018118D01*
X004413Y017508D01*
X004160Y017508D01*
X004413Y017626D02*
X004413Y017626D01*
X004784Y017626D02*
X004842Y017626D01*
X004413Y018124D02*
X004413Y018124D01*
X004413Y018623D02*
X004413Y018623D01*
X004770Y018623D02*
X004855Y018623D01*
X004055Y018623D02*
X002502Y018623D01*
X002600Y018792D02*
X002600Y018792D01*
X002402Y018450D02*
X002402Y018450D01*
X002402Y018450D01*
X002100Y018196D02*
X002100Y018196D01*
X001903Y018124D02*
X003803Y018124D01*
X002402Y019912D02*
X002402Y019912D01*
X001159Y018124D02*
X000700Y018124D01*
X000700Y015632D02*
X019685Y015632D01*
X019685Y016130D02*
X017316Y016130D01*
X017222Y016629D02*
X019685Y016629D01*
X019685Y015133D02*
X000700Y015133D01*
X000700Y014635D02*
X019685Y014635D01*
X019685Y014136D02*
X000700Y014136D01*
X000700Y013638D02*
X019685Y013638D01*
X016294Y013139D02*
X000700Y013139D01*
X000700Y012641D02*
X003494Y012641D01*
X003606Y012687D02*
X003314Y012566D01*
X003091Y012343D01*
X002972Y012055D01*
X002783Y012055D01*
X002514Y012055D01*
X002133Y011674D01*
X002133Y011405D01*
X002783Y011405D01*
X002783Y012055D01*
X002783Y011405D01*
X002783Y011405D01*
X002783Y011405D01*
X002133Y011405D01*
X002133Y011135D01*
X002514Y010755D01*
X002783Y010755D01*
X002783Y011405D01*
X002783Y011405D01*
X002783Y010755D01*
X003052Y010755D01*
X003433Y011135D01*
X003433Y011173D01*
X003606Y011102D01*
X003921Y011102D01*
X004212Y011223D01*
X004435Y011446D01*
X004556Y011737D01*
X004556Y012052D01*
X004435Y012343D01*
X004212Y012566D01*
X003921Y012687D01*
X003606Y012687D01*
X004032Y012641D02*
X016220Y012641D01*
X016220Y012142D02*
X008110Y012142D01*
X008122Y012113D02*
X008048Y012292D01*
X007910Y012430D01*
X007731Y012504D01*
X007536Y012504D01*
X007406Y012450D01*
X006495Y012450D01*
X006353Y012509D01*
X006158Y012509D01*
X005979Y012435D01*
X005841Y012297D01*
X005767Y012118D01*
X005767Y011923D01*
X005841Y011744D01*
X005979Y011606D01*
X006158Y011532D01*
X006258Y011532D01*
X006258Y011450D01*
X006330Y011277D01*
X006462Y011145D01*
X006631Y011075D01*
X006653Y011052D01*
X006723Y010883D01*
X006855Y010751D01*
X007028Y010679D01*
X007215Y010679D01*
X007388Y010751D01*
X007520Y010883D01*
X007592Y011056D01*
X007592Y011243D01*
X007520Y011416D01*
X007388Y011548D01*
X007285Y011590D01*
X007383Y011590D01*
X007536Y011527D01*
X007731Y011527D01*
X007910Y011601D01*
X008048Y011739D01*
X008122Y011918D01*
X008122Y012113D01*
X007953Y011644D02*
X011979Y011644D01*
X012188Y011854D02*
X011222Y010888D01*
X011215Y010885D01*
X011077Y010747D01*
X011003Y010567D01*
X011003Y010373D01*
X011077Y010193D01*
X011215Y010056D01*
X011395Y009982D01*
X011589Y009982D01*
X011769Y010056D01*
X011906Y010193D01*
X011980Y010373D01*
X011980Y010430D01*
X012610Y011059D01*
X013162Y011059D01*
X013304Y011000D01*
X013498Y011000D01*
X013678Y011075D01*
X013816Y011212D01*
X013890Y011392D01*
X013890Y011586D01*
X013816Y011766D01*
X013678Y011903D01*
X013498Y011978D01*
X013304Y011978D01*
X013162Y011919D01*
X012346Y011919D01*
X012188Y011854D01*
X011480Y011145D02*
X007592Y011145D01*
X007838Y010749D02*
X007695Y010606D01*
X007617Y010419D01*
X007617Y010217D01*
X007695Y010030D01*
X007838Y009887D01*
X007843Y009885D01*
X007731Y009773D01*
X007657Y009593D01*
X007657Y009399D01*
X007731Y009219D01*
X007868Y009082D01*
X008048Y009007D01*
X008242Y009007D01*
X008384Y009066D01*
X009127Y009066D01*
X009269Y009007D01*
X009463Y009007D01*
X009643Y009082D01*
X009780Y009219D01*
X009854Y009399D01*
X009854Y009593D01*
X009780Y009773D01*
X009643Y009910D01*
X009463Y009985D01*
X009442Y009985D01*
X009487Y010030D01*
X009564Y010217D01*
X009564Y010419D01*
X009487Y010606D01*
X009344Y010749D01*
X009157Y010826D01*
X008955Y010826D01*
X008768Y010749D01*
X008767Y010748D01*
X008415Y010748D01*
X008414Y010749D01*
X008227Y010826D01*
X008024Y010826D01*
X007838Y010749D01*
X007736Y010647D02*
X000700Y010647D01*
X000700Y011145D02*
X002133Y011145D01*
X002133Y011644D02*
X000700Y011644D01*
X000700Y012142D02*
X003008Y012142D01*
X002783Y011644D02*
X002783Y011644D01*
X002783Y011145D02*
X002783Y011145D01*
X003433Y011145D02*
X003501Y011145D01*
X004026Y011145D02*
X006461Y011145D01*
X005941Y011644D02*
X004517Y011644D01*
X004518Y012142D02*
X005777Y012142D01*
X007645Y010148D02*
X003179Y010148D01*
X003052Y010275D02*
X002514Y010275D01*
X002133Y009894D01*
X002133Y009355D01*
X002514Y008975D01*
X002972Y008975D01*
X003091Y008686D01*
X003314Y008463D01*
X003606Y008342D01*
X003921Y008342D01*
X004212Y008463D01*
X004435Y008686D01*
X004556Y008977D01*
X004556Y009292D01*
X004435Y009583D01*
X004212Y009806D01*
X003921Y009927D01*
X003606Y009927D01*
X003433Y009856D01*
X003433Y009894D01*
X003052Y010275D01*
X002388Y010148D02*
X000700Y010148D01*
X000700Y009650D02*
X002133Y009650D01*
X002337Y009151D02*
X000700Y009151D01*
X000700Y008653D02*
X003124Y008653D01*
X004402Y008653D02*
X005170Y008653D01*
X005157Y008686D02*
X005234Y008499D01*
X005377Y008356D01*
X005564Y008279D01*
X005609Y008279D01*
X005611Y008278D01*
X006455Y008278D01*
X006548Y008239D01*
X006750Y008239D01*
X006937Y008317D01*
X007080Y008460D01*
X007158Y008647D01*
X007158Y008849D01*
X007080Y009036D01*
X006937Y009179D01*
X006750Y009256D01*
X006548Y009256D01*
X006455Y009218D01*
X005953Y009218D01*
X005766Y009296D01*
X005564Y009296D01*
X005377Y009218D01*
X005234Y009075D01*
X005157Y008888D01*
X005157Y008686D01*
X005310Y009151D02*
X004556Y009151D01*
X004369Y009650D02*
X007680Y009650D01*
X007798Y009151D02*
X006965Y009151D01*
X007158Y008653D02*
X017153Y008653D01*
X017375Y008154D02*
X011793Y008154D01*
X011746Y008174D02*
X011673Y008174D01*
X011630Y008277D01*
X011493Y008414D01*
X011313Y008489D01*
X011119Y008489D01*
X010939Y008414D01*
X010802Y008277D01*
X010727Y008097D01*
X010727Y008091D01*
X009324Y006687D01*
X009324Y006833D01*
X009252Y007006D01*
X009120Y007138D01*
X008947Y007210D01*
X008760Y007210D01*
X008588Y007138D01*
X008455Y007006D01*
X008384Y006833D01*
X008384Y006646D01*
X008455Y006474D01*
X008493Y006436D01*
X008493Y004128D01*
X008423Y003959D01*
X008423Y003772D01*
X008495Y003600D01*
X008627Y003467D01*
X008800Y003396D01*
X008987Y003396D01*
X009160Y003467D01*
X009292Y003600D01*
X009363Y003772D01*
X009363Y003959D01*
X009293Y004128D01*
X009293Y005186D01*
X009414Y005066D01*
X009593Y004991D01*
X009788Y004991D01*
X009967Y005066D01*
X010105Y005203D01*
X010179Y005383D01*
X010179Y005577D01*
X010105Y005757D01*
X010101Y005761D01*
X010101Y005832D01*
X010170Y005901D01*
X010202Y005869D01*
X010375Y005798D01*
X010562Y005798D01*
X010731Y005868D01*
X012489Y005868D01*
X012658Y005798D01*
X012845Y005798D01*
X013018Y005869D01*
X013150Y006001D01*
X013222Y006174D01*
X013222Y006361D01*
X013150Y006534D01*
X013018Y006666D01*
X012845Y006738D01*
X012658Y006738D01*
X012489Y006668D01*
X010936Y006668D01*
X011490Y007222D01*
X011552Y007196D01*
X011746Y007196D01*
X011926Y007271D01*
X012064Y007408D01*
X012138Y007588D01*
X012138Y007782D01*
X012064Y007962D01*
X011926Y008099D01*
X011746Y008174D01*
X012138Y007656D02*
X017153Y007656D01*
X017153Y007645D02*
X017803Y007645D01*
X017153Y007645D01*
X017372Y007157D02*
X011426Y007157D01*
X010751Y008154D02*
X000700Y008154D01*
X000700Y007656D02*
X010292Y007656D01*
X009794Y007157D02*
X009074Y007157D01*
X008634Y007157D02*
X000700Y007157D01*
X000700Y006659D02*
X008384Y006659D01*
X008493Y006160D02*
X003487Y006160D01*
X003591Y006118D02*
X003381Y006204D01*
X002714Y006204D01*
X002505Y006118D01*
X002344Y005957D01*
X002258Y005748D01*
X002258Y005521D01*
X002344Y005312D01*
X002505Y005151D01*
X002714Y005064D01*
X003381Y005064D01*
X003591Y005151D01*
X003751Y005312D01*
X003838Y005521D01*
X003838Y005748D01*
X003751Y005957D01*
X003591Y006118D01*
X003838Y005662D02*
X008493Y005662D01*
X008493Y005163D02*
X003603Y005163D01*
X003381Y004283D02*
X002714Y004283D01*
X002505Y004196D01*
X002344Y004036D01*
X002258Y003827D01*
X002258Y003600D01*
X002344Y003390D01*
X002505Y003230D01*
X002714Y003143D01*
X003381Y003143D01*
X003591Y003230D01*
X003751Y003390D01*
X003838Y003600D01*
X003838Y003827D01*
X003751Y004036D01*
X003591Y004196D01*
X003381Y004283D01*
X003620Y004166D02*
X008493Y004166D01*
X008493Y004665D02*
X000700Y004665D01*
X000700Y005163D02*
X002493Y005163D01*
X002258Y005662D02*
X000700Y005662D01*
X000700Y006160D02*
X002608Y006160D01*
X002475Y004166D02*
X000700Y004166D01*
X000700Y003668D02*
X002258Y003668D01*
X002651Y003169D02*
X000700Y003169D01*
X000962Y002843D02*
X000962Y002843D01*
X000757Y002671D02*
X000700Y002671D01*
X002305Y002671D02*
X003979Y002671D01*
X003444Y003169D02*
X010670Y003169D01*
X010695Y003145D02*
X010585Y003099D01*
X010447Y002962D01*
X010373Y002782D01*
X010373Y002588D01*
X010447Y002408D01*
X010585Y002271D01*
X010597Y002266D01*
X010569Y002266D01*
X010345Y002173D01*
X010189Y002017D01*
X010033Y002173D01*
X009810Y002266D01*
X009569Y002266D01*
X009345Y002173D01*
X009174Y002002D01*
X009082Y001779D01*
X009082Y001537D01*
X009174Y001314D01*
X009345Y001143D01*
X009569Y001051D01*
X009810Y001051D01*
X010033Y001143D01*
X010189Y001299D01*
X010345Y001143D01*
X010569Y001051D01*
X010810Y001051D01*
X011033Y001143D01*
X011204Y001314D01*
X011297Y001537D01*
X011297Y001779D01*
X011204Y002002D01*
X011033Y002173D01*
X010968Y002200D01*
X011101Y002255D01*
X011725Y002255D01*
X011867Y002196D01*
X012061Y002196D01*
X012241Y002271D01*
X012379Y002408D01*
X012453Y002588D01*
X012453Y002782D01*
X012379Y002962D01*
X012241Y003099D01*
X012103Y003156D01*
X012182Y003235D01*
X012256Y003414D01*
X012256Y003609D01*
X012215Y003708D01*
X012256Y003808D01*
X012256Y004003D01*
X012182Y004182D01*
X012044Y004320D01*
X011865Y004394D01*
X011670Y004394D01*
X011490Y004320D01*
X011486Y004315D01*
X010986Y004315D01*
X010981Y004320D01*
X010802Y004394D01*
X010607Y004394D01*
X010427Y004320D01*
X010290Y004182D01*
X010216Y004003D01*
X010216Y003808D01*
X010290Y003628D01*
X010427Y003491D01*
X010531Y003448D01*
X010531Y003414D01*
X010605Y003235D01*
X010695Y003145D01*
X010274Y003668D02*
X009320Y003668D01*
X009293Y004166D02*
X010283Y004166D01*
X010703Y004711D02*
X010883Y004637D01*
X011077Y004637D01*
X011219Y004696D01*
X011528Y004696D01*
X011670Y004637D01*
X011865Y004637D01*
X012044Y004711D01*
X012182Y004849D01*
X012256Y005029D01*
X012256Y005223D01*
X012182Y005403D01*
X012044Y005540D01*
X011865Y005615D01*
X011670Y005615D01*
X011528Y005556D01*
X011219Y005556D01*
X011077Y005615D01*
X010883Y005615D01*
X010703Y005540D01*
X010566Y005403D01*
X010491Y005223D01*
X010491Y005029D01*
X010566Y004849D01*
X010703Y004711D01*
X010815Y004665D02*
X009293Y004665D01*
X009293Y005163D02*
X009316Y005163D01*
X010065Y005163D02*
X010491Y005163D01*
X010144Y005662D02*
X017153Y005662D01*
X017369Y006160D02*
X013216Y006160D01*
X013025Y006659D02*
X017153Y006659D01*
X017803Y007645D02*
X017803Y007645D01*
X015915Y009151D02*
X009713Y009151D01*
X009831Y009650D02*
X015866Y009650D01*
X015941Y010148D02*
X011861Y010148D01*
X012198Y010647D02*
X016220Y010647D01*
X016220Y011145D02*
X013749Y011145D01*
X013866Y011644D02*
X016220Y011644D01*
X011036Y010647D02*
X009445Y010647D01*
X009536Y010148D02*
X011122Y010148D01*
X012256Y005163D02*
X017295Y005163D01*
X017153Y004665D02*
X011932Y004665D01*
X011603Y004665D02*
X011145Y004665D01*
X012188Y004166D02*
X017292Y004166D01*
X017153Y003668D02*
X012232Y003668D01*
X012116Y003169D02*
X017289Y003169D01*
X017983Y002589D02*
X017983Y002589D01*
X017983Y002589D01*
X018080Y002671D02*
X012453Y002671D01*
X013319Y001674D02*
X011297Y001674D01*
X011034Y002172D02*
X017772Y002172D01*
X017785Y002247D02*
X017785Y002247D01*
X017717Y001858D02*
X017717Y001858D01*
X017749Y001674D02*
X016525Y001674D01*
X016415Y001175D02*
X017955Y001175D01*
X017983Y001127D02*
X017983Y001127D01*
X017785Y001469D02*
X017785Y001469D01*
X018285Y002843D02*
X018285Y002843D01*
X014922Y002150D02*
X014922Y001542D01*
X014530Y001542D01*
X014530Y001542D01*
X014922Y001542D01*
X014922Y001542D01*
X014922Y002150D01*
X014922Y001674D02*
X014922Y001674D01*
X014922Y001542D02*
X014922Y001542D01*
X013430Y001175D02*
X011066Y001175D01*
X010313Y001175D02*
X010066Y001175D01*
X009313Y001175D02*
X006782Y001175D01*
X006998Y001674D02*
X009082Y001674D01*
X009345Y002172D02*
X006781Y002172D01*
X006398Y002671D02*
X010373Y002671D01*
X010345Y002172D02*
X010034Y002172D01*
X008467Y003668D02*
X003838Y003668D01*
X002402Y002589D02*
X002402Y002589D01*
X002600Y002247D02*
X002668Y001858D01*
X002668Y001858D01*
X002430Y001175D02*
X004655Y001175D01*
X002402Y001127D02*
X002402Y001127D01*
X005953Y009218D02*
X005953Y009218D01*
X005584Y017626D02*
X007654Y017626D01*
X016315Y019121D02*
X016315Y019121D01*
D26*
X016315Y019042D02*
X016610Y018748D01*
X016315Y019001D02*
X016315Y019042D01*
D27*
X006649Y008748D02*
X005704Y008748D01*
X005665Y008787D01*
X007934Y006976D02*
X007948Y006976D01*
X007934Y006976D02*
X007931Y006987D01*
X007932Y006998D01*
X007935Y007008D01*
X007941Y007018D01*
X007949Y007025D01*
X007958Y007030D01*
X007958Y006356D02*
X007961Y006350D01*
X007967Y006347D01*
X007974Y006346D01*
X007973Y006346D02*
X007948Y006346D01*
M02*
