%
M48
M72
T01C0.0120
T02C0.0236
T03C0.0315
T04C0.0394
T05C0.0400
T06C0.0516
T07C0.1300
%
T01
X4767Y5651
X4767Y6006
X4767Y6360
X4767Y6714
X6302Y7659
X7444Y8171
X7011Y9352
X6341Y8919
X5869Y8919
X5515Y8919
X5160Y8919
X4491Y8998
X3743Y8919
X2995Y8643
X3310Y8092
X1774Y9313
X1932Y9746
X1696Y10651
X1696Y11006
X1696Y11360
X1971Y12620
X2207Y12856
X1223Y12620
X1223Y13407
X2837Y14273
X2837Y15021
X3782Y14194
X4097Y14234
X4412Y14273
X4648Y14864
X4019Y15336
X4019Y15887
X4845Y15887
X5396Y16399
X4452Y16675
X4097Y17502
X4097Y18604
X4097Y19470
X4491Y19706
X5042Y20218
X4137Y20769
X6026Y20257
X7011Y20218
X7601Y19706
X7601Y18919
X6774Y17305
X6617Y16793
X7404Y15730
X7759Y16596
X7522Y14824
X7247Y12817
X7050Y11872
X7168Y11242
X6971Y10730
X6263Y11084
X5357Y11006
X5357Y10179
X4491Y10139
X3664Y10021
X3625Y11202
X3477Y11857
X4491Y11557
X5672Y12344
X4412Y13565
X4097Y13565
X3782Y13486
X8074Y9470
X8546Y8958
X9333Y8289
X8822Y7344
X11144Y9824
X11144Y11163
X11144Y12305
X11302Y13328
X11302Y14431
X11302Y15612
X10987Y16832
X10987Y17383
X13231Y15612
X13231Y14431
X13231Y13328
X13231Y12305
X13822Y11163
X13822Y9824
X12483Y9824
X12483Y11163
X15121Y10572
X15121Y9391
X16263Y9431
X16893Y10572
X17916Y9313
X18546Y8013
X18782Y10572
X18782Y12305
X18782Y13328
X18782Y14431
X18782Y15612
X17916Y15809
X16893Y15612
X16893Y14431
X16893Y13328
X16893Y12305
X15160Y12305
X15160Y13328
X15160Y14431
X15160Y15612
X14097Y17187
X13585Y20336
X7916Y20769
X9727Y13013
X8389Y12305
X8546Y10292
X9688Y10292
X11735Y8131
X12404Y8289
X13231Y6754
X17365Y2856
X7877Y4155
X6735Y4234
X6184Y4667
X7089Y3131
X1302Y8722
T02
X16798Y1675
X17798Y1675
X18798Y1675
T03
X13212Y2198
X12246Y1939
X10358Y1939
X9392Y2198
X5656Y1294
X5056Y2056
X4456Y1294
X3956Y2056
T04
X15889Y18998
X17660Y18998
T05
X20133Y6994
X21133Y6994
X21133Y5994
X20133Y5994
X20133Y4994
X21133Y4994
X21133Y3994
X20133Y3994
X2550Y15439
X1550Y15439
X1550Y16439
X1550Y17439
X2550Y17439
X2550Y16439
X2393Y7887
X1393Y7887
X1393Y6887
X2393Y6887
X2393Y5887
X2393Y4887
X1393Y4887
X1393Y5887
X1393Y3887
X2393Y3887
T06
X15394Y18017
X18154Y18017
T07
X2641Y2069
X2641Y19391
X19963Y19391
X19963Y2069
M30
