G75*
%MOIN*%
%OFA0B0*%
%FSLAX24Y24*%
%IPPOS*%
%LPD*%
%AMOC8*
5,1,8,0,0,1.08239X$1,22.5*
%
%ADD10C,0.0000*%
%ADD11OC8,0.0535*%
%ADD12C,0.0600*%
%ADD13C,0.0554*%
%ADD14C,0.0277*%
%ADD15C,0.0160*%
%ADD16C,0.0240*%
%ADD17C,0.0240*%
%ADD18C,0.0100*%
D10*
X007744Y006169D02*
X022705Y006169D01*
X023236Y008138D02*
X023238Y008188D01*
X023244Y008238D01*
X023254Y008288D01*
X023267Y008336D01*
X023284Y008384D01*
X023305Y008430D01*
X023329Y008474D01*
X023357Y008516D01*
X023388Y008556D01*
X023422Y008593D01*
X023459Y008628D01*
X023498Y008659D01*
X023539Y008688D01*
X023583Y008713D01*
X023629Y008735D01*
X023676Y008753D01*
X023724Y008767D01*
X023773Y008778D01*
X023823Y008785D01*
X023873Y008788D01*
X023924Y008787D01*
X023974Y008782D01*
X024024Y008773D01*
X024072Y008761D01*
X024120Y008744D01*
X024166Y008724D01*
X024211Y008701D01*
X024254Y008674D01*
X024294Y008644D01*
X024332Y008611D01*
X024367Y008575D01*
X024400Y008536D01*
X024429Y008495D01*
X024455Y008452D01*
X024478Y008407D01*
X024497Y008360D01*
X024512Y008312D01*
X024524Y008263D01*
X024532Y008213D01*
X024536Y008163D01*
X024536Y008113D01*
X024532Y008063D01*
X024524Y008013D01*
X024512Y007964D01*
X024497Y007916D01*
X024478Y007869D01*
X024455Y007824D01*
X024429Y007781D01*
X024400Y007740D01*
X024367Y007701D01*
X024332Y007665D01*
X024294Y007632D01*
X024254Y007602D01*
X024211Y007575D01*
X024166Y007552D01*
X024120Y007532D01*
X024072Y007515D01*
X024024Y007503D01*
X023974Y007494D01*
X023924Y007489D01*
X023873Y007488D01*
X023823Y007491D01*
X023773Y007498D01*
X023724Y007509D01*
X023676Y007523D01*
X023629Y007541D01*
X023583Y007563D01*
X023539Y007588D01*
X023498Y007617D01*
X023459Y007648D01*
X023422Y007683D01*
X023388Y007720D01*
X023357Y007760D01*
X023329Y007802D01*
X023305Y007846D01*
X023284Y007892D01*
X023267Y007940D01*
X023254Y007988D01*
X023244Y008038D01*
X023238Y008088D01*
X023236Y008138D01*
X022705Y006169D02*
X022815Y006171D01*
X022925Y006177D01*
X023034Y006186D01*
X023143Y006200D01*
X023252Y006217D01*
X023360Y006238D01*
X023467Y006263D01*
X023573Y006291D01*
X023678Y006323D01*
X023782Y006359D01*
X023885Y006398D01*
X023986Y006441D01*
X024086Y006488D01*
X024184Y006538D01*
X024280Y006591D01*
X024374Y006648D01*
X024466Y006708D01*
X024557Y006771D01*
X024644Y006837D01*
X024730Y006906D01*
X024813Y006978D01*
X024893Y007053D01*
X024971Y007131D01*
X025046Y007211D01*
X025118Y007294D01*
X025187Y007380D01*
X025253Y007467D01*
X025316Y007558D01*
X025376Y007650D01*
X025433Y007744D01*
X025486Y007840D01*
X025536Y007938D01*
X025583Y008038D01*
X025626Y008139D01*
X025665Y008242D01*
X025701Y008346D01*
X025733Y008451D01*
X025761Y008557D01*
X025786Y008664D01*
X025807Y008772D01*
X025824Y008881D01*
X025838Y008990D01*
X025847Y009099D01*
X025853Y009209D01*
X025855Y009319D01*
X025854Y009319D02*
X025854Y013059D01*
X025854Y019870D01*
X025854Y024280D01*
X023236Y025461D02*
X023238Y025511D01*
X023244Y025561D01*
X023254Y025611D01*
X023267Y025659D01*
X023284Y025707D01*
X023305Y025753D01*
X023329Y025797D01*
X023357Y025839D01*
X023388Y025879D01*
X023422Y025916D01*
X023459Y025951D01*
X023498Y025982D01*
X023539Y026011D01*
X023583Y026036D01*
X023629Y026058D01*
X023676Y026076D01*
X023724Y026090D01*
X023773Y026101D01*
X023823Y026108D01*
X023873Y026111D01*
X023924Y026110D01*
X023974Y026105D01*
X024024Y026096D01*
X024072Y026084D01*
X024120Y026067D01*
X024166Y026047D01*
X024211Y026024D01*
X024254Y025997D01*
X024294Y025967D01*
X024332Y025934D01*
X024367Y025898D01*
X024400Y025859D01*
X024429Y025818D01*
X024455Y025775D01*
X024478Y025730D01*
X024497Y025683D01*
X024512Y025635D01*
X024524Y025586D01*
X024532Y025536D01*
X024536Y025486D01*
X024536Y025436D01*
X024532Y025386D01*
X024524Y025336D01*
X024512Y025287D01*
X024497Y025239D01*
X024478Y025192D01*
X024455Y025147D01*
X024429Y025104D01*
X024400Y025063D01*
X024367Y025024D01*
X024332Y024988D01*
X024294Y024955D01*
X024254Y024925D01*
X024211Y024898D01*
X024166Y024875D01*
X024120Y024855D01*
X024072Y024838D01*
X024024Y024826D01*
X023974Y024817D01*
X023924Y024812D01*
X023873Y024811D01*
X023823Y024814D01*
X023773Y024821D01*
X023724Y024832D01*
X023676Y024846D01*
X023629Y024864D01*
X023583Y024886D01*
X023539Y024911D01*
X023498Y024940D01*
X023459Y024971D01*
X023422Y025006D01*
X023388Y025043D01*
X023357Y025083D01*
X023329Y025125D01*
X023305Y025169D01*
X023284Y025215D01*
X023267Y025263D01*
X023254Y025311D01*
X023244Y025361D01*
X023238Y025411D01*
X023236Y025461D01*
X025854Y024280D02*
X025852Y024404D01*
X025846Y024527D01*
X025837Y024651D01*
X025823Y024773D01*
X025806Y024896D01*
X025784Y025018D01*
X025759Y025139D01*
X025730Y025259D01*
X025698Y025378D01*
X025661Y025497D01*
X025621Y025614D01*
X025578Y025729D01*
X025530Y025844D01*
X025479Y025956D01*
X025425Y026067D01*
X025367Y026177D01*
X025306Y026284D01*
X025241Y026390D01*
X025173Y026493D01*
X025102Y026594D01*
X025028Y026693D01*
X024951Y026790D01*
X024870Y026884D01*
X024787Y026975D01*
X024701Y027064D01*
X024612Y027150D01*
X024521Y027233D01*
X024427Y027314D01*
X024330Y027391D01*
X024231Y027465D01*
X024130Y027536D01*
X024027Y027604D01*
X023921Y027669D01*
X023814Y027730D01*
X023704Y027788D01*
X023593Y027842D01*
X023481Y027893D01*
X023366Y027941D01*
X023251Y027984D01*
X023134Y028024D01*
X023015Y028061D01*
X022896Y028093D01*
X022776Y028122D01*
X022655Y028147D01*
X022533Y028169D01*
X022410Y028186D01*
X022288Y028200D01*
X022164Y028209D01*
X022041Y028215D01*
X021917Y028217D01*
X018020Y028217D01*
X017980Y028217D01*
X012469Y028217D01*
X008531Y028217D01*
X005913Y025461D02*
X005915Y025511D01*
X005921Y025561D01*
X005931Y025611D01*
X005944Y025659D01*
X005961Y025707D01*
X005982Y025753D01*
X006006Y025797D01*
X006034Y025839D01*
X006065Y025879D01*
X006099Y025916D01*
X006136Y025951D01*
X006175Y025982D01*
X006216Y026011D01*
X006260Y026036D01*
X006306Y026058D01*
X006353Y026076D01*
X006401Y026090D01*
X006450Y026101D01*
X006500Y026108D01*
X006550Y026111D01*
X006601Y026110D01*
X006651Y026105D01*
X006701Y026096D01*
X006749Y026084D01*
X006797Y026067D01*
X006843Y026047D01*
X006888Y026024D01*
X006931Y025997D01*
X006971Y025967D01*
X007009Y025934D01*
X007044Y025898D01*
X007077Y025859D01*
X007106Y025818D01*
X007132Y025775D01*
X007155Y025730D01*
X007174Y025683D01*
X007189Y025635D01*
X007201Y025586D01*
X007209Y025536D01*
X007213Y025486D01*
X007213Y025436D01*
X007209Y025386D01*
X007201Y025336D01*
X007189Y025287D01*
X007174Y025239D01*
X007155Y025192D01*
X007132Y025147D01*
X007106Y025104D01*
X007077Y025063D01*
X007044Y025024D01*
X007009Y024988D01*
X006971Y024955D01*
X006931Y024925D01*
X006888Y024898D01*
X006843Y024875D01*
X006797Y024855D01*
X006749Y024838D01*
X006701Y024826D01*
X006651Y024817D01*
X006601Y024812D01*
X006550Y024811D01*
X006500Y024814D01*
X006450Y024821D01*
X006401Y024832D01*
X006353Y024846D01*
X006306Y024864D01*
X006260Y024886D01*
X006216Y024911D01*
X006175Y024940D01*
X006136Y024971D01*
X006099Y025006D01*
X006065Y025043D01*
X006034Y025083D01*
X006006Y025125D01*
X005982Y025169D01*
X005961Y025215D01*
X005944Y025263D01*
X005931Y025311D01*
X005921Y025361D01*
X005915Y025411D01*
X005913Y025461D01*
X004594Y024280D02*
X004594Y009319D01*
X005913Y008138D02*
X005915Y008188D01*
X005921Y008238D01*
X005931Y008288D01*
X005944Y008336D01*
X005961Y008384D01*
X005982Y008430D01*
X006006Y008474D01*
X006034Y008516D01*
X006065Y008556D01*
X006099Y008593D01*
X006136Y008628D01*
X006175Y008659D01*
X006216Y008688D01*
X006260Y008713D01*
X006306Y008735D01*
X006353Y008753D01*
X006401Y008767D01*
X006450Y008778D01*
X006500Y008785D01*
X006550Y008788D01*
X006601Y008787D01*
X006651Y008782D01*
X006701Y008773D01*
X006749Y008761D01*
X006797Y008744D01*
X006843Y008724D01*
X006888Y008701D01*
X006931Y008674D01*
X006971Y008644D01*
X007009Y008611D01*
X007044Y008575D01*
X007077Y008536D01*
X007106Y008495D01*
X007132Y008452D01*
X007155Y008407D01*
X007174Y008360D01*
X007189Y008312D01*
X007201Y008263D01*
X007209Y008213D01*
X007213Y008163D01*
X007213Y008113D01*
X007209Y008063D01*
X007201Y008013D01*
X007189Y007964D01*
X007174Y007916D01*
X007155Y007869D01*
X007132Y007824D01*
X007106Y007781D01*
X007077Y007740D01*
X007044Y007701D01*
X007009Y007665D01*
X006971Y007632D01*
X006931Y007602D01*
X006888Y007575D01*
X006843Y007552D01*
X006797Y007532D01*
X006749Y007515D01*
X006701Y007503D01*
X006651Y007494D01*
X006601Y007489D01*
X006550Y007488D01*
X006500Y007491D01*
X006450Y007498D01*
X006401Y007509D01*
X006353Y007523D01*
X006306Y007541D01*
X006260Y007563D01*
X006216Y007588D01*
X006175Y007617D01*
X006136Y007648D01*
X006099Y007683D01*
X006065Y007720D01*
X006034Y007760D01*
X006006Y007802D01*
X005982Y007846D01*
X005961Y007892D01*
X005944Y007940D01*
X005931Y007988D01*
X005921Y008038D01*
X005915Y008088D01*
X005913Y008138D01*
X004594Y009319D02*
X004596Y009209D01*
X004602Y009099D01*
X004611Y008990D01*
X004625Y008881D01*
X004642Y008772D01*
X004663Y008664D01*
X004688Y008557D01*
X004716Y008451D01*
X004748Y008346D01*
X004784Y008242D01*
X004823Y008139D01*
X004866Y008038D01*
X004913Y007938D01*
X004963Y007840D01*
X005016Y007744D01*
X005073Y007650D01*
X005133Y007558D01*
X005196Y007467D01*
X005262Y007380D01*
X005331Y007294D01*
X005403Y007211D01*
X005478Y007131D01*
X005556Y007053D01*
X005636Y006978D01*
X005719Y006906D01*
X005805Y006837D01*
X005892Y006771D01*
X005983Y006708D01*
X006075Y006648D01*
X006169Y006591D01*
X006265Y006538D01*
X006363Y006488D01*
X006463Y006441D01*
X006564Y006398D01*
X006667Y006359D01*
X006771Y006323D01*
X006876Y006291D01*
X006982Y006263D01*
X007089Y006238D01*
X007197Y006217D01*
X007306Y006200D01*
X007415Y006186D01*
X007524Y006177D01*
X007634Y006171D01*
X007744Y006169D01*
X008669Y008138D02*
X008671Y008188D01*
X008677Y008238D01*
X008687Y008288D01*
X008700Y008336D01*
X008717Y008384D01*
X008738Y008430D01*
X008762Y008474D01*
X008790Y008516D01*
X008821Y008556D01*
X008855Y008593D01*
X008892Y008628D01*
X008931Y008659D01*
X008972Y008688D01*
X009016Y008713D01*
X009062Y008735D01*
X009109Y008753D01*
X009157Y008767D01*
X009206Y008778D01*
X009256Y008785D01*
X009306Y008788D01*
X009357Y008787D01*
X009407Y008782D01*
X009457Y008773D01*
X009505Y008761D01*
X009553Y008744D01*
X009599Y008724D01*
X009644Y008701D01*
X009687Y008674D01*
X009727Y008644D01*
X009765Y008611D01*
X009800Y008575D01*
X009833Y008536D01*
X009862Y008495D01*
X009888Y008452D01*
X009911Y008407D01*
X009930Y008360D01*
X009945Y008312D01*
X009957Y008263D01*
X009965Y008213D01*
X009969Y008163D01*
X009969Y008113D01*
X009965Y008063D01*
X009957Y008013D01*
X009945Y007964D01*
X009930Y007916D01*
X009911Y007869D01*
X009888Y007824D01*
X009862Y007781D01*
X009833Y007740D01*
X009800Y007701D01*
X009765Y007665D01*
X009727Y007632D01*
X009687Y007602D01*
X009644Y007575D01*
X009599Y007552D01*
X009553Y007532D01*
X009505Y007515D01*
X009457Y007503D01*
X009407Y007494D01*
X009357Y007489D01*
X009306Y007488D01*
X009256Y007491D01*
X009206Y007498D01*
X009157Y007509D01*
X009109Y007523D01*
X009062Y007541D01*
X009016Y007563D01*
X008972Y007588D01*
X008931Y007617D01*
X008892Y007648D01*
X008855Y007683D01*
X008821Y007720D01*
X008790Y007760D01*
X008762Y007802D01*
X008738Y007846D01*
X008717Y007892D01*
X008700Y007940D01*
X008687Y007988D01*
X008677Y008038D01*
X008671Y008088D01*
X008669Y008138D01*
X020480Y008138D02*
X020482Y008188D01*
X020488Y008238D01*
X020498Y008288D01*
X020511Y008336D01*
X020528Y008384D01*
X020549Y008430D01*
X020573Y008474D01*
X020601Y008516D01*
X020632Y008556D01*
X020666Y008593D01*
X020703Y008628D01*
X020742Y008659D01*
X020783Y008688D01*
X020827Y008713D01*
X020873Y008735D01*
X020920Y008753D01*
X020968Y008767D01*
X021017Y008778D01*
X021067Y008785D01*
X021117Y008788D01*
X021168Y008787D01*
X021218Y008782D01*
X021268Y008773D01*
X021316Y008761D01*
X021364Y008744D01*
X021410Y008724D01*
X021455Y008701D01*
X021498Y008674D01*
X021538Y008644D01*
X021576Y008611D01*
X021611Y008575D01*
X021644Y008536D01*
X021673Y008495D01*
X021699Y008452D01*
X021722Y008407D01*
X021741Y008360D01*
X021756Y008312D01*
X021768Y008263D01*
X021776Y008213D01*
X021780Y008163D01*
X021780Y008113D01*
X021776Y008063D01*
X021768Y008013D01*
X021756Y007964D01*
X021741Y007916D01*
X021722Y007869D01*
X021699Y007824D01*
X021673Y007781D01*
X021644Y007740D01*
X021611Y007701D01*
X021576Y007665D01*
X021538Y007632D01*
X021498Y007602D01*
X021455Y007575D01*
X021410Y007552D01*
X021364Y007532D01*
X021316Y007515D01*
X021268Y007503D01*
X021218Y007494D01*
X021168Y007489D01*
X021117Y007488D01*
X021067Y007491D01*
X021017Y007498D01*
X020968Y007509D01*
X020920Y007523D01*
X020873Y007541D01*
X020827Y007563D01*
X020783Y007588D01*
X020742Y007617D01*
X020703Y007648D01*
X020666Y007683D01*
X020632Y007720D01*
X020601Y007760D01*
X020573Y007802D01*
X020549Y007846D01*
X020528Y007892D01*
X020511Y007940D01*
X020498Y007988D01*
X020488Y008038D01*
X020482Y008088D01*
X020480Y008138D01*
X023236Y022705D02*
X023238Y022755D01*
X023244Y022805D01*
X023254Y022855D01*
X023267Y022903D01*
X023284Y022951D01*
X023305Y022997D01*
X023329Y023041D01*
X023357Y023083D01*
X023388Y023123D01*
X023422Y023160D01*
X023459Y023195D01*
X023498Y023226D01*
X023539Y023255D01*
X023583Y023280D01*
X023629Y023302D01*
X023676Y023320D01*
X023724Y023334D01*
X023773Y023345D01*
X023823Y023352D01*
X023873Y023355D01*
X023924Y023354D01*
X023974Y023349D01*
X024024Y023340D01*
X024072Y023328D01*
X024120Y023311D01*
X024166Y023291D01*
X024211Y023268D01*
X024254Y023241D01*
X024294Y023211D01*
X024332Y023178D01*
X024367Y023142D01*
X024400Y023103D01*
X024429Y023062D01*
X024455Y023019D01*
X024478Y022974D01*
X024497Y022927D01*
X024512Y022879D01*
X024524Y022830D01*
X024532Y022780D01*
X024536Y022730D01*
X024536Y022680D01*
X024532Y022630D01*
X024524Y022580D01*
X024512Y022531D01*
X024497Y022483D01*
X024478Y022436D01*
X024455Y022391D01*
X024429Y022348D01*
X024400Y022307D01*
X024367Y022268D01*
X024332Y022232D01*
X024294Y022199D01*
X024254Y022169D01*
X024211Y022142D01*
X024166Y022119D01*
X024120Y022099D01*
X024072Y022082D01*
X024024Y022070D01*
X023974Y022061D01*
X023924Y022056D01*
X023873Y022055D01*
X023823Y022058D01*
X023773Y022065D01*
X023724Y022076D01*
X023676Y022090D01*
X023629Y022108D01*
X023583Y022130D01*
X023539Y022155D01*
X023498Y022184D01*
X023459Y022215D01*
X023422Y022250D01*
X023388Y022287D01*
X023357Y022327D01*
X023329Y022369D01*
X023305Y022413D01*
X023284Y022459D01*
X023267Y022507D01*
X023254Y022555D01*
X023244Y022605D01*
X023238Y022655D01*
X023236Y022705D01*
X008531Y028217D02*
X008407Y028215D01*
X008284Y028209D01*
X008160Y028200D01*
X008038Y028186D01*
X007915Y028169D01*
X007793Y028147D01*
X007672Y028122D01*
X007552Y028093D01*
X007433Y028061D01*
X007314Y028024D01*
X007197Y027984D01*
X007082Y027941D01*
X006967Y027893D01*
X006855Y027842D01*
X006744Y027788D01*
X006634Y027730D01*
X006527Y027669D01*
X006421Y027604D01*
X006318Y027536D01*
X006217Y027465D01*
X006118Y027391D01*
X006021Y027314D01*
X005927Y027233D01*
X005836Y027150D01*
X005747Y027064D01*
X005661Y026975D01*
X005578Y026884D01*
X005497Y026790D01*
X005420Y026693D01*
X005346Y026594D01*
X005275Y026493D01*
X005207Y026390D01*
X005142Y026284D01*
X005081Y026177D01*
X005023Y026067D01*
X004969Y025956D01*
X004918Y025844D01*
X004870Y025729D01*
X004827Y025614D01*
X004787Y025497D01*
X004750Y025378D01*
X004718Y025259D01*
X004689Y025139D01*
X004664Y025018D01*
X004642Y024896D01*
X004625Y024773D01*
X004611Y024651D01*
X004602Y024527D01*
X004596Y024404D01*
X004594Y024280D01*
D11*
X005472Y023508D03*
X005472Y022508D03*
X005472Y021508D03*
X006472Y021508D03*
X006472Y022508D03*
X006472Y023508D03*
X007598Y018193D03*
X007598Y017193D03*
X008598Y017193D03*
X008598Y018193D03*
X008598Y016193D03*
X007598Y016193D03*
X024016Y012787D03*
X024016Y011787D03*
X024016Y010787D03*
X024016Y009787D03*
X025016Y009787D03*
X025016Y010787D03*
X025016Y011787D03*
X025016Y012787D03*
D12*
X022134Y024960D02*
X022134Y025560D01*
X021134Y025560D02*
X021134Y024960D01*
X020134Y024960D02*
X020134Y025560D01*
X019134Y025560D02*
X019134Y024960D01*
X018134Y024960D02*
X018134Y025560D01*
X017134Y025560D02*
X017134Y024960D01*
D13*
X017106Y011091D03*
X016106Y011091D03*
X016106Y010091D03*
X017106Y010091D03*
X018106Y010091D03*
X018106Y011091D03*
X015106Y011091D03*
X014106Y011091D03*
X013106Y011091D03*
X013106Y010091D03*
X014106Y010091D03*
X015106Y010091D03*
X012106Y010091D03*
X012106Y011091D03*
D14*
X011012Y019161D03*
X012705Y019909D03*
X015657Y019909D03*
X009043Y019555D03*
X008098Y019280D03*
X009043Y021799D03*
X022272Y013256D03*
X022665Y011287D03*
X023138Y011091D03*
X023335Y010461D03*
D15*
X022665Y011287D02*
X024016Y012638D01*
X024016Y012787D01*
X015657Y019909D02*
X012705Y019909D01*
X012272Y019909D01*
X011012Y019161D01*
D16*
X005886Y007054D02*
X006363Y006735D01*
X006779Y006563D01*
X023670Y006563D01*
X024086Y006735D01*
X024563Y007054D01*
X024969Y007460D01*
X025288Y007938D01*
X025461Y008354D01*
X025461Y009543D01*
X025218Y009300D01*
X025016Y009300D01*
X025016Y009787D01*
X025016Y009787D01*
X025016Y009300D01*
X024814Y009300D01*
X024528Y009586D01*
X024528Y009787D01*
X025016Y009787D01*
X025016Y009787D01*
X025016Y009787D01*
X025016Y010275D01*
X025218Y010275D01*
X025461Y010032D01*
X025461Y010543D01*
X025218Y010300D01*
X024814Y010300D01*
X024528Y010586D01*
X024528Y010989D01*
X024575Y011036D01*
X024530Y011017D01*
X024475Y011017D01*
X024503Y010989D01*
X024503Y010586D01*
X024218Y010300D01*
X023814Y010300D01*
X023693Y010421D01*
X023693Y010389D01*
X023639Y010257D01*
X023538Y010157D01*
X023406Y010102D01*
X023263Y010102D01*
X023131Y010157D01*
X023031Y010257D01*
X022976Y010389D01*
X022976Y010532D01*
X023031Y010664D01*
X023098Y010732D01*
X023066Y010732D01*
X022935Y010786D01*
X022834Y010887D01*
X022805Y010957D01*
X022737Y010929D01*
X022594Y010929D01*
X022462Y010983D01*
X022361Y011084D01*
X022307Y011216D01*
X022307Y011359D01*
X022361Y011491D01*
X022462Y011592D01*
X022594Y011646D01*
X022600Y011646D01*
X023534Y012580D01*
X023528Y012586D01*
X023528Y012986D01*
X022509Y012986D01*
X022475Y012952D01*
X022343Y012897D01*
X022200Y012897D01*
X022068Y012952D01*
X021968Y013053D01*
X021913Y013185D01*
X021913Y013327D01*
X021968Y013459D01*
X022068Y013560D01*
X022200Y013615D01*
X022343Y013615D01*
X022475Y013560D01*
X022509Y013526D01*
X024609Y013526D01*
X024708Y013485D01*
X024784Y013409D01*
X024790Y013395D01*
X024910Y013275D01*
X025218Y013275D01*
X025461Y013032D01*
X025461Y025371D01*
X025286Y025850D01*
X024962Y026412D01*
X024546Y026908D01*
X024049Y027324D01*
X023488Y027648D01*
X023009Y027823D01*
X007440Y027823D01*
X006961Y027648D01*
X006400Y027324D01*
X005903Y026908D01*
X005487Y026412D01*
X005163Y025850D01*
X004988Y025371D01*
X004988Y023713D01*
X005271Y023995D01*
X005674Y023995D01*
X005960Y023710D01*
X005960Y023306D01*
X005674Y023021D01*
X005271Y023021D01*
X004988Y023303D01*
X004988Y022713D01*
X005271Y022995D01*
X005674Y022995D01*
X005960Y022710D01*
X005960Y022306D01*
X005674Y022021D01*
X005271Y022021D01*
X004988Y022303D01*
X004988Y021713D01*
X005271Y021995D01*
X005674Y021995D01*
X005960Y021710D01*
X005960Y021306D01*
X005674Y021021D01*
X005271Y021021D01*
X004988Y021303D01*
X004988Y008354D01*
X005160Y007938D01*
X005479Y007460D01*
X005886Y007054D01*
X005817Y007123D02*
X024632Y007123D01*
X024501Y007362D02*
X024871Y007362D01*
X024656Y007492D02*
X024830Y007794D01*
X024891Y008138D01*
X024830Y008482D01*
X024656Y008784D01*
X024388Y009008D01*
X024060Y009128D01*
X023711Y009128D01*
X023383Y009008D01*
X023116Y008784D01*
X023116Y008784D01*
X022941Y008482D01*
X022941Y008482D01*
X022881Y008138D01*
X022941Y007794D01*
X023116Y007492D01*
X023116Y007492D01*
X023383Y007267D01*
X023383Y007267D01*
X023711Y007148D01*
X023834Y007148D01*
X024060Y007148D01*
X024388Y007267D01*
X024388Y007267D01*
X024656Y007492D01*
X024656Y007492D01*
X024656Y007492D01*
X024719Y007600D02*
X025063Y007600D01*
X025222Y007839D02*
X024838Y007839D01*
X024830Y007794D02*
X024830Y007794D01*
X024880Y008077D02*
X025346Y008077D01*
X025445Y008316D02*
X024860Y008316D01*
X024830Y008482D02*
X024830Y008482D01*
X024789Y008554D02*
X025461Y008554D01*
X025461Y008793D02*
X024645Y008793D01*
X024656Y008784D02*
X024656Y008784D01*
X024388Y009008D02*
X024388Y009008D01*
X024326Y009031D02*
X025461Y009031D01*
X025461Y009270D02*
X004988Y009270D01*
X004988Y009508D02*
X023606Y009508D01*
X023528Y009586D02*
X023814Y009300D01*
X024218Y009300D01*
X024503Y009586D01*
X024503Y009989D01*
X024218Y010275D01*
X023814Y010275D01*
X023528Y009989D01*
X023528Y009586D01*
X023528Y009747D02*
X018466Y009747D01*
X018528Y009809D02*
X018603Y009992D01*
X018603Y010189D01*
X018528Y010372D01*
X018388Y010512D01*
X018205Y010588D01*
X018007Y010588D01*
X017825Y010512D01*
X017685Y010372D01*
X017609Y010189D01*
X017609Y009992D01*
X017685Y009809D01*
X017825Y009669D01*
X018007Y009593D01*
X018205Y009593D01*
X018388Y009669D01*
X018528Y009809D01*
X018601Y009985D02*
X023528Y009985D01*
X023605Y010224D02*
X023763Y010224D01*
X024269Y010224D02*
X024763Y010224D01*
X024814Y010275D02*
X024528Y009989D01*
X024528Y009787D01*
X025016Y009787D01*
X025016Y010275D01*
X024814Y010275D01*
X025016Y010224D02*
X025016Y010224D01*
X025016Y009985D02*
X025016Y009985D01*
X025016Y009747D02*
X025016Y009747D01*
X025016Y009508D02*
X025016Y009508D01*
X024606Y009508D02*
X024426Y009508D01*
X024503Y009747D02*
X024528Y009747D01*
X024528Y009985D02*
X024503Y009985D01*
X024380Y010462D02*
X024652Y010462D01*
X024528Y010701D02*
X024503Y010701D01*
X024503Y010939D02*
X024528Y010939D01*
X025380Y010462D02*
X025461Y010462D01*
X025461Y010224D02*
X025269Y010224D01*
X025426Y009508D02*
X025461Y009508D01*
X024891Y008138D02*
X024891Y008138D01*
X024310Y006885D02*
X006139Y006885D01*
X006388Y007148D02*
X006615Y007148D01*
X006738Y007148D01*
X007066Y007267D01*
X007333Y007492D01*
X007508Y007794D01*
X007568Y008138D01*
X007508Y008482D01*
X007333Y008784D01*
X007066Y009008D01*
X007066Y009008D01*
X006738Y009128D01*
X006388Y009128D01*
X006060Y009008D01*
X005793Y008784D01*
X005793Y008784D01*
X005618Y008482D01*
X005558Y008138D01*
X005618Y007794D01*
X005793Y007492D01*
X005793Y007492D01*
X006060Y007267D01*
X006060Y007267D01*
X006388Y007148D01*
X005948Y007362D02*
X005578Y007362D01*
X005730Y007600D02*
X005386Y007600D01*
X005227Y007839D02*
X005610Y007839D01*
X005618Y007794D02*
X005618Y007794D01*
X005568Y008077D02*
X005103Y008077D01*
X005004Y008316D02*
X005589Y008316D01*
X005618Y008482D02*
X005618Y008482D01*
X005660Y008554D02*
X004988Y008554D01*
X004988Y008793D02*
X005803Y008793D01*
X005793Y008784D02*
X005793Y008784D01*
X006060Y009008D02*
X006060Y009008D01*
X006123Y009031D02*
X004988Y009031D01*
X005558Y008138D02*
X005558Y008138D01*
X006738Y007148D02*
X006738Y007148D01*
X007066Y007267D02*
X007066Y007267D01*
X007178Y007362D02*
X008704Y007362D01*
X008816Y007267D02*
X008549Y007492D01*
X008549Y007492D01*
X008374Y007794D01*
X008374Y007794D01*
X008314Y008138D01*
X008314Y008138D01*
X008374Y008482D01*
X008374Y008482D01*
X008549Y008784D01*
X008549Y008784D01*
X008816Y009008D01*
X008816Y009008D01*
X009144Y009128D01*
X009493Y009128D01*
X009822Y009008D01*
X009822Y009008D01*
X010089Y008784D01*
X010089Y008784D01*
X010264Y008482D01*
X010264Y008482D01*
X010324Y008138D01*
X010324Y008138D01*
X010264Y007794D01*
X010264Y007794D01*
X010089Y007492D01*
X010089Y007492D01*
X010089Y007492D01*
X009822Y007267D01*
X009822Y007267D01*
X009493Y007148D01*
X009371Y007148D01*
X009144Y007148D01*
X008816Y007267D01*
X008816Y007267D01*
X008486Y007600D02*
X007396Y007600D01*
X007333Y007492D02*
X007333Y007492D01*
X007333Y007492D01*
X007508Y007794D02*
X007508Y007794D01*
X007516Y007839D02*
X008366Y007839D01*
X008324Y008077D02*
X007558Y008077D01*
X007568Y008138D02*
X007568Y008138D01*
X007537Y008316D02*
X008345Y008316D01*
X008416Y008554D02*
X007466Y008554D01*
X007508Y008482D02*
X007508Y008482D01*
X007333Y008784D02*
X007333Y008784D01*
X007323Y008793D02*
X008559Y008793D01*
X008549Y008784D02*
X008549Y008784D01*
X008879Y009031D02*
X007003Y009031D01*
X004988Y009747D02*
X011747Y009747D01*
X011685Y009809D02*
X011825Y009669D01*
X012007Y009593D01*
X012205Y009593D01*
X012388Y009669D01*
X012528Y009809D01*
X012603Y009992D01*
X012603Y010189D01*
X012528Y010372D01*
X012388Y010512D01*
X012205Y010588D01*
X012007Y010588D01*
X011825Y010512D01*
X011685Y010372D01*
X011609Y010189D01*
X011609Y009992D01*
X011685Y009809D01*
X011612Y009985D02*
X004988Y009985D01*
X004988Y010224D02*
X011623Y010224D01*
X011775Y010462D02*
X004988Y010462D01*
X004988Y010701D02*
X011793Y010701D01*
X011825Y010669D02*
X012007Y010593D01*
X012205Y010593D01*
X012388Y010669D01*
X012528Y010809D01*
X012603Y010992D01*
X012603Y011189D01*
X012528Y011372D01*
X012388Y011512D01*
X012205Y011588D01*
X012007Y011588D01*
X011825Y011512D01*
X011685Y011372D01*
X011609Y011189D01*
X011609Y010992D01*
X011685Y010809D01*
X011825Y010669D01*
X011631Y010939D02*
X004988Y010939D01*
X004988Y011178D02*
X011609Y011178D01*
X011729Y011416D02*
X004988Y011416D01*
X004988Y011655D02*
X022608Y011655D01*
X022847Y011893D02*
X004988Y011893D01*
X004988Y012132D02*
X023085Y012132D01*
X023324Y012370D02*
X004988Y012370D01*
X004988Y012609D02*
X023528Y012609D01*
X023528Y012847D02*
X004988Y012847D01*
X004988Y013086D02*
X021954Y013086D01*
X021913Y013324D02*
X004988Y013324D01*
X004988Y013563D02*
X022075Y013563D01*
X022468Y013563D02*
X025461Y013563D01*
X025461Y013801D02*
X004988Y013801D01*
X004988Y014040D02*
X025461Y014040D01*
X025461Y014278D02*
X004988Y014278D01*
X004988Y014517D02*
X025461Y014517D01*
X025461Y014755D02*
X004988Y014755D01*
X004988Y014994D02*
X025461Y014994D01*
X025461Y015232D02*
X004988Y015232D01*
X004988Y015471D02*
X025461Y015471D01*
X025461Y015709D02*
X008804Y015709D01*
X008800Y015706D02*
X009086Y015991D01*
X009086Y016193D01*
X009086Y016395D01*
X008800Y016680D01*
X008598Y016680D01*
X008397Y016680D01*
X008111Y016395D01*
X008111Y016193D01*
X008598Y016193D01*
X008598Y016193D01*
X008111Y016193D01*
X008111Y015991D01*
X008397Y015706D01*
X008598Y015706D01*
X008598Y016193D01*
X008598Y016680D01*
X008598Y016193D01*
X008598Y016193D01*
X008598Y016193D01*
X008598Y015706D01*
X008800Y015706D01*
X008598Y015709D02*
X008598Y015709D01*
X008393Y015709D02*
X007804Y015709D01*
X007800Y015706D02*
X008086Y015991D01*
X008086Y016395D01*
X007800Y016680D01*
X007397Y016680D01*
X007111Y016395D01*
X007111Y015991D01*
X007397Y015706D01*
X007800Y015706D01*
X008042Y015948D02*
X008154Y015948D01*
X008111Y016186D02*
X008086Y016186D01*
X008056Y016425D02*
X008141Y016425D01*
X008380Y016663D02*
X007817Y016663D01*
X007800Y016706D02*
X008086Y016991D01*
X008086Y017324D01*
X008111Y017298D01*
X008111Y016991D01*
X008397Y016706D01*
X008800Y016706D01*
X009086Y016991D01*
X009086Y017395D01*
X008800Y017680D01*
X008493Y017680D01*
X008468Y017706D01*
X008800Y017706D01*
X009086Y017991D01*
X009086Y018395D01*
X008800Y018680D01*
X008397Y018680D01*
X008368Y018652D01*
X008368Y019042D01*
X008403Y019076D01*
X008457Y019208D01*
X008457Y019351D01*
X008403Y019483D01*
X008302Y019584D01*
X008170Y019638D01*
X008027Y019638D01*
X007895Y019584D01*
X007794Y019483D01*
X007740Y019351D01*
X007740Y019208D01*
X007794Y019076D01*
X007828Y019042D01*
X007828Y018652D01*
X007800Y018680D01*
X007397Y018680D01*
X007111Y018395D01*
X007111Y017991D01*
X007397Y017706D01*
X007800Y017706D01*
X007828Y017734D01*
X007828Y017652D01*
X007800Y017680D01*
X007397Y017680D01*
X007111Y017395D01*
X007111Y016991D01*
X007397Y016706D01*
X007800Y016706D01*
X007996Y016902D02*
X008200Y016902D01*
X008111Y017140D02*
X008086Y017140D01*
X008598Y016663D02*
X008598Y016663D01*
X008817Y016663D02*
X025461Y016663D01*
X025461Y016425D02*
X009056Y016425D01*
X009086Y016193D02*
X008598Y016193D01*
X008598Y016193D01*
X009086Y016193D01*
X009086Y016186D02*
X025461Y016186D01*
X025461Y015948D02*
X009042Y015948D01*
X008598Y015948D02*
X008598Y015948D01*
X008598Y016186D02*
X008598Y016186D01*
X008598Y016425D02*
X008598Y016425D01*
X008996Y016902D02*
X025461Y016902D01*
X025461Y017140D02*
X009086Y017140D01*
X009086Y017379D02*
X025461Y017379D01*
X025461Y017617D02*
X008863Y017617D01*
X008950Y017856D02*
X025461Y017856D01*
X025461Y018094D02*
X009086Y018094D01*
X009086Y018333D02*
X025461Y018333D01*
X025461Y018571D02*
X008909Y018571D01*
X008368Y018810D02*
X010923Y018810D01*
X010940Y018803D02*
X011083Y018803D01*
X011215Y018857D01*
X011316Y018958D01*
X011335Y019004D01*
X012354Y019609D01*
X012497Y019609D01*
X012502Y019605D01*
X012633Y019551D01*
X012776Y019551D01*
X012908Y019605D01*
X012912Y019609D01*
X015450Y019609D01*
X015454Y019605D01*
X015586Y019551D01*
X015729Y019551D01*
X015861Y019605D01*
X015962Y019706D01*
X016016Y019838D01*
X016016Y019981D01*
X015962Y020113D01*
X015861Y020214D01*
X015729Y020268D01*
X015586Y020268D01*
X015454Y020214D01*
X015450Y020209D01*
X012912Y020209D01*
X012908Y020214D01*
X012776Y020268D01*
X012633Y020268D01*
X012502Y020214D01*
X012497Y020209D01*
X012309Y020209D01*
X012288Y020215D01*
X012250Y020209D01*
X012212Y020209D01*
X012192Y020201D01*
X012170Y020198D01*
X012137Y020178D01*
X012102Y020164D01*
X012086Y020148D01*
X011028Y019520D01*
X010940Y019520D01*
X010809Y019466D01*
X010708Y019365D01*
X010653Y019233D01*
X010653Y019090D01*
X010708Y018958D01*
X010809Y018857D01*
X010940Y018803D01*
X011100Y018810D02*
X025461Y018810D01*
X025461Y019048D02*
X011409Y019048D01*
X011811Y019287D02*
X025461Y019287D01*
X025461Y019525D02*
X012212Y019525D01*
X011840Y020002D02*
X009313Y020002D01*
X009313Y019792D02*
X009313Y021562D01*
X009347Y021596D01*
X009402Y021728D01*
X009402Y021871D01*
X009347Y022002D01*
X009247Y022103D01*
X009115Y022158D01*
X008972Y022158D01*
X008840Y022103D01*
X008739Y022002D01*
X008685Y021871D01*
X008685Y021728D01*
X008739Y021596D01*
X008773Y021562D01*
X008773Y019792D01*
X008739Y019758D01*
X008685Y019626D01*
X008685Y019484D01*
X008739Y019352D01*
X008840Y019251D01*
X008972Y019196D01*
X009115Y019196D01*
X009247Y019251D01*
X009347Y019352D01*
X009402Y019484D01*
X009402Y019626D01*
X009347Y019758D01*
X009313Y019792D01*
X009342Y019764D02*
X011439Y019764D01*
X011037Y019525D02*
X009402Y019525D01*
X009282Y019287D02*
X010675Y019287D01*
X010670Y019048D02*
X008375Y019048D01*
X008457Y019287D02*
X008804Y019287D01*
X008685Y019525D02*
X008360Y019525D01*
X008745Y019764D02*
X004988Y019764D01*
X004988Y020002D02*
X008773Y020002D01*
X008773Y020241D02*
X004988Y020241D01*
X004988Y020479D02*
X008773Y020479D01*
X008773Y020718D02*
X004988Y020718D01*
X004988Y020956D02*
X008773Y020956D01*
X008773Y021195D02*
X006849Y021195D01*
X006960Y021306D02*
X006960Y021508D01*
X006960Y021710D01*
X006674Y021995D01*
X006472Y021995D01*
X006271Y021995D01*
X005985Y021710D01*
X005985Y021508D01*
X006472Y021508D01*
X006472Y021508D01*
X005985Y021508D01*
X005985Y021306D01*
X006271Y021021D01*
X006472Y021021D01*
X006472Y021508D01*
X006472Y021995D01*
X006472Y021508D01*
X006472Y021508D01*
X006472Y021508D01*
X006472Y021021D01*
X006674Y021021D01*
X006960Y021306D01*
X006960Y021433D02*
X008773Y021433D01*
X008708Y021672D02*
X006960Y021672D01*
X006960Y021508D02*
X006472Y021508D01*
X006472Y021508D01*
X006960Y021508D01*
X006472Y021433D02*
X006472Y021433D01*
X006472Y021195D02*
X006472Y021195D01*
X006096Y021195D02*
X005849Y021195D01*
X005960Y021433D02*
X005985Y021433D01*
X005985Y021672D02*
X005960Y021672D01*
X005759Y021910D02*
X006186Y021910D01*
X006271Y022021D02*
X006674Y022021D01*
X006960Y022306D01*
X006960Y022710D01*
X006674Y022995D01*
X006271Y022995D01*
X005985Y022710D01*
X005985Y022306D01*
X006271Y022021D01*
X006142Y022149D02*
X005803Y022149D01*
X005960Y022387D02*
X005985Y022387D01*
X005985Y022626D02*
X005960Y022626D01*
X005805Y022864D02*
X006140Y022864D01*
X006271Y023021D02*
X006674Y023021D01*
X006960Y023306D01*
X006960Y023710D01*
X006674Y023995D01*
X006271Y023995D01*
X005985Y023710D01*
X005985Y023306D01*
X006271Y023021D01*
X006188Y023103D02*
X005757Y023103D01*
X005960Y023341D02*
X005985Y023341D01*
X005985Y023580D02*
X005960Y023580D01*
X005851Y023818D02*
X006094Y023818D01*
X006388Y024471D02*
X006060Y024590D01*
X006060Y024590D01*
X005793Y024814D01*
X005793Y024814D01*
X005618Y025117D01*
X005618Y025117D01*
X005558Y025461D01*
X005558Y025461D01*
X005618Y025804D01*
X005618Y025804D01*
X005793Y026107D01*
X005793Y026107D01*
X005793Y026107D01*
X006060Y026331D01*
X006060Y026331D01*
X006388Y026451D01*
X006738Y026451D01*
X007066Y026331D01*
X007066Y026331D01*
X007333Y026107D01*
X007333Y026107D01*
X007508Y025804D01*
X007508Y025804D01*
X007568Y025461D01*
X007508Y025117D01*
X007508Y025117D01*
X007333Y024814D01*
X007333Y024814D01*
X007066Y024590D01*
X007066Y024590D01*
X006738Y024471D01*
X006511Y024471D01*
X006388Y024471D01*
X006215Y024534D02*
X004988Y024534D01*
X004988Y024772D02*
X005843Y024772D01*
X005680Y025011D02*
X004988Y025011D01*
X004988Y025249D02*
X005595Y025249D01*
X005563Y025488D02*
X005031Y025488D01*
X005118Y025726D02*
X005605Y025726D01*
X005711Y025965D02*
X005229Y025965D01*
X005366Y026203D02*
X005908Y026203D01*
X005512Y026442D02*
X006364Y026442D01*
X006762Y026442D02*
X023687Y026442D01*
X023711Y026451D02*
X023383Y026331D01*
X023116Y026107D01*
X023116Y026107D01*
X022941Y025804D01*
X022881Y025461D01*
X022881Y025461D01*
X022941Y025117D01*
X022941Y025117D01*
X023116Y024814D01*
X023383Y024590D01*
X023383Y024590D01*
X023711Y024471D01*
X023834Y024471D01*
X024060Y024471D01*
X024388Y024590D01*
X024388Y024590D01*
X024656Y024814D01*
X024656Y024814D01*
X024656Y024814D01*
X024830Y025117D01*
X024891Y025461D01*
X024830Y025804D01*
X024656Y026107D01*
X024388Y026331D01*
X024060Y026451D01*
X023711Y026451D01*
X023383Y026331D02*
X023383Y026331D01*
X023231Y026203D02*
X007218Y026203D01*
X007415Y025965D02*
X016807Y025965D01*
X016795Y025956D02*
X016737Y025899D01*
X016689Y025832D01*
X016652Y025759D01*
X016627Y025682D01*
X016614Y025601D01*
X016614Y025260D01*
X017134Y025260D01*
X017134Y025260D01*
X017134Y026080D01*
X017175Y026080D01*
X017256Y026067D01*
X017333Y026042D01*
X017406Y026005D01*
X017473Y025956D01*
X017530Y025899D01*
X017579Y025832D01*
X017616Y025759D01*
X017632Y025708D01*
X017693Y025854D01*
X017839Y026001D01*
X018030Y026080D01*
X018237Y026080D01*
X018428Y026001D01*
X018575Y025854D01*
X018634Y025712D01*
X018693Y025854D01*
X018839Y026001D01*
X019030Y026080D01*
X019237Y026080D01*
X019428Y026001D01*
X019575Y025854D01*
X019634Y025712D01*
X019693Y025854D01*
X019839Y026001D01*
X020030Y026080D01*
X020237Y026080D01*
X020428Y026001D01*
X020575Y025854D01*
X020634Y025712D01*
X020693Y025854D01*
X020839Y026001D01*
X021030Y026080D01*
X021237Y026080D01*
X021428Y026001D01*
X021575Y025854D01*
X021634Y025712D01*
X021693Y025854D01*
X021839Y026001D01*
X022030Y026080D01*
X022237Y026080D01*
X022428Y026001D01*
X022575Y025854D01*
X022654Y025663D01*
X022654Y024856D01*
X022575Y024665D01*
X022428Y024519D01*
X022237Y024440D01*
X022030Y024440D01*
X021839Y024519D01*
X021693Y024665D01*
X021634Y024808D01*
X021575Y024665D01*
X021428Y024519D01*
X021237Y024440D01*
X021030Y024440D01*
X020839Y024519D01*
X020693Y024665D01*
X020634Y024808D01*
X020575Y024665D01*
X020428Y024519D01*
X020237Y024440D01*
X020030Y024440D01*
X019839Y024519D01*
X019693Y024665D01*
X019634Y024808D01*
X019575Y024665D01*
X019428Y024519D01*
X019237Y024440D01*
X019030Y024440D01*
X018839Y024519D01*
X018693Y024665D01*
X018634Y024808D01*
X018575Y024665D01*
X018428Y024519D01*
X018237Y024440D01*
X018030Y024440D01*
X017839Y024519D01*
X017693Y024665D01*
X017632Y024812D01*
X017616Y024760D01*
X017579Y024687D01*
X017530Y024621D01*
X017473Y024563D01*
X017406Y024515D01*
X017333Y024478D01*
X017256Y024453D01*
X017175Y024440D01*
X017134Y024440D01*
X017134Y025260D01*
X017134Y026080D01*
X017093Y026080D01*
X017012Y026067D01*
X016934Y026042D01*
X016861Y026005D01*
X016795Y025956D01*
X016641Y025726D02*
X007521Y025726D01*
X007563Y025488D02*
X016614Y025488D01*
X016614Y025260D02*
X016614Y024919D01*
X016627Y024838D01*
X016652Y024760D01*
X016689Y024687D01*
X016737Y024621D01*
X016795Y024563D01*
X016861Y024515D01*
X016934Y024478D01*
X017012Y024453D01*
X017093Y024440D01*
X017134Y024440D01*
X017134Y025260D01*
X017134Y025260D01*
X017134Y025260D01*
X016614Y025260D01*
X016614Y025249D02*
X007531Y025249D01*
X007446Y025011D02*
X016614Y025011D01*
X016648Y024772D02*
X007283Y024772D01*
X006911Y024534D02*
X016836Y024534D01*
X017134Y024534D02*
X017134Y024534D01*
X017134Y024772D02*
X017134Y024772D01*
X017134Y025011D02*
X017134Y025011D01*
X017134Y025249D02*
X017134Y025249D01*
X017134Y025488D02*
X017134Y025488D01*
X017134Y025726D02*
X017134Y025726D01*
X017134Y025965D02*
X017134Y025965D01*
X017461Y025965D02*
X017803Y025965D01*
X017640Y025726D02*
X017627Y025726D01*
X018464Y025965D02*
X018803Y025965D01*
X018640Y025726D02*
X018628Y025726D01*
X019464Y025965D02*
X019803Y025965D01*
X019640Y025726D02*
X019628Y025726D01*
X020464Y025965D02*
X020803Y025965D01*
X020640Y025726D02*
X020628Y025726D01*
X021464Y025965D02*
X021803Y025965D01*
X021640Y025726D02*
X021628Y025726D01*
X022464Y025965D02*
X023034Y025965D01*
X023116Y026107D02*
X023116Y026107D01*
X022941Y025804D02*
X022941Y025804D01*
X022927Y025726D02*
X022628Y025726D01*
X022654Y025488D02*
X022885Y025488D01*
X022918Y025249D02*
X022654Y025249D01*
X022654Y025011D02*
X023002Y025011D01*
X023116Y024814D02*
X023116Y024814D01*
X023166Y024772D02*
X022619Y024772D01*
X022443Y024534D02*
X023538Y024534D01*
X024234Y024534D02*
X025461Y024534D01*
X025461Y024772D02*
X024606Y024772D01*
X024769Y025011D02*
X025461Y025011D01*
X025461Y025249D02*
X024854Y025249D01*
X024886Y025488D02*
X025418Y025488D01*
X025331Y025726D02*
X024844Y025726D01*
X024738Y025965D02*
X025220Y025965D01*
X025082Y026203D02*
X024541Y026203D01*
X024656Y026107D02*
X024656Y026107D01*
X024388Y026331D02*
X024388Y026331D01*
X024085Y026442D02*
X024937Y026442D01*
X024737Y026680D02*
X005712Y026680D01*
X005916Y026919D02*
X024533Y026919D01*
X024248Y027157D02*
X006200Y027157D01*
X006523Y027396D02*
X023925Y027396D01*
X023512Y027634D02*
X006936Y027634D01*
X004988Y024295D02*
X025461Y024295D01*
X025461Y024057D02*
X004988Y024057D01*
X004988Y023818D02*
X005094Y023818D01*
X005188Y023103D02*
X004988Y023103D01*
X004988Y022864D02*
X005140Y022864D01*
X005142Y022149D02*
X004988Y022149D01*
X004988Y021910D02*
X005186Y021910D01*
X005096Y021195D02*
X004988Y021195D01*
X006472Y021672D02*
X006472Y021672D01*
X006472Y021910D02*
X006472Y021910D01*
X006759Y021910D02*
X008701Y021910D01*
X008950Y022149D02*
X006803Y022149D01*
X006960Y022387D02*
X022937Y022387D01*
X022941Y022361D02*
X022941Y022361D01*
X023116Y022059D01*
X023383Y021834D01*
X023711Y021715D01*
X023834Y021715D01*
X024060Y021715D01*
X024388Y021834D01*
X024388Y021834D01*
X024656Y022059D01*
X024830Y022361D01*
X024891Y022705D01*
X024830Y023049D01*
X024656Y023351D01*
X024388Y023575D01*
X024060Y023695D01*
X023711Y023695D01*
X023383Y023575D01*
X023116Y023351D01*
X023116Y023351D01*
X022941Y023049D01*
X022941Y023049D01*
X022881Y022705D01*
X022881Y022705D01*
X022941Y022361D01*
X023064Y022149D02*
X009137Y022149D01*
X009386Y021910D02*
X023292Y021910D01*
X023383Y021834D02*
X023383Y021834D01*
X023116Y022059D02*
X023116Y022059D01*
X022894Y022626D02*
X006960Y022626D01*
X006805Y022864D02*
X022909Y022864D01*
X022973Y023103D02*
X006757Y023103D01*
X006960Y023341D02*
X023110Y023341D01*
X023116Y023351D02*
X023116Y023351D01*
X023383Y023575D02*
X023383Y023575D01*
X023396Y023580D02*
X006960Y023580D01*
X006851Y023818D02*
X025461Y023818D01*
X025461Y023580D02*
X024376Y023580D01*
X024388Y023575D02*
X024388Y023575D01*
X024656Y023351D02*
X024656Y023351D01*
X024661Y023341D02*
X025461Y023341D01*
X025461Y023103D02*
X024799Y023103D01*
X024830Y023049D02*
X024830Y023049D01*
X024863Y022864D02*
X025461Y022864D01*
X025461Y022626D02*
X024877Y022626D01*
X024891Y022705D02*
X024891Y022705D01*
X024835Y022387D02*
X025461Y022387D01*
X025461Y022149D02*
X024708Y022149D01*
X024656Y022059D02*
X024656Y022059D01*
X024656Y022059D01*
X024479Y021910D02*
X025461Y021910D01*
X025461Y021672D02*
X009379Y021672D01*
X009313Y021433D02*
X025461Y021433D01*
X025461Y021195D02*
X009313Y021195D01*
X009313Y020956D02*
X025461Y020956D01*
X025461Y020718D02*
X009313Y020718D01*
X009313Y020479D02*
X025461Y020479D01*
X025461Y020241D02*
X015795Y020241D01*
X015520Y020241D02*
X012842Y020241D01*
X012567Y020241D02*
X009313Y020241D01*
X007837Y019525D02*
X004988Y019525D01*
X004988Y019287D02*
X007740Y019287D01*
X007822Y019048D02*
X004988Y019048D01*
X004988Y018810D02*
X007828Y018810D01*
X007288Y018571D02*
X004988Y018571D01*
X004988Y018333D02*
X007111Y018333D01*
X007111Y018094D02*
X004988Y018094D01*
X004988Y017856D02*
X007246Y017856D01*
X007334Y017617D02*
X004988Y017617D01*
X004988Y017379D02*
X007111Y017379D01*
X007111Y017140D02*
X004988Y017140D01*
X004988Y016902D02*
X007200Y016902D01*
X007380Y016663D02*
X004988Y016663D01*
X004988Y016425D02*
X007141Y016425D01*
X007111Y016186D02*
X004988Y016186D01*
X004988Y015948D02*
X007154Y015948D01*
X007393Y015709D02*
X004988Y015709D01*
X009759Y009031D02*
X020690Y009031D01*
X020627Y009008D02*
X020955Y009128D01*
X021304Y009128D01*
X021633Y009008D01*
X021900Y008784D01*
X021900Y008784D01*
X022075Y008482D01*
X022075Y008482D01*
X022135Y008138D01*
X022135Y008138D01*
X022075Y007794D01*
X022075Y007794D01*
X021900Y007492D01*
X021900Y007492D01*
X021900Y007492D01*
X021633Y007267D01*
X021633Y007267D01*
X021304Y007148D01*
X021078Y007148D01*
X020955Y007148D01*
X020627Y007267D01*
X020627Y007267D01*
X020360Y007492D01*
X020360Y007492D01*
X020185Y007794D01*
X020185Y007794D01*
X020125Y008138D01*
X020125Y008138D01*
X020185Y008482D01*
X020185Y008482D01*
X020360Y008784D01*
X020360Y008784D01*
X020360Y008784D01*
X020627Y009008D01*
X020627Y009008D01*
X020370Y008793D02*
X010078Y008793D01*
X010222Y008554D02*
X020227Y008554D01*
X020156Y008316D02*
X010293Y008316D01*
X010314Y008077D02*
X020135Y008077D01*
X020177Y007839D02*
X010271Y007839D01*
X010152Y007600D02*
X020297Y007600D01*
X020515Y007362D02*
X009934Y007362D01*
X009493Y007148D02*
X009493Y007148D01*
X006578Y006646D02*
X023871Y006646D01*
X023270Y007362D02*
X021745Y007362D01*
X021963Y007600D02*
X023053Y007600D01*
X022933Y007839D02*
X022082Y007839D01*
X022125Y008077D02*
X022891Y008077D01*
X022881Y008138D02*
X022881Y008138D01*
X022912Y008316D02*
X022104Y008316D01*
X022033Y008554D02*
X022983Y008554D01*
X023116Y008784D02*
X023116Y008784D01*
X023126Y008793D02*
X021889Y008793D01*
X021570Y009031D02*
X023446Y009031D01*
X023383Y009008D02*
X023383Y009008D01*
X023064Y010224D02*
X018589Y010224D01*
X018438Y010462D02*
X022976Y010462D01*
X023067Y010701D02*
X018420Y010701D01*
X018388Y010669D02*
X018528Y010809D01*
X018603Y010992D01*
X018603Y011189D01*
X018528Y011372D01*
X018388Y011512D01*
X018205Y011588D01*
X018007Y011588D01*
X017825Y011512D01*
X017685Y011372D01*
X017609Y011189D01*
X017609Y010992D01*
X017685Y010809D01*
X017825Y010669D01*
X018007Y010593D01*
X018205Y010593D01*
X018388Y010669D01*
X018582Y010939D02*
X022568Y010939D01*
X022762Y010939D02*
X022812Y010939D01*
X022322Y011178D02*
X018603Y011178D01*
X018484Y011416D02*
X022330Y011416D01*
X024861Y013324D02*
X025461Y013324D01*
X025461Y013086D02*
X025407Y013086D01*
X025461Y019764D02*
X015985Y019764D01*
X016007Y020002D02*
X025461Y020002D01*
X024830Y022361D02*
X024830Y022361D01*
X021824Y024534D02*
X021443Y024534D01*
X021619Y024772D02*
X021649Y024772D01*
X020824Y024534D02*
X020443Y024534D01*
X020619Y024772D02*
X020649Y024772D01*
X019824Y024534D02*
X019443Y024534D01*
X019619Y024772D02*
X019649Y024772D01*
X018824Y024534D02*
X018443Y024534D01*
X018619Y024772D02*
X018649Y024772D01*
X017824Y024534D02*
X017432Y024534D01*
X017620Y024772D02*
X017649Y024772D01*
X017205Y011588D02*
X017007Y011588D01*
X016825Y011512D01*
X016685Y011372D01*
X016609Y011189D01*
X016609Y010992D01*
X016685Y010809D01*
X016825Y010669D01*
X017007Y010593D01*
X017205Y010593D01*
X017388Y010669D01*
X017528Y010809D01*
X017603Y010992D01*
X017603Y011189D01*
X017528Y011372D01*
X017388Y011512D01*
X017205Y011588D01*
X017484Y011416D02*
X017729Y011416D01*
X017609Y011178D02*
X017603Y011178D01*
X017582Y010939D02*
X017631Y010939D01*
X017793Y010701D02*
X017420Y010701D01*
X017388Y010512D02*
X017205Y010588D01*
X017007Y010588D01*
X016825Y010512D01*
X016685Y010372D01*
X016609Y010189D01*
X016609Y009992D01*
X016685Y009809D01*
X016825Y009669D01*
X017007Y009593D01*
X017205Y009593D01*
X017388Y009669D01*
X017528Y009809D01*
X017603Y009992D01*
X017603Y010189D01*
X017528Y010372D01*
X017388Y010512D01*
X017438Y010462D02*
X017775Y010462D01*
X017623Y010224D02*
X017589Y010224D01*
X017601Y009985D02*
X017612Y009985D01*
X017747Y009747D02*
X017466Y009747D01*
X016747Y009747D02*
X016466Y009747D01*
X016528Y009809D02*
X016603Y009992D01*
X016603Y010189D01*
X016528Y010372D01*
X016388Y010512D01*
X016205Y010588D01*
X016007Y010588D01*
X015825Y010512D01*
X015685Y010372D01*
X015609Y010189D01*
X015609Y009992D01*
X015685Y009809D01*
X015825Y009669D01*
X016007Y009593D01*
X016205Y009593D01*
X016388Y009669D01*
X016528Y009809D01*
X016601Y009985D02*
X016612Y009985D01*
X016623Y010224D02*
X016589Y010224D01*
X016438Y010462D02*
X016775Y010462D01*
X016793Y010701D02*
X016420Y010701D01*
X016388Y010669D02*
X016528Y010809D01*
X016603Y010992D01*
X016603Y011189D01*
X016528Y011372D01*
X016388Y011512D01*
X016205Y011588D01*
X016007Y011588D01*
X015825Y011512D01*
X015685Y011372D01*
X015609Y011189D01*
X015609Y010992D01*
X015685Y010809D01*
X015825Y010669D01*
X016007Y010593D01*
X016205Y010593D01*
X016388Y010669D01*
X016582Y010939D02*
X016631Y010939D01*
X016603Y011178D02*
X016609Y011178D01*
X016729Y011416D02*
X016484Y011416D01*
X015729Y011416D02*
X015484Y011416D01*
X015486Y011414D02*
X015430Y011470D01*
X015367Y011516D01*
X015297Y011551D01*
X015223Y011575D01*
X015145Y011588D01*
X015106Y011588D01*
X015067Y011588D01*
X014990Y011575D01*
X014915Y011551D01*
X014846Y011516D01*
X014782Y011470D01*
X014727Y011414D01*
X014681Y011351D01*
X014646Y011281D01*
X014621Y011207D01*
X014609Y011130D01*
X014609Y011091D01*
X015106Y011091D01*
X015106Y011588D01*
X015106Y011091D01*
X015106Y011091D01*
X015106Y011091D01*
X014609Y011091D01*
X014609Y011051D01*
X014621Y010974D01*
X014646Y010900D01*
X014681Y010830D01*
X014727Y010767D01*
X014782Y010711D01*
X014846Y010665D01*
X014915Y010630D01*
X014990Y010606D01*
X015067Y010593D01*
X015106Y010593D01*
X015106Y011091D01*
X015603Y011091D01*
X015603Y011130D01*
X015591Y011207D01*
X015567Y011281D01*
X015532Y011351D01*
X015486Y011414D01*
X015596Y011178D02*
X015609Y011178D01*
X015603Y011091D02*
X015106Y011091D01*
X015106Y011091D01*
X015106Y011091D01*
X015106Y010593D01*
X015145Y010593D01*
X015223Y010606D01*
X015297Y010630D01*
X015367Y010665D01*
X015430Y010711D01*
X015486Y010767D01*
X015532Y010830D01*
X015567Y010900D01*
X015591Y010974D01*
X015603Y011051D01*
X015603Y011091D01*
X015580Y010939D02*
X015631Y010939D01*
X015793Y010701D02*
X015416Y010701D01*
X015388Y010512D02*
X015205Y010588D01*
X015007Y010588D01*
X014825Y010512D01*
X014685Y010372D01*
X014609Y010189D01*
X014609Y009992D01*
X014685Y009809D01*
X014825Y009669D01*
X015007Y009593D01*
X015205Y009593D01*
X015388Y009669D01*
X015528Y009809D01*
X015603Y009992D01*
X015603Y010189D01*
X015528Y010372D01*
X015388Y010512D01*
X015438Y010462D02*
X015775Y010462D01*
X015623Y010224D02*
X015589Y010224D01*
X015601Y009985D02*
X015612Y009985D01*
X015747Y009747D02*
X015466Y009747D01*
X014747Y009747D02*
X014466Y009747D01*
X014528Y009809D02*
X014603Y009992D01*
X014603Y010189D01*
X014528Y010372D01*
X014388Y010512D01*
X014205Y010588D01*
X014007Y010588D01*
X013825Y010512D01*
X013685Y010372D01*
X013609Y010189D01*
X013609Y009992D01*
X013685Y009809D01*
X013825Y009669D01*
X014007Y009593D01*
X014205Y009593D01*
X014388Y009669D01*
X014528Y009809D01*
X014601Y009985D02*
X014612Y009985D01*
X014623Y010224D02*
X014589Y010224D01*
X014438Y010462D02*
X014775Y010462D01*
X014797Y010701D02*
X014420Y010701D01*
X014388Y010669D02*
X014528Y010809D01*
X014603Y010992D01*
X014603Y011189D01*
X014528Y011372D01*
X014388Y011512D01*
X014205Y011588D01*
X014007Y011588D01*
X013825Y011512D01*
X013685Y011372D01*
X013609Y011189D01*
X013609Y010992D01*
X013685Y010809D01*
X013825Y010669D01*
X014007Y010593D01*
X014205Y010593D01*
X014388Y010669D01*
X014582Y010939D02*
X014633Y010939D01*
X014617Y011178D02*
X014603Y011178D01*
X014484Y011416D02*
X014729Y011416D01*
X015106Y011416D02*
X015106Y011416D01*
X015106Y011178D02*
X015106Y011178D01*
X015106Y010939D02*
X015106Y010939D01*
X015106Y010701D02*
X015106Y010701D01*
X013793Y010701D02*
X013420Y010701D01*
X013388Y010669D02*
X013528Y010809D01*
X013603Y010992D01*
X013603Y011189D01*
X013528Y011372D01*
X013388Y011512D01*
X013205Y011588D01*
X013007Y011588D01*
X012825Y011512D01*
X012685Y011372D01*
X012609Y011189D01*
X012609Y010992D01*
X012685Y010809D01*
X012825Y010669D01*
X013007Y010593D01*
X013205Y010593D01*
X013388Y010669D01*
X013297Y010551D02*
X013223Y010575D01*
X013145Y010588D01*
X013106Y010588D01*
X013067Y010588D01*
X012990Y010575D01*
X012915Y010551D01*
X012846Y010516D01*
X012782Y010470D01*
X012727Y010414D01*
X012681Y010351D01*
X012646Y010281D01*
X012621Y010207D01*
X012609Y010130D01*
X012609Y010091D01*
X013106Y010091D01*
X013106Y010588D01*
X013106Y010091D01*
X013106Y010091D01*
X013106Y010091D01*
X012609Y010091D01*
X012609Y010051D01*
X012621Y009974D01*
X012646Y009900D01*
X012681Y009830D01*
X012727Y009767D01*
X012782Y009711D01*
X012846Y009665D01*
X012915Y009630D01*
X012990Y009606D01*
X013067Y009593D01*
X013106Y009593D01*
X013106Y010091D01*
X013603Y010091D01*
X013603Y010130D01*
X013591Y010207D01*
X013567Y010281D01*
X013532Y010351D01*
X013486Y010414D01*
X013430Y010470D01*
X013367Y010516D01*
X013297Y010551D01*
X013438Y010462D02*
X013775Y010462D01*
X013623Y010224D02*
X013586Y010224D01*
X013603Y010091D02*
X013106Y010091D01*
X013106Y010091D01*
X013106Y010091D01*
X013106Y009593D01*
X013145Y009593D01*
X013223Y009606D01*
X013297Y009630D01*
X013367Y009665D01*
X013430Y009711D01*
X013486Y009767D01*
X013532Y009830D01*
X013567Y009900D01*
X013591Y009974D01*
X013603Y010051D01*
X013603Y010091D01*
X013593Y009985D02*
X013612Y009985D01*
X013747Y009747D02*
X013466Y009747D01*
X013106Y009747D02*
X013106Y009747D01*
X013106Y009985D02*
X013106Y009985D01*
X013106Y010224D02*
X013106Y010224D01*
X013106Y010462D02*
X013106Y010462D01*
X012775Y010462D02*
X012438Y010462D01*
X012420Y010701D02*
X012793Y010701D01*
X012631Y010939D02*
X012582Y010939D01*
X012603Y011178D02*
X012609Y011178D01*
X012729Y011416D02*
X012484Y011416D01*
X013484Y011416D02*
X013729Y011416D01*
X013609Y011178D02*
X013603Y011178D01*
X013582Y010939D02*
X013631Y010939D01*
X012627Y010224D02*
X012589Y010224D01*
X012601Y009985D02*
X012620Y009985D01*
X012747Y009747D02*
X012466Y009747D01*
D17*
X012350Y014398D03*
X012823Y015106D03*
X013846Y016799D03*
X014398Y016327D03*
X014949Y016799D03*
X014398Y017350D03*
X014713Y018492D03*
X014713Y019594D03*
X016091Y018059D03*
X017508Y018374D03*
X017980Y017823D03*
X017469Y016563D03*
X017980Y016051D03*
X016091Y015539D03*
X012665Y017429D03*
X011563Y017390D03*
X009988Y018256D03*
X009594Y018689D03*
X009594Y016996D03*
X009555Y015579D03*
X010067Y015067D03*
X012902Y020815D03*
X013413Y021366D03*
X014398Y021799D03*
X014870Y023335D03*
X013807Y024398D03*
X014949Y024988D03*
X014949Y026681D03*
X014437Y027154D03*
X015539Y027232D03*
X016209Y026720D03*
X013059Y027272D03*
X012114Y027626D03*
X011878Y026642D03*
X011169Y026051D03*
X011996Y025657D03*
X011996Y024713D03*
X010618Y024555D03*
X010618Y023335D03*
X011130Y022114D03*
X012390Y021720D03*
X008492Y025815D03*
X007902Y025106D03*
X008256Y024594D03*
X008177Y023492D03*
X009437Y025972D03*
X009476Y027035D03*
X007941Y026642D03*
X007744Y027626D03*
X016327Y022193D03*
X017941Y021091D03*
X016602Y020067D03*
X018138Y019516D03*
D18*
X022272Y013256D02*
X023295Y013256D01*
X024555Y013256D01*
X024555Y013248D01*
X025016Y012787D01*
X024976Y011787D02*
X025016Y011787D01*
X024976Y011787D02*
X024476Y011287D01*
X023846Y011287D01*
X023531Y010972D01*
X023531Y010657D01*
X023335Y010461D01*
X023138Y011091D02*
X023835Y011787D01*
X024016Y011787D01*
X009043Y019555D02*
X009043Y021799D01*
X008098Y019280D02*
X008098Y017693D01*
X008598Y017193D01*
M02*
