%
M48
M72
T01C0.0120
T02C0.0157
T03C0.0335
T04C0.0354
T05C0.0400
T06C0.0433
T07C0.1300
%
T01
X8571Y14594
X9555Y15579
X10067Y15067
X9594Y16996
X9988Y18256
X9594Y18689
X8571Y19280
X11130Y22114
X12390Y21720
X12902Y20815
X13413Y21366
X14398Y21799
X14870Y23335
X13807Y24398
X14949Y24988
X14949Y26681
X14437Y27154
X15539Y27232
X16327Y26720
X13059Y27272
X12114Y27626
X11878Y26642
X11169Y26051
X11996Y25657
X11996Y24713
X10618Y24555
X10618Y23335
X8177Y23492
X8256Y24594
X7902Y25106
X8492Y25815
X9437Y25972
X9476Y27035
X7941Y26642
X7744Y27626
X14713Y19594
X14713Y18492
X14398Y17350
X14949Y16799
X14398Y16327
X13846Y16799
X12665Y17429
X11563Y17390
X12823Y15106
X12350Y14398
X16091Y15539
X17469Y16563
X17980Y16051
X17980Y17823
X17508Y18374
X18138Y19516
X17941Y21091
X16602Y20067
X16091Y18059
X16327Y22193
T02
X15657Y19909
X12705Y19909
X11012Y19161
X7114Y20067
X5972Y18177
X22272Y13256
X22665Y11287
X23138Y11091
X23335Y10461
T03
X8598Y16193
X7598Y16193
X7598Y17193
X7598Y18193
X8598Y18193
X8598Y17193
T04
X12106Y11091
X12106Y10091
X13106Y10091
X13106Y11091
X14106Y11091
X15106Y11091
X15106Y10091
X14106Y10091
X16106Y10091
X16106Y11091
X17106Y11091
X17106Y10091
X18106Y10091
X18106Y11091
T05
X18134Y25260
X19134Y25260
X20134Y25260
X21134Y25260
X22134Y25260
X17134Y25260
T06
X6472Y23508
X6472Y22508
X5472Y22508
X5472Y23508
X5472Y21508
X6472Y21508
X24016Y12787
X24016Y11787
X24016Y10787
X24016Y9787
X25016Y9787
X25016Y10787
X25016Y11787
X25016Y12787
T07
X6563Y8138
X9319Y8138
X21130Y8138
X23886Y8138
X23886Y22705
X23886Y25461
X6563Y25461
M30
